<?xml version="1.0" standalone="no"?>
<!DOCTYPE svg PUBLIC "-//W3C//DTD SVG 1.1//EN" "http://www.w3.org/Graphics/SVG/1.1/DTD/svg11.dtd" >
<svg xmlns="http://www.w3.org/2000/svg">
<metadata>Generated by IcoMoon</metadata>
<defs>
<font id="muzhousev1" horiz-adv-x="1024">
<font-face units-per-em="1024" ascent="960" descent="-64" />
<missing-glyph horiz-adv-x="1024" />
<glyph unicode="&#x20;" horiz-adv-x="512" d="" />
<glyph unicode="&#xe900;" glyph-name="film" horiz-adv-x="1110" d="M994.93 225.246c-6.652-6.652-13.298-13.298-26.596-13.298l-19.95-6.652h-126.338v-39.893c0-19.95-13.298-33.247-33.247-33.247h-638.335c-19.95 0-33.247 13.298-33.247 33.247v412.261c0 19.95 13.298 33.247 33.247 33.247h13.298c-39.893 33.247-66.495 86.444-66.495 146.287 0 106.388 86.444 199.479 199.479 199.479 66.495 0 132.99-33.247 166.231-93.090 33.247 53.197 99.742 93.090 166.231 93.090 106.388 0 199.479-86.444 199.479-199.479 0-59.843-26.596-113.040-66.495-146.287h19.95c19.95 0 33.247-13.298 33.247-33.247v-39.893h126.338c13.298 0 33.247-6.652 39.893-13.298s26.596-46.545 26.596-53.197v-199.479c6.652-13.298-6.652-39.893-13.298-46.545zM296.746 896.828c-73.141 0-132.99-59.843-132.99-132.99s59.843-132.99 132.99-132.99c73.141 0 132.99 59.843 132.99 132.99s-59.843 132.99-132.99 132.99zM183.705 544.416v-345.766h565.194v345.766h-565.194zM768.849 763.845c0 73.141-59.843 132.99-132.99 132.99s-132.99-59.843-132.99-132.99 59.843-132.99 132.99-132.99c73.141 0 132.99 59.843 132.99 132.99zM948.384 471.276h-126.338v-199.479h126.338v199.479zM675.759-0.828c13.298-13.298 13.298-33.247 0-46.545-6.652-6.652-13.298-13.298-26.596-13.298-6.652 0-19.95 6.652-26.596 13.298l-186.181 179.535h99.742l139.636-132.99zM290.1-54.025c-13.298-13.298-33.247-13.298-46.545 0s-13.298 33.247 0 46.545l152.933 152.933 99.742-6.652-206.13-192.833z" />
<glyph unicode="&#xe901;" glyph-name="cat_drum" horiz-adv-x="1110" d="M1001.087 589.642v-161.874c0-17.345-17.345-34.685-34.685-34.685s-34.685 11.562-34.685 34.685v144.529c-92.499-23.123-213.904-34.685-341.094-40.469v-248.595c0 0 0-5.783 0-5.783-11.562 0-23.123 0-34.685 0s-23.123 0-34.685 0c0 0 0 5.783 0 5.783v248.595c-127.189 0-248.595 17.345-341.094 40.469v-144.529c0-17.345-17.345-34.685-34.685-34.685s-34.685 17.345-34.685 34.685v161.874c-46.252 11.562-80.937 28.907-109.844 46.252v-508.751c0-80.937 248.595-150.312 554.998-150.312s554.998 69.375 554.998 150.312v508.751c-28.907-17.345-63.592-34.685-109.844-46.252v0zM555.933 624.328c306.408 0 554.998 69.375 554.998 150.312s-248.595 150.312-554.998 150.312c-306.408 0-554.998-69.375-554.998-150.312 0-86.721 248.595-150.312 554.998-150.312z" />
<glyph unicode="&#xe902;" glyph-name="adress_metro" horiz-adv-x="1110" d="M556.066 54.876l178.394 310.533 72.676-211.425h-59.463v-92.499h363.393v99.109h-66.072l-257.68 680.53-224.644-416.246-224.644 416.246-270.893-680.53h-66.072v-92.499h363.393v92.499h-59.463l72.676 211.425 178.394-317.143z" />
<glyph unicode="&#xe903;" glyph-name="adress_pointer" horiz-adv-x="1110" d="M891.561 706.844c-5.691 11.377-11.377 28.445-17.068 39.822-62.576 159.287-204.8 210.486-324.266 210.486-153.601 0-324.266-102.398-347.019-312.889v-45.513c0 0 0-17.068 0-28.445 11.377-102.398 91.021-210.486 153.601-312.889 62.576-108.089 130.842-216.177 199.109-324.266 39.822 68.267 79.644 142.219 119.465 210.486 11.377 22.754 22.754 39.822 34.131 56.89 5.691 11.377 22.754 22.754 28.445 39.822 62.576 119.465 164.978 233.245 164.978 352.71v45.513c5.691 17.068-11.377 62.576-11.377 68.267zM555.918 484.976c-45.513 0-96.712 22.754-119.465 85.335-5.691 11.377-5.691 28.445-5.691 34.131v28.445c0 79.644 68.267 113.78 125.156 113.78 73.958 0 130.842-56.89 130.842-130.842s-62.576-130.842-130.842-130.842z" />
<glyph unicode="&#xe904;" glyph-name="basket" horiz-adv-x="1110" d="M1112.633 529.558h-75.592l-71.612-445.594c-7.956-35.806-35.806-59.679-71.612-59.679h-664.409c-47.742 0-75.592 35.806-79.572 71.612l-71.612 433.657h-75.592v43.762h270.537l258.604 270.537 27.849 27.849 27.849-27.849 258.604-270.537h266.561v-43.762zM555.642 812.032l-226.775-238.712h457.527l-230.752 238.712zM121.985 529.558l71.612-425.701c0 0 3.98-35.806 35.806-35.806h664.409c15.913 0 23.869 7.956 27.849 23.869v3.98l71.612 433.657h-871.291z" />
<glyph unicode="&#xe905;" glyph-name="basket_check" horiz-adv-x="1110" d="M555.501-62.448c-282.377 0-512 229.625-512 512s229.625 512 512 512 512-229.625 512-512-229.625-512-512-512zM555.501 899.49c-248.242 0-449.941-201.699-449.941-449.941s201.699-449.941 449.941-449.941c248.242 0 449.941 201.699 449.941 449.941s-201.699 449.941-449.941 449.941zM332.081 412.315l43.442 43.442 117.915-117.915 266.862 266.862 43.442-43.442-310.304-310.304-161.358 161.358z" />
<glyph unicode="&#xe906;" glyph-name="basket_check2" horiz-adv-x="1110" d="M555.621-62.073c-284.872 0-511.998 230.978-511.998 511.998s230.978 511.998 511.998 511.998c115.487 0 223.275-38.497 307.968-103.941l-34.646-30.798c-76.994 57.745-173.232 88.54-273.322 88.54-257.925 0-465.803-207.878-465.803-465.803s207.878-465.803 465.803-465.803 465.803 207.878 465.803 465.803c0 84.692-23.096 161.683-61.593 230.978l-454.253-446.554-242.524 238.676 30.798 34.646 211.729-207.878 446.554 435.005 19.248 15.397c61.593-84.692 100.090-188.63 100.090-304.12-3.851-281.021-230.978-508.147-515.846-508.147z" />
<glyph unicode="&#xe907;" glyph-name="basket_dostav" horiz-adv-x="1110" d="M1052.076 258.313l-18.505 40.098-342.361-160.385c-24.676 33.927-61.688 58.602-107.951 58.602-9.254 0-21.59 0-30.844-3.085l-363.951 768-129.541-6.168 3.085-43.18 98.697 6.168 111.037-231.324-64.771-169.639 138.795-265.254 37.012 18.505-129.541 246.746 43.18 114.119 215.902-456.48c-37.012-21.59-58.602-61.688-58.602-107.951 0-70.939 58.602-129.541 129.541-129.541s129.541 58.602 129.541 129.541c0 12.336 0 21.59-3.085 33.927l342.361 157.3zM583.256-19.277c-46.266 0-86.361 40.098-86.361 86.361s40.098 86.361 86.361 86.361c46.266 0 86.361-40.098 86.361-86.361 0-49.349-40.098-86.361-86.361-86.361zM1002.724 418.699l-185.061 388.627-388.627-188.144 185.061-388.627 388.627 188.144zM796.076 748.723l148.049-308.434-311.517-151.132-148.049 308.434 311.517 151.132z" />
<glyph unicode="&#xe908;" glyph-name="basket_in" horiz-adv-x="1110" d="M1033.843 526.981l-72.578-444.002c-8.538-34.155-38.423-59.769-72.578-59.769h-661.733c-46.96 0-76.845 38.423-81.116 72.578l-72.578 431.194h-76.845v42.693h268.962l256.157 268.962 29.885 29.885 29.885-29.885 256.157-268.962h268.962v-42.693h-72.578zM555.689 808.751l-226.272-239.077h456.811l-230.539 239.077zM120.225 526.981l68.307-426.927c0 0 4.271-34.155 38.423-34.155h661.733c12.809 0 25.614 8.538 29.885 21.347v4.271l72.578 431.194h-870.929zM559.956 142.747v0 0l-123.809 119.539 29.885 29.885 68.307-68.307v222.001h42.693v-222.001l72.578 72.578 29.885-29.885-119.539-123.809z" />
<glyph unicode="&#xe909;" glyph-name="basket_pack" horiz-adv-x="1110" d="M1099.507 750.106c-8.203 8.203-19.138 13.67-30.073 13.67h-669.828c-21.873 0-43.743-19.138-49.211-41.011l-95.689-541.33c-2.735-10.935 0-24.605 8.203-32.808s19.138-13.67 30.073-13.67h669.828c21.873 0 43.743 19.138 49.211 41.011l95.689 541.33c2.735 10.935 0 21.873-8.203 32.808zM673.003 728.235h117.562l-21.873-123.030h-2.735c-5.468 2.735-10.935 2.735-16.403 0l-19.138-8.203-16.403 8.203c-5.468 2.735-10.935 2.735-16.403 0l-19.138-8.203-16.403 8.203c-2.735 2.735-5.468 2.735-8.203 2.735s-2.735 0-5.468 0l24.605 120.295zM976.477 181.435c0-5.468-8.203-10.935-13.67-10.935h-667.095c0 0-2.735 0-2.735 0s0 2.735 0 2.735l95.689 541.33c0 5.468 8.203 10.935 13.67 10.935h235.124l-24.605-147.635c0-5.468 2.735-13.67 5.468-16.403s8.203-2.735 10.935-2.735c2.735 0 5.468 0 8.203 2.735l19.138 8.203 16.403-8.203c5.468-2.735 10.935-2.735 16.403 0l19.138 8.203 16.403-8.203c5.468-2.735 10.935-2.735 16.403 0l19.138 8.203 16.403-8.203c5.468-2.735 10.935-2.735 16.403 0s8.203 8.203 10.935 13.67l27.341 153.103h243.325c0 0 2.735 0 2.735 0s0-2.735 0-2.735l-101.157-544.065zM287.509 591.535c0 10.935-8.203 19.138-19.138 19.138h-210.517c-10.935 0-19.138-8.203-19.138-19.138s8.203-19.138 19.138-19.138h210.517c10.935 2.735 19.138 10.935 19.138 19.138zM230.095 381.016h-95.689c-10.935 0-19.138-8.203-19.138-19.138s8.203-19.138 19.138-19.138h95.689c10.935 0 19.138 8.203 19.138 19.138s-8.203 19.138-19.138 19.138zM268.371 476.708c0 10.935-8.203 19.138-19.138 19.138h-153.103c-10.935 0-19.138-8.203-19.138-19.138s8.203-19.138 19.138-19.138h153.103c10.935 2.735 19.138 10.935 19.138 19.138zM306.647 706.362c0 10.935-8.203 19.138-19.138 19.138h-267.933c-10.935 0-19.138-8.203-19.138-19.138s8.203-19.138 19.138-19.138h267.933c10.935 2.735 19.138 10.935 19.138 19.138z" />
<glyph unicode="&#xe90a;" glyph-name="bill" horiz-adv-x="1110" d="M1081.972 862.228h-70.894v-858.838c0-12.153-6.077-22.281-16.205-26.333-10.128-6.077-22.281-4.051-30.384 2.026l-129.636 87.099-121.534-83.049c-10.128-6.077-24.307-6.077-34.435 0l-121.534 83.049-121.534-83.049c-10.128-6.077-24.307-6.077-34.435 0l-121.534 83.049-131.662-89.124c-6.077-4.051-10.128-6.077-16.205-6.077-4.051 0-10.128 2.026-14.179 4.051-10.128 6.077-16.205 16.205-16.205 26.333v860.862h-70.894c-16.205 0-30.384 14.179-30.384 30.384s14.179 30.384 30.384 30.384h99.252c0 0 0 0 0 0h850.734c0 0 0 0 0 0h99.252c16.205 0 30.384-14.179 30.384-30.384s-12.153-30.384-28.358-30.384zM950.31 862.228h-789.968v-802.122l101.278 68.87c10.128 6.077 24.307 6.077 34.435 0l121.534-83.049 121.534 83.049c6.077 4.051 10.128 6.077 16.205 6.077s12.153-2.026 16.205-6.077l121.534-83.049 121.534 83.049c10.128 6.077 24.307 6.077 34.435 0l99.252-66.843v800.096zM747.755 284.942c0 16.205 14.179 30.384 30.384 30.384h81.022c16.205 0 30.384-14.179 30.384-30.384s-14.179-30.384-30.384-30.384h-81.022c-16.205 0-30.384 14.179-30.384 30.384zM859.16 376.093h-81.022c-16.205 0-30.384 14.179-30.384 30.384s14.179 30.384 30.384 30.384h81.022c16.205 0 30.384-14.179 30.384-30.384s-14.179-30.384-30.384-30.384zM859.16 578.649h-81.022c-16.205 0-30.384 14.179-30.384 30.384s14.179 30.384 30.384 30.384h81.022c16.205 0 30.384-14.179 30.384-30.384s-14.179-30.384-30.384-30.384zM859.16 700.182h-81.022c-16.205 0-30.384 14.179-30.384 30.384s14.179 30.384 30.384 30.384h81.022c16.205 0 30.384-14.179 30.384-30.384s-14.179-30.384-30.384-30.384zM595.837 376.093h-344.345c-16.205 0-30.384 14.179-30.384 30.384s14.179 30.384 30.384 30.384h344.345c16.205 0 30.384-14.179 30.384-30.384s-14.179-30.384-30.384-30.384zM251.492 639.415h202.556c16.205 0 30.384-14.179 30.384-30.384s-14.179-30.384-30.384-30.384h-202.556c-16.205 0-30.384 14.179-30.384 30.384s14.179 30.384 30.384 30.384zM595.837 700.182h-344.345c-16.205 0-30.384 14.179-30.384 30.384s14.179 30.384 30.384 30.384h344.345c16.205 0 30.384-14.179 30.384-30.384s-14.179-30.384-30.384-30.384zM251.492 315.326h202.556c16.205 0 30.384-14.179 30.384-30.384s-14.179-30.384-30.384-30.384h-202.556c-16.205 0-30.384 14.179-30.384 30.384s14.179 30.384 30.384 30.384z" />
<glyph unicode="&#xe90b;" glyph-name="cat_arph" horiz-adv-x="1110" d="M979.248 748.335c-34.322 0-62.925 28.604-62.925 62.925 0 5.723 0 28.604-28.604 28.604-5.723 0-11.441 0-17.163 0-11.441-5.723-17.163-28.604-22.881-34.322-11.441-57.208 0-120.133 34.322-165.9 40.044-51.485 85.812-97.252 114.415-154.46 17.163-34.322 28.604-62.925 34.322-97.252 17.163-74.371 11.441-148.737-11.441-217.385-17.163-51.485-40.044-97.252-74.371-143.014-28.604-40.044-68.648-97.252-125.856-97.252-5.723 0-22.881 0-22.881 0h-497.696c0 0-11.441 0-22.881 0-62.925 0-102.97 68.648-137.296 108.693-28.604 40.044-45.767 80.089-62.925 125.856-22.881 68.648-22.881 148.737-11.441 217.385 5.723 34.322 17.163 68.648 34.322 97.252 40.044 80.089 137.296 143.014 148.737 234.548 5.723 28.604 5.723 57.208 0 80.089 0 5.723-5.723 28.604-22.881 34.322-5.723 0-11.441 5.723-17.163 0-22.881 0-28.604-22.881-28.604-28.604 0-34.322-28.604-62.925-62.925-62.925s-62.925 28.604-62.925 62.925c0 85.812 62.925 148.737 148.737 154.46 28.604 0 62.925-5.723 85.812-17.163 45.767-22.881 80.089-74.371 85.812-131.574l-11.441-125.856h354.682l-11.441 125.856c11.441 57.208 40.044 108.693 85.812 131.574 28.604 11.441 57.208 17.163 85.812 17.163 85.812-5.723 148.737-68.648 148.737-154.46 17.163-22.881-11.441-51.485-45.767-51.485zM355.701 519.51c-5.723-5.723-11.441-11.441-11.441-17.163-5.723-11.441-11.441-17.163-17.163-28.604-11.441-17.163-28.604-40.044-34.322-57.208-11.441-28.604-17.163-57.208-22.881-85.812s0-57.208 5.723-91.529v-5.723c0-5.723 0-5.723 0-11.441s0-5.723 0-11.441l5.723-22.881c5.723-11.441 34.322-68.648 51.485-91.529 5.723-5.723 11.441-11.441 17.163-17.163v440.488zM527.319 628.202h-114.415v-549.18h114.415v549.18zM584.527 628.202v-549.18h114.415v549.18h-114.415zM756.145 525.227v-440.488c5.723 5.723 17.163 11.441 22.881 22.881 34.322 40.044 57.208 85.812 62.925 137.296 11.441 62.925 5.723 125.856-17.163 177.341-17.163 40.044-45.767 68.648-68.648 102.97z" />
<glyph unicode="&#xe90c;" glyph-name="cat_dj" horiz-adv-x="1110" d="M498.658 538.966c-67.576 0-119.552-51.981-119.552-119.552s51.981-119.552 119.552-119.552 119.552 51.981 119.552 119.552c0 67.576-51.981 119.552-119.552 119.552zM1060.041 959.998c-20.79 0-36.386-15.595-36.386-36.386v-483.412l-41.585-20.79c0 265.094-218.313 483.412-483.412 483.412s-483.412-218.313-483.412-483.412c0-265.094 218.313-483.412 483.412-483.412 239.108 0 436.627 171.533 478.212 395.046l103.961 57.176c10.395 5.2 20.79 20.79 20.79 31.186v504.202c-5.2 20.79-20.79 36.386-41.585 36.386zM909.299 377.829l-192.323-103.961c-15.595-10.395-25.99-31.186-15.595-46.781 5.2-10.395 20.79-20.79 31.186-20.79 5.2 0 10.395 0 15.595 5.2l135.147 77.971c-57.176-161.137-207.918-275.494-389.846-275.494-228.709 0-410.641 187.128-410.641 410.641 0 228.709 187.128 410.641 410.641 410.641s410.641-187.128 410.641-410.641c10.395-15.595 5.2-31.186 5.2-46.781z" />
<glyph unicode="&#xe90d;" glyph-name="cat_duh" horiz-adv-x="1110" d="M1066.203 752.756c-24.777 9.91-54.508 4.957-74.332-14.867l-118.93-118.93-282.458-9.91c-9.91 29.73-34.688 49.555-64.422 49.555-34.688 0-59.465-24.777-69.375-54.508l-322.102-14.867c-9.91 19.82-34.688 29.73-59.465 29.73-39.645 0-69.375-29.73-69.375-69.375v-69.375c0-39.645 29.73-69.375 69.375-69.375 24.777 0 44.598 14.867 59.465 29.73l79.285-4.957v-29.73c0-113.973 94.153-208.125 208.125-208.125h34.688c0-39.645 29.73-69.375 69.375-69.375s69.375 29.73 69.375 69.375h34.688c113.973 0 208.125 94.153 208.125 208.125v4.957h39.645l118.93-123.883c14.867-14.867 29.73-19.82 49.555-19.82 9.91 0 19.82 0 24.777 4.957 24.777 9.91 44.598 34.688 44.598 64.422v346.875c-9.91 34.688-24.777 59.465-49.555 69.375zM417.050 346.416c-39.645 0-69.375 29.73-69.375 69.375v24.777l104.063-4.957v-89.195h-34.688zM694.55 415.791c0-39.645-29.73-69.375-69.375-69.375h-34.688v84.242l104.063-4.957v-9.91z" />
<glyph unicode="&#xe90e;" glyph-name="cat_etnic" horiz-adv-x="1110" d="M1053.159 825.904l-107.278-107.278c-14.63-14.63-39.011-19.503-53.637-9.752l-170.666-170.666-141.411-599.772-536.379 521.754 594.894 151.162 170.666 170.666c-9.752 19.503-4.878 39.011 9.752 53.637l107.278 107.278c19.503 19.503 48.763 19.503 68.266 0l53.637-53.637c24.381-14.63 24.381-43.885 4.878-63.393zM516.776 411.428c-29.255 29.255-82.896 29.255-117.029 0-29.255-29.255-29.255-82.896 0-117.029 29.255-29.255 82.896-29.255 117.029 0 34.133 34.133 34.133 87.77 0 117.029z" />
<glyph unicode="&#xe90f;" glyph-name="cat_guitar" horiz-adv-x="1110" d="M1036.522 931.155c-38.462 38.462-96.152 38.462-134.609 0l-96.152-96.152c-19.229-19.229-28.843-48.076-28.843-72.114l-168.261-168.261c-43.267 33.652-81.728 48.076-120.185 48.076-67.305-4.809-105.766-52.881-149.033-100.957-19.229-19.229-33.652-43.267-57.69-62.5-4.809-4.809-28.843-14.424-48.076-19.229-67.305-24.038-163.456-67.305-182.685-158.647-14.424-72.114 24.038-149.033 110.571-240.375 76.919-76.919 144.223-115.38 206.723-115.38 9.614 0 19.229 0 28.843 4.809 96.152 19.229 134.609 120.185 158.647 182.685 4.809 14.424 14.424 38.462 19.229 43.267 19.229 19.229 43.267 38.462 62.5 57.69 52.881 43.267 100.957 86.533 100.957 149.033 0 38.462-14.424 76.919-48.076 120.185l177.876 168.261c0 0 4.809 0 4.809 0 24.038 0 48.076 9.614 67.305 28.843l96.152 96.152c38.462 33.652 38.462 96.152 0 134.609zM493.276 320.601c-33.652 0-62.5 28.843-62.5 62.5s28.843 62.5 62.5 62.5c33.652 0 62.5-28.843 62.5-62.5s-28.843-62.5-62.5-62.5z" />
<glyph unicode="&#xe910;" glyph-name="cat_klav" horiz-adv-x="1110" d="M823.637 450.79c-16.735 0-27.89 11.155-27.89 27.89v251.006h-55.78v-251.006c0-16.735-11.155-27.89-22.31-27.89s-22.31-11.155-22.31-27.89v-178.491c0-44.625 39.045-83.67 83.67-83.67v0c44.625 0 78.090 39.045 78.090 83.67v184.071c-11.155 11.155-22.31 22.31-33.465 22.31zM600.52 450.79c-16.735 0-27.89 11.155-27.89 27.89v251.006h-55.78v-251.006c0-16.735-11.155-27.89-22.31-27.89s-22.31-11.155-22.31-27.89v-178.491c0-44.625 39.045-83.67 83.67-83.67v0c44.625 0 78.090 39.045 78.090 83.67v184.071c-11.155 11.155-22.31 22.31-33.465 22.31zM377.404 450.79c-16.735 0-27.89 11.155-27.89 27.89v251.006h-55.78v-251.006c0-16.735-11.155-27.89-22.31-27.89s-22.31-11.155-22.31-27.89v-178.491c0-44.625 39.045-83.67 83.67-83.67v0c44.625 0 78.090 39.045 78.090 83.67v184.071c-11.155 11.155-22.31 22.31-33.465 22.31zM990.978 729.687v-251.006c0-16.735-11.155-27.89-27.89-27.89s-27.89-11.155-27.89-27.89v-178.491c0-44.625 39.045-83.67 83.67-83.67h11.155c44.625 0 83.67 39.045 83.67 83.67v479.703h-122.716zM148.713 450.79c-16.735 0-27.89 11.155-27.89 27.89v251.006h-117.136v-479.703c0-44.625 39.045-83.67 83.67-83.67h11.155c44.625 0 83.67 39.045 83.67 83.67v178.491c-5.58 11.155-22.31 22.31-33.465 22.31z" />
<glyph unicode="&#xe911;" glyph-name="cat_light" horiz-adv-x="1110" d="M452.417 464.442c23.487 0 42.274 18.788 42.274 42.274v408.66c0 23.487-18.788 42.274-42.274 42.274s-42.274-18.788-42.274-42.274v-408.66c0-23.487 18.788-42.274 42.274-42.274zM551.059 572.478v-65.761c0-51.668-42.274-98.642-98.642-98.642-51.668 0-98.642 42.274-98.642 98.642v164.403c-93.947 37.58-201.982-4.699-248.956-93.947v0c-51.668-98.642-9.394-216.075 84.549-267.744l319.412-164.403 178.496 352.292-136.221 75.155zM1016.086 398.677c-9.394 18.788-28.182 28.182-46.973 32.881l-216.075 32.881-178.496-352.292 155.009-159.708c14.093-14.093 32.881-18.788 51.668-18.788 18.788 4.699 37.58 14.093 46.973 32.881l192.589 371.084c4.699 23.487 4.699 46.973-4.699 61.066z" />
<glyph unicode="&#xe912;" glyph-name="cat_mic" horiz-adv-x="1110" d="M999.045 837.733l-56.038 56.038c-76.419 76.419-198.689 76.419-275.104 0l-15.285-15.285 331.146-331.146 15.285 15.285c81.511 76.419 81.511 198.689 0 275.104zM540.537 766.41c-50.946-50.946-66.231-117.173-50.946-178.308l-422.846-478.884c-15.285-15.285-15.285-40.758 0-50.946l96.796-96.796c15.285-15.285 35.662-15.285 50.946 0l478.884 422.846c61.135-15.285 132.458 5.096 178.308 50.946l61.135 61.135-331.146 331.146-61.135-61.135z" />
<glyph unicode="&#xe913;" glyph-name="cat_scrip" horiz-adv-x="1110" d="M1034.38 929.123c-36.020 36.020-97.769 36.020-133.789 0l-97.769-97.769c-20.581-20.581-30.872-46.311-25.729-72.040l-138.936-138.936c-25.729 10.291-51.458 20.581-82.331 20.581-41.168 0-82.331-15.438-113.207-36.020 10.291-15.438 20.581-36.020 20.581-56.601 0-51.458-41.168-97.769-97.769-97.769-41.168 0-72.040 25.729-87.478 56.601-128.641-25.729-231.558-138.936-231.558-277.868 0-56.601 15.438-108.060 46.311-154.37l-25.729-25.729c-25.729-25.729-25.729-66.897 0-87.478 10.291-10.291 30.872-20.581 46.311-20.581s30.872 5.148 46.311 20.581l25.729 25.729c46.311-25.729 97.769-46.311 154.37-46.311 138.936 0 252.139 97.769 277.868 231.558-36.020 15.438-56.601 46.311-56.601 87.478 0 51.458 41.168 97.769 97.769 97.769 20.581 0 41.168-5.148 56.601-20.581 25.729 30.872 36.020 72.040 36.020 113.207 0 30.872-5.148 56.601-20.581 82.331l138.936 138.936c0 0 5.148 0 5.148 0 25.729 0 46.311 10.291 66.897 25.729l97.769 97.769c36.020 36.020 36.020 97.769-5.148 133.789z" />
<glyph unicode="&#xe914;" glyph-name="cat_speaker" horiz-adv-x="1110" d="M555.822 644.141c30.565 0 56.038 25.473 56.038 56.038s-25.473 56.038-56.038 56.038-56.038-25.473-56.038-56.038c0-30.565 25.473-56.038 56.038-56.038zM555.822 353.752c-56.038 0-101.893-45.85-101.893-106.985 0-56.038 45.85-106.985 101.893-106.985s101.893 45.85 101.893 106.985c5.096 61.135-45.85 106.985-101.893 106.985zM729.034 960.005h-341.336c-101.893 0-183.405-86.608-183.405-188.497v-647.007c0-101.893 81.512-188.497 183.405-188.497h341.336c101.893 0 183.405 81.512 183.405 188.497v647.007c0 101.893-81.512 188.497-183.405 188.497zM555.822 847.923c81.512 0 147.743-66.231 147.743-152.835 0-81.512-66.231-152.835-147.743-152.835s-147.743 66.231-147.743 152.835c0 86.608 66.231 152.835 147.743 152.835zM555.822 37.888c-117.173 0-208.878 96.797-208.878 213.97s91.7 213.97 208.878 213.97c117.173 0 208.878-96.797 208.878-213.97s-91.7-213.97-208.878-213.97z" />
<glyph unicode="&#xe915;" glyph-name="chart" horiz-adv-x="1110" d="M230.687-59.344h93.093v372.362h-93.093v-372.362zM509.956-59.344h93.093v651.631h-93.093v-651.631zM789.225 964.657v-1023.993h93.093v1023.993h-93.093z" />
<glyph unicode="&#xe916;" glyph-name="contacts_phone" horiz-adv-x="1110" d="M439.384 334.58c90.734-90.734 187.951-168.507 233.318-129.623 58.328 58.328 90.734 110.178 220.357 6.483s32.406-168.507-25.922-226.835c-64.812-64.812-304.607-6.483-544.403 233.318s-298.13 479.597-233.318 544.403c58.328 58.328 123.14 155.545 226.835 25.922s51.85-162.023-6.483-220.357c-38.883-45.367 45.367-149.062 129.623-233.318zM569.007 749.366c0 0-25.922 6.483-45.367-12.961s-19.445-51.85 0-71.289c12.961-12.961 25.922-12.961 25.922-12.961 32.406-6.483 84.256-19.445 136.101-71.289s64.812-103.695 71.289-136.101c0 0 0-19.445 12.961-25.922 19.445-19.445 51.85-19.445 71.289 0s12.961 45.367 12.961 45.367c-12.961 64.812-45.367 136.101-97.217 194.429-51.85 51.85-123.14 84.256-187.951 90.734zM821.764 710.482c97.217-97.217 136.101-207.39 123.14-298.13 0 0-6.483-25.922 12.961-45.367s51.85-19.445 71.289 0c12.961 12.961 12.961 32.406 12.961 32.406 12.961 77.773 0 233.318-155.545 382.38-149.062 149.062-304.607 162.023-382.38 155.545 0 0-19.445 0-32.406-12.961-19.445-19.445-19.445-51.85 0-71.289s45.367-12.961 45.367-12.961c97.217 6.483 207.39-32.406 304.607-129.623z" />
<glyph unicode="&#xe917;" glyph-name="contacts_timer" horiz-adv-x="1110" d="M556.073-67.326c-285.925 0-512 232.727-512 512 0 285.925 232.727 512 512 512s512-232.727 512-512c0-279.273-226.081-512-512-512zM556.073 856.937c-226.081 0-405.611-179.536-405.611-405.611s179.536-405.611 405.611-405.611c226.081 0 405.611 179.536 405.611 405.611 0 219.429-179.536 405.611-405.611 405.611zM582.669 411.426h-66.495v332.47h66.495v-265.975h265.975v-66.495h-265.975z" />
<glyph unicode="&#xe918;" glyph-name="dialog" horiz-adv-x="1110" d="M1041.191 194.667h-159.998v-256.001l-256.001 256.001h-117.335v53.334h128.001l5.335 5.335 186.665-186.665v181.335h213.333v480h-106.669v53.334h159.998v-586.663h-53.334zM235.859 120v266.667h-218.668v575.998h853.33v-575.998h-373.331l-261.332-266.667z" />
<glyph unicode="&#xe919;" glyph-name="enter" horiz-adv-x="1110" d="M656.141 153.488h-335.29l154.055-154.055-63.433-63.433-262.799 262.799 262.799 262.799 63.433-63.433-154.055-154.055h335.29c126.867 0 226.546 99.679 226.546 226.546v489.345h90.622v-489.345c0-172.178-144.99-317.167-317.167-317.167z" />
<glyph unicode="&#xe91a;" glyph-name="galk" horiz-adv-x="1110" d="M1111.521 734.908l-686.698-677.296-423.308 413.898 94.070 103.472 329.238-319.836 592.628 583.226 94.070-103.472z" />
<glyph unicode="&#xe91b;" glyph-name="headermob_basket" horiz-adv-x="1110" d="M1054.729 464.761h-22.348l-78.221-458.156c-7.449-33.523-37.249-55.874-74.498-55.874h-644.398c-48.425 0-78.221 37.249-81.948 67.046l-78.221 446.98h-18.625c-29.8 0-55.874 26.074-55.874 59.597v37.249c0 29.8 26.074 59.597 55.874 59.597h111.744l379.934 335.236v-3.726l379.934-335.236h115.47c29.8 0 55.874-26.074 55.874-59.597v-37.249c11.175-29.8-14.898-55.874-44.698-55.874zM198.014 25.231c0 0 3.726-29.8 37.249-29.8h644.398c14.898 0 26.074 7.449 29.8 22.348v3.726l78.221 446.98h-864.164l74.498-443.257zM555.601 893.117l-316.611-279.362h629.5l-312.885 279.362zM1065.904 557.884c0 7.449-7.449 14.898-14.898 14.898h-990.809c-7.449 0-14.898-7.449-14.898-14.898v-37.249c0-7.449 7.449-14.898 14.898-14.898h994.532c7.449 0 14.898 7.449 14.898 14.898v37.249z" />
<glyph unicode="&#xe91c;" glyph-name="headermob_lupa" horiz-adv-x="1110" d="M1067.716-26.156l-35.619-35.619-284.939 284.939c-80.137-71.234-173.636-106.853-276.035-106.853-115.756 0-213.705 40.069-298.297 124.66-84.591 80.137-129.114 182.54-129.114 298.297s40.069 218.155 124.66 298.297c80.137 80.137 182.54 124.66 298.297 124.66s213.705-40.069 298.297-124.66c80.137-80.137 124.66-182.54 124.66-298.297 0-106.853-35.619-200.348-106.853-280.485l284.939-284.939zM729.351 797.496c-71.234 71.234-155.825 106.853-258.224 106.853s-186.99-35.619-258.224-106.853c-71.234-71.234-106.853-155.825-106.853-258.224s35.619-186.99 106.853-258.224c71.234-71.234 155.825-106.853 258.224-106.853s186.99 35.619 258.224 106.853c71.234 71.234 106.853 155.825 106.853 258.224s-35.619 186.99-106.853 258.224z" />
<glyph unicode="&#xe91d;" glyph-name="headermob_menu" horiz-adv-x="1110" d="M0.741 6.309v55.501h1110.006v-55.501h-1110.006zM0.741 478.062h1110.006v-55.501h-1110.006v55.501zM0.741 894.313h1110.006v-55.501h-1110.006v55.501z" />
<glyph unicode="&#xe91e;" glyph-name="home" horiz-adv-x="1110" d="M556.389 848.128l370.014-430.249h-111.868v-395.831h-533.509v395.831h-111.868l387.223 430.249zM556.389 959.996c-8.608 0-17.209 0-25.817-8.608l-481.875-559.326c-8.608-8.608-17.209-25.817-8.608-43.026s17.209-25.817 34.417-25.817h129.077v-352.806c0-17.209 17.209-34.417 34.417-34.417h197.912c17.209 0 206.52 0 232.337 0h215.121c17.209 0 8.608 17.209 8.608 34.417v361.406h137.677c17.209 0 25.817 8.608 34.417 25.817s0 34.417-8.608 43.026l-481.875 559.326c0 0-8.608 0-17.209 0v0z" />
<glyph unicode="&#xe91f;" glyph-name="kruglosut_hor" horiz-adv-x="1110" d="M41.885 405.002h-23.814v14.553h44.983v15.876h-63.505v-85.996h41.014c18.522 0 31.752 9.261 31.752 27.783 0 19.846-13.23 27.783-30.429 27.783zM39.239 365.311h-21.168v25.137h19.846c7.938 0 14.553-2.646 14.553-11.907 1.324-9.261-3.969-13.23-13.23-13.23zM113.327 387.803h42.336v14.553h-42.336v18.522h46.305v15.876h-64.827v-85.996h66.151v15.876h-46.305v21.168zM231.075 397.064c9.261 2.646 13.23 9.261 13.23 17.2 0 14.553-13.23 23.814-30.429 23.814-18.522 0-33.075-7.938-33.075-27.783h18.522c1.324 7.938 6.615 13.23 15.876 13.23 7.938 0 13.23-3.969 13.23-11.907s-5.292-11.907-15.876-11.907h-5.292v-13.23h6.615c7.938 0 15.876-2.646 15.876-11.907s-6.615-14.553-15.876-14.553c-10.585 0-17.2 5.292-18.522 15.876h-18.522c0-19.846 13.23-30.429 35.722-30.429 19.846 0 35.722 10.585 35.722 29.107-1.324 13.23-7.938 19.846-17.2 22.491zM368.668 397.064c7.938 3.969 11.907 9.261 11.907 18.522 0 15.876-10.585 21.168-27.783 21.168h-41.014v-85.996h42.336c15.876 0 30.429 7.938 30.429 25.137 0 10.585-5.292 18.522-15.876 21.168zM331.624 422.201h17.2c6.615 0 13.23-1.324 13.23-10.585 0-6.615-5.292-10.585-11.907-10.585h-19.846v21.168zM351.469 365.311h-19.846v23.814h21.168c7.938 0 13.23-3.969 13.23-11.907 0-10.585-6.615-11.907-14.553-11.907zM481.124 349.435h18.522v85.996h-18.522v-85.996zM441.434 405.002h-15.876v30.429h-18.522v-85.996h33.075c18.522 0 31.752 9.261 31.752 27.783 0 19.846-13.23 27.783-30.429 27.783zM438.788 365.311h-13.23v25.137h13.23c7.938 0 14.553-2.646 14.553-11.907s-5.292-13.23-14.553-13.23zM597.549 436.755h-21.168l-17.2-27.783-17.2 27.783h-22.491l27.783-41.014-30.429-44.983h21.168l19.846 30.429 18.522-30.429h22.491l-30.429 44.983 29.107 41.014zM655.763 438.077c-26.461 0-42.336-19.846-42.336-46.305 0-25.137 15.876-44.983 42.336-44.983s42.336 19.846 42.336 44.983c0 26.461-15.876 46.305-42.336 46.305zM655.763 363.989c-17.2 0-23.814 14.553-23.814 29.107s6.615 29.107 23.814 29.107 23.814-14.553 23.814-29.107c-1.324-14.553-7.938-29.107-23.814-29.107zM790.709 436.755h-62.181v-13.23c0-25.137-3.969-43.659-13.23-56.89h-6.615v-38.368h18.522v22.491h54.244v-22.491h18.522v38.368h-9.261v70.12zM772.187 366.635h-35.722c7.938 14.553 11.907 29.107 11.907 52.92v1.324h23.814v-54.244zM872.736 403.679h-34.398v33.075h-18.522v-85.996h18.522v37.044h34.398v-37.044h19.846v85.996h-18.522v-33.075zM952.117 405.002h-15.876v30.429h-18.522v-85.996h33.075c18.522 0 31.752 9.261 31.752 27.783 1.324 19.846-11.907 27.783-30.429 27.783zM950.794 365.311h-13.23v25.137h13.23c7.938 0 14.553-2.646 14.553-11.907s-6.615-13.23-14.553-13.23zM993.131 349.435h18.522v85.996h-18.522v-85.996zM1080.449 395.741l27.783 41.014h-21.168l-17.2-27.783-17.2 27.783h-22.491l27.783-41.014-30.429-44.983h21.168l19.846 30.429 18.522-30.429h22.491l-29.107 44.983zM11.454 512.166l14.553 13.23 30.429-42.336h14.553l-38.368 50.275 35.722 33.075h-14.553l-42.336-41.014v41.014h-10.585v-83.349h10.585v29.107zM97.451 517.458h25.137c17.2 0 25.137 9.261 25.137 25.137s-9.261 25.137-25.137 25.137h-37.044v-84.673h10.585v34.398zM97.451 557.148h21.168c13.23 0 18.522-5.292 18.522-15.876s-5.292-15.876-18.522-15.876h-21.168v31.752zM178.154 490.998c-2.646 0-5.292 1.324-7.938 1.324v-9.261c2.646-1.324 6.615-1.324 9.261-1.324 7.938 0 14.553 3.969 19.846 14.553l35.722 71.442h-11.907l-23.814-51.598-23.814 51.598h-11.907l30.429-60.859-2.646-5.292c-3.969-9.261-9.261-10.585-13.23-10.585zM252.244 483.060h10.585v74.088h43.659v9.261h-54.244v-83.349zM338.239 506.874l1.324 50.275h30.429v-74.088h10.585v83.349h-52.92l-1.324-58.212c0-14.553-3.969-17.2-10.585-17.2-1.324 0-3.969 0-6.615 1.324v-9.261c2.646-1.324 3.969-1.324 7.938-1.324 10.585-1.324 19.846 6.615 21.168 25.137zM444.080 569.055c-26.461 0-39.69-21.168-39.69-43.659s13.23-43.659 39.69-43.659c26.461 0 39.69 21.168 39.69 43.659s-13.23 43.659-39.69 43.659zM444.080 490.998c-19.846 0-29.107 17.2-29.107 34.398s7.938 34.398 29.107 34.398c19.846 0 29.107-17.2 29.107-34.398-1.324-17.2-9.261-34.398-29.107-34.398zM576.381 514.813h-10.585c-1.324-13.23-9.261-23.814-23.814-23.814-19.846 0-27.783 15.876-27.783 34.398 0 17.2 7.938 34.398 27.783 34.398 11.907 0 21.168-6.615 23.814-17.2h10.585c-2.646 17.2-17.2 27.783-34.398 27.783-25.137 0-39.69-19.846-39.69-43.659s13.23-43.659 38.368-43.659c21.168-2.646 33.075 10.585 35.722 31.752zM626.656 494.967l35.722 71.442h-11.907l-23.814-51.598-25.137 51.598h-11.907l30.429-60.859-1.324-3.969c-3.969-9.261-7.938-10.585-13.23-10.585-2.646 0-5.292 1.324-7.938 1.324v-9.261c2.646-1.324 6.615-1.324 9.261-1.324 7.938-1.324 14.553 3.969 19.846 13.23zM710.005 483.060v74.088h27.783v9.261h-66.151v-9.261h27.783v-74.088h10.585zM788.063 569.055c-26.461 0-39.69-21.168-39.69-43.659s13.23-43.659 39.69-43.659c26.461 0 39.69 21.168 39.69 43.659 1.324 22.491-13.23 43.659-39.69 43.659zM788.063 490.998c-19.846 0-29.107 17.2-29.107 34.398s7.938 34.398 29.107 34.398c19.846 0 29.107-17.2 29.107-34.398s-7.938-34.398-29.107-34.398zM899.197 529.365c-3.969-1.324-13.23-2.646-22.491-2.646-13.23 0-18.522 5.292-18.522 17.2v22.491h-10.585v-25.137c0-15.876 10.585-25.137 29.107-25.137 7.938 0 18.522 2.646 22.491 2.646v-35.722h10.585v83.349h-10.585v-37.044zM1003.714 483.060v83.349h-10.585v-35.722h-43.659v35.722h-10.585v-83.349h10.585v38.368h43.659v-38.368h10.585zM1065.897 480.414c26.461 0 39.69 21.168 39.69 43.659s-13.23 43.659-39.69 43.659c-26.461 0-39.69-21.168-39.69-43.659s13.23-43.659 39.69-43.659zM1065.897 559.794c19.846 0 29.107-17.2 29.107-34.398s-7.938-34.398-29.107-34.398c-19.846 0-29.107 17.2-29.107 34.398 1.324 15.876 9.261 34.398 29.107 34.398z" />
<glyph unicode="&#xe920;" glyph-name="kruglosut_vert" horiz-adv-x="1110" d="M38.439 473.707h-10.547l-17.138-17.138v17.138h-9.228v-42.185h9.228v13.183l5.273 5.273 13.183-18.456h11.864l-18.456 25.048 15.82 17.138zM66.125 473.707h-18.456v-42.185h9.228v14.501h9.228c10.547 0 14.501 6.592 14.501 13.183s-3.955 14.501-14.501 14.501zM63.487 453.932h-6.592v13.183h6.592c3.955 0 7.909-1.319 7.909-6.592s-2.636-6.592-7.909-6.592zM105.673 451.296l-9.228 22.411h-10.547l13.183-29.003c0-1.319 1.319-2.636 1.319-2.636 0-2.636-2.636-3.955-5.273-3.955-1.319 0-3.955 0-5.273 1.319v-7.909c1.319 0 3.955-1.319 5.273-1.319 6.592 0 10.547 3.955 13.183 10.547l14.501 31.639h-9.228l-7.909-21.092zM132.039 431.521h9.228v34.276h19.775v7.909h-29.003v-42.185zM170.27 447.341c0-6.592-1.319-7.909-3.955-7.909-1.319 0-2.636 0-3.955 0v-7.909c1.319 0 2.636-1.319 5.273-1.319 6.592 0 11.864 3.955 11.864 15.82v19.775h11.864v-34.276h9.228v42.185h-29.003l-1.319-26.366zM230.912 475.025c-13.183 0-21.092-9.228-21.092-22.411 0-11.864 7.909-22.411 21.092-22.411s21.092 9.228 21.092 22.411c-1.319 13.183-9.228 22.411-21.092 22.411zM230.912 438.113c-7.909 0-11.864 6.592-11.864 14.501s2.636 14.501 11.864 14.501c7.909 0 11.864-6.592 11.864-14.501-1.319-6.592-3.955-14.501-11.864-14.501zM279.688 438.113c-7.909 0-11.864 6.592-11.864 14.501s2.636 14.501 11.864 14.501c3.955 0 7.909-2.636 9.228-7.909h9.228c-1.319 9.228-9.228 14.501-18.456 14.501-13.183 0-21.092-9.228-21.092-22.411 0-11.864 7.909-22.411 21.092-22.411 10.547 0 17.138 6.592 18.456 17.138h-9.228c0-3.955-3.955-7.909-9.228-7.909zM323.192 451.296l-9.228 22.411h-10.547l13.183-29.003c0-1.319 1.319-2.636 1.319-2.636 0-2.636-2.636-3.955-5.273-3.955-1.319 0-3.955 0-5.273 1.319v-7.909c1.319 0 3.955-1.319 5.273-1.319 6.592 0 10.547 3.955 13.183 10.547l14.501 31.639h-9.228l-7.909-21.092zM345.603 465.797h13.183v-34.276h9.228v34.276h13.183v7.909h-34.276v-7.909zM406.244 475.025c-13.183 0-21.092-9.228-21.092-22.411 0-11.864 7.909-22.411 21.092-22.411s21.092 9.228 21.092 22.411c0 13.183-7.909 22.411-21.092 22.411zM406.244 438.113c-7.909 0-11.864 6.592-11.864 14.501s2.636 14.501 11.864 14.501 11.864-6.592 11.864-14.501c0-6.592-2.636-14.501-11.864-14.501zM458.977 456.569c-3.955-1.319-6.592-1.319-7.909-1.319-3.955 0-6.592 1.319-6.592 6.592v11.864h-9.228v-11.864c0-9.228 5.273-13.183 14.501-13.183 2.636 0 5.273 0 9.228 1.319v-17.138h9.228v42.185h-9.228v-18.456zM506.435 457.887h-17.138v15.82h-9.228v-42.185h9.228v18.456h17.138v-18.456h9.228v42.185h-9.228v-15.82zM545.985 475.025c-13.183 0-21.092-9.228-21.092-22.411 0-11.864 7.909-22.411 21.092-22.411s21.092 9.228 21.092 22.411c-1.319 13.183-7.909 22.411-21.092 22.411zM545.985 438.113c-7.909 0-11.864 6.592-11.864 14.501s2.636 14.501 11.864 14.501 11.864-6.592 11.864-14.501c-1.319-6.592-3.955-14.501-11.864-14.501zM621.128 456.569h-13.183v13.183h23.729v5.273h-30.321v-42.185h19.775c7.909 0 13.183 5.273 13.183 11.864 0 7.909-5.273 11.864-13.183 11.864zM619.809 436.795h-11.864v15.82h11.864c6.592 0 9.228-2.636 9.228-7.909s-3.955-7.909-9.228-7.909zM650.129 451.296h22.411v5.273h-22.411v13.183h23.729v5.273h-29.003v-42.185h29.003v5.273h-23.729v13.183zM706.816 453.932v0c3.955 1.319 6.592 5.273 6.592 9.228 0 7.909-5.273 11.864-14.501 11.864s-15.82-3.955-15.82-13.183h5.273c0 6.592 3.955 9.228 10.547 9.228 5.273 0 9.228-2.636 9.228-7.909s-3.955-6.592-9.228-6.592c-1.319 0-2.636 0-3.955 0v-3.955c1.319 0 2.636 0 3.955 0 5.273 0 10.547-1.319 10.547-7.909 0-5.273-3.955-7.909-10.547-7.909s-11.864 2.636-11.864 10.547h-5.273c0-10.547 6.592-14.501 17.138-14.501s17.138 5.273 17.138 13.183c0 2.636-3.955 6.592-9.228 7.909zM770.095 453.932v0c3.955 1.319 6.592 5.273 6.592 9.228s-2.636 6.592-5.273 9.228c-2.636 1.319-7.909 1.319-10.547 1.319h-15.82v-42.185h19.775c7.909 0 13.183 6.592 13.183 11.864s-2.636 9.228-7.909 10.547zM751.639 469.752h11.864c5.273 0 9.228-1.319 9.228-6.592 0-3.955-2.636-6.592-9.228-6.592h-11.864v13.183zM764.822 436.795h-14.501v14.501h13.183c5.273 0 9.228-1.319 9.228-6.592s-2.636-7.909-7.909-7.909zM825.463 431.521h5.273v42.185h-5.273v-42.185zM807.007 456.569h-13.183v17.138h-5.273v-42.185h18.456c7.909 0 13.183 5.273 13.183 11.864 0 9.228-3.955 13.183-13.183 13.183zM805.688 436.795h-10.547v15.82h10.547c6.592 0 9.228-2.636 9.228-7.909s-2.636-7.909-9.228-7.909zM874.24 473.707h-6.592l-10.547-15.82-10.547 15.82h-6.592l14.501-21.092-15.82-21.092h6.592l11.864 17.138 11.864-17.138h6.592l-14.501 21.092 13.183 21.092zM900.606 475.025c-13.183 0-19.775-10.547-19.775-22.411s6.592-22.411 19.775-22.411 19.775 10.547 19.775 22.411c1.319 11.864-6.592 22.411-19.775 22.411zM900.606 435.476c-10.547 0-14.501 9.228-14.501 17.138s3.955 17.138 14.501 17.138 14.501-9.228 14.501-17.138c0-7.909-3.955-17.138-14.501-17.138zM963.885 473.707h-27.684v-10.547c0-9.228-1.319-18.456-5.273-26.366h-3.955v-14.501h5.273v10.547h30.321v-10.547h5.273v14.501h-5.273v36.912zM958.611 436.795h-21.092c3.955 7.909 5.273 15.82 5.273 26.366v6.592h15.82v-32.957zM1004.752 455.251h-22.411v18.456h-5.273v-42.185h5.273v19.775h22.411v-19.775h5.273v42.185h-5.273v-18.456zM1058.802 431.521h5.273v42.185h-5.273v-42.185zM1041.664 456.569h-13.183v17.138h-5.273v-42.185h18.456c7.909 0 13.183 5.273 13.183 11.864 0 9.228-5.273 13.183-13.183 13.183zM1039.028 436.795h-10.547v15.82h10.547c6.592 0 9.228-2.636 9.228-7.909s-2.636-7.909-9.228-7.909zM1094.396 453.932l14.501 21.092h-6.592l-10.547-15.82-10.547 15.82h-6.592l14.501-21.092-14.501-21.092h6.592l11.864 17.138 11.864-17.138h6.592l-17.138 21.092z" />
<glyph unicode="&#xe921;" glyph-name="lupa_bold" horiz-adv-x="1110" d="M1067.996 25.446l-86.361-86.361-308.434 302.263c-67.853-49.351-148.049-80.195-234.41-80.195-222.073 0-394.795 178.893-394.795 400.966s178.893 400.966 394.795 400.966c222.073 0 394.795-178.893 394.795-400.966 0-86.361-30.844-166.556-74.024-234.41l308.434-302.263zM438.791 839.71c-148.049 0-271.419-123.376-271.419-277.59s123.376-277.59 271.419-277.59 271.419 123.376 271.419 277.59c6.171 154.214-117.205 277.59-271.419 277.59z" />
<glyph unicode="&#xe922;" glyph-name="lupa_thin" horiz-adv-x="1110" d="M1067.992-11.566l-49.351-49.351-320.769 320.769c-67.853-61.688-160.384-98.697-259.081-98.697-222.072 0-394.793 178.892-394.793 400.964s178.892 400.964 394.793 400.964c222.072 0 394.793-178.892 394.793-400.964 0-98.697-37.009-185.057-92.531-252.916l326.94-320.769zM444.957 889.058c-178.892 0-326.94-148.048-326.94-333.105s148.048-333.105 326.94-333.105c178.892 0 326.94 148.048 326.94 333.105s-148.048 333.105-326.94 333.105z" />
<glyph unicode="&#xe923;" glyph-name="menu" horiz-adv-x="1110" d="M0.809 21.658v151.363h1110.006v-151.363h-1110.006zM0.809 526.203h1110.006v-151.363h-1110.006v151.363zM0.809 879.389h1110.006v-151.363h-1110.006v151.363z" />
<glyph unicode="&#xe924;" glyph-name="minus" horiz-adv-x="1110" d="M1.371 401.036v102.463h1110.006v-102.463h-1110.006z" />
<glyph unicode="&#xe925;" glyph-name="minus_plus" horiz-adv-x="1110" d="M1068.269 404.675h-464.739v-464.739h-94.524v464.739h-464.739v94.524h464.739v464.739h94.524v-464.739h464.739v-94.524z" />
<glyph unicode="&#xe926;" glyph-name="opros_check" horiz-adv-x="1110" d="M1068.142 451.557c0-284.442-227.551-512-512-512s-512 227.551-512 512 227.551 512 512 512c163.553 0 305.777-78.22 405.332-199.109l-419.553-419.553-213.33 213.33-78.22-78.22 291.556-291.556 476.444 476.444c28.442-63.998 49.777-135.111 49.777-213.33z" />
<glyph unicode="&#xe927;" glyph-name="opros_flag" horiz-adv-x="1110" d="M0.289 811.654c0 47.157 38.088 85.245 85.245 85.245h939.515c47.157 0 85.245-38.088 85.245-85.245v-565.886c0-38.088-23.579-68.922-58.039-81.618l-486.082-161.422c-18.138-5.442-36.275-5.442-56.226 0l-453.434 161.422c-34.461 12.696-56.226 43.53-56.226 79.804v567.7z" />
<glyph unicode="&#xe928;" glyph-name="percent" horiz-adv-x="1110" d="M555.826-66.561c-281.601 0-512 230.4-512 512s230.4 512 512 512c281.601 0 512-230.4 512-512s-230.4-512-512-512zM555.826 901.121c-250.878 0-450.56-204.799-450.56-450.56 0-250.878 204.799-450.56 450.56-450.56s450.56 204.799 450.56 450.56c0 245.761-199.682 450.56-450.56 450.56zM683.824 189.439c-61.44 0-107.519 46.079-107.519 107.519 0 56.318 46.079 107.519 107.519 107.519s107.519-46.079 107.519-107.519c0-61.44-46.079-107.519-107.519-107.519zM683.824 348.159c-30.718 0-51.201-20.479-51.201-51.201 0-25.6 25.6-51.201 51.201-51.201 30.718 0 51.201 20.479 51.201 51.201 0 25.6-20.479 51.201-51.201 51.201zM361.266 235.522l337.919 465.921 51.201-35.84-337.919-465.921-51.201 35.84zM427.824 496.64c-61.44 0-107.519 46.079-107.519 107.519 0 56.318 46.079 107.519 107.519 107.519s107.519-46.079 107.519-107.519c0-61.44-46.079-107.519-107.519-107.519zM427.824 655.36c-30.718 0-51.201-20.479-51.201-51.201 0-25.6 25.6-51.201 51.201-51.201 30.718 0 51.201 20.479 51.201 51.201 0 25.6-20.479 51.201-51.201 51.201z" />
<glyph unicode="&#xe929;" glyph-name="phone24" horiz-adv-x="1110" d="M1038.053 703.132v-69.425h-41.654v69.425h-142.319c-6.942 0-13.884 3.472-17.356 10.414s-3.472 13.884 3.472 20.826l163.145 215.214c6.942 6.942 13.884 10.414 24.298 6.942 6.942-3.472 13.884-10.414 13.884-20.826v-194.385h34.712v-41.654h-38.182zM996.399 876.691l-100.665-131.905h100.665v131.905zM593.742 644.121c-3.472 6.942-3.472 17.356 3.472 20.826 45.127 52.069 118.021 128.433 135.377 145.789 20.826 24.298 27.771 48.596 17.356 69.425-6.942 17.356-31.24 27.771-59.011 27.771-55.538 0-65.953-27.771-65.953-52.069h-41.654c0 59.011 41.654 93.723 107.607 93.723 45.127 0 83.309-20.826 97.193-52.069 17.356-34.712 6.942-76.367-27.771-114.549-10.414-10.414-59.011-62.48-100.665-107.607h152.731v-41.654h-197.858c-10.414 0-17.356 3.472-20.826 10.414zM739.531 328.246l232.57-131.905c24.298-13.884 41.654-38.182 45.127-69.425 3.472-27.771-6.942-59.011-27.771-79.836l-69.425-69.425c-27.771-27.771-65.953-41.654-118.021-41.654-45.127 0-97.193 10.414-152.731 34.712-111.076 45.127-229.098 131.905-340.177 239.512-107.607 107.607-194.385 229.098-239.512 340.177-48.596 121.491-48.596 215.214 6.942 270.752l69.425 69.425c20.826 20.826 48.596 31.24 79.836 27.771 27.771-3.472 55.538-20.826 69.425-45.127l131.905-232.57c20.826-38.182 13.884-83.309-13.884-111.076l-45.127-45.127c0 0 0-3.472 0-3.472v0 0c-3.472-3.472-3.472-10.414 0-13.884 27.771-34.712 59.011-69.425 93.723-104.134s69.425-65.953 104.134-93.723c3.472-3.472 13.884-3.472 17.356 0l45.127 45.127c27.771 27.771 76.367 34.712 111.076 13.884zM975.573 119.974c-3.472 17.356-10.414 31.24-24.298 38.182l-232.57 131.905c-20.826 10.414-45.127 6.942-62.48-6.942l-45.127-45.127 333.232-177.029 13.884 13.884c13.884 13.884 20.826 31.24 17.356 45.127zM385.47 557.343c17.356 17.356 20.826 41.654 6.942 62.48l-131.905 232.57c-6.942 13.884-20.826 24.298-38.182 24.298-3.472 0-3.472 0-6.942 0-13.884 0-27.771-6.942-34.712-13.884l-10.414-10.414 180.501-333.232 34.712 38.182zM430.597 331.715c-34.712 34.712-65.953 69.425-97.193 107.607-3.472 3.472-3.472 6.942-6.942 10.414v0l-197.858 367.944-24.298-24.298c-41.654-41.654-41.654-121.491 3.472-225.628s124.963-222.156 232.57-326.29c104.134-104.134 222.156-187.443 326.29-232.57 100.665-41.654 183.974-45.127 225.628-3.472l24.298 24.298-361.003 190.916c-6.942 3.472-13.884 3.472-17.356 10.414-34.712 34.712-72.894 65.953-107.607 100.665z" />
<glyph unicode="&#xe92a;" glyph-name="preim_2" horiz-adv-x="1110" d="M1065.012 430.222l-45.037-85.334c-4.74-11.852-9.481-23.704-9.481-35.556l-4.74-97.186c0-14.221-7.112-26.073-18.964-33.185l-64.001-42.666-18.964-11.852c-9.481-7.112-18.964-14.221-26.073-26.073l-49.778-80.593c-7.112-11.852-18.964-18.964-33.185-18.964l-94.815-4.74h-2.371c-9.481 0-18.964-2.371-28.445-7.112-2.371 0-4.74-2.371-7.112-2.371l-85.334-42.666c-7.112-2.371-11.852-4.74-18.964-4.74s-14.221 2.371-18.964 4.74l-80.593 42.666-4.74 2.371c-11.852 4.74-23.704 9.481-35.556 9.481l-97.186 4.74c-14.221 0-26.073 7.112-33.185 18.964l-52.149 82.963c-7.112 9.481-14.221 18.964-26.073 26.073l-33.185 21.333-49.778 33.185c-11.852 7.112-18.964 18.964-18.964 33.185l-4.74 97.186c0 11.852-4.74 23.704-9.481 35.556l-47.408 78.222c-7.112 11.852-7.112 26.073 0 37.925l45.037 85.334c4.74 11.852 9.481 23.704 9.481 35.556l4.74 97.186c0 14.221 7.112 26.073 18.964 33.185l82.963 52.149c9.481 7.112 18.964 14.221 26.073 26.073l52.149 82.963c7.112 11.852 18.964 18.964 33.185 18.964l97.186 4.74c11.852 0 23.704 4.74 35.556 9.481l85.334 45.037c7.112 4.74 11.852 4.74 18.964 4.74s14.221-2.371 18.964-4.74l87.703-42.666c11.852-4.74 23.704-9.481 35.556-9.481l97.186-4.74c14.221 0 26.073-7.112 33.185-18.964l52.149-82.963c7.112-9.481 14.221-18.964 26.073-26.073l82.963-52.149c11.852-7.112 18.964-18.964 18.964-33.185l4.74-97.186c0-11.852 4.74-23.704 9.481-35.556l45.037-85.334c2.371-11.852 2.371-26.073-2.371-37.925zM1036.568 453.926l-42.666 85.334c-7.112 14.221-11.852 30.816-11.852 47.408l-4.74 97.186c0 4.74-2.371 7.112-4.74 9.481l-82.963 52.149c-14.221 9.481-26.073 21.333-35.556 35.556l-52.149 82.963c-2.371 2.371-4.74 4.74-9.481 4.74l-97.186 4.74c-16.593 0-33.185 4.74-47.408 11.852l-85.334 45.037c-2.371 0-2.371 2.371-4.74 2.371s-2.371 0-4.74 0l-85.334-45.037c-14.221-7.112-30.816-11.852-47.408-11.852l-97.186-4.74c-4.74 0-7.112-2.371-9.481-4.74l-54.518-85.334c-9.481-14.221-21.333-26.073-35.556-35.556l-82.963-52.149c-2.371-2.371-4.74-4.74-4.74-9.481l-4.74-97.186c0-16.593-4.74-33.185-11.852-47.408l-45.037-85.334c-2.371-2.371-2.371-7.112 0-9.481l45.037-85.334c7.112-14.221 11.852-30.816 11.852-47.408l4.74-97.186c0-4.74 2.371-7.112 4.74-9.481l49.778-33.185 33.185-21.333c14.221-9.481 26.073-21.333 35.556-35.556l52.149-82.963c2.371-2.371 4.74-4.74 9.481-4.74l97.186-4.74c16.593 0 33.185-4.74 47.408-11.852l4.74-2.371 80.593-42.666c2.371 0 2.371-2.371 4.74-2.371s2.371 0 4.74 0l56.889 30.816 28.445 14.221c2.371 2.371 7.112 2.371 9.481 4.74 11.852 4.74 26.073 7.112 37.925 9.481h2.371l94.815 4.74c4.74 0 7.112 2.371 9.481 4.74l52.149 82.963c9.481 14.221 21.333 26.073 35.556 35.556l18.964 11.852 64.001 40.297c2.371 2.371 4.74 4.74 4.74 9.481l4.74 97.186c0 16.593 4.74 33.185 11.852 47.408l45.037 85.334c2.371 4.74 2.371 7.112 0 11.852zM809.011 231.112h-54.518l-9.481-21.333h-28.445v4.74l59.258 128h11.852l59.258-128v-4.74h-28.445l-9.481 21.333zM782.937 297.482l-18.964-42.666h35.556l-16.593 42.666zM657.309 209.777c-28.445 0-49.778 0-78.222 0v-18.964h-26.073v42.666h4.74c11.852 0 14.221 4.74 14.221 18.964l9.481 87.703c26.073 0 59.258 0 85.334 0v-106.667h14.221v-42.666h-26.073v18.964zM640.716 316.443h-33.185l-7.112-66.37c0-4.74-2.371-14.221-9.481-16.593h49.778v82.963zM443.975 442.074c-2.371 4.74-2.371 11.852 2.371 16.593 49.778 56.889 130.371 142.223 149.333 161.185 26.073 28.445 33.185 61.63 23.704 85.334s-37.925 35.556-73.482 35.556c-71.11 0-80.593-37.925-80.593-66.37h-30.816c2.371 61.63 40.297 94.815 111.407 94.815 49.778 0 85.334-18.964 101.926-54.518s4.74-80.593-28.445-118.519c-14.221-14.221-75.851-78.222-125.631-135.111h187.26v-30.816h-222.814c-7.112 2.371-11.852 7.112-14.221 11.852zM517.455 276.149c0-40.297-28.445-66.37-66.37-66.37-35.556 0-66.37 23.704-66.37 66.37 0 45.037 33.185 66.37 66.37 66.37 35.556 0 66.37-23.704 66.37-66.37zM413.159 276.149c0-28.445 16.593-42.666 37.925-42.666s37.925 14.221 37.925 42.666c0 28.445-18.964 42.666-37.925 42.666-18.964-2.371-37.925-16.593-37.925-42.666zM297.012 209.777c-9.481 0-18.964 0-28.445 0 0 42.666 0 87.703 0 130.371 26.073 0 52.149 0 78.222 0 0-9.481 0-16.593 0-26.073h-52.149c2.371-35.556 2.371-68.741 2.371-104.296z" />
<glyph unicode="&#xe92b;" glyph-name="preim_list" horiz-adv-x="1110" d="M432.548 54.805v42.072h679.593v-42.072h-679.593zM432.548 452.853h679.593v-42.072h-679.593v42.072zM432.548 808.832h679.593v-42.072h-679.593v42.072zM138.056-29.335l-9.709-9.709-126.212 126.212 29.125 29.125 97.084-97.084 200.643 200.643 29.125-29.125-220.058-220.058zM138.056 326.644l-9.709-9.709-126.212 126.212 29.125 29.125 97.084-97.084 200.643 200.643 29.125-29.125-220.058-220.058zM138.056 682.621l-9.709-9.709-126.212 126.212 29.125 29.125 97.084-97.084 200.643 200.643 29.125-29.125-220.058-220.058z" />
<glyph unicode="&#xe92c;" glyph-name="preim_rouble" horiz-adv-x="1110" d="M1097.849 429.165l-218.484-213.462c-12.557-12.557-37.671-22.601-55.25-22.601h-218.484v-67.807h218.484c10.045 0 25.114 7.535 32.648 12.557l205.928 203.418c0 0 47.715 0 35.158-12.557l-218.484-213.462c-12.557-12.557-37.671-22.601-55.25-22.601h-218.484v-67.807h218.484c10.045 0 25.114 7.535 32.648 12.557l205.928 203.418c0 0 47.715 0 35.158-12.557l-218.484-213.462c-12.557-12.557-37.671-22.601-55.25-22.601h-803.624c-17.579 0-2.512 32.648-2.512 32.648h286.291v67.807h-283.779c-17.579 0-2.512 32.648-2.512 32.648h286.291v67.807h-281.269c-17.579 0-22.601 10.045-10.045 22.601l218.484 213.462c12.557 12.557 37.671 22.601 55.25 22.601h803.624c15.067 0 20.091-10.045 7.535-22.601zM336.921 24.842h238.576v168.259h-238.576v-168.259zM286.693 419.12c-10.045 0-25.114-7.535-32.648-12.557l-183.326-180.816h231.041l195.883 193.371h-210.95zM565.45 419.12c-10.045 0-25.114-7.535-32.648-12.557l-183.326-180.816h195.883c10.045 0 25.114 7.535 32.648 12.557l183.326 180.816h-195.883zM809.048 419.12l-195.883-193.371h213.462c10.045 0 25.114 7.535 32.648 12.557l183.326 180.816h-233.554zM685.994 687.832h-100.453v-80.361h150.68v-32.648h-150.68v-50.227h-35.158v50.227h-45.203v32.648h45.203v80.361h-45.203v35.158h45.203v180.816h138.123c57.76 0 105.475-47.715 105.475-105.475v-7.535c-2.512-55.25-50.227-102.965-107.987-102.965zM756.311 800.842c0 37.671-30.136 67.807-67.807 67.807h-100.453v-145.656h100.453c37.671 0 67.807 30.136 67.807 67.807v10.045z" />
<glyph unicode="&#xe92d;" glyph-name="preim_truck" horiz-adv-x="1110" d="M1064.74 177.707h-38.441c-4.805-60.064-55.259-108.117-115.326-108.117-62.468 0-110.521 48.053-115.326 108.117h-444.483c-4.805-60.064-55.259-108.117-115.326-108.117s-110.521 48.053-115.326 108.117h-64.871c-28.831 0-52.858 24.027-52.858 52.858v542.989c0 28.831 24.027 52.858 52.858 52.858h641.496c28.831 0 52.858-24.027 52.858-52.858v-165.78h201.818c33.636 0 43.246-16.818 69.676-52.858 0 0 88.896-117.727 88.896-134.545 0-12.013 0-36.040 0-36.040v-163.377c2.404-21.623-21.623-43.246-45.65-43.246zM233.437 103.226c45.65 0 84.091 38.441 84.091 84.091s-38.441 84.091-84.091 84.091-84.091-38.441-84.091-84.091 38.441-84.091 84.091-84.091zM711.556 607.774v165.78c0 9.61-7.208 16.818-16.818 16.818h-641.496c-9.61 0-16.818-7.208-16.818-16.818v-542.989c0-9.61 7.208-16.818 16.818-16.818h67.273c12.013 52.858 57.663 91.299 112.922 91.299s103.313-38.441 112.922-91.299h365.197v394.029zM910.973 103.226c45.65 0 84.091 38.441 84.091 84.091s-38.441 84.091-84.091 84.091-84.091-38.441-84.091-84.091 38.441-84.091 84.091-84.091zM987.858 545.306c-9.61 14.415-21.623 26.428-38.441 26.428h-201.818v-151.364h326.756l-86.494 124.936zM747.596 384.33v-172.989h48.053c12.013 52.858 57.663 91.299 112.922 91.299s103.313-38.441 112.922-91.299h48.053v172.989h-321.949zM404.022 408.357l57.663 76.882h-225.845c-9.61 0-16.818 7.208-16.818 16.818s7.208 16.818 16.818 16.818h225.845l-57.663 76.882c-4.805 7.208-4.805 19.222 2.404 24.027s19.222 4.805 24.027-2.404l79.286-105.714c0 0 2.404-2.404 2.404-2.404s0-2.404 0-2.404c0 0 0 0 0 0 0-2.404 0-4.805 0-4.805 0-2.404 0-4.805 0-4.805s0-2.404 0-2.404c0 0 0-2.404-2.404-2.404l-79.286-103.313c-2.404-4.805-9.61-7.208-14.415-7.208s-7.208 0-9.61 2.404c-7.208 4.805-7.208 16.818-2.404 24.027z" />
<glyph unicode="&#xe92e;" glyph-name="soc_fb" horiz-adv-x="1110" d="M430.56-62.047v469.007h-152.429v207.147h152.429v82.076c0 140.703 105.528 265.77 234.505 265.77h168.062v-207.147h-168.062c-19.542 0-39.085-23.449-39.085-54.717v-82.076h207.147v-207.147h-207.147v-469.007z" />
<glyph unicode="&#xe92f;" glyph-name="soc_g" horiz-adv-x="1110" d="M568.051 520.259v-177.548h293.16c-12.388-74.321-86.709-222.966-293.16-222.966-173.418 0-317.933 144.515-317.933 326.194 0 177.548 144.515 326.194 317.933 326.194 99.097 0 165.16-41.291 206.451-78.451l140.388 136.257c-90.84 82.582-206.451 136.257-342.709 136.257-284.903 0-512-231.224-512-512 0-284.903 231.224-512 512-512 297.291 0 491.354 206.451 491.354 503.739 0 33.034-4.131 57.806-8.257 86.709h-487.224v-12.388z" />
<glyph unicode="&#xe930;" glyph-name="soc_ok" horiz-adv-x="1110" d="M555.53 443.078c141.128 0 259.283 114.871 259.283 259.283 0 141.128-114.871 259.283-259.283 259.283-141.128 0-259.283-114.871-259.283-259.283s118.154-259.283 259.283-259.283zM555.53 827.075c68.923 0 128.001-55.795 128.001-128.001 0-68.923-55.795-128.001-128.001-128.001-68.923 0-128.001 55.795-128.001 128.001s59.076 128.001 128.001 128.001zM854.194 410.257c-13.127 29.538-55.795 52.512-108.307 9.847-72.206-55.795-190.357-55.795-190.357-55.795s-114.871 0-190.357 55.795c-52.512 42.668-95.18 16.411-108.307-9.847-26.257-52.512 3.283-75.486 68.923-118.154 55.795-36.101 131.281-49.232 180.513-52.512l-39.385-39.385c-59.076-59.076-114.871-114.871-150.975-150.975-22.974-22.974-22.974-59.076 0-82.050l6.564-6.564c22.974-22.974 59.076-22.974 82.050 0l150.975 150.975c59.076-59.076 114.871-114.871 150.975-150.975 22.974-22.974 59.076-22.974 85.333 0l6.564 6.564c22.974 22.974 22.974 59.076 0 82.050l-150.975 150.975-42.668 39.385c49.232 6.564 124.718 19.691 180.513 52.512 65.642 42.668 91.897 68.923 68.923 118.154z" />
<glyph unicode="&#xe931;" glyph-name="soc_twi" horiz-adv-x="1110" d="M1077.293 877.49c-43.144-27.456-90.211-43.144-145.123-54.912-39.224 43.144-98.055 70.6-164.735 70.6-125.511 0-227.49-101.979-227.49-227.49 0-15.688 3.924-35.3 3.924-50.991-188.27 7.844-353.005 98.055-466.752 235.338-19.612-31.38-31.38-70.6-31.38-113.747 0-78.447 39.224-149.047 101.979-188.27-35.3 0-70.6 11.768-101.979 27.456v-3.924c0-109.823 78.447-200.034 180.426-219.646-19.612-3.924-39.224-7.844-58.835-7.844-15.688 0-27.456 0-43.144 3.924 27.456-90.211 113.747-156.891 211.802-156.891-78.447-58.835-176.502-98.055-282.405-98.055-19.612 0-35.3 0-54.912 3.924 105.903-58.835 223.57-94.135 353.005-94.135 415.76 0 643.254 345.161 643.254 643.254v27.456c43.144 31.38 82.367 70.6 113.747 117.667-39.224-19.612-82.367-31.38-129.435-35.3 43.144 27.456 78.447 70.6 98.055 121.591z" />
<glyph unicode="&#xe932;" glyph-name="soc_viber" horiz-adv-x="1110" d="M699.864 513.612c-20.188-5.608-20.188-5.608-20.188 15.702 0 3.365 0 5.608 0 8.973 1.122 13.459-4.486 24.675-19.067 24.675-15.702 0-21.31-11.216-21.31-25.796 0-24.675 0-48.228 0-72.903 0-25.796 0-50.471 0-76.267 0-10.094 2.243-17.945 11.216-22.432s17.945-3.365 24.675 5.608c4.486 5.608 6.729 3.365 11.216 1.122 30.283-19.067 63.93-10.094 81.875 21.31 17.945 30.283 15.702 61.687 0 91.969-12.337 25.796-40.377 37.012-68.416 28.039zM709.958 399.211c-16.824 0-30.283 19.067-30.283 40.377 0 22.432 13.459 39.255 31.404 38.134 16.824 0 30.283-17.945 29.161-40.377 0-21.31-12.337-38.134-30.283-38.134zM556.302 562.962c-13.459 5.608-21.31-2.243-26.918-13.459-2.243-4.486-4.486-10.094-5.608-14.581-11.216-30.283-22.432-60.565-35.89-95.334-14.581 39.255-26.918 74.024-40.377 108.793-4.486 12.337-12.337 22.432-26.918 16.824s-17.945-16.824-12.337-30.283c20.188-50.471 39.255-100.942 59.444-151.413 3.365-8.973 10.094-16.824 21.31-16.824 10.094 0 16.824 6.729 20.188 15.702 5.608 14.581 12.337 30.283 17.945 44.863 14.581 35.89 28.039 71.781 42.62 107.671 3.365 11.216 1.122 22.432-13.459 28.039zM853.52 515.855c-37.012-3.365-65.051-35.89-63.93-77.389 0-31.404 13.459-57.2 42.62-69.538 30.283-13.459 60.565-7.851 87.483 11.216 8.973 5.608 13.459 14.581 6.729 24.675-5.608 8.973-14.581 10.094-23.553 5.608-6.729-3.365-12.337-6.729-19.067-10.094-19.067-6.729-40.377 0-48.228 13.459-3.365 6.729-3.365 11.216 5.608 11.216 12.337 0 24.675 0 35.89 0 10.094 0 20.188 0 30.283 0 21.31 0 28.039 7.851 23.553 29.161-7.851 39.255-40.377 65.051-77.389 61.687zM888.289 456.412c-2.243-7.851-12.337-2.243-19.067-3.365-3.365 0-6.729 0-11.216 0-3.365 0-6.729 0-11.216 0-5.608 1.122-13.459-3.365-15.702 3.365s3.365 13.459 8.973 17.945c10.094 8.973 21.31 10.094 33.647 4.486 8.973-4.486 17.945-12.337 14.581-22.432zM1031.851 497.91c-2.243 8.973-7.851 14.581-16.824 16.824-7.851 1.122-15.702-1.122-21.31-6.729-4.486-3.365-6.729-6.729-12.337 0-5.608 7.851-15.702 7.851-24.675 4.486s-12.337-11.216-12.337-20.188c0-16.824 0-33.647 0-50.471 0-19.067 0-37.012 0-56.079 0-11.216 6.729-20.188 17.945-21.31 12.337-1.122 20.188 6.729 22.432 19.067 1.122 11.216 2.243 21.31 0 32.526-3.365 30.283 2.243 54.957 37.012 62.808 8.973 2.243 12.337 10.094 10.094 19.067zM602.287 504.64c-14.581 0-20.188-7.851-20.188-21.31 0-15.702 0-32.526 0-48.228s0-31.404 0-47.106c0-13.459 5.608-22.432 19.067-23.553 13.459 0 20.188 7.851 20.188 22.432 0 32.526 0 65.051 0 97.577 0 11.216-5.608 20.188-19.067 20.188zM603.409 569.691c-12.337 1.122-23.553-10.094-23.553-22.432 0-13.459 10.094-23.553 23.553-22.432s20.188 8.973 21.31 22.432c-1.122 13.459-7.851 21.31-21.31 22.432zM326.379 386.874c-7.851 6.729-16.824 12.337-25.796 19.067-17.945 12.337-33.647 13.459-47.106-6.729-7.851-11.216-17.945-11.216-28.039-6.729-29.161 13.459-52.714 33.647-66.173 63.93-5.608 13.459-5.608 25.796 7.851 34.769 7.851 4.486 14.581 11.216 14.581 21.31-1.122 14.581-34.769 61.687-49.349 67.295-5.608 2.243-11.216 2.243-16.824 0-31.404-11.216-44.863-37.012-32.526-68.416 38.134-93.091 104.307-157.021 196.276-197.398 5.608-2.243 11.216-3.365 13.459-4.486 21.31 0 44.863 20.188 52.714 40.377 6.729 20.188-7.851 28.039-19.067 37.012zM223.194 570.813c67.295-10.094 97.577-42.62 106.55-109.915 1.122-6.729-1.122-15.702 7.851-15.702s6.729 8.973 6.729 15.702c1.122 63.93-54.957 122.252-118.887 124.495-4.486-1.122-14.581 3.365-15.702-7.851 0-6.729 7.851-5.608 13.459-6.729zM236.653 551.746c-6.729 1.122-14.581 3.365-16.824-5.608-1.122-8.973 7.851-8.973 13.459-10.094 41.498-8.973 56.079-24.675 62.808-65.051 1.122-5.608-1.122-15.702 8.973-13.459 7.851 1.122 4.486 8.973 5.608 13.459 1.122 40.377-32.526 76.267-74.024 80.754zM240.018 520.342c-4.486 0-8.973-1.122-10.094-5.608-2.243-6.729 2.243-8.973 7.851-8.973 16.824-2.243 25.796-12.337 28.039-29.161 0-4.486 3.365-7.851 7.851-7.851 5.608 1.122 6.729 6.729 6.729 11.216 0 17.945-21.31 40.377-40.377 40.377z" />
<glyph unicode="&#xe933;" glyph-name="soc_yt" horiz-adv-x="1110" d="M1067.839 771.476c-39.409 49.261-114.941 65.682-256.155 65.682h-512.309c-144.496 0-220.031-19.703-259.44-72.25-39.409-49.261-39.409-121.508-39.409-223.314v-193.758c0-193.758 45.976-295.563 298.848-295.563h512.309c121.508 0 190.473 16.42 233.166 59.111 45.976 42.694 65.682 114.941 65.682 236.452v193.758c0 108.373-3.285 183.905-42.694 229.881zM713.161 423.369l-233.166-121.508c-6.568-3.285-9.853-3.285-16.42-3.285s-13.135 3.285-19.703 6.568c-9.853 6.568-16.42 19.703-16.42 29.556v243.019c0 13.135 6.568 22.988 16.42 29.556s22.988 6.568 36.123 0l233.166-121.508c13.135-6.568 19.703-19.703 19.703-32.841s-6.568-26.273-19.703-29.556z" />
<glyph unicode="&#xe934;" glyph-name="star" horiz-adv-x="1110" d="M1094.314 576.001c0 13.127-13.127 19.694-32.821 19.694h-354.461l-118.152 341.333c-6.567 13.127-13.127 19.694-32.821 19.694-13.127 0-26.255-6.567-32.821-19.694l-118.152-341.333h-354.461c-13.127 0-26.255-6.567-32.821-19.694s0-26.255 13.127-39.382l288.818-216.615-105.024-341.333c-6.567-13.127 0-26.255 13.127-39.382 13.127-6.567 26.255-6.567 39.382 0l295.385 203.488 295.385-203.488c6.567-6.567 13.127-6.567 19.694-6.567 19.694 0 32.821 13.127 32.821 32.821 0 0 0 6.567 0 13.127l-105.024 341.333 288.818 216.615c0 13.127 0 26.255 0 39.382z" />
<glyph unicode="&#xe935;" glyph-name="strel_bold_down" horiz-adv-x="1110" d="M556.179 327.506l452.766 452.766 102.237-102.237-555.003-555.003-555.003 555.003 102.237 102.237 452.766-452.766z" />
<glyph unicode="&#xe936;" glyph-name="strel_bold_left" horiz-adv-x="1110" d="M441.56 444.63l417.685-417.685-94.315-94.315-512 512 512 512 94.315-94.315-417.685-417.685z" />
<glyph unicode="&#xe937;" glyph-name="strel_bold_right" horiz-adv-x="1110" d="M670.614 451.37l-417.685 417.685 94.315 94.315 512-512-512-512-94.315 94.315 417.685 417.685z" />
<glyph unicode="&#xe938;" glyph-name="strel_bold_up" horiz-adv-x="1110" d="M556.179 575.799l-452.766-452.766-102.237 102.237 555.003 555.003 555.003-555.003-102.237-102.237-452.766 452.766z" />
<glyph unicode="&#xe939;" glyph-name="strel_thin_down" horiz-adv-x="1110" d="M1061.393 751.846l49.177-49.177-555.003-555.003-555.003 551.492 49.177 49.177 502.315-502.315 509.34 505.826z" />
<glyph unicode="&#xe93a;" glyph-name="strel_thin_left" horiz-adv-x="1110" d="M834.205-17.012l-45.367-45.367-512 512 512 512 45.367-45.367-466.633-466.633 466.633-466.633z" />
<glyph unicode="&#xe93b;" glyph-name="strel_thin_right" horiz-adv-x="1110" d="M275.955 914.488l45.511 45.511 513.625-513.625-513.625-510.376-45.511 45.511 464.865 464.865-464.865 468.114z" />
<glyph unicode="&#xe93c;" glyph-name="strel_thin_up" horiz-adv-x="1110" d="M51.66 146.712l-49.333 49.333 553.242 556.764 556.764-556.764-49.333-49.333-507.431 503.909-503.909-503.909z" />
<glyph unicode="&#xe93d;" glyph-name="strel2_left" horiz-adv-x="1110" d="M-3.802 453.608l414.848-414.848 78.485 78.485-280.301 280.301h896.974v112.124h-908.191l291.517 291.517-78.485 78.485-414.848-426.064z" />
<glyph unicode="&#xe93e;" glyph-name="strel2_right" horiz-adv-x="1110" d="M1117.42 453.608l-414.848-414.848-78.485 78.485 280.301 280.301h-896.974v112.124h908.19l-291.517 291.517 78.485 78.485 414.848-426.064z" />
<glyph unicode="&#xe93f;" glyph-name="success" horiz-adv-x="1110" d="M890.982 624.29c-13.496 0-25.305-11.809-25.305-25.305v-612.376h-770.952v772.638h600.565c13.496 0 25.305 11.809 25.305 25.305s-11.809 25.305-25.305 25.305h-625.871c-13.496 0-25.305-11.809-25.305-25.305v-821.561c0-13.496 11.809-25.305 25.305-25.305h821.561c13.496 0 25.305 11.809 25.305 25.305v637.679c0 13.496-11.809 23.618-25.305 23.618zM1057.993 951.565c-10.121 10.121-25.305 10.121-35.426 0l-647.802-649.488-161.95 161.95c-10.121 10.121-25.305 10.121-35.426 0s-10.121-25.305 0-35.426l178.82-178.82c5.061-5.061 11.809-6.747 16.87-6.747 6.747 0 11.809 1.688 16.87 6.747l666.358 666.358c11.809 10.121 11.809 25.305 1.688 35.426z" />
<glyph unicode="&#xe940;" glyph-name="super" horiz-adv-x="1110" d="M1065.858 213.56v82.931h-28.706l-57.413-82.931h-57.413l63.794 82.931c-28.706 6.379-51.034 25.518-51.034 60.604 0 41.467 31.897 63.794 73.361 63.794h102.068v-207.329h-44.655zM1065.858 385.801h-47.846c-22.327 0-35.085-6.379-35.085-28.706 0-19.137 12.758-28.706 35.085-28.706h47.846v57.413zM1033.961 599.509h-51.034v-79.74h-47.846v220.087h98.88c54.225 0 76.552-35.085 76.552-70.173s-19.137-70.173-76.552-70.173zM1021.204 701.576h-38.276v-66.982h38.276c22.327 0 41.467 6.379 41.467 31.897 0 31.897-19.137 35.085-41.467 35.085zM839.393 353.904v0l-79.74-140.344h-51.034v207.329h44.655v-140.344l79.74 140.344h51.034v-207.329h-44.655v140.344zM718.186 739.852h165.862v-41.467h-114.828v-47.846h105.258v-38.276h-105.258v-54.225h118.016v-41.467h-165.862v223.275zM632.067 698.388h-89.31v-178.62h-47.846v220.087h184.999v-220.087h-47.846v178.62zM517.239 245.457h86.122v175.432h47.846v-175.432h22.327v-95.689h-47.846v54.225h-159.483v216.896h47.846v-175.432zM309.91 513.387c-9.57 0-22.327 0-28.706 3.191v38.276c9.57-3.191 15.949-3.191 25.518-3.191 15.949 0 25.518 9.57 25.518 22.327 0 3.191-3.191 9.57-3.191 15.949l-70.173 146.725h54.225l51.034-118.016 47.846 118.016h51.034l-76.552-169.053c-19.137-31.897-38.276-54.225-76.552-54.225zM290.773 334.767l82.931 86.122h57.413l-82.931-79.74 89.31-127.586h-57.413l-63.794 92.501-25.518-25.518v-66.982h-44.655v207.329h44.655v-86.122zM121.72 554.854c28.706 0 44.655 19.137 51.034 47.846h47.846c-6.379-54.225-41.467-89.31-95.689-89.31-66.982 0-108.449 51.034-108.449 114.828s41.467 114.828 108.449 114.828c47.846 0 89.31-28.706 95.689-79.74h-47.846c-3.191 22.327-25.518 38.276-47.846 38.276-44.655 0-60.604-38.276-60.604-76.552-3.191-31.897 12.758-70.173 57.413-70.173zM128.099 424.077l76.552-207.329h-47.846l-15.949 47.846h-76.552l-15.949-51.034h-47.846l79.74 207.329h47.846zM128.099 293.303l-25.518 76.552-28.706-76.552h54.225z" />
<glyph unicode="&#xe941;" glyph-name="timer" horiz-adv-x="1110" d="M556.475-59.436c-283.431 0-512.001 228.569-512.001 512.001s228.569 512.001 512.001 512.001c283.431 0 512.001-228.569 512.001-512.001s-228.569-512.001-512.001-512.001zM556.475 873.143c-228.569 0-420.578-192-420.578-420.578s192-420.578 420.578-420.578c228.569 0 420.578 192 420.578 420.578s-192 420.578-420.578 420.578zM730.191 205.711l-228.569 219.431v338.285h91.431v-310.862l201.147-182.862-64-64z" />
<glyph unicode="&#xe942;" glyph-name="viber" horiz-adv-x="1110" d="M723.206 524.152c-23.232-7.745-23.232-7.745-23.232 18.070 0 2.582 0 7.745 0 10.325 0 15.487-5.162 28.395-23.232 28.395s-23.232-12.907-23.232-30.977c0-28.395 0-56.791 0-82.604 0-28.395 0-59.371 0-87.768 0-10.325 2.582-20.652 12.907-25.814s20.652-2.582 28.395 5.162c5.162 5.162 7.745 5.162 12.907 0 36.139-20.652 74.861-10.325 95.511 23.232 20.652 36.139 18.070 69.699 0 105.838-18.070 33.559-49.047 43.884-80.023 36.139zM733.533 392.5c-20.652 0-33.559 20.652-33.559 46.464s15.487 43.884 36.139 43.884c20.652 0 33.559-20.652 33.559-46.464s-15.487-43.884-36.139-43.884zM557.997 578.361c-15.487 5.162-25.814-2.582-30.977-15.487-2.582-5.162-5.162-10.325-7.745-18.070-12.907-33.559-25.814-69.699-41.302-111-18.070 46.464-30.977 85.186-46.464 123.908-5.162 12.907-12.907 25.814-30.977 18.070-18.070-5.162-20.652-18.070-15.487-36.139 23.232-59.371 46.464-116.163 67.116-175.534 5.162-10.325 10.325-20.652 23.232-18.070 12.907 0 18.070 7.745 23.232 18.070 7.745 18.070 12.907 33.559 20.652 51.629 15.487 41.302 33.559 82.604 49.047 123.908 7.745 20.652 5.162 33.559-10.325 38.722zM898.74 526.732c-43.884-5.162-74.861-41.302-74.861-87.768 0-36.139 15.487-64.534 49.047-80.023 36.139-15.487 69.699-7.745 100.675 12.907 10.325 7.745 15.487 15.487 7.745 28.395-7.745 10.325-15.487 12.907-28.395 5.162-7.745-5.162-15.487-7.745-23.232-10.325-20.652-7.745-46.464 0-54.209 15.487-5.162 7.745-5.162 12.907 7.745 12.907s28.395 0 41.302 0c12.907 0 23.232 0 36.139 0 25.814 0 30.977 7.745 28.395 33.559-10.325 43.884-46.464 72.279-90.348 69.699zM940.044 457.036c-2.582-7.745-15.487-2.582-23.232-5.162-5.162 0-7.745 0-12.907 0s-7.745 0-12.907 0c-5.162 0-15.487-5.162-18.070 2.582s2.582 15.487 10.325 20.652c10.325 10.325 25.814 12.907 38.722 5.162 10.325-2.582 20.652-10.325 18.070-23.232zM1105.254 506.080c-2.582 10.325-7.745 18.070-20.652 18.070-10.325 2.582-18.070-2.582-25.814-7.745-5.162-5.162-7.745-7.745-12.907 0-7.745 10.325-18.070 10.325-28.395 5.162s-12.907-12.907-12.907-23.232c0-20.652 0-38.722 0-59.371s0-43.884 0-64.534c0-12.907 7.745-23.232 20.652-23.232 15.487 0 23.232 7.745 25.814 23.232 2.582 12.907 2.582 25.814 0 36.139-5.162 36.139 2.582 61.954 41.302 72.279 10.325 2.582 12.907 12.907 12.907 23.232zM609.626 513.825c-15.487 0-23.232-10.325-23.232-25.814 0-18.070 0-38.722 0-56.791s0-36.139 0-54.209c0-15.487 7.745-25.814 23.232-25.814s23.232 10.325 23.232 25.814c0 38.722 0 74.861 0 113.58 0 12.907-7.745 23.232-23.232 23.232zM612.206 588.686c-12.907 2.582-25.814-12.907-25.814-25.814 0-15.487 12.907-25.814 25.814-25.814 15.487 0 23.232 10.325 25.814 25.814-2.582 15.487-12.907 23.232-25.814 25.814zM292.114 377.013c-10.325 7.745-20.652 15.487-30.977 20.652-20.652 12.907-38.722 15.487-54.209-7.745-7.745-12.907-20.652-12.907-33.559-7.745-33.559 15.487-59.371 38.722-74.861 74.861-7.745 15.487-7.745 28.395 10.325 38.722 7.745 5.162 18.070 12.907 15.487 25.814 0 15.487-41.302 72.279-56.791 77.441-7.745 2.582-12.907 2.582-20.652 0-36.139-12.907-51.629-43.884-38.722-77.441 43.884-105.838 121.325-180.697 224.581-227.163 5.162-2.582 12.907-2.582 15.487-5.162 23.232 0 51.629 23.232 59.371 46.464 12.907 23.232-2.582 30.977-15.487 41.302zM173.369 588.686c77.441-12.907 113.58-49.047 121.325-126.488 0-7.745-2.582-18.070 7.745-18.070s7.745 10.325 7.745 18.070c0 72.279-61.954 141.977-136.815 144.557-5.162 0-18.070 2.582-18.070-7.745 2.582-10.325 12.907-7.745 18.070-10.325zM268.882 459.616c7.745 2.582 5.162 10.325 5.162 15.487 0 46.464-38.722 87.768-85.186 92.931-7.745 0-18.070 5.162-18.070-5.162-2.582-10.325 10.325-10.325 15.487-10.325 46.464-10.325 64.534-28.395 72.279-74.861 0-7.745-2.582-20.652 10.325-18.070zM194.021 531.895c-5.162 0-10.325 0-12.907-5.162-2.582-7.745 2.582-10.325 7.745-10.325 20.652-2.582 30.977-15.487 30.977-33.559 0-5.162 5.162-10.325 7.745-7.745 7.745 0 7.745 7.745 7.745 12.907 2.582 18.070-20.652 43.884-41.302 43.884z" />
<glyph unicode="&#xe943;" glyph-name="viber_photo" horiz-adv-x="1110" d="M975.775 761.448h-201.296c-23.004 0-40.259-17.255-40.259-40.259s17.255-40.259 40.259-40.259h201.296c34.506 0 57.515-28.757 57.515-57.515v-483.11c0-34.506-28.757-63.263-63.263-63.263h-822.444c-34.506 0-63.263 28.757-63.263 63.263v477.362c0 34.506 28.757 57.515 57.515 57.515h201.296c17.255 0 34.506 11.502 40.259 34.506l11.502 40.259c11.502 40.259 46.013 74.77 92.020 74.77h155.288c23.004 0 40.259 17.255 40.259 40.259s-17.255 40.259-40.259 40.259h-155.288c-80.518 0-155.288-57.515-172.539-138.033v-5.754h-166.79c-74.77 0-138.033-63.263-138.033-138.033v-483.11c0-80.518 63.263-143.781 143.781-143.781h822.444c80.518 0 143.781 63.263 143.781 143.781v477.362c-5.754 80.518-69.016 143.781-143.781 143.781zM555.928 238.074c-86.272 0-161.037 69.016-161.037 161.037 0 86.272 74.77 161.037 161.037 161.037 23.004 0 40.259 17.255 40.259 40.259s-17.255 40.259-40.259 40.259c-132.279 0-241.555-109.276-241.555-241.555s109.276-241.555 241.555-241.555 241.555 109.276 241.555 241.555c0 23.004-17.255 40.259-40.259 40.259s-40.259-17.255-40.259-40.259c0-86.272-74.77-161.037-161.037-161.037z" />
<glyph unicode="&#xe944;" glyph-name="viber_what" horiz-adv-x="1110" d="M1098.71 400.784c-7.126-8.909-17.817-12.472-30.289-12.472-7.126 0-14.254 1.782-19.598 5.346-1.782 1.782-5.346 3.563-7.126 7.126v-48.107h-26.726v133.628h24.944v-12.472c1.782 3.563 5.346 5.346 7.126 7.126 5.346 3.563 12.472 7.126 19.598 7.126 10.69 0 21.381-3.563 28.507-12.472s12.472-19.598 12.472-35.635c1.782-17.817-1.782-30.289-8.909-39.198zM1077.329 456.018c-3.563 5.346-8.909 7.126-16.035 7.126-8.909 0-14.254-3.563-17.817-12.472-1.782-3.563-1.782-10.69-1.782-16.035 0-10.69 3.563-17.817 8.909-23.163 3.563-1.782 7.126-3.563 12.472-3.563 7.126 0 12.472 1.782 14.254 7.126 3.563 5.346 5.346 12.472 5.346 21.381s-1.782 14.254-5.346 19.598zM965.080 386.532c-7.126 0-14.254 1.782-19.598 5.346-1.782 1.782-5.346 3.563-7.126 7.126v-46.325h-26.726v133.628h26.726v-12.472c1.782 3.563 5.346 5.346 7.126 7.126 5.346 3.563 12.472 7.126 19.598 7.126 10.69 0 21.381-3.563 28.507-12.472s12.472-19.598 12.472-35.635c0-16.035-3.563-30.289-10.69-39.198-8.909-8.909-17.817-14.254-30.289-14.254zM973.989 456.018c-3.563 5.346-8.909 7.126-16.035 7.126-8.909 0-14.254-3.563-17.817-12.472-1.782-3.563-1.782-8.909-1.782-16.035 0-10.69 3.563-17.817 8.909-23.163 3.563-1.782 7.126-3.563 12.472-3.563 7.126 0 12.472 1.782 14.254 7.126 3.563 5.346 5.346 12.472 5.346 21.381s-1.782 14.254-5.346 19.598zM867.087 415.039h-46.325l-8.909-26.726h-30.289l46.325 128.284h32.070l46.325-128.284h-30.289l-8.909 26.726zM843.924 486.307l-16.035-46.325h30.289l-14.254 46.325zM720.986 454.237c1.782-1.782 10.69-3.563 24.944-7.126 10.69-1.782 17.817-5.346 23.163-10.69s7.126-10.69 7.126-17.817c0-8.909-3.563-17.817-10.69-23.163s-17.817-8.909-32.070-8.909c-14.254 0-26.726 3.563-33.853 8.909-7.126 7.126-10.69 14.254-10.69 24.944v0h26.726c0-3.563 1.782-7.126 3.563-8.909 3.563-3.563 8.909-5.346 16.035-5.346 5.346 0 8.909 0 10.69 1.782s3.563 3.563 3.563 5.346c0 1.782-1.782 3.563-3.563 5.346s-10.69 3.563-24.944 7.126c-10.69 3.563-17.817 5.346-23.163 10.69-5.346 3.563-7.126 10.69-7.126 17.817 0 8.909 3.563 16.035 10.69 23.163s16.035 8.909 30.289 8.909c12.472 0 21.381-1.782 28.507-7.126s12.472-12.472 12.472-24.944v-1.782h-26.726c0 3.563-1.782 5.346-1.782 7.126-1.782 3.563-7.126 5.346-12.472 5.346s-8.909 0-10.69-1.782c-1.782-1.782-3.563-3.563-3.563-5.346 1.782 0 1.782-1.782 3.563-3.563zM669.317 388.312c-10.69 0-17.817 1.782-21.381 7.126-3.563 3.563-3.563 7.126-3.563 14.254v57.014h-12.472v19.598h12.472v26.726h26.726v-26.726h16.035v-19.598h-16.035v-48.107c0-5.346 0-5.346 1.782-7.126 0 0 1.782-1.782 8.909-1.782 0 0 1.782 0 1.782 0s1.782 0 1.782 0h1.782v-21.381h-12.472c-3.563 0-3.563 0-5.346 0zM601.612 390.095c0 1.782-1.782 3.563-1.782 5.346s0 1.782 0 3.563c-3.563-3.563-7.126-5.346-10.69-8.909-5.346-3.563-12.472-5.346-17.817-5.346-8.909 0-16.035 1.782-21.381 7.126s-8.909 12.472-8.909 21.381c0 12.472 5.346 21.381 14.254 26.726 5.346 3.563 12.472 5.346 21.381 5.346l8.909 1.782c5.346 0 7.126 1.782 8.909 1.782 3.563 1.782 5.346 3.563 5.346 5.346 0 3.563-1.782 5.346-3.563 7.126s-7.126 1.782-10.69 1.782c-5.346 0-8.909-1.782-12.472-3.563-1.782-1.782-3.563-5.346-3.563-8.909v0h-24.944v1.782c0 8.909 3.563 16.035 7.126 21.381 7.126 8.909 17.817 12.472 33.853 12.472 10.69 0 19.598-1.782 28.507-5.346s12.472-12.472 12.472-23.163v-42.761c0-3.563 0-7.126 0-10.69s0-5.346 1.782-5.346c0-1.782 1.782-1.782 3.563-1.782v0-5.346l-30.289-1.782zM598.049 434.637c-1.782 0-1.782-1.782-3.563-1.782s-3.563-1.782-7.126-1.782h-5.346c-5.346-1.782-8.909-1.782-10.69-3.563-3.563-1.782-5.346-5.346-5.346-8.909s1.782-7.126 3.563-8.909c1.782-1.782 5.346-1.782 8.909-1.782 5.346 0 10.69 1.782 14.254 5.346s7.126 8.909 7.126 16.035v5.346zM501.835 447.109c0 5.346 0 8.909-1.782 12.472s-5.346 5.346-12.472 5.346c-5.346 0-10.69-1.782-14.254-5.346s-5.346-10.69-5.346-17.817v-51.67h-26.726v128.284h26.726v-42.761c3.563 3.563 7.126 7.126 10.69 8.909 5.346 1.782 10.69 3.563 14.254 3.563 5.346 0 10.69-1.782 16.035-3.563s8.909-5.346 12.472-8.909c1.782-3.563 3.563-7.126 5.346-10.69 0-3.563 0-10.69 0-17.817v-57.014h-26.726v57.014zM371.77 390.095l-16.035 74.832-3.563 19.598-3.563-19.598-16.035-74.832h-26.726l-37.416 128.284h30.289l17.817-73.051 3.563-16.035 3.563 16.035 14.254 74.832h30.289l16.035-73.051 3.563-16.035 3.563 16.035 17.817 74.832h28.507l-35.635-128.284h-30.289zM120.549 333.079c-32.070 0-57.014 14.254-57.014 14.254l-64.142-17.817 19.598 60.579c0 0-17.817 28.507-17.817 60.579 0 64.142 53.451 117.593 117.593 117.593s117.593-53.451 117.593-117.593c1.782-65.923-49.888-117.593-115.812-117.593zM120.549 548.667c-55.233 0-97.995-44.542-97.995-97.995 0-32.070 19.598-58.796 19.598-58.796l-12.472-35.635 37.416 10.69c0 0 24.944-16.035 55.233-16.035 55.233 0 97.995 44.542 97.995 97.995 0 55.233-44.542 99.775-99.775 99.775zM147.276 393.658c-7.126 1.782-30.289 8.909-46.325 21.381-16.035 14.254-26.726 28.507-32.070 39.198s-5.346 17.817-5.346 21.381c0 3.563 1.782 17.817 10.69 23.163 0 0 3.563 1.782 5.346 1.782s8.909 0 8.909 0 1.782 0 3.563-3.563c1.782-1.782 8.909-21.381 8.909-23.163s1.782-5.346 0-8.909c0 0-5.346-5.346-5.346-5.346s-1.782-1.782 0-5.346c1.782-3.563 7.126-12.472 16.035-19.598s17.817-12.472 23.163-14.254c5.346-1.782 5.346 0 7.126 3.563 1.782 1.782 7.126 10.69 7.126 10.69s1.782 3.563 5.346 1.782c3.563-1.782 23.163-10.69 23.163-10.69s1.782 0 1.782-3.563c0-1.782 1.782-10.69-5.346-17.817-5.346-8.909-19.598-12.472-26.726-10.69z" />
<glyph unicode="&#xe945;" glyph-name="view_grid" horiz-adv-x="1110" d="M984.139-63.996h-856.898c-47.128 0-85.692 38.56-85.692 85.692v852.616c0 47.128 38.56 85.692 85.692 85.692h852.616c47.128 0 85.692-38.56 85.692-85.692v-852.616c4.286-47.128-34.277-85.692-81.406-85.692zM1026.985 874.308c0 25.705-21.423 42.846-42.846 42.846h-856.898c-25.705 0-42.846-21.423-42.846-42.846v-852.616c0-25.705 21.423-42.846 42.846-42.846h852.616c25.705 0 42.846 21.423 42.846 42.846v852.616zM598.533 407.297h214.226v-214.226h-214.226v214.226zM598.533 707.211h214.226v-214.226h-214.226v214.226zM298.62 407.297h214.226v-214.226h-214.226v214.226zM298.62 707.211h214.226v-214.226h-214.226v214.226z" />
<glyph unicode="&#xe946;" glyph-name="view_list" horiz-adv-x="1110" d="M984.139-63.996h-856.898c-47.128 0-85.692 38.56-85.692 85.692v852.616c0 47.128 38.56 85.692 85.692 85.692h852.616c47.128 0 85.692-38.56 85.692-85.692v-852.616c4.286-47.128-34.277-85.692-81.406-85.692zM1026.985 874.308c0 25.705-21.423 42.846-42.846 42.846h-856.898c-25.705 0-42.846-21.423-42.846-42.846v-852.616c0-25.705 21.423-42.846 42.846-42.846h852.616c25.705 0 42.846 21.423 42.846 42.846v852.616zM555.691 235.917h257.071v-42.846h-257.071v42.846zM555.691 321.605h257.071v-42.846h-257.071v42.846zM555.691 407.297h257.071v-42.846h-257.071v42.846zM555.691 535.831h257.071v-42.846h-257.071v42.846zM555.691 621.523h257.071v-42.846h-257.071v42.846zM555.691 707.211h257.071v-42.846h-257.071v42.846zM298.62 407.297h214.226v-214.226h-214.226v214.226zM298.62 707.211h214.226v-214.226h-214.226v214.226z" />
<glyph unicode="&#xe947;" glyph-name="webcam_play" horiz-adv-x="1110" d="M923.654 472.151l-705.207 483.020c-9.664 9.664-19.319 9.664-28.983 0-9.664 0-9.664-9.664-9.664-19.319v-975.696c0-9.664 9.664-19.319 9.664-19.319s9.664 0 9.664 0 9.664 0 9.664 0l705.207 492.676c9.664 0 9.664 9.664 9.664 19.319 9.664 0 9.664 9.664 0 19.319z" />
<glyph unicode="&#xe948;" glyph-name="webcam_rec" horiz-adv-x="1110" d="M556.922 954.043c285.767 0 511.999-226.232 511.999-511.999s-226.232-511.999-511.999-511.999c-285.767 0-511.999 226.232-511.999 511.999s226.232 511.999 511.999 511.999z" />
<glyph unicode="&#xe949;" glyph-name="webcam_reload" horiz-adv-x="1110" d="M801.131 887.501c0 0-9.065 0-9.065 0s-9.065 0-9.065-9.065l-63.433-117.81c0-9.065 0-18.123 9.065-18.123 108.744-63.433 181.243-172.178 181.243-299.045 0-190.3-154.055-344.355-344.355-344.355s-344.355 154.055-344.355 344.355c0 72.499 18.123 144.99 63.433 199.366l99.679-99.679c0 0 9.065-9.065 18.123 0 9.065 0 9.065 9.065 9.065 9.065l54.368 389.666c0 9.065 0 9.065 0 9.065s-9.065 9.065-9.065 0l-398.723-54.368c-9.065 0-9.065-9.065-9.065-9.065 0-9.065 0-9.065 0-18.123l108.744-108.744c-72.499-90.622-108.744-199.366-108.744-317.167 0-280.922 226.546-507.467 507.467-507.467s507.467 226.546 507.467 507.467c0 190.3-99.679 362.478-262.799 444.034z" />
<glyph unicode="&#xe94a;" glyph-name="webcam_upload" horiz-adv-x="1110" d="M376.096 181.762h360.445v360.445h237.57l-417.789 417.789-417.789-417.789h237.57v-360.445zM138.526-64.004h835.586v122.883h-835.586v-122.883z" />
<glyph unicode="&#xe94b;" glyph-name="write" horiz-adv-x="1110" d="M931.384 684.087l-187.733 187.733 91.021 91.021 187.733-187.733-91.021-91.021zM624.185 376.887h-193.424v176.356l233.246 233.246 187.733-187.733-227.555-221.869zM197.515 52.62h557.513v295.822h113.78v-409.602h-785.068v938.665h5.691v5.691h324.267v-113.78h-216.178v-716.801z" />
<glyph unicode="&#xe94c;" glyph-name="x_bold" horiz-adv-x="1110" d="M980.731 957.276l-424.852-419.403-424.852 424.852-87.148-87.148 424.852-424.852-424.852-424.852 87.148-87.148 424.852 424.852 424.852-424.852 87.148 87.148-424.852 424.852 424.852 424.852-87.148 81.704z" />
<glyph unicode="&#xe94d;" glyph-name="soc_vk" horiz-adv-x="1110" d="M976.597 498.455c13.918 20.876 27.838 34.797 38.275 48.714 66.113 86.989 93.951 142.666 83.511 167.023l-3.481 6.959c-3.481 3.481-6.959 6.959-17.398 10.44s-20.876 3.481-34.797 0h-163.542c-3.481 0-6.959 0-10.44 0s-6.959 0-6.959 0c0 0-3.481 0-3.481 0h-3.481c-3.481 0-3.481-3.481-6.959-6.959s-3.481-6.959-6.959-10.44c-17.398-45.237-38.275-86.989-59.154-128.745-13.918-24.357-27.838-45.237-38.275-62.632s-20.876-31.316-27.838-38.275c-6.959-6.959-13.918-13.918-20.876-20.876-6.959-3.481-10.44-6.959-13.918-6.959s-6.959 0-10.44 3.481-10.44 6.959-13.918 13.918c-3.481 6.959-6.959 13.918-6.959 20.876 0 10.44-3.481 17.398-3.481 24.357s0 13.918 0 27.838c0 10.44 0 20.876 0 24.357 0 13.918 0 31.316 0 45.237 0 17.398 0 31.316 0 38.275 0 10.44 0 20.876 0 31.316s0 20.876-3.481 24.357c0 6.959-3.481 13.918-6.959 17.398-3.481 6.959-6.959 10.44-10.44 13.918s-10.44 6.959-17.398 6.959c-20.876 3.481-45.237 6.959-76.553 6.959-69.594 0-114.827-3.481-135.707-13.918-6.959-3.481-13.918-10.44-20.876-17.398s-6.959-13.918-3.481-13.918c24.357-3.481 38.275-10.44 48.714-24.357l3.481-6.959c3.481-3.481 6.959-13.918 6.959-24.357 3.481-13.918 3.481-27.838 3.481-41.756 3.481-27.838 3.481-52.195 0-69.594-3.481-20.876-3.481-34.797-6.959-45.237 0-10.44-3.481-20.876-6.959-27.838s-6.959-10.44-6.959-13.918c0 0-3.481-3.481-3.481-3.481-3.481-3.481-10.44-3.481-13.918-3.481-6.959 0-10.44 3.481-20.876 6.959-6.959 6.959-13.918 13.918-24.357 20.876-6.959 10.44-17.398 20.876-27.838 38.275s-20.876 34.797-31.316 59.154l-10.44 17.398c-6.959 10.44-13.918 24.357-24.357 45.237s-17.398 38.275-24.357 59.154c-3.481 6.959-6.959 13.918-13.918 17.398h-3.481c-3.481 0-3.481 3.481-10.44 3.481-3.481 0-6.959 3.481-13.918 3.481h-156.583c-17.398 0-27.838-3.481-31.316-10.44l-3.481-3.481c0-3.481 0-3.481 0-10.44 0-3.481 0-10.44 3.481-13.918 24.357-52.195 48.714-104.388 73.072-153.102 27.838-48.714 48.714-90.47 69.594-118.308 20.876-31.316 38.275-59.154 59.154-86.989s34.797-45.237 41.756-52.195c6.959-6.959 10.44-13.918 13.918-17.398l13.918-13.918c10.44-10.44 20.876-20.876 38.275-31.316 17.398-13.918 38.275-24.357 59.154-38.275s45.237-20.876 73.072-31.316c27.838-6.959 55.673-10.44 83.511-10.44h80.031c13.918 0 24.357 6.959 31.316 13.918l3.481 13.918c0 3.481 3.481 6.959 3.481 10.44s3.481 10.44 3.481 13.918c0 17.398 0 31.316 3.481 45.237s6.959 24.357 10.44 27.838c3.481 6.959 6.959 10.44 13.918 17.398 3.481 3.481 6.959 6.959 10.44 6.959s3.481 0 3.481 3.481c10.44 3.481 20.876 0 31.316-10.44 13.918-10.44 24.357-20.876 34.797-31.316 10.44-13.918 24.357-27.838 38.275-45.237s27.838-27.838 38.275-34.797l10.44-6.959c6.959-3.481 17.398-6.959 27.838-13.918 10.44-3.481 24.357-3.481 31.316-3.481l146.143 3.481c13.918 0 24.357 3.481 34.797 6.959 6.959 3.481 13.918 10.44 13.918 13.918 0 6.959 0 10.44 0 20.876 0 6.959-3.481 13.918-3.481 13.918 0 3.481-3.481 3.481-3.481 6.959-17.398 34.797-55.673 76.553-107.869 125.267v0 0 0 0c-24.357 24.357-38.275 38.275-45.237 45.237-10.44 13.918-13.918 31.316-6.959 45.237 0 17.398 17.398 41.756 45.237 80.031z" />
<glyph unicode="&#xe94e;" glyph-name="preim_gift" horiz-adv-x="1110" d="M953.88-65.208h-794.567c-41.057 0-72.452 31.397-72.452 72.452v702.793c0 41.057 31.397 72.452 72.452 72.452h185.962c-14.49 9.66-28.981 21.735-41.057 36.227-24.151 26.565-36.227 60.377-33.811 84.528 0 14.49 7.246 26.565 16.906 33.811 12.076 12.076 31.397 19.322 57.963 21.735 4.83 0 7.246 0 12.076 0 28.981 0 55.547-9.66 84.528-31.397s57.963-53.133 86.944-94.19c9.66-14.49 19.322-28.981 28.981-41.057 9.66 14.49 19.322 26.565 28.981 41.057 28.981 41.057 57.963 72.452 86.944 94.19s57.963 31.397 84.528 31.397c4.83 0 7.246 0 12.076 0 26.565-2.416 45.887-9.66 57.963-21.735 9.66-9.66 14.49-21.735 16.906-33.811 2.416-26.565-12.076-57.963-33.811-84.528-12.076-14.49-26.565-24.151-41.057-36.227h183.548c41.057 0 72.452-31.397 72.452-72.452v-702.793c0-38.641-33.811-72.452-72.452-72.452zM499.841 818.717c-26.565 38.641-53.133 67.622-79.698 84.528-24.151 16.906-45.887 24.151-67.622 24.151-2.416 0-4.83 0-7.246 0-26.565-2.416-36.227-9.66-38.641-12.076s-4.83-4.83-4.83-14.49c0-16.906 9.66-43.471 26.565-62.793 21.735-26.565 55.547-45.887 91.774-55.547h106.263c-7.246 14.49-19.322 24.151-26.565 36.227zM782.408 838.039c16.906 21.735 28.981 45.887 26.565 62.793 0 7.246-2.416 12.076-4.83 14.49s-14.49 9.66-38.641 12.076c-2.416 0-4.83 0-7.246 0-21.735 0-43.471-7.246-67.622-24.151-26.565-19.322-53.133-48.303-79.698-84.528-7.246-12.076-16.906-24.151-26.565-36.227h106.263c36.227 9.66 70.038 31.397 91.774 55.547zM994.937 710.038c0 21.735-19.322 41.057-41.057 41.057h-258.416c0 0 0 0 0 0h-106.263l74.868-94.19-24.151-19.322-84.528 106.263-84.528-106.263-24.151 19.322 74.868 94.19h-106.263c0 0 0 0 0 0h-256c-21.735 0-41.057-19.322-41.057-41.057v-702.793c0-21.735 19.322-41.057 41.057-41.057h794.567c21.735 0 41.057 19.322 41.057 41.057v702.793zM784.824 504.755c-12.076-12.076-26.565-19.322-43.471-19.322l-77.282-77.282c14.49-21.735 21.735-43.471 21.735-62.793-2.416-41.057-31.397-67.622-60.377-91.774-9.66-9.66-21.735-16.906-31.397-28.981-2.416-4.83-7.246-14.49-9.66-19.322-14.49-36.227-38.641-96.604-96.604-108.679-7.246-2.416-12.076-2.416-19.322-2.416-38.641 0-77.282 21.735-123.169 65.209-53.133 53.133-72.452 99.020-65.209 142.491 12.076 57.963 72.452 82.114 108.679 96.604 0 0 2.416 0 2.416 0l-33.811 33.811c-7.246 7.246-7.246 21.735 0 28.981l67.622 67.622c4.83 4.83 9.66 7.246 14.49 7.246s9.66-2.416 14.49-7.246l41.057-41.057c9.66 4.83 21.735 9.66 33.811 9.66 21.735 2.416 41.057-4.83 62.793-21.735l77.282 77.282c0 16.906 7.246 31.397 19.322 43.471l50.717 50.717c26.565 26.565 67.622 26.565 94.19 0v0c26.565-26.565 26.565-67.622 0-94.19l-48.303-48.303zM439.464 502.339l-53.133-53.133 31.397-31.397c7.246 7.246 12.076 14.49 19.322 21.735 9.66 12.076 19.322 24.151 31.397 33.811l-28.981 28.981zM813.804 627.926c-14.49 14.49-36.227 14.49-50.717 0l-50.717-50.717c-7.246-7.246-9.66-16.906-9.66-26.565v-7.246l-106.263-106.263-12.076 9.66c-19.322 14.49-36.227 21.735-50.717 21.735 0 0-2.416 0-2.416 0-28.981 0-48.303-24.151-70.038-48.303-9.66-12.076-19.322-21.735-31.397-33.811-4.83-4.83-12.076-7.246-28.981-14.49-36.227-14.49-82.114-33.811-89.358-74.868-7.246-31.397 12.076-70.038 55.547-113.509s82.114-62.793 113.509-55.547c41.057 9.66 60.377 55.547 74.868 89.358 4.83 12.076 9.66 21.735 12.076 26.565l2.416 2.416c12.076 12.076 24.151 21.735 33.811 31.397 26.565 21.735 48.303 41.057 48.303 70.038 0 16.906-7.246 33.811-21.735 55.547l-9.66 12.076 106.263 106.263h9.66c9.66 0 16.906 4.83 24.151 9.66l50.717 50.717c16.906 9.66 16.906 31.397 2.416 45.887z" />
<glyph unicode="&#xe94f;" glyph-name="x_thin" horiz-adv-x="1110" d="M1064.925-8.818l-49.056-55.185-459.879 459.879-459.879-453.751-49.056 49.056 459.879 459.879-459.879 459.879 49.056 49.056 459.879-459.879 459.879 459.879 49.056-49.056-459.879-459.879 459.879-459.879z" />
<glyph unicode="&#xe950;" glyph-name="cat_drum2" horiz-adv-x="1110" d="M1001.087 589.642v-161.874c0-17.345-17.345-34.685-34.685-34.685s-34.685 11.562-34.685 34.685v144.529c-92.499-23.123-213.904-34.685-341.094-40.469v-248.595c0 0 0-5.783 0-5.783-11.562 0-23.123 0-34.685 0s-23.123 0-34.685 0c0 0 0 5.783 0 5.783v248.595c-127.189 0-248.595 17.345-341.094 40.469v-144.529c0-17.345-17.345-34.685-34.685-34.685s-34.685 17.345-34.685 34.685v161.874c-46.252 11.562-80.937 28.907-109.844 46.252v-508.751c0-80.937 248.595-150.312 554.998-150.312s554.998 69.375 554.998 150.312v508.751c-28.907-17.345-63.592-34.685-109.844-46.252v0zM555.933 624.328c306.408 0 554.998 69.375 554.998 150.312s-248.595 150.312-554.998 150.312c-306.408 0-554.998-69.375-554.998-150.312 0-86.721 248.595-150.312 554.998-150.312z" />
<glyph unicode="&#xe951;" glyph-name="film2" horiz-adv-x="1110" d="M994.93 225.246c-6.652-6.652-13.298-13.298-26.596-13.298 0 0-19.95-6.652-19.95-6.652h-126.338v-39.893c0-19.95-13.298-33.247-33.247-33.247h-638.335c-19.95 0-33.247 13.298-33.247 33.247v412.261c0 19.95 13.298 33.247 33.247 33.247h13.298c-39.893 33.247-66.495 86.444-66.495 146.287 0 106.388 86.444 199.479 199.479 199.479 66.495 0 132.99-33.247 166.231-93.090 33.247 53.197 99.742 93.090 166.231 93.090 106.388 0 199.479-86.444 199.479-199.479 0-59.843-26.596-113.040-66.495-146.287h19.95c19.95 0 33.247-13.298 33.247-33.247v-39.893h126.338c13.298 0 33.247-6.652 39.893-13.298s26.596-46.545 26.596-53.197v-199.479c6.652-13.298-6.652-39.893-13.298-46.545zM296.746 896.828c-73.141 0-132.99-59.843-132.99-132.99s59.843-132.99 132.99-132.99c73.141 0 132.99 59.843 132.99 132.99s-59.843 132.99-132.99 132.99zM183.705 544.416v-345.766h565.194v345.766h-565.194zM768.849 763.845c0 73.141-59.843 132.99-132.99 132.99s-132.99-59.843-132.99-132.99 59.843-132.99 132.99-132.99 132.99 59.843 132.99 132.99zM948.384 471.276h-126.338v-199.479h126.338v199.479zM675.759-0.828c13.298-13.298 13.298-33.247 0-46.545-6.652-6.652-13.298-13.298-26.596-13.298-6.652 0-19.95 6.652-26.596 13.298l-166.231 159.585 79.793 19.95 139.636-132.99zM290.1-54.025c-13.298-13.298-33.247-13.298-46.545 0s-13.298 33.247 0 46.545l132.99 132.99 79.793-19.95-166.231-159.585z" />
</font>
</defs>
</svg>
