<svg xmlns="http://www.w3.org/2000/svg" width="44" height="44" viewBox="0 0 44 44">
  <defs>
    <style>
      .cls-1 {
        fill: #fb5e31;
        fill-rule: evenodd;
      }
    </style>
  </defs>
  <path id="Forma_1" data-name="Forma 1" class="cls-1" d="M707.5,259.5H688.248l-5.5-13.75h2.75l4.611,11h15.526l4.614-11H713Zm-2.087-7.082H693.748V240.749l2.915,2.917s7.292-4.372,5.833-11.667a12.373,12.373,0,0,1,0,17.5Zm2.087,9.832V265H684.6l-9.627-22H669v-2.75h7.775l9.626,22h21.1Zm-17.876,5.5a4.125,4.125,0,1,1-4.125,4.125A4.125,4.125,0,0,1,689.624,267.75Zm13.751,0a4.125,4.125,0,1,1-4.125,4.125A4.126,4.126,0,0,1,703.375,267.75Z" transform="translate(-669 -232)"/>
</svg>
