<svg xmlns="http://www.w3.org/2000/svg" width="77" height="66" viewBox="0 0 77 66">
  <defs>
    <style>
      .cls-1 {
        fill: #fb5e31;
        fill-rule: evenodd;
      }
    </style>
  </defs>
  <path id="Forma_1" data-name="Forma 1" class="cls-1" d="M259.046,181.02c-1.4-3.238-3.373-5.02-5.564-5.02-1.9,0-3.633,1.338-4.972,3.8a17.642,17.642,0,0,1-14.927,8.439H222.238a25.144,25.144,0,0,0-24.923,25.3,25.414,25.414,0,0,0,7.454,18.027h-5.64a1.211,1.211,0,0,0,.137-0.56,1.2,1.2,0,0,0-1.187-1.205h-2.69a2.429,2.429,0,0,0-.4.034,1.174,1.174,0,0,0,.019-0.208,1.2,1.2,0,0,0-1.187-1.2h-8.633a1.2,1.2,0,0,0-1.187,1.2v2.71a1.2,1.2,0,0,0,1.187,1.205,0.9,0.9,0,0,1,.89.9v0.765c0,3.87,1.793,6.788,4.171,6.788h3.684a1.2,1.2,0,0,0,1.187-1.205,1.213,1.213,0,0,0-.016-0.192,2.252,2.252,0,0,0,.286.019h2.775a1.2,1.2,0,0,0,1.187-1.205,1.215,1.215,0,0,0-.137-0.561h22.77a1.224,1.224,0,0,0,.173-0.014h0.081a25.144,25.144,0,0,0,24.923-25.3,25.416,25.416,0,0,0-5.817-16.247,17.026,17.026,0,0,1,3.451,2.285,19.1,19.1,0,0,1,3.72,4.393c1.337,2.456,3.071,3.791,4.967,3.791,2.192,0,4.167-1.783,5.564-5.021A31.162,31.162,0,0,0,259.046,181.02Zm-70.6,54.192v-0.765a3.318,3.318,0,0,0-2.076-3.086v-0.526h6.95a4.46,4.46,0,0,0-.568.829,7.672,7.672,0,0,0-.8,3.548,6.743,6.743,0,0,0,1.366,4.378h-3.072C189.532,239.59,188.45,237.844,188.45,235.212Zm5.878,0a5.288,5.288,0,0,1,.514-2.4,1.077,1.077,0,0,1,.547-0.6h2.21a4.582,4.582,0,0,0-.834,2.979,4.648,4.648,0,0,0,.857,3.02h-2.233C195.125,238.212,194.328,237.148,194.328,235.212Zm4.978,1.234a4.835,4.835,0,0,1-.01-2.468h8.267a24.864,24.864,0,0,0,4.095,2.468H199.306Zm37.909-43.007a1.361,1.361,0,0,0-.2-0.034,20.719,20.719,0,0,0-3.428-.281l-11.348-.015a20.434,20.434,0,1,0,20.125,20.432,20.463,20.463,0,0,0-10.611-18.008h1.834a18.742,18.742,0,0,1,2.833.214,22.478,22.478,0,1,1-14.181-5.1h11.345a19.33,19.33,0,0,0,12.815-4.68l0.1-.083a34.19,34.19,0,0,0,0,12l-0.091-.079A19.194,19.194,0,0,0,237.215,193.439Zm1.757,26.007h-9.488a6.477,6.477,0,0,0-.016-11.752l9.564,0a18.322,18.322,0,0,1-.023,11.756h-0.037Zm-24.593-14.158a2.128,2.128,0,0,0,0,4.256h12.512a4.028,4.028,0,0,1,0,8.055H214.344a2.128,2.128,0,0,0,0,4.255h23.639a18.4,18.4,0,0,1-1.133,1.906c-0.049-.007-22.506-0.011-22.506-0.011a4.024,4.024,0,0,1,0-8.047l12.547-.007a2.128,2.128,0,0,0,0-4.256l-12.547-.006a4.028,4.028,0,0,1,0-8.054h22.282a1.124,1.124,0,0,0,.254-0.029c0.076,0.112.152,0.224,0.225,0.337a18.116,18.116,0,0,1,.913,1.592Zm-0.036-4.317a6.451,6.451,0,0,0-1.833,12.6,6.446,6.446,0,0,0,1.833,12.591H234.9a17.568,17.568,0,0,1-12.658,5.4,18.024,18.024,0,0,1,0-36.043,17.559,17.559,0,0,1,8.325,2.1,17.873,17.873,0,0,1,4.393,3.351H214.343Zm42.528,0.805c-0.966,2.24-2.233,3.577-3.389,3.577s-2.423-1.337-3.389-3.577c-0.156-.361-0.3-0.74-0.437-1.132a2.984,2.984,0,0,0,1.868.688c1.45,0,2.73-1.114,3.6-3.136a18.028,18.028,0,0,0,0-12.629c-0.872-2.023-2.152-3.137-3.6-3.137a2.981,2.981,0,0,0-1.868.689c0.136-.392.281-0.771,0.437-1.132,0.966-2.24,2.233-3.577,3.389-3.577s2.423,1.337,3.389,3.577A28.77,28.77,0,0,1,256.871,201.776Z" transform="translate(-184 -176)"/>
</svg>
