<svg xmlns="http://www.w3.org/2000/svg" width="78" height="79.031" viewBox="0 0 78 79.031">
  <defs>
    <style>
      .cls-1 {
        fill: #fb5e31;
        fill-rule: evenodd;
      }
    </style>
  </defs>
  <path id="Forma_1" data-name="Forma 1" class="cls-1" d="M729.274,166.613a4.7,4.7,0,0,0,.277-0.508c0.041-.093.066-0.2,0.1-0.293a5.232,5.232,0,0,0,.176-0.535c0.024-.1.034-0.2,0.053-0.3,0.038-.2.075-0.4,0.094-0.615,0.006-.087,0-0.178.009-0.266,0.012-.242.017-0.487,0.005-0.743,0-.062-0.012-0.126-0.016-0.189-0.021-.3-0.055-0.6-0.107-0.914,0-.024-0.009-0.049-0.014-0.072a20.54,20.54,0,0,0-4.784-9.1c-0.04-.048-0.082-0.092-0.122-0.14-0.269-.317-0.542-0.634-0.831-0.949q-0.516-.562-1.065-1.113c-6.341-6.314-13.519-8.694-16.685-5.538a4.366,4.366,0,0,0-.526.636c-0.086.126-.15,0.265-0.225,0.4-0.058.107-.124,0.208-0.174,0.321a5.146,5.146,0,0,0-.192.553c-0.026.086-.06,0.165-0.083,0.253a5.993,5.993,0,0,0-.115.648c-0.01.08-.029,0.156-0.036,0.238-0.022.229-.025,0.469-0.025,0.711,0,0.084-.005.166,0,0.253,0.008,0.245.036,0.5,0.067,0.757,0.012,0.093.019,0.183,0.033,0.278,0.04,0.26.1,0.529,0.159,0.8,0.023,0.1.041,0.195,0.068,0.294,0.072,0.282.161,0.571,0.257,0.863,0.02,0.061.033,0.119,0.054,0.181a31.09,31.09,0,0,1,1.892,10.161v3.3a3.94,3.94,0,0,0-.274,7.872,3.936,3.936,0,0,1-7.656-1.29v-1.317a1.32,1.32,0,0,0,.935-0.385l1.322-1.317a1.314,1.314,0,0,0,.387-0.931v-2.633a1.31,1.31,0,0,0-.387-0.931l-1.322-1.316a1.32,1.32,0,0,0-.935-0.386v-1.317a1.32,1.32,0,0,0,.935-0.385l1.322-1.317a1.312,1.312,0,0,0,.387-0.931V156.77a1.31,1.31,0,0,0-.387-0.931l-1.322-1.316a1.32,1.32,0,0,0-.935-0.386V152.82a1.32,1.32,0,0,0,.935-0.385l1.322-1.317a1.312,1.312,0,0,0,.387-0.931v-2.633a1.31,1.31,0,0,0-.387-0.931l-1.322-1.316a1.32,1.32,0,0,0-.935-0.386V143.6a1.317,1.317,0,0,0,.935-0.386l1.322-1.316a1.312,1.312,0,0,0,.387-0.931v-2.633a1.31,1.31,0,0,0-.387-0.931l-1.322-1.317a1.324,1.324,0,0,0-.935-0.385v-1.317a1.317,1.317,0,0,0,.935-0.386l1.322-1.316a1.314,1.314,0,0,0,.387-0.931v-2.633a1.31,1.31,0,0,0-.387-0.931l-1.322-1.316a1.32,1.32,0,0,0-.935-0.386h-0.062a17.025,17.025,0,0,0-4.386-10.172,13.473,13.473,0,0,0-18.611-1.149,9.155,9.155,0,0,1-5.836,2.1h-0.187a1.318,1.318,0,0,0-1.321-1.317h-3.966a1.319,1.319,0,0,0-1.322,1.317h-3.972a1.328,1.328,0,0,0-.451.091,0.849,0.849,0,0,0-.111.049,1.086,1.086,0,0,0-.111.047l-6.609,3.95A1.316,1.316,0,0,0,652,122.54v3.95a1.319,1.319,0,0,0,1.322,1.317H663.9a1.318,1.318,0,0,0,1.322,1.316h3.966a1.317,1.317,0,0,0,1.321-1.316h0.626a11.732,11.732,0,0,0,6.827-2.175l3.782-2.685a4.8,4.8,0,0,1,4.7-.453,4.155,4.155,0,0,1,2.54,3.363,5.441,5.441,0,0,1,.035.617v9.233h-1.322a1.317,1.317,0,1,0,0,2.634h1.322v2.633h-1.322a1.317,1.317,0,1,0,0,2.633h1.322V154.14h-1.322a1.317,1.317,0,1,0,0,2.633h1.322v2.633h-1.322a1.317,1.317,0,1,0,0,2.633h1.322v9.966c0,10.283,8.137,18.8,18.141,19,0.119,0,.238,0,0.357,0a18.611,18.611,0,0,0,13.324-5.629A18.232,18.232,0,0,0,726,171.538a4.194,4.194,0,0,1,2.037-3.561,4.09,4.09,0,0,0,.579-0.482,4.4,4.4,0,0,0,.535-0.648C729.2,166.772,729.229,166.689,729.274,166.613Zm-1.955-2.316c-0.008.068-.026,0.128-0.038,0.192a3,3,0,0,1-.075.338c-0.02.061-.048,0.113-0.072,0.169a2.151,2.151,0,0,1-.12.275,1.669,1.669,0,0,1-.274.36c-1.736,1.732-7.644-.262-12.944-5.541a23.912,23.912,0,0,1-5.547-8.056c-0.047-.125-0.082-0.243-0.124-0.366h0c-0.083-.242-0.155-0.476-0.217-0.705-0.012-.045-0.022-0.089-0.033-0.132q-0.071-.276-0.123-0.537c-0.018-.095-0.031-0.186-0.046-0.278-0.02-.122-0.038-0.243-0.05-0.361-0.013-.135-0.02-0.264-0.025-0.392,0-.071-0.008-0.145-0.008-0.215,0-.154.012-0.3,0.027-0.441,0-.041.006-0.084,0.011-0.123a2.891,2.891,0,0,1,.093-0.419c0.007-.028.013-0.061,0.021-0.088a2.128,2.128,0,0,1,.156-0.356c0.013-.025.022-0.054,0.035-0.078a1.732,1.732,0,0,1,.265-0.346,1.813,1.813,0,0,1,.362-0.274c0.05-.029.111-0.047,0.165-0.073a2.183,2.183,0,0,1,.283-0.119c0.069-.021.147-0.033,0.219-0.05,0.1-.022.2-0.047,0.31-0.062,0.08-.01.169-0.012,0.255-0.017,0.107-.006.214-0.013,0.328-0.012a6.244,6.244,0,0,1,.926.086c0.074,0.012.154,0.029,0.23,0.045,0.294,0.056.6,0.13,0.918,0.224,0.066,0.019.131,0.034,0.2,0.055,0.367,0.116.752,0.259,1.146,0.424l0.293,0.127c0.359,0.158.726,0.333,1.1,0.53,0.061,0.031.121,0.059,0.183,0.092,0.423,0.226.854,0.483,1.29,0.757,0.107,0.067.216,0.138,0.323,0.208,0.415,0.271.832,0.558,1.254,0.87l0.112,0.08c0.45,0.337.9,0.706,1.353,1.091,0.109,0.093.219,0.189,0.329,0.285,0.457,0.4.913,0.819,1.365,1.268,3.629,3.614,5.712,7.511,6.1,10.167,0,0.013.006,0.027,0.007,0.041,0.025,0.18.036,0.348,0.046,0.515,0,0.07.012,0.143,0.014,0.21,0,0.109-.007.211-0.012,0.313A2.192,2.192,0,0,1,727.319,164.3Zm-21.124,5.64a1.319,1.319,0,0,1,1.322-1.316v2.633A1.321,1.321,0,0,1,706.2,169.937Zm-6.609-1.862-0.547.546h-1.55l-0.547-.546v-1.542l0.547-.546h1.55l0.547,0.546v1.542Zm0-9.215-0.547.545h-1.55l-0.547-.545v-1.543l0.547-.545h1.55l0.547,0.545v1.543Zm0-9.217-0.547.545h-1.55l-0.547-.545V148.1l0.547-.545h1.55l0.547,0.545v1.543Zm0-9.216-0.547.545h-1.55l-0.547-.545v-1.543l0.547-.545h1.55l0.547,0.545v1.543Zm0-9.216-0.547.546h-1.55l-0.547-.546v-1.543l0.547-.545h1.55l0.547,0.545v1.543Zm-44.943-7.925,3.966-2.37v4.256h-3.966v-1.886Zm6.61,1.888v-5.267H663.9v5.267h-2.643Zm5.287,1.316v-7.9h1.322v7.9H666.54Zm52.39,57.052a15.7,15.7,0,0,1-11.726,4.823c-8.574-.164-15.549-7.5-15.549-16.361v-9.966h1.322a1.317,1.317,0,1,0,0-2.633h-1.322v-2.633h1.322a1.317,1.317,0,1,0,0-2.634h-1.322V143.606h1.322a1.317,1.317,0,1,0,0-2.634h-1.322v-2.633h1.322a1.317,1.317,0,1,0,0-2.633h-1.322v-9.233a8.159,8.159,0,0,0-.053-0.915,6.818,6.818,0,0,0-4.094-5.47,7.46,7.46,0,0,0-7.3.715l-3.78,2.684a9.108,9.108,0,0,1-5.294,1.687h-0.626v-5.267h0.187a11.8,11.8,0,0,0,7.529-2.715,10.821,10.821,0,0,1,14.958.9,14.408,14.408,0,0,1,3.7,8.4,1.352,1.352,0,0,0-.294.069c-0.055.016-.113,0.017-0.165,0.038a1.328,1.328,0,0,0-.416.277l-1.322,1.316a1.31,1.31,0,0,0-.387.931v2.633a1.306,1.306,0,0,0,.387.931L696.008,134a1.318,1.318,0,0,0,.934.386v1.317a1.32,1.32,0,0,0-.934.385l-1.322,1.317a1.31,1.31,0,0,0-.387.931v2.633a1.306,1.306,0,0,0,.387.931l1.322,1.316a1.318,1.318,0,0,0,.934.386v1.317a1.316,1.316,0,0,0-.934.386l-1.322,1.316a1.31,1.31,0,0,0-.387.931v2.633a1.306,1.306,0,0,0,.387.931l1.322,1.317a1.321,1.321,0,0,0,.934.385v1.317a1.316,1.316,0,0,0-.934.386l-1.322,1.316a1.31,1.31,0,0,0-.387.931V159.4a1.306,1.306,0,0,0,.387.931l1.322,1.317a1.321,1.321,0,0,0,.934.385v1.317a1.316,1.316,0,0,0-.934.386l-1.322,1.316a1.31,1.31,0,0,0-.387.931v2.633a1.306,1.306,0,0,0,.387.931l1.322,1.317a1.321,1.321,0,0,0,.934.385v1.317a6.6,6.6,0,0,0,7.255,6.551,6.692,6.692,0,0,0,5.771-5.236h2.838a1.317,1.317,0,1,0,0-2.633h-2.644v-2.633h2.644a1.317,1.317,0,1,0,0-2.633h-2.644v-3.3a27.64,27.64,0,0,0-.155-2.821c0.6,0.711,1.24,1.411,1.922,2.089,4.094,4.078,8.522,6.489,12.008,6.856a5.959,5.959,0,0,0-.58,2.872A15.641,15.641,0,0,1,718.93,183.542Z" transform="translate(-652 -111.969)"/>
</svg>
