<svg xmlns="http://www.w3.org/2000/svg" width="153.312" height="51.469" viewBox="0 0 153.312 51.469">
  <defs>
    <style>
      .cls-1 {
        fill: #fb5e31;
        fill-rule: evenodd;
      }
    </style>
  </defs>
  <path id="my_vector_mask_shape" class="cls-1" d="M541.214,229.444a6.68,6.68,0,0,1,.382-2.6c2.223,0.293,4.718-.037,7.1.077,0.795,0.037,1.873.618,2.29,0.381q1.032-.648,2.062-1.3c6.933-2.845,2.307,10.3,2.9,12.828,4.138,2.942,4.322-8.584,5.116-11.148a5.135,5.135,0,0,1,3.512.458q-0.724,3.627-1.45,7.254-0.192,1.679-.382,3.359c0.1,0.153.2,0.306,0.305,0.458,3.12,0.24,4.1-2.409,4.887-4.734,0.247-.735.887-2.7,0.076-3.206-0.737-.487-1.458.293-1.985,0.534,0.343-3.139,6.771-4.608,7.483-1.145,0.459,2.234-2.186,6.852-2.978,8.4-0.368.717-1.433,2-1.069,3.054a1.191,1.191,0,0,0,1.985-.077l2.749-6.261c0.163-.374,1.042-1.275.763-1.908l-0.763-.535c0.3-1.07.355-2.916,1.3-3.359a10.038,10.038,0,0,1,1.374.229q0.573-1.183,1.145-2.367a8.237,8.237,0,0,1,3.589,1.374l-0.993,2.9c0.838,0.6,1.9,1.1,2.749,1.756,0.024,1.054-.383,2.965-1.527,2.748-0.922-.174-1.462-1.292-2.6-0.84-0.753,2.143-4.473,5.662-4.047,8.17,0.533,0.658,2.165,1.184,2.9.306,2.239-2.673,3.238-8.782,9.086-7.407,1.34,0.316,2.257,1.351,3.436,1.68,1.058,0.3,1.311-.45,1.756-0.611,1.131-.408,2.5,1.309,2.825,1.909-1.15,1.361-5.631,8.95-5.727,10.842l0.229,0.153,1.375,0.3c-1.464,2.538-6.585,2.2-7.483-.763-2.6.054-4.9-.328-5.65-2.062q-0.153-.763-0.305-1.527c-2.006.733-5.189,0.692-6.338-.84q-0.3-.687-0.611-1.374c-3.548,1.443-4.811-.642-6.108-2.9-1.043.787-2.867,2.283-4.963,1.45-0.58-.23-1.248-1.117-1.756-1.221l-1.527.687a3.767,3.767,0,0,1-4.581-2.672c-0.77-3.6,2.519-8.634.84-11.148-3.457-.276-2.345,4.122-2.825,7.024-0.93,5.624-1.573,9.924-5.345,12.6-4.412,3.129-12.547,2.211-14.507-2.444-2.058-4.889,4.7-7.394,5.879-2.519-0.832-.185-2.884-1.4-3.588-0.229-1.126,1.324.9,3.116,1.527,3.588,3.856,2.888,10.47.927,10.46-4.2-10.018-.032-11.532-11.621-8.017-19.775a14.875,14.875,0,0,1,4.658-5.8,8.844,8.844,0,0,1,6.8-1.985c2.853,0.532,5.5,2.767,4.657,6.413a3.818,3.818,0,0,1-.992,2.214c-3.5,2.963-9.451-1.244-6.49-4.046l0.153,0.076c0.46,1.442,2.457,3.573,4.428,2.214a2.854,2.854,0,0,0-.076-4.2c-2.768-1.717-5.889-.08-7.254,1.68-3.218,4.148-4.783,13.792-.84,18.553a2.208,2.208,0,0,0,2.138.688c2.684-.654,2.709-3.633,2.9-6.8a3.832,3.832,0,0,0-.229-2.214A21.543,21.543,0,0,0,541.214,229.444Zm31.076-7.024c3.632-.142,3.685,5.33.763,5.879-2.565.482-3.644-2.848-2.443-4.734A3.551,3.551,0,0,1,572.29,222.42Zm-42.834,1.985h0.382c0.226,2.893,1.1,10.546,2.367,12.293l0.534-.077c0.68-.337.615-1.062,1.069-1.6v0.153a4.935,4.935,0,0,1,.229,2.748c-0.6,3.328-2.027,1.677-5.039,2.291-2.1.429-3.2,3.985-6.414,2.825l-1.832-1.222a4.3,4.3,0,0,1-1.374,1.68c-6.263,5.775-4.535-9.565-7.254-10.766a1.558,1.558,0,0,0-.916.077c-2.415,3.14.31,8.4,0.763,11.911l-3.665.916v-0.153c-0.994-2.272-1.312-9.637-3.283-10.384h-0.687c-0.959.452-1.173,2.1-.916,3.513q0.992,4.085,1.985,8.169l-0.076.077a12.221,12.221,0,0,0-3.207.839,8.1,8.1,0,0,1,.534,3.742,10.458,10.458,0,0,1-8.322,7.94c-3.168.658-7.493-1.429-6.261-4.5-6.463-.033-4.766-7.557-8.4-10.308a7.6,7.6,0,0,0-1.527.458v-0.153c-0.612-2,1.78-5.138,3.054-5.65,1.578,0.2,1.76,1.97,2.291,3.207,0.824,1.921,3.418,8.431,5.421,8.628l0.534-.3a10.1,10.1,0,0,0,.077-3.207c-1.3-.459-2.763-0.829-3.589-1.756-2.423-2.722-.057-6.951,1.833-8.4,1.105-.848,3.067-0.823,4.2-1.68,1.043-.79,1.028-2.973,2.214-3.588,2.188-1.135,2.753.314,3.589,1.45,0.662-.311,1.849-1.1,2.9-0.84l1.145,0.611,0.917-.84a9.143,9.143,0,0,1,3.13-1.6c1.275-.288,2.34.77,2.749,0.687l2.978-2.061c6.072-2.789,4.089,10.106,7.558,11.911a1.027,1.027,0,0,0,.917-0.459q-0.536-3.015-1.069-6.031c-0.707-4.147.532-7.61,3.207-8.705,1-.41,2.474.068,3.283-0.229,0.468-.171.8-0.935,1.374-1.145Zm-4.81,4.5c-3.589,1.888-2.295,11.172,1.145,10.155C528.493,238.266,528.506,228.827,524.646,228.91Zm-28.022,5.726c-0.948.972-2.869,0-3.206,1.68h0.152l2.749,0.916c0.165-.919.915-1.74,0.534-2.6h-0.229Zm-18.553.382c3.15,0.272,1.834,4.434-.382,3.97C474.962,238.417,476.206,235.73,478.071,235.018Zm20.157,1.222-0.687.458c-0.489,1.763.877,2.889,0.458,5.115-0.467,2.479-4.2,4.828-6.414,5.574,0.026,0.076.051,0.153,0.076,0.229,2.936,2.036,5.544-2.763,10-.611-0.353-3.762-2.027-7.515-3.054-10.765h-0.382Zm-30.77.61c3.655-.1,7.2,2.047,6.032,6.261-0.889,3.206-5.677,4.68-6.872.764,3.528,1.7,4.46-3.889,1.527-4.5-4.109-.862-9.23,5.041-6.566,8.933,1.245,1.82,4.636,1.171,6.719.535a49.909,49.909,0,0,1,6.184-1.833c6.411-1.123,10.188,4.9,8.4,10.766-1.763,5.776-12.537,12.462-16.645,4.429a6.192,6.192,0,0,1,3.436-8.323c3.183-.948,5.708,1.258,5.039,4.5l-0.382.305c-1.175-.529-3.041-1.842-4.581-0.687-2.2,1.654.342,4.249,1.985,4.658,4.473,1.112,10.083-5.53,7.407-9.544-1.011-1.517-3.606-1.8-5.879-1.222-3.169.81-9,4.284-12.675,2.061-2.767-1.674-4.564-6.7-2.443-10.307a15.48,15.48,0,0,1,6.566-6.108C465.529,237.181,466.545,237.219,467.458,236.85Zm24.051,1.68a5.378,5.378,0,0,0-2.062.84c-1.584,1.589-.706,4.793,1.3,5.192C495.458,245.5,495.916,238.514,491.509,238.53Zm95.593,1.222c-2.166.968-3.775,2.019-4.657,4.2-0.373.92-.324,2.558,0.382,3.054,3.127,2.2,6.873-3.713,6.26-6.795A3.393,3.393,0,0,0,587.1,239.752Zm13.438,9.468c-2.253.253-5.9,6.556-7.482,8.246l-1.68-1.756L590,254.946l0.076-.153,2.291-2.748c1.357-1.7,3.274-3.091,4.275-5.116-0.025-.153-0.051-0.305-0.076-0.458-0.753-.926-2,0.066-2.825-0.458,0.76-1.354,5.429-4.2,7.1-1.756a5.226,5.226,0,0,1,.382,2.748c2.488,0.385,3.888,2.439,3.13,5.192a4.264,4.264,0,0,1,6.108,4.734,21.017,21.017,0,0,1-1.374,4.276h-0.153c0.051-2.493-.067-5.058-1.069-6.49l-0.916-.153c-3.724,1.982,1.816,8.936-2.749,10.842-3.833,1.6-6.51-.541-7.1-3.894q-0.075-.84-0.152-1.679,0.457-.612.916-1.222l0.993-2.291h0.076c0.544,1.985.821,5.259,2.52,6.185a1.338,1.338,0,0,0,.916-0.305,1.82,1.82,0,0,0,.382-0.382c0.011-1.773-.758-2.818-1.069-4.352-0.276-1.358.334-2.6,0.152-3.665C600.134,252.892,600.32,251.478,600.54,249.22ZM489.371,253.8a1.553,1.553,0,0,1,1.222.229c-1.2,2.734.795,3.9,3.817,3.13,2.322-.59,8.092-4.684,6.185-8.093h-0.153c-1.346-.356-2.718,1.07-3.589,1.6-2.257,1.382-3.913,2.217-7.1,1.222A5.762,5.762,0,0,0,489.371,253.8ZM521.9,257.7a9.48,9.48,0,0,1,3.054.305q-0.037.649-.076,1.3c-0.714-.3-2.365-0.8-3.054-0.153a1.774,1.774,0,0,0-.382.382c0.24,2.092,3.645,1.727,4.123,3.818,0.746,3.257-3.678,3.192-5.955,2.672v-1.374c0.827,0.185,4.549,1.268,3.97-.687-0.351-1.519-6.362-2.7-3.283-5.574A5.522,5.522,0,0,1,521.9,257.7Zm26.113,0c6.649-.2,5.111,10.727-2.062,8.322v-1.145c2.45,0.51,4.288.406,4.352-2.52-2.579,2.03-6.54-.456-4.275-3.512A4.2,4.2,0,0,1,548.01,257.7Zm14.736,0c5.224-.156,5.109,7.87,1.069,8.628-3.05.571-4.507-3.034-3.742-5.8C560.531,258.864,561.318,258.4,562.746,257.7Zm-19.317,8.4H541.6v-7.177l-1.221-.076V258l3.054-.229v8.322Zm-30.312-8.169h5.726v1.145h-3.818v2.214h3.131v1.146h-3.131v2.519h4.123v1.145h-6.031v-8.169Zm12.6,0h8.093v1.145h-3.13v7.024h-1.833v-7.024h-3.13v-1.145Zm27.487,0h6.032c0.036,3.06-3.352,4.5-3.665,8.169h-1.985c0.836-2.954,2.717-4.589,4.2-6.871H553.2v-1.3Zm-4.963.84-0.687.458a2.774,2.774,0,0,0,.3,2.748c2.292,0.8,2.788-1.466,1.756-2.977A3.738,3.738,0,0,0,548.239,258.764Zm14.736,0q-0.23.114-.458,0.229c-0.75,1.325-1.355,5.516.458,6.184a0.944,0.944,0,0,0,.992-0.152c1.562-.8.81-5.08,0.077-6.109ZM533.2,264.337h1.986v1.756H533.2v-1.756Z" transform="translate(-457.219 -214.906)"/>
</svg>
