<svg xmlns="http://www.w3.org/2000/svg" width="45" height="56.531" viewBox="0 0 45 56.531">
  <defs>
    <style>
      .cls-1 {
        fill: #fa5e31;
        fill-rule: evenodd;
      }
    </style>
  </defs>
  <path id="q" class="cls-1" d="M345.338,202.883c-8.791.752-10.756-1.676-16.467-5.85a3.357,3.357,0,0,0-2.1-.788l7.44,6.175a4.35,4.35,0,0,1,1.576,3.36v37.4a4.353,4.353,0,0,1-4.338,4.358H306.338A4.353,4.353,0,0,1,302,243.18v-37.4a4.352,4.352,0,0,1,1.575-3.36L316.132,192a4.322,4.322,0,0,1,5.525,0l1.887,1.566a6.879,6.879,0,0,1,1.457-.675,6.47,6.47,0,0,1,6.007,1.192c5.707,4.17,6.719,5.789,14.022,5.165A1.825,1.825,0,0,1,345.338,202.883Zm-24.162-.268c-0.249.58-.439,1.083-0.557,1.44a1.818,1.818,0,1,1-3.449-1.148c0.068-.206.271-0.8,0.609-1.606A2.449,2.449,0,1,0,321.176,202.615Zm2.442-4.254c-0.181.228-.357,0.467-0.526,0.713a6.065,6.065,0,1,1-4.2-1.7,5.98,5.98,0,0,1,.9.068,17.214,17.214,0,0,1,1.02-1.409l-1.475-1.223a0.7,0.7,0,0,0-.9,0l-12.557,10.421a0.706,0.706,0,0,0-.256.546v37.4a0.707,0.707,0,0,0,.705.708h25.114a0.707,0.707,0,0,0,.7-0.708v-37.4a0.706,0.706,0,0,0-.256-0.546Zm1.13,27.16c-1.3,1.312-2.97,1.967-5.67,1.967h-2.511v1.831h9.072v2.158h-9.072v3.142h-2.511v-3.142h-1.782v-2.158h1.782v-1.8h-1.782V225.33h1.782v-9.836h5.1a8.257,8.257,0,0,1,5,1.2,5.088,5.088,0,0,1,2.268,4.563A5.84,5.84,0,0,1,324.748,225.521Zm-2.322-7.076a5.732,5.732,0,0,0-3.375-.765h-2.484v7.65h2.106c2.052,0,3.213-.383,4.05-1.175a3.728,3.728,0,0,0,1.08-2.814A3.168,3.168,0,0,0,322.426,218.445Z" transform="translate(-302 -191)"/>
</svg>
