<svg xmlns="http://www.w3.org/2000/svg" width="45" height="45" viewBox="0 0 45 45">
  <defs>
    <style>
      .cls-1 {
        fill: #fa5e31;
        fill-rule: evenodd;
      }
    </style>
  </defs>
  <path class="cls-1" d="M415.572,220.535l-3.818,3.856,1.379,5.249a1.472,1.472,0,0,1-1.036,1.793l-5.235,1.431-1.43,5.235a1.472,1.472,0,0,1-1.793,1.035l-5.249-1.379-3.856,3.819a1.472,1.472,0,0,1-2.071,0l-3.856-3.819-5.249,1.379a1.472,1.472,0,0,1-1.793-1.035l-1.43-5.235-5.235-1.431a1.471,1.471,0,0,1-1.036-1.793l1.379-5.249-3.818-3.856a1.472,1.472,0,0,1,0-2.071l3.818-3.856-1.379-5.249a1.471,1.471,0,0,1,1.036-1.793l5.235-1.431,1.43-5.235a1.471,1.471,0,0,1,1.793-1.035l5.249,1.379,3.856-3.819a1.472,1.472,0,0,1,2.071,0l3.856,3.819,5.249-1.379a1.472,1.472,0,0,1,1.793,1.035l1.43,5.235,5.235,1.431a1.471,1.471,0,0,1,1.036,1.793l-1.379,5.249,3.818,3.856A1.472,1.472,0,0,1,415.572,220.535Zm-6.5-4.453a1.472,1.472,0,0,1-.378-1.41l1.222-4.652-4.64-1.267a1.471,1.471,0,0,1-1.031-1.032l-1.268-4.64-4.652,1.222a1.47,1.47,0,0,1-1.409-.377l-3.418-3.385-3.417,3.385a1.47,1.47,0,0,1-1.409.377l-4.652-1.222-1.268,4.64a1.471,1.471,0,0,1-1.031,1.032l-4.64,1.267,1.222,4.653a1.47,1.47,0,0,1-.378,1.409l-3.384,3.417,3.384,3.418a1.47,1.47,0,0,1,.378,1.409l-1.222,4.653,4.64,1.267a1.471,1.471,0,0,1,1.031,1.032l1.268,4.64,4.652-1.223a1.473,1.473,0,0,1,1.409.378l3.417,3.384,3.418-3.384a1.473,1.473,0,0,1,1.409-.378l4.652,1.222,1.268-4.639a1.471,1.471,0,0,1,1.031-1.032l4.64-1.268-1.222-4.652a1.47,1.47,0,0,1,.378-1.409l3.384-3.418Zm-9.688,14.208a4.905,4.905,0,1,1,4.9-4.905A4.911,4.911,0,0,1,399.384,230.29Zm0-6.867a1.962,1.962,0,1,0,1.962,1.962A1.964,1.964,0,0,0,399.384,223.423Zm-11.712,3.984a1.471,1.471,0,0,1-2.081-2.081l13.734-13.734a1.471,1.471,0,1,1,2.08,2.081Zm-0.059-8.888a4.905,4.905,0,1,1,4.9-4.905A4.911,4.911,0,0,1,387.613,218.519Zm0-6.867a1.962,1.962,0,1,0,1.962,1.962A1.964,1.964,0,0,0,387.613,211.652Z" transform="translate(-371 -197)"/>
</svg>
