<svg xmlns="http://www.w3.org/2000/svg" width="184.156" height="63.312" viewBox="0 0 184.156 63.312">
  <defs>
    <style>
      .cls-1 {
        fill: #fb5e31;
        fill-rule: evenodd;
      }
    </style>
  </defs>
  <path class="cls-1" d="M440.426,121.652c1.873,9.224,8.048,18.968,17.436,18.968,8.144,0,10.251-8.622,10.251-11.975a5.885,5.885,0,0,0-5.844-5.652,3.758,3.758,0,0,0-3.736,2.3,0.99,0.99,0,0,0,.862,1.149c0.479-.095,5.964-0.647,5.964,4.334a7,7,0,0,1-7.209,7.258c-6.8,0-13.987-11.495-13.987-23.567s6.131-12.837,7.185-12.837c2.682,0,7.377,1.723,7.377,8.334,0,4.216-2.2,5.653-4.407,5.653a3.469,3.469,0,0,1-3.449-2.012c-0.1-.575-0.958-0.384-1.245.383s-0.1,4.6,4.6,4.6c4.215,0,7.76-3.928,7.76-9.581,0-6.035-4.982-9.676-10.059-9.676C445.408,99.329,437.839,108.91,440.426,121.652Zm179.825-14.726c-2.613,2.138-9.084,4.5-11.5.25s0.834-6.668,2.25-7.335a3.058,3.058,0,0,1,2.333-.25c0.667,0,.584.75-0.083,1.417s-2.334,2-2.334,3.5,1.168,2.168,3.334,2.168,6.584-3,6.584-7.085-2.833-5.834-6.251-5.834-10.959,4.125-16.085,9.251-6.168,9.919-6.168,13,2.251,5.417,4.751,5.417,6.168-2.083,6.584-5.584c0.462-3.889-.749-3.75-1.333-4.333s-0.5-1.334.5-1.334,4.139,1.418,4.139,5.584-3.1,8.793-9.431,8.793-8.766-5.31-8.766-9.143c0-8.165,5.057-15.275,13-20.026,9.44-5.642,17.509-6.3,21.2.193C625.29,99.636,623.827,104,620.251,106.926ZM582.6,103.121a4.982,4.982,0,0,1,2.474,4.681c0,3.545-3.545,6.4-8.56,6.4s-9.563-2.123-9.563-9.211c0-5.618,6.287-9.162,8.293-9.162s1.572-.769.87-1.471-1.205-3.41-1.205-4.48,0.936-6.62,7.891-6.62c5.015,0,6.6,3.741,6.152,5.282a4.758,4.758,0,0,1-3.677,3.41c-0.6,0-1.27-.669-0.736-1.2a4.507,4.507,0,0,0,1.605-2.808c0-1.2-1.2-2.541-3.277-2.541s-4.747,2.943-4.747,5.149,0.468,4.547.869,4.948,0.8,1.939-.6,1.939-7.355,4.013-7.355,9.5,4.012,5.294,6.018,5.294a4.541,4.541,0,0,0,4.548-4.291c0-2.674-3.009-3.678-3.009-3.678a5.973,5.973,0,0,0-1.539.936,2.848,2.848,0,0,0-.2,2.675c0.4,0.4,1,1.672-.335,1.672s-2.34-.4-2.34-1.94a6.24,6.24,0,0,1,4.614-5.951c3.878-1.271,5.083-1.4,6.621-2.073s2.808-1.538,2.808-2.474-2.073.6-2.073-1.4,1.137-1.471,2.14-1.471a2.867,2.867,0,0,1,2.541,3.076,5.2,5.2,0,0,1-3.812,4.949A22.616,22.616,0,0,1,582.6,103.121Zm-14.786,28.185c0,0.433,1.679,1.192,1.679,3.155s-1.729,3.913-5.022,3.913-4.664-2.195-4.664-3.26a2.24,2.24,0,0,1,.288-1.579,1.007,1.007,0,0,1,1.464.1c0.366,0.665.4,2.761,2.628,2.761s2.229-1.63,2.229-2.428c0-2.13-1.7-1.83-1.7-2.695s1.332-.333,1.332-1.865c0-.964-1.332-1.828-2.4-1.828s-1.764,1-2.2,1.431-1.6.632-1.6-.532c0-.8.965-2.928,3.959-2.928s4.757,1.928,4.757,3.226S567.814,130.873,567.814,131.306ZM562.137,107.6c0.2,0.2.8,1.339-.134,1.673s-2.307,1.17-3.61-.134-0.937-3.076-.335-5.283,1.873-5.818,2.475-7.624,0.2-2.808-1.539-2.808-2.541,1.338-3.812,4.012a48.706,48.706,0,0,0-2.942,8.761c0,0.668.2,1.6-1.27,1.6s-2.943-.2-2.408-2.073,3.21-8.559,3.477-10.231,0.234-2.441-.4-3.076-2.206.467-1.337-1.739c0.225-.572,1.47-1,3.209-1s2.375,1.439,2.743,1.806,0.8,0,1.2,0a7.813,7.813,0,0,1,3.678-.869c2.608,0,3.477,1.337,3.477,3.544s-3.143,8.024-3.143,11.168S561.937,107.4,562.137,107.6ZM544.952,83.8a2.408,2.408,0,1,1,2.407-2.407A2.408,2.408,0,0,1,544.952,83.8Zm1.136,7.422c0,2.474-3,8.794-3,10.665a1.927,1.927,0,0,0,1.739,2.207c0.4,0,1.688.67,0.852,1.506a5.123,5.123,0,0,1-3.8,1.848,2.824,2.824,0,0,1-3.143-3.052c0-1.07,3.143-8.76,3.143-11.168s-2.609-1.338-2.609-3.009c0-1,2.14-2.073,3.678-2.073S546.088,88.744,546.088,91.218Zm-4.4,35.73v9.215l0.566,0.632a1.121,1.121,0,0,1,.4.632c0,0.3.566,0.865-2.162,0.865s-2.362-.265-2.362-0.5,0.8-.565,1.032-1.131,0-5.854,0-6.587-0.831-.265-1.164-0.6a0.6,0.6,0,0,1-.134-0.7c0-.631,1.631-1.729,2.029-2.129S541.688,125.384,541.688,126.948Zm-4.961-37.6c-0.368,1.505-2.275.669-2.609,2.207s-1.472,6.687-1.4,9.5-0.133,2.876.6,3.478a1.809,1.809,0,0,0,1.671.468,1.059,1.059,0,0,1,.669,1.805,5.146,5.146,0,0,1-3.945,1.806c-2.274,0-3.143-3.077-3.076-5.35,0.085-2.874,1.4-6.42,1.605-8.626a10.469,10.469,0,0,1,.6-2.675c0-.468-0.467-0.468-0.868-0.468a1.456,1.456,0,0,1-1.673-1.538c0.067-1.471,1.138-1.271,1.739-1.271s1.672-.134,1.672-0.134,0.536-4.145.736-5.818-0.736-3.879,1.8-3.879,1.94,2.608,1.538,4.28-0.869,5.35-.869,5.35a3.755,3.755,0,0,0,.869.134A0.951,0.951,0,0,1,536.727,89.346Zm-8,48.186c-0.959.96-1.437,0.688-2.167-.042s-0.9-1.27.167-2.333c0.938-.937,1.375-0.625,2.125.125C530,136.428,529.417,136.845,528.729,137.532Zm-3.572-43.84c-1.4.335-1.672-1-2.875,0s-1.538,11.77-1.538,13.174-0.364,2.583-2.237,2.583-1.24-4.389-.772-8.468,0.6-6.018-.268-6.954-1.271-.335-1.672-0.335-1.2.134-.668-1.337,1.137-2.341,2.675-2.341a3.2,3.2,0,0,1,3.132,2.046s1.415-2.647,3.822-2.647,2.073,0.869,2.073,1.738A2.367,2.367,0,0,1,525.157,93.692Zm-5.206,33.234c0.965,0,1.2-.186,1.46.074a5.812,5.812,0,0,1,1.139,2.253,0.617,0.617,0,0,1-.891.569,6.445,6.445,0,0,0-1.065-.669c-0.321,0-1.113-.018-1.113-0.018v7.421a2.119,2.119,0,0,1,.99.965c0,0.421-.52.842-1.659,0.842H517.03c-1.139,0-1.658-.421-1.658-0.842a2.119,2.119,0,0,1,.99-0.965v-7.421s-0.793.018-1.114,0.018a6.49,6.49,0,0,0-1.064.669,0.618,0.618,0,0,1-.892-0.569A5.812,5.812,0,0,1,514.431,127c0.26-.26.5-0.074,1.46-0.074h4.06Zm-9.773-14.644c-0.8,0-1.887-1.375-1.887-1.375a5.9,5.9,0,0,1-5.067,3.181c-3.545,0-5.685-3.544-5.685-10.5s3.678-10.164,6.754-10.164,3.01,0.669,3.01.669a6.349,6.349,0,0,1,1.337-1.739c0.468-.2,1.806-0.869,1.739.936s-0.2,4.948-.2,8.225,0.244,7.341,1.471,6.955c2.341-.736,2.608.334,1.2,2.006S510.98,112.282,510.178,112.282Zm-5.417-15.514c-2.273,0-3.343,2.876-3.343,6.955,0,3.076.133,6.754,2.942,6.754s3.076-5.483,3.076-7.958S507.035,96.768,504.761,96.768Zm-0.534,20.195c0.668,0,2.474.536,1.07,1.673s-2.229,1.366-5.283,1c-3.946-.469-8.36-3.946-11.1-9.764s-4.681-16.383-4.681-16.383-0.334,16.985-.334,17.855-0.535.935-.937-0.4a60.387,60.387,0,0,0-3.143-6.42c-1.137-2.206-3.276-4.146-4.413-6.353a20.061,20.061,0,0,1-1.538-4.547c-0.2-.535-0.736-0.067-0.736.869a25.643,25.643,0,0,0,.268,4.213,34.358,34.358,0,0,0,2.006,7.155c1.2,2.942,5.483,9.9,5.483,15.314a9.713,9.713,0,0,1-6.482,9.3c0.241,2.6.222,5.038-.353,6.22-1.724,3.544-3.64,5.46-6.131,5.46s-2.874-1.055-2.874-2.683,0.766-1.436.862-1.724,1.054,0,1.437.192a2.145,2.145,0,0,0,1.437.383,3.833,3.833,0,0,0,3.257-3.162,12.863,12.863,0,0,0-.675-4.3c-4.223-.067-5.077-0.837-5.524-1.86-0.468-1.069.6-1.2,1.271-1.069a12.975,12.975,0,0,0,3.394-.086c-1.062-3.523-2.33-7.232-2.681-8.685-0.67-2.778-1.628-7.281-1.628-7.281s-2.2-.287-2.971-0.479-0.095-1.245.479-1.724a12.578,12.578,0,0,1,2.108-1.15,22.95,22.95,0,0,1-1.527-6.247c-2.723-.321-4.476-2.743-5.123-5.552-1.432.157-2.917,0.322-3.793,0.4-1.622.141-6.8,1.916-6.61,5.077s0.479,3.353,1.725,3.353a1.158,1.158,0,0,0,1.437-1.149c0.1-.575.766-0.575,1.437,0s0.67,0.383.67,1.437-0.095,2.874-3.353,2.874-4.79-2.683-4.79-5.748,2.948-6.993,7.218-8.463c2.337-.805,3.786-0.553,5.787-0.711,0.177-4.582,3.232-6.85,7.084-7.861,4.079-1.07,6.085-1.805,6.486-1.872s1.739-.669,1.806.468a23.633,23.633,0,0,0,1.605,5.818c0.6,1.137,5.283,8.091,5.283,8.091s0.535-6.821,1.137-10.9a19.367,19.367,0,0,1,2.808-7.489c0.4-.669,1.471-1.07,1.471.468s1.218,13.987,3.812,21.266c2.742,7.69,5.617,12.3,8.827,13.842S503.558,116.963,504.227,116.963ZM464.253,99.194a19.362,19.362,0,0,1,.028-2.356c0.1-.383-0.478-0.479-1.341-0.479-0.167,0-.565.033-1.069,0.082A3.23,3.23,0,0,0,464.253,99.194Zm6.939-10.918c0.134-.4-0.2-0.669-0.736-0.669s-1.537.735-3.009,1.137c-1.385.378-5.314,0.64-5.772,4.572a19.4,19.4,0,0,0,3.66-1.46c0.575-.191,1.629-0.67,1.724,1.246,0.045,0.889.172,3.2,0.325,5.63a9.441,9.441,0,0,1,1.066-.56c0.736-.267,1.642-0.408,1.2,1.672a3.067,3.067,0,0,1-2.062,2.016c0.117,1.629.234,3.026,0.33,3.695,0.287,2.012.862,3.929,1.82,4.6a6.8,6.8,0,0,0,3.066.862c0.383,0,1.628.479,1.054,1.341s-3.928.479-3.928,0.479,2.227,6.611,3.185,10.156c0.267,0.988.549,2.306,0.792,3.74a5.053,5.053,0,0,0,.959-0.742c2.273-2.274,1.94-10.232.067-14.979s-4.414-10.3-4.28-15.046A54.058,54.058,0,0,1,471.192,88.276ZM493.1,136.388c0-.544-0.055-7.209-0.055-7.209,0-.792-1.262-0.991-1.262-1.708s0.669-.57,1.683-0.57h4.654a2.166,2.166,0,0,1,2.079.965,3.268,3.268,0,0,1,.52,1.362c0.1,0.4-.173,1.187-0.916.643s-0.817-1.064-1.411-1.064-2.6-.025-2.6-0.025v2.847h1.733a0.932,0.932,0,0,1,.817.842,1.109,1.109,0,0,1-1.14,1.114h-1.435v2.772h2.451a3.5,3.5,0,0,0,1.04-.94c0.322-.521,1.485-0.967,1.311.123s-0.668,2.971-2.252,2.971h-5.842c-0.719,0-1.114-.223-0.767-0.792S493.1,136.932,493.1,136.388Zm10.54-1.119a4.034,4.034,0,0,0,3.342,1.682c2,0,1.906-.594,1.906-1.237,0-1.411-2.6-1.907-3.49-2.352s-2.2-.965-2.2-3.02a3.712,3.712,0,0,1,3.986-3.465c2.327,0,2.351-.818,2.97-0.818s0.99,1.016,1.114,1.56a18.929,18.929,0,0,1,.3,2.2c0,0.272-.025,1.213-1.065.619s-1.237-1.288-2.6-1.288-1.56.322-1.56,0.793c0,1.782,5.892,2.1,5.892,4.876,0,2.946-2.673,3.738-4.58,3.738a11.984,11.984,0,0,1-2.871-.3,1.821,1.821,0,0,0-.644.372c-0.111.111-.99,0.618-1.262-0.817s-0.5-1.906-.5-2.327S503,134.625,503.638,135.269Zm42.642-6.225c0-1.663,1.132-3.626,4.79-3.626s4.791,1.963,4.791,3.626-1.363,1.995-1.363,2.561,1.63,1.232,1.63,3.328c0,2.794-2.512,3.825-5.074,3.825s-5.041-1.031-5.041-3.825c0-2.1,1.63-2.763,1.63-3.328S546.28,130.707,546.28,129.044Zm4.785,7.119c1.3,0,2.034-.665,2.034-1.564,0-.532-0.592-1.263-1.989-1.263s-2.069.532-2.069,1.263C549.041,135.664,549.767,136.163,551.065,136.163Zm0-5.489c1.3,0,2.034-.665,2.034-1.564,0-.532-0.592-1.263-1.989-1.263s-2.069.532-2.069,1.263C549.041,130.175,549.767,130.674,551.065,130.674Zm22.508,2.961c0.366,0.665.4,2.761,2.628,2.761s2.229-1.63,2.229-2.428c0-2.13-1.7-1.83-1.7-2.695s1.332-.333,1.332-1.865c0-.964-1.332-1.828-2.4-1.828s-1.764,1-2.195,1.431-1.6.632-1.6-.532c0-.8.964-2.928,3.958-2.928s4.758,1.928,4.758,3.226-0.765,2.1-.765,2.529,1.679,1.192,1.679,3.155-1.729,3.913-5.022,3.913-4.664-2.195-4.664-3.26a2.245,2.245,0,0,1,.288-1.579A1.007,1.007,0,0,1,573.573,133.635Zm46.761-16.292c3.583,2.876,3.166,8.251-1.542,12.96s-9.125,5.668-12.835,1.959c-3.167-3.167-1.416-8.293,2.292-12S616.751,114.468,620.334,117.343Zm-11.376,12.585c2.125,2.125,4.833-.625,7.083-2.875s4.293-4.75,2.126-6.917-4.876.791-6.876,2.791S606.624,127.6,608.958,129.928Zm7.751,7.293c1.145,1.146.562,1.563-.126,2.25-0.959.959-1.437,0.688-2.167-.042s-0.9-1.271.167-2.333C615.521,136.158,615.958,136.471,616.709,137.221Z" transform="translate(-439.938 -78.844)"/>
</svg>
