<svg xmlns="http://www.w3.org/2000/svg" width="75" height="41" viewBox="0 0 75 41">
  <defs>
    <style>
      .cls-1 {
        fill: #fa5e31;
        fill-rule: evenodd;
      }
    </style>
  </defs>
  <path class="cls-1" d="M375.159,148.185h-4.112a6.184,6.184,0,0,1-12.061,0H336.922a6.183,6.183,0,0,1-12.06,0h-5.6a1.846,1.846,0,0,1-1.841-1.84v-6.409h-7.165a1.84,1.84,0,1,1,0-3.68h9.022a1.846,1.846,0,0,1,1.841,1.84v6.425h3.637a1.743,1.743,0,0,1,.4.046,6.176,6.176,0,0,1,11.478-.031,1.181,1.181,0,0,1,.23-0.015H354.2V115.68H321.118v6.409a1.846,1.846,0,0,1-1.841,1.84h-9.022a1.84,1.84,0,1,1,0-3.68h7.165V113.84a1.846,1.846,0,0,1,1.841-1.84h36.764a1.846,1.846,0,0,1,1.841,1.84v4.17h7.718a10.88,10.88,0,0,1,8.117,3.4,13.942,13.942,0,0,1,3.3,9.645v15.286A1.846,1.846,0,0,1,375.159,148.185Zm-44.267-3.848a2.5,2.5,0,1,0,2.5,2.5A2.5,2.5,0,0,0,330.892,144.337Zm34.124,5a2.5,2.5,0,1,0-2.5-2.5A2.52,2.52,0,0,0,365.016,149.335Zm8.3-18.261c0-5.873-2.884-9.384-7.718-9.384h-7.717v22.831h1.411a6.171,6.171,0,0,1,11.447,0h2.577V131.074Zm-39.464-4.263a1.844,1.844,0,0,1,2.609-2.606l4.511,4.508,0.015,0.015c0.031,0.046.077,0.077,0.108,0.123,0.015,0.03.03,0.046,0.046,0.076a0.274,0.274,0,0,1,.061.077l0.046,0.092c0.015,0.031.031,0.046,0.046,0.077s0.031,0.061.046,0.092a0.154,0.154,0,0,0,.031.076c0.015,0.031.015,0.062,0.03,0.092a0.348,0.348,0,0,1,.031.077c0,0.031.015,0.061,0.015,0.092s0.016,0.061.016,0.092c0,0.046.015,0.077,0.015,0.107a0.142,0.142,0,0,1,.015.077,1.417,1.417,0,0,1,0,.368c0,0.031-.015.046-0.015,0.077s-0.015.076-.015,0.107-0.016.061-.016,0.092a0.2,0.2,0,0,1-.015.092,0.447,0.447,0,0,0-.031.077c-0.015.03-.015,0.061-0.03,0.092a0.164,0.164,0,0,1-.031.076c-0.015.031-.03,0.062-0.046,0.092s-0.031.046-.046,0.077l-0.046.092a0.257,0.257,0,0,0-.061.077c-0.016.03-.031,0.046-0.046,0.076-0.031.046-.077,0.077-0.108,0.123l-0.015.015-4.741,4.738a1.876,1.876,0,0,1-1.3.537,1.841,1.841,0,0,1-1.305-3.144l1.581-1.686H303.841a1.84,1.84,0,1,1,0-3.68h31.378Z" transform="translate(-302 -112)"/>
</svg>
