<svg xmlns="http://www.w3.org/2000/svg" width="43" height="38" viewBox="0 0 43 38">
  <defs>
    <style>
      .cls-1 {
        fill: #fa5e31;
        fill-rule: evenodd;
      }
    </style>
  </defs>
  <path id="_1" data-name="1" class="cls-1" d="M82.769,164.636a1.149,1.149,0,1,0-2.292.166c0.028,0.393.043,0.8,0.043,1.2a16.611,16.611,0,1,1-16.611-16.7,16.4,16.4,0,0,1,9.962,3.338,1.145,1.145,0,0,0,1.609-.23,1.159,1.159,0,0,0-.228-1.617,18.669,18.669,0,0,0-11.343-3.8A19.012,19.012,0,1,0,82.818,166c0-.457-0.016-0.916-0.048-1.364h0Zm3.92-15.038a4.47,4.47,0,0,0-6.339,0L63.8,166.243l-5.868-5.9a4.47,4.47,0,0,0-6.339,0,4.53,4.53,0,0,0,0,6.374L61.7,176.878a2.963,2.963,0,0,0,4.2,0l20.793-20.906a4.53,4.53,0,0,0,0-6.374h0Zm-1.625,4.74L64.272,175.245a0.671,0.671,0,0,1-.951,0L53.215,165.082a2.207,2.207,0,0,1,0-3.106,2.179,2.179,0,0,1,3.089,0l6.037,6.07a2.05,2.05,0,0,0,2.913,0l16.722-16.814a2.179,2.179,0,0,1,3.089,0,2.207,2.207,0,0,1,0,3.106h0Z" transform="translate(-45 -147)"/>
</svg>
