<svg xmlns="http://www.w3.org/2000/svg" width="66" height="66" viewBox="0 0 66 66">
  <defs>
    <style>
      .cls-1 {
        fill: #fa5e31;
        fill-rule: evenodd;
      }
    </style>
  </defs>
  <path id="_1" data-name="1" class="cls-1" d="M275.969,377.75h-3.094V339.594h-0.027a5.1,5.1,0,0,0,1.058-3.094V321.031A1.032,1.032,0,0,0,272.875,320h-57.75a1.032,1.032,0,0,0-1.031,1.031V336.5a5.1,5.1,0,0,0,1.058,3.094h-0.027V377.75h-3.094A1.032,1.032,0,0,0,211,378.781v2.063A5.162,5.162,0,0,0,216.156,386h55.688A5.162,5.162,0,0,0,277,380.844v-2.063a1.032,1.032,0,0,0-1.031-1.031h0Zm-59.813-43.313h6.188V336.5a3.094,3.094,0,0,1-6.188,0v-2.063h0Zm41.25-2.062V322.062h6.188v10.313h-6.188Zm-2.062,0h-6.188V322.062h6.188v10.313h0Zm-8.25,0h-6.188V322.062h6.188v10.313h0Zm-8.25,0h-6.188V322.062h6.188v10.313h0Zm-8.25,0h-6.188V322.062h6.188v10.313h0Zm-6.188,2.062h6.188V336.5a3.094,3.094,0,0,1-6.188,0v-2.063h0Zm8.25,0h6.188V336.5a3.094,3.094,0,0,1-6.188,0v-2.063h0Zm8.25,0h6.188V336.5a3.094,3.094,0,0,1-6.188,0v-2.063h0Zm8.25,0h6.188V336.5a3.094,3.094,0,0,1-6.188,0v-2.063h0Zm8.25,0h6.188V336.5a3.094,3.094,0,0,1-6.188,0v-2.063h0Zm8.25,0h6.188V336.5a3.094,3.094,0,0,1-6.188,0v-2.063h0Zm6.188-2.062h-6.188V322.062h6.188v10.313h0Zm-55.688-10.313h6.188v10.313h-6.188V322.062h0Zm1.031,19.157a5.1,5.1,0,0,0,6.188-1.657,5.11,5.11,0,0,0,8.25,0,5.11,5.11,0,0,0,8.25,0,5.11,5.11,0,0,0,8.25,0,5.11,5.11,0,0,0,8.25,0,5.11,5.11,0,0,0,8.25,0,5.1,5.1,0,0,0,6.187,1.657V377.75H268.75V343.719a1.032,1.032,0,0,0-1.031-1.032H220.281a1.032,1.032,0,0,0-1.031,1.032V377.75h-2.063V341.219h0ZM221.312,353h45.375v24.75H221.312V353h0Zm0-2.063V344.75h45.375v6.187H221.312Zm53.625,29.907a3.1,3.1,0,0,1-3.093,3.093H216.156a3.1,3.1,0,0,1-3.094-3.093v-1.032h61.875v1.032h0Zm-49.5-13.407h13.407a1.032,1.032,0,0,0,1.031-1.031v-9.281a1.032,1.032,0,0,0-1.031-1.031H225.437a1.032,1.032,0,0,0-1.031,1.031v9.281a1.032,1.032,0,0,0,1.031,1.031h0Zm1.032-9.281h5.156v2.063h2.062v-2.063h4.125v7.219H226.469v-7.219h0Zm15.771,0.3a1.029,1.029,0,0,0-.3.729V369.5H224.406v2.062h2.425a3.576,3.576,0,0,0-.362,1.547,3.609,3.609,0,1,0,6.857-1.547h2.786a3.576,3.576,0,0,0-.362,1.547,3.61,3.61,0,1,0,7.219,0,3.576,3.576,0,0,0-.362-1.547h0.362A1.032,1.032,0,0,0,244,370.531V359.614l2.792-2.791-1.459-1.458-3.093,3.093h0Zm-10.615,14.651a1.547,1.547,0,1,1-1.547-1.547,1.549,1.549,0,0,1,1.547,1.547h0Zm9.281,0a1.547,1.547,0,1,1-1.547-1.547,1.549,1.549,0,0,1,1.547,1.547h0Zm-17.531-26.3h2.062v2.063h-2.062v-2.063h0Zm4.125,0h2.062v2.063H227.5v-2.063h0Zm4.125,0h2.062v2.063h-2.062v-2.063h0Zm4.125,0h20.625v2.063H235.75v-2.063h0Zm27.615,23.141a1.032,1.032,0,0,0-.347-1.687l-7.292-2.918a1.033,1.033,0,0,0-1.341,1.342l2.917,7.292a1.032,1.032,0,0,0,1.687.346l1.458-1.458,3.13,3.13,1.458-1.458-3.129-3.13,1.459-1.459h0Zm-4.727,1.812-1.443-3.607L260.8,369.6l-2.163,2.164h0Zm-6.388-11.546a3.1,3.1,0,0,1,3.094,3.093h2.062a5.156,5.156,0,1,0-5.156,5.157v-2.063a3.094,3.094,0,1,1,0-6.187h0Z" transform="translate(-211 -320)"/>
</svg>
