<svg xmlns="http://www.w3.org/2000/svg" width="52.031" height="51.969" viewBox="0 0 52.031 51.969">
  <defs>
    <style>
      .cls-1 {
        fill: #fa5e31;
        fill-rule: evenodd;
      }
    </style>
  </defs>
  <path id="_2" data-name="2" class="cls-1" d="M143.7,236.794l-4.5-4.491a1.039,1.039,0,0,0-1.467,0l-6.2,6.195a1.035,1.035,0,0,0-.1,1.342l-12.379,12.367a11.466,11.466,0,0,0-14.71,3.458,14.23,14.23,0,1,0,15.971,15.955,11.431,11.431,0,0,0,3.46-14.694l12.38-12.369a1.036,1.036,0,0,0,1.344-.1l6.2-6.2a1.035,1.035,0,0,0,0-1.465h0Zm-23.4,32.133a9.423,9.423,0,0,1-1.526,1.236,1.036,1.036,0,0,0-.467.771,12.173,12.173,0,1,1-13.275-13.262,1.04,1.04,0,0,0,.772-0.467,9.391,9.391,0,0,1,11.7-3.45l-7.224,7.216c-0.084,0-.169-0.006-0.254-0.006a4.977,4.977,0,1,0,4.983,4.978c0-.085,0-0.17-0.007-0.254l7.226-7.219a9.32,9.32,0,0,1-1.93,10.457h0Zm-8.216-5.039a2.91,2.91,0,1,1-2.057-.851,2.884,2.884,0,0,1,2.057.851h0Zm2.247-.457a5.05,5.05,0,0,0-.78-1.008,4.987,4.987,0,0,0-1.009-.779l20.349-20.329,1.789,1.787-20.349,20.329h0Zm22.436-21.175-3.029-3.026,4.734-4.729,3.028,3.026-4.733,4.729h0Zm-23.076,33.726a1.039,1.039,0,0,0-1.467,0,8.694,8.694,0,0,1-8.392,2.233,1.036,1.036,0,1,0-.542,2,10.767,10.767,0,0,0,10.4-2.768,1.035,1.035,0,0,0,0-1.465h0Zm-12.914.706a8.765,8.765,0,0,1-.8-0.706,1.036,1.036,0,0,0-1.467,1.465,10.786,10.786,0,0,0,.987.874,1.037,1.037,0,1,0,1.277-1.633h0Zm5.591-3.67-3.422-3.419a1.037,1.037,0,1,0-1.467,1.465l3.422,3.419a1.037,1.037,0,1,0,1.467-1.465h0Z" transform="translate(-91.969 -232.031)"/>
</svg>
