<svg xmlns="http://www.w3.org/2000/svg" width="31" height="48" viewBox="0 0 31 48">
  <defs>
    <style>
      .cls-1 {
        fill: #fa5e31;
        fill-rule: evenodd;
      }
    </style>
  </defs>
  <path id="_2" data-name="2" class="cls-1" d="M321.33,357.812a8.76,8.76,0,0,0,1.578-2.065h0.459a4.008,4.008,0,0,0,4.007-4V341.525A12.54,12.54,0,0,0,314.822,329h-4.645a12.551,12.551,0,0,0-11.693,7.965c-0.007.014-.012,0.028-0.018,0.042a12.47,12.47,0,0,0-.841,4.518v8.583a2.255,2.255,0,0,0,2.255,2.251h0.544a2.243,2.243,0,0,0,.611-0.086,8.739,8.739,0,0,0,2.632,5.54,10.881,10.881,0,0,0-6.657,10.023v8.327a0.838,0.838,0,0,0,.838.837h29.3a0.838,0.838,0,0,0,.839-0.837v-8.327a10.881,10.881,0,0,0-6.66-10.024h0Zm2.292-3.753a8.714,8.714,0,0,0,.343-1.786,2.229,2.229,0,0,0,.609.086h0.544a2.237,2.237,0,0,0,.509-0.06,2.331,2.331,0,0,1-2,1.76h0Zm2.074-8.635v4.684a0.578,0.578,0,0,1-.578.577h-0.544a0.579,0.579,0,0,1-.578-0.577v-4.955a0.579,0.579,0,0,1,.578-0.577h0.544a0.578,0.578,0,0,1,.578.577v0.271h0ZM301,350.108a0.578,0.578,0,0,1-.578.577H299.88a0.579,0.579,0,0,1-.578-0.577v-4.955a0.579,0.579,0,0,1,.578-0.577h0.544a0.578,0.578,0,0,1,.578.577v4.955h0Zm0-8.222v1.094a2.252,2.252,0,0,0-.578-0.078H299.88a2.252,2.252,0,0,0-.578.078v-1.454a10.792,10.792,0,0,1,.714-3.877c0.006-.012.011-0.025,0.016-0.038a10.879,10.879,0,0,1,10.144-6.937h4.646A10.845,10.845,0,0,1,325.7,341.526v1.454a2.252,2.252,0,0,0-.578-0.078h-0.544a2.252,2.252,0,0,0-.578.078v-1.094a9.747,9.747,0,0,0-9.747-9.727h-3.5A9.748,9.748,0,0,0,301,341.886h0Zm1.678,0a8.071,8.071,0,0,1,8.069-8.053h3.5a8.071,8.071,0,0,1,8.069,8.053V344.5l-3.756-5.246a0.839,0.839,0,0,0-1.464.183,10.227,10.227,0,0,1-9.535,6.51H302.68v-4.058h0Zm0,9.636v-3.9h4.884a11.911,11.911,0,0,0,10.472-6.224l4.283,5.983v4.145a7.026,7.026,0,0,1-.477,2.551h-6.085a0.838,0.838,0,1,0,0,1.675h5.163a7.094,7.094,0,0,1-3.419,2.489l-0.021.007-3.9,1.309a3.439,3.439,0,0,1-2.169,0l-3.9-1.309a7.15,7.15,0,0,1-1.681-.824,7.073,7.073,0,0,1-3.158-5.9h0Zm15.174,13.031-4.515-2.426v-0.793a5.14,5.14,0,0,0,.78-0.194l2.97-1,0.765,4.411h0Zm-6.193-3.219v0.793l-4.516,2.426,0.766-4.411,2.969,1a5.008,5.008,0,0,0,.781.194h0Zm0,13.992H298.687v-7.49a9.206,9.206,0,0,1,6.553-8.813,8.943,8.943,0,0,0,1.067.548l-1.11,6.391a0.839,0.839,0,0,0,1.224.88l2.159-1.159,3.081,3.075v6.568h0Zm-1.539-10.471,2.378-1.277,2.377,1.277-2.377,2.372-2.378-2.372h0Zm16.191,10.471H313.339v-6.569l3.08-3.074,2.159,1.159a0.838,0.838,0,0,0,1.224-.88l-1.11-6.392a8.791,8.791,0,0,0,1.067-.547,9.206,9.206,0,0,1,6.554,8.813v7.49h0Zm-3.828-6.408h-4.25a0.837,0.837,0,1,0,0,1.674h4.25a0.837,0.837,0,1,0,0-1.674h0Z" transform="translate(-297 -329)"/>
</svg>
