<svg xmlns="http://www.w3.org/2000/svg" width="50" height="42" viewBox="0 0 50 42">
  <defs>
    <style>
      .cls-1 {
        fill: #fa5e31;
        fill-rule: evenodd;
      }
    </style>
  </defs>
  <path id="_4" data-name="4" class="cls-1" d="M283.1,59.115A13.978,13.978,0,0,0,263.378,59l-1.352,1.338L260.673,59a13.979,13.979,0,0,0-19.612,0,13.6,13.6,0,0,0,0,19.389l17.333,17.136a5.182,5.182,0,0,0,7.262,0L282.877,78.5a13.727,13.727,0,0,0,.225-19.389h0Zm-2.041,17.594L263.84,93.734a2.591,2.591,0,0,1-3.631,0L242.877,76.6a11.084,11.084,0,0,1,0-15.8,11.39,11.39,0,0,1,15.98,0l1.354,1.339-2.073,2.052a1.259,1.259,0,0,0,0,1.8,1.295,1.295,0,0,0,1.816,0l5.24-5.185a11.236,11.236,0,1,1,15.867,15.911h0Zm1.475-8.588a9.2,9.2,0,0,0-2.724-5.977,9.4,9.4,0,0,0-4.1-2.377,1.286,1.286,0,0,0-1.581.883,1.268,1.268,0,0,0,.893,1.563A6.821,6.821,0,0,1,278,63.939a6.687,6.687,0,0,1,1.977,4.339,1.277,1.277,0,0,0,1.28,1.191l0.08,0a1.274,1.274,0,0,0,1.2-1.345h0Z" transform="translate(-237 -55)"/>
</svg>
