<svg xmlns="http://www.w3.org/2000/svg" width="46" height="60" viewBox="0 0 46 60">
  <defs>
    <style>
      .cls-1 {
        fill: #fa5e31;
        fill-rule: evenodd;
      }
    </style>
  </defs>
  <path id="_5" data-name="5" class="cls-1" d="M312.638,167.924a1,1,0,0,0,1.306-.542l11.97-28.924a1.3,1.3,0,0,1,1.107-.458,2,2,0,0,1,1.482.913,4.293,4.293,0,0,1,.584,3.728l-5,13a1,1,0,1,0,1.868.718l5.026-13.077a6.33,6.33,0,0,0-.876-5.567A3.928,3.928,0,0,0,327.021,136a3.222,3.222,0,0,0-2.924,1.618l-12,29a1,1,0,0,0,.542,1.306h0Zm-1.789-3.939a1,1,0,0,0,1.156-.814l4-23a1.069,1.069,0,0,0,.015-0.159,0.919,0.919,0,0,1,1-1.012c0.886,0,1.057.329,1.4,1.734,0.044,0.178.088,0.355,0.135,0.529a1,1,0,1,0,1.93-.526c-0.043-.157-0.083-0.319-0.122-0.48-0.3-1.218-.8-3.257-3.344-3.257a2.908,2.908,0,0,0-3,2.9l-3.986,22.925a1,1,0,0,0,.814,1.156h0Zm39.057,7.167a4.581,4.581,0,0,0-.933-0.728c0.072-.055.144-0.114,0.216-0.178,1.913-1.706.681-3.853,0.171-4.742-1.88-3.3-9.612-10.5-12.338-10.5-3.476,0-12.7,4.289-16.708,8.293A5.785,5.785,0,0,0,319.021,167a1,1,0,0,0,1,1h0a1,1,0,0,0,1-1,3.927,3.927,0,0,1,.707-2.3C325.55,160.885,334.3,157,337.021,157c1.421,0.042,8.578,5.946,10.65,9.58,0.681,1.186.725,1.694,0.186,2.174-0.5.448-1.1,0.205-2.647-1.079-0.2-.163-0.389-0.321-0.572-0.464-0.369-.288-0.832-0.662-1.344-1.075-3.612-2.917-5.281-4.136-6.272-4.136-1.428,0-8,4.316-8,7,0,2.425,4.34,9,7,9,2.906,0,8.217-3.7,9.7-5.478a1.844,1.844,0,0,1,2.767.044c1.273,1.273-.089,2.915-0.194,3.041l-9.983,9.686c-2.013,2.013-3,6.33-3.234,8.707H319.572a101.76,101.76,0,0,1-11.582-25.245c-0.767-3.035-.97-16.866-0.97-23.755a1.169,1.169,0,0,1,1-1c1.108,0,1.154.138,1.455,1.033l0.1,0.3a1,1,0,1,0,1.886-.662l-0.092-.273c-0.359-1.067-.805-2.4-3.351-2.4a3.161,3.161,0,0,0-3,3c0,0.823.012,20.212,1.03,24.245a104.421,104.421,0,0,0,12.127,26.292,1,1,0,0,0,.844.463h17a1,1,0,0,0,1-1c0-1.969,1.028-6.614,2.7-8.282l10.024-9.729c0.977-1.1,2.268-3.733.164-5.837h0Zm-5.65.015c-1.416,1.69-6.2,4.833-8.234,4.833-1.215,0-5-5.3-5-7,0-1.116,4.672-4.6,5.992-4.984a37.569,37.569,0,0,1,5.023,3.675c0.522,0.422.994,0.8,1.371,1.1,0.169,0.131.345,0.277,0.527,0.427a12.668,12.668,0,0,0,1.507,1.119,4.465,4.465,0,0,0-1.186.832h0Z" transform="translate(-305.031 -136)"/>
</svg>
