<svg xmlns="http://www.w3.org/2000/svg" width="63.438" height="64" viewBox="0 0 63.438 64">
  <defs>
    <style>
      .cls-1 {
        fill: #fa5e31;
        fill-rule: evenodd;
      }
    </style>
  </defs>
  <path id="_5" data-name="5" class="cls-1" d="M366.924,254.713c0.017,0,.465,0,1.538,0-1.784,0-2.067,0-1.538,0-0.05,0,3.635.017,6.769,0.025h-5.729c-8.122-.092-6.343,8.929-10.908,8.124-4.234-.747-4.453-24.131-8.947-23.638-4.181.459-3.18,18.118-7.805,18.565-3.694.358-3.289-15.369-7.261-14.8-3.257.468-1.961,14.963-6.473,15.08-3.186.083-2.377-3.121-8.427-3.288,3.938,0.036-.136-0.007-0.136-0.007,0.049,0,.088.006,0.136,0.007l-0.921-.008-6.175-.016A31.822,31.822,0,0,1,342.592,226c15.959,0,29.159,13.04,31.374,28.729C371.6,254.722,367.893,254.716,366.924,254.713Zm7.044,0.026h0ZM317.1,257.215h0.771c6.271,0.059,6.341,12.554,8.7,12.788,3.37,0.334,3.036-11.766,6.36-12.292,4.871-.77,3.837,15.846,7.285,16.266,4.155,0.506,2.418-16.863,7.533-17.54,4.455-.59,4.276,21.1,9.308,21.374,5.15,0.283,4.386-20.026,10.56-20.581l0.525-.038,6.077,0c0.048,0.72.08,1.444,0.08,2.173,0,17.673-14.195,30.63-31.706,30.63a31.854,31.854,0,0,1-31.706-32c0-.268.013-0.532,0.02-0.8C314.985,257.207,320.365,257.215,317.1,257.215Zm0.821,0h0Zm0,0C322.653,257.219,323.246,257.259,317.922,257.215Zm49.766,0c-0.025,0-.047.009-0.072,0.012C361.431,257.675,367.688,257.218,367.688,257.218Z" transform="translate(-310.875 -226)"/>
</svg>
