<svg xmlns="http://www.w3.org/2000/svg" width="54" height="47" viewBox="0 0 54 47">
  <defs>
    <style>
      .cls-1 {
        fill: #fa5e31;
        fill-rule: evenodd;
      }
    </style>
  </defs>
  <path id="_5" data-name="5" class="cls-1" d="M360.214,52.991L321.273,63.873c-0.748.224-.825,0.756-0.172,1.182l8.55,5.576c0.654,0.426.6,1.014-.128,1.305L308.46,80.416c-0.725.291-.7,0.682,0.062,0.867l18.61,4.548c0.759,0.185.829,0.66,0.155,1.055l-19.947,11.6c-0.673.395-.262,1.675,0.5,1.488l44.7-10.429c0.758-.187.871-0.726,0.25-1.2L342.1,80.2a0.778,0.778,0,0,1,.164-1.446l17.482-7.922c0.711-.322.683-0.776-0.063-1.008l-13.423-4.182c-0.746-.232-0.834-0.79-0.195-1.239l14.6-10.354c0.639-.449.3-1.287-0.45-1.063h0Zm-7.592,4.2L341.3,65.153c-0.638.449-.55,1.007,0.195,1.239L353.713,70.2c0.746,0.232.774,0.686,0.063,1.008l-15.64,7.087a0.778,0.778,0,0,0-.164,1.446l9.99,7.608c0.621,0.473.509,1.013-.249,1.2l-31.447,7.744c-0.759.187-.828,0.016-0.155-0.379l16.777-9.844c0.673-.4.6-0.87-0.155-1.055l-17.284-4.224c-0.759-.185-0.787-0.576-0.062-0.867L334.1,72.385c0.725-.292.782-0.879,0.128-1.305l-8.127-5.3c-0.654-.426-0.577-0.958.172-1.182l26.145-7.814c0.748-.224.838-0.039,0.2,0.41h0Zm1.865,20.443c-2.462,0-4.409,1.29-4.962,3.285a1.546,1.546,0,0,0,.171,1.391,1.633,1.633,0,0,0,1.382.568h6.533a1.814,1.814,0,0,0,1.582-.69,1.654,1.654,0,0,0,.186-1.5,4.868,4.868,0,0,0-4.892-3.056h0Zm3.008,3.544h-5.908c-0.355,0-.269-0.211-0.215-0.31a3.422,3.422,0,0,1,3.115-1.533,3.368,3.368,0,0,1,3.145,1.588c0.041,0.08.112,0.255-.137,0.255h0Zm-44.12-7.974h6.532a1.813,1.813,0,0,0,1.582-.689,1.654,1.654,0,0,0,.187-1.5,4.869,4.869,0,0,0-4.892-3.056c-2.462,0-4.41,1.289-4.962,3.285a1.543,1.543,0,0,0,.171,1.392,1.633,1.633,0,0,0,1.382.568h0Zm0.341-2.093a3.975,3.975,0,0,1,6.125-.019c0.078,0.128.232,0.411-.111,0.411h-5.849c-0.355,0-.24-0.268-0.165-0.392h0Z" transform="translate(-307 -52.969)"/>
</svg>
