<svg xmlns="http://www.w3.org/2000/svg" width="52.062" height="53" viewBox="0 0 52.062 53">
  <defs>
    <style>
      .cls-1 {
        fill: #fa5e31;
        fill-rule: evenodd;
      }
    </style>
  </defs>
  <path id="_6" data-name="6" class="cls-1" d="M422.6,185.912l-9.237-5.494a0.865,0.865,0,0,0-.869-0.018,0.845,0.845,0,0,0-.443.75v1.374c-6.133-.146-10.622-3.205-14.484-9.835a0.458,0.458,0,0,0-.628-0.165,0.451,0.451,0,0,0-.166.623c4.046,6.941,8.775,10.146,15.3,10.293v2.289a19.456,19.456,0,0,1-16.313-9.615,19.047,19.047,0,0,1,0-19.23,19.5,19.5,0,0,1,16.294-9.615v4.578a0.867,0.867,0,0,0,.868.861,0.785,0.785,0,0,0,.444-0.128l9.237-5.494a0.845,0.845,0,0,0,0-1.466l-9.237-5.494a0.863,0.863,0,0,0-.868-0.018,0.844,0.844,0,0,0-.444.751v4.578a21.322,21.322,0,0,0-17.9,10.531,20.237,20.237,0,0,0-1.922,4.4,20.571,20.571,0,0,0-1.921-4.4,21.322,21.322,0,0,0-18.4-10.531,0.916,0.916,0,1,0,0,1.832,19.467,19.467,0,0,1,16.793,9.615,19.047,19.047,0,0,1,0,19.23,19.467,19.467,0,0,1-16.793,9.615,0.916,0.916,0,1,0,0,1.831,21.324,21.324,0,0,0,18.4-10.53,20.207,20.207,0,0,0,1.921-4.4,20.647,20.647,0,0,0,1.922,4.4,21.361,21.361,0,0,0,17.9,10.53v4.579a0.867,0.867,0,0,0,.868.861,0.785,0.785,0,0,0,.444-0.128l9.237-5.5a0.844,0.844,0,0,0,0-1.465h0Zm-8.812-43.552,6.687,3.993-6.706,3.992V142.36h0.019Zm0,48.277v-7.966l6.706,3.992-6.706,3.974h0ZM386.5,160.272a0.468,0.468,0,0,0,.425.275,0.668,0.668,0,0,0,.185-0.037,0.462,0.462,0,0,0,.24-0.6c-2.346-5.147-8.4-10.348-15.444-10.348a0.458,0.458,0,1,0,0,.916c6.651,0,12.377,4.926,14.594,9.8h0Z" transform="translate(-370.969 -140)"/>
</svg>
