<svg xmlns="http://www.w3.org/2000/svg" width="30" height="41" viewBox="0 0 30 41">
  <defs>
    <style>
      .cls-1 {
        fill: #fa5e31;
        fill-rule: evenodd;
      }
    </style>
  </defs>
  <path id="_6" data-name="6" class="cls-1" d="M401.866,249.6h0.044a0.65,0.65,0,0,0,.65-0.6l0-.087a0.652,0.652,0,0,0-1.3-.086l0,0.087a0.65,0.65,0,0,0,.607.689h0ZM408,257.716a5.855,5.855,0,0,1-5.868-5.827,0.652,0.652,0,0,0-1.3,0A7.154,7.154,0,0,0,408,259.01a0.647,0.647,0,1,0,0-1.294h0ZM408,237a14.882,14.882,0,0,0-3.694,29.322v8.01a3.694,3.694,0,0,0,7.388,0v-8.01a15.069,15.069,0,0,0,7.926-5.022A14.868,14.868,0,0,0,408,237h0Zm2.9,28.177a0.649,0.649,0,0,0-.515.632v8.523a2.391,2.391,0,0,1-4.781,0v-8.523a0.648,0.648,0,0,0-.514-0.632,13.691,13.691,0,1,1,5.81,0h0ZM408,241.316a10.574,10.574,0,1,0,10.649,10.573A10.623,10.623,0,0,0,408,241.316h0Zm0,19.852a9.279,9.279,0,1,1,9.345-9.279A9.322,9.322,0,0,1,408,261.168h0Z" transform="translate(-393 -237)"/>
</svg>
