<svg xmlns="http://www.w3.org/2000/svg" width="45.062" height="58" viewBox="0 0 45.062 58">
  <defs>
    <style>
      .cls-1 {
        fill: #fa5e31;
        fill-rule: evenodd;
      }
    </style>
  </defs>
  <path id="_6" data-name="6" class="cls-1" d="M399.6,60.619a12.788,12.788,0,1,0,12.8,12.788,12.805,12.805,0,0,0-12.8-12.788h0Zm0,23.265a10.477,10.477,0,1,1,10.483-10.477A10.491,10.491,0,0,1,399.6,83.884h0ZM421.953,47h-9.214a4.063,4.063,0,0,0-.563,8.088L409.563,57.7a18.6,18.6,0,0,0-24.116,27.784,18.67,18.67,0,0,0,10.1,6.083V92.6h-0.9a4.063,4.063,0,1,0,0,8.127h0.9v0.212a4.066,4.066,0,0,0,8.132,0v-0.212h0.9a4.063,4.063,0,1,0,0-8.127h-0.9V91.558a18.636,18.636,0,0,0,14.529-18.15,18.443,18.443,0,0,0-2.9-9.961l2.613-2.612a4.066,4.066,0,0,0,8.093-.562V51.064A4.069,4.069,0,0,0,421.953,47h0Zm1.754,13.272a1.754,1.754,0,0,1-3.507,0V58.084a1.157,1.157,0,0,0-1.974-.817L413,62.486a1.156,1.156,0,0,0-.124,1.487,16.28,16.28,0,0,1-10.548,25.5,1.156,1.156,0,0,0-.962,1.139v3.145a1.155,1.155,0,0,0,1.156,1.155h2.057a1.753,1.753,0,1,1,0,3.505h-2.057a1.155,1.155,0,0,0-1.156,1.155v1.367a1.754,1.754,0,0,1-3.508,0V99.569a1.155,1.155,0,0,0-1.156-1.155h-2.057a1.753,1.753,0,1,1,0-3.505h2.057a1.156,1.156,0,0,0,1.157-1.155V90.615a1.156,1.156,0,0,0-.966-1.14A16.293,16.293,0,1,1,409.036,60.13a1.156,1.156,0,0,0,1.488-.124l5.222-5.218a1.156,1.156,0,0,0-.818-1.972h-2.189a1.753,1.753,0,1,1,0-3.505h9.214a1.755,1.755,0,0,1,1.754,1.753v9.209h0Zm-1.123-9.583a1.156,1.156,0,1,0,.338.817,1.168,1.168,0,0,0-.338-0.817h0Zm-0.818,2.781a1.156,1.156,0,0,0-1.156,1.155V55.86a1.156,1.156,0,0,0,2.312,0V54.625a1.155,1.155,0,0,0-1.156-1.155h0Z" transform="translate(-380.969 -47)"/>
</svg>
