<svg xmlns="http://www.w3.org/2000/svg" width="50" height="60" viewBox="0 0 50 60">
  <defs>
    <style>
      .cls-1 {
        fill: #fa5e31;
        fill-rule: evenodd;
      }
    </style>
  </defs>
  <path id="_7" data-name="7" class="cls-1" d="M494,142.5h-0.06c-0.615-3.277-7.212-6.5-17.925-6.5s-17.311,3.223-17.926,6.5h-0.061c0,0.1.021,0.187,0.027,0.281-0.006.073-.026,0.146-0.026,0.219v8.435l-2.744-2.747c-0.018-.018-0.042-0.033-0.062-0.05s-0.036-.046-0.057-0.067l-0.012.012c-1.264-1.01-5.112-1.006-7.825,1.71-2.664,2.666-4.012,7.678-2.978,9.1l-0.019.019c0.024,0.024.054,0.04,0.079,0.064s0.024,0.039.039,0.054l13.578,13.588V189.5c0,4.009,6.891,6.5,17.986,6.5S494,193.509,494,189.5V143c0-.073-0.02-0.146-0.027-0.219,0.007-.094.028-0.185,0.028-0.281h0ZM476.013,138c10.773,0,15.575,3.286,15.95,4.81-0.376,2.557-5.394,5.19-15.95,5.19s-15.575-2.633-15.951-5.19c0.375-1.524,5.177-4.81,15.951-4.81h0Zm-27.272,13.707a5.4,5.4,0,0,1,5.065-1.633,2.277,2.277,0,0,1,0,2.066,10.493,10.493,0,0,1-2.482,3.706c-2.2,2.2-4.373,2.86-5.345,2.3a10.6,10.6,0,0,1,2.761-6.443h0ZM487,192.853V188a1,1,0,1,0-2,0v5a0.978,0.978,0,0,0,.059.291,39.884,39.884,0,0,1-4.055.515V185a1,1,0,1,0-2,0v8.929q-0.957.042-2,.057V192a1,1,0,1,0-2,0v1.986c-1.056-.015-2.067-0.045-3-0.1V187a1,1,0,1,0-2,0v6.721a31.864,31.864,0,0,1-5-.868V180a1,1,0,1,0-2,0v12.193c-2.091-.855-3-1.865-3-2.693V172.705a1,1,0,0,0-.293-0.707l-11.778-11.787a10.531,10.531,0,0,0,4.783-2.951,12.34,12.34,0,0,0,2.956-4.461c0.08-.229.145-0.453,0.2-0.673l2.428,2.43a1,1,0,0,0,1.706-.707v-7.514a11.379,11.379,0,0,0,3,1.711V156a1,1,0,1,0,2,0v-7.28a28.337,28.337,0,0,0,3,.668V163a1,1,0,1,0,2,0V149.676a52.413,52.413,0,0,0,6,.324c0.342,0,.667-0.011,1-0.016V153a1,1,0,1,0,2,0v-3.083a43.206,43.206,0,0,0,5-.528V164a1,1,0,1,0,2,0V149c0-.006,0-0.012,0-0.018,0.706-.17,1.382-0.354,2-0.563V156a1,1,0,1,0,2,0V147.6a10.2,10.2,0,0,0,2-1.26V189.5c0,1.055-1.464,2.406-5,3.353h0Z" transform="translate(-444 -136)"/>
</svg>
