<svg xmlns="http://www.w3.org/2000/svg" width="40" height="37" viewBox="0 0 40 37">
  <defs>
    <style>
      .cls-1 {
        fill: #fa5e31;
        fill-rule: evenodd;
      }
    </style>
  </defs>
  <path id="_7" data-name="7" class="cls-1" d="M483,266.241v-17.5h-6.1a0.673,0.673,0,1,0,0,1.346h4.746V264.9H450.458V250.086H455.2a0.673,0.673,0,1,0,0-1.346h-4.745v-5.386a0.675,0.675,0,0,0-.678-0.673h-1.453a2.693,2.693,0,1,0,0,1.347H449.1V270.28a0.675,0.675,0,0,0,.678.673h4.766a3.347,3.347,0,0,0-1.376,2.693,3.39,3.39,0,0,0,6.779,0,3.345,3.345,0,0,0-1.377-2.693h12.246a3.345,3.345,0,0,0-1.377,2.693,3.39,3.39,0,0,0,6.779,0,3.345,3.345,0,0,0-1.377-2.693h4.089a0.673,0.673,0,1,0,0-1.346H450.458v-3.366H483ZM445.712,244.7a1.347,1.347,0,1,1,1.167-2.02H446.39a0.674,0.674,0,1,0,0,1.347h0.489a1.354,1.354,0,0,1-1.167.673h0Zm10.847,30.964a2.02,2.02,0,1,1,2.034-2.02,2.03,2.03,0,0,1-2.034,2.02h0Zm16.271,0a2.02,2.02,0,1,1,2.034-2.02,2.029,2.029,0,0,1-2.034,2.02h0Zm-6.779-16.828a9.424,9.424,0,1,0-9.492-9.424,9.468,9.468,0,0,0,9.492,9.424h0Zm0-17.5a8.078,8.078,0,1,1-8.136,8.078,8.116,8.116,0,0,1,8.136-8.078h0ZM464.938,253.3a0.7,0.7,0,0,0,.143.081,0.6,0.6,0,0,0,.06.033,0.682,0.682,0,0,0,.231.041h0a0.679,0.679,0,0,0,.277-0.059,0.708,0.708,0,0,0,.09-0.065,0.66,0.66,0,0,0,.14-0.1l0.013-.015h0a0,0,0,0,0,0,0l5.408-6.041a0.67,0.67,0,0,0-.057-0.95,0.68,0.68,0,0,0-.956.056l-4.987,5.571-3.564-2.948a0.682,0.682,0,0,0-.955.086,0.669,0.669,0,0,0,.087.948l4.068,3.366h0Z" transform="translate(-443 -240)"/>
</svg>
