<svg xmlns="http://www.w3.org/2000/svg" width="56.031" height="53.938" viewBox="0 0 56.031 53.938">
  <defs>
    <style>
      .cls-1 {
        fill: #fa5e31;
        fill-rule: evenodd;
      }
    </style>
  </defs>
  <path id="_7" data-name="7" class="cls-1" d="M446.491,49.519a1.656,1.656,0,0,1,2.043-.256l9.315,5.522a1,1,0,0,1,.443.556l0.342,1.081a1.289,1.289,0,0,0,.331.534l19.424,18.691a1.253,1.253,0,0,0,.934-0.308,0.986,0.986,0,0,0,.359-1.118c-0.026-.042-1.24-2.027-1.268-2.076a11.629,11.629,0,0,1-1.556-6.873c0.325-3.79,1.449-8.8,4.963-11.171a8.7,8.7,0,0,1,6.808-1.072,11.6,11.6,0,0,1,4.99.5,10.323,10.323,0,0,1,6.288,5.215c4.348,8.1.709,22.159-.145,25.157a8.156,8.156,0,0,1-.412,11.151l-5.565,5.527a8.276,8.276,0,0,1-12.926-1.6,15.036,15.036,0,0,1-2.409-5.7,4.443,4.443,0,0,0-2.706-3.119,16.57,16.57,0,0,1-4.721-2.651,3.585,3.585,0,0,1-1.225-2.829,2.567,2.567,0,0,1,1.187-2.135,2.062,2.062,0,0,1,1.98-.043c0.106,0.053.2,0.1,0.269,0.128,1.44,0.652,2.415.738,2.9,0.257,0.644-.639-0.184-1.778-0.317-1.953l-21.16-21.514a1.526,1.526,0,0,0-2.146,0,1.006,1.006,0,0,1-1.565-.187l-4.7-7.681a1.629,1.629,0,0,1,.242-2.032h0Zm11.373,9.15-0.569.565,21.9,22.286,1.189-1.181L457.864,58.669h0Zm20.991,6.771a9.591,9.591,0,0,0,.363,3.551,2.607,2.607,0,0,1,1.12-.524c-0.03-2.739.282-9.834,4.085-13.413a5.453,5.453,0,0,0-1.477.7c-1.579,1.063-3.57,3.608-4.091,9.692h0Zm15.93,15.636a52.681,52.681,0,0,0,1.579-13.609c-0.269-6.782-2.6-10.882-6.926-12.184-0.282-.085-0.558-0.157-0.828-0.22a5.562,5.562,0,0,0-2.412,1.092c-3.795,2.993-3.9,10.57-3.844,12.71,2.195,1.158,3.86,3.392,5.077,6.808a7.259,7.259,0,0,0,4.533,4.441l2.821,0.961h0Zm3.353-21.394a8.351,8.351,0,0,0-3.766-3.726,11.36,11.36,0,0,1,2.079,2.91,20.74,20.74,0,0,1,1.916,8.523,54.937,54.937,0,0,1-1.67,14.3,13.591,13.591,0,0,1,1.384.735c1.068-4.109,3.67-16.014.057-22.746h0ZM477.551,84.293c-1.136,1.129-2.869,1.179-5.139.151-0.084-.037-0.2-0.093-0.337-0.16-0.044-.021-0.071-0.026-0.068-0.028a0.669,0.669,0,0,0-.207.517,1.636,1.636,0,0,0,.64,1.326,14.906,14.906,0,0,0,4.046,2.209,6.437,6.437,0,0,1,3.917,4.523,13.3,13.3,0,0,0,2.068,4.965,1.025,1.025,0,0,1,.086.123,6.171,6.171,0,0,0,.974,1.253,6.286,6.286,0,0,0,8.837,0l5.487-5.451a6.33,6.33,0,0,0,1.907-4.454,6.143,6.143,0,0,0-1.83-4.4,6.24,6.24,0,0,0-1.688-1.194l-0.011-.006c-0.45-.214-1.937-0.652-1.937-0.652L491.313,82a9.25,9.25,0,0,1-5.772-5.66c-1.071-3.006-2.473-4.905-4.278-5.792l-0.076-.036a0.857,0.857,0,0,0-.483-0.075,0.479,0.479,0,0,0-.1.025,0.55,0.55,0,0,0-.282.256c-0.008.013-.019,0.032-0.03,0.054a0.691,0.691,0,0,0,.039.674l0.059,0.092a8.71,8.71,0,0,1,1.087,1.79,2.746,2.746,0,0,1,.264,1.1,3.079,3.079,0,0,1-1,2.321,2.959,2.959,0,0,1-.683.505l2.437,2.345a1.037,1.037,0,0,1,.242.341,0.994,0.994,0,0,1-.214,1.094L479.9,83.641a1.006,1.006,0,0,1-.709.292h-0.006a0.992,0.992,0,0,1-.707-0.3l-0.284-.289a2.807,2.807,0,0,1-.638.946h0ZM452.113,57.305a3.549,3.549,0,0,1,3.763.523L456.714,57l-0.22-.695-7.836-4.645,3.455,5.65h0Zm38.511,31.217a1.007,1.007,0,0,1,1.417,0,0.992,0.992,0,0,1,0,1.408L488.852,93.1a1,1,0,0,1-1.417-1.408l3.189-3.168h0Zm-3.517-2.748a1.006,1.006,0,0,1,1.417,0,0.99,0.99,0,0,1,0,1.408L486.086,89.6a1.008,1.008,0,0,1-1.418,0,0.992,0.992,0,0,1,0-1.408l2.439-2.422h0ZM483.309,82a1.007,1.007,0,0,1,1.417,0,0.99,0.99,0,0,1,0,1.408l-2.438,2.422a1.007,1.007,0,0,1-1.417,0,0.99,0.99,0,0,1,0-1.408L483.309,82h0Z" transform="translate(-445.969 -49.031)"/>
</svg>
