<svg xmlns="http://www.w3.org/2000/svg" width="96" height="47" viewBox="0 0 96 47">
  <defs>
    <style>
      .cls-1 {
        fill: #fa7124;
        fill-rule: evenodd;
      }
    </style>
  </defs>
  <path id="Forma_1" data-name="Forma 1" class="cls-1" d="M561.692,94H468.308A1.3,1.3,0,0,0,467,95.3v44.4a1.3,1.3,0,0,0,1.308,1.3h93.384A1.3,1.3,0,0,0,563,139.7V95.3A1.3,1.3,0,0,0,561.692,94ZM560.385,96.6v36.018h-1.974v-19.94a1.3,1.3,0,0,0-1.307-1.3H472.9a1.3,1.3,0,0,0-1.307,1.3v19.94h-1.974V96.6h90.77Zm-16.84,36.018V113.971h3.221v10.286a1.3,1.3,0,0,0,1.308,1.3h0.638v7.059h-5.167Zm-7.782,0v-7.059H536.4a1.3,1.3,0,0,0,1.307-1.3V113.971h3.222v18.642h-5.167Zm-7.782,0v-7.059h0.638a1.3,1.3,0,0,0,1.307-1.3V113.971H531.2v10.286a1.3,1.3,0,0,0,1.308,1.3h0.638v7.059h-5.167Zm-7.782,0v-7.059h0.638a1.3,1.3,0,0,0,1.307-1.3V113.971h1.276v10.286a1.3,1.3,0,0,0,1.308,1.3h0.638v7.059H520.2Zm-7.782,0V113.971h3.221v10.286a1.3,1.3,0,0,0,1.307,1.3h0.639v7.059h-5.167Zm-7.783,0v-7.059h0.638a1.3,1.3,0,0,0,1.308-1.3V113.971H509.8v18.642h-5.167Zm-7.782,0v-7.059h0.638a1.3,1.3,0,0,0,1.308-1.3V113.971h1.276v10.286a1.3,1.3,0,0,0,1.307,1.3h0.638v7.059h-5.167Zm-7.782,0V113.971h3.222v10.286a1.3,1.3,0,0,0,1.307,1.3h0.638v7.059H489.07Zm-7.782,0v-7.059h0.638a1.3,1.3,0,0,0,1.308-1.3V113.971h3.221v18.642h-5.167Zm-7.084,0V113.971h2.524v10.286a1.3,1.3,0,0,0,1.307,1.3h0.638v7.059H474.2Zm-4.589,5.792v-3.2h82.35a1.3,1.3,0,1,0,0-2.595h-0.638v-7.059h0.638a1.3,1.3,0,0,0,1.307-1.3V113.971H555.8V132.7a1.3,1.3,0,0,0,.454,2.513h4.135v3.2h-90.77Zm36.913-31a1.3,1.3,0,1,1,0,2.595h-1.695a1.3,1.3,0,1,1,0-2.595h1.695Zm19.947,1.3a1.3,1.3,0,0,1-1.308,1.3H513.306a1.3,1.3,0,1,1,0-2.595h11.861A1.3,1.3,0,0,1,526.475,108.7Zm-53.638-.485v0.594a1.3,1.3,0,0,0,1.307,1.3H497.49a1.3,1.3,0,0,0,1.308-1.3V99.159a1.3,1.3,0,0,0-1.308-1.3H474.144a1.3,1.3,0,0,0-1.307,1.3v9.059Zm14.568-7.761-7.113,7.058h-3.6l7.112-7.058h3.6Zm7.3,0-7.113,7.058h-3.6l7.112-7.058h3.6Zm-3.415,7.058,4.9-4.86v4.86h-4.9Zm-11.177-7.058-4.656,4.62v-4.62h4.656ZM531.2,108.22v0.592a1.3,1.3,0,0,0,1.308,1.3h23.346a1.3,1.3,0,0,0,1.307-1.3V99.159a1.3,1.3,0,0,0-1.307-1.3H532.51a1.3,1.3,0,0,0-1.308,1.3v9.061Zm14.568-7.763-7.112,7.058h-3.6l7.113-7.058h3.6Zm7.3,0-7.112,7.058h-3.6l7.113-7.058h3.6Zm-3.414,7.058,4.9-4.86v4.86h-4.9Zm-11.177-7.058-4.657,4.62v-4.62h4.657Zm-35.147,5.218a3.379,3.379,0,1,0-3.4-3.379A3.4,3.4,0,0,0,503.327,105.675Zm0-4.163a0.784,0.784,0,1,1-.79.784A0.787,0.787,0,0,1,503.327,101.512Zm7.782,4.163a3.379,3.379,0,1,0-3.4-3.379A3.4,3.4,0,0,0,511.109,105.675Zm0-4.163a0.784,0.784,0,1,1-.79.784A0.787,0.787,0,0,1,511.109,101.512Zm7.782,4.163a3.379,3.379,0,1,0-3.4-3.379A3.4,3.4,0,0,0,518.891,105.675Zm0-4.163a0.784,0.784,0,1,1-.79.784A0.787,0.787,0,0,1,518.891,101.512Zm7.782,4.163a3.379,3.379,0,1,0-3.4-3.379A3.4,3.4,0,0,0,526.673,105.675Zm0-4.163a0.784,0.784,0,1,1-.79.784A0.787,0.787,0,0,1,526.673,101.512Z" transform="translate(-467 -94)"/>
</svg>
