<svg xmlns="http://www.w3.org/2000/svg" width="67" height="67" viewBox="0 0 67 67">
  <defs>
    <style>
      .cls-1 {
        fill: #fa7124;
        fill-rule: evenodd;
      }
    </style>
  </defs>
  <path id="Forma_1" data-name="Forma 1" class="cls-1" d="M643.06,263H591.938a1.915,1.915,0,0,1-1.914-1.915V235.807a1.931,1.931,0,0,1,.6-1.4,1.952,1.952,0,0,1,1.427-.515h0.026a4.43,4.43,0,0,0,4.554-4.395,1.914,1.914,0,1,1,3.828,0,4.405,4.405,0,1,0,8.81,0,1.914,1.914,0,1,1,3.828,0,4.4,4.4,0,1,0,8.806,0,1.914,1.914,0,1,1,3.828,0,4.406,4.406,0,1,0,8.811,0,1.914,1.914,0,1,1,3.827,0,4.408,4.408,0,0,0,4.406,4.406,2.146,2.146,0,0,1,1.513.51,1.99,1.99,0,0,1,.687,1.39v25.278A1.918,1.918,0,0,1,643.06,263Zm-49.21-3.831h47.3V237.578a8.226,8.226,0,0,1-4.7-2.8,8.218,8.218,0,0,1-12.638,0,8.214,8.214,0,0,1-12.634,0,8.219,8.219,0,0,1-12.639,0,8.228,8.228,0,0,1-4.7,2.8v21.591h0.007Zm48.921-21.431a8.219,8.219,0,0,1-6.319-2.964,8.218,8.218,0,0,1-12.638,0,8.214,8.214,0,0,1-12.634,0,8.219,8.219,0,0,1-12.639,0,8.215,8.215,0,0,1-6.319,2.964c-0.044,0-.3-0.011-0.345-0.015a8.224,8.224,0,0,1-7.223-11.431l6.275-28.784A1.915,1.915,0,0,1,592.8,196h49.4a1.916,1.916,0,0,1,1.87,1.506l6.273,28.784a8.223,8.223,0,0,1-7.2,11.428C643.005,237.729,642.887,237.738,642.771,237.738Zm-48.432-37.907L588.351,227.3a2.1,2.1,0,0,1-.129.385,4.4,4.4,0,0,0,3.8,6.214l0.149,1.929,0.065-1.914a4.41,4.41,0,0,0,4.395-4.408,1.914,1.914,0,1,1,3.827,0,4.406,4.406,0,1,0,8.811,0,1.914,1.914,0,1,1,3.828,0,4.4,4.4,0,1,0,8.806,0,1.914,1.914,0,1,1,3.828,0,4.405,4.405,0,1,0,8.81,0,1.914,1.914,0,1,1,3.828,0,4.408,4.408,0,0,0,4.4,4.406v0.068l0.289,1.832-0.085-1.913a4.393,4.393,0,0,0,3.8-6.216,2.059,2.059,0,0,1-.13-0.383l-5.988-27.464H594.339Zm4.209,31.583a1.793,1.793,0,0,1-.193-0.009,1.917,1.917,0,0,1-1.712-2.1l3.171-31.585a1.937,1.937,0,0,1,2.1-1.712,1.916,1.916,0,0,1,1.71,2.1l-3.171,31.584A1.914,1.914,0,0,1,598.548,231.414Zm12.636,0h-0.046a1.915,1.915,0,0,1-1.866-1.961l0.768-31.586a1.914,1.914,0,1,1,3.826.094L613.1,229.545A1.918,1.918,0,0,1,611.184,231.414Zm25.266,0a1.913,1.913,0,0,1-1.9-1.722l-3.174-31.584a1.913,1.913,0,1,1,3.806-.385l3.174,31.585a1.917,1.917,0,0,1-1.713,2.1A1.728,1.728,0,0,1,636.45,231.414Zm-12.634,0a1.914,1.914,0,0,1-1.912-1.869l-0.765-31.581A1.909,1.909,0,0,1,623,196l0.046,0a1.914,1.914,0,0,1,1.912,1.869l0.768,31.586a1.911,1.911,0,0,1-1.866,1.961A0.4,0.4,0,0,0,623.816,231.414ZM633.886,263H620.878a1.916,1.916,0,0,1-1.914-1.915V243.219a1.917,1.917,0,0,1,1.914-1.915h13.006a1.916,1.916,0,0,1,1.914,1.915v17.866A1.912,1.912,0,0,1,633.886,263Zm-11.094-3.831h9.178V245.134h-9.178v14.035Zm-8.8-2.55H598.546a1.915,1.915,0,0,1-1.914-1.915V243.219a1.916,1.916,0,0,1,1.914-1.915h15.447a1.918,1.918,0,0,1,1.914,1.915V254.7A1.914,1.914,0,0,1,614,256.619Zm-13.535-3.83h11.619v-7.655H600.46v7.655Z" transform="translate(-584 -196)"/>
</svg>
