<svg xmlns="http://www.w3.org/2000/svg" width="55.938" height="56" viewBox="0 0 55.938 56">
  <defs>
    <style>
      .cls-1 {
        fill: #fa7124;
        fill-rule: evenodd;
      }
    </style>
  </defs>
  <path id="Forma_1" data-name="Forma 1" class="cls-1" d="M196.949,97l-11.025-11.01H172.033l-5.475,5.462c-13.612-1.137-24.588,6.528-24.741,6.639a0.992,0.992,0,1,0,1.152,1.614c0.138-.1,9.634-6.728,21.705-6.373l-17.733,17.693,0.008,0.008-5.959,5.949,24.943,25.023,9.959-9.942a14.71,14.71,0,0,0,6.779,1.6,12.882,12.882,0,0,0,9.028-3.28,15.206,15.206,0,0,0,3.415-17.508l1.834-1.832V97h0Zm-11.844-9.025,9.86,9.849v12.392l-19.38,19.336c-4.051-2.908-5.284-8.363-3.465-15.516a0.992,0.992,0,1,0-1.922-.49c-2.568,10.095.883,15.073,3.967,17.422l-2.275,2.27-22.135-22.2,17.537-17.509a30.337,30.337,0,0,1,12.941,4.634,3.833,3.833,0,0,0-.067.673,3.955,3.955,0,1,0,.914-2.481,32.292,32.292,0,0,0-12.02-4.589l3.792-3.787h12.253Zm-2.638,11.716a0.992,0.992,0,1,0,1.189-1.588c-0.306-.229-0.614-0.432-0.92-0.647a1.919,1.919,0,1,1-.438,2.117C182.355,99.616,182.411,99.651,182.467,99.694ZM143.8,116.987l4.554-4.547,22.142,22.211-4.555,4.548Zm46.5,11.991c-2.555,2.555-8.3,3.721-12.925,1.609l16.243-16.216C194.6,116.829,196.2,123.069,190.3,128.978Z" transform="translate(-141 -86)"/>
</svg>
