<svg xmlns="http://www.w3.org/2000/svg" width="49" height="59" viewBox="0 0 49 59">
  <defs>
    <style>
      .cls-1 {
        fill: #fa7124;
        fill-rule: evenodd;
      }
    </style>
  </defs>
  <path id="Forma_1" data-name="Forma 1" class="cls-1" d="M713.753,232.511a0.987,0.987,0,0,0-1.88-.022l-8.768,26.521a0.981,0.981,0,0,0,.551,1.212,22.733,22.733,0,0,0,17.627,0,0.98,0.98,0,0,0,.558-1.19Zm-8.484,26.236,7.5-22.7,6.919,22.688A20.771,20.771,0,0,1,705.269,258.747Zm-1.247-20.483a6.266,6.266,0,0,0-.854,8.91,0.985,0.985,0,0,0,1.511-1.263,4.3,4.3,0,0,1,.587-6.121,6.265,6.265,0,0,0,.834-8.934c5.5-1.126,9.708-6.9,9.708-13.827,0-7.736-5.237-14.029-11.673-14.029-4.3,0-8.269,2.878-10.287,7.394-0.267-.022-0.537-0.035-0.809-0.035-6.436,0-11.673,6.293-11.673,14.029,0,7.548,4.987,13.721,11.208,14.016l0.917,1.071a4.306,4.306,0,0,1-.564,6.149,6.265,6.265,0,0,0-.855,8.91l3.368,4a0.985,0.985,0,0,0,1.511-1.263l-3.368-4a4.306,4.306,0,0,1,.587-6.121,6.266,6.266,0,0,0,.835-8.934,12.082,12.082,0,0,0,8.318-7.194c0.115,0.01.231,0.016,0.346,0.022l0.917,1.071A4.3,4.3,0,0,1,704.022,238.264Zm0.113-33.3c5.349,0,9.7,5.411,9.7,12.063s-4.352,12.061-9.7,12.061l-0.1,0a16.529,16.529,0,0,0,.675-4.7c0-6.573-3.781-12.1-8.866-13.618C697.6,207.21,700.752,204.966,704.135,204.966Zm-11.1,31.484c-5.349,0-9.7-5.411-9.7-12.062s4.351-12.063,9.7-12.063,9.7,5.411,9.7,12.063S698.388,236.45,693.039,236.45Zm19.1,10.6a0.986,0.986,0,1,0-.406,1.22,1,1,0,0,0,.406-1.22C712.109,246.986,712.159,247.105,712.134,247.045Zm1.6,5.469a0.985,0.985,0,1,0,.412-1.223,0.994,0.994,0,0,0-.412,1.223h0Zm-3.176,4.228a0.985,0.985,0,1,0-.362,1.194,1,1,0,0,0,.362-1.194C710.531,256.683,710.581,256.8,710.556,256.742Zm-33.875-49.33a0.985,0.985,0,0,0-1.4,1.39l1.25,1.245a0.984,0.984,0,1,0,1.394-1.39Zm43.384,5.478a0.986,0.986,0,0,0,.7-0.288l1.249-1.245a0.985,0.985,0,1,0-1.395-1.39l-1.249,1.245A0.983,0.983,0,0,0,720.065,212.89ZM707.2,223.3a0.989,0.989,0,0,0,1.351-.345l0.9-1.515a0.985,0.985,0,0,0-1.7-1l-0.9,1.515A0.981,0.981,0,0,0,707.2,223.3Zm-20.609,24.6-1.249,1.245a0.984,0.984,0,0,0,1.394,1.389l1.25-1.244A0.985,0.985,0,1,0,686.589,247.9Zm-10.05-14.887a0.984,0.984,0,0,0-.986.983v1.76a0.986,0.986,0,0,0,1.972,0v-1.76A0.985,0.985,0,0,0,676.539,233.01Zm46.475-4.169h-1.767a0.983,0.983,0,1,0,0,1.966h1.767A0.983,0.983,0,1,0,723.014,228.841Zm-31.08-13.689h-1.767a0.983,0.983,0,1,0,0,1.965h1.767A0.983,0.983,0,1,0,691.934,215.152Z" transform="translate(-675 -203)"/>
</svg>
