<svg xmlns="http://www.w3.org/2000/svg" width="117" height="68" viewBox="0 0 117 68">
  <defs>
    <style>
      .cls-1 {
        fill: #fa7124;
        fill-rule: evenodd;
      }
    </style>
  </defs>
  <path id="my_vector_mask_shape" class="cls-1" d="M106,183h18.281v3.627H109.656V204.08H219.344V193.427H198.777V189.8h20.567v-3.173H128.623V183H223v68H106V183Zm78.381,6.8h10.055v3.627H184.381V189.8Zm-74.725,17.907v39.666h8.227V225.387h-3.656v-17.68h-4.571Zm8.227,0V221.76h3.428V207.707h-3.428Zm7.084,0v17.68h-3.428v21.986h11.2V225.387H129.08v-17.68h-4.113Zm8,0V221.76h3.428V207.707h-3.428Zm7.084,0v17.68h-3.656v21.986h11.2V225.387h-3.428v-17.68h-4.113Zm7.769,0V221.76h3.428V207.707h-3.428Zm7.084,0v17.68h-3.427v21.986h11.2V225.387h-3.656v-17.68H154.9Zm8,0V221.76h3.2V207.707h-3.2Zm7.084,0v17.68h-3.656v21.986h11.2V225.387H174.1v-17.68h-4.114Zm7.77,0V221.76h3.428V207.707h-3.428Zm7.084,0v17.68H181.41v21.986h11.2V225.387h-3.656v-17.68h-4.113Zm7.769,0V221.76h3.428V207.707h-3.428Zm7.313,0v17.68h-3.656v21.986h11.2V225.387h-3.428v-17.68H199.92Zm7.769,0V221.76h3.428V207.707h-3.428Zm7.084,0v17.68h-3.656v21.986h8.227V207.707h-4.571Z" transform="translate(-106 -183)"/>
</svg>
