<svg xmlns="http://www.w3.org/2000/svg" width="54" height="74" viewBox="0 0 54 74">
  <defs>
    <style>
      .cls-1 {
        fill: #fa7124;
        fill-rule: evenodd;
      }
    </style>
  </defs>
  <path id="my_vector_mask_shape" class="cls-1" d="M432.069,186h3.277c0.332,0.178.812,0.085,1.183,0.242,0.679,0.286,1.383.418,2.063,0.725,2.889,1.306,4.714,3.838,5.976,6.8,0.14,0.328-.017.577,0.121,0.906,0.568,1.348.364,3.615,0.364,5.47v12.149q0.015,4.624.031,9.248a5.428,5.428,0,0,1,2.669,1.209,6.708,6.708,0,0,1,2.639,2.931c0.268,0.59.307,1.349,0.607,1.9v13.841c0,1.22.061,2.2-.849,2.509,0.011,1.273.255,3.3-.243,4.17-0.474.826-1.8,0.756-3.125,0.756h-6.34a7.313,7.313,0,0,1-3.246-.363c-1.175-.673-0.285-3.089-0.667-4.593-0.826-.1-0.819-1.212-0.819-2.176v-12a9.886,9.886,0,0,1,.242-3.083,8.022,8.022,0,0,1,5.7-5.137V196.184c-0.05-.118-0.193-0.546-0.243-0.664V195.1a20.6,20.6,0,0,0-.971-2.176l-0.364-.3a7.872,7.872,0,0,0-3.913-2.991H435.74c-0.1-.04-0.451-0.2-0.546-0.242h-0.789a3.621,3.621,0,0,0-2.245.121h-0.546a20.715,20.715,0,0,0-2.184.967c-0.232.131-.446,0.476-0.667,0.6a5.637,5.637,0,0,0-1.669,1.6c-0.332.573-.7,1.226-0.97,1.813-0.18.4-.208,0.955-0.365,1.33v0.906a10.526,10.526,0,0,0-.121,3.113v46.39c0,2.3.084,4.606-.607,6.165-0.112.252-.007,0.413-0.121,0.664a12.273,12.273,0,0,1-4.763,5.471,27.607,27.607,0,0,1-2.912,1.208c-0.4.167-.757-0.051-1.153,0.121a6.835,6.835,0,0,1-2.123.121,9.8,9.8,0,0,1-5.218-1.45,11.966,11.966,0,0,1-5.309-6.317c-0.139-.328.017-0.577-0.121-0.906-0.592-1.408-.364-3.816-0.364-5.742V232.631q-0.015-4.095-.031-8.19a5.428,5.428,0,0,1-2.669-1.209,6.708,6.708,0,0,1-2.639-2.931c-0.268-.59-0.307-1.349-0.607-1.9V204.556c0-1.22-.061-2.205.849-2.509-0.011-1.273-.255-3.3.243-4.17,0.474-.826,1.8-0.756,3.125-0.756h6.34a7.306,7.306,0,0,1,3.246.363c1.175,0.673.285,3.09,0.667,4.594,0.826,0.1.819,1.211,0.819,2.176v12a9.886,9.886,0,0,1-.242,3.083,8.006,8.006,0,0,1-5.7,5.137V249.8c0.05,0.118.193,0.546,0.243,0.664v0.424a20.5,20.5,0,0,0,.971,2.175,9.436,9.436,0,0,0,3.671,3.053h0.3c0.363,0.158.89,0.324,1.274,0.483H413.6a3.614,3.614,0,0,0,2.245-.121h0.546a20.9,20.9,0,0,0,2.184-.967c0.232-.131.446-0.476,0.667-0.6a5.624,5.624,0,0,0,1.669-1.6c0.332-.573.7-1.226,0.97-1.813,0.181-.4.208-0.954,0.365-1.33v-0.906a9.661,9.661,0,0,0,.121-2.871V195.7c0.144-.344.227-0.948,0.364-1.269v-0.423c0.131-.307.356-0.744,0.485-1.028v-0.3a12.587,12.587,0,0,1,4.642-5.228c0.508-.287.955-0.353,1.516-0.6a6.063,6.063,0,0,1,2.67-.725Zm-30.791,14.506v1.33l6.765-.03-0.03-1.3h-6.735Zm-0.97,4.715q-0.016,2.719-.031,5.439v4.5a8.554,8.554,0,0,0,.243,2.9v0.423a5.406,5.406,0,0,0,3.307,2.81c0.786,0.327,2.733-.4,3.094-0.6,0.06-.081.121-0.161,0.182-0.242a4.445,4.445,0,0,0,1.79-2.448v-0.665a6.725,6.725,0,0,0,.121-2.025v-5.832l-0.03-4.261h-8.676Zm42.349,19.462c-0.01.03-.021,0.06-0.031,0.091-4.52,1.137-3.64,5.089-3.64,10.456l0.03,5.531,8.707-.031v-8.975c0-1.277.149-3.367-.243-4.262C446.7,225.714,445.277,224.667,442.657,224.683Zm-2.67,19.462v1.33l6.765-.03-0.03-1.3h-6.735Z" transform="translate(-397 -186)"/>
</svg>
