<svg xmlns="http://www.w3.org/2000/svg" width="61" height="80" viewBox="0 0 61 80">
  <defs>
    <style>
      .cls-1 {
        fill: #fa7124;
        fill-rule: evenodd;
      }
    </style>
  </defs>
  <path id="my_vector_mask_shape" class="cls-1" d="M710.105,81h48.81c0.405,0.221.946,0.188,1.392,0.392a9.016,9.016,0,0,1,2.395,1.7l0.874,0.817c0.344,0.6.756,1.206,1.036,1.83,0.2,0.451.168,1,.388,1.405v67.712c-0.219.409-.186,0.955-0.388,1.405a8.606,8.606,0,0,1-3.269,3.824c-0.723.413-1.688,0.51-2.428,0.915h-48.81c-0.4-.221-0.946-0.188-1.392-0.392a9.012,9.012,0,0,1-2.395-1.7l-0.874-.816c-0.344-.6-0.756-1.206-1.035-1.831-0.2-.451-0.169-1-0.389-1.405v-64.9a11.933,11.933,0,0,1,.259-3.823,7.9,7.9,0,0,1,5.826-5.033V81Zm0.809,3.137a6.886,6.886,0,0,1-1.294.392,5.215,5.215,0,0,0-2.1,2.124c-0.557,1.243-.389,3.318-0.389,5.1V149.66c0,2.636-.19,4.656.777,6.34a6.021,6.021,0,0,0,2.363,1.732h0.583a8.139,8.139,0,0,0,2.46.131h42.142a13.229,13.229,0,0,0,3.3-.131,13.445,13.445,0,0,0,1.295-.654l0.55-.62c1.453-1.574,1.3-2.794,1.3-5.752V91.882c0-2.528.149-4.272-.777-5.882a6.015,6.015,0,0,0-2.363-1.732,12.918,12.918,0,0,0-3.237-.131h-44.6Zm1.295,1.307a4.242,4.242,0,0,1,3.852,5.327,4.6,4.6,0,0,1-2.234,2.255c-0.309.14-.77,0.151-1.035,0.261a3.587,3.587,0,0,1-1.942-.392,4,4,0,0,1-2.039-1.993c-0.134-.3,0-0.525-0.13-0.85a1.85,1.85,0,0,1,0-1.373c0.135-.322,0-0.552.13-0.85a4.52,4.52,0,0,1,1.845-1.993A10.014,10.014,0,0,0,712.209,85.444Zm44.149,0a4.125,4.125,0,0,1,3.852,2.386c0.143,0.323-.019.616,0.129,0.98a1.3,1.3,0,0,1,0,1.111c-0.15.36,0.015,0.66-.129,0.98a4.551,4.551,0,0,1-2.1,2.124c-0.309.14-.771,0.151-1.036,0.261a2.777,2.777,0,0,1-1.942-.392,3.439,3.439,0,0,1-2.3-3.562,3.538,3.538,0,0,1,.129-1.372,4.569,4.569,0,0,1,1.975-2.124A11.077,11.077,0,0,0,756.358,85.444Zm-44.149,3.268a0.382,0.382,0,0,1-.291.163,4.859,4.859,0,0,0-.13.85,1.262,1.262,0,0,0,.874.294l0.421-.457V89.137l-0.453-.425h-0.421Zm44.149,0-0.421.457v0.425l0.453,0.425a1.469,1.469,0,0,0,.712-0.163,1.438,1.438,0,0,0-.032-1.013A3.782,3.782,0,0,0,756.358,88.712ZM733.7,90.15c6.062-.054,9.012,2.913,10.843,7.157a11.684,11.684,0,0,1,0,7.713A11.851,11.851,0,0,1,738.3,111.2c-0.6.273-1.352,0.278-1.942,0.523-0.315.131-.88,0.013-1.165,0.131a2.643,2.643,0,0,1-1.424-.131h-1.1c-0.127-.053-0.585-0.208-0.712-0.261H731.5c-0.329-.141-0.8-0.385-1.1-0.523a10.894,10.894,0,0,1-5.923-5.915c-0.159-.36-0.109-0.879-0.259-1.242a9.261,9.261,0,0,1-.388-3.366V99.595c0.326-.8.3-1.837,0.647-2.614a11.546,11.546,0,0,1,5.6-5.915c0.813-.37,1.751-0.435,2.589-0.784C733.033,90.128,733.481,90.435,733.7,90.15Zm-0.388,3.268-0.033.1c-2.022.516-3.745,1.265-4.661,2.876-0.135.238-.508,0.469-0.647,0.719a21.357,21.357,0,0,0-.906,2.353v0.85a3.716,3.716,0,0,0,.129,2.287v0.458c0.087,0.207.3,0.531,0.389,0.719v0.327a8.448,8.448,0,0,0,4.3,4.085h0.324c0.374,0.162,2.64.7,3.366,0.392,0.445-.187,1.077-0.175,1.554-0.392a8.454,8.454,0,0,0,4.305-4.085c0.225-.508.318-1.077,0.518-1.569v-0.85a4.513,4.513,0,0,0-.259-2.81c-0.119-.274-0.008-0.447-0.13-0.719a8.607,8.607,0,0,0-4.434-4.346c-0.427-.193-1.023-0.225-1.424-0.392h-2.395Zm0.647,2.876c2.964-.04,5.146,1.689,5.146,4.608a4.449,4.449,0,0,1-.259,1.895,5.158,5.158,0,0,1-2.362,2.517c-0.43.194-1.009,0.219-1.425,0.392a3.933,3.933,0,0,1-2.2-.392h-0.323c-0.342-.158-0.679-0.444-1.036-0.654-1.133-.666-2.152-3.619-1.327-5.457a5.256,5.256,0,0,1,2.1-2.386A14.131,14.131,0,0,0,733.96,96.294Zm0.129,3.268a1.412,1.412,0,0,1-.518.261,2.7,2.7,0,0,0-.55.948c-0.295.741,1.014,2.066,1.91,1.667C736.5,101.738,736.329,99.491,734.089,99.562Zm-1.683,15.294h4.337c0.246,0.1.726,0.158,0.971,0.262H738.3c1.072,0.453,2.318.566,3.366,1.045a19.67,19.67,0,0,1,8.837,7.876c0.442,0.791.8,1.676,1.165,2.484v0.327a14.6,14.6,0,0,1,1.165,5.98,8.7,8.7,0,0,1-.13,2.582c-0.184.448,0.056,1.186-.129,1.634-0.122.3-.265,0.815-0.388,1.111v0.457c-0.377.895-.627,1.834-1.036,2.745a19.47,19.47,0,0,1-9.354,9.053c-1.029.468-2.194,0.608-3.237,1.046h-0.583c-0.176.073-.665,0.187-0.841,0.261h-1.1a5.89,5.89,0,0,1-1.812.131,16.347,16.347,0,0,1-6.927-1.569c-0.685-.313-1.252-0.427-1.877-0.784a19.14,19.14,0,0,1-7.8-8.791c-0.324-.728-0.487-1.532-0.776-2.222-0.149-.356.018-0.625-0.13-0.981-0.361-.871-0.879-4.754-0.388-5.947v-1.112c0.15-.365.236-1.007,0.388-1.372v-0.458c0.412-.985.6-2.024,1.036-3.006a19.433,19.433,0,0,1,9.1-9.183c1.184-.619,2.606-0.769,3.884-1.307C731.136,114.944,732.175,115.158,732.406,114.856Zm0.777,3.137c-0.213.272-1.3,0.1-1.683,0.262a37.23,37.23,0,0,0-4.014,1.438,17.091,17.091,0,0,0-7.282,8.4c-0.316.711-.362,1.652-0.648,2.352v0.85a11.522,11.522,0,0,0,.259,5.556v0.457c0.333,0.793.543,1.671,0.907,2.484a15.1,15.1,0,0,0,7.477,7.353,13.342,13.342,0,0,0,5.955,1.438h2.2c0.176-.074.665-0.188,0.842-0.262h0.582c1.017-.427,2.122-0.6,3.107-1.045a16.166,16.166,0,0,0,7.671-8.007c0.334-.751.476-1.623,0.777-2.353v-0.588c0.072-.177.187-0.673,0.259-0.85v-1.111c0.5-1.24-.262-4.671-0.647-5.556-0.171-.392-0.085-0.72-0.259-1.111-0.344-.771-0.748-1.609-1.165-2.353a16.649,16.649,0,0,0-6.765-6.045c-0.833-.379-1.762-0.567-2.589-0.915h-0.583A12.779,12.779,0,0,0,733.183,117.993ZM732.924,121a11.067,11.067,0,0,1,3.366.131H737a32.291,32.291,0,0,1,3.5,1.307,13.129,13.129,0,0,1,5.211,5.654v0.326c0.122,0.277.4,0.7,0.518,0.981v0.457a10.73,10.73,0,0,1,.518,4.02v0.948c-0.073.178-.186,0.671-0.259,0.849v0.588c-0.258.626-.361,1.32-0.647,1.961a12.865,12.865,0,0,1-6.247,6.438c-0.941.426-2,.511-2.978,0.915h-1.1a3.6,3.6,0,0,1-2.006,0c-0.477-.2-1.273.069-1.748-0.131-0.41-.172-0.973-0.351-1.36-0.522h-0.323c-0.169-.077-0.414-0.316-0.583-0.393-0.332-.151-0.551-0.095-0.841-0.261a13,13,0,0,1-5.341-5.784c-0.34-.765-0.468-1.6-0.777-2.353v-0.589a7.331,7.331,0,0,1-.129-3.594V131.1c0.3-.738.317-1.612,0.647-2.353a13.412,13.412,0,0,1,5.47-6.307,27.948,27.948,0,0,1,2.978-1.177C731.868,121.106,732.7,121.294,732.924,121Zm0.777,3.137c-0.232.294-1.054,0.105-1.424,0.262-0.744.315-1.5,0.547-2.2,0.915a10.021,10.021,0,0,0-4.176,5,9.31,9.31,0,0,0-.129,5.1v0.457c0.089,0.213.151,0.543,0.259,0.785a9.556,9.556,0,0,0,4.887,5,8.172,8.172,0,0,0,3.982.784h0.938c0.589-.246,1.339-0.248,1.942-0.523a9.216,9.216,0,0,0,5.211-11.993c-0.317-.711-0.776-1.414-1.165-2.092l-0.518-.457a2.364,2.364,0,0,0-.679-0.883,28.337,28.337,0,0,0-3.367-1.961h-0.453A8.314,8.314,0,0,0,733.7,124.137Zm-22.139,24.575c2.67-.039,3.574.6,4.369,2.451a4.44,4.44,0,0,1,.13,2.745c-0.689,1.524-1.458,1.87-3.01,2.517a3.331,3.331,0,0,1-2.2-.392,4.042,4.042,0,0,1-2.169-2.255V153.19a1.576,1.576,0,0,1,0-1.242c0.15-.361-0.015-0.66.13-0.981a6.417,6.417,0,0,1,1.456-1.732A8.976,8.976,0,0,0,711.562,148.712Zm44.149,0a6.243,6.243,0,0,1,2.524.262,4.1,4.1,0,0,1,1.975,5.065,4.653,4.653,0,0,1-2.881,2.386,3.021,3.021,0,0,1-1.942-.262,8.569,8.569,0,0,1-.842-0.261,3.652,3.652,0,0,1-1.715-3.3V151.49a4.668,4.668,0,0,1,1.456-2.124A9.9,9.9,0,0,0,755.711,148.712Zm-43.372,3.138c-0.135.183-.4,0.281-0.551,0.457v0.556l0.324,0.294a1.83,1.83,0,0,0,.842-0.164,4.23,4.23,0,0,0,.129-0.555A0.954,0.954,0,0,0,712.339,151.85Zm44.148,0c-0.135.183-.4,0.281-0.55,0.457a0.963,0.963,0,0,0,.324.85h0.68l0.291-.327v-0.555A1.5,1.5,0,0,0,756.487,151.85Z" transform="translate(-704 -81)"/>
</svg>
