<svg xmlns="http://www.w3.org/2000/svg" width="56" height="53" viewBox="0 0 56 53">
  <defs>
    <style>
      .cls-1 {
        fill: #fa7124;
        fill-rule: evenodd;
      }
    </style>
  </defs>
  <path id="my_vector_mask_shape" class="cls-1" d="M645.285,92c1.457-.012,2.232.21,2.743,1.125a7.731,7.731,0,0,1,.274,3.146v44.412a8.953,8.953,0,0,1-.182,3.008A3.089,3.089,0,0,1,646.657,145h-0.48a3.855,3.855,0,0,1-2.332-.735c-0.228-.132-0.457-0.42-0.685-0.551-1.573-.9-2.961-1.943-4.526-2.847-0.132-.077-0.28-0.292-0.411-0.368-0.394-.227-0.746-0.413-1.143-0.643-0.046-.061-0.092-0.122-0.137-0.184-2.285-1.321-4.331-2.915-6.629-4.225-0.421-.24-0.815-0.676-1.234-0.918-1.8-1.037-3.486-2.009-4.366-3.973-0.511-1.141-.366-2.974-0.366-4.593V107.914c0.046-.11.137-0.487,0.183-0.6V107a16.345,16.345,0,0,1,.823-1.745l0.366-.321a3.641,3.641,0,0,1,1.531-1.263c0.132-.076.28-0.292,0.412-0.368,0.583-.336,1.105-0.673,1.691-1.01,0.229-.132.457-0.419,0.686-0.551,0.593-.343,1.105-0.673,1.691-1.011,0.132-.076.28-0.292,0.412-0.367,2.551-1.455,4.809-3.231,7.359-4.685,0.326-.185.636-0.548,0.96-0.735,0.938-.542,1.753-1.115,2.7-1.653a7.868,7.868,0,0,1,2.125-1.217V92Zm-0.16,3.582a3.846,3.846,0,0,1-1.28.827c-0.228.132-.457,0.419-0.685,0.551-0.847.49-1.572,0.984-2.423,1.47-0.516.294-.993,0.808-1.509,1.1-2.013,1.151-3.792,2.524-5.8,3.674-0.516.3-.993,0.808-1.509,1.1-0.759.434-1.39,0.853-2.149,1.286-0.228.131-.457,0.419-0.685,0.552a3.1,3.1,0,0,0-1.166.849c-0.568.987-.457,1.949-0.457,3.491v15.087a17.685,17.685,0,0,0,.091,3.789,5.308,5.308,0,0,0,2.537,2.135c0.229,0.131.458,0.42,0.686,0.552,0.583,0.337,1.106.672,1.692,1.01,0.324,0.187.635,0.549,0.96,0.735,2.013,1.15,3.791,2.524,5.8,3.674,0.516,0.3.993,0.807,1.509,1.1,0.85,0.487,1.576.98,2.423,1.47,0.228,0.132.457,0.419,0.685,0.551a8.075,8.075,0,0,1,1.3.827l0.137-.023q-0.01-22.905-.023-45.813h-0.137Zm15.452,7.808h1.051c0.988,0.429,2.551,3.256,3.04,4.34v0.23c0.054,0.12.22,0.293,0.274,0.413v0.23a22.225,22.225,0,0,1,2.012,9.093,10.514,10.514,0,0,1-.092,2.8v0.872c-0.315.758-.239,1.878-0.548,2.618V124.4c-0.206.491-.348,1.133-0.549,1.607v0.322c-0.452,1.061-.868,2.2-1.371,3.169-0.1.19-.078,0.411-0.183,0.6-0.533.942-1.729,3.108-2.675,3.513h-0.548a1.308,1.308,0,0,1-1.44-1.516v-0.482a20.942,20.942,0,0,1,1.28-1.791c0.643-1.135,1.182-2.352,1.737-3.582,0.086-.191.007-0.314,0.091-0.505,0.342-.777.48-1.8,0.823-2.618V122.7c0.038-.09.146-0.415,0.183-0.5,0.14-.336-0.048-0.9.092-1.24a10.864,10.864,0,0,0,.182-3.054v-1.079c-0.181-.437-0.1-1.177-0.274-1.608v-0.5c-0.107-.257-0.166-0.708-0.274-0.964v-0.322c-0.34-.8-0.488-1.765-0.823-2.526-0.084-.192-0.005-0.314-0.091-0.5-0.462-1.024-.92-2.068-1.463-3.031a22.912,22.912,0,0,1-1.372-1.975,1.8,1.8,0,0,1,.572-1.814A0.878,0.878,0,0,0,660.577,103.39Zm-46.72,2.2h5.623c0.266,0.112.631,0.147,0.914,0.276a3.853,3.853,0,0,1,1.577,1.493c0.659,1.171.366,4.885,0.366,6.751v10.54c0,1.234.2,3.768-.183,4.616a3.893,3.893,0,0,1-1.76,1.86c-0.284.129-.648,0.164-0.914,0.276h-3.131a9.592,9.592,0,0,1-3.223-.184,9.414,9.414,0,0,1-.777-0.551,1.986,1.986,0,0,1-.709-0.574c-0.243-.423-0.4-0.915-0.64-1.355V108.258a4.489,4.489,0,0,1,1.211-1.929c0.253-.147.49-0.349,0.732-0.459a6.144,6.144,0,0,0,.891-0.253C613.842,105.61,613.849,105.6,613.857,105.594Zm39.131,2.664h1.051c1.028,0.446,1.735,2.209,2.218,3.284a17.605,17.605,0,0,1-.275,14.467c-0.523,1.006-.977,2.28-2.034,2.733h-0.96a1.566,1.566,0,0,1-1.029-1.516v-0.39a7.616,7.616,0,0,1,.458-0.827l0.274-.23c0.368-.644.7-1.34,1.006-2.02,0.086-.191.007-0.314,0.091-0.506,0.255-.579.384-1.36,0.64-1.974,0.148-.357-0.056-0.7.091-1.057a9.626,9.626,0,0,0,.183-2.48c-0.093-.226.01-0.675-0.091-0.918-0.24-.579-0.221-1.415-0.457-1.975v-0.322a27.531,27.531,0,0,0-1.1-2.755c-0.21-.372-0.511-0.716-0.732-1.1l-0.183-.137V110.3c-0.031-.072-0.154-0.342-0.183-0.413a0.259,0.259,0,0,1,.092-0.276V109.2c0.038-.088.118-0.253,0.183-0.368A7.456,7.456,0,0,1,652.988,108.258Zm-38.674.368-0.3.321v19.129l0.32,0.3h4.686l0.3-.321V108.924l-0.32-.3h-4.686Z" transform="translate(-611 -92)"/>
</svg>
