<svg xmlns="http://www.w3.org/2000/svg" width="62" height="58" viewBox="0 0 62 58">
  <defs>
    <style>
      .cls-1 {
        fill: #fa813d;
        fill-rule: evenodd;
      }
    </style>
  </defs>
  <path id="my_vector_mask_shape" class="cls-1" d="M367.555,133.985v1.266a2,2,0,0,1-1.341,1.038h-0.658c-0.683.281-1.8,0.124-2.479,0.406h-0.759a10.3,10.3,0,0,1-3.112.3h-1.948a23.017,23.017,0,0,1-2.529-1.012,13.879,13.879,0,0,1-5.187-6.3c-0.381-.848-0.552-1.784-0.91-2.634-0.125-.3.027-0.55-0.1-0.861s-0.174-.85-0.3-1.165v-0.658c-0.109-.265.019-0.838-0.1-1.114a6.569,6.569,0,0,1-.1-2.026,12.781,12.781,0,0,1,.809-4.71v-0.354c1.131-2.605,2.521-4.949,5.085-6.1,0.722-.325,1.593-0.406,2.327-0.709l0.785-.026a4.437,4.437,0,0,0-.2-1.418v-0.759c-0.07-.171-0.132-0.691-0.2-0.861v-0.76c-0.07-.17-0.132-0.691-0.2-0.861-0.175-.42.072-1.149-0.1-1.57a9.162,9.162,0,0,1-.1-2.886V98.738a0.375,0.375,0,0,0,.1-0.253V97.928c0.2-.482.207-1.2,0.4-1.671V95.9c0.542-1.275.858-2.617,1.417-3.849,0.231-.51.644-1,0.911-1.469A23.016,23.016,0,0,1,367.58,82.1c0.387-.219.769-0.3,1.164-0.507s0.853-.523,1.265-0.709c0.229-.1.529-0.1,0.759-0.2a16.409,16.409,0,0,1,6.476-1.519c0.009-.034.017-0.067,0.025-0.1a13.108,13.108,0,0,1,3.466.1H381.7c0.368,0.154,1,.153,1.366.3h0.455c0.4,0.167.981,0.242,1.366,0.405h0.354c0.38,0.162.887,0.339,1.265,0.506,0.212,0.094.347,0.006,0.557,0.1,0.949,0.431,2.025.8,2.935,1.317a24.446,24.446,0,0,1,9.436,9.242,41.684,41.684,0,0,1,1.72,4.254v0.354c0.17,0.406.232,1.05,0.4,1.469v0.658a9.729,9.729,0,0,1,.2,3.14,11.372,11.372,0,0,1-.3,3.291c-0.092.222-.02,0.613-0.1,0.811-0.173.42,0.073,1.149-.1,1.57-0.081.2-.009,0.588-0.1,0.81a10.478,10.478,0,0,0-.3,1.8L401,109.348a8.28,8.28,0,0,1,7.236,4.481,25.859,25.859,0,0,1,1.113,2.634v0.354c0.224,0.535.276,1.315,0.506,1.874v0.658a21.616,21.616,0,0,1,0,5.014v0.658c-0.057.139-.145,0.521-0.2,0.659v0.456c-0.237.568-.378,1.332-0.607,1.873v0.355c-1.529,3.516-3.012,6.1-6.35,7.824a7.155,7.155,0,0,1-3.82.81,4.178,4.178,0,0,1-1.29-.1c-0.342-.141-0.99.034-1.315-0.1h-1.164c-0.735-.3-1.947,0-2.682-0.3h-1.062a2,2,0,0,1-.936-2.861c0.091-.222,2.529-19.954,2.529-20.207,0.247-1.459.131-3.041,0.709-4.051a1.567,1.567,0,0,1,1.669-.532c0.357,0.107.836,0,1.088,0.1h1.012a0.822,0.822,0,0,0,.481.076c0-2.193.645-4.146,0.708-6.33a8.973,8.973,0,0,0,.1-2.228c-0.184-.446-0.116-1.178-0.3-1.621a25.437,25.437,0,0,0-1.113-2.633c-1.928-3.412-5.439-5.45-9.133-7.115-0.211-.1-0.345-0.008-0.557-0.1-0.378-.166-0.884-0.346-1.264-0.506-0.275-.116-0.484.015-0.759-0.1-0.686-.29-1.666-0.313-2.378-0.608h-0.658c-0.17-.07-0.691-0.132-0.86-0.2h-1.265a7.741,7.741,0,0,0-2.985,0h-0.759a4.367,4.367,0,0,0-1.265.2h-0.658c-0.574.239-1.413,0.27-1.973,0.507-0.275.116-.485-0.016-0.759,0.1-0.581.247-1.329,0.463-1.872,0.709-0.21.095-.347,0.006-0.557,0.1a52.634,52.634,0,0,0-4.655,2.532l-0.253.3c-0.265.154-.393,0.252-0.658,0.405l-0.556.608a2.506,2.506,0,0,0-.987.987l-0.708.658c-0.239.413-.591,0.727-0.81,1.114-0.278.493-.442,0.953-0.708,1.469a9.494,9.494,0,0,0-1.012,4.609,4.288,4.288,0,0,0,.1,1.316c0.078,0.188.016,0.5,0.1,0.709v0.76c0.082,0.2.01,0.589,0.1,0.81,0.4,0.955.192,2.475,0.531,3.469,1.233-.143,2.869-0.689,3.9-0.1,0.833,0.477.521,3.07,0.936,4.077C364.924,113.171,367.179,133.072,367.555,133.985ZM378.813,82l-0.076.1a16.363,16.363,0,0,0-7.16,1.519c-0.529.241-1.078,0.329-1.568,0.608-1,.569-1.937,1.244-2.935,1.823l-0.253.3a9.876,9.876,0,0,0-1.568,1.215,3.92,3.92,0,0,1-.835.81v0.1a4.6,4.6,0,0,0,.936-0.608c1.008-.574,2.18-1.039,3.238-1.519,1.1-.5,2.417-0.641,3.542-1.114h0.455c0.405-.17,1.05-0.23,1.468-0.405h0.657a7.931,7.931,0,0,1,2.3-.3h1.442a1.426,1.426,0,0,1,1.063,0h1.366a8.016,8.016,0,0,1,2.378.3h0.658c0.1,0.042.457,0.161,0.556,0.2h0.456c0.26,0.109.712,0.2,0.961,0.3h0.354c0.748,0.318,1.662.492,2.378,0.81,0.212,0.094.347,0.006,0.557,0.1,1.1,0.5,2.3.926,3.339,1.519a9.149,9.149,0,0,0,1.24.81v-0.1a4.876,4.876,0,0,1-1.214-1.19,9.26,9.26,0,0,0-2.1-1.545l-0.253-.3A22.785,22.785,0,0,0,378.813,82Zm-14.6,50.212a4,4,0,0,1,.2,1.215,4.339,4.339,0,0,1-1.29.127c-0.009-.262-0.017-0.524-0.026-0.785-0.375-.913-2.634-20.286-2.631-20.865a1.16,1.16,0,0,0,.633-0.127h0.556C361.888,112.58,364.215,131.96,364.215,132.213Zm29.271,1.443,1.29-.025c0-.451,2.754-21.394,2.707-21.65-0.514,0-.84-0.1-1.265-0.1q-0.014.392-.025,0.785C395.92,113.323,393.364,133.181,393.486,133.656Zm-33.622-1.747a8.881,8.881,0,0,1,.3,2.026c-3,.851-5.517-1.521-6.477-3.191-0.145-.253-0.463-0.506-0.607-0.76-0.384-.678-0.7-1.431-1.012-2.127-0.4-.875-0.437-2.042-0.809-2.937-0.165-.395.063-1.073-0.1-1.468a8.581,8.581,0,0,1,0-3.191V119.5c0.129-.314.176-0.859,0.3-1.164v-0.355c1.034-2.455,1.648-4.194,4.073-5.292a9.01,9.01,0,0,1,1.493-.329c0.008-.026.017-0.051,0.025-0.076h0.354C357.638,113.132,359.864,131.656,359.864,131.909Zm37.847,2c0.008,0.017.016,0.034,0.025,0.051a9.6,9.6,0,0,0,1.973.1,18.474,18.474,0,0,0,2.024-.709c2.119-1.2,3.343-3.5,4.377-5.8,0.291-.65.338-1.48,0.607-2.127v-0.456c0.057-.138.145-0.521,0.2-0.659v-0.86a9.465,9.465,0,0,0,0-3.394V119.3c-0.218-.525-0.3-1.283-0.506-1.773v-0.354c-1.081-2.483-2.385-4.9-5.945-4.887C400.226,113.243,397.833,133.746,397.711,133.909Z" transform="translate(-348.031 -79)"/>
</svg>
