<svg xmlns="http://www.w3.org/2000/svg" width="46" height="42" viewBox="0 0 46 42">
  <defs>
    <style>
      .cls-1 {
        fill: #fa7124;
        fill-rule: evenodd;
      }
    </style>
  </defs>
  <path class="cls-1" d="M532,211.857h-4.739l-2.343-8.14a1,1,0,0,0-1.238-.679l-30.05,8.819h-1.047A5.586,5.586,0,0,0,487,217.429v22A5.586,5.586,0,0,0,492.587,245H532a1,1,0,0,0,1-.993V212.851A1,1,0,0,0,532,211.857Zm-8.72-6.63,0.61,2.118-0.914-.471-1.927-.992Zm-5,1.466,2.984,1.538,3.378,1.74,0.543,1.886h-24.5Zm12.721,25.082h-8.027a3.347,3.347,0,1,1,0-6.693h8.027v6.693h0Zm0-8.68h-8.027a5.334,5.334,0,1,0,0,10.667h8.027v9.251H492.587a3.594,3.594,0,0,1-3.595-3.586v-22a3.594,3.594,0,0,1,3.595-3.585h38.421V223.1h0Zm-7.987,2.648a2.686,2.686,0,1,0,2.693,2.685A2.692,2.692,0,0,0,523.021,225.743Zm0,3.384a0.7,0.7,0,1,1,.7-0.7A0.7,0.7,0,0,1,523.021,229.127Zm-13.574,10.7h-0.7a0.994,0.994,0,1,0,0,1.987h0.7A0.994,0.994,0,1,0,509.447,239.828Zm19.263,0H513.739a0.994,0.994,0,1,0,0,1.987H528.71A0.994,0.994,0,1,0,528.71,239.828Z" transform="translate(-487 -203)"/>
</svg>
