<svg xmlns="http://www.w3.org/2000/svg" width="39" height="55" viewBox="0 0 39 55">
  <defs>
    <style>
      .cls-1 {
        fill: #fb5e31;
        fill-rule: evenodd;
      }
    </style>
  </defs>
  <path id="_2" data-name="2" class="cls-1" d="M1224.5,336.208a12.084,12.084,0,1,0,12.34,12.081A12.222,12.222,0,0,0,1224.5,336.208Zm0,22.027a9.948,9.948,0,1,1,10.16-9.946A10.068,10.068,0,0,1,1224.5,358.235Zm17.33-13.425a2.846,2.846,0,0,1-1.23-3.781c0.25-1.323.52-2.822-.33-3.963s-2.4-1.354-3.77-1.534a5.631,5.631,0,0,1-2.14-.528,5.233,5.233,0,0,1-1.15-1.809c-0.6-1.229-1.28-2.621-2.68-3.067-1.35-.429-2.71.287-3.91,0.917a3.139,3.139,0,0,1-4.24,0c-1.2-.631-2.56-1.346-3.91-0.917-1.4.446-2.08,1.838-2.68,3.067a5.383,5.383,0,0,1-1.15,1.809,5.631,5.631,0,0,1-2.14.528c-1.37.18-2.92,0.384-3.78,1.534-0.84,1.141-.57,2.64-0.32,3.963a2.846,2.846,0,0,1-1.23,3.781c-1.02.945-2.17,2.015-2.17,3.479s1.15,2.535,2.17,3.479a2.847,2.847,0,0,1,1.23,3.781c-0.25,1.323-.52,2.822.32,3.963a3.86,3.86,0,0,0,2.42,1.32v19.5a1.066,1.066,0,0,0,.38.812,1.1,1.1,0,0,0,.88.243c1.73-.269,3.47-0.478,5.21-0.63v3.179a1.071,1.071,0,0,0,.54.918,1.112,1.112,0,0,0,1.08.02l5.46-2.915,5.05,2.9a1.147,1.147,0,0,0,.56.146,1.128,1.128,0,0,0,.54-0.141,1.065,1.065,0,0,0,.55-0.927v-3.178c1.74,0.152,3.48.36,5.21,0.629a1.179,1.179,0,0,0,.17.013,1.109,1.109,0,0,0,.71-0.256,1.064,1.064,0,0,0,.38-0.812v-19.5a3.86,3.86,0,0,0,2.42-1.32c0.84-1.141.57-2.64,0.32-3.963a2.847,2.847,0,0,1,1.23-3.781c1.02-.945,2.17-2.015,2.17-3.479S1242.85,345.755,1241.83,344.81Zm-24.22,33.8q-2.145.183-4.29,0.478V361.163a3.469,3.469,0,0,1,1.32.412,5.361,5.361,0,0,1,1.15,1.807,6.939,6.939,0,0,0,1.82,2.622v12.6h0Zm11.59,3.461-3.95-2.263a1.1,1.1,0,0,0-1.07-.016l-4.39,2.342V366.545a8.364,8.364,0,0,0,2.59-1.012,3.142,3.142,0,0,1,4.24,0,8.334,8.334,0,0,0,2.58,1.012V382.07h0Zm6.48-2.983q-2.145-.3-4.29-0.478V366a6.935,6.935,0,0,0,1.82-2.621,5.361,5.361,0,0,1,1.15-1.807,3.355,3.355,0,0,1,1.32-.412v17.924h0Zm4.65-28.868a4.742,4.742,0,0,0-1.88,5.711c0.17,0.9.36,1.923,0.06,2.325a3.487,3.487,0,0,1-1.89.621l-0.41.054a6.913,6.913,0,0,0-3.14.918,6.568,6.568,0,0,0-1.83,2.613,4.3,4.3,0,0,1-1.35,1.941l-0.03.014a0.036,0.036,0,0,0-.01,0,4.215,4.215,0,0,1-2.2-.767,5.158,5.158,0,0,0-6.31,0,4.169,4.169,0,0,1-2.19.767c-0.01,0-.01,0-0.01,0l-0.03-.013a4.238,4.238,0,0,1-1.35-1.943,6.6,6.6,0,0,0-1.84-2.613,6.872,6.872,0,0,0-3.13-.918l-0.41-.054a3.459,3.459,0,0,1-1.89-.621c-0.3-.4-0.11-1.423.06-2.325a6.662,6.662,0,0,0,.07-3.225,6.482,6.482,0,0,0-1.95-2.486c-0.7-.648-1.49-1.383-1.49-1.93s0.79-1.281,1.49-1.929a6.477,6.477,0,0,0,1.95-2.487,6.658,6.658,0,0,0-.07-3.224c-0.17-.9-0.36-1.924-0.06-2.326s1.36-.551,2.3-0.674a6.872,6.872,0,0,0,3.13-.918,6.6,6.6,0,0,0,1.84-2.615c0.41-.841.88-1.794,1.39-1.956a4.169,4.169,0,0,1,2.19.767,5.171,5.171,0,0,0,6.32,0,4.169,4.169,0,0,1,2.19-.767c0.51,0.162.98,1.115,1.39,1.956a6.575,6.575,0,0,0,1.83,2.615,6.926,6.926,0,0,0,3.14.919,4.21,4.21,0,0,1,2.3.674c0.3,0.4.11,1.424-.06,2.325a4.742,4.742,0,0,0,1.88,5.711c0.7,0.648,1.49,1.383,1.49,1.93S1241.03,349.571,1240.33,350.219Zm-19.44,2.7h7.22v-1.678h-4.64c1.43-1.981,4.59-2.215,4.59-5.131a3.108,3.108,0,0,0-3.37-3.012,3.451,3.451,0,0,0-3.57,3.892h1.91c0-1.017.38-2.214,1.56-2.214a1.392,1.392,0,0,1,1.47,1.485c0,1.183-1.2,1.761-2.06,2.352C1222.3,349.752,1220.89,350.674,1220.89,352.916Z" transform="translate(-1205 -330)"/>
</svg>
