<svg xmlns="http://www.w3.org/2000/svg" width="52.938" height="67" viewBox="0 0 52.938 67">
  <defs>
    <style>
      .cls-1 {
        fill: #fa5e31;
        fill-rule: evenodd;
      }
    </style>
  </defs>
  <path id="Forma_1" data-name="Forma 1" class="cls-1" d="M399.382,247.7l-5.125-5.266,1.032-7.254a2.077,2.077,0,0,0-1.708-2.336l-7.259-1.265-3.455-6.474a2.1,2.1,0,0,0-2.763-.893l-6.62,3.217-6.621-3.217a2.1,2.1,0,0,0-2.763.893l-3.454,6.474-7.26,1.265a2.077,2.077,0,0,0-1.707,2.336l1.032,7.254-5.125,5.266a2.068,2.068,0,0,0,0,2.889l5.125,5.265-1.032,7.258a2.077,2.077,0,0,0,1.707,2.336l5.811,1.013v22.463a2.071,2.071,0,0,0,.99,1.766,2.1,2.1,0,0,0,2.033.092l11.265-5.6,11.263,5.6a2.1,2.1,0,0,0,2.032-.092,2.073,2.073,0,0,0,.991-1.766V266.46l5.811-1.013a2.078,2.078,0,0,0,1.707-2.337l-1.032-7.257,5.125-5.266A2.069,2.069,0,0,0,399.382,247.7ZM374.419,281a2.1,2.1,0,0,0-1.869,0l-9.175,4.559V271.825l0.725,1.36a2.1,2.1,0,0,0,2.764.892l6.621-3.219,6.619,3.219a2.1,2.1,0,0,0,2.763-.892l0.726-1.359v13.736Zm16.125-27.309a2.07,2.07,0,0,0-.568,1.736l0.893,6.273L384.6,262.8a2.09,2.09,0,0,0-1.485,1.072l-2.986,5.594L374.4,266.68a2.1,2.1,0,0,0-1.836,0l-5.723,2.782-2.986-5.594a2.084,2.084,0,0,0-1.484-1.072L356.1,261.7l0.892-6.274a2.071,2.071,0,0,0-.567-1.735l-4.43-4.551,4.43-4.552a2.069,2.069,0,0,0,.567-1.735l-0.892-6.269,6.275-1.093a2.092,2.092,0,0,0,1.485-1.073l2.985-5.595,5.723,2.78a2.1,2.1,0,0,0,1.835,0l5.721-2.78,2.987,5.6a2.092,2.092,0,0,0,1.485,1.072l6.274,1.093-0.893,6.269a2.069,2.069,0,0,0,.567,1.735l4.43,4.552Zm-17.06-18.753a14.2,14.2,0,1,0,14.287,14.2A14.262,14.262,0,0,0,373.484,234.941Zm0,24.254a10.05,10.05,0,1,1,10.108-10.052A10.092,10.092,0,0,1,373.484,259.2Zm4.259-15.321-6.171,6.134-2.349-2.332a2.1,2.1,0,0,0-2.954,0,2.067,2.067,0,0,0,0,2.937l3.825,3.8a2.1,2.1,0,0,0,2.954,0l7.648-7.6a2.069,2.069,0,0,0,0-2.938A2.1,2.1,0,0,0,377.743,243.874Z" transform="translate(-347.031 -224)"/>
</svg>
