<svg xmlns="http://www.w3.org/2000/svg" width="55" height="60" viewBox="0 0 55 60">
  <defs>
    <style>
      .cls-1 {
        fill: #fa5e31;
        fill-rule: evenodd;
      }
    </style>
  </defs>
  <path id="Forma_1" data-name="Forma 1" class="cls-1" d="M308.081,228H297v-1.081A2.923,2.923,0,0,0,294.081,224H258.919A2.923,2.923,0,0,0,256,226.919V274.2a2.8,2.8,0,0,0,2.8,2.8H270v1.2a2.8,2.8,0,0,0,2.8,2.8h35.4a2.8,2.8,0,0,0,2.8-2.8V230.919A2.923,2.923,0,0,0,308.081,228ZM270,269.444a14.472,14.472,0,0,1,0-25.888v25.888Zm0-38.525v10.444a16.456,16.456,0,0,0,0,30.274V275H258.8a0.8,0.8,0,0,1-.8-0.8V243h4a1,1,0,0,0,0-2h-4v-2h4a1,1,0,0,0,0-2h-4v-2h4a1,1,0,0,0,0-2h-4v-2h4a1,1,0,0,0,0-2h-4v-2.081a0.92,0.92,0,0,1,.919-0.919h35.162a0.92,0.92,0,0,1,.919.919V228H272.919A2.923,2.923,0,0,0,270,230.919ZM309,278.2a0.8,0.8,0,0,1-.8.8H272.8a0.8,0.8,0,0,1-.8-0.8V247h4a1,1,0,0,0,0-2h-4v-2h4a1,1,0,0,0,0-2h-4v-2h4a1,1,0,0,0,0-2h-4v-2h4a1,1,0,0,0,0-2h-4v-2.081a0.92,0.92,0,0,1,.919-0.919h35.162a0.92,0.92,0,0,1,.919.919V278.2ZM290.5,255a5.5,5.5,0,1,0,5.5,5.5A5.506,5.506,0,0,0,290.5,255Zm0,9a3.5,3.5,0,1,1,3.5-3.5A3.5,3.5,0,0,1,290.5,264ZM307,242.5a9.5,9.5,0,1,0-18.834,1.685,16.494,16.494,0,1,0,15.088,5.861A9.526,9.526,0,0,0,307,242.5Zm-2,18a14.5,14.5,0,1,1-16.1-14.406l0.6-.043c0.333-.023.666-0.051,1-0.051a14.465,14.465,0,0,1,3.072.335l0,0,0.254,0.062,0.106,0.027a14.953,14.953,0,0,1,1.542.471c0.129,0.047.26,0.091,0.387,0.142,0.188,0.074.372,0.155,0.556,0.237,0.227,0.1.451,0.211,0.672,0.324,0.049,0.026.1,0.048,0.149,0.074,0.074,0.039.15,0.074,0.224,0.114,0.2,0.113.4,0.241,0.6,0.364s0.422,0.252.625,0.392c0.132,0.091.256,0.193,0.385,0.288,0.271,0.2.541,0.4,0.8,0.623,0.08,0.068.154,0.141,0.232,0.211,0.292,0.26.578,0.528,0.851,0.814A14.432,14.432,0,0,1,305,260.5Zm-11-18a3.5,3.5,0,1,1,4.195,3.408h0c-0.34-.181-0.69-0.339-1.041-0.495-0.1-.044-0.195-0.094-0.3-0.136-0.407-.171-0.822-0.319-1.242-0.456-0.087-.029-0.172-0.063-0.26-0.09-0.221-.068-0.446-0.123-0.67-0.182A3.4,3.4,0,0,1,294,242.5Zm7.885,6.076c-0.09-.086-0.189-0.16-0.281-0.245-0.261-.238-0.522-0.475-0.8-0.7-0.179-.145-0.366-0.277-0.55-0.414A5.486,5.486,0,1,0,292,242.5a5.356,5.356,0,0,0,.265,1.6l-0.113-.014c-0.545-.053-1.1-0.083-1.652-0.083-0.117,0-.232,0-0.348.007A7.5,7.5,0,1,1,301.885,248.576ZM279,282h-4a1,1,0,0,0,0,2h4A1,1,0,0,0,279,282Zm-16-4h-4a1,1,0,0,0,0,2h4A1,1,0,0,0,263,278Zm43,4h-4a1,1,0,0,0,0,2h4A1,1,0,0,0,306,282Z" transform="translate(-256 -224)"/>
</svg>
