<svg xmlns="http://www.w3.org/2000/svg" width="54" height="54" viewBox="0 0 54 54">
  <defs>
    <style>
      .cls-1 {
        fill: #fb5e31;
        fill-rule: evenodd;
      }
    </style>
  </defs>
  <path id="Forma_1" data-name="Forma 1" class="cls-1" d="M835.416,336c-9.158,0-16.583,5.911-16.583,13.2,0,4.344,2.647,8.186,6.714,10.593a13.235,13.235,0,0,1-3.436,6.56c4.325-.324,8.131-1.572,10.623-4.138a20.7,20.7,0,0,0,2.682.189c9.159,0,16.584-5.912,16.584-13.2S844.575,336,835.416,336Zm-7.773,15.81a2.607,2.607,0,1,1,2.591-2.607A2.6,2.6,0,0,1,827.643,351.81Zm7.773,0a2.607,2.607,0,1,1,2.592-2.607A2.6,2.6,0,0,1,835.416,351.81Zm7.774,0a2.607,2.607,0,1,1,2.592-2.607A2.6,2.6,0,0,1,843.19,351.81ZM832.2,379.588c-5.258-4.252-6.728-2.162-9.114.238-1.665,1.676-5.88-1.824-9.52-5.486s-7.118-7.9-5.452-9.577c2.385-2.4,4.462-3.88.235-9.168s-7.042-1.229-9.353,1.1c-2.668,2.684-.14,12.683,9.683,22.567s19.763,12.424,22.43,9.741C833.418,386.674,837.456,383.841,832.2,379.588Zm-27.635-21.125-0.308.127c-0.25.1-.55,0.206-0.884,0.352a5.02,5.02,0,0,0-.489.257,2.825,2.825,0,0,0-.477.351,3.336,3.336,0,0,0-.433.476,3.394,3.394,0,0,0-.322.631,3.865,3.865,0,0,0-.214.742c-0.05.26-.059,0.53-0.091,0.794a9.584,9.584,0,0,0,.085,1.48,9.788,9.788,0,0,0,.192,1.077l0.085,0.41s-0.079-.13-0.219-0.356a10.393,10.393,0,0,1-.552-0.959,10.268,10.268,0,0,1-.639-1.5c-0.072-.3-0.169-0.6-0.222-0.932a5.565,5.565,0,0,1-.076-1.037,5.351,5.351,0,0,1,.129-1.093,5.475,5.475,0,0,1,.392-1.04,5.08,5.08,0,0,1,.556-0.886,7.3,7.3,0,0,1,.6-0.69c0.388-.384.725-0.665,0.921-0.837,0.113-.095.159-0.146,0.209-0.191l0.068-.064,1.8,2.837Zm27.06,26.952a12.45,12.45,0,0,1-.83.953,7.888,7.888,0,0,1-.665.594,5.967,5.967,0,0,1-.833.562,5.239,5.239,0,0,1-.981.425,4.969,4.969,0,0,1-1.046.218l-0.519.037-0.5-.027a5.925,5.925,0,0,1-.937-0.143,8.379,8.379,0,0,1-.822-0.24,6.369,6.369,0,0,1-.7-0.282,8.416,8.416,0,0,1-.975-0.5l-0.361-.2,0.407,0.063a8.154,8.154,0,0,0,1.067.125,5.536,5.536,0,0,0,.692.02,7.378,7.378,0,0,0,.758-0.053,4.722,4.722,0,0,0,.763-0.159l0.368-.114,0.342-.16a3.589,3.589,0,0,0,1.676-1.86c0.141-.333.242-0.627,0.318-0.857s0.13-.381.13-0.381l2.92,1.645Z" transform="translate(-798 -336)"/>
</svg>
