<svg xmlns="http://www.w3.org/2000/svg" width="57" height="57.938" viewBox="0 0 57 57.938">
  <defs>
    <style>
      .cls-1 {
        fill: #fa5e31;
        fill-rule: evenodd;
      }
    </style>
  </defs>
  <path id="Forma_1" data-name="Forma 1" class="cls-1" d="M598.562,246.8a2.222,2.222,0,0,0-.542.9l0.132,0.051A2.432,2.432,0,0,1,598.562,246.8Zm-12.78,57h33.2v-5.069H592.966A16.942,16.942,0,0,1,585.782,303.8Zm33.2-6.755v-5.073h-22.6a16.925,16.925,0,0,1-2.192,5.073h24.793Zm-22.058-9.279a17.123,17.123,0,0,1-.155,2.168c9.128,0,19.088-.018,19.413-0.018,0.592,0,.643-2.039.643-2.039,0.755-6.578-2.473-12.708-2.473-12.708-0.973-2.172-6.888-4.051-6.888-4.051-3.154-1.114-3.179-2.233-3.179-2.233-6.2,12.319-10.915.029-10.915,0.029-0.348,1.34-4.541,2.863-6.169,3.408A17.1,17.1,0,0,1,596.929,287.768Zm-5.117-25.387c0.476,3.957,3.858,8.059,6.924,8.059,3.532,0,6.887-4.31,7.411-8.059a1.84,1.84,0,0,0,.641-1.274s0.756-2.716-.244-2.426c0.353-1.051,1.5-5.131-.729-7.664a7.111,7.111,0,0,0-3.6-2.2c-0.087-.073-0.179-0.154-0.282-0.225a1.86,1.86,0,0,1,.134.184c-0.14-.049-0.294-0.08-0.446-0.122-0.139-.142-0.292-0.292-0.469-0.454a4.293,4.293,0,0,1,.339.428c-0.071-.015-0.133-0.033-0.2-0.048a4.475,4.475,0,0,0-.433-0.541s0.075,0.143.169,0.365a3.075,3.075,0,0,1-1.411-2.048,2.6,2.6,0,0,0-.93.783,2.35,2.35,0,0,1,.732-1.115,2.569,2.569,0,0,0-.748.629,2.355,2.355,0,0,0-1.123,1.373l-0.2-.106a3.153,3.153,0,0,1,.427-0.682,3.093,3.093,0,0,0-.516.638l-0.406-.208a3.325,3.325,0,0,1,.5-0.695,3.711,3.711,0,0,0-.453.458c0.067-.269.056-0.578-0.768,0.341,0,0-3.718,1.614-4.792,4.976,0,0-.634,1.52.205,5.99-1.19-.569-0.379,2.367-0.379,2.367A1.822,1.822,0,0,0,591.812,262.381Zm6.75-15.58a2.4,2.4,0,0,0-.41.953l-0.134-.051A2.249,2.249,0,0,1,598.562,246.8Zm-4.368,40.967a16.091,16.091,0,1,0-16.089,16.209A16.15,16.15,0,0,0,594.194,287.768Zm-21.744,9.407c-0.4-1.639.983-3.4,3.106-3.935a4.642,4.642,0,0,1,2.672.085V275.191a1.188,1.188,0,0,1,1.15-.921s-0.014.905,5.451,4.751a7.007,7.007,0,0,1,2.794,5.154c-3.644-5.757-7.365-5.555-7.365-5.555l-0.048,17.219h0a3.848,3.848,0,0,1-3.175,3.333C574.912,299.714,572.69,298.7,572.45,297.175Z" transform="translate(-562 -246.031)"/>
</svg>
