<svg xmlns="http://www.w3.org/2000/svg" width="49" height="40" viewBox="0 0 49 40">
  <defs>
    <style>
      .cls-1 {
        fill: #fa5e31;
        fill-rule: evenodd;
      }
    </style>
  </defs>
  <path id="Forma_1" data-name="Forma 1" class="cls-1" d="M910.083,142.788H896.528A1.538,1.538,0,0,0,895,144.337a8.306,8.306,0,1,0,16.611,0A1.538,1.538,0,0,0,910.083,142.788Zm-6.777,6.869a5.268,5.268,0,0,1-5.022-3.771h10.043A5.267,5.267,0,0,1,903.306,149.657Zm39.165-6.869H928.917a1.538,1.538,0,0,0-1.528,1.549,8.306,8.306,0,1,0,16.611,0A1.538,1.538,0,0,0,942.471,142.788Zm-6.777,6.869a5.268,5.268,0,0,1-5.022-3.771h10.044A5.268,5.268,0,0,1,935.694,149.657ZM924.544,161.9h-3.516V131.577c1.359-.165,2.919-0.5,4.544-0.854a47.783,47.783,0,0,1,5.448-.973c2.062-.186,2.733.162,2.926,0.32a0.574,0.574,0,0,1,.2.424l-2.9,9.8a1.552,1.552,0,0,0,1.024,1.929,1.526,1.526,0,0,0,1.9-1.038l1.52-5.135,1.521,5.135a1.532,1.532,0,0,0,1.463,1.1,1.491,1.491,0,0,0,.44-0.066,1.552,1.552,0,0,0,1.025-1.929l-2.934-9.905a3.731,3.731,0,0,0-1.338-2.732c-2.254-1.848-6.471-.935-10.935.032-1.409.306-2.764,0.6-3.9,0.761v-1.905a1.529,1.529,0,1,0-3.057,0v1.905c-1.14-.162-2.5-0.455-3.9-0.761-4.464-.967-8.681-1.88-10.935-0.032a3.735,3.735,0,0,0-1.339,2.732L898.86,140.3a1.552,1.552,0,0,0,1.024,1.929,1.526,1.526,0,0,0,1.9-1.038l1.52-5.135,1.521,5.135a1.532,1.532,0,0,0,1.463,1.1,1.5,1.5,0,0,0,.441-0.066,1.552,1.552,0,0,0,1.024-1.929l-2.9-9.8a0.577,0.577,0,0,1,.2-0.424c0.193-.158.863-0.506,2.926-0.32a47.783,47.783,0,0,1,5.448.973c1.625,0.352,3.184.689,4.543,0.854V161.9h-3.515a1.549,1.549,0,0,0,0,3.1h10.088A1.549,1.549,0,0,0,924.544,161.9Z" transform="translate(-895 -125)"/>
</svg>
