<svg xmlns="http://www.w3.org/2000/svg" width="78" height="65" viewBox="0 0 78 65">
  <defs>
    <style>
      .cls-1 {
        fill: #fb5e31;
        fill-rule: evenodd;
      }
    </style>
  </defs>
  <path id="Forma_1_copy_3" data-name="Forma 1 copy 3" class="cls-1" d="M723.77,130.6H699.856v-6.531A1.069,1.069,0,0,0,698.793,123H677.207a1.069,1.069,0,0,0-1.063,1.074V130.6H652.23a3.253,3.253,0,0,0-3.23,3.267v50.862A3.252,3.252,0,0,0,652.23,188h71.54a3.252,3.252,0,0,0,3.23-3.266V133.872A3.253,3.253,0,0,0,723.77,130.6Zm0,55.247h-2.84v-3.991h3.946v2.873A1.114,1.114,0,0,1,723.77,185.852Zm-71.54-53.1h2.84v3.99h-0.333a0.987,0.987,0,0,0-.122-0.008,0.974,0.974,0,0,0-.122.008h-3.369v-2.872A1.113,1.113,0,0,1,652.23,132.754Zm66.575,0v2.455H715.71a1.074,1.074,0,0,0,0,2.148h3.095v0.461a1.069,1.069,0,0,0,1.063,1.074h0.455v8.594H655.677v-8.594h0.455a1.068,1.068,0,0,0,1.062-1.074v-0.461h53.629a1.074,1.074,0,0,0,0-2.148H657.194v-2.455h61.611Zm-21.074-7.606V130.6H695.7v-2.7a1.068,1.068,0,0,0-1.062-1.074H681.358A1.068,1.068,0,0,0,680.3,127.9v2.7h-2.027v-5.457h19.462Zm-4.152,5.457H682.42v-1.63h11.159v1.63Zm26.67,49.108-1.963-1.639,2.037-1.8v3.44h-0.074Zm-3.6-3.042-3.157-2.792,3.157-2.791,3.156,2.791Zm-60.388-2.792,3.155-2.791,3.157,2.791-3.156,2.791Zm63.544-8.436-3.156,2.79-3.155-2.79,3.155-2.791Zm-60.388-2.791,3.155,2.791-3.156,2.791-3.155-2.791Zm47.693,5.582-3.156-2.791,3.157-2.792,3.156,2.792Zm-6.383-2.791-3.156,2.791-3.157-2.791,3.157-2.792Zm-9.54,0-3.154,2.79-3.155-2.79,3.155-2.79Zm-9.536,0-3.156,2.791-3.157-2.791,3.157-2.792Zm-9.54,0-3.156,2.791-3.156-2.792,3.156-2.791Zm-7.926,1.426,3.157,2.792-3.156,2.791-3.156-2.791Zm6.383,2.792,3.157-2.791,3.156,2.792-3.156,2.791Zm9.54,0,3.157-2.792,3.154,2.79-3.156,2.792Zm9.538,0,3.155-2.79,3.157,2.791-3.155,2.791Zm9.538,0,3.157-2.791,3.156,2.792-3.156,2.791Zm9.54,0,3.156-2.792,3.156,2.79-3.157,2.792Zm-3.227-8.438-3.156,2.792-3.157-2.792,3.157-2.792Zm-9.54,0-3.156,2.792-3.155-2.79,3.157-2.792Zm-9.538,0-3.154,2.79-3.157-2.792,3.155-2.79Zm-9.538,0-3.156,2.793-3.157-2.792,3.157-2.792Zm-9.539,0-3.156,2.792-3.156-2.791,3.156-2.792Zm50.921,0,2.063-1.825v3.65Zm-60.46,0-2.123,1.878v-3.756Zm8,12.654,3.155-2.79,3.157,2.791-3.156,2.791Zm9.539,0,3.156-2.791,3.154,2.79-3.156,2.791Zm9.537,0,3.157-2.792,3.156,2.792-3.156,2.791Zm9.54,0,3.155-2.79,3.156,2.791-3.154,2.79Zm9.538,0,3.156-2.791,3.155,2.79-3.156,2.792Zm14.309-4.219,2.063-1.825v3.65Zm-3.227-8.436-3.156,2.791-3.156-2.792,1.933-1.709a1.084,1.084,0,0,0,.1-1.516,1.053,1.053,0,0,0-1.5-.1l-2.147,1.9-3.157-2.792,3.155-2.79Zm-14.309-4.22-3.156,2.792-3.155-2.79,3.157-2.792Zm-9.538,0L688.03,159.8l-3.157-2.792,3.157-2.791Zm-9.54,0-3.154,2.79-3.157-2.792,3.155-2.79Zm-9.537,0-3.157,2.792-3.155-2.791,3.157-2.792Zm-9.539,0-3.156,2.792-3.156-2.792,3.156-2.791Zm-4.77,12.655-2.123,1.878v-3.756Zm6.383,5.645,3.157,2.792-3.156,2.791-3.156-2.792Zm9.539,0,3.154,2.79-3.155,2.791-3.154-2.79Zm9.538,0,3.156,2.791-3.156,2.792L680.1,178.1Zm9.54,0,3.156,2.791-3.156,2.792-3.157-2.792Zm9.538,0,3.155,2.79-3.155,2.791-3.155-2.791Zm9.538,0,3.156,2.792-3.156,2.791L708.72,178.1Zm6.384-22.518,2.063-1.825v3.649ZM713.1,154.5a1.084,1.084,0,0,0-.1,1.516,1.054,1.054,0,0,0,1.5.1l2.147-1.9,3.156,2.791-3.156,2.792-7.926-7.01L711.876,150l3.157,2.792Zm-10.762,1.081-3.155-2.79L702.338,150l3.155,2.791Zm-9.538,0-3.157-2.792L692.8,150l3.157,2.792Zm-9.54,0-3.157-2.792L683.26,150l3.156,2.792Zm-9.538,0-3.155-2.791,3.154-2.79,3.155,2.791Zm-9.538,0-3.156-2.791L664.184,150l3.156,2.791Zm-8.507-.914v-3.756l2.123,1.878Zm3.711,24.837,1.975,1.746h-4.106Zm9.565,0.023,1.948,1.723h-3.895Zm9.537,0,1.948,1.723h-3.9Zm9.54,0,1.948,1.723h-3.9Zm9.54,0,1.948,1.724h-3.9Zm9.536,0,1.949,1.723h-3.9Zm9.56-.018,2.085,1.741H714.7Zm-0.02-28.146-1.952-1.727h3.9Zm-9.54,0-1.951-1.727h3.9Zm-9.536,0-1.953-1.727h3.905Zm-9.54,0-1.952-1.727h3.9Zm-9.54,0-1.952-1.727h3.9Zm-9.536,0L667,149.634h3.9Zm-9.541,0-1.951-1.726h3.9Zm-3.736,28.353v-3.494l2.088,1.847-2.009,1.647h-0.079Zm-2.125-40.821v9.667h0v31.153h-2.428V138.892h2.428Zm3.642,44.5h61.611v2.456H657.194V183.4Zm65.253-3.683V138.892h2.429v40.821h-2.429Zm2.429-42.969H720.93v-3.99h2.84a1.113,1.113,0,0,1,1.106,1.118v2.872Zm-73.752,45.117H654.5a0.908,0.908,0,0,0,.117.007,0.892,0.892,0,0,0,.116-0.007h0.339v3.991h-2.84a1.114,1.114,0,0,1-1.106-1.118v-2.873Zm19.707-42.985a3.546,3.546,0,1,0,3.507,3.546A3.53,3.53,0,0,0,670.831,138.876Zm0,4.943a1.4,1.4,0,1,1,1.382-1.4A1.391,1.391,0,0,1,670.831,143.819ZM662.7,139.6a2.822,2.822,0,1,0,2.791,2.822A2.81,2.81,0,0,0,662.7,139.6Zm0,3.5a0.674,0.674,0,1,1,.666-0.673A0.67,0.67,0,0,1,662.7,143.1Zm32.545-4.219a3.546,3.546,0,1,0,3.506,3.546A3.53,3.53,0,0,0,695.24,138.876Zm0,4.943a1.4,1.4,0,1,1,1.382-1.4A1.391,1.391,0,0,1,695.24,143.819Zm-18.752-3.905h0a3.579,3.579,0,0,0,0,5.015,3.478,3.478,0,0,0,4.959,0,3.575,3.575,0,0,0,0-5.015A3.484,3.484,0,0,0,676.488,139.914Zm3.457,3.5a1.373,1.373,0,0,1-1.955,0,1.411,1.411,0,0,1,0-1.976h0a1.373,1.373,0,0,1,1.955,0A1.409,1.409,0,0,1,679.945,143.41Zm20.952-3.5a3.579,3.579,0,0,0,0,5.015,3.483,3.483,0,0,0,4.959,0,3.579,3.579,0,0,0,0-5.015A3.484,3.484,0,0,0,700.9,139.914Zm3.457,3.5a1.373,1.373,0,0,1-1.955,0,1.411,1.411,0,0,1,0-1.977,1.375,1.375,0,0,1,1.955,0A1.413,1.413,0,0,1,704.354,143.41Zm-19.73-3.5a3.579,3.579,0,0,0,0,5.015,3.483,3.483,0,0,0,4.959,0,3.575,3.575,0,0,0,0-5.015A3.484,3.484,0,0,0,684.624,139.914Zm3.457,3.5a1.372,1.372,0,0,1-1.954,0,1.409,1.409,0,0,1,0-1.976,1.371,1.371,0,0,1,1.954,0A1.409,1.409,0,0,1,688.081,143.41Zm21.619-2.736v3.5a1.069,1.069,0,0,0,1.063,1.074h6.4a1.068,1.068,0,0,0,1.062-1.074v-3.5a1.068,1.068,0,0,0-1.062-1.074h-6.4A1.069,1.069,0,0,0,709.7,140.674Zm5.327,1.074h1.078V143.1h-1.078v-1.347ZM712.9,143.1h-1.078v-1.347H712.9V143.1Z" transform="translate(-649 -123)"/>
</svg>
