<svg xmlns="http://www.w3.org/2000/svg" width="41" height="44" viewBox="0 0 41 44">
  <defs>
    <style>
      .cls-1 {
        fill: #fa5e31;
        fill-rule: evenodd;
      }
    </style>
  </defs>
  <path id="Forma_1" data-name="Forma 1" class="cls-1" d="M186.688,125.109V121.2a3.19,3.19,0,1,0-6.38,0v3.909A7.531,7.531,0,0,1,186.688,125.109Zm-6.38,14.109V158.8a3.19,3.19,0,1,0,6.38,0V139.219A7.526,7.526,0,0,1,180.308,139.218ZM183.5,127.6a4.564,4.564,0,1,0,4.551,4.564A4.562,4.562,0,0,0,183.5,127.6Zm12.761,29.218V158.8a3.19,3.19,0,1,0,6.379,0v-1.981A7.524,7.524,0,0,1,196.259,156.818Zm6.379-14.109V121.2a3.19,3.19,0,1,0-6.379,0v21.509A7.529,7.529,0,0,1,202.638,142.709Zm-3.19,2.491A4.564,4.564,0,1,0,204,149.764,4.561,4.561,0,0,0,199.448,145.2Zm-35.09,8.418V158.8a3.19,3.19,0,1,0,6.38,0v-5.181A7.526,7.526,0,0,1,164.358,153.618Zm6.38-14.109V121.2a3.19,3.19,0,1,0-6.38,0v18.309A7.531,7.531,0,0,1,170.738,139.509ZM167.548,142a4.564,4.564,0,1,0,4.552,4.564A4.561,4.561,0,0,0,167.548,142Z" transform="translate(-163 -118)"/>
</svg>
