<svg xmlns="http://www.w3.org/2000/svg" width="77" height="58" viewBox="0 0 77 58">
  <defs>
    <style>
      .cls-1 {
        fill: #fb5e31;
        fill-rule: evenodd;
      }
    </style>
  </defs>
  <path id="Forma_1_copy_4" data-name="Forma 1 copy 4" class="cls-1" d="M445.9,175.359h53.611V130.728H445.9v44.631Zm1.421-1.432V140.141h50.769v33.786H447.319Zm50.769-35.218h-14.9V132.16h14.9v6.549Zm-16.323-6.549v6.549H447.319V132.16h34.446Zm-30.617,5.585a2.311,2.311,0,1,0-2.293-2.31A2.3,2.3,0,0,0,451.148,137.745Zm-0.71-2.816v0.025a0.711,0.711,0,1,0,1.421,0v-0.025A0.873,0.873,0,1,1,450.438,134.929Zm7.04,2.816a2.311,2.311,0,1,0-2.294-2.31A2.3,2.3,0,0,0,457.478,137.745Zm-0.711-2.817v0.026a0.711,0.711,0,1,0,1.421,0v-0.025A0.872,0.872,0,1,1,456.767,134.928Zm7.04,2.817a2.311,2.311,0,1,0-2.293-2.31A2.3,2.3,0,0,0,463.807,137.745Zm-0.71-2.817v0.026a0.711,0.711,0,1,0,1.421,0v-0.025A0.872,0.872,0,1,1,463.1,134.928Zm7.04,2.817a2.311,2.311,0,1,0-2.294-2.31A2.3,2.3,0,0,0,470.137,137.745Zm-0.711-2.817v0.026a0.711,0.711,0,1,0,1.421,0v-0.025A0.872,0.872,0,1,1,469.426,134.928Zm7.04,2.817a2.311,2.311,0,1,0-2.293-2.31A2.3,2.3,0,0,0,476.466,137.745Zm-0.711-2.816v0.025a0.711,0.711,0,1,0,1.421,0v-0.025a0.867,0.867,0,0,1,.162.506A0.872,0.872,0,1,1,475.755,134.929Zm20.279,2.841V133.1H490.26v4.671h5.774Zm-4.353-3.239h2.932v1.808h-2.932v-1.808ZM519,145.927a2.861,2.861,0,0,0-2.132-2.769v-5.015a0.711,0.711,0,1,0-1.421,0v5.015a2.861,2.861,0,0,0-2.131,2.769v6.084h2.131v24.245a3.286,3.286,0,1,1-6.572,0v-2.147a4.73,4.73,0,0,0-4.707-4.742h-0.76v-37.56a4.487,4.487,0,0,0-4.466-4.5H481.023v-2.227a2.075,2.075,0,0,0-2.065-2.08H466.325a2.075,2.075,0,0,0-2.066,2.08v2.227H446.466a4.487,4.487,0,0,0-4.466,4.5V174.28a4.488,4.488,0,0,0,4.4,4.5v2.028h4.062v-2.027h44.481v2.027h4.062v-2.028a4.488,4.488,0,0,0,4.4-4.5V170.8h0.759a3.3,3.3,0,0,1,3.287,3.31v2.147a4.707,4.707,0,1,0,9.414,0V152.011H519v-6.084h0Zm-53.32-20.846a0.647,0.647,0,0,1,.645-0.649h12.633a0.647,0.647,0,0,1,.644.649v0.2H465.68v-0.2Zm0,1.632H479.6v0.6H465.68v-0.6Zm-16.638,52.662h-1.219v-0.6h1.219v0.6Zm47.324,0v-0.6h1.219v0.6h-1.219Zm5.621-5.095a3.06,3.06,0,0,1-3.045,3.068H446.466a3.06,3.06,0,0,1-3.045-3.068V131.807a3.06,3.06,0,0,1,3.045-3.068h52.476a3.06,3.06,0,0,1,3.045,3.068V174.28ZM516.158,144.5a1.428,1.428,0,0,1,1.421,1.432v2.236h-2.842v-2.236A1.428,1.428,0,0,1,516.158,144.5Zm-1.421,6.084V149.6h2.842v0.984h-2.842Z" transform="translate(-442 -123)"/>
</svg>
