<svg xmlns="http://www.w3.org/2000/svg" width="79.938" height="76.062" viewBox="0 0 79.938 76.062">
  <defs>
    <style>
      .cls-1 {
        fill: #fb5e31;
        fill-rule: evenodd;
      }
    </style>
  </defs>
  <path id="Forma_1" data-name="Forma 1" class="cls-1" d="M77.328,135.076v-8.127l-14.419-1.093V111.88c7.19-.057,12.882-0.768,12.882-1.638s-5.692-1.58-12.882-1.637v-1.643h-1.8v1.643c-7.193.06-12.889,0.771-12.889,1.641s5.7,1.58,12.889,1.637V125.72L48.5,124.763v24.214l-1.239-.085-0.217,3.016,14.966,1.064v23.91l-6.944,3.971v2.185l1.113-.633v0.633l7.124-4.063,7.46,4.063v-0.605l1.116,0.605v-2.185l-6.734-3.667V153.193l0.975,0.071A21.793,21.793,0,0,1,77.328,135.076ZM114.4,152.957l12.556-1.049-0.215-3.016-1.229.092V124.763l-19.054,1.564-0.319.22-0.123-.183-7.147.588v8.327a21.8,21.8,0,0,1,10.869,18.013l2.648-.191v23l-6.944,3.967v2.188l7.662-4.382,8.035,4.382v-2.188l-6.733-3.667v-23.44H114.4Zm-26.686-18.45A19.938,19.938,0,0,0,78,171.868v10.869h2.97v-9.513a19.968,19.968,0,0,0,13.945-.171v9.684h2.967V171.862H97.446A19.937,19.937,0,0,0,87.716,134.507Zm0,27.883a7.941,7.941,0,1,1,7.945-7.938A7.953,7.953,0,0,1,87.716,162.39Zm19.266-36.419,19.976-3.254-0.3-1.788-16.124,2.628,14.306-9.72-1.02-1.5-17.537,11.909-1.947.318,0.292,1.79,1.244-.2,0.135,0.207,0.448-.034Z" transform="translate(-47.031 -106.969)"/>
</svg>
