<svg xmlns="http://www.w3.org/2000/svg" width="48" height="48" viewBox="0 0 48 48">
  <defs>
    <style>
      .cls-1 {
        fill: #fa5e31;
        fill-rule: evenodd;
      }
    </style>
  </defs>
  <path id="Forma_1" data-name="Forma 1" class="cls-1" d="M774,138a24,24,0,1,0,24,24A24,24,0,0,0,774,138Zm0,43.2A19.2,19.2,0,1,1,793.2,162,19.2,19.2,0,0,1,774,181.2Zm8.79-12.769a3.941,3.941,0,0,1-3.425,4.155,3.511,3.511,0,0,1-3.985-3.236,3.939,3.939,0,0,1,3.425-4.153,3.641,3.641,0,0,1,1.818.234V155.407l-9.6,1.786v12.522h-0.018a0.923,0.923,0,0,1,.013.1,3.938,3.938,0,0,1-3.422,4.153,3.511,3.511,0,0,1-3.984-3.235,3.932,3.932,0,0,1,3.421-4.153,3.579,3.579,0,0,1,1.819.237V152.383l13.927-2.378,0.014,0v0l0,0,0,0.063V168.33h-0.019C782.78,168.365,782.786,168.4,782.79,168.431Z" transform="translate(-750 -138)"/>
</svg>
