<svg xmlns="http://www.w3.org/2000/svg" width="59.563" height="59.844" viewBox="0 0 59.563 59.844">
  <defs>
    <style>
      .cls-1 {
        fill: #fa5e31;
        fill-rule: evenodd;
      }
    </style>
  </defs>
  <path id="Forma_1" data-name="Forma 1" class="cls-1" d="M279.455,140.464l-8.346,8.35-0.7-.7,8.347-8.35a1,1,0,1,0-1.41-1.41L269,146.7l-0.7-.705,9.343-9.347a1,1,0,0,0-1.409-1.41l-9.344,9.347-1.41-1.411a1,1,0,0,0-1.436.028l-2.821,3.051a1,1,0,0,0,.027,1.382L269.7,156.1a1,1,0,0,0,.7.292h0.02a1,1,0,0,0,.712-0.32l2.821-3.051a1,1,0,0,0-.027-1.382l-1.409-1.41,8.347-8.35A1,1,0,0,0,279.455,140.464Zm-9.081,13.488-7.047-7.05,1.466-1.585,1.381,1.382h0a0,0,0,0,1,0,0l2.112,2.114h0l3.55,3.552Zm45.161-49.594h0a3.245,3.245,0,0,0-3.7-2.185,18.964,18.964,0,0,0-3.656.807l-0.538-.539a1,1,0,0,0-.7-0.292h-1.994a0.994,0.994,0,0,0-.7.292l-1,1a0.994,0.994,0,0,0-.292.705v1.238q-0.406.252-.811,0.527l-0.478-.477a0.991,0.991,0,0,0-.7-0.292h-1.994a0.993,0.993,0,0,0-.7.292l-1,1a0.992,0.992,0,0,0-.292.7v1.994a0.988,0.988,0,0,0,.292.7l0.364,0.365a4.884,4.884,0,0,0-.548,1.752L281.03,130.721a17.435,17.435,0,0,1,.444-1.715,4.093,4.093,0,0,0-.5-3.5,3.925,3.925,0,0,0-2.9-1.764c-1.673-.16-3.252.686-4.684,2.517l-0.115.146-0.053.178c-0.73,2.4-3.394,8.834-6.908,9.776a15.027,15.027,0,0,0-6.464,3.234c-4.135,3.755-4.848,8.612-2.008,13.679a18.459,18.459,0,0,0,4.843,5.546c0.63,0.489,1.272.941,1.91,1.346a11.663,11.663,0,0,0,11.455.631,11.243,11.243,0,0,0,6.277-9.1l0.021-.26a8.512,8.512,0,0,1,5.366-7.48q0.488-.179,1.025-0.327a3.084,3.084,0,0,0,1.875-1.475,2.72,2.72,0,0,0,.233-2.113c-0.386-1.264-1.68-2.54-5.684-1.43a2.337,2.337,0,0,1-.618.053l18.206-21.1a5.234,5.234,0,0,0,.722-0.176,6.388,6.388,0,0,0,1.694-.857,4.738,4.738,0,0,0,1.739-2.438c0.042-.132.082-0.272,0.124-0.422a4.215,4.215,0,0,1,1.218-2.222,9.194,9.194,0,0,1,2.187-1.09l0.377-.152a3.624,3.624,0,0,1,.6-0.137,5.1,5.1,0,0,0,3.131-1.532A4.222,4.222,0,0,0,315.535,104.358Zm-10.176-.214h1.156l0.425,0.418v1.164l-0.413.413h-1.168l-0.413-.413v-1.169Zm-5.98,2.992h1.168l0.413,0.413v1.168l-0.413.413h-1.168l-0.413-.413v-1.168ZM295.1,123.375l-2.783-2.785,5.148-6.02a5.323,5.323,0,0,0,.5.916,4.934,4.934,0,0,0,2.345,1.857Zm-3.918,4.541-2.765-2.766,2.6-3.041,2.777,2.778Zm-3.918,4.541-2.746-2.747,2.6-3.041,2.759,2.759Zm-4.783,5.456a3.917,3.917,0,0,1-.6-0.553c-0.031-.035-0.06-0.07-0.089-0.105a4.343,4.343,0,0,1-.469-0.693c-0.021-.038-0.039-0.078-0.059-0.117a4.7,4.7,0,0,1-.327-0.823c-0.008-.029-0.013-0.059-0.021-0.088a5.167,5.167,0,0,1-.167-0.959c-0.01-.138-0.018-0.284-0.022-0.436l2.49-2.912,2.74,2.741-3.43,3.975C282.514,137.934,282.5,137.924,282.483,137.913Zm3.23,2.615c1.817-.5,3.053-0.469,3.224.095a0.73,0.73,0,0,1-.073.57,1.089,1.089,0,0,1-.657.513c-0.412.113-.806,0.24-1.179,0.376a10.505,10.505,0,0,0-6.672,9.2l-0.019.228a9.259,9.259,0,0,1-5.171,7.493,9.678,9.678,0,0,1-9.511-.527c-0.584-.37-1.174-0.784-1.753-1.234a16.479,16.479,0,0,1-4.327-4.946c-2.407-4.3-1.865-8.074,1.609-11.229a13.179,13.179,0,0,1,5.641-2.785c4.945-1.324,7.791-9.544,8.24-10.934,0.948-1.167,1.892-1.714,2.812-1.625a1.95,1.95,0,0,1,1.43.881,2.107,2.107,0,0,1,.265,1.8,17.413,17.413,0,0,0-.83,5.305c0,0.026-.013.051-0.013,0.077,0,0.33.013,0.645,0.034,0.932a7.023,7.023,0,0,0,.3,1.579,6.211,6.211,0,0,0,2.723,3.546c0.021,0.013.041,0.02,0.063,0.032,0.152,0.086.3,0.16,0.479,0.245h0.007A4.981,4.981,0,0,0,285.713,140.528Zm27.371-33.345a3.19,3.19,0,0,1-2.017.922,4.883,4.883,0,0,0-1.01.254l-0.367.149a9.707,9.707,0,0,0-2.8,1.478,6.206,6.206,0,0,0-1.779,3.144c-0.036.126-.069,0.246-0.1,0.359a2.737,2.737,0,0,1-.992,1.413,4.394,4.394,0,0,1-1.163.589,3.066,3.066,0,0,1-.54.127,0.918,0.918,0,0,0-.128-0.009,2.743,2.743,0,0,1-2.122-.78,3.294,3.294,0,0,1-1.019-2.438c0-.022-0.007-0.042-0.008-0.063a2.748,2.748,0,0,1,.354-1.2h1.986l0.292-.293,1-1,0.292-.292v-1.775c0.24-.17.481-0.335,0.724-0.492l0.565,0.565,0.292,0.292h2.818l0.293-.292,1-1,0.292-.292v-1.72a16.834,16.834,0,0,1,3.083-.672c1.153-.107,1.471.357,1.627,0.828A2.268,2.268,0,0,1,313.084,107.183Z" transform="translate(-256.156 -102.156)"/>
</svg>
