<svg xmlns="http://www.w3.org/2000/svg" width="39" height="49" viewBox="0 0 39 49">
  <defs>
    <style>
      .cls-1 {
        fill: #fa5e31;
        fill-rule: evenodd;
      }
    </style>
  </defs>
  <path id="q" class="cls-1" d="M766,250.588a1.578,1.578,0,0,0-1.7-1.442c-6.328.541-7.206-.862-12.152-4.476a5.607,5.607,0,0,0-5.206-1.033,6.076,6.076,0,0,0-1.263.584l-1.635-1.356a3.745,3.745,0,0,0-4.788,0L728.365,251.9A3.771,3.771,0,0,0,727,254.809v32.413A3.773,3.773,0,0,0,730.759,291h21.766a3.773,3.773,0,0,0,3.759-3.778V254.809a3.771,3.771,0,0,0-1.365-2.912l-6.448-5.351a2.9,2.9,0,0,1,1.817.683c4.95,3.617,6.653,5.721,14.271,5.069A1.579,1.579,0,0,0,766,250.588Zm-22.237,2.228a2.116,2.116,0,1,1-3.083-1.888c-0.292.7-.469,1.212-0.528,1.391a1.576,1.576,0,1,0,2.99,1c0.1-.309.266-0.745,0.483-1.248A2.124,2.124,0,0,1,743.758,252.816Zm9.155,1.52a0.61,0.61,0,0,1,.223.473v32.413a0.613,0.613,0,0,1-.611.614H730.759a0.613,0.613,0,0,1-.61-0.614V254.809a0.612,0.612,0,0,1,.222-0.473l10.882-9.032a0.61,0.61,0,0,1,.778,0l1.278,1.061a15.027,15.027,0,0,0-.884,1.22A5.294,5.294,0,1,0,745.28,249c0.147-.214.3-0.421,0.456-0.619ZM734,275.569h1.891v1.883H734v2.255h1.891v3.282h2.665v-3.282h9.628v-2.255h-9.628V275.54h2.665c2.866,0,4.642-.685,6.018-2.055a6.051,6.051,0,0,0,1.776-4.452,5.288,5.288,0,0,0-2.407-4.766,8.868,8.868,0,0,0-5.3-1.256h-5.416v10.275H734v2.283Zm12.236-6.45a3.86,3.86,0,0,1-1.147,2.939c-0.888.828-2.12,1.228-4.3,1.228h-2.235v-7.992h2.636a6.171,6.171,0,0,1,3.582.8A3.294,3.294,0,0,1,746.233,269.119Z" transform="translate(-727 -242)"/>
</svg>
