<svg xmlns="http://www.w3.org/2000/svg" width="48" height="30" viewBox="0 0 48 30">
  <defs>
    <style>
      .cls-1 {
        fill: #fb5e31;
        fill-rule: evenodd;
      }
    </style>
  </defs>
  <path class="cls-1" d="M1247.93,177.29l-4.17-9.937a0.941,0.941,0,0,0-.88-0.581h-10.89v-1.834a0.949,0.949,0,0,0-.96-0.938h-30.07a0.949,0.949,0,0,0-.96.938v24.781a0.949,0.949,0,0,0,.96.938h2.76a4.379,4.379,0,0,0,8.51,0h21.78a4.386,4.386,0,0,0,8.52,0h4.51a0.949,0.949,0,0,0,.96-0.938V177.647A0.875,0.875,0,0,0,1247.93,177.29Zm-46.02-11.414h28.17V182.1h-28.17V165.876Zm6.07,26.248a2.406,2.406,0,1,1,2.45-2.405A2.434,2.434,0,0,1,1207.98,192.124Zm30.29,0a2.406,2.406,0,1,1,2.45-2.405A2.431,2.431,0,0,1,1238.27,192.124Zm7.82-11.144h-1.41a0.938,0.938,0,1,0,0,1.876h1.41v1.1h-1.41a0.938,0.938,0,1,0,0,1.876h1.41v2.953h-3.56a4.386,4.386,0,0,0-8.52,0h-21.78a4.379,4.379,0,0,0-8.51,0h-1.81v-4.808h29.12a0.949,0.949,0,0,0,.96-0.938V168.648h10.25l3.85,9.184v3.148h0Zm-1.48-3.424-3.08-7.058a0.961,0.961,0,0,0-.88-0.569h-3.83a0.949,0.949,0,0,0-.96.938v7.058a0.949,0.949,0,0,0,.96.938h6.91a0.969,0.969,0,0,0,.8-0.422A0.9,0.9,0,0,0,1244.61,177.556Zm-6.83-.569v-5.182h2.24l2.26,5.182h-4.5Zm4.08,3.993h-0.3a0.938,0.938,0,1,0,0,1.876h0.3A0.938,0.938,0,1,0,1241.86,180.98Zm-18.37-7.236-6.62-6.3a0.966,0.966,0,0,0-1.33,0l-6.61,6.3a0.919,0.919,0,0,0-.22,1.026,0.964,0.964,0,0,0,.89.585h0.98v4.329a0.941,0.941,0,0,0,.95.938h9.35a0.949,0.949,0,0,0,.96-0.938v-4.329h0.98a0.964,0.964,0,0,0,.89-0.585A0.936,0.936,0,0,0,1223.49,173.744Zm-3.56.673v4.329h-7.44v-4.329a0.935,0.935,0,0,0-.61-0.872l4.33-4.118,4.32,4.118A0.941,0.941,0,0,0,1219.93,174.417Z" transform="translate(-1200 -164)"/>
</svg>
