<svg xmlns="http://www.w3.org/2000/svg" width="43.97" height="43.969" viewBox="0 0 43.97 43.969">
  <defs>
    <style>
      .cls-1 {
        fill: #fb5e31;
        fill-rule: evenodd;
      }
    </style>
  </defs>
  <path class="cls-1" d="M1245.58,259.987l-3.73-3.771,1.35-5.132a1.436,1.436,0,0,0-1.02-1.753l-5.11-1.4-1.4-5.119a1.444,1.444,0,0,0-1.76-1.012l-5.13,1.348-3.77-3.733a1.432,1.432,0,0,0-2.02,0l-3.77,3.733-5.14-1.348a1.438,1.438,0,0,0-1.75,1.013l-1.4,5.118-5.12,1.4a1.438,1.438,0,0,0-1.01,1.753l1.35,5.132-3.73,3.771a1.43,1.43,0,0,0,0,2.025l3.73,3.77-1.35,5.133a1.438,1.438,0,0,0,1.01,1.753l5.12,1.4,1.4,5.119a1.438,1.438,0,0,0,1.75,1.013l5.14-1.349,3.77,3.734A1.421,1.421,0,0,0,1224,283a1.438,1.438,0,0,0,1.01-.417l3.77-3.734,5.13,1.349a1.444,1.444,0,0,0,1.76-1.013l1.4-5.119,5.11-1.4a1.436,1.436,0,0,0,1.02-1.753l-1.35-5.133,3.73-3.77A1.43,1.43,0,0,0,1245.58,259.987Zm-6.35,4.354a1.434,1.434,0,0,0-.37,1.378l1.19,4.549-4.54,1.239a1.422,1.422,0,0,0-1,1.009l-1.24,4.537-4.55-1.195a1.442,1.442,0,0,0-1.38.369l-3.34,3.309-3.34-3.309a1.459,1.459,0,0,0-1.02-.416,1.391,1.391,0,0,0-.36.047l-4.55,1.195-1.24-4.537a1.435,1.435,0,0,0-1.01-1.009l-4.53-1.239,1.19-4.549a1.434,1.434,0,0,0-.37-1.378L1205.46,261l3.31-3.341a1.434,1.434,0,0,0,.37-1.378l-1.19-4.549,4.53-1.24a1.434,1.434,0,0,0,1.01-1.008l1.24-4.537,4.55,1.195a1.444,1.444,0,0,0,1.38-.369l3.34-3.309,3.34,3.309a1.444,1.444,0,0,0,1.38.369l4.55-1.195,1.24,4.537a1.421,1.421,0,0,0,1,1.008l4.54,1.24-1.19,4.549a1.434,1.434,0,0,0,.37,1.378l3.3,3.341Zm-20.99-13.892a4.8,4.8,0,1,0,4.8,4.795A4.8,4.8,0,0,0,1218.24,250.449Zm0,6.714a1.919,1.919,0,1,1,1.92-1.919A1.919,1.919,0,0,1,1218.24,257.163Zm11.51,4.8a4.8,4.8,0,1,0,4.8,4.8A4.8,4.8,0,0,0,1229.75,261.959Zm0,6.714a1.919,1.919,0,1,1,1.92-1.919A1.919,1.919,0,0,1,1229.75,268.673Zm1.98-15.4a1.433,1.433,0,0,0-2.03,0L1216.27,266.7a1.437,1.437,0,1,0,2.03,2.035l13.43-13.428A1.443,1.443,0,0,0,1231.73,253.268Z" transform="translate(-1202.03 -239.031)"/>
</svg>
