<svg xmlns="http://www.w3.org/2000/svg" width="41" height="45" viewBox="0 0 41 45">
  <defs>
    <style>
      .cls-1 {
        fill: #fa5e31;
        fill-rule: evenodd;
      }
    </style>
  </defs>
  <path class="cls-1" d="M941,327.911v-8.637a1.282,1.282,0,0,0-.524-1.028,1.321,1.321,0,0,0-1.152-.189l-25.991,8.176a1.278,1.278,0,0,0-.895,1.216v25.187a9.13,9.13,0,0,0-10.105.17,5.112,5.112,0,0,0,0,8.581,9.1,9.1,0,0,0,10.343,0,5.338,5.338,0,0,0,2.334-4.29V337.03l23.418-7.374v14.767a9.123,9.123,0,0,0-10.1.17,5.111,5.111,0,0,0,0,8.581,9.1,9.1,0,0,0,10.343,0A5.34,5.34,0,0,0,941,348.883V327.911Zm-33.5,32.543c-2.677,0-4.934-1.537-4.934-3.357s2.257-3.357,4.934-3.357,4.933,1.537,4.933,3.357S910.181,360.454,907.505,360.454Zm7.5-26.1v-5.979l23.418-7.364v5.978Zm18.5,17.888c-2.676,0-4.934-1.537-4.934-3.357s2.258-3.357,4.934-3.357,4.933,1.537,4.933,3.357S936.171,352.24,933.505,352.24Z" transform="translate(-900 -318)"/>
</svg>
