<svg xmlns="http://www.w3.org/2000/svg" width="51.938" height="52" viewBox="0 0 51.938 52">
  <defs>
    <style>
      .cls-1 {
        fill: #fa5e31;
        fill-rule: evenodd;
      }
    </style>
  </defs>
  <path class="cls-1" d="M928.574,410.434a7.489,7.489,0,0,0-5.55-2.434h-6.048a7.489,7.489,0,0,0-5.55,2.434,7.673,7.673,0,0,0-2.039,5.761l0.269,4.17,0.628,9.737a9.816,9.816,0,0,0,5.024,7.991,9.593,9.593,0,0,0,9.385,0,9.82,9.82,0,0,0,5.024-7.991l0.717-11.126h0l0.179-2.78A7.669,7.669,0,0,0,928.574,410.434Zm-17.12,5.625a5.581,5.581,0,0,1,1.484-4.192,5.448,5.448,0,0,1,4.038-1.771h6.048c0.134,0,.267.006,0.4,0.016l-1.6,4.323a7.808,7.808,0,0,1-2.241,2.183,16.668,16.668,0,0,1-7.925,2.555Zm16.2,13.906a7.726,7.726,0,0,1-3.955,6.291,7.546,7.546,0,0,1-7.388,0,7.729,7.729,0,0,1-3.956-6.29l-0.56-8.7c5.834-.541,9.016-2.7,10.584-4.247a6.01,6.01,0,0,0,1.792,1.338,20.189,20.189,0,0,0,4.143,1.369Zm0.9-13.906-0.1,1.54a16.414,16.414,0,0,1-3.33-1.106c-1.129-.59-1.384-1.078-1.391-1.228,0,0,0,0,0-.007l0,0,1.706-4.6A5.62,5.62,0,0,1,928.546,416.059Zm17.437,42.706-1-5.593a15.544,15.544,0,0,0-4.26-8.229,15.259,15.259,0,0,0-8.016-4.284h0a15.258,15.258,0,0,0-2.853-.269h-3.016a1.028,1.028,0,0,0-.733.307l-6.1,6.175-6.1-6.176a1.032,1.032,0,0,0-.733-0.307h-3.016a15.266,15.266,0,0,0-2.853.27h0a15.254,15.254,0,0,0-8.016,4.283,15.533,15.533,0,0,0-4.26,8.23l-1,5.593a1.056,1.056,0,0,0,.224.859,1.032,1.032,0,0,0,.795.376h49.928a1.032,1.032,0,0,0,.795-0.376A1.056,1.056,0,0,0,945.983,458.765Zm-25.251-9.67,6.534-6.61h2.587c0.134,0,.268,0,0.4.007l-5.127,5.187L920,452.867l-1.5-1.515Zm-10.585-6.61h2.587l5.8,5.869-1.5,1.515-2.165-2.19-5.127-5.187C909.879,442.487,910.013,442.485,910.147,442.485ZM896.276,457.9l0.781-4.359a13.467,13.467,0,0,1,10.093-10.714l12.118,12.259a1.026,1.026,0,0,0,1.464,0l12.118-12.259a13.468,13.468,0,0,1,10.093,10.714l0.781,4.359H896.276Z" transform="translate(-894.031 -408)"/>
</svg>
