<svg xmlns="http://www.w3.org/2000/svg" width="75" height="41" viewBox="0 0 75 41">
  <defs>
    <style>
      .cls-1 {
        fill: #fa5e31;
        fill-rule: evenodd;
      }
    </style>
  </defs>
  <path class="cls-1" d="M118.7,246.414a10.88,10.88,0,0,0-8.117-3.4h-7.718v-4.17a1.846,1.846,0,0,0-1.841-1.84H64.262a1.846,1.846,0,0,0-1.841,1.84v6.409H55.255a1.84,1.84,0,1,0,0,3.68h9.022a1.846,1.846,0,0,0,1.841-1.84V240.68H99.2v28.841H81.861a1.187,1.187,0,0,0-.23.015,6.175,6.175,0,0,0-11.477.031,1.751,1.751,0,0,0-.4-0.046H66.118V263.1a1.845,1.845,0,0,0-1.841-1.839H55.255a1.84,1.84,0,1,0,0,3.679H62.42v6.409a1.846,1.846,0,0,0,1.841,1.84h5.6a6.183,6.183,0,0,0,12.06,0h22.064a6.184,6.184,0,0,0,12.061,0h4.112a1.846,1.846,0,0,0,1.841-1.84V256.059A13.942,13.942,0,0,0,118.7,246.414ZM75.892,274.335a2.5,2.5,0,1,1,2.5-2.5A2.5,2.5,0,0,1,75.892,274.335Zm34.124,0a2.5,2.5,0,1,1,2.5-2.5A2.5,2.5,0,0,1,110.016,274.335Zm8.3-4.814H115.74a6.171,6.171,0,0,0-11.447,0h-1.411V246.69H110.6c4.833,0,7.717,3.512,7.717,9.384v13.447ZM78.623,258.543a1.84,1.84,0,0,0,1.3,3.143,1.874,1.874,0,0,0,1.3-.537l4.741-4.738,0.015-.015c0.031-.046.077-0.077,0.107-0.123,0.015-.03.031-0.046,0.046-0.076a0.269,0.269,0,0,1,.061-0.077l0.046-.092c0.015-.031.031-0.046,0.046-0.077l0.046-.092a0.159,0.159,0,0,0,.031-0.076c0.016-.031.016-0.062,0.031-0.092a0.381,0.381,0,0,1,.031-0.077,0.194,0.194,0,0,0,.015-0.092c0-.031.015-0.061,0.015-0.092s0.015-.061.015-0.107,0.015-.046.015-0.077a1.471,1.471,0,0,0,0-.368,0.14,0.14,0,0,0-.015-0.077c0-.03-0.015-0.061-0.015-0.107,0-.031-0.015-0.061-0.015-0.092s-0.015-.061-0.015-0.092a0.408,0.408,0,0,0-.031-0.077c-0.015-.03-0.015-0.061-0.031-0.092a0.161,0.161,0,0,1-.031-0.076l-0.046-.092c-0.015-.031-0.031-0.046-0.046-0.077L86.2,254a0.271,0.271,0,0,0-.061-0.077c-0.015-.03-0.031-0.046-0.046-0.076-0.031-.046-0.077-0.077-0.107-0.123l-0.015-.015-4.511-4.508a1.844,1.844,0,0,0-2.609,2.607l1.366,1.364H48.841a1.84,1.84,0,1,0,0,3.68H80.2Z" transform="translate(-47 -237)"/>
</svg>
