<svg xmlns="http://www.w3.org/2000/svg" width="38.031" height="50" viewBox="0 0 38.031 50">
  <defs>
    <style>
      .cls-1 {
        fill: #fb5e31;
        fill-rule: evenodd;
      }
    </style>
  </defs>
  <path class="cls-1" d="M202.548,247.805a1.667,1.667,0,0,0-2.324-.056l-0.807.752a1.664,1.664,0,0,0-1.717.337l-1.353,1.263a1.586,1.586,0,0,0-.428,1.664l-1.9,1.774-2.831-18.7a1.612,1.612,0,0,0-.832-1.173L182.1,229.2a1.678,1.678,0,0,0-1.59,0l-8.257,4.467a1.61,1.61,0,0,0-.831,1.174l-6.4,42.277a1.629,1.629,0,0,0,.381,1.306,1.676,1.676,0,0,0,1.245.576H195.96a1.672,1.672,0,0,0,1.244-.576,1.606,1.606,0,0,0,.382-1.3l-2.979-19.686,3.579-3.341a1.67,1.67,0,0,0,1.718-.34l1.353-1.263a1.579,1.579,0,0,0,.429-1.663l0.806-.752A1.587,1.587,0,0,0,202.548,247.805Zm-10.854,12.349,0.723,4.78H186.57ZM181.3,232.45l4.673,2.528H176.63Zm-7.067,5.749H188.37l2.741,18.058-4.917,4.592V246.055a1.655,1.655,0,0,0-1.658-1.629H178.07a1.632,1.632,0,0,0-1.631,1.629v18.879h-6.25Zm8.67,9.448v17.287h-3.179V247.647h3.179Zm-14.354,28.132,1.149-7.624h23.2l1.149,7.624h-25.5Z" transform="translate(-165 -229)"/>
</svg>
