<svg xmlns="http://www.w3.org/2000/svg" width="32" height="40" viewBox="0 0 32 40">
  <defs>
    <style>
      .cls-1 {
        fill: #fb5e31;
        fill-rule: evenodd;
      }
    </style>
  </defs>
  <path class="cls-1" d="M1140.67,227h-29.34a1.32,1.32,0,0,0-1.33,1.3V265.7a1.32,1.32,0,0,0,1.33,1.305h29.34A1.32,1.32,0,0,0,1142,265.7V228.3A1.32,1.32,0,0,0,1140.67,227Zm-1.34,37.391h-26.66V229.609h26.66v34.782h0ZM1126,232.217a5.219,5.219,0,1,0,5.33,5.218A5.28,5.28,0,0,0,1126,232.217Zm0,7.826a2.609,2.609,0,1,1,2.67-2.608A2.644,2.644,0,0,1,1126,240.043Zm0,6.087a7.828,7.828,0,1,0,8,7.826A7.924,7.924,0,0,0,1126,246.13Zm0,13.044a5.219,5.219,0,1,1,5.33-5.218A5.28,5.28,0,0,1,1126,259.174Zm0-7.826a2.609,2.609,0,1,0,2.67,2.608A2.644,2.644,0,0,0,1126,251.348Zm-9.33-19.131a1.3,1.3,0,1,1-1.34,1.3A1.32,1.32,0,0,1,1116.67,232.217Zm18.66,26.957a1.3,1.3,0,1,1-1.33,1.3A1.323,1.323,0,0,1,1135.33,259.174Zm0-26.957a1.3,1.3,0,1,1-1.33,1.3A1.323,1.323,0,0,1,1135.33,232.217Zm-18.66,26.957a1.3,1.3,0,1,1-1.34,1.3A1.32,1.32,0,0,1,1116.67,259.174Z" transform="translate(-1110 -227)"/>
</svg>
