<svg xmlns="http://www.w3.org/2000/svg" width="42" height="40" viewBox="0 0 42 40">
  <defs>
    <style>
      .cls-1 {
        fill: #fa5e31;
        fill-rule: evenodd;
      }
    </style>
  </defs>
  <path class="cls-1" d="M1048.89,218.667h-2.17l-10.56-10.276a1.387,1.387,0,0,0-1.93,0l-3.14,3.057-3.14-3.057a1.4,1.4,0,0,0-1.94,0l-10.56,10.276h-3.08A1.35,1.35,0,0,0,1011,220v26.667a1.35,1.35,0,0,0,1.37,1.333h36.52a4.058,4.058,0,0,0,4.11-4V222.667A4.058,4.058,0,0,0,1048.89,218.667Zm-13.69-7.448,7.65,7.448h-4.35l-5.48-5.334Zm-8.22,0,3.14,3.057,4.51,4.391h-15.3ZM1044.78,244a1.351,1.351,0,0,1-1.37,1.333h-29.67v-24h29.67a1.351,1.351,0,0,1,1.37,1.334v4h-4.11a6.669,6.669,0,1,0,0,13.333h4.11v4Zm5.48,0a1.351,1.351,0,0,1-1.37,1.333h-1.6a3.931,3.931,0,0,0,.23-1.333v-4h2.74v4h0Zm0-6.667h-9.59a4,4,0,1,1,0-8h9.59v8Zm0-10.666h-2.74v-4a3.936,3.936,0,0,0-.23-1.334h1.6a1.351,1.351,0,0,1,1.37,1.334v4ZM1040.67,232a1.334,1.334,0,1,1-1.37,1.333A1.35,1.35,0,0,1,1040.67,232Z" transform="translate(-1011 -208)"/>
</svg>
