<svg xmlns="http://www.w3.org/2000/svg" width="45.03" height="45" viewBox="0 0 45.03 45">
  <defs>
    <style>
      .cls-1 {
        fill: #fb5e31;
        fill-rule: evenodd;
      }
    </style>
  </defs>
  <path class="cls-1" d="M1137.97,358.105a2.019,2.019,0,0,0-1.5-.669h-1.06l0.13-1.938,0.15-2.406a6.626,6.626,0,0,0-1.76-4.986,6.5,6.5,0,0,0-4.81-2.106h-5.24a6.5,6.5,0,0,0-4.81,2.106,6.626,6.626,0,0,0-1.76,4.986l0.23,3.608,0.05,0.736h-1.15a2.019,2.019,0,0,0-1.5.669,2.07,2.07,0,0,0-.53,1.576l0.34,4.025a2.053,2.053,0,0,0,1.34,1.769v3.751a0.9,0.9,0,1,0,1.8,0V365.6h0.24a8.489,8.489,0,0,0,4.3,6.444,8.337,8.337,0,0,0,8.14,0,8.518,8.518,0,0,0,2.96-2.754,4.593,4.593,0,0,0,1.72-.521c2.59-1.4,2.9-4.916,2.91-5.065h0l0.34-4.02A2.07,2.07,0,0,0,1137.97,358.105Zm-21.18,5.679a0.244,0.244,0,0,1-.25-0.233l-0.35-4.025a0.3,0.3,0,0,1,.07-0.194,0.227,0.227,0,0,1,.18-0.083h1.26l0.3,4.535h-1.21Zm2.31-10.81a4.837,4.837,0,0,1,1.28-3.628,4.734,4.734,0,0,1,3.5-1.532h5.24c0.12,0,.23,0,0.35.013l-1.39,3.747c-0.23.377-2.27,3.477-8.81,4.095Zm14.03,12.035a6.868,6.868,0,0,1-.64,2.469,8.058,8.058,0,0,1-2.63-.861,2.468,2.468,0,0,0,.05-0.475,2.245,2.245,0,1,0-2.24,2.267,2.187,2.187,0,0,0,1.12-.307,11.565,11.565,0,0,0,2.6,1.014,6.721,6.721,0,0,1-1.69,1.337,6.546,6.546,0,0,1-6.4,0,6.689,6.689,0,0,1-3.43-5.444l-0.48-7.53c5.05-.469,7.81-2.336,9.17-3.676a5.144,5.144,0,0,0,1.55,1.158,17.38,17.38,0,0,0,3.59,1.185Zm-5.01,1.133a0.457,0.457,0,0,1-.45.453,0.453,0.453,0,0,1,0-.906A0.457,0.457,0,0,1,1128.12,366.142Zm5.78-13.168-0.08,1.333a14.117,14.117,0,0,1-2.89-.957,1.953,1.953,0,0,1-1.2-1.063v-0.009l1.48-3.984A4.847,4.847,0,0,1,1133.9,352.974Zm0.67,14.1a8.973,8.973,0,0,0,.3-1.472h0.92A3.544,3.544,0,0,1,1134.57,367.07Zm1.8-3.519a0.244,0.244,0,0,1-.25.233H1135l0.3-4.535h1.17a0.227,0.227,0,0,1,.18.083,0.258,0.258,0,0,1,.07.194Zm12.64,26.38-0.87-4.84a13.379,13.379,0,0,0-3.69-7.121,13.175,13.175,0,0,0-6.94-3.708,13.411,13.411,0,0,0-2.47-.233h-2.62a0.882,0.882,0,0,0-.63.266l-5.29,5.344-5.29-5.344a0.882,0.882,0,0,0-.63-0.266h-2.62a13.411,13.411,0,0,0-2.47.233h0a13.175,13.175,0,0,0-6.94,3.708,13.379,13.379,0,0,0-3.69,7.121l-0.87,4.84a0.9,0.9,0,0,0,.88,1.069h43.26A0.9,0.9,0,0,0,1149.01,389.931Zm-21.88-8.368,5.66-5.72h2.25c0.11,0,.23,0,0.34,0l-8.88,8.979-1.3-1.311Zm-9.17-5.72h2.25l5.02,5.079-1.3,1.311-6.31-6.385C1117.73,375.845,1117.85,375.843,1117.96,375.843Zm-12.01,13.343,0.67-3.772a11.673,11.673,0,0,1,8.75-9.272l10.5,10.609,0.06,0.063a0.9,0.9,0,0,0,1.14,0l0.06-.063,10.5-10.609a11.673,11.673,0,0,1,8.75,9.272l0.67,3.772h-41.1Zm11.04-18.147a0.9,0.9,0,0,0-.9.907v0.363a0.9,0.9,0,1,0,1.79,0v-0.363A0.893,0.893,0,0,0,1116.99,371.039Z" transform="translate(-1104 -346)"/>
</svg>
