<svg xmlns="http://www.w3.org/2000/svg" width="62" height="63" viewBox="0 0 62 63">
  <defs>
    <style>
      .cls-1 {
        fill: #fa5e31;
        fill-rule: evenodd;
      }
    </style>
  </defs>
  <path class="cls-1" d="M563.907,143.444H558.5a1.524,1.524,0,0,0,0,3.048h5.405A1.524,1.524,0,0,0,563.907,143.444Zm53.591,0h-5.405a1.524,1.524,0,0,0,0,3.048H617.5A1.524,1.524,0,0,0,617.5,143.444Zm-47.4,19.692a1.487,1.487,0,0,0-2.124,0l-3.932,3.99a1.541,1.541,0,0,0,0,2.155,1.485,1.485,0,0,0,2.124,0l3.932-3.989A1.54,1.54,0,0,0,570.1,163.136Zm39.116-39.691a1.487,1.487,0,0,0-2.124,0l-3.824,3.88a1.539,1.539,0,0,0,0,2.155,1.485,1.485,0,0,0,2.124,0l3.824-3.88A1.541,1.541,0,0,0,609.211,123.445Zm-36.476,3.878-3.822-3.878a1.487,1.487,0,0,0-2.124,0,1.539,1.539,0,0,0,0,2.155l3.822,3.878a1.485,1.485,0,0,0,2.124,0A1.541,1.541,0,0,0,572.735,127.323Zm39.225,39.8-3.917-3.975a1.487,1.487,0,0,0-2.124,0,1.542,1.542,0,0,0,0,2.156l3.917,3.974a1.485,1.485,0,0,0,2.124,0A1.539,1.539,0,0,0,611.96,167.126ZM588,127.138c-10.386,0-18.836,8.968-18.836,19.992a27.062,27.062,0,0,0,4.964,15.135,19.365,19.365,0,0,1,3.7,11.1v9.583a3.03,3.03,0,0,0,3,3.048h14.33a3.03,3.03,0,0,0,3-3.048v-9.583a19.365,19.365,0,0,1,3.7-11.1,27.062,27.062,0,0,0,4.964-15.135C606.835,136.106,598.386,127.138,588,127.138Zm7.165,55.814h-14.33v-1.994H588a1.524,1.524,0,0,0,0-3.048h-7.165v-1.993h14.33l0,7.035h0Zm-9.271-28.435-2.009-4.355h8.23l-2.009,4.355a1.532,1.532,0,0,0-.138.545L588.8,172.869H587.2l-1.165-17.807A1.532,1.532,0,0,0,585.894,154.517Zm13.531,5.98a22.524,22.524,0,0,0-4.254,12.372h-3.357l1.133-17.32,2.889-6.265a1.542,1.542,0,0,0-.093-1.464,1.494,1.494,0,0,0-1.267-.706H581.524a1.5,1.5,0,0,0-1.268.706,1.545,1.545,0,0,0-.093,1.464l2.89,6.265,1.133,17.32h-3.357a22.525,22.525,0,0,0-4.255-12.372,24.269,24.269,0,0,1-4.406-13.367c0-9.343,7.1-16.945,15.832-16.945s15.831,7.6,15.831,16.945A24.261,24.261,0,0,1,599.425,160.5Z" transform="translate(-557 -123)"/>
</svg>
