<svg xmlns="http://www.w3.org/2000/svg" width="44" height="44" viewBox="0 0 44 44">
  <defs>
    <style>
      .cls-1 {
        fill: #fb5e31;
        fill-rule: evenodd;
      }
    </style>
  </defs>
  <path class="cls-1" d="M1145.75,157.381l-3.09-.524a17.732,17.732,0,0,0-1.24-3l1.82-2.546a2.709,2.709,0,0,0-.3-3.5l-2.73-2.74a2.724,2.724,0,0,0-1.93-.8,2.665,2.665,0,0,0-1.57.5l-2.55,1.82a17.015,17.015,0,0,0-3.11-1.277l-0.51-3.052a2.716,2.716,0,0,0-2.69-2.27h-3.87a2.713,2.713,0,0,0-2.68,2.27l-0.53,3.125a16.836,16.836,0,0,0-2.99,1.26l-2.53-1.82a2.7,2.7,0,0,0-1.58-.506,2.663,2.663,0,0,0-1.92.8l-2.75,2.739a2.708,2.708,0,0,0-.29,3.5l1.83,2.583a17.235,17.235,0,0,0-1.22,3l-3.05.515a2.719,2.719,0,0,0-2.27,2.684v3.87a2.72,2.72,0,0,0,2.27,2.684l3.13,0.533a17.216,17.216,0,0,0,1.25,2.987l-1.81,2.518a2.709,2.709,0,0,0,.3,3.5l2.74,2.739a2.7,2.7,0,0,0,3.49.294l2.58-1.838a17.538,17.538,0,0,0,2.91,1.195l0.51,3.089a2.716,2.716,0,0,0,2.69,2.27h3.87a2.716,2.716,0,0,0,2.69-2.27l0.52-3.089a17.551,17.551,0,0,0,3-1.241l2.55,1.82a2.7,2.7,0,0,0,1.58.506h0a2.715,2.715,0,0,0,1.92-.8l2.74-2.739a2.732,2.732,0,0,0,.29-3.5l-1.82-2.555a16.764,16.764,0,0,0,1.24-3l3.09-.515a2.718,2.718,0,0,0,2.27-2.683v-3.87A2.684,2.684,0,0,0,1145.75,157.381Zm-0.21,6.554a0.245,0.245,0,0,1-.21.239l-3.86.643a1.241,1.241,0,0,0-.99.91,14.636,14.636,0,0,1-1.6,3.851,1.23,1.23,0,0,0,.06,1.351l2.27,3.2a0.261,0.261,0,0,1-.03.313l-2.74,2.739a0.235,0.235,0,0,1-.31.027l-3.19-2.27a1.241,1.241,0,0,0-1.35-.055,14.794,14.794,0,0,1-3.85,1.6,1.213,1.213,0,0,0-.91.993l-0.66,3.86a0.233,0.233,0,0,1-.24.2h-3.86a0.233,0.233,0,0,1-.24-0.2l-0.65-3.86a1.23,1.23,0,0,0-.91-0.993,15.43,15.43,0,0,1-3.77-1.544,1.253,1.253,0,0,0-.62-0.166,1.215,1.215,0,0,0-.72.23l-3.21,2.289a0.31,0.31,0,0,1-.14.046,0.258,0.258,0,0,1-.18-0.074l-2.74-2.739a0.244,0.244,0,0,1-.02-0.312l2.26-3.171a1.265,1.265,0,0,0,.05-1.361,14.83,14.83,0,0,1-1.62-3.842,1.241,1.241,0,0,0-.99-0.91l-3.89-.661a0.237,0.237,0,0,1-.2-0.239v-3.87a0.235,0.235,0,0,1,.2-0.239l3.84-.643a1.252,1.252,0,0,0,1-.92,14.613,14.613,0,0,1,1.57-3.86,1.233,1.233,0,0,0-.06-1.342l-2.29-3.217a0.246,0.246,0,0,1,.02-0.313l2.74-2.739a0.246,0.246,0,0,1,.18-0.073,0.249,0.249,0,0,1,.14.046l3.17,2.261a1.258,1.258,0,0,0,1.36.055,14.533,14.533,0,0,1,3.84-1.618,1.251,1.251,0,0,0,.91-0.992l0.66-3.888a0.24,0.24,0,0,1,.24-0.2h3.87a0.24,0.24,0,0,1,.24.2l0.64,3.832a1.25,1.25,0,0,0,.92,1,15.08,15.08,0,0,1,3.95,1.618,1.242,1.242,0,0,0,1.35-.055l3.17-2.279a0.25,0.25,0,0,1,.14-0.047,0.244,0.244,0,0,1,.17.074l2.74,2.739a0.26,0.26,0,0,1,.03.313l-2.27,3.189a1.229,1.229,0,0,0-.06,1.351,14.629,14.629,0,0,1,1.6,3.852,1.227,1.227,0,0,0,.99.909l3.86,0.653a0.245,0.245,0,0,1,.21.239v3.87h-0.01ZM1126,152.5a9.5,9.5,0,1,0,9.5,9.5A9.5,9.5,0,0,0,1126,152.5Zm0,16.508a7.013,7.013,0,1,1,7.02-7.013A7.021,7.021,0,0,1,1126,169.008Z" transform="translate(-1104 -140)"/>
</svg>
