<svg xmlns="http://www.w3.org/2000/svg" width="59" height="58" viewBox="0 0 59 58">
  <defs>
    <style>
      .cls-1 {
        fill: #fa5e31;
        fill-rule: evenodd;
      }
    </style>
  </defs>
  <path class="cls-1" d="M519,275.594a29.5,29.5,0,1,0-59,.012v19.147a9.236,9.236,0,0,0,9.2,9.247h5.364a2.182,2.182,0,0,0,0-4.363h-5.364a4.871,4.871,0,0,1-4.856-4.872V284a4.872,4.872,0,0,1,4.856-4.872h3.189v13.707a2.175,2.175,0,1,0,4.349,0v-15.9a2.184,2.184,0,0,0-2.174-2.182h-5.364a9.093,9.093,0,0,0-4.856,1.394v-0.557a25.151,25.151,0,1,1,50.3,0,3.219,3.219,0,0,0,.024.339,1.353,1.353,0,0,0-.024.23,9.153,9.153,0,0,0-4.868-1.406h-5.364a2.184,2.184,0,0,0-2.174,2.182v24.867a2.184,2.184,0,0,0,2.174,2.182h6.523a2.182,2.182,0,0,0,0-4.363h-4.348v-20.5h3.2a4.872,4.872,0,0,1,4.856,4.872v10.761a2.175,2.175,0,1,0,4.349,0V276.272a3.219,3.219,0,0,0-.024-0.339A3,3,0,0,0,519,275.594Z" transform="translate(-460 -246)"/>
</svg>
