<svg xmlns="http://www.w3.org/2000/svg" width="57" height="43" viewBox="0 0 57 43">
  <defs>
    <style>
      .cls-1 {
        fill: #fa5e31;
        fill-rule: evenodd;
      }
    </style>
  </defs>
  <path id="Shape_1_copy" data-name="Shape 1 copy" class="cls-1" d="M853.072,242H799.928A1.887,1.887,0,0,0,798,243.846v35.161A6.046,6.046,0,0,0,804.087,285h44.826A6.047,6.047,0,0,0,855,279.007V243.846A1.887,1.887,0,0,0,853.072,242Zm-39.939,38.1H809.1V260.231h2.4v7.921a1.886,1.886,0,0,0,1.64,1.867V280.1Zm8.07,0h-4.287V260.231h2.648v7.921a1.886,1.886,0,0,0,1.64,1.867V280.1h0Zm8.071,0h-4.287V260.231h2.774v7.921A1.888,1.888,0,0,0,829.274,270v10.1Zm8.2,0h-4.414V260.231h2.775v7.921a1.886,1.886,0,0,0,1.639,1.867V280.1h0Zm6.432,0h-2.649V260.231H843.9V280.1Zm7.314-1.09a2.265,2.265,0,0,1-2.3,2.221h-1.227V258.363a1.863,1.863,0,0,0-1.843-1.9H807.157a1.863,1.863,0,0,0-1.843,1.9v22.865h-1.227a2.265,2.265,0,0,1-2.3-2.221V245.772h49.434v33.235h0Zm-12.8-29.568a1.719,1.719,0,1,1-1.723,1.719A1.721,1.721,0,0,1,838.419,249.439Zm6.354,0a1.719,1.719,0,1,1-1.724,1.719A1.722,1.722,0,0,1,844.773,249.439Zm-34.036-.021h-3.279a1.886,1.886,0,1,0,0,3.772h3.279A1.886,1.886,0,1,0,810.737,249.418Z" transform="translate(-798 -242)"/>
</svg>
