<svg xmlns="http://www.w3.org/2000/svg" width="29" height="26" viewBox="0 0 29 26">
  <defs>
    <style>
      .cls-1 {
        fill: #fa7124;
        fill-rule: evenodd;
      }
    </style>
  </defs>
  <path id="_1" data-name="1" class="cls-1" d="M413.051,190.959h-3.1v-1.621c1.711,0,3.385-.558,3.673-2.088H415.3v12.6h-2.251v-8.894Zm12.006,10.894a4.765,4.765,0,0,0,1.735,2.092,1.133,1.133,0,0,1,.48,1.191,1.1,1.1,0,0,1-.918.86,8.841,8.841,0,0,1-5.737-1.064,0.743,0.743,0,0,1-.249-1.011,0.718,0.718,0,0,1,1-.252,7.065,7.065,0,0,0,3.908.95,6.585,6.585,0,0,1-1.735-2.646,0.751,0.751,0,0,1,.148-0.757A10.63,10.63,0,0,0,426.549,194c0-6.356-5.855-11.527-13.049-11.527S400.451,187.644,400.451,194s5.855,11.527,13.049,11.527a14.616,14.616,0,0,0,3.547-.433,0.723,0.723,0,0,1,.876.541,0.735,0.735,0,0,1-.533.89,16.166,16.166,0,0,1-3.89.475c-8,0-14.5-5.833-14.5-13s6.5-13,14.5-13,14.5,5.833,14.5,13A12.183,12.183,0,0,1,425.057,201.853Z" transform="translate(-399 -181)"/>
</svg>
