<svg xmlns="http://www.w3.org/2000/svg" width="36" height="41" viewBox="0 0 36 41">
  <defs>
    <style>
      .cls-1 {
        fill: #f95f1d;
        fill-rule: evenodd;
      }
    </style>
  </defs>
  <path id="_1" data-name="1" class="cls-1" d="M70.317,57.815a14.689,14.689,0,0,1-4.042,7.871A14.341,14.341,0,0,1,56,70h0a14.257,14.257,0,0,1-10.288-4.381,14.915,14.915,0,0,1-4.005-7.8,4.3,4.3,0,0,1-.239-8.47v-7.7a2.675,2.675,0,0,0-.5.382,1.292,1.292,0,0,1-1.629.17,1.332,1.332,0,0,1-.547-1.565l0.371-1.114a5.892,5.892,0,0,1,.873-1.667c0.423-4.015,3.161-6.84,7.938-8.175a18.763,18.763,0,0,1,11.2.376L63.97,31.7a4.859,4.859,0,0,1,4.359.549,5,5,0,0,1,2.2,4.161V49.348A4.3,4.3,0,0,1,70.317,57.815ZM39.526,53.565a2.74,2.74,0,0,0,1.98,2.641q-0.038-.536-0.038-1.08V50.935A2.741,2.741,0,0,0,39.526,53.565ZM63.232,33.082L58.69,31.52a17.261,17.261,0,0,0-10.306-.349c-3.377.944-5.523,2.631-6.409,5.027,0.132-.07.266-0.137,0.4-0.2a5.735,5.735,0,0,1,4.73.075,4.258,4.258,0,0,0,5-1.056L52.3,34.8a0.756,0.756,0,0,1,1.077-.067,0.78,0.78,0,0,1,.066,1.091l-0.189.217a5.779,5.779,0,0,1-6.791,1.433,4.226,4.226,0,0,0-3.486-.055,4.314,4.314,0,0,0-2.366,2.595l-0.148.444a4.088,4.088,0,0,1,4.61-.043,13.359,13.359,0,0,0,18.216-3.343Zm0.063,8.493v-2.1a14.862,14.862,0,0,1-19.054,2.237,2.614,2.614,0,0,0-1.247-.43V55.125a13.414,13.414,0,0,0,3.8,9.408A12.753,12.753,0,0,0,56,68.454h0a12.835,12.835,0,0,0,9.2-3.861,13.185,13.185,0,0,0,3.809-9.321V48.09A6.539,6.539,0,0,1,63.295,41.576Zm5.712-5.162a3.407,3.407,0,0,0-1.521-2.873,3.3,3.3,0,0,0-2.728-.466l0.063,8.5a5,5,0,0,0,4.186,4.956V36.414Zm1.526,14.521v4.337c0,0.312-.011.622-0.029,0.931A2.751,2.751,0,0,0,70.532,50.935Zm-4.568,2.21a0.756,0.756,0,0,1-1.079,0,1.382,1.382,0,0,0-1.972,0,0.756,0.756,0,0,1-1.079,0,0.78,0.78,0,0,1,0-1.093,2.9,2.9,0,0,1,4.13,0A0.78,0.78,0,0,1,65.963,53.146Zm-0.99,6.534a0.78,0.78,0,0,1,0,1.093,12.585,12.585,0,0,1-17.946,0,0.78,0.78,0,0,1,0-1.093,0.756,0.756,0,0,1,1.079,0,11.072,11.072,0,0,0,15.789,0A0.756,0.756,0,0,1,64.973,59.679ZM49.627,53.372a0.755,0.755,0,0,1-.539-0.227,1.381,1.381,0,0,0-1.972,0,0.756,0.756,0,0,1-1.079,0,0.78,0.78,0,0,1,0-1.093,2.892,2.892,0,0,1,4.13,0,0.78,0.78,0,0,1,0,1.093A0.756,0.756,0,0,1,49.627,53.372Z" transform="translate(-38 -29)"/>
</svg>
