<svg xmlns="http://www.w3.org/2000/svg" width="42" height="42" viewBox="0 0 42 42">
  <defs>
    <style>
      .cls-1 {
        fill: #f95f1d;
        fill-rule: evenodd;
      }
    </style>
  </defs>
  <path id="_10" data-name="10" class="cls-1" d="M250,139V97h42v42H250Zm40.6-40.6H251.4v8.4h39.2V98.4Zm0,9.8H251.4v19.6h39.2V108.2Zm0,21H251.4v8.4h39.2v-8.4ZM252.8,132h0.7v-1.4a0.7,0.7,0,1,1,1.4,0V132h0.7a0.7,0.7,0,0,1,.7.7v2.1a0.7,0.7,0,0,1-.7.7h-0.7v0.7a0.7,0.7,0,1,1-1.4,0v-0.7h-0.7a0.7,0.7,0,0,1-.7-0.7v-2.1A0.7,0.7,0,0,1,252.8,132Zm0.7,2.1h1.4v-0.7h-1.4v0.7Zm4.2-3.5h0.7a0.7,0.7,0,0,1,1.4,0h0.7a0.7,0.7,0,0,1,.7.7v2.1a0.7,0.7,0,0,1-.7.7h-0.7v2.1a0.7,0.7,0,0,1-1.4,0v-2.1h-0.7a0.7,0.7,0,0,1-.7-0.7v-2.1A0.7,0.7,0,0,1,257.7,130.6Zm0.7,2.1h1.4V132h-1.4v0.7Zm4.2,0h0.7v-2.1a0.7,0.7,0,0,1,1.4,0v2.1h0.7a0.7,0.7,0,0,1,.7.7v2.1a0.7,0.7,0,0,1-.7.7h-0.7a0.7,0.7,0,1,1-1.4,0h-0.7a0.7,0.7,0,0,1-.7-0.7v-2.1A0.7,0.7,0,0,1,262.6,132.7Zm0.7,2.1h1.4v-0.7h-1.4v0.7Zm4.2-3.5h0.7v-0.7a0.7,0.7,0,0,1,1.4,0v0.7h0.7a0.7,0.7,0,0,1,.7.7v2.1a0.7,0.7,0,0,1-.7.7h-0.7v1.4a0.7,0.7,0,1,1-1.4,0v-1.4h-0.7a0.7,0.7,0,0,1-.7-0.7V132A0.7,0.7,0,0,1,267.5,131.3Zm0.7,2.1h1.4v-0.7h-1.4v0.7Zm4.2-.7h0.7v-2.1a0.7,0.7,0,1,1,1.4,0v2.1h0.7a0.7,0.7,0,0,1,.7.7v2.1a0.7,0.7,0,0,1-.7.7h-0.7a0.7,0.7,0,1,1-1.4,0h-0.7a0.7,0.7,0,0,1-.7-0.7v-2.1A0.7,0.7,0,0,1,272.4,132.7Zm0.7,2.1h1.4v-0.7h-1.4v0.7Zm4.2-4.2H278a0.7,0.7,0,1,1,1.4,0h0.7a0.7,0.7,0,0,1,.7.7v2.1a0.7,0.7,0,0,1-.7.7h-0.7v2.1a0.7,0.7,0,1,1-1.4,0v-2.1h-0.7a0.7,0.7,0,0,1-.7-0.7v-2.1A0.7,0.7,0,0,1,277.3,130.6Zm0.7,2.1h1.4V132H278v0.7Zm5.925-1.774a0.078,0.078,0,0,1,.015-0.01,3.343,3.343,0,1,1-.025.024S283.921,130.93,283.925,130.926ZM286.4,135.5a2.1,2.1,0,1,0,0-4.2,2.065,2.065,0,0,0-.9.211l1.395,1.394a0.7,0.7,0,0,1-.99.99l-1.394-1.394a2.057,2.057,0,0,0-.211.9A2.1,2.1,0,0,0,286.4,135.5Zm-32.695-25.695a0.7,0.7,0,0,1,.495-0.205h1.4a0.7,0.7,0,0,1,.5.205l0.7,0.7a0.7,0.7,0,0,1,.2.5v1.4a0.7,0.7,0,0,1-.2.495l-0.7.7a0.7,0.7,0,0,1-.5.2h-1.4a0.7,0.7,0,0,1-.495-0.2l-0.7-.7a0.7,0.7,0,0,1-.2-0.495V111a0.7,0.7,0,0,1,.2-0.5Zm0.495,2.3,0.29,0.29h0.82l0.29-.29v-0.82l-0.29-.29h-0.82l-0.29.29v0.82Zm-0.7,8.69h0.7v-4.9a0.7,0.7,0,1,1,1.4,0v4.9h0.7a0.7,0.7,0,0,1,.7.7v2.1a0.7,0.7,0,0,1-.7.7h-0.7v1.4a0.7,0.7,0,1,1-1.4,0v-1.4h-0.7a0.7,0.7,0,0,1-.7-0.7v-2.1A0.7,0.7,0,0,1,253.5,120.8Zm0.7,2.1h1.4v-0.7h-1.4v0.7Zm5.105-13.095a0.7,0.7,0,0,1,.5-0.205h1.4a0.7,0.7,0,0,1,.5.205l0.7,0.7a0.7,0.7,0,0,1,.205.5v1.4a0.7,0.7,0,0,1-.205.495l-0.7.7a0.7,0.7,0,0,1-.5.2h-1.4a0.7,0.7,0,0,1-.5-0.2l-0.7-.7a0.7,0.7,0,0,1-.205-0.495V111a0.7,0.7,0,0,1,.205-0.5Zm0.5,2.3,0.29,0.29h0.82l0.29-.29v-0.82l-0.29-.29h-0.82l-0.29.29v0.82ZM259.1,118h0.7v-2.1a0.7,0.7,0,1,1,1.4,0V118h0.7a0.7,0.7,0,0,1,.7.7v2.1a0.7,0.7,0,0,1-.7.7h-0.7v4.2a0.7,0.7,0,0,1-1.4,0v-4.2h-0.7a0.7,0.7,0,0,1-.7-0.7v-2.1A0.7,0.7,0,0,1,259.1,118Zm0.7,2.1h1.4v-0.7h-1.4v0.7Zm5.1-10.295a0.7,0.7,0,0,1,.5-0.205h1.4a0.7,0.7,0,0,1,.5.205l0.7,0.7a0.7,0.7,0,0,1,.2.5v1.4a0.7,0.7,0,0,1-.2.495l-0.7.7a0.7,0.7,0,0,1-.5.2h-1.4a0.7,0.7,0,0,1-.5-0.2l-0.7-.7a0.7,0.7,0,0,1-.2-0.495V111a0.7,0.7,0,0,1,.2-0.5Zm0.5,2.3,0.29,0.29h0.82l0.29-.29v-0.82l-0.29-.29h-0.82l-0.29.29v0.82Zm-0.7,10.09h0.7v-6.3a0.7,0.7,0,1,1,1.4,0v6.3h0.7a0.7,0.7,0,0,1,.7.7V125a0.7,0.7,0,0,1-.7.7h-0.7a0.7,0.7,0,0,1-1.4,0h-0.7a0.7,0.7,0,0,1-.7-0.7v-2.1A0.7,0.7,0,0,1,264.7,122.2Zm0.7,2.1h1.4v-0.7h-1.4v0.7Zm5.105-14.495a0.7,0.7,0,0,1,.5-0.205h1.4a0.7,0.7,0,0,1,.5.205l0.7,0.7a0.7,0.7,0,0,1,.2.5v1.4a0.7,0.7,0,0,1-.2.495l-0.7.7a0.7,0.7,0,0,1-.5.2H271a0.7,0.7,0,0,1-.5-0.2l-0.7-.7a0.7,0.7,0,0,1-.2-0.495V111a0.7,0.7,0,0,1,.2-0.5Zm0.5,2.3,0.29,0.29h0.82l0.29-.29v-0.82l-0.29-.29h-0.82l-0.29.29v0.82Zm-0.7,4.49H271v-0.7a0.7,0.7,0,1,1,1.4,0v0.7h0.7a0.7,0.7,0,0,1,.7.7v2.1a0.7,0.7,0,0,1-.7.7h-0.7v5.6a0.7,0.7,0,0,1-1.4,0v-5.6h-0.7a0.7,0.7,0,0,1-.7-0.7v-2.1A0.7,0.7,0,0,1,270.3,116.6Zm0.7,2.1h1.4V118H271v0.7Zm11.9-9.8a7,7,0,1,1-7,7A7.008,7.008,0,0,1,282.9,108.9Zm0,12.6a5.6,5.6,0,1,0-5.6-5.6A5.606,5.606,0,0,0,282.9,121.5Zm-3.5-5.6a0.7,0.7,0,1,1-.7-0.7A0.7,0.7,0,0,1,279.4,115.9Zm0.7,2.1a0.7,0.7,0,1,1-.7.7A0.7,0.7,0,0,1,280.1,118Zm2.8-7a0.7,0.7,0,1,1-.7.7A0.7,0.7,0,0,1,282.9,111Zm0,8.4a0.7,0.7,0,1,1-.7.7A0.7,0.7,0,0,1,282.9,119.4Zm2.8-7a0.7,0.7,0,1,1-.7.7A0.7,0.7,0,0,1,285.7,112.4Zm0,5.6a0.7,0.7,0,1,1-.7.7A0.7,0.7,0,0,1,285.7,118Zm1.4-2.8a0.7,0.7,0,1,1-.7.7A0.7,0.7,0,0,1,287.1,115.2Zm-7-1.4a0.7,0.7,0,1,1,.7-0.7A0.7,0.7,0,0,1,280.1,113.8Zm-2.8,9.8a0.7,0.7,0,1,1-.7.7A0.7,0.7,0,0,1,277.3,123.6Zm0,2.1a0.7,0.7,0,1,1-.7.7A0.7,0.7,0,0,1,277.3,125.7Zm2.8-2.1a0.7,0.7,0,1,1-.7.7A0.7,0.7,0,0,1,280.1,123.6Zm0,2.1a0.7,0.7,0,1,1-.7.7A0.7,0.7,0,0,1,280.1,125.7Zm2.8-2.1a0.7,0.7,0,1,1-.7.7A0.7,0.7,0,0,1,282.9,123.6Zm0,2.1a0.7,0.7,0,1,1-.7.7A0.7,0.7,0,0,1,282.9,125.7Zm2.8-2.1a0.7,0.7,0,1,1-.7.7A0.7,0.7,0,0,1,285.7,123.6Zm0,2.1a0.7,0.7,0,1,1-.7.7A0.7,0.7,0,0,1,285.7,125.7Zm2.8-2.1a0.7,0.7,0,1,1-.7.7A0.7,0.7,0,0,1,288.5,123.6Zm0,2.1a0.7,0.7,0,1,1-.7.7A0.7,0.7,0,0,1,288.5,125.7Zm-35-26.6h2.8a0.7,0.7,0,0,1,.7.7v5.6a0.7,0.7,0,0,1-.7.7h-2.8a0.7,0.7,0,0,1-.7-0.7V99.8A0.7,0.7,0,0,1,253.5,99.1Zm0.7,5.6h1.4v-4.2h-1.4v4.2Zm4.2-5.6h2.8a0.7,0.7,0,0,1,.7.7v5.6a0.7,0.7,0,0,1-.7.7h-2.8a0.7,0.7,0,0,1-.7-0.7V99.8A0.7,0.7,0,0,1,258.4,99.1Zm0.7,5.6h1.4v-4.2h-1.4v4.2Zm4.2-4.2a0.7,0.7,0,1,1-.7.7A0.7,0.7,0,0,1,263.3,100.5Zm0,2.8a0.7,0.7,0,1,1-.7.7A0.7,0.7,0,0,1,263.3,103.3Zm2.1-4.2h2.8a0.7,0.7,0,0,1,.7.7v5.6a0.7,0.7,0,0,1-.7.7h-2.8a0.7,0.7,0,0,1-.7-0.7V99.8A0.7,0.7,0,0,1,265.4,99.1Zm0.7,5.6h1.4v-4.2h-1.4v4.2Zm4.2-5.6h2.8a0.7,0.7,0,1,1,0,1.4H271v1.4h2.1a0.7,0.7,0,0,1,.7.7v2.8a0.7,0.7,0,0,1-.7.7h-2.8a0.7,0.7,0,0,1,0-1.4h2.1v-1.4h-2.1a0.7,0.7,0,0,1-.7-0.7V99.8A0.7,0.7,0,0,1,270.3,99.1Zm7,4.9h1.4a0.7,0.7,0,0,1,0,1.4h-1.4A0.7,0.7,0,1,1,277.3,104Zm3.5-4.2h1.4a0.7,0.7,0,0,1,0,1.4h-1.4A0.7,0.7,0,0,1,280.8,99.8Zm0,2.1h1.4a0.7,0.7,0,1,1,0,1.4h-1.4A0.7,0.7,0,1,1,280.8,101.9Zm0,2.1h1.4a0.7,0.7,0,0,1,0,1.4h-1.4A0.7,0.7,0,1,1,280.8,104Zm3.5-2.1h1.4a0.7,0.7,0,1,1,0,1.4h-1.4A0.7,0.7,0,1,1,284.3,101.9Zm0,2.1h1.4a0.7,0.7,0,0,1,0,1.4h-1.4A0.7,0.7,0,1,1,284.3,104Zm3.5,0h1.4a0.7,0.7,0,0,1,0,1.4h-1.4A0.7,0.7,0,1,1,287.8,104Z" transform="translate(-250 -97)"/>
</svg>
