<svg xmlns="http://www.w3.org/2000/svg" width="42" height="42" viewBox="0 0 42 42">
  <defs>
    <style>
      .cls-1 {
        fill: #f95f1d;
        fill-rule: evenodd;
      }
    </style>
  </defs>
  <path id="_12" data-name="12" class="cls-1" d="M439.687,136.719a1.971,1.971,0,0,1-1.968,1.969h-3.282v-15.75h1.313a0.659,0.659,0,0,0,.656-0.657V99.313h1.312a1.971,1.971,0,0,1,1.969,1.968v35.438h0Zm-39.375,0V101.281a1.972,1.972,0,0,1,1.969-1.968h3.938v22.968a0.658,0.658,0,0,0,.656.656h1.312v15.751h-5.906a1.972,1.972,0,0,1-1.969-1.969h0ZM414.75,99.313v22.968a0.658,0.658,0,0,0,.656.656h1.313v15.751h-7.875v-15.75h1.312a0.659,0.659,0,0,0,.656-0.657V99.313h3.938Zm10.5,0v39.375h-7.875v-15.75h1.312a0.659,0.659,0,0,0,.657-0.657V99.313h5.906Zm7.219,23.625h1.312v15.75h-7.875V99.313h5.906v22.968a0.659,0.659,0,0,0,.657.657h0ZM437.719,98H402.281A3.281,3.281,0,0,0,399,101.281v35.438A3.281,3.281,0,0,0,402.281,140h35.438A3.281,3.281,0,0,0,441,136.719V101.281A3.281,3.281,0,0,0,437.719,98h0Z" transform="translate(-399 -98)"/>
</svg>
