<svg xmlns="http://www.w3.org/2000/svg" width="36" height="38.031" viewBox="0 0 36 38.031">
  <defs>
    <style>
      .cls-1 {
        fill: #f95f1d;
        fill-rule: evenodd;
      }
    </style>
  </defs>
  <path id="_13" data-name="13" class="cls-1" d="M65.411,180.742l-1.061,1.234-1.643,1.911-1.094,1.273-2.023,2.354-0.637.741v0a3.332,3.332,0,0,1-.489.5,4.47,4.47,0,0,1-2.539.984c-0.123.009-.246,0.014-0.367,0.014-1.942,0-3.544-1.141-3.654-2.666a3,3,0,0,1,2-2.813,4.766,4.766,0,0,1,1.6-.4c0.123-.009.245-0.013,0.366-0.013,0.086,0,.169.013,0.254,0.017a3.4,3.4,0,0,1,3.365,2.386l1.531-1.782,1.092-1.27,1.637-1.9,0.833-.969-3.951-1.922-6.26-3.045-0.789.917-1.153,1.342L50.6,179.751l-1.146,1.333-0.8.933a3.175,3.175,0,0,1-.246.286l-0.108.126-0.011-.009a4.412,4.412,0,0,1-2.7,1.128c-0.124.009-.246,0.013-0.367,0.013-1.942,0-3.544-1.142-3.655-2.665a2.983,2.983,0,0,1,1.95-2.789,4.753,4.753,0,0,1,1.647-.422c0.123-.009.245-0.013,0.366-0.013,1.826,0,3.35,1.01,3.618,2.4l0.68-.792,1.814-2.11,1.147-1.335,1.505-1.75,1.151-1.34,0.4-.465,0.08,0.069L67.7,178.078,65.447,180.7ZM45.083,170.59c-1.046-.225-0.488-1.8.549-1.579a35.979,35.979,0,0,1,8.666,3.13l-1.152,1.34A33.662,33.662,0,0,0,45.083,170.59Zm5.42,5.967a33.777,33.777,0,0,0-8.4-3.06c-1.046-.225-0.488-1.8.549-1.58a36.056,36.056,0,0,1,9,3.3Zm-8.517,1a31.839,31.839,0,0,0-3.428-.948c-1.047-.224-0.488-1.8.549-1.58a34.166,34.166,0,0,1,5.07,1.528A5.62,5.62,0,0,0,41.986,177.559Zm19.256,4.727-1.1,1.284c-0.034-.032-0.063-0.066-0.1-0.1a41.066,41.066,0,0,0-6.532-5.177l1.151-1.339A37.1,37.1,0,0,1,61.242,182.286Zm-10.718-.518,1.146-1.334c1.068,0.709,2.1,1.464,3.084,2.267a5.752,5.752,0,0,0-1.922.717Q51.707,182.556,50.524,181.768Zm7.643,12.507a2.885,2.885,0,0,1,2.524,1.484L62,194.217l1.216-1.436,1.055-1.246a0.85,0.85,0,0,1,.647-0.314,0.807,0.807,0,0,1,.621.3c0.18,0.217.387,0.476,0.6,0.764,0.936,1.251,2.04,3.074,1.962,4.616a2.635,2.635,0,0,1-1.933,2.373,7.594,7.594,0,0,1-1.723.426c-0.059.007-.114,0.019-0.175,0.026a1.966,1.966,0,0,1-.227.017c-0.3,0-.247-0.129.133-0.357l0.124-.079a3.018,3.018,0,0,0,1.326-1.531c0.234-.758,0-1.727-1.289-2.91-0.074-.066-0.137-0.131-0.217-0.2l-1.2,1.413c-0.692.815-1.534,1.806-2.1,2.469a5.514,5.514,0,0,1-1.424,1.286,2.893,2.893,0,0,1-3.116-.42,2.928,2.928,0,0,1-.328-4.114A2.889,2.889,0,0,1,58.167,194.275Zm6.286,3.014a1.372,1.372,0,0,1-.632.817q-0.16-.384-0.326-0.761l0.676-.8A1.231,1.231,0,0,1,64.453,197.289Zm3.023,8.969c0.02,1.08-1.641.959-1.661-.112a18.779,18.779,0,0,0-.961-5.237,8.768,8.768,0,0,0,1.686-.434A22.593,22.593,0,0,1,67.476,206.258Zm-8.2-16.453,0.45-.522c0.052-.059.1-0.116,0.152-0.177l0.023-.026,0.481-.56c0.745,0.976,1.466,2.022,2.147,3.12l-1.178,1.391A31.835,31.835,0,0,0,59.278,189.805Zm7.221,0.909a2.054,2.054,0,0,0-1.575-.753,31.378,31.378,0,0,0-2.5-3.808l1.1-1.279c3.944,4.981,7.388,12,7.5,18.27,0.02,1.079-1.641.958-1.661-.112a17.374,17.374,0,0,0-.644-4.153,3.589,3.589,0,0,0,.387-0.708C70.057,195.737,68.214,192.772,66.5,190.714Zm-1.331-7.76,1.1-1.278c4.04,5,7.618,12.164,7.735,18.562,0.02,1.079-1.641.957-1.661-.113-0.069-3.784-1.836-7.975-3.5-11.319A33.059,33.059,0,0,0,65.168,182.954Z" transform="translate(-38 -169)"/>
</svg>
