<svg xmlns="http://www.w3.org/2000/svg" width="41" height="34" viewBox="0 0 41 34">
  <defs>
    <style>
      .cls-1 {
        fill: #f95f1d;
        fill-rule: evenodd;
      }
    </style>
  </defs>
  <path id="_14" data-name="14" class="cls-1" d="M140.813,201H104.187A2.243,2.243,0,0,1,102,198.709V169.29a2.243,2.243,0,0,1,2.187-2.29h29.742a2.124,2.124,0,0,1,1.547.671l6.884,7.208h0a2.332,2.332,0,0,1,.64,1.62v22.21A2.243,2.243,0,0,1,140.813,201Zm-37.355-6.107H115.5a0.748,0.748,0,0,0,.729-0.764V173.871a0.748,0.748,0,0,0-.729-0.764H103.458v21.786ZM141.542,176.5a0.776,0.776,0,0,0-.214-0.54l-6.883-7.209a0.709,0.709,0,0,0-.516-0.223H104.187a0.747,0.747,0,0,0-.729.763v2.291H115.5a2.243,2.243,0,0,1,2.187,2.29v20.258a2.243,2.243,0,0,1-2.187,2.29H103.458v2.29a0.748,0.748,0,0,0,.729.764h36.626a0.748,0.748,0,0,0,.729-0.764V176.5Zm-3.635,19.92h-7.193a0.746,0.746,0,0,1-.729-0.763v-3.9a0.747,0.747,0,0,1,.729-0.764h7.193a0.747,0.747,0,0,1,.729.764v3.9A0.746,0.746,0,0,1,137.907,196.419Zm-0.729-3.9h-5.735v2.371h5.735v-2.371Zm0.729-2.743h-7.193a0.746,0.746,0,0,1-.729-0.763v-3.9a0.746,0.746,0,0,1,.729-0.763h7.193a0.746,0.746,0,0,1,.729.763v3.9A0.746,0.746,0,0,1,137.907,189.779Zm-0.729-3.9h-5.735v2.371h5.735v-2.371Zm0.729-2.742h-7.193a0.747,0.747,0,0,1-.729-0.764v-3.9a0.746,0.746,0,0,1,.729-0.763h7.193a0.746,0.746,0,0,1,.729.763v3.9A0.747,0.747,0,0,1,137.907,183.14Zm-0.729-3.9h-5.735v2.37h5.735v-2.37Z" transform="translate(-102 -167)"/>
</svg>
