<svg xmlns="http://www.w3.org/2000/svg" width="40" height="39" viewBox="0 0 40 39">
  <defs>
    <style>
      .cls-1 {
        fill: #f95f1d;
        fill-rule: evenodd;
      }
    </style>
  </defs>
  <path id="_15" data-name="15" class="cls-1" d="M222.3,201h-3.362a0.706,0.706,0,0,1-.7-0.71v-2.618H206.212l0.168,0.5a0.706,0.706,0,0,1-.664.938,0.7,0.7,0,0,1-.663-0.482l-0.321-.958H203.7v0.754a0.7,0.7,0,1,1-1.4,0v-0.754h-1.032l-0.321.958a0.7,0.7,0,0,1-.663.482,0.706,0.706,0,0,1-.664-0.938l0.168-.5H187.763v2.618a0.706,0.706,0,0,1-.7.71H183.7a0.7,0.7,0,0,1-.7-0.71V166.541a0.706,0.706,0,0,1,.7-0.71h13.836V162.71a0.7,0.7,0,0,1,.7-0.71h9.526a0.7,0.7,0,0,1,.7.71v3.121H222.3a0.706,0.706,0,0,1,.7.71V200.29A0.706,0.706,0,0,1,222.3,201Zm-34.537-4.747h30.474v-9.844H187.763v9.844Zm-1.4,3.328h0V186.408H184.4v13.173h1.961Zm-1.961-18h1.718v-0.709H184.4v0.709Zm22.661-18.164h-8.124v10.36h8.124v-10.36Zm14.537,3.832H208.463v6.528h0.856a0.71,0.71,0,0,1,0,1.419H196.681a0.71,0.71,0,0,1,0-1.419h0.856v-6.528H184.4v9.224h37.2v-9.224Zm0,10.643H184.4v1.561h37.2v-1.561Zm-34.079,2.98v0.709h1.541v-0.709H187.52Zm2.942,0v0.709H192v-0.709h-1.541Zm2.942,0v0.709h1.541v-0.709H193.4Zm2.942,0v0.709h1.541v-0.709h-1.541Zm2.942,0v0.709h1.541v-0.709h-1.541Zm2.941,0v0.709h1.541v-0.709h-1.541Zm2.942,0v0.709h1.541v-0.709h-1.541Zm2.942,0v0.709h1.541v-0.709h-1.541Zm2.942,0v0.709H212.6v-0.709h-1.541Zm2.942,0v0.709h1.541v-0.709H214Zm2.942,0v0.709h1.54v-0.709h-1.54Zm2.941,0v0.709H221.6v-0.709H219.88ZM221.6,183H184.4v1.986h37.2V183Zm0,3.406h-1.961v13.172H221.6V186.409Zm-20.56-21.4h3.922a0.71,0.71,0,0,1,0,1.419h-3.922A0.71,0.71,0,0,1,201.039,165.01Zm0,2.859h3.922a0.71,0.71,0,0,1,0,1.419h-3.922A0.71,0.71,0,0,1,201.039,167.869Zm0,2.859h3.922a0.71,0.71,0,0,1,0,1.419h-3.922A0.71,0.71,0,0,1,201.039,170.728Z" transform="translate(-183 -162)"/>
</svg>
