<svg xmlns="http://www.w3.org/2000/svg" width="45" height="45" viewBox="0 0 45 45">
  <defs>
    <style>
      .cls-1 {
        fill: #fa7124;
        fill-rule: evenodd;
      }
    </style>
  </defs>
  <path id="_16" data-name="16" class="cls-1" d="M295,183.4a5.436,5.436,0,0,1-.839,2.907,3.618,3.618,0,0,0-.513,2.609,5.463,5.463,0,0,1-2.21,5.467,3.725,3.725,0,0,0-1.483,2.262,5.459,5.459,0,0,1-4.076,4.146,3.736,3.736,0,0,0-2.255,1.493,5.462,5.462,0,0,1-5.427,2.3,3.623,3.623,0,0,0-2.607.524,5.46,5.46,0,0,1-5.9.051,3.623,3.623,0,0,0-2.609-.514,5.458,5.458,0,0,1-5.467-2.209,3.725,3.725,0,0,0-2.262-1.483,5.459,5.459,0,0,1-4.146-4.076,3.732,3.732,0,0,0-1.493-2.255,5.462,5.462,0,0,1-2.3-5.427,3.623,3.623,0,0,0-.524-2.607,5.46,5.46,0,0,1-.051-5.9,3.618,3.618,0,0,0,.513-2.609,5.461,5.461,0,0,1,2.21-5.467,3.725,3.725,0,0,0,1.483-2.262,5.459,5.459,0,0,1,4.076-4.146,3.736,3.736,0,0,0,2.255-1.493,5.46,5.46,0,0,1,5.427-2.3,3.617,3.617,0,0,0,2.607-.523,5.46,5.46,0,0,1,5.9-.051,3.623,3.623,0,0,0,2.609.514,5.458,5.458,0,0,1,5.467,2.209,3.725,3.725,0,0,0,2.262,1.483,5.463,5.463,0,0,1,4.146,4.076,3.736,3.736,0,0,0,1.493,2.255,5.462,5.462,0,0,1,2.3,5.427,3.626,3.626,0,0,0,.524,2.608A5.438,5.438,0,0,1,295,183.4Zm-2.389-2.006a5.4,5.4,0,0,1-.791-3.893,3.67,3.67,0,0,0-1.546-3.642,5.519,5.519,0,0,1-2.228-3.326,3.667,3.667,0,0,0-2.783-2.735,5.516,5.516,0,0,1-3.345-2.2,3.667,3.667,0,0,0-3.669-1.482,5.406,5.406,0,0,1-3.9-.759,3.668,3.668,0,0,0-3.957.035,5.413,5.413,0,0,1-3.893.791,3.668,3.668,0,0,0-3.643,1.546,5.523,5.523,0,0,1-3.325,2.228,3.668,3.668,0,0,0-2.735,2.782,5.516,5.516,0,0,1-2.2,3.345,3.669,3.669,0,0,0-1.482,3.669,5.41,5.41,0,0,1-.759,3.9,3.671,3.671,0,0,0,.034,3.957,5.4,5.4,0,0,1,.791,3.893,3.673,3.673,0,0,0,1.546,3.643,5.514,5.514,0,0,1,2.228,3.325,3.667,3.667,0,0,0,2.783,2.735,5.516,5.516,0,0,1,3.345,2.2,3.667,3.667,0,0,0,3.669,1.482,5.305,5.305,0,0,1,.988-0.093,5.451,5.451,0,0,1,2.911.852,3.671,3.671,0,0,0,3.957-.034,5.4,5.4,0,0,1,3.893-.791,3.673,3.673,0,0,0,3.643-1.546,5.514,5.514,0,0,1,3.325-2.228,3.667,3.667,0,0,0,2.735-2.783,5.516,5.516,0,0,1,2.2-3.345,3.667,3.667,0,0,0,1.482-3.669,5.406,5.406,0,0,1,.759-3.9A3.671,3.671,0,0,0,292.611,181.393Zm-14.3,12.41c-2.027,0-3.582-.889-3.582-3.277v-4.164c0-2.388,1.555-3.276,3.582-3.276,2,0,3.581.888,3.581,3.276v4.164C281.893,192.914,280.311,193.8,278.312,193.8Zm1.916-7.441a1.919,1.919,0,0,0-3.832,0v4.164a1.919,1.919,0,0,0,3.832,0v-4.164Zm-12.272,7.746a0.807,0.807,0,0,1-.778.444,0.833,0.833,0,0,1-.805-1.194l10.412-20.6a0.764,0.764,0,0,1,.694-0.416,0.967,0.967,0,0,1,.944.916,0.99,0.99,0,0,1-.083.389Zm-1.722-9.968c-2.026,0-3.581-.888-3.581-3.276V176.7c0-2.388,1.555-3.276,3.581-3.276,2,0,3.582.888,3.582,3.276v4.164C269.816,183.252,268.233,184.14,266.234,184.14Zm1.916-7.44a1.919,1.919,0,0,0-3.831,0v4.164a1.919,1.919,0,0,0,3.831,0V176.7Z" transform="translate(-250 -161)"/>
</svg>
