<svg xmlns="http://www.w3.org/2000/svg" width="29" height="26" viewBox="0 0 29 26">
  <defs>
    <style>
      .cls-1 {
        fill: #fa7124;
        fill-rule: evenodd;
      }
    </style>
  </defs>
  <path id="_2" data-name="2" class="cls-1" d="M486.057,197.853a4.765,4.765,0,0,0,1.735,2.092,1.133,1.133,0,0,1,.48,1.191,1.1,1.1,0,0,1-.918.86,8.836,8.836,0,0,1-5.737-1.065,0.741,0.741,0,0,1-.249-1.01,0.718,0.718,0,0,1,1-.252,7.065,7.065,0,0,0,3.908.95,6.592,6.592,0,0,1-1.735-2.646,0.751,0.751,0,0,1,.148-0.757A10.63,10.63,0,0,0,487.549,190c0-6.356-5.855-11.527-13.049-11.527S461.451,183.644,461.451,190s5.855,11.527,13.049,11.527a14.616,14.616,0,0,0,3.547-.433,0.723,0.723,0,0,1,.876.541,0.735,0.735,0,0,1-.533.89,16.166,16.166,0,0,1-3.89.475c-8,0-14.5-5.833-14.5-13s6.5-13,14.5-13,14.5,5.833,14.5,13A12.183,12.183,0,0,1,486.057,197.853Zm-6.748-2H470.7a5.613,5.613,0,0,1,2.773-4.771c1.639-1.206,3.745-2.179,3.8-4.141a1.993,1.993,0,0,0-2.124-2.233c-1.621,0-2.107,1.368-2.161,3.151h-2.053c0-2.791,1.531-4.861,4.34-4.861a3.745,3.745,0,0,1,4.051,3.871c0,4.033-5.474,4.9-6.158,7.148h6.14v1.836Z" transform="translate(-460 -177)"/>
</svg>
