<svg xmlns="http://www.w3.org/2000/svg" width="42.938" height="43" viewBox="0 0 42.938 43">
  <defs>
    <style>
      .cls-1 {
        fill: #f95f1d;
        fill-rule: evenodd;
      }
    </style>
  </defs>
  <path id="_2" data-name="2" class="cls-1" d="M142.456,71.976a0.694,0.694,0,0,1-.175.022,0.717,0.717,0,0,1-.694-0.543l-0.717-2.867c-0.447-1.336-3.862-3.654-13.684-3.727a5.733,5.733,0,0,1-11.371-.029c-8.383.062-12.868,1.31-13.7,3.807l-0.7,2.814a0.716,0.716,0,0,1-1.39-.348l0.717-2.867c1.091-3.28,5.741-4.762,15.028-4.835V62.681a0.717,0.717,0,1,1,1.433,0v1.433a4.3,4.3,0,0,0,8.6.027c0-.005,0-0.009,0-0.013s0-.009,0-0.014V62.681a0.717,0.717,0,1,1,1.433,0v0.75c12.469,0.1,14.644,3.651,15.012,4.756l0.732,2.919A0.716,0.716,0,0,1,142.456,71.976ZM134.4,45.482v2.866a2.153,2.153,0,0,1-1.612,2.082c-0.383,1.131-1.442,4.2-2.047,5.4-1.138,2.277-4.365,6.129-9.24,6.129s-8.1-3.853-9.24-6.129c-0.6-1.207-1.663-4.274-2.046-5.4a2.154,2.154,0,0,1-1.613-2.082V45.482a2.154,2.154,0,0,1,1.433-2.027V42.615a0.717,0.717,0,0,1,1.434,0v1.433a0.717,0.717,0,0,1-.717.717,0.718,0.718,0,0,0-.717.717v2.866a0.718,0.718,0,0,0,.717.717,0.714,0.714,0,0,1,.679.49c0.015,0.042,1.426,4.267,2.112,5.639,0.109,0.218,2.728,5.337,7.958,5.337s7.849-5.119,7.959-5.337c0.685-1.372,2.1-5.6,2.111-5.639a0.715,0.715,0,0,1,.68-0.49,0.717,0.717,0,0,0,.716-0.717V45.482a0.717,0.717,0,0,0-.716-0.717,0.716,0.716,0,0,1-.717-0.717V42.615a0.716,0.716,0,1,1,1.433,0v0.839A2.154,2.154,0,0,1,134.4,45.482ZM119.85,55a2.908,2.908,0,0,0,3.3,0,0.721,0.721,0,0,1,1.009.021,0.711,0.711,0,0,1,0,1,4.271,4.271,0,0,1-5.313,0A0.717,0.717,0,0,1,119.85,55Zm-5.476-6.982-2.62-1.964a0.717,0.717,0,0,1,.86-1.147l1.827,1.37a2.145,2.145,0,0,1,2.043-1.514h2.867a2.152,2.152,0,0,1,2.149,2.15,2.153,2.153,0,0,1,2.15-2.15h2.867a2.145,2.145,0,0,1,2.043,1.514l1.826-1.37a0.717,0.717,0,1,1,.86,1.147l-2.619,1.964A2.86,2.86,0,0,1,125.8,50.5h-1.433a2.87,2.87,0,0,1-2.867-2.866,2.869,2.869,0,0,1-2.866,2.866H117.2A2.859,2.859,0,0,1,114.374,48.019Zm8.56-.387a1.435,1.435,0,0,0,1.433,1.433H125.8a1.435,1.435,0,0,0,1.433-1.433V46.915a0.717,0.717,0,0,0-.716-0.717H123.65a0.717,0.717,0,0,0-.716.717v0.717Zm-2.867,0h0V46.915a0.717,0.717,0,0,0-.717-0.717h-2.866a0.717,0.717,0,0,0-.717.717v0.717a1.436,1.436,0,0,0,1.434,1.433h1.433A1.435,1.435,0,0,0,120.067,47.632ZM132.25,34.015a0.716,0.716,0,0,1,.716.717v5.016a0.717,0.717,0,0,1-.4.641,28.646,28.646,0,0,1-22.139,0,0.718,0.718,0,0,1-.4-0.641V34.732a0.717,0.717,0,0,1,1.434,0v4.553a27.478,27.478,0,0,0,20.065,0V34.732A0.716,0.716,0,0,1,132.25,34.015Zm5.733,6.45a2.089,2.089,0,0,1-2.15-2.15,5.224,5.224,0,0,1,1.433-3.145V32.682l-15.673,2.044a0.753,0.753,0,0,1-.185,0l-16.482-2.15a0.717,0.717,0,0,1,0-1.422L121.408,29a0.8,0.8,0,0,1,.185,0l16.482,2.15a18.718,18.718,0,0,0,.215.07,0.658,0.658,0,0,1,.128.087,0.6,0.6,0,0,1,.084.066,0.694,0.694,0,0,1,.095.141,0.786,0.786,0,0,1,.048.079,0.7,0.7,0,0,1,.054.267v3.3a5.224,5.224,0,0,1,1.433,3.145A2.089,2.089,0,0,1,137.983,40.465ZM121.5,30.438l-10.942,1.428L121.5,33.293l10.942-1.428Zm16.483,6.129a3.33,3.33,0,0,0-.717,1.748,0.717,0.717,0,1,0,1.433,0A3.329,3.329,0,0,0,137.983,36.567Z" transform="translate(-100.031 -29)"/>
</svg>
