<svg xmlns="http://www.w3.org/2000/svg" width="55.938" height="56" viewBox="0 0 55.938 56">
  <defs>
    <style>
      .cls-1 {
        fill: #f95f1d;
        fill-rule: evenodd;
      }
    </style>
  </defs>
  <path id="_20" data-name="20" class="cls-1" d="M83.949,249l-11.025-11.01H59.033l-5.474,5.462c-13.612-1.137-24.588,6.528-24.742,6.638a0.992,0.992,0,1,0,1.153,1.615c0.138-.1,9.634-6.728,21.7-6.374L33.941,263.026l0.008,0.008-5.959,5.949,24.943,25.023,9.959-9.942a14.708,14.708,0,0,0,6.779,1.6,12.881,12.881,0,0,0,9.028-3.28,15.206,15.206,0,0,0,3.415-17.508l1.834-1.832V249h0ZM72.1,239.977l9.861,9.849v12.392L62.585,281.554c-4.051-2.908-5.284-8.363-3.465-15.516a0.992,0.992,0,1,0-1.922-.49c-2.568,10.095.883,15.073,3.967,17.422l-2.274,2.27-22.135-22.2,17.537-17.509a30.335,30.335,0,0,1,12.941,4.634,3.858,3.858,0,0,0-.067.673,3.957,3.957,0,1,0,.915-2.481,32.3,32.3,0,0,0-12.02-4.59l3.792-3.787H72.1Zm-2.638,11.717a0.992,0.992,0,0,0,1.189-1.588c-0.306-.229-0.614-0.432-0.92-0.647a1.919,1.919,0,1,1-.438,2.117C69.355,251.616,69.412,251.651,69.467,251.694ZM30.8,268.987l4.555-4.547,22.142,22.211L52.937,291.2Zm46.5,11.991c-2.555,2.555-8.3,3.721-12.925,1.609l16.243-16.216C81.6,268.829,83.2,275.069,77.3,280.978Z" transform="translate(-28 -238)"/>
</svg>
