<svg xmlns="http://www.w3.org/2000/svg" width="51.031" height="52" viewBox="0 0 51.031 52">
  <defs>
    <style>
      .cls-1 {
        fill: #f95f1d;
        fill-rule: evenodd;
      }
    </style>
  </defs>
  <path id="_21" data-name="21" class="cls-1" d="M150.745,238.256a0.862,0.862,0,0,0-1.223,0l-3.2,3.213H126.192l-25.3,25.576a3.064,3.064,0,0,0,0,4.325l17.69,17.738a3.05,3.05,0,0,0,4.322-.009L147.54,263.73V242.694l3.205-3.213A0.867,0.867,0,0,0,150.745,238.256Zm-4.934,24.771-24.138,24.855a1.319,1.319,0,0,1-1.868,0l-17.691-17.737a1.331,1.331,0,0,1,0-1.877l24.8-25.066h17.676l-4.177,4.189a4.347,4.347,0,1,0,1.222,1.225l4.177-4.188v18.6ZM140.625,251a2.593,2.593,0,1,1-2.593-2.6,2.561,2.561,0,0,1,1.111.261l-1.722,1.727a0.865,0.865,0,1,0,1.222,1.225l1.722-1.726A2.569,2.569,0,0,1,140.625,251Z" transform="translate(-100 -238)"/>
</svg>
