<svg xmlns="http://www.w3.org/2000/svg" width="53" height="51" viewBox="0 0 53 51">
  <defs>
    <style>
      .cls-1 {
        fill: #f95f1d;
        fill-rule: evenodd;
      }
    </style>
  </defs>
  <path id="_22" data-name="22" class="cls-1" d="M223,277.368a11.591,11.591,0,0,1-22.726,3.258l-7.848,7.85-22.437-22.548,5.36-5.362-0.007-.007,21.892-21.882,0.677-.677h12.5l9.917,9.922v12.652l-5.643,5.644A11.64,11.64,0,0,1,223,277.368Zm-21.376.742c0.005,0.063.014,0.133,0.021,0.2,0.014,0.132.024,0.257,0.044,0.4l0,0.018a9.811,9.811,0,1,0,11.1-11.092l-0.023,0c-0.178-.025-0.335-0.04-0.5-0.056-0.04,0-.085-0.009-0.124-0.013-0.246-.019-0.492-0.038-0.743-0.038a9.84,9.84,0,0,0-9.815,9.842C201.59,277.619,201.609,277.864,201.628,278.11Zm-29.111-12.179,19.915,20.014,4.1-4.1-19.916-20.014Zm46.027-6.1V248.664l-8.871-8.874h-11.02l-20.776,20.78,19.91,20.006,2.077-2.077c-0.007-.068-0.006-0.138-0.011-0.206s-0.01-.121-0.014-0.179-0.013-.136-0.016-0.2c-0.011-.188-0.016-0.368-0.016-0.546a11.628,11.628,0,0,1,11.6-11.632c0.183,0,.368.006,0.56,0.017,0.05,0,.1.01,0.155,0.013l0.2,0.017c0.085,0.008.172,0,.256,0.014Zm-10.694-6.737a3.521,3.521,0,1,1,3.511-3.521A3.52,3.52,0,0,1,207.85,253.094Zm0-5.252a1.732,1.732,0,1,0,1.727,1.732A1.731,1.731,0,0,0,207.85,247.842Zm-0.34,28.9,3.524,2.9,4.993-7.194a0.886,0.886,0,0,1,1.242-.222,0.9,0.9,0,0,1,.223,1.245l-5.545,7.989a0.891,0.891,0,0,1-.61.375,0.845,0.845,0,0,1-.122.009,0.893,0.893,0,0,1-.566-0.2l-4.27-3.515A0.893,0.893,0,0,1,207.51,276.741Z" transform="translate(-170 -238)"/>
</svg>
