<svg xmlns="http://www.w3.org/2000/svg" width="64.031" height="64" viewBox="0 0 64.031 64">
  <defs>
    <style>
      .cls-1 {
        fill: #fa7124;
        fill-rule: evenodd;
      }
    </style>
  </defs>
  <path id="_24" data-name="24" class="cls-1" d="M379.558,232.56l-10.627,10.628,4.416,4.415a1.5,1.5,0,0,1,0,2.122,7,7,0,0,0,0,9.9,1.5,1.5,0,0,1,0,2.122l-31.812,31.813a1.5,1.5,0,0,1-2.121,0l-22.975-22.976a1.5,1.5,0,0,1,0-2.122l31.812-31.813a1.5,1.5,0,0,1,2.121,0,7,7,0,0,0,9.9,0,1.5,1.5,0,0,1,2.121,0l4.416,4.416,10.627-10.628A1.5,1.5,0,0,1,379.558,232.56ZM363.9,248.215a5.079,5.079,0,1,1-2.123-2.12l2.908-2.908-3.434-3.434a10.008,10.008,0,0,1-11.865,0l-29.769,29.771,20.854,20.855,29.769-29.771a10.013,10.013,0,0,1,0-11.866l-3.434-3.433Zm-4.738.5,0.2-.2a2.077,2.077,0,1,0,2.121,2.121l-0.2.2A1.5,1.5,0,1,1,359.166,248.71Zm-23.874,28.118a1.5,1.5,0,0,1-2.121-2.121L350.579,257.3a1.5,1.5,0,0,1,2.121,2.122Zm-4.594-4.594a1.5,1.5,0,0,1-2.121-2.122L345.985,252.7a1.5,1.5,0,0,1,2.121,2.121Zm18.425-4.291a1.5,1.5,0,0,1,2.121,2.121l-11.358,11.358a1.5,1.5,0,0,1-2.121-2.121Z" transform="translate(-316 -230)"/>
</svg>
