<svg xmlns="http://www.w3.org/2000/svg" width="61" height="41" viewBox="0 0 61 41">
  <defs>
    <style>
      .cls-1 {
        fill: #fa762c;
        fill-rule: evenodd;
      }
    </style>
  </defs>
  <path id="_25" data-name="25" class="cls-1" d="M86.946,354.875h-4.2a6.162,6.162,0,0,1-12.148,0H47.732a6.162,6.162,0,0,1-12.148,0H30.362a0.934,0.934,0,0,1-.822-0.41,0.8,0.8,0,0,1-.1-0.82l2.427-13.122a0.771,0.771,0,0,1,.038-0.2l0.518-2.87H29.027a1.025,1.025,0,1,1,0-2.05H32.79l0.37-2.05H29.849a1.025,1.025,0,1,1,0-2.05h3.681l0.37-2.05H30.567a1.025,1.025,0,1,1,0-2.05h3.7l0.37-2.05H31.286a1.025,1.025,0,1,1,0-2.05h3.722l0.592-3.28a0.838,0.838,0,0,1,.924-0.82H73.6a1.167,1.167,0,0,1,.822.307,2.412,2.412,0,0,1,.206.82,49.088,49.088,0,0,1-1.9,8.1h5.395a2.975,2.975,0,0,1,2.978,2.357l2.567,10.251,4.005,1.64A2,2,0,0,1,89,344.42v8.4A2.058,2.058,0,0,1,86.946,354.875ZM76.677,357.95a4.1,4.1,0,1,0-4.108-4.1A4.116,4.116,0,0,0,76.677,357.95Zm-35.018,0a4.1,4.1,0,1,0-4.108-4.1A4.116,4.116,0,0,0,41.658,357.95Zm-4.21-36.9-0.365,2.05H48.128a1.025,1.025,0,1,1,0,2.05H36.718l-0.365,2.05H47.409a1.025,1.025,0,1,1,0,2.05H35.987l-0.365,2.05H46.69a0.969,0.969,0,0,1,1.027,1.025,1.028,1.028,0,0,1-1.027,1.025H35.257l-0.365,2.05H45.869a0.969,0.969,0,0,1,1.027,1.025,0.947,0.947,0,0,1-.924,1.025H34.527l-0.365,2.05H60.246c0.111,0,.221,0,0.33-0.009l0.1,0c0.1-.006.19-0.013,0.285-0.023,0.06-.006.119-0.014,0.178-0.022l0.084-.012c4.264-.624,7.067-5.295,8.749-9.578a48.141,48.141,0,0,0,2.4-8.8H37.448Zm49.5,23.268-4.519-1.743H76.985a3.415,3.415,0,0,1-3.389-3.382v-4.818a1.027,1.027,0,0,1,2.054,0v4.818a1.358,1.358,0,0,0,1.335,1.332h4.5l-2.34-9.43a1.105,1.105,0,0,0-1.027-.82h-6.12c-2.071,5.4-5.586,10.977-11.288,11.263H60.677c-0.143.007-.286,0.011-0.431,0.011H33.751l-2.157,11.275h3.99a6.189,6.189,0,0,1,3.543-4.577c0.041-.019.081-0.038,0.123-0.055l0.078-.032c0.067-.028.133-0.055,0.2-0.08l0.055-.019q0.113-.042.228-0.078l0.05-.015c0.078-.024.157-0.047,0.236-0.068l0.053-.013c0.078-.02.157-0.038,0.236-0.055l0.06-.012q0.115-.023.231-0.042l0.069-.011c0.075-.011.15-0.02,0.226-0.029l0.077-.008c0.076-.008.152-0.013,0.229-0.018l0.076,0c0.1-.005.2-0.008,0.3-0.008s0.2,0,.3.008l0.076,0c0.077,0,.153.01,0.229,0.018l0.077,0.008c0.076,0.009.151,0.018,0.226,0.029l0.069,0.011c0.078,0.013.155,0.026,0.231,0.042l0.06,0.012c0.079,0.017.158,0.035,0.236,0.055l0.053,0.013c0.079,0.021.158,0.044,0.236,0.068l0.05,0.015c0.077,0.024.152,0.05,0.227,0.077l0.056,0.02c0.068,0.025.134,0.052,0.2,0.079l0.078,0.032,0.122,0.056a6.186,6.186,0,0,1,3.544,4.577H70.515a6.175,6.175,0,0,1,6.059-5.125h0.1a6.18,6.18,0,0,1,6.074,5.125h4.2v-8.507ZM73.6,346.675H71.542a1.025,1.025,0,1,1,0-2.05H73.6A1.025,1.025,0,1,1,73.6,346.675ZM41.658,351.8a2.05,2.05,0,1,1-2.054,2.05A2.058,2.058,0,0,1,41.658,351.8Zm35.019,0a2.05,2.05,0,1,1-2.054,2.05A2.058,2.058,0,0,1,76.677,351.8Z" transform="translate(-28 -319)"/>
</svg>
