<svg xmlns="http://www.w3.org/2000/svg" width="58.906" height="59.906" viewBox="0 0 58.906 59.906">
  <defs>
    <style>
      .cls-1 {
        fill: #fa7124;
        fill-rule: evenodd;
      }
    </style>
  </defs>
  <path id="_26" data-name="26" class="cls-1" d="M454.611,233.8l-3.7,3.7v24.235l-28.455,29.226a3.531,3.531,0,0,1-4.991.01l-20.433-20.435a3.52,3.52,0,0,1,0-4.982l29.223-29.466H449.5l3.7-3.7A1,1,0,1,1,454.611,233.8Zm-5.7,5.7-4.825,4.825a5.011,5.011,0,1,1-1.412-1.411l4.826-4.826H427.085l-28.64,28.878a1.525,1.525,0,0,0,0,2.161l20.433,20.435a1.528,1.528,0,0,0,2.158,0l27.88-28.635V239.5Zm-9.691,6.868,1.989-1.989a3.031,3.031,0,1,0,1.411,1.412l-1.988,1.989A1,1,0,1,1,439.223,246.367ZM420.579,284.3a1.008,1.008,0,0,1,1.418-.021,1,1,0,0,1,.02,1.408,0.985,0.985,0,0,1-.719.31,1.017,1.017,0,0,1-.7-0.29A1,1,0,0,1,420.579,284.3Zm0.739-35.146a1.021,1.021,0,0,1-.7-0.29,1,1,0,0,1,0-1.417,0.992,0.992,0,0,1,1.408,0,1,1,0,0,1,.01,1.407A1.019,1.019,0,0,1,421.318,249.15Zm3.464,32.27a0.993,0.993,0,0,1,.02,1.408,1.016,1.016,0,0,1-.719.3,0.97,0.97,0,0,1-.689-0.279A1,1,0,1,1,424.782,281.42Zm-0.649-35.106a1,1,0,1,1,.709-0.3A0.974,0.974,0,0,1,424.133,246.314Zm3.435,32.241a0.994,0.994,0,0,1,.02,1.407,1.019,1.019,0,0,1-.719.3,0.973,0.973,0,0,1-.689-0.279A1,1,0,0,1,427.568,278.555Zm-0.618-35.077a1,1,0,1,1,.7-1.708A1,1,0,0,1,426.95,243.478Zm3.4,32.211a1,1,0,0,1,.02,1.418,1.011,1.011,0,0,1-.719.3,0.967,0.967,0,0,1-.689-0.28A1,1,0,0,1,430.354,275.689Zm-0.989-34.607a1,1,0,1,1,1,1A0.994,0.994,0,0,1,429.365,241.082Zm3.775,31.751a1,1,0,0,1,.02,1.408,1.018,1.018,0,0,1-.719.3,0.969,0.969,0,0,1-.689-0.279A1,1,0,0,1,433.14,272.833Zm1.217-32.749a1,1,0,1,1-1,1A1,1,0,0,1,434.357,240.084Zm1.567,29.883a1,1,0,0,1,.02,1.418,1.011,1.011,0,0,1-.719.3A1,1,0,1,1,435.924,269.967Zm2.786-2.856a1,1,0,0,1-.7,1.709,0.97,0.97,0,0,1-.689-0.28A1,1,0,0,1,438.71,267.111Zm2.785-2.864a1,1,0,0,1,.02,1.418,0.979,0.979,0,0,1-.709.3A1,1,0,1,1,441.5,264.247Zm2.786-2.866a1,1,0,0,1,.02,1.418,1,1,0,0,1-1.408.02A1,1,0,0,1,444.281,261.381Zm1.638-11.312a1,1,0,1,1-1,1A1,1,0,0,1,445.919,250.069Zm0,3.993a1,1,0,1,1-1,1A1,1,0,0,1,445.919,254.062Zm0,3.994a1,1,0,1,1-1,1A1,1,0,0,1,445.919,258.056Zm-27.407-6.07a0.987,0.987,0,0,1-.7-0.29,1,1,0,1,1,1.4-1.418A1,1,0,0,1,418.512,251.986Zm0.689,32.25a1.007,1.007,0,0,1,0,1.418,1.022,1.022,0,0,1-.709.29A1,1,0,1,1,419.2,284.236Zm-3.5-29.415a1,1,0,1,1,.709-0.3A0.978,0.978,0,0,1,415.7,254.821Zm0.679,26.59a1,1,0,1,1-1.408,0A0.993,0.993,0,0,1,416.377,281.411Zm-3.5-23.754a1.022,1.022,0,0,1-.7-0.289,1.007,1.007,0,0,1,0-1.418,1,1,0,0,1,1.418,1.408A1.016,1.016,0,0,1,412.881,257.657Zm0.669,20.928a1,1,0,1,1-1.408,0A1,1,0,0,1,413.55,278.585Zm-3.474-18.093a0.981,0.981,0,0,1-.7-0.29,1,1,0,1,1,1.4-1.418A1,1,0,0,1,410.076,260.492Zm0.649,15.277a0.994,0.994,0,0,1,0,1.407,0.959,0.959,0,0,1-.7.29,0.98,0.98,0,0,1-.709-0.29A1,1,0,1,1,410.725,275.769Zm-3.465-12.441a1,1,0,1,1,.7-1.708,0.985,0.985,0,0,1,.01,1.408A0.974,0.974,0,0,1,407.26,263.328Zm0.649,9.616a1,1,0,1,1-1.418,0A1.006,1.006,0,0,1,407.909,272.944Zm-3.454-6.78a1.026,1.026,0,0,1-.709-0.29,1.006,1.006,0,0,1,0-1.417,0.995,0.995,0,1,1,1.408,1.406A0.971,0.971,0,0,1,404.455,266.164Zm0.629,3.954a1,1,0,1,1-1.418,0A1,1,0,0,1,405.084,270.118ZM401.639,269a1.024,1.024,0,0,1-.708-0.29,1.006,1.006,0,0,1,0-1.418,1,1,0,0,1,1.417,1.408A1.012,1.012,0,0,1,401.639,269Z" transform="translate(-396 -232.094)"/>
</svg>
