<svg xmlns="http://www.w3.org/2000/svg" width="58.906" height="59.906" viewBox="0 0 58.906 59.906">
  <defs>
    <style>
      .cls-1 {
        fill: #fa7124;
        fill-rule: evenodd;
      }
    </style>
  </defs>
  <path id="_27" data-name="27" class="cls-1" d="M172.612,304.389a1,1,0,0,0-1.412,0l-3.7,3.7H144.254l-29.223,29.466a3.52,3.52,0,0,0,0,4.982l20.433,20.435a3.531,3.531,0,0,0,4.991-.01l28.455-29.226V309.5l3.7-3.7A1,1,0,0,0,172.612,304.389Zm-35.736,57.172-20.433-20.435a1.525,1.525,0,0,1,0-2.161l8.836-8.91,22.509,22.512-8.757,8.994A1.528,1.528,0,0,1,136.876,361.561Zm30.038-28.635-17.73,18.21-22.5-22.5,18.4-18.551H165.5l-4.826,4.826a5,5,0,1,0,1.412,1.411l4.825-4.825v21.427Zm-5.99-13.853a3.026,3.026,0,1,1-1.712-2.695l-1.989,1.989a1,1,0,1,0,1.412,1.412l1.988-1.989A2.96,2.96,0,0,1,160.924,319.073Z" transform="translate(-114 -304.094)"/>
</svg>
