<svg xmlns="http://www.w3.org/2000/svg" width="58.938" height="56" viewBox="0 0 58.938 56">
  <defs>
    <style>
      .cls-1 {
        fill: #fa7124;
        fill-rule: evenodd;
      }
    </style>
  </defs>
  <path id="_28" data-name="28" class="cls-1" d="M249.627,337.917l-5.561,5.231,1.312,7.377a0.992,0.992,0,0,1-1.426,1.059l-6.91-3.5-6.909,3.5a0.976,0.976,0,0,1-.449.107,0.991,0.991,0,0,1-.977-1.166l1.311-7.377-5.561-5.231a0.993,0.993,0,0,1,.54-1.707l7.716-1.081,3.445-6.734a1.032,1.032,0,0,1,1.765,0l3.446,6.734,7.715,1.081A0.995,0.995,0,0,1,249.627,337.917Zm-9.047-.892a0.993,0.993,0,0,1-.745-0.531l-2.8-5.466-2.8,5.466a0.993,0.993,0,0,1-.745.531l-6.176.866,4.444,4.178a0.989,0.989,0,0,1,.3.9l-1.055,5.946,5.584-2.833a0.991,0.991,0,0,1,.9,0l5.585,2.833-1.056-5.946a0.992,0.992,0,0,1,.3-0.9l4.442-4.178Zm-3.589-16.186a3.9,3.9,0,1,1-3.9-3.909A3.91,3.91,0,0,1,236.991,320.839Zm-5.825,0a1.92,1.92,0,1,0,1.92-1.923A1.923,1.923,0,0,0,231.166,320.839Zm13.811-1.01-9.863-9.851H222.859l-23.1,23.062,23.819,23.629-7.654,7.337-24.935-25.015,5.956-5.947-0.009-.008,25.1-25.044h13.894l11.027,11.013v13.632h-1.984V319.829ZM193.8,339l22.161,22.231,4.779-4.582-22.38-22.2Z" transform="translate(-191 -308)"/>
</svg>
