<svg xmlns="http://www.w3.org/2000/svg" width="57" height="44" viewBox="0 0 57 44">
  <defs>
    <style>
      .cls-1 {
        fill: #fa7124;
        fill-rule: evenodd;
      }
    </style>
  </defs>
  <path id="_3" data-name="3" class="cls-1" d="M231.861,73H181.139A3.172,3.172,0,0,1,178,69.8V32.2a3.172,3.172,0,0,1,3.139-3.2h50.722A3.172,3.172,0,0,1,235,32.2V69.8A3.172,3.172,0,0,1,231.861,73Zm1.292-40.8a1.305,1.305,0,0,0-1.292-1.316H181.139a1.306,1.306,0,0,0-1.292,1.316v8.838h53.306V32.2ZM187.726,42.915v14.1a1.047,1.047,0,1,0,2.093,0v-14.1h-2.093Zm8.864,0v14.1a1.047,1.047,0,1,0,2.093,0v-14.1H196.59Zm8.864,0v14.1a1.046,1.046,0,1,0,2.092,0v-14.1h-2.092Zm8.863,0v14.1a1.047,1.047,0,1,0,2.093,0v-14.1h-2.093Zm8.864,0v14.1a1.047,1.047,0,1,0,2.093,0v-14.1h-2.093Zm9.972,0h-6.032v14.1a2.946,2.946,0,0,1-1.97,2.791v1.22a0.923,0.923,0,1,1-1.846,0v-1.22a2.946,2.946,0,0,1-1.97-2.791v-14.1h-3.078v14.1a2.946,2.946,0,0,1-1.97,2.791v1.22a0.923,0.923,0,1,1-1.846,0v-1.22a2.946,2.946,0,0,1-1.97-2.791v-14.1h-3.078v14.1a2.946,2.946,0,0,1-1.97,2.791v1.22a0.923,0.923,0,1,1-1.846,0v-1.22a2.946,2.946,0,0,1-1.97-2.791v-14.1h-3.078v14.1a2.946,2.946,0,0,1-1.97,2.791v1.22a0.923,0.923,0,1,1-1.846,0v-1.22a2.946,2.946,0,0,1-1.97-2.791v-14.1h-3.078v14.1a2.946,2.946,0,0,1-1.97,2.791v1.22a0.923,0.923,0,1,1-1.846,0v-1.22a2.946,2.946,0,0,1-1.97-2.791v-14.1h-6.032V69.8a1.306,1.306,0,0,0,1.292,1.316h6.71V65.04a0.923,0.923,0,1,1,1.846,0v6.08h7.018V65.04a0.923,0.923,0,1,1,1.846,0v6.08h7.018V65.04a0.923,0.923,0,1,1,1.846,0v6.08h7.018V65.04a0.923,0.923,0,1,1,1.846,0v6.08h7.018V65.04a0.923,0.923,0,1,1,1.846,0v6.08h6.71a1.305,1.305,0,0,0,1.292-1.316V42.915Zm-12.865-9.9a0.94,0.94,0,0,1,0,1.88,1.066,1.066,0,1,0,.907,1.6,0.915,0.915,0,0,1,1.262-.343,0.949,0.949,0,0,1,.336,1.285A2.91,2.91,0,1,1,220.288,33.011Zm6.895,0a0.94,0.94,0,0,1,0,1.88,1.066,1.066,0,0,0,0,2.131,1.047,1.047,0,0,0,.906-0.533,0.915,0.915,0,0,1,1.262-.343,0.949,0.949,0,0,1,.336,1.285,2.893,2.893,0,0,1-2.5,1.471A2.946,2.946,0,0,1,227.183,33.011Z" transform="translate(-178 -29)"/>
</svg>
