<svg xmlns="http://www.w3.org/2000/svg" width="48.031" height="48" viewBox="0 0 48.031 48">
  <defs>
    <style>
      .cls-1 {
        fill: #fa7124;
        fill-rule: evenodd;
      }
    </style>
  </defs>
  <path id="_4" data-name="4" class="cls-1" d="M269.844,53.545L288.484,34.9a5.2,5.2,0,0,1,3.689-1.533c0.114,0,.228,0,0.342.01L306,34.266A2.941,2.941,0,0,1,308.73,37l0.322,4.786a9.3,9.3,0,0,0,1.927-1.482A8.463,8.463,0,0,0,313.5,35.25a5.251,5.251,0,0,0-1.4-4.351c-2.29-2.29-6.507-1.782-9.419,1.119a1.245,1.245,0,0,1-1.761-1.761c3.9-3.864,9.7-4.361,12.952-1.108a7.693,7.693,0,0,1,2.113,6.361,10.92,10.92,0,0,1-3.232,6.568,11.562,11.562,0,0,1-3.513,2.414l0.394,6a5.209,5.209,0,0,1-1.523,4.04L289.458,73.177A6.19,6.19,0,0,1,285.044,75h0a6.236,6.236,0,0,1-4.414-1.823L269.824,62.372A6.227,6.227,0,0,1,269.844,53.545ZM271.6,60.6l10.818,10.815a3.729,3.729,0,0,0,2.652,1.1h0a3.733,3.733,0,0,0,2.653-1.1l18.65-18.647a2.727,2.727,0,0,0,.8-2.113L306.8,45.226c-0.207.031-.414,0.062-0.621,0.083-0.311.031-.622,0.052-0.923,0.052a7.522,7.522,0,0,1-5.429-2.155,1.246,1.246,0,0,1,1.762-1.761,5.252,5.252,0,0,0,4.351,1.4c0.239-.021.467-0.062,0.694-0.1l-0.372-5.553a0.457,0.457,0,0,0-.425-0.425l-13.48-.891c-0.063,0-.125-0.01-0.187-0.01a2.756,2.756,0,0,0-1.938.8L271.6,55.3A3.752,3.752,0,0,0,271.6,60.6Z" transform="translate(-268 -27)"/>
</svg>
