<svg xmlns="http://www.w3.org/2000/svg" width="53" height="51" viewBox="0 0 53 51">
  <defs>
    <style>
      .cls-1 {
        fill: #f95f1d;
        fill-rule: evenodd;
      }
    </style>
  </defs>
  <path id="_6" data-name="6" class="cls-1" d="M441,66.368a11.591,11.591,0,0,1-22.726,3.258l-7.848,7.85L387.993,54.927l5.36-5.361-0.007-.007,21.892-21.882L415.915,27h12.5l9.917,9.922V49.574l-5.643,5.644A11.639,11.639,0,0,1,441,66.368Zm-21.376.742c0,0.063.014,0.133,0.021,0.2,0.014,0.132.024,0.257,0.044,0.4l0,0.018a9.811,9.811,0,1,0,11.095-11.092l-0.023,0c-0.178-.025-0.335-0.039-0.5-0.055l-0.124-.014c-0.246-.019-0.492-0.038-0.743-0.038a9.84,9.84,0,0,0-9.815,9.842C419.59,66.619,419.609,66.864,419.628,67.11ZM390.517,54.931l19.915,20.014,4.1-4.1L394.614,50.833Zm46.027-6.1V37.664l-8.871-8.875h-11.02L395.877,49.57l19.91,20.006,2.077-2.077c-0.007-.068-0.006-0.139-0.011-0.207s-0.01-.121-0.014-0.179-0.013-.136-0.016-0.2c-0.011-.188-0.016-0.369-0.016-0.547a11.628,11.628,0,0,1,11.6-11.631c0.183,0,.368.006,0.56,0.017l0.155,0.013,0.2,0.017c0.085,0.007.172,0,.256,0.014ZM425.85,42.094a3.521,3.521,0,1,1,3.511-3.521A3.52,3.52,0,0,1,425.85,42.094Zm0-5.252a1.732,1.732,0,1,0,1.727,1.732A1.731,1.731,0,0,0,425.85,36.842Zm-0.34,28.9,3.524,2.9,4.993-7.194a0.887,0.887,0,0,1,1.242-.223,0.9,0.9,0,0,1,.223,1.245l-5.545,7.989a0.891,0.891,0,0,1-.61.375,0.792,0.792,0,0,1-.122.009,0.891,0.891,0,0,1-.566-0.2l-4.27-3.515A0.893,0.893,0,1,1,425.51,65.741Z" transform="translate(-388 -27)"/>
</svg>
