<svg xmlns="http://www.w3.org/2000/svg" width="38" height="41" viewBox="0 0 38 41">
  <defs>
    <style>
      .cls-1 {
        fill: #f95f1d;
        fill-rule: evenodd;
      }
    </style>
  </defs>
  <path id="_7" data-name="7" class="cls-1" d="M71.376,100.617h-0.2v4.059a1.657,1.657,0,0,1,.707,2.571c0.873,0.98.873,2.951,0.873,3.7a10.018,10.018,0,0,1-.14,1.687,0.615,0.615,0,0,1-.609.51H69.1a0.615,0.615,0,0,1-.61-0.513,10.121,10.121,0,0,1-.136-1.684c0-.751,0-2.722.873-3.7a1.66,1.66,0,0,1,.707-2.572v-4.058H67.553v6.47a0.607,0.607,0,0,1-.142.39,12.565,12.565,0,0,1-5.231,12.939,11.24,11.24,0,0,1,5.571,2.655,16.372,16.372,0,0,1,4.11,5.89,28.407,28.407,0,0,1,2.14,8.38,0.616,0.616,0,0,1-.617.659H36.619a0.623,0.623,0,0,1-.453-0.2A0.613,0.613,0,0,1,36,137.34a28.371,28.371,0,0,1,2.139-8.379,16.367,16.367,0,0,1,4.109-5.89,11.235,11.235,0,0,1,5.573-2.655,12.56,12.56,0,0,1-5.494-10.373,12.709,12.709,0,0,1,.264-2.564,0.612,0.612,0,0,1-.143-0.393v-6.469H38.627a1.809,1.809,0,1,1,0-3.617h32.75A1.809,1.809,0,1,1,71.376,100.617Zm-1.785,10.332a9.374,9.374,0,0,0,.049.968h1.825a9.1,9.1,0,0,0,.051-0.968c0-1.97-.342-3.056-0.963-3.056S69.591,108.979,69.591,110.949ZM71,106.225a0.443,0.443,0,1,0-.445.44A0.442,0.442,0,0,0,71,106.225Zm-4.561,3.818a11.385,11.385,0,0,0-.242-2.342H56.248c1.154,2.31,3.743,5.19,9.545,6.1A11.237,11.237,0,0,0,66.436,110.043Zm-0.12-3.571v-5.855H43.687v5.855h22.63Zm-10.7,30.3H72.7a28.1,28.1,0,0,0-1.98-7.346c-1.766-4.038-4.3-6.568-7.542-7.522l-4.33,4.045a0.611,0.611,0,0,1-.423.167,0.623,0.623,0,0,1-.407-0.152l-2.4-2.079v12.887Zm6.09-15.186a12,12,0,0,0-1.382-.115,12.582,12.582,0,0,1-4.311,1.127l2.39,2.075Zm-14.881.317c-3.239.954-5.776,3.485-7.543,7.523a27.994,27.994,0,0,0-1.978,7.346H54.383V123.885l-2.395,2.078a0.623,0.623,0,0,1-.407.152,0.614,0.614,0,0,1-.423-0.167Zm7.159,0.695a12.6,12.6,0,0,1-4.31-1.127,11.8,11.8,0,0,0-1.384.115l3.3,3.087ZM55,121.409a11.5,11.5,0,0,0,10.305-6.445,15.063,15.063,0,0,1-7.517-3.325,11.19,11.19,0,0,1-2.8-3.714,11.229,11.229,0,0,1-3.05,3.894,15.3,15.3,0,0,1-7.27,3.088A11.492,11.492,0,0,0,55,121.409ZM44.188,113.74c5.765-.9,8.365-3.75,9.534-6.039H43.809a11.458,11.458,0,0,0-.242,2.342A11.265,11.265,0,0,0,44.188,113.74ZM71.376,98.229H38.627a0.58,0.58,0,1,0,0,1.159h32.75A0.58,0.58,0,1,0,71.376,98.229Zm-6.56,3.619a0.617,0.617,0,0,1,.618.614v2.6a0.618,0.618,0,0,1-1.236,0v-2.6A0.617,0.617,0,0,1,64.816,101.848Z" transform="translate(-36 -97)"/>
</svg>
