<svg xmlns="http://www.w3.org/2000/svg" width="46" height="36" viewBox="0 0 46 36">
  <defs>
    <style>
      .cls-1 {
        fill: #f95f1d;
        fill-rule: evenodd;
      }
    </style>
  </defs>
  <path id="_8" data-name="8" class="cls-1" d="M141.933,132v3h-3.066v3H105.133v-3h-3.066v-3H99V108h3.067v-3h3.066v-3h33.734v3h3.066v3H145v24h-3.067Zm-39.866-22.5h-1.534v21h1.534v-21Zm3.066-3H103.6v27h1.533v-27Zm32.2,28.5V103.5H106.667v33h30.666V135Zm3.067-3V106.5h-1.533v27H140.4V132Zm3.067-22.5h-1.534v21h1.534v-21ZM113.95,123.75a5.255,5.255,0,0,1,3.45,1.26V110.25a0.754,0.754,0,0,1,.647-0.74l14.567-2.25a0.771,0.771,0,0,1,.617.17,0.741,0.741,0,0,1,.269.57v15.75a5.009,5.009,0,1,1-4.983-4.5,5.254,5.254,0,0,1,3.45,1.261v-7.134l-13.034,2.014v12.936c0,0.009-.005.017-0.006,0.027A5,5,0,1,1,113.95,123.75Zm14.567-3a3.029,3.029,0,1,0,3.45,3A3.252,3.252,0,0,0,128.517,120.75Zm-9.584-8.035v1.158l13.034-2.014v-2.982l-13.034,2.014v1.824ZM113.95,131.25a3.029,3.029,0,1,0-3.45-3A3.252,3.252,0,0,0,113.95,131.25Z" transform="translate(-99 -102)"/>
</svg>
