<svg xmlns="http://www.w3.org/2000/svg" width="46.031" height="37" viewBox="0 0 46.031 37">
  <defs>
    <style>
      .cls-1 {
        fill: #f95f1d;
        fill-rule: evenodd;
      }
    </style>
  </defs>
  <path id="_9" data-name="9" class="cls-1" d="M228.365,102.851a2.2,2.2,0,0,0-3.066,0L213.846,114.1,207.1,102.627A3.29,3.29,0,0,0,204.234,101h0a3.288,3.288,0,0,0-2.867,1.627l-17.919,30.492a3.173,3.173,0,0,0,0,3.254A3.29,3.29,0,0,0,186.316,138h35.837a3.29,3.29,0,0,0,2.869-1.627,3.173,3.173,0,0,0,0-3.254l-8.932-15.2,12.275-12.059A2.1,2.1,0,0,0,228.365,102.851Zm-4.686,31.029a1.69,1.69,0,0,1,0,1.731,1.75,1.75,0,0,1-1.526.866H186.316a1.75,1.75,0,0,1-1.526-.866,1.685,1.685,0,0,1,0-1.731l17.919-30.491a1.748,1.748,0,0,1,1.525-.866h0a1.751,1.751,0,0,1,1.526.866l6.951,11.83L211,116.9l-6.1-10.374a0.781,0.781,0,0,0-1.342,0L187.98,133.04a0.751,0.751,0,0,0,0,.761,0.779,0.779,0,0,0,.672.381h31.165a0.776,0.776,0,0,0,.671-0.381,0.747,0.747,0,0,0,0-.761l-7.242-12.323,1.71-1.679Zm-17.918-11.833a3.359,3.359,0,0,0-2.612.947,3.237,3.237,0,0,0,0,4.631,3.377,3.377,0,0,0,4.713,0,3.231,3.231,0,0,0,.964-2.566l3.285-3.227,6.363,10.827h-28.48l14.24-24.231,5.633,9.585Zm1,4.5a1.807,1.807,0,0,1-2.521,0,1.732,1.732,0,0,1,0-2.477,1.808,1.808,0,0,1,2.521,0A1.732,1.732,0,0,1,206.766,126.548Zm20.5-21.762-19.011,18.678a3.235,3.235,0,0,0-.4-0.47,3.312,3.312,0,0,0-.478-0.388L226.4,103.928a0.625,0.625,0,0,1,.873,0A0.6,0.6,0,0,1,227.269,104.786Z" transform="translate(-183 -101)"/>
</svg>
