<svg xmlns="http://www.w3.org/2000/svg" width="48" height="47" viewBox="0 0 48 47">
  <defs>
    <style>
      .cls-1 {
        fill: #db5e37;
        fill-rule: evenodd;
      }
    </style>
  </defs>
  <path id="Forma_1" data-name="Forma 1" class="cls-1" d="M348.279,550.671V530.665H368v20.006H348.279Zm18.082-18.339H349.923V549h7.4V538.512l-3.529,3.579-1.162-1.179,5.513-5.59,5.512,5.59-1.162,1.179-3.528-3.579V549h7.4V532.332ZM358.1,519.97a3.235,3.235,0,1,1-3.235-3.28A3.262,3.262,0,0,1,358.1,519.97Zm-4.825,0a1.591,1.591,0,1,0,1.59-1.613A1.6,1.6,0,0,0,353.276,519.97Zm11.441-1.042-8.171-8.268H346.394L327.26,530.015l19.731,19.832L340.65,556,319.993,535.01l4.935-4.991-0.007-.007,20.794-21.019h11.51l9.136,9.242v9.1h-1.644v-8.4Zm-42.4,16.085,18.358,18.658,3.959-3.845L326.1,531.192Z" transform="translate(-320 -509)"/>
</svg>
