<svg xmlns="http://www.w3.org/2000/svg" width="35" height="48" viewBox="0 0 35 48">
  <defs>
    <style>
      .cls-1 {
        fill: #db5e37;
        fill-rule: evenodd;
      }
    </style>
  </defs>
  <path id="Forma_1" data-name="Forma 1" class="cls-1" d="M364,1106.4v28.98a4.605,4.605,0,0,1-4.584,4.62H333.584a4.605,4.605,0,0,1-4.584-4.62V1106.4a3.366,3.366,0,0,0,0-5.24v-5.8a3.353,3.353,0,0,1,3.334-3.36h28.332a3.353,3.353,0,0,1,3.334,3.36v5.8A3.366,3.366,0,0,0,364,1106.4Zm-1.464-11.04a1.875,1.875,0,0,0-1.87-1.88H332.334a1.875,1.875,0,0,0-1.87,1.88v5.8a1.875,1.875,0,0,0,1.87,1.88h28.332a1.875,1.875,0,0,0,1.87-1.88v-5.8Zm0,11.04a1.875,1.875,0,0,0-1.87-1.88H332.334a1.875,1.875,0,0,0-1.87,1.88v28.98a3.135,3.135,0,0,0,3.12,3.14h25.832a3.135,3.135,0,0,0,3.12-3.14V1106.4Zm-2.674,29.85H333.137a0.735,0.735,0,0,1-.732-0.74v-27.98a0.735,0.735,0,0,1,.732-0.74h26.725a0.735,0.735,0,0,1,.732.74v27.98A0.735,0.735,0,0,1,359.862,1136.25Zm-1.064-1.48-1.353-1.36-1.353,1.36H358.8Zm0.332-1.75v-1.31l-0.65.65Zm-5.109,1.75,2.389-2.41-2.549-2.57-2.549,2.57,2.388,2.41h0.321Zm-6.293-6.02,2.549,2.57,2.548-2.57-2.548-2.57Zm5.1-7.23-2.548-2.57-2.549,2.57,2.549,2.57Zm-3.584,3.62-2.548-2.57-2.549,2.57,2.549,2.57Zm-3.584-3.62-2.549-2.57-2.548,2.57,2.548,2.57Zm-2.549,4.66-2.548,2.57,2.548,2.57,2.549-2.57Zm-1.035-1.04-2.549-2.57-2.548,2.57,2.548,2.57Zm0-7.23-2.549-2.57-2.549,2.57,2.549,2.57Zm1.035-1.04,2.549-2.57-2.549-2.57-2.548,2.57Zm1.036,1.04,2.549,2.57,2.548-2.57-2.548-2.57Zm6.133-1.04,2.549-2.57-2.549-2.57-2.549,2.57Zm1.035,1.04,2.549,2.57,2.549-2.57-2.549-2.57Zm2.549,4.66-2.549,2.57,2.549,2.57,2.549-2.57Zm-2.231,12.2-1.353-1.36-1.353,1.36h2.706Zm-4.777,0,2.388-2.41-2.548-2.57-2.549,2.57,2.388,2.41h0.321Zm-2.392,0-1.353-1.36-1.353,1.36h2.706Zm-4.777,0,2.389-2.41-2.549-2.57-2.549,2.57,2.389,2.41h0.32Zm-2.391,0-1.353-1.36-1.353,1.36h2.706Zm-3.423-1.36,1.035-1.05-1.035-1.04v2.09Zm0-4.18,2.07,2.09,2.549-2.57-2.549-2.57-2.07,2.09v0.96Zm1.035-4.09-1.035-1.05v2.09Zm-1.035-3.13,2.07,2.08,2.549-2.57-2.549-2.57-2.07,2.09v0.97Zm0-3.06,1.035-1.04-1.035-1.04v2.08Zm0-4.17,2.07,2.09,2.549-2.57-2.549-2.57-2.07,2.08v0.97Zm0-3.05,1.035-1.05-1.035-1.04v2.09Zm0.711-3.46,1.359,1.37,1.359-1.37h-2.718Zm4.789,0-2.394,2.41,2.548,2.57,2.549-2.57-2.394-2.41H339.37Zm2.38,0,1.358,1.37,1.359-1.37H341.75Zm5.1,0h-0.309l-2.394,2.41,2.549,2.57,2.548-2.57-2.394-2.41h0Zm2.071,0,1.359,1.37,1.358-1.37h-2.717Zm4.788,0-2.394,2.41,2.549,2.57,2.549-2.57-2.394-2.41h-0.31Zm2.38,0,1.359,1.37,1.359-1.37h-2.718Zm3.044,1.76-0.649.65,0.649,0.66v-1.31Zm0,3.4-1.685-1.7-2.549,2.57,2.549,2.57,1.685-1.7v-1.74Zm0,3.83-0.649.65,0.649,0.65v-1.3Zm0,3.39-1.685-1.7-2.549,2.57,2.549,2.57,1.685-1.7v-1.74Zm0,3.83-0.65.66,0.65,0.65v-1.31Zm0,3.4-1.685-1.7-2.549,2.57,2.549,2.57,1.685-1.7v-1.74Zm0.732-26.26H333.138a0.742,0.742,0,0,1-.733-0.74v-2.4a0.736,0.736,0,0,1,.733-0.74h26.724a0.727,0.727,0,0,1,.518.22,0.716,0.716,0,0,1,.214.52v2.4A0.741,0.741,0,0,1,359.862,1101.62Zm-0.732-2.4H333.87v0.92h25.26v-0.92Zm-0.99-2.51h-2.43a0.733,0.733,0,0,1-.732-0.73v-0.8a0.735,0.735,0,0,1,.732-0.74h2.43a0.736,0.736,0,0,1,.733.74v0.8A0.733,0.733,0,0,1,358.14,1096.71Zm-10.76-.11a1.02,1.02,0,1,1,1.013-1.02A1.019,1.019,0,0,1,347.38,1096.6Zm-2.448,0a1.02,1.02,0,1,1,1.013-1.02A1.019,1.019,0,0,1,344.932,1096.6Zm-2.448,0a1.02,1.02,0,1,1,1.013-1.02A1.019,1.019,0,0,1,342.484,1096.6Zm-2.448,0a1.02,1.02,0,1,1,1.013-1.02A1.02,1.02,0,0,1,340.036,1096.6Zm-2.448,0a1.02,1.02,0,1,1,1.013-1.02A1.02,1.02,0,0,1,337.588,1096.6Zm-2.448,0a1.02,1.02,0,1,1,1.013-1.02A1.02,1.02,0,0,1,335.14,1096.6Z" transform="translate(-329 -1092)"/>
</svg>
