<svg xmlns="http://www.w3.org/2000/svg" width="48" height="48" viewBox="0 0 48 48">
  <defs>
    <style>
      .cls-1 {
        fill: #db5e37;
        fill-rule: evenodd;
      }
    </style>
  </defs>
  <path id="Forma_1" data-name="Forma 1" class="cls-1" d="M133.5,420.23L113.248,440.5a1.822,1.822,0,0,1-1.24.5,1.748,1.748,0,0,1-1.24-.5L86.5,416.217a1.752,1.752,0,0,1-.5-1.407l2.067-18.2a1.716,1.716,0,0,1,1.529-1.53l18.189-2.069a1.8,1.8,0,0,1,1.406.5l24.266,24.287a1.99,1.99,0,0,1,.537,1.2A1.684,1.684,0,0,1,133.5,420.23Zm-26.167-23.666L91.38,398.385l-1.819,15.97,16.494,16.508,17.776-17.791Zm18.974,18.991-17.776,17.791,3.473,3.475,17.775-17.791Zm-25.051-.662a6.6,6.6,0,0,1-4.672-11.254,6.637,6.637,0,0,1,4.672-1.945,6.584,6.584,0,0,1,4.671,11.254A6.637,6.637,0,0,1,101.26,414.893Zm2.191-8.813a3.093,3.093,0,0,0-4.382,0,3.174,3.174,0,0,0,0,4.427,3.248,3.248,0,0,0,4.423,0,2.987,2.987,0,0,0,.868-2.234A3.1,3.1,0,0,0,103.451,406.08Z" transform="translate(-86 -393)"/>
</svg>
