<svg xmlns="http://www.w3.org/2000/svg" width="43" height="48" viewBox="0 0 43 48">
  <defs>
    <style>
      .cls-1 {
        fill: #db5e37;
        fill-rule: evenodd;
      }
    </style>
  </defs>
  <path id="Forma_1" data-name="Forma 1" class="cls-1" d="M356.481,773a11.5,11.5,0,0,1-5.255-1.208A11.478,11.478,0,0,1,345.934,773a11.973,11.973,0,0,1-4.431-.814H322V725h34.887v13.843c4.58,0.139,8.113,2.58,8.113,5.682v22.78C365,770.5,361.258,773,356.481,773Zm0-1.627c3.663,0,6.769-1.789,6.892-3.934-0.037.034-.082,0.064-0.121,0.1-0.12.1-.244,0.205-0.374,0.3-0.074.055-.147,0.11-0.224,0.164-0.142.1-.292,0.194-0.446,0.287-0.071.043-.139,0.087-0.213,0.129-0.231.129-.469,0.252-0.72,0.364l-0.029.012c-0.242.107-.5,0.205-0.755,0.3-0.088.031-.18,0.057-0.271,0.086-0.188.06-.376,0.117-0.571,0.168-0.108.028-.216,0.053-0.327,0.079-0.188.044-.379,0.082-0.574,0.117-0.113.019-.226,0.04-0.341,0.057-0.21.031-.424,0.055-0.641,0.076-0.1.01-.2,0.023-0.306,0.03-0.322.024-.647,0.039-0.979,0.039-0.406,0-.807-0.026-1.2-0.063l-0.255-.025c-0.386-.044-0.769-0.1-1.143-0.183-0.015,0-.03,0-0.044-0.008a5.531,5.531,0,0,1-1.049,1.252A10.353,10.353,0,0,0,356.481,771.373Zm6.771-20.107c-0.12.1-.244,0.205-0.374,0.3-0.074.055-.147,0.111-0.224,0.164-0.142.1-.292,0.195-0.446,0.287-0.071.044-.139,0.088-0.213,0.13-0.231.129-.469,0.252-0.72,0.364l-0.029.012c-0.242.107-.5,0.2-0.755,0.3-0.088.031-.18,0.057-0.271,0.086-0.188.06-.376,0.117-0.571,0.168-0.108.028-.216,0.053-0.327,0.079q-0.282.064-.574,0.117c-0.113.019-.226,0.039-0.341,0.057q-0.315.045-.641,0.076c-0.1.01-.2,0.023-0.306,0.03-0.322.024-.647,0.038-0.979,0.038-0.355,0-.709-0.015-1.06-0.044-0.116-.01-0.229-0.029-0.344-0.042-0.234-.026-0.468-0.051-0.7-0.089-0.019,0-.037,0-0.056-0.008,0.011,0.044.016,0.089,0.026,0.134,0.024,0.11.05,0.218,0.065,0.329a4,4,0,0,1,.039.534v0.605c0.153,0.029.305,0.064,0.46,0.086,0.118,0.017.237,0.036,0.356,0.049a11.076,11.076,0,0,0,1.212.073q0.346,0,.686-0.021c0.075,0,.148-0.013.223-0.02,0.149-.012.3-0.023,0.446-0.042,0.087-.01.171-0.026,0.256-0.039,0.132-.019.264-0.037,0.393-0.061,0.092-.016.179-0.038,0.269-0.057,0.119-.025.239-0.049,0.355-0.078,0.09-.023.176-0.05,0.264-0.075,0.112-.031.225-0.061,0.333-0.1,0.087-.028.169-0.06,0.253-0.09,0.105-.037.211-0.073,0.312-0.113,0.084-.033.164-0.07,0.245-0.106s0.192-.082.284-0.126,0.154-.079.231-0.12,0.176-.091.26-0.14,0.141-.088.211-0.133,0.161-.1.236-0.153,0.128-.1.191-0.144,0.145-.108.211-0.165,0.113-.1.168-0.154,0.126-.116.183-0.176,0.1-.11.146-0.165,0.105-.121.152-0.183,0.081-.117.12-0.175,0.085-.126.121-0.191,0.062-.121.091-0.182,0.063-.132.089-0.2,0.042-.126.06-0.189,0.041-.136.055-0.2,0.02-.131.028-0.2c0.006-.045.01-0.091,0.012-0.136C363.33,751.206,363.288,751.234,363.252,751.266Zm0.113-3.345c-0.035.032-.077,0.059-0.113,0.091-0.12.1-.244,0.206-0.374,0.3-0.074.056-.147,0.111-0.224,0.165-0.142.1-.292,0.193-0.446,0.286-0.071.043-.139,0.088-0.213,0.13-0.231.129-.469,0.252-0.72,0.364l-0.029.011c-0.242.108-.5,0.2-0.755,0.3-0.088.031-.18,0.057-0.271,0.087-0.188.06-.376,0.117-0.571,0.167-0.108.029-.216,0.054-0.327,0.079-0.188.044-.379,0.082-0.574,0.117-0.113.02-.226,0.04-0.341,0.057-0.21.031-.424,0.056-0.641,0.077-0.1.01-.2,0.022-0.306,0.03-0.322.024-.647,0.038-0.979,0.038s-0.657-.014-0.978-0.04c-0.1-.007-0.2-0.02-0.306-0.03-0.217-.021-0.431-0.045-0.641-0.076-0.115-.017-0.228-0.037-0.341-0.057q-0.292-.053-0.574-0.117c-0.111-.026-0.219-0.051-0.327-0.078-0.195-.052-0.384-0.109-0.571-0.168-0.091-.029-0.183-0.055-0.271-0.086-0.261-.091-0.514-0.189-0.757-0.3l-0.027-.011c-0.251-.112-0.489-0.235-0.72-0.364-0.074-.042-0.142-0.087-0.213-0.13-0.154-.092-0.3-0.187-0.447-0.287-0.077-.053-0.15-0.108-0.223-0.163q-0.195-.149-0.375-0.305c-0.039-.034-0.084-0.064-0.121-0.1a2.646,2.646,0,0,0,.527,1.394,7.747,7.747,0,0,1,3.148,2.051c0.117,0.038.236,0.073,0.357,0.106,0.105,0.029.209,0.06,0.316,0.086,0.167,0.041.339,0.073,0.51,0.105,0.106,0.019.209,0.043,0.315,0.059,0.191,0.029.384,0.049,0.579,0.069,0.091,0.009.18,0.023,0.272,0.03,0.287,0.022.577,0.034,0.868,0.034q0.346,0,.686-0.02c0.075,0,.148-0.014.223-0.02,0.149-.013.3-0.024,0.446-0.042,0.087-.01.171-0.026,0.256-0.039,0.132-.02.264-0.037,0.393-0.061,0.092-.016.179-0.038,0.269-0.058,0.119-.025.239-0.048,0.355-0.078,0.09-.023.176-0.049,0.264-0.075,0.112-.031.225-0.061,0.333-0.1,0.087-.027.169-0.059,0.253-0.089,0.105-.038.211-0.073,0.312-0.113,0.084-.034.164-0.07,0.245-0.106s0.192-.082.284-0.126,0.154-.08.231-0.12,0.176-.092.26-0.14,0.141-.088.211-0.133,0.161-.1.236-0.153,0.128-.1.191-0.144,0.145-.108.211-0.165,0.113-.1.168-0.155,0.126-.115.183-0.176,0.1-.109.146-0.165,0.105-.12.152-0.183,0.081-.116.12-0.175,0.085-.126.121-0.19,0.062-.121.091-0.182,0.063-.132.089-0.2,0.042-.125.06-0.188,0.041-.136.055-0.205,0.02-.13.028-0.195Q363.362,747.988,363.365,747.921Zm-0.113,6.6c-0.12.1-.244,0.206-0.374,0.3-0.074.055-.147,0.111-0.224,0.164-0.142.1-.292,0.195-0.446,0.288-0.071.043-.139,0.087-0.213,0.129-0.231.129-.469,0.252-0.72,0.364l-0.029.012c-0.242.107-.5,0.205-0.755,0.3-0.088.031-.18,0.057-0.271,0.086-0.188.06-.376,0.117-0.571,0.168-0.108.028-.216,0.053-0.327,0.079-0.188.044-.379,0.082-0.574,0.117-0.113.019-.226,0.04-0.341,0.057-0.21.031-.424,0.055-0.641,0.076-0.1.01-.2,0.023-0.306,0.03-0.322.024-.647,0.039-0.979,0.039-0.309,0-.616-0.015-0.922-0.038-0.091-.006-0.182-0.016-0.274-0.025-0.221-.02-0.442-0.047-0.661-0.08-0.057-.008-0.114-0.011-0.171-0.02v1.581c0.153,0.03.305,0.064,0.46,0.086,0.118,0.017.237,0.036,0.356,0.05a11.33,11.33,0,0,0,1.212.073q0.346,0,.686-0.021c0.075,0,.148-0.014.223-0.021,0.149-.012.3-0.023,0.446-0.041,0.087-.011.171-0.026,0.256-0.039,0.132-.02.264-0.038,0.393-0.061,0.092-.017.179-0.039,0.269-0.058,0.119-.025.239-0.049,0.355-0.078,0.09-.023.176-0.05,0.264-0.075,0.112-.031.225-0.061,0.333-0.1,0.087-.028.169-0.059,0.253-0.09,0.105-.037.211-0.073,0.312-0.113,0.084-.033.164-0.07,0.245-0.105s0.192-.082.284-0.126,0.154-.08.231-0.121,0.176-.091.26-0.14,0.141-.088.211-0.132,0.161-.1.236-0.153,0.128-.1.191-0.144,0.145-.109.211-0.165,0.113-.1.168-0.155,0.126-.116.183-0.176,0.1-.11.146-0.165,0.105-.12.152-0.183,0.081-.116.12-0.175,0.085-.126.121-0.19,0.062-.122.091-0.183,0.063-.131.089-0.2,0.042-.125.06-0.189,0.041-.136.055-0.2,0.02-.13.028-0.2c0.006-.045.01-0.091,0.012-0.135C363.33,754.46,363.288,754.488,363.252,754.52Zm0,3.254c-0.12.1-.244,0.206-0.374,0.3-0.074.056-.147,0.111-0.224,0.165-0.142.1-.292,0.194-0.446,0.287-0.071.043-.139,0.088-0.213,0.129-0.231.13-.469,0.252-0.72,0.365l-0.029.011c-0.242.107-.5,0.205-0.755,0.3-0.088.031-.18,0.057-0.271,0.086-0.188.061-.376,0.118-0.571,0.168-0.108.028-.216,0.054-0.327,0.079-0.188.044-.379,0.082-0.574,0.117-0.113.02-.226,0.04-0.341,0.057-0.21.031-.424,0.055-0.641,0.076-0.1.01-.2,0.023-0.306,0.031-0.322.023-.647,0.038-0.979,0.038-0.309,0-.616-0.015-0.922-0.038-0.091-.006-0.182-0.016-0.274-0.025-0.221-.02-0.442-0.047-0.661-0.079-0.057-.009-0.114-0.012-0.171-0.021V761.4c0.153,0.029.305,0.063,0.46,0.085,0.118,0.017.237,0.037,0.356,0.05a11.076,11.076,0,0,0,1.212.073q0.346,0,.686-0.021c0.075-.005.148-0.014,0.223-0.02,0.149-.013.3-0.024,0.446-0.042,0.087-.011.171-0.026,0.256-0.039,0.132-.02.264-0.038,0.393-0.061,0.092-.016.179-0.038,0.269-0.058,0.119-.025.239-0.049,0.355-0.078,0.09-.023.176-0.05,0.264-0.075,0.112-.031.225-0.061,0.333-0.1,0.087-.028.169-0.059,0.253-0.089,0.105-.038.211-0.074,0.312-0.113,0.084-.034.164-0.07,0.245-0.106s0.192-.082.284-0.126,0.154-.08.231-0.121,0.176-.091.26-0.139,0.141-.088.211-0.133,0.161-.1.236-0.153,0.128-.1.191-0.144,0.145-.108.211-0.165,0.113-.1.168-0.155,0.126-.115.183-0.176,0.1-.109.146-0.165,0.105-.12.152-0.183,0.081-.116.12-0.175,0.085-.126.121-0.19,0.062-.121.091-0.182,0.063-.132.089-0.2,0.042-.125.06-0.189,0.041-.135.055-0.2,0.02-.13.028-0.2q0.009-.067.012-0.135C363.33,757.715,363.288,757.742,363.252,757.774Zm0,3.254c-0.12.1-.244,0.206-0.374,0.3-0.074.055-.147,0.11-0.224,0.164-0.142.1-.292,0.194-0.446,0.287-0.071.043-.139,0.088-0.213,0.129-0.231.13-.469,0.253-0.72,0.365l-0.029.011c-0.242.108-.5,0.205-0.755,0.3-0.088.031-.18,0.057-0.271,0.087-0.188.06-.376,0.117-0.571,0.167-0.108.029-.216,0.054-0.327,0.079-0.188.044-.379,0.082-0.574,0.117-0.113.02-.226,0.04-0.341,0.057-0.21.031-.424,0.056-0.641,0.077-0.1.01-.2,0.022-0.306,0.03-0.322.023-.647,0.038-0.979,0.038-0.309,0-.616-0.015-0.922-0.037-0.091-.007-0.182-0.017-0.274-0.026-0.221-.02-0.442-0.047-0.661-0.079-0.057-.008-0.114-0.012-0.171-0.021v1.582c0.153,0.029.305,0.063,0.46,0.085,0.118,0.017.237,0.037,0.356,0.05a11.076,11.076,0,0,0,1.212.073q0.346,0,.686-0.021c0.075,0,.148-0.014.223-0.02,0.149-.012.3-0.024,0.446-0.042,0.087-.01.171-0.026,0.256-0.039,0.132-.019.264-0.037,0.393-0.061,0.092-.016.179-0.038,0.269-0.058,0.119-.025.239-0.048,0.355-0.078,0.09-.022.176-0.049,0.264-0.075,0.112-.03.225-0.06,0.333-0.1,0.087-.027.169-0.059,0.253-0.089,0.105-.037.211-0.073,0.312-0.113,0.084-.034.164-0.07,0.245-0.106s0.192-.082.284-0.126,0.154-.08.231-0.12,0.176-.091.26-0.14,0.141-.088.211-0.133,0.161-.1.236-0.153,0.128-.1.191-0.144,0.145-.108.211-0.165,0.113-.1.168-0.154,0.126-.116.183-0.176,0.1-.11.146-0.166,0.105-.12.152-0.183,0.081-.116.12-0.175,0.085-.126.121-0.19,0.062-.121.091-0.182,0.063-.132.089-0.2,0.042-.125.06-0.188,0.041-.136.055-0.2,0.02-.13.028-0.2q0.009-.067.012-0.135C363.33,760.969,363.288,761,363.252,761.028Zm0,3.255c-0.12.1-.244,0.206-0.374,0.3-0.074.055-.147,0.11-0.224,0.164-0.142.1-.292,0.194-0.446,0.286-0.071.043-.139,0.088-0.213,0.13-0.231.129-.469,0.252-0.72,0.364l-0.029.012c-0.242.107-.5,0.205-0.755,0.3-0.088.031-.18,0.057-0.271,0.086-0.188.06-.376,0.117-0.571,0.167-0.108.029-.216,0.054-0.327,0.079q-0.282.066-.574,0.118c-0.113.019-.226,0.039-0.341,0.057q-0.315.045-.641,0.076c-0.1.01-.2,0.023-0.306,0.03-0.322.024-.647,0.038-0.979,0.038-0.309,0-.616-0.014-0.922-0.037-0.091-.007-0.182-0.016-0.274-0.025-0.221-.021-0.442-0.048-0.661-0.08-0.057-.008-0.114-0.011-0.171-0.02v0.976a3.948,3.948,0,0,1-.05.616l0.114,0.018c0.255,0.047.513,0.083,0.773,0.111,0.084,0.009.167,0.017,0.252,0.024,0.31,0.027.622,0.044,0.939,0.044q0.346,0,.686-0.021c0.075,0,.148-0.015.223-0.021,0.149-.012.3-0.024,0.446-0.041,0.087-.011.171-0.026,0.256-0.039,0.132-.02.264-0.038,0.393-0.061,0.092-.017.179-0.039,0.269-0.058,0.119-.025.239-0.049,0.355-0.078,0.09-.023.176-0.05,0.264-0.075,0.112-.031.225-0.061,0.333-0.1,0.087-.028.169-0.06,0.253-0.09,0.105-.037.211-0.073,0.312-0.113,0.084-.033.164-0.07,0.245-0.1s0.192-.083.284-0.127,0.154-.079.231-0.12,0.176-.091.26-0.14,0.141-.088.211-0.133,0.161-.1.236-0.153,0.128-.1.191-0.144,0.145-.108.211-0.165,0.113-.1.168-0.154,0.126-.116.183-0.176,0.1-.11.146-0.165,0.105-.12.152-0.183,0.081-.116.12-0.175,0.085-.126.121-0.19,0.062-.122.091-0.183,0.063-.131.089-0.2,0.042-.125.06-0.189,0.041-.136.055-0.2,0.02-.13.028-0.194c0.006-.044.01-0.09,0.012-0.135C363.33,764.224,363.288,764.252,363.252,764.283ZM339.08,767.7c0.006,0.038.008,0.077,0.016,0.114a2.634,2.634,0,0,0,.138.434c0.015,0.038.037,0.074,0.055,0.111a3.1,3.1,0,0,0,.163.3c0.036,0.057.077,0.114,0.116,0.17,0.054,0.076.111,0.151,0.173,0.225s0.106,0.125.164,0.186,0.124,0.125.189,0.186,0.136,0.13.21,0.193c0.053,0.044.114,0.086,0.17,0.129a5.6,5.6,0,0,0,.533.365c0.067,0.042.133,0.083,0.2,0.123,0.106,0.059.216,0.116,0.327,0.171,0.078,0.038.158,0.076,0.239,0.113a10.17,10.17,0,0,0,4.158.853,9.782,9.782,0,0,0,4.768-1.16l0.017-.01c0.041-.023.078-0.049,0.118-0.074a5.856,5.856,0,0,0,.555-0.378l0.049-.036a3.763,3.763,0,0,0,1.2-1.5v0a2.773,2.773,0,0,0,.139-0.446c0-.021.006-0.042,0.009-0.063a2.49,2.49,0,0,0,.027-0.254c-0.034.032-.075,0.059-0.11,0.09-0.12.1-.244,0.205-0.375,0.3-0.073.055-.147,0.11-0.223,0.164-0.143.1-.293,0.194-0.446,0.287-0.071.043-.14,0.087-0.213,0.129-0.231.129-.469,0.252-0.72,0.364l-0.029.012c-0.242.107-.5,0.205-0.755,0.3-0.088.031-.181,0.057-0.271,0.086-0.188.06-.376,0.117-0.571,0.168-0.108.028-.217,0.053-0.327,0.079-0.188.044-.38,0.082-0.574,0.117-0.113.019-.226,0.04-0.341,0.057-0.21.031-.424,0.055-0.641,0.076-0.1.01-.2,0.023-0.307,0.03-0.321.024-.646,0.039-0.978,0.039s-0.657-.015-0.978-0.04c-0.1-.008-0.2-0.021-0.306-0.03-0.216-.022-0.43-0.045-0.641-0.077-0.115-.017-0.228-0.036-0.34-0.057-0.195-.035-0.386-0.074-0.575-0.117-0.11-.025-0.219-0.05-0.327-0.078-0.194-.051-0.383-0.108-0.57-0.168-0.091-.029-0.183-0.055-0.272-0.086-0.26-.09-0.513-0.189-0.757-0.3-0.009,0-.018-0.006-0.027-0.011-0.25-.112-0.489-0.235-0.719-0.364-0.074-.041-0.142-0.086-0.214-0.129-0.154-.093-0.3-0.187-0.447-0.287-0.076-.053-0.149-0.109-0.222-0.164-0.131-.1-0.256-0.2-0.376-0.305-0.034-.031-0.075-0.059-0.109-0.09A2.309,2.309,0,0,0,339.08,767.7Zm-0.019-3.369c0.008,0.065.016,0.131,0.029,0.195a2.041,2.041,0,0,0,.054.2c0.019,0.064.037,0.127,0.06,0.189s0.058,0.133.089,0.2,0.057,0.123.091,0.183,0.08,0.127.122,0.191,0.076,0.117.119,0.174,0.1,0.123.153,0.184,0.093,0.11.144,0.164,0.121,0.118.183,0.176,0.109,0.1.168,0.154,0.14,0.111.211,0.165,0.124,0.1.191,0.144,0.157,0.1.237,0.153,0.138,0.091.211,0.133,0.172,0.094.259,0.14,0.152,0.082.232,0.12,0.189,0.085.284,0.127,0.16,0.072.245,0.1c0.1,0.041.206,0.076,0.311,0.113,0.085,0.03.166,0.062,0.253,0.09,0.109,0.035.223,0.065,0.335,0.1,0.087,0.024.172,0.051,0.262,0.074,0.117,0.029.237,0.053,0.357,0.079,0.09,0.018.177,0.04,0.268,0.057,0.129,0.024.261,0.042,0.393,0.061,0.086,0.013.169,0.029,0.256,0.039,0.146,0.018.3,0.03,0.446,0.042,0.075,0.007.148,0.015,0.223,0.02q0.34,0.021.687,0.021c0.231,0,.46-0.007.685-0.021,0.076,0,.149-0.015.224-0.021,0.149-.012.3-0.024,0.446-0.041,0.087-.011.171-0.026,0.256-0.039,0.132-.02.264-0.038,0.393-0.061,0.092-.017.179-0.039,0.269-0.058,0.119-.025.239-0.049,0.355-0.078,0.09-.023.176-0.05,0.264-0.075,0.111-.031.225-0.061,0.333-0.1,0.087-.028.169-0.06,0.253-0.09,0.105-.037.211-0.073,0.312-0.113,0.084-.033.163-0.07,0.245-0.1s0.192-.083.284-0.127,0.154-.079.231-0.12,0.176-.091.259-0.14,0.142-.088.211-0.133,0.162-.1.237-0.153,0.128-.1.191-0.144,0.144-.108.211-0.165,0.113-.1.168-0.154,0.126-.116.183-0.176,0.1-.11.145-0.165,0.106-.12.153-0.183,0.081-.116.12-0.175,0.084-.126.121-0.19,0.062-.122.091-0.183,0.063-.131.089-0.2,0.041-.125.06-0.189,0.041-.136.054-0.2,0.021-.13.029-0.194c0-.044.01-0.09,0.012-0.135-0.035.032-.077,0.06-0.113,0.091-0.12.1-.244,0.206-0.375,0.3-0.073.055-.147,0.11-0.223,0.164-0.143.1-.293,0.194-0.446,0.286-0.071.043-.14,0.088-0.213,0.13-0.231.129-.469,0.252-0.72,0.364l-0.029.012c-0.242.107-.5,0.205-0.755,0.3-0.088.031-.181,0.057-0.271,0.086-0.188.06-.376,0.117-0.571,0.167-0.108.029-.217,0.054-0.327,0.079-0.188.044-.38,0.083-0.574,0.118-0.113.019-.226,0.039-0.341,0.057q-0.315.045-.641,0.076c-0.1.01-.2,0.023-0.307,0.03-0.321.024-.646,0.038-0.978,0.038s-0.657-.014-0.98-0.04c-0.1-.007-0.2-0.02-0.306-0.03-0.217-.021-0.431-0.044-0.641-0.076-0.115-.017-0.228-0.037-0.341-0.057-0.194-.035-0.386-0.074-0.574-0.117-0.111-.026-0.219-0.051-0.327-0.078-0.195-.052-0.384-0.108-0.57-0.168-0.091-.029-0.184-0.055-0.272-0.086-0.261-.09-0.514-0.189-0.757-0.3l-0.027-.011c-0.251-.112-0.489-0.235-0.72-0.364-0.073-.042-0.142-0.086-0.213-0.129-0.154-.093-0.3-0.188-0.447-0.288-0.076-.053-0.149-0.108-0.222-0.163-0.131-.1-0.256-0.2-0.376-0.3-0.036-.031-0.077-0.06-0.112-0.091Q339.054,764.258,339.061,764.326Zm0-3.255c0.008,0.066.016,0.131,0.029,0.2s0.034,0.136.054,0.2,0.037,0.127.06,0.189,0.058,0.132.089,0.2,0.057,0.123.091,0.182,0.08,0.128.122,0.191,0.076,0.118.119,0.175,0.1,0.123.153,0.183,0.093,0.111.144,0.165,0.121,0.118.183,0.175,0.109,0.105.168,0.155,0.14,0.111.211,0.165,0.124,0.1.191,0.144,0.157,0.1.237,0.153,0.138,0.091.211,0.133,0.172,0.093.259,0.14,0.152,0.082.232,0.12,0.189,0.085.284,0.126,0.16,0.073.245,0.106c0.1,0.041.206,0.076,0.311,0.113,0.085,0.03.166,0.062,0.253,0.09,0.109,0.035.223,0.065,0.335,0.1,0.087,0.025.172,0.052,0.262,0.074,0.117,0.03.237,0.054,0.357,0.079,0.09,0.019.177,0.041,0.268,0.058,0.129,0.024.261,0.042,0.393,0.061,0.086,0.013.169,0.029,0.256,0.039,0.146,0.018.3,0.03,0.446,0.042,0.075,0.006.148,0.015,0.223,0.02q0.34,0.021.687,0.021c0.231,0,.46-0.007.685-0.022,0.076,0,.149-0.014.224-0.02,0.149-.012.3-0.024,0.446-0.042,0.087-.01.171-0.026,0.256-0.039,0.132-.019.264-0.037,0.393-0.061,0.092-.016.179-0.038,0.269-0.057,0.119-.026.239-0.049,0.355-0.079,0.09-.022.176-0.049,0.264-0.074,0.111-.031.225-0.061,0.333-0.1,0.087-.028.169-0.06,0.253-0.09,0.105-.037.211-0.073,0.312-0.113,0.084-.033.163-0.07,0.245-0.106s0.192-.082.284-0.126,0.154-.08.231-0.12,0.176-.091.259-0.14,0.142-.088.211-0.133,0.162-.1.237-0.153,0.128-.1.191-0.144,0.144-.108.211-0.165,0.113-.1.168-0.155,0.126-.115.183-0.175,0.1-.11.145-0.165,0.106-.121.153-0.183,0.081-.117.12-0.175,0.084-.126.121-0.191,0.062-.121.091-0.182,0.063-.132.089-0.2,0.041-.126.06-0.189,0.041-.136.054-0.2,0.021-.13.029-0.194c0-.045.01-0.09,0.012-0.135-0.035.032-.077,0.059-0.113,0.091-0.12.1-.244,0.206-0.375,0.3-0.073.056-.147,0.111-0.223,0.165-0.143.1-.293,0.193-0.446,0.286-0.071.043-.14,0.088-0.213,0.129-0.231.13-.469,0.253-0.72,0.365l-0.029.011c-0.242.108-.5,0.205-0.755,0.3-0.088.031-.181,0.057-0.271,0.087-0.188.06-.376,0.117-0.571,0.167-0.108.029-.217,0.054-0.327,0.079-0.188.044-.38,0.082-0.574,0.117-0.113.02-.226,0.04-0.341,0.057-0.21.031-.424,0.056-0.641,0.077-0.1.01-.2,0.022-0.307,0.03-0.321.023-.646,0.038-0.978,0.038s-0.657-.015-0.98-0.04c-0.1-.007-0.2-0.02-0.306-0.03-0.217-.021-0.431-0.045-0.641-0.076-0.115-.017-0.228-0.037-0.341-0.057-0.194-.035-0.386-0.074-0.574-0.117-0.111-.026-0.219-0.051-0.327-0.078-0.195-.052-0.384-0.109-0.57-0.168-0.091-.029-0.184-0.055-0.272-0.086-0.261-.091-0.514-0.189-0.757-0.3l-0.027-.011c-0.251-.112-0.489-0.235-0.72-0.364-0.073-.042-0.142-0.087-0.213-0.13-0.154-.093-0.3-0.187-0.447-0.287-0.076-.053-0.149-0.108-0.222-0.163q-0.2-.148-0.376-0.306c-0.036-.03-0.077-0.059-0.112-0.091Q339.054,761,339.061,761.071Zm0-3.254c0.008,0.065.016,0.131,0.029,0.195a2.06,2.06,0,0,0,.054.205c0.019,0.063.037,0.127,0.06,0.188s0.058,0.133.089,0.2,0.057,0.123.091,0.182,0.08,0.128.122,0.191,0.076,0.117.119,0.174,0.1,0.123.153,0.184,0.093,0.111.144,0.165,0.121,0.118.183,0.175,0.109,0.1.168,0.155,0.14,0.111.211,0.165,0.124,0.1.191,0.144,0.157,0.1.237,0.153,0.138,0.09.211,0.133,0.172,0.093.259,0.14,0.152,0.082.232,0.12,0.189,0.085.284,0.126,0.16,0.073.245,0.106c0.1,0.04.206,0.075,0.311,0.113,0.085,0.03.166,0.062,0.253,0.089,0.109,0.035.223,0.065,0.335,0.1,0.087,0.025.172,0.051,0.262,0.074,0.117,0.03.237,0.054,0.357,0.079,0.09,0.019.177,0.041,0.268,0.058,0.129,0.023.261,0.041,0.393,0.061,0.086,0.013.169,0.028,0.256,0.039,0.146,0.018.3,0.029,0.446,0.042,0.075,0.006.148,0.015,0.223,0.02q0.34,0.021.687,0.021c0.231,0,.46-0.007.685-0.02,0.076,0,.149-0.014.224-0.021,0.149-.012.3-0.023,0.446-0.041,0.087-.011.171-0.026,0.256-0.039,0.132-.02.264-0.038,0.393-0.061,0.092-.017.179-0.038,0.269-0.058,0.119-.025.239-0.049,0.355-0.078,0.09-.023.176-0.05,0.264-0.075,0.111-.031.225-0.061,0.333-0.1,0.087-.028.169-0.059,0.253-0.089,0.105-.038.211-0.074,0.312-0.114,0.084-.033.163-0.07,0.245-0.105s0.192-.082.284-0.126,0.154-.08.231-0.121,0.176-.091.259-0.14,0.142-.088.211-0.132,0.162-.1.237-0.153,0.128-.1.191-0.144,0.144-.109.211-0.165,0.113-.1.168-0.155,0.126-.116.183-0.176,0.1-.11.145-0.165,0.106-.12.153-0.183,0.081-.116.12-0.175,0.084-.126.121-0.19,0.062-.122.091-0.183,0.063-.131.089-0.2,0.041-.125.06-0.189,0.041-.136.054-0.2,0.021-.13.029-0.2c0-.045.01-0.091,0.012-0.135-0.035.032-.077,0.059-0.113,0.091-0.12.1-.244,0.206-0.375,0.3-0.073.055-.147,0.111-0.223,0.165-0.143.1-.293,0.193-0.446,0.286-0.071.043-.14,0.088-0.213,0.129-0.231.13-.469,0.252-0.72,0.365l-0.029.011c-0.242.107-.5,0.205-0.755,0.3-0.088.031-.181,0.057-0.271,0.086-0.188.061-.376,0.118-0.571,0.168-0.108.028-.217,0.054-0.327,0.079-0.188.044-.38,0.082-0.574,0.117-0.113.02-.226,0.04-0.341,0.057-0.21.031-.424,0.055-0.641,0.076-0.1.01-.2,0.023-0.307,0.031-0.321.023-.646,0.038-0.978,0.038s-0.657-.015-0.979-0.04c-0.1-.007-0.2-0.02-0.305-0.03-0.217-.021-0.431-0.045-0.641-0.077-0.116-.017-0.228-0.036-0.341-0.057-0.195-.034-0.386-0.074-0.575-0.117-0.11-.025-0.219-0.05-0.326-0.078-0.195-.051-0.384-0.108-0.571-0.167-0.091-.03-0.183-0.056-0.272-0.087-0.26-.09-0.513-0.188-0.757-0.3l-0.026-.01c-0.251-.112-0.49-0.235-0.72-0.365-0.074-.041-0.142-0.086-0.213-0.129-0.155-.093-0.305-0.187-0.447-0.287-0.077-.053-0.15-0.108-0.223-0.164-0.13-.1-0.255-0.2-0.377-0.3-0.036-.031-0.077-0.059-0.112-0.091C339.052,757.728,339.056,757.772,339.061,757.817Zm2.969-8.606,0.043-.014c0.128-.043.257-0.086,0.389-0.124s0.239-.065.36-0.1,0.27-.068.409-0.1,0.25-.05.377-0.073,0.283-.051.427-0.072,0.262-.034.393-0.05c0.147-.016.3-0.031,0.445-0.044,0.134-.01.269-0.018,0.405-0.025,0.085,0,.166-0.013.25-0.015v-0.006a9.724,9.724,0,0,0-1.517-5.213,9.916,9.916,0,0,0-1.483-1.82c-0.072-.07-0.148-0.136-0.223-0.2-0.2-.178-0.4-0.346-0.608-0.507-0.1-.081-0.208-0.161-0.316-0.238-0.214-.151-0.437-0.29-0.661-0.424-0.093-.054-0.181-0.115-0.276-0.167a9.2,9.2,0,0,0-.946-0.451c-0.12-.05-0.245-0.089-0.366-0.134-0.229-.084-0.46-0.162-0.695-0.229-0.134-.038-0.267-0.072-0.4-0.1-0.248-.059-0.5-0.106-0.751-0.145-0.118-.018-0.237-0.04-0.357-0.054a8.852,8.852,0,0,0-2.269,0c-0.12.014-.238,0.035-0.357,0.054-0.253.039-.5,0.086-0.75,0.145-0.135.032-.269,0.067-0.4,0.1-0.235.067-.466,0.145-0.695,0.229-0.123.045-.247,0.084-0.366,0.134a9.657,9.657,0,0,0-.947.451c-0.094.051-.182,0.113-0.275,0.167-0.225.134-.447,0.273-0.661,0.424-0.108.077-.212,0.157-0.317,0.238-0.208.161-.412,0.329-0.607,0.507-0.075.068-.151,0.134-0.223,0.2-0.165.158-.316,0.333-0.47,0.505l2.533,2.787a1.356,1.356,0,0,0,.964.486,1.143,1.143,0,0,0,.271-0.035c0.054-.054.11-0.127,0.176-0.205a3.215,3.215,0,0,1,2.449-1.386,4.826,4.826,0,0,1,2.652.792,4.834,4.834,0,0,1,3.254-.76l0.335,0.1,0.159,0.31A8.358,8.358,0,0,1,342.03,749.211Zm1.875-8.58v-5.07a5.291,5.291,0,0,1-4.853-4.866h-6.52a5.29,5.29,0,0,1-4.853,4.866v5.07l0.037-.035c0.137-.139.284-0.266,0.426-0.4s0.273-.261.418-0.381c0.052-.043.109-0.081,0.163-0.124a11.227,11.227,0,0,1,5.832-2.42c0.027,0,.052-0.01.079-0.012,0.382-.038.768-0.059,1.158-0.059s0.777,0.021,1.158.059c0.027,0,.052.009,0.079,0.012a11.235,11.235,0,0,1,5.832,2.42c0.054,0.043.111,0.08,0.163,0.124,0.144,0.12.279,0.253,0.418,0.381s0.289,0.258.425,0.4Zm-3.8,4.672a3.582,3.582,0,0,0-1.67.627l-0.407,1.155-0.868-.9a3.236,3.236,0,0,0-2.182-.85,1.674,1.674,0,0,0-1.211.809,1.938,1.938,0,0,1-.8.667,2.728,2.728,0,0,1-.858.149,2.991,2.991,0,0,1-2.19-1.017l-2.341-2.575-0.006.008c-0.072.114-.143,0.23-0.211,0.348s-0.125.215-.184,0.325c-0.111.213-.215,0.429-0.312,0.65-0.033.077-.064,0.155-0.1,0.233-0.085.21-.163,0.422-0.233,0.639-0.019.058-.04,0.116-0.058,0.175-0.084.278-.158,0.562-0.218,0.85-0.008.037-.013,0.075-0.021,0.114q-0.072.375-.115,0.761c-0.009.074-.018,0.148-0.024,0.223-0.027.3-.045,0.593-0.045,0.895s0.018,0.6.045,0.894c0.006,0.075.015,0.149,0.024,0.223,0.029,0.256.067,0.511,0.115,0.761,0.008,0.038.013,0.077,0.021,0.115,0.06,0.288.134,0.571,0.218,0.849,0.019,0.06.04,0.119,0.059,0.179,0.07,0.214.148,0.424,0.232,0.632,0.032,0.08.063,0.16,0.1,0.239,0.092,0.214.194,0.422,0.3,0.628,0.066,0.124.136,0.246,0.207,0.368s0.13,0.218.2,0.324a0.042,0.042,0,0,1,.006.008l2.314-2.551a2.947,2.947,0,0,1,2.678-1,2.912,2.912,0,0,1,.423.107,3.6,3.6,0,0,1,1.075.829c0.212,0.195.547,0.5,0.718,0.633l0.326,0.037,0.186,0.438a1.041,1.041,0,0,0,.652.723,2.733,2.733,0,0,0,1.938-.637,0.174,0.174,0,0,0,.01-0.019c0.051-.1.1-0.2,0.159-0.295,0.046-.076.1-0.148,0.153-0.222,0.062-.091.122-0.183,0.192-0.271s0.123-.143.186-0.214,0.145-.17.225-0.251,0.144-.135.217-0.2,0.167-.156.257-0.231,0.163-.126.246-0.189,0.187-.143.287-0.211c0.055-.038.111-0.074,0.167-0.11A6.257,6.257,0,0,0,340.108,745.3Zm-2.884,14.576c-0.214.029-.424,0.04-0.635,0.055s-0.453.039-.677,0.041c-0.04,0-.081.008-0.12,0.008-0.25,0-.495-0.022-0.741-0.038-0.134-.009-0.27-0.008-0.4-0.021a11.365,11.365,0,0,1-1.187-.185c-0.154-.033-0.3-0.079-0.456-0.118-0.246-.063-0.492-0.126-0.731-0.2-0.17-.056-0.335-0.121-0.5-0.184-0.215-.082-0.429-0.168-0.638-0.263-0.168-.075-0.333-0.156-0.5-0.24-0.2-.1-0.4-0.215-0.594-0.33-0.156-.092-0.311-0.182-0.462-0.282-0.218-.143-0.425-0.3-0.632-0.455-0.114-.086-0.231-0.165-0.342-0.256a11.768,11.768,0,0,1-.894-0.82c-0.01-.01-0.023-0.019-0.033-0.03v5.069a5.289,5.289,0,0,1,4.852,4.866h4.884v-6.628C337.352,759.872,337.288,759.871,337.224,759.879Zm0.19-1.679v-3.744a3.064,3.064,0,0,1-1.914.139,2.567,2.567,0,0,1-1.565-1.373,9.36,9.36,0,0,1-.964-0.826c-0.18-.166-0.444-0.409-0.567-0.5a1.062,1.062,0,0,0-.112-0.024,1.369,1.369,0,0,0-1.2.49l-2.507,2.763c0.154,0.172.306,0.347,0.471,0.506,0.072,0.07.148,0.136,0.223,0.2,0.2,0.178.4,0.346,0.608,0.507,0.1,0.081.208,0.161,0.316,0.238,0.214,0.151.437,0.29,0.661,0.424,0.093,0.054.181,0.115,0.275,0.167a9.219,9.219,0,0,0,.947.451c0.12,0.05.244,0.089,0.366,0.134,0.229,0.084.46,0.162,0.7,0.229,0.133,0.038.267,0.072,0.4,0.1,0.247,0.059.5,0.106,0.75,0.145,0.119,0.018.237,0.04,0.357,0.054a9.7,9.7,0,0,0,1.135.073,9.576,9.576,0,0,0,.969-0.058c0.13-.014.261-0.033,0.391-0.052C337.24,758.234,337.327,758.214,337.414,758.2Zm10.548-10.421V726.627H323.623v43.932h15.282a5.019,5.019,0,0,1-1.209-1.8c-0.025-.065-0.051-0.129-0.073-0.195s-0.049-.162-0.07-0.244-0.036-.135-0.05-0.2h-6.674l0.078-.885c0.009-.11.017-0.222,0.017-0.335a3.661,3.661,0,0,0-3.651-3.661c-0.111,0-.221.007-0.331,0.017l-0.885.082V754.43c-0.011-.018-0.022-0.036-0.035-0.055-0.107-.182-0.214-0.365-0.311-0.554-0.125-.241-0.245-0.484-0.352-0.732-0.04-.091-0.072-0.186-0.11-0.278-0.094-.236-0.183-0.474-0.261-0.716-0.032-.1-0.062-0.2-0.092-0.306-0.069-.239-0.132-0.48-0.185-0.724-0.024-.109-0.047-0.217-0.069-0.326-0.047-.252-0.085-0.506-0.116-0.762-0.012-.1-0.028-0.2-0.038-0.306-0.033-.356-0.054-0.715-0.054-1.078s0.021-.722.055-1.078c0.01-.1.026-0.2,0.038-0.306,0.031-.256.068-0.51,0.116-0.762,0.021-.109.044-0.217,0.068-0.326,0.054-.244.116-0.484,0.186-0.724,0.03-.1.059-0.205,0.092-0.306,0.078-.242.166-0.48,0.261-0.715,0.037-.093.07-0.187,0.11-0.279,0.107-.248.226-0.491,0.352-0.732,0.1-.189.2-0.372,0.311-0.554,0.012-.018.023-0.037,0.034-0.054v-8.906l0.885,0.081c0.11,0.009.22,0.017,0.331,0.017a3.661,3.661,0,0,0,3.651-3.661c0-.113-0.008-0.225-0.017-0.335l-0.078-.885h9.927l-0.079.885c-0.009.11-.017,0.222-0.017,0.335a3.661,3.661,0,0,0,3.651,3.661c0.112,0,.222-0.008.331-0.017l0.886-.081v8.906a11.325,11.325,0,0,1,1.623,5.836c0,0.021,0,.041,0,0.062,0.276,0.026.546,0.058,0.812,0.1h0v-0.977Zm1.6,3.076a9.3,9.3,0,0,0-1.017-.319,10.591,10.591,0,0,0-1.262-.234c-0.013,0-.025,0-0.037,0a11.241,11.241,0,0,0-1.315-.079,9.6,9.6,0,0,0-4.991,1.3c-0.16.1-.313,0.205-0.455,0.314l-0.1.078a3.848,3.848,0,0,0-1.11,1.349,2.454,2.454,0,0,0-.241,1.028c0,2.205,3.158,4.068,6.9,4.068s6.9-1.863,6.9-4.068a2.218,2.218,0,0,0-.042-0.428c-0.006-.029-0.017-0.059-0.024-0.088a2.466,2.466,0,0,0-.1-0.339c-0.008-.024-0.021-0.046-0.03-0.069a3.1,3.1,0,0,0-.176-0.357l-0.027-.043a3.562,3.562,0,0,0-.26-0.37l-0.025-.03a4.985,4.985,0,0,0-1.1-.969c-0.044-.028-0.087-0.058-0.133-0.085a6.667,6.667,0,0,0-.636-0.355c-0.079-.039-0.165-0.074-0.248-0.111C349.877,750.978,349.723,750.914,349.565,750.855Zm0.831-24.228h-0.811v14.525a6.931,6.931,0,0,1,.811-0.647V726.627Zm2.434,0h-0.811v13.03q0.391-.159.811-0.289V726.627Zm2.434,0h-0.811v12.366c0.265-.042.536-0.076,0.811-0.1V726.627Zm1.221,13.83-0.381.014c-0.39.013-.772,0.046-1.146,0.1l-0.043.007a10.353,10.353,0,0,0-1.038.2l-0.042.01a8.86,8.86,0,0,0-1.128.364c-0.022.008-.045,0.016-0.066,0.025a7.392,7.392,0,0,0-1.017.5,5.848,5.848,0,0,0-.866.622c-0.029.025-.054,0.052-0.083,0.078-0.091.084-.18,0.167-0.259,0.254-0.052.056-.1,0.113-0.143,0.171s-0.1.118-.145,0.178-0.1.153-.146,0.23c-0.029.046-.061,0.091-0.086,0.138a2.388,2.388,0,0,0-.117.26c-0.017.042-.039,0.083-0.054,0.124a2.566,2.566,0,0,0-.075.283c-0.009.037-.023,0.074-0.029,0.113a2.243,2.243,0,0,0-.036.4c0,2.205,3.158,4.068,6.9,4.068s6.9-1.863,6.9-4.068S360.221,740.459,356.485,740.457Zm-12.174-7.322a2.847,2.847,0,1,1,2.84-2.847A2.846,2.846,0,0,1,344.311,733.135Zm0-4.067a1.22,1.22,0,1,0,1.217,1.22A1.22,1.22,0,0,0,344.311,729.068Zm-17.038,4.067a2.847,2.847,0,1,1,2.84-2.847A2.846,2.846,0,0,1,327.273,733.135Zm0-4.067a1.22,1.22,0,1,0,1.217,1.22A1.22,1.22,0,0,0,327.273,729.068Zm0,34.983a2.848,2.848,0,1,1-2.839,2.847A2.847,2.847,0,0,1,327.273,764.051Zm0,4.067a1.22,1.22,0,1,0-1.216-1.22A1.219,1.219,0,0,0,327.273,768.118Z" transform="translate(-322 -725)"/>
</svg>
