<svg xmlns="http://www.w3.org/2000/svg" width="80" height="80" viewBox="0 0 80 80">
  <defs>
    <style>
      .cls-1 {
        fill: #db5e37;
        fill-rule: evenodd;
      }
    </style>
  </defs>
  <path id="Forma_1" data-name="Forma 1" class="cls-1" d="M239.448,451A16.552,16.552,0,1,1,256,434.448,16.57,16.57,0,0,1,239.448,451Zm0-30.345a13.793,13.793,0,1,0,13.793,13.793A13.809,13.809,0,0,0,239.448,420.655Zm8.276,15.172h-8.276a1.377,1.377,0,0,1-1.379-1.379v-8.276a1.38,1.38,0,0,1,2.759,0v6.9h6.9A1.379,1.379,0,1,1,247.724,435.827Zm-34.483-8.275v12.413H185.655v-40h52.414v15.173H213.241v12.414Zm-15.172-24.828h-9.655v9.655h9.655v-9.655Zm0,12.414h-9.655v9.655h9.655v-9.655Zm0,12.414h-9.655v9.655h9.655v-9.655Zm12.414-24.828h-9.656v9.655h9.656v-9.655Zm0,12.414h-9.656v9.655h9.656v-9.655Zm0,12.414h-9.656v9.655h9.656v-9.655Zm15.172-15.173h9.655v-9.655h-9.655v9.655Zm-2.758,0v-9.655h-9.656v9.655H222.9Zm23.448,0a1.378,1.378,0,0,1-1.38-1.379V393.069H178.759v53.793h42.758a1.38,1.38,0,1,1,0,2.759H177.379a1.379,1.379,0,0,1-1.379-1.38V377.9a1.378,1.378,0,0,1,1.379-1.379h6.9v-4.138A1.377,1.377,0,0,1,185.655,371h9.655a1.378,1.378,0,0,1,1.38,1.379v4.138h30.344v-4.138a1.378,1.378,0,0,1,1.38-1.379h9.655a1.377,1.377,0,0,1,1.379,1.379v4.138h6.9a1.378,1.378,0,0,1,1.379,1.379V411A1.378,1.378,0,0,1,246.345,412.379ZM193.931,377.9v-4.137h-6.9v8.275h6.9V377.9Zm42.759,0v-4.137h-6.9v8.275h6.9V377.9Zm8.275,1.38h-5.517v4.138a1.378,1.378,0,0,1-1.379,1.379h-9.655a1.379,1.379,0,0,1-1.38-1.379v-4.138H196.69v4.138a1.379,1.379,0,0,1-1.38,1.379h-9.655a1.378,1.378,0,0,1-1.379-1.379v-4.138h-5.517V390.31h66.206V379.276Z" transform="translate(-176 -371)"/>
</svg>
