<svg xmlns="http://www.w3.org/2000/svg" width="64" height="42" viewBox="0 0 64 42">
  <defs>
    <style>
      .cls-1 {
        fill: #db5e37;
        fill-rule: evenodd;
      }
    </style>
  </defs>
  <path id="Forma_1" data-name="Forma 1" class="cls-1" d="M371.307,431.157l-0.052,8.525a1.329,1.329,0,0,1-.635,1.109,1.173,1.173,0,0,1-1.28.035L360.148,436a24.654,24.654,0,0,1-3.1.2,21.878,21.878,0,0,1-13.273-4.224,15.1,15.1,0,0,1-4.273-4.95,23.438,23.438,0,0,1-8.551,1.585h0a24.4,24.4,0,0,1-3.083-.195l-9.18,5.107a1.387,1.387,0,0,1-1.3-.012,1.252,1.252,0,0,1-.648-1.117l-0.051-8.821A13.066,13.066,0,0,1,312,413.8c0-4.02,2.017-7.778,5.679-10.58A21.883,21.883,0,0,1,330.951,399a22.544,22.544,0,0,1,11.258,2.884,16.094,16.094,0,0,1,6.277,6.289,23.374,23.374,0,0,1,8.563-1.585,21.877,21.877,0,0,1,13.272,4.224c3.662,2.8,5.679,6.559,5.679,10.58A13.07,13.07,0,0,1,371.307,431.157ZM330.951,401.6c-9.009,0-16.339,5.473-16.339,12.2a10.671,10.671,0,0,0,4.218,8.164,1.3,1.3,0,0,1,.471.941c0,0.026,0,.053,0,0.078l0.042,7.185,7.424-4.13a1.308,1.308,0,0,1,1.008-.271,21.817,21.817,0,0,0,3.175.232h0a20.806,20.806,0,0,0,7.587-1.4,11.9,11.9,0,0,1-.442-3.21c0-4.021,2.017-7.778,5.679-10.58a18.773,18.773,0,0,1,2.346-1.527C343.661,404.711,337.626,401.6,330.951,401.6Zm26.1,7.589c-0.7,0-1.393.045-2.074,0.11-0.184.017-.366,0.04-0.549,0.062q-0.846.1-1.662,0.267c-0.112.022-.227,0.039-0.338,0.064a19.947,19.947,0,0,0-1.93.527c-0.08.026-.157,0.057-0.236,0.084-0.576.2-1.135,0.418-1.673,0.662-0.105.047-.211,0.092-0.314,0.141a13.257,13.257,0,0,0-6.962,7.029c-0.034.092-.065,0.184-0.1,0.277a9.28,9.28,0,0,0-.3,1.145c-0.024.118-.054,0.235-0.073,0.354a9.176,9.176,0,0,0-.129,1.478,9.333,9.333,0,0,0,.66,3.433c0.01,0.024.02,0.048,0.029,0.072,2.022,5.024,8.272,8.694,15.65,8.694a21.83,21.83,0,0,0,3.176-.232,1.3,1.3,0,0,1,.984.252l7.448,3.912,0.041-6.955c0-.024,0-0.047,0-0.071a1.3,1.3,0,0,1,.47-0.941,10.673,10.673,0,0,0,4.219-8.164c0-.027-0.006-0.052-0.006-0.079C373.324,414.623,365.908,409.192,357.048,409.192Zm7.674,16.336H349.375a1.3,1.3,0,1,1,0-2.6h15.347A1.3,1.3,0,1,1,364.722,425.528Zm0-5.894H349.375a1.3,1.3,0,1,1,0-2.6h15.347A1.3,1.3,0,1,1,364.722,419.634Z" transform="translate(-312 -399)"/>
</svg>
