<svg xmlns="http://www.w3.org/2000/svg" width="48" height="36" viewBox="0 0 48 36">
  <defs>
    <style>
      .cls-1 {
        fill: #db5e37;
        fill-rule: evenodd;
      }
    </style>
  </defs>
  <path id="Forma_1" data-name="Forma 1" class="cls-1" d="M137.793,1500.1H119.284v5.22h1.75v-3.38a0.36,0.36,0,0,1,.362-0.36h0.965a0.36,0.36,0,0,1,.362.36v4.7a0.36,0.36,0,0,1-.362.36H107.639a0.36,0.36,0,0,1-.362-0.36v-4.7a0.36,0.36,0,0,1,.362-0.36H108.6a0.36,0.36,0,0,1,.362.36v3.38h1.75v-5.22H92.207A1.205,1.205,0,0,1,91,1498.9v-26.7a1.205,1.205,0,0,1,1.207-1.2h45.586a1.205,1.205,0,0,1,1.207,1.2v26.7A1.205,1.205,0,0,1,137.793,1500.1Zm-1.207-26.71H93.414v24.31h43.173v-24.31Zm-28.909,7.43a0.7,0.7,0,0,1,.144.01,0.855,0.855,0,0,1,.546.34,0.834,0.834,0,0,1,.143.63l-0.558,3.2h4.8l0.606-3.49a0.839,0.839,0,0,1,.832-0.69,0.689,0.689,0,0,1,.144.01,0.857,0.857,0,0,1,.547.34,0.833,0.833,0,0,1,.142.63l-1.455,8.37a0.838,0.838,0,0,1-.833.7h0a0.679,0.679,0,0,1-.142-0.01,0.855,0.855,0,0,1-.546-0.34,0.843,0.843,0,0,1-.143-0.63l0.557-3.21h-4.8l-0.607,3.49a0.838,0.838,0,0,1-.833.7,0.67,0.67,0,0,1-.142-0.01,0.855,0.855,0,0,1-.547-0.34,0.843,0.843,0,0,1-.142-0.63l1.455-8.38A0.839,0.839,0,0,1,107.677,1480.82Zm8.785,1.91a0.7,0.7,0,0,1,.145.01,0.835,0.835,0,0,1,.546.35,0.813,0.813,0,0,1,.142.62l-0.952,5.48h2.321a4.464,4.464,0,0,0,4.22-3.48,2.715,2.715,0,0,0-.557-2.27,2.829,2.829,0,0,0-2.208-.95H116.8a0.835,0.835,0,1,1,0-1.67h3.323a4.471,4.471,0,0,1,3.5,1.54,4.343,4.343,0,0,1,.93,3.63,6.159,6.159,0,0,1-5.885,4.88H115.34a0.847,0.847,0,0,1-.646-0.3,0.832,0.832,0,0,1-.186-0.68l1.122-6.46A0.838,0.838,0,0,1,116.462,1482.73Z" transform="translate(-91 -1471)"/>
</svg>
