<svg xmlns="http://www.w3.org/2000/svg" width="69" height="62" viewBox="0 0 69 62">
  <defs>
    <style>
      .cls-1 {
        fill: #db5e37;
        fill-rule: evenodd;
      }
    </style>
  </defs>
  <path id="Forma_1" data-name="Forma 1" class="cls-1" d="M244.27,519.31l-11.556,7.3a1.565,1.565,0,0,1-1.664-2.651l9.349-5.907-22.2-12.662-13.242,8.367,23,13.118a1.5,1.5,0,0,1,.172.113,0.392,0.392,0,0,1,.032.025,1.315,1.315,0,0,1,.12.1,0.307,0.307,0,0,1,.026.025,1.425,1.425,0,0,1,.125.142l0.014,0.019c0.025,0.035.051,0.069,0.074,0.106,0.006,0.009.01,0.019,0.015,0.028s0.02,0.035.029,0.052c0.022,0.04.043,0.08,0.061,0.121,0.007,0.016.014,0.032,0.02,0.048a1.611,1.611,0,0,1,.06.173v0a1.542,1.542,0,0,1,.038.189c0,0.012,0,.025,0,0.038,0.006,0.052.009,0.1,0.01,0.156,0,0.01,0,.018,0,0.028v18.8a1.567,1.567,0,0,1-.729,1.325l-8.12,5.131a1.561,1.561,0,0,1-2.393-1.326V534.287l-23.676-13.5L180.6,529.149l22.2,12.662,10.765-6.8a1.565,1.565,0,0,1,1.664,2.651l-11.556,7.3a1.555,1.555,0,0,1-1.6.036L176.79,530.58a1.57,1.57,0,0,1-.061-2.688l16.24-10.261,0.011-.007,8.109-5.124,0.01-.006,16.228-10.254a1.558,1.558,0,0,1,1.6-.036l25.279,14.418A1.57,1.57,0,0,1,244.27,519.31Zm-47.431-.422,23.011,13.126a1.565,1.565,0,0,1,.79,1.361v15.96l5-3.158v-15.1l-1.758,1.111a1.558,1.558,0,0,1-2.153-.491,1.57,1.57,0,0,1,.49-2.16l1.943-1.228-22.2-12.662Zm-18.507,15.234L202.8,548.077l10.765-6.8a1.565,1.565,0,0,1,1.664,2.651l-11.556,7.3a1.561,1.561,0,0,1-1.6.036L176.79,536.845A1.565,1.565,0,0,1,178.332,534.122Zm0,6.266L202.8,554.342l10.765-6.8a1.565,1.565,0,0,1,1.664,2.651l-11.556,7.3a1.555,1.555,0,0,1-1.6.036L176.79,543.111A1.565,1.565,0,0,1,178.332,540.388Zm0,6.265L202.8,560.608l10.765-6.8a1.565,1.565,0,0,1,1.664,2.651l-11.556,7.3a1.555,1.555,0,0,1-1.6.036L176.79,549.377A1.565,1.565,0,0,1,178.332,546.653Zm64.274-23.729a1.565,1.565,0,0,1,1.664,2.651l-11.556,7.3a1.558,1.558,0,0,1-2.153-.491,1.57,1.57,0,0,1,.489-2.16Zm0,6.266a1.565,1.565,0,0,1,1.664,2.651l-11.556,7.3a1.555,1.555,0,0,1-2.153-.491,1.57,1.57,0,0,1,.489-2.16Zm0,6.266a1.565,1.565,0,0,1,1.664,2.65l-11.556,7.3a1.558,1.558,0,0,1-2.153-.491,1.57,1.57,0,0,1,.489-2.16Z" transform="translate(-176 -502)"/>
</svg>
