<svg xmlns="http://www.w3.org/2000/svg" width="48" height="30.97" viewBox="0 0 48 30.97">
  <defs>
    <style>
      .cls-1 {
        fill: #db5e37;
        fill-rule: evenodd;
      }
    </style>
  </defs>
  <path id="Forma_1" data-name="Forma 1" class="cls-1" d="M137.964,1579.21a9.35,9.35,0,0,1-7.2,5.7c-4.867.62-8.736-2.46-10.916-6.53-3.23.02-6.457,0.13-9.683-.07-2.173,4.11-6.058,7.22-10.952,6.6a9.35,9.35,0,0,1-7.2-5.7c-2.734-6.37.055-15.28,7.622-15.58a0.714,0.714,0,0,1,.256.02,0.652,0.652,0,0,1,.142-0.02c4.67-.26,9.406-0.48,14.145-0.55a1.393,1.393,0,0,1,.077-0.24,7.474,7.474,0,0,1,5.2-4.14c2.206-.62,3.977-0.8,3.679-3.51-0.174-1.59,2.309-1.57,2.481,0a4.528,4.528,0,0,1-3.133,5.21c-2.1.72-4.2,0.95-5.493,2.66,4.366,0.01,8.724.17,13.027,0.6a1.038,1.038,0,0,1,.313-0.03C137.909,1563.93,140.7,1572.84,137.964,1579.21Zm-6.157-13.41a0.808,0.808,0,0,1-.269,0c-10.371-1.2-21.094-.76-31.5-0.19a2.045,2.045,0,0,1-.259-0.02,0.692,0.692,0,0,0-.138.02c-5.969.24-8.256,7.9-5.776,12.88,1.1,2.21,3.063,4.27,5.67,4.48,4.245,0.36,7.278-2.38,9.085-5.99a0.5,0.5,0,0,0,.047-0.07,0.824,0.824,0,0,1,.911-0.61c3.607,0.26,7.217.11,10.83,0.1a0.891,0.891,0,0,1,.623.21,0.919,0.919,0,0,1,.33.37c1.807,3.61,4.841,6.35,9.085,5.99,2.608-.21,4.573-2.27,5.67-4.48C138.383,1573.95,136.669,1566.89,131.807,1565.8Zm1.214,9.84a1.453,1.453,0,0,1-1.49-1.51,1.577,1.577,0,0,1,.369-1.03,1.438,1.438,0,0,1,1.121-.49,1.455,1.455,0,0,1,1.489,1.52,1.554,1.554,0,0,1-.368,1.02A1.439,1.439,0,0,1,133.021,1575.64Zm-3.082-3.88a1.461,1.461,0,0,1-1.49-1.52,1.576,1.576,0,0,1,.368-1.03,1.475,1.475,0,0,1,1.122-.49,1.455,1.455,0,0,1,1.489,1.52,1.549,1.549,0,0,1-.368,1.02A1.449,1.449,0,0,1,129.939,1571.76Zm-0.1,4.23a1.453,1.453,0,0,1,1.489,1.51,1.581,1.581,0,0,1-.368,1.03,1.438,1.438,0,0,1-1.121.49,1.456,1.456,0,0,1-1.49-1.52,1.55,1.55,0,0,1,.369-1.02A1.438,1.438,0,0,1,129.836,1575.99Zm-3.493.06a1.453,1.453,0,0,1-1.49-1.51,1.577,1.577,0,0,1,.369-1.03,1.439,1.439,0,0,1,1.121-.49,1.455,1.455,0,0,1,1.489,1.52,1.549,1.549,0,0,1-.368,1.02A1.438,1.438,0,0,1,126.343,1576.05Zm-6.164-2.76h-2.568a1.515,1.515,0,0,1,0-3.03h2.568A1.515,1.515,0,0,1,120.179,1573.29Zm-6.985,0h-2.363a1.515,1.515,0,0,1,0-3.03h2.363A1.515,1.515,0,0,1,113.194,1573.29Zm-9.759,1.74h-1.764v1.55a1.524,1.524,0,0,1-3.047,0v-1.55H97.168a1.456,1.456,0,0,1-1.49-1.52,1.551,1.551,0,0,1,.368-1.02,1.449,1.449,0,0,1,1.121-.5h1.456v-1.24a1.525,1.525,0,0,1,3.047,0v1.24h1.764A1.52,1.52,0,0,1,103.435,1575.03Z" transform="translate(-91 -1554.03)"/>
</svg>
