<svg xmlns="http://www.w3.org/2000/svg" width="51" height="80" viewBox="0 0 51 80">
  <defs>
    <style>
      .cls-1 {
        fill: #db5e37;
        fill-rule: evenodd;
      }
    </style>
  </defs>
  <path id="Forma_1" data-name="Forma 1" class="cls-1" d="M231.578,685.021h-3.253a1.392,1.392,0,0,1,.125.574,1.414,1.414,0,0,1-1.422,1.4h-4.55a1.413,1.413,0,0,1-1.422-1.4,1.391,1.391,0,0,1,.124-0.574H193.82a1.391,1.391,0,0,1,.124.574,1.413,1.413,0,0,1-1.422,1.4h-4.55a1.414,1.414,0,0,1-1.422-1.4,1.392,1.392,0,0,1,.125-0.574h-3.253a1.413,1.413,0,0,1-1.422-1.4V608.405a1.413,1.413,0,0,1,1.422-1.4h48.156a1.414,1.414,0,0,1,1.422,1.4v75.211A1.414,1.414,0,0,1,231.578,685.021Zm-1.422-75.211H184.844v72.4h45.312v-72.4Zm-40.749,1.405h36.185a3.127,3.127,0,0,1,3.142,3.105V677.7a3.126,3.126,0,0,1-3.142,3.1H189.407a3.126,3.126,0,0,1-3.141-3.1V614.32A3.127,3.127,0,0,1,189.407,611.215ZM188.162,677.7a1.239,1.239,0,0,0,1.245,1.231h36.185a1.24,1.24,0,0,0,1.246-1.231V614.32a1.24,1.24,0,0,0-1.246-1.231H189.407a1.239,1.239,0,0,0-1.245,1.231V677.7Zm7.21-48.927h24.256a5.289,5.289,0,0,1,5.314,5.252V658a5.289,5.289,0,0,1-5.314,5.252H195.372A5.289,5.289,0,0,1,190.058,658V634.026A5.289,5.289,0,0,1,195.372,628.774ZM191.954,658a3.4,3.4,0,0,0,3.418,3.378h24.256A3.4,3.4,0,0,0,223.046,658V634.026a3.4,3.4,0,0,0-3.418-3.379H195.372a3.4,3.4,0,0,0-3.418,3.379V658ZM207.5,631.816a14.2,14.2,0,1,1-14.364,14.194A14.3,14.3,0,0,1,207.5,631.816Zm0,26.515a12.321,12.321,0,1,0-12.468-12.321A12.409,12.409,0,0,0,207.5,658.331Zm0-23.3a10.977,10.977,0,1,1-11.108,10.976A11.055,11.055,0,0,1,207.5,635.034Zm0,20.08a9.1,9.1,0,1,0-9.212-9.1A9.169,9.169,0,0,0,207.5,655.114Zm0-13.8a4.7,4.7,0,1,1-4.753,4.7A4.73,4.73,0,0,1,207.5,641.314Zm0,7.519a2.823,2.823,0,1,0-2.857-2.823A2.842,2.842,0,0,0,207.5,648.833Zm-13.373,9.119a0.959,0.959,0,0,1,1.34,0,0.928,0.928,0,0,1,0,1.327,0.959,0.959,0,0,1-1.34,0A0.933,0.933,0,0,1,194.127,657.952Zm25.405,0a0.954,0.954,0,0,1,1.34,0,0.926,0.926,0,0,1,0,1.325,0.956,0.956,0,0,1-1.34,0A0.928,0.928,0,0,1,219.532,657.954Zm1.34-23.781a0.956,0.956,0,0,1-1.34,0,0.932,0.932,0,0,1,0-1.326,0.956,0.956,0,0,1,1.34,0A0.927,0.927,0,0,1,220.872,634.173Zm-25.4,0a0.956,0.956,0,0,1-1.34,0,0.93,0.93,0,0,1,0-1.324,0.951,0.951,0,0,1,1.34,0A0.925,0.925,0,0,1,195.467,634.173Zm-2.343,30.933h28.752a3.051,3.051,0,0,1,3.066,3.03v5.893a3.051,3.051,0,0,1-3.066,3.029H193.124a3.051,3.051,0,0,1-3.066-3.029v-5.893A3.051,3.051,0,0,1,193.124,665.106Zm-1.17,8.923a1.165,1.165,0,0,0,1.17,1.156h28.752a1.165,1.165,0,0,0,1.17-1.156v-5.893a1.165,1.165,0,0,0-1.17-1.157H193.124a1.165,1.165,0,0,0-1.17,1.157v5.893Zm4.615-5.882a2.935,2.935,0,1,1-2.97,2.935A2.955,2.955,0,0,1,196.569,668.147Zm0,4a1.062,1.062,0,1,0-1.075-1.062A1.069,1.069,0,0,0,196.569,672.144Zm7.287-4a2.935,2.935,0,1,1-2.97,2.935A2.955,2.955,0,0,1,203.856,668.147Zm0,4a1.062,1.062,0,1,0-1.074-1.062A1.069,1.069,0,0,0,203.856,672.144Zm7.288-4a2.935,2.935,0,1,1-2.971,2.935A2.956,2.956,0,0,1,211.144,668.147Zm0,4a1.062,1.062,0,1,0-1.075-1.062A1.069,1.069,0,0,0,211.144,672.144Zm7.287-4a2.935,2.935,0,1,1-2.97,2.935A2.955,2.955,0,0,1,218.431,668.147Zm0,4a1.062,1.062,0,1,0-1.074-1.062A1.069,1.069,0,0,0,218.431,672.144Zm-19.842-44.281a6.932,6.932,0,1,1,7.015-6.932A6.981,6.981,0,0,1,198.589,627.863Zm0-1.873a5.131,5.131,0,0,0,4.439-2.545H194.15A5.131,5.131,0,0,0,198.589,625.99Zm0-10.117a5.13,5.13,0,0,0-4.439,2.544h8.878A5.13,5.13,0,0,0,198.589,615.873Zm5.077,4.418H193.513a4.792,4.792,0,0,0,0,1.281h10.153A4.9,4.9,0,0,0,203.666,620.291Z" transform="translate(-182 -607)"/>
</svg>
