<svg xmlns="http://www.w3.org/2000/svg" width="48" height="34" viewBox="0 0 48 34">
  <defs>
    <style>
      .cls-1 {
        fill: #db5e37;
        fill-rule: evenodd;
      }
    </style>
  </defs>
  <path id="Forma_1" data-name="Forma 1" class="cls-1" d="M239.252,1325h-8.074a0.745,0.745,0,1,1,0-1.49h0.9v-31.76a0.745,0.745,0,0,1,.747-0.75h4.785a0.745,0.745,0,0,1,.748.75v31.76h0.9A0.745,0.745,0,1,1,239.252,1325Zm-5.682-1.49h3.29v-9.64h-3.29v9.64Zm0-10.63h3.29v-8.8l-3.29,3.28v5.52Zm0-6.92,3.29-3.28v-1.58l-3.29,3.28v1.58Zm3.29-13.47h-3.29v1h3.29v-1Zm0,1.99h-3.29v8.49l3.29-3.28v-5.21Zm-7.14,18.89H202.28a0.743,0.743,0,0,1-.748-0.74v-17.62a0.743,0.743,0,0,1,.748-0.74h27.44a0.742,0.742,0,0,1,.747.74v17.62A0.742,0.742,0,0,1,229.72,1313.37Zm-0.748-17.61H203.028v16.12h25.944v-16.12Zm-24.7.74h23.452a0.5,0.5,0,0,1,.5.5v13.64a0.5,0.5,0,0,1-.5.5H204.274a0.5,0.5,0,0,1-.5-0.5V1297A0.5,0.5,0,0,1,204.274,1296.5Zm0.5,13.64h22.455V1297.5H204.772v12.64Zm-3.95,14.86h-8.074a0.745,0.745,0,1,1,0-1.49h0.9v-31.76a0.745,0.745,0,0,1,.747-0.75h4.785a0.745,0.745,0,0,1,.748.75v31.76h0.9A0.745,0.745,0,1,1,200.822,1325Zm-2.392-32.51h-3.29v1h3.29v-1Zm0,1.99h-3.29v8.49l3.29-3.28v-5.21Zm0,6.62-3.29,3.28v1.58l3.29-3.28v-1.58Zm0,2.98-3.29,3.28v5.52h3.29v-8.8Zm0,9.79h-3.29v9.64h3.29v-9.64Zm10.019,0.99h15.1a0.743,0.743,0,0,1,.748.74v8.65a0.745,0.745,0,0,1-.748.75h-15.1a0.745,0.745,0,0,1-.748-0.75v-8.65A0.743,0.743,0,0,1,208.449,1314.86Zm0.747,8.65H222.8v-7.16H209.2v7.16Zm10.283-1.63a1.955,1.955,0,1,1,1.962-1.95A1.955,1.955,0,0,1,219.479,1321.88Zm0-2.91a0.96,0.96,0,1,0,.965.96A0.963,0.963,0,0,0,219.479,1318.97Zm-6.029,3.84a2.885,2.885,0,1,1,2.891-2.88A2.888,2.888,0,0,1,213.45,1322.81Zm0-4.77a1.89,1.89,0,1,0,1.894,1.89A1.9,1.9,0,0,0,213.45,1318.04Zm0,2.63a0.785,0.785,0,0,1-.528-0.21,0.767,0.767,0,0,1-.22-0.53,0.748,0.748,0,1,1,1.5,0,0.771,0.771,0,0,1-.219.53A0.788,0.788,0,0,1,213.45,1320.67Z" transform="translate(-192 -1291)"/>
</svg>
