<svg xmlns="http://www.w3.org/2000/svg" width="48" height="33" viewBox="0 0 48 33">
  <defs>
    <style>
      .cls-1 {
        fill: #db5e37;
        fill-rule: evenodd;
      }
    </style>
  </defs>
  <path id="Forma_1" data-name="Forma 1" class="cls-1" d="M241.979,1419.78a0.045,0.045,0,0,0,.006-0.02l0.006-.03c0-.01,0-0.03,0-0.04a0.077,0.077,0,0,0,0-.02,0.419,0.419,0,0,0,0-.05h0v-28.96a0.662,0.662,0,0,0-.659-0.66H194.659a0.662,0.662,0,0,0-.659.66v28.96h0c0,0.02,0,.03,0,0.05a0.117,0.117,0,0,0,0,.02c0,0.01,0,.03,0,0.04l0.006,0.03a0.045,0.045,0,0,0,.006.02,0.454,0.454,0,0,0,.012.05h0l0.9,2.72a0.656,0.656,0,0,0,.624.45h44.887a0.656,0.656,0,0,0,.625-0.45l0.9-2.72h0A0.454,0.454,0,0,0,241.979,1419.78Zm-45.948,1.89-0.458-1.39h38.586a0.66,0.66,0,0,0,0-1.32H195.317v-27.63h45.366v27.63h-1.861a0.66,0.66,0,0,0,0,1.32h1.6l-0.458,1.39H196.031Zm6.468-29.2v25.34a0.659,0.659,0,1,1-1.317,0v-25.34A0.659,0.659,0,1,1,202.5,1392.47Zm-3.352,15.63h-0.239v-2.96a0.659,0.659,0,1,0-1.317,0v2.96h-0.239a0.662,0.662,0,0,0-.659.66v3.62a0.665,0.665,0,0,0,.659.67h0.239V1416a0.659,0.659,0,1,0,1.317,0v-2.95h0.239a0.665,0.665,0,0,0,.659-0.67v-3.62A0.662,0.662,0,0,0,199.147,1408.1Zm-1.136,3.62v-2.29h0.478v2.29h-0.478Zm0.239-13.57a2.055,2.055,0,1,0-2.038-2.06A2.048,2.048,0,0,0,198.25,1398.15Zm0-2.78a0.719,0.719,0,0,1,.72.72,0.721,0.721,0,1,1-1.441,0A0.719,0.719,0,0,1,198.25,1395.37Zm-1.438,4.7a2.073,2.073,0,0,0,0,2.91,2.029,2.029,0,0,0,2.881,0h0a2.072,2.072,0,0,0,0-2.91A2.029,2.029,0,0,0,196.812,1400.07Zm1.95,1.97h0a0.724,0.724,0,1,1-1.019-1.03,0.723,0.723,0,0,1,1.019,0A0.734,0.734,0,0,1,198.762,1402.04Zm10.919-9.57v25.34a0.659,0.659,0,1,1-1.317,0v-25.34A0.659,0.659,0,1,1,209.681,1392.47Zm-3.352,17.44H206.09v-4.77a0.659,0.659,0,1,0-1.317,0v4.77h-0.239a0.662,0.662,0,0,0-.659.66v3.62a0.665,0.665,0,0,0,.659.67h0.239V1416a0.659,0.659,0,1,0,1.317,0v-1.14h0.239a0.665,0.665,0,0,0,.659-0.67v-3.62A0.662,0.662,0,0,0,206.329,1409.91Zm-1.137,3.62v-2.29h0.479v2.29h-0.479Zm0.24-15.38a2.055,2.055,0,1,0-2.038-2.06A2.048,2.048,0,0,0,205.432,1398.15Zm0-2.78a0.719,0.719,0,0,1,.72.72,0.721,0.721,0,1,1-1.441,0A0.719,0.719,0,0,1,205.432,1395.37Zm-1.438,4.7a2.073,2.073,0,0,0,0,2.91A2.047,2.047,0,1,0,203.994,1400.07Zm1.95,1.97a0.723,0.723,0,0,1-1.019,0h0a0.736,0.736,0,0,1,0-1.03,0.723,0.723,0,0,1,1.019,0A0.734,0.734,0,0,1,205.944,1402.04Zm10.919-9.57v25.34a0.659,0.659,0,1,1-1.317,0v-25.34A0.659,0.659,0,1,1,216.863,1392.47Zm-3.352,12.91h-0.239v-0.24a0.659,0.659,0,1,0-1.317,0v0.24h-0.239a0.665,0.665,0,0,0-.659.67v3.62a0.662,0.662,0,0,0,.659.66h0.239V1416a0.659,0.659,0,1,0,1.317,0v-5.67h0.239a0.662,0.662,0,0,0,.659-0.66v-3.62A0.665,0.665,0,0,0,213.511,1405.38Zm-1.137,3.62v-2.29h0.478V1409h-0.478Zm0.239-10.85a2.024,2.024,0,0,0,1.441-.6,2.073,2.073,0,0,0,0-2.91,2.029,2.029,0,0,0-2.881,0,2.072,2.072,0,0,0,0,2.91A2.023,2.023,0,0,0,212.613,1398.15Zm-0.509-2.57a0.723,0.723,0,0,1,1.019,0h0a0.735,0.735,0,0,1,0,1.03,0.723,0.723,0,0,1-1.019,0A0.734,0.734,0,0,1,212.1,1395.58Zm0.512,3.89a2.055,2.055,0,1,0,2.038,2.05A2.046,2.046,0,0,0,212.616,1399.47Zm0,2.78a0.728,0.728,0,0,1-.72-0.73,0.721,0.721,0,0,1,1.441,0A0.728,0.728,0,0,1,212.616,1402.25Zm11.429-9.78v25.34a0.659,0.659,0,1,1-1.317,0v-25.34A0.659,0.659,0,1,1,224.045,1392.47Zm-3.352,14.72h-0.239v-2.05a0.659,0.659,0,1,0-1.317,0v2.05H218.9a0.665,0.665,0,0,0-.659.67v3.62a0.662,0.662,0,0,0,.659.66h0.239V1416a0.659,0.659,0,1,0,1.317,0v-3.86h0.239a0.662,0.662,0,0,0,.659-0.66v-3.62A0.665,0.665,0,0,0,220.693,1407.19Zm-1.137,3.62v-2.29h0.478v2.29h-0.478Zm0.239-12.66a2.024,2.024,0,0,0,1.441-.6,2.072,2.072,0,0,0,0-2.91,2.029,2.029,0,0,0-2.881,0,2.072,2.072,0,0,0,0,2.91A2.023,2.023,0,0,0,219.8,1398.15Zm-0.509-2.57h0a0.723,0.723,0,0,1,1.019,0A0.721,0.721,0,1,1,219.286,1395.58Zm0.512,3.89a2.055,2.055,0,1,0,2.038,2.05A2.046,2.046,0,0,0,219.8,1399.47Zm0,2.78a0.728,0.728,0,0,1-.72-0.73,0.721,0.721,0,0,1,1.441,0A0.728,0.728,0,0,1,219.8,1402.25Zm11.429-9.78v25.34a0.659,0.659,0,1,1-1.317,0v-25.34A0.659,0.659,0,1,1,231.227,1392.47Zm-3.352,18.34h-0.239v-5.67a0.659,0.659,0,1,0-1.317,0v5.67H226.08a0.665,0.665,0,0,0-.659.67v3.62a0.662,0.662,0,0,0,.659.66h0.239V1416a0.659,0.659,0,1,0,1.317,0v-0.24h0.239a0.662,0.662,0,0,0,.659-0.66v-3.62A0.665,0.665,0,0,0,227.875,1410.81Zm-1.137,3.62v-2.29h0.478v2.29h-0.478Zm0.239-16.28a2.055,2.055,0,1,0-2.037-2.06A2.049,2.049,0,0,0,226.977,1398.15Zm0-2.78a0.719,0.719,0,0,1,.721.72,0.721,0.721,0,1,1-1.441,0A0.719,0.719,0,0,1,226.977,1395.37Zm0,4.1a2,2,0,0,0-1.44.6h0a2.038,2.038,0,1,0,2.881,0A2.006,2.006,0,0,0,226.98,1399.47Zm0.51,2.57a0.721,0.721,0,0,1-1.23-.52,0.728,0.728,0,0,1,.211-0.51h0a0.723,0.723,0,0,1,1.019,0A0.734,0.734,0,0,1,227.49,1402.04Zm5.771,2.86h5.387a0.662,0.662,0,0,0,.659-0.66v-10.86a0.656,0.656,0,0,0-.659-0.66h-5.387a0.656,0.656,0,0,0-.658.66v10.86A0.662,0.662,0,0,0,233.261,1404.9Zm1.425-9.05a0.66,0.66,0,0,0,0-1.32H233.92v-0.49h4.069v0.49h-0.765a0.66,0.66,0,0,0,0,1.32h0.765v0.48H237.75a0.66,0.66,0,0,0,0,1.32h0.239v0.48h-0.765a0.656,0.656,0,0,0-.659.66,0.665,0.665,0,0,0,.659.67h0.765v0.47H237.75a0.665,0.665,0,0,0,0,1.33h0.239v0.5h-0.765a0.665,0.665,0,0,0,0,1.33h0.765v0.48H233.92v-0.48h0.766a0.665,0.665,0,0,0,0-1.33H233.92v-0.5h0.239a0.665,0.665,0,0,0,0-1.33H233.92v-0.47h0.766a0.664,0.664,0,0,0,.658-0.67,0.656,0.656,0,0,0-.658-0.66H233.92v-0.48h0.239a0.66,0.66,0,0,0,0-1.32H233.92v-0.48h0.766Zm3.4,18.71,0.12,0.12a0.643,0.643,0,0,0,.932,0,0.669,0.669,0,0,0,0-.94l-0.12-.12a3.733,3.733,0,0,0,.61-1.48h0.168a0.665,0.665,0,0,0,0-1.33h-0.168a3.8,3.8,0,0,0-.61-1.48l0.12-.12a0.669,0.669,0,0,0,0-.94,0.654,0.654,0,0,0-.932,0l-0.12.12a3.78,3.78,0,0,0-1.468-.61v-0.17a0.659,0.659,0,1,0-1.318,0v0.17a3.784,3.784,0,0,0-1.469.61l-0.12-.12a0.653,0.653,0,0,0-.931,0,0.669,0.669,0,0,0,0,.94l0.12,0.12a3.78,3.78,0,0,0-.61,1.48h-0.168a0.665,0.665,0,0,0,0,1.33h0.168a3.719,3.719,0,0,0,.61,1.48l-0.12.12a0.669,0.669,0,0,0,0,.94,0.642,0.642,0,0,0,.931,0l0.12-.12a3.639,3.639,0,0,0,1.469.61v0.17a0.659,0.659,0,1,0,1.318,0v-0.17A3.634,3.634,0,0,0,238.082,1414.56Zm-4.538-3.08a2.435,2.435,0,0,1,1.752-2.34v1.21a0.659,0.659,0,1,0,1.317,0v-1.21A2.428,2.428,0,1,1,233.544,1411.48Z" transform="translate(-194 -1390)"/>
</svg>
