<svg xmlns="http://www.w3.org/2000/svg" width="48" height="48" viewBox="0 0 48 48">
  <defs>
    <style>
      .cls-1 {
        fill: #db5e37;
        fill-rule: evenodd;
      }
    </style>
  </defs>
  <path id="Forma_1" data-name="Forma 1" class="cls-1" d="M244.018,994.664a4.555,4.555,0,0,0-6.735-.329l-0.643.643a1.815,1.815,0,0,0,0,2.571l-1.287,1.286a1.864,1.864,0,0,0-2.575,0l-9.654,9.645-1.93-1.93-15.447,15.43a7.269,7.269,0,0,0-1.557,7.98l-6.393,6.38a2.73,2.73,0,1,0,3.861,3.86l6.4-6.39a7.344,7.344,0,0,0,2.84.58,7.26,7.26,0,0,0,5.149-2.13l15.446-15.43-1.931-1.93,9.654-9.64a1.819,1.819,0,0,0,0-2.57l1.286-1.29a1.823,1.823,0,0,0,2.575,0l0.532-.53A4.655,4.655,0,0,0,244.018,994.664Zm-37.588,38.2-6.059,6.06a0.91,0.91,0,0,1-1.554-.65,0.9,0.9,0,0,1,.267-0.64l6.059-6.05a0.25,0.25,0,0,1,.042.05c0.171,0.21.352,0.42,0.55,0.62a0.127,0.127,0,0,0,.012.01c0.006,0.01.014,0.01,0.02,0.02a6.9,6.9,0,0,0,.616.54A0.167,0.167,0,0,0,206.43,1032.86Zm8.327-1.88a5.473,5.473,0,0,1-6.7.78c-0.091-.05-0.182-0.11-0.271-0.17a5.471,5.471,0,0,1-.743-0.61h-0.008a5.611,5.611,0,0,1-.472-0.55c-0.026-.03-0.052-0.07-0.077-0.1a5.643,5.643,0,0,1-.392-0.62l-0.055-.1a5.451,5.451,0,0,1,1-6.35l10.94-10.93,7.723,7.72Zm14.159-14.15-1.932,1.93-7.723-7.71,1.932-1.93Zm-4.506-7.07,6.436-6.43,3.862,3.86-6.436,6.43Zm14.8-7.07-0.643-.64,0.644,0.64h0Zm3.108-3.1-0.533.532a1.824,1.824,0,0,0-2.574,0l-1.287,1.29a1.779,1.779,0,0,0-.534,1.28,1.819,1.819,0,0,0,.534,1.29L236,1005.91l-3.862-3.86,1.932-1.93a1.823,1.823,0,0,0,2.575,0l1.287-1.285a1.82,1.82,0,0,0,0-2.571l0.643-.643a2.736,2.736,0,0,1,4.045.2A2.831,2.831,0,0,1,242.32,999.588Z" transform="translate(-197 -993)"/>
</svg>
