<svg xmlns="http://www.w3.org/2000/svg" width="48" height="32" viewBox="0 0 48 32">
  <defs>
    <style>
      .cls-1 {
        fill: #db5f39;
        fill-rule: evenodd;
      }
    </style>
  </defs>
  <path id="Forma_1" data-name="Forma 1" class="cls-1" d="M241.2,1108.8h-0.8a0.8,0.8,0,0,1,0-1.6h0.8A0.8,0.8,0,1,1,241.2,1108.8Zm-0.118-6.83-0.758.26a1.1,1.1,0,0,1-.252.04,0.8,0.8,0,0,1-.253-1.56l0.759-.25A0.8,0.8,0,1,1,241.082,1101.97Zm-1.991-7.24a0.786,0.786,0,0,1-1.131,0,0.8,0.8,0,0,1,0-1.13l0.565-.57a0.8,0.8,0,1,1,1.132,1.14Zm-2.263,2.26a0.786,0.786,0,0,1-1.131,0,0.8,0.8,0,0,1,0-1.13l0.565-.56a0.787,0.787,0,0,1,1.132,0,0.8,0.8,0,0,1,0,1.13Zm-2.262,2.27a0.811,0.811,0,0,1-1.132,0,0.8,0.8,0,0,1,0-1.13l0.566-.57a0.8,0.8,0,0,1,1.131,1.13ZM227.6,1124a3.206,3.206,0,0,1-3.2-3.2v-1.01l-9.314-2.94a2.7,2.7,0,0,1-.085,1.27,2.729,2.729,0,0,1-3.426,1.75h0l-9.132-2.96a2.724,2.724,0,0,1-1.749-3.43,2.6,2.6,0,0,1,.578-0.98l-1.707-.54a2.793,2.793,0,0,1-5.564-.36v-7.2a2.793,2.793,0,0,1,5.564-.36l24.836-7.83v-1.01a3.2,3.2,0,0,1,6.4,0v25.6A3.206,3.206,0,0,1,227.6,1124ZM198,1111.47v-7.07a1.2,1.2,0,1,0-2.4,0v7.2a1.2,1.2,0,1,0,2.4,0v-0.13Zm4.935,3.92,9.132,2.96a1.124,1.124,0,0,0,.691-2.14l-9.133-2.95A1.119,1.119,0,1,0,202.935,1115.39Zm21.465-17.5-24.8,7.82v4.58l24.8,7.82v-20.22Zm4.8-2.69a1.6,1.6,0,1,0-3.2,0v25.6a1.6,1.6,0,0,0,3.2,0v-25.6Zm5.366,21.54,0.565,0.57a0.8,0.8,0,0,1,0,1.13,0.81,0.81,0,0,1-1.131,0l-0.566-.57A0.8,0.8,0,1,1,234.566,1116.74Zm-0.312-4.99,0.758,0.25a0.808,0.808,0,0,1,.5,1.02,0.8,0.8,0,0,1-.759.54,0.738,0.738,0,0,1-.252-0.04l-0.759-.25A0.8,0.8,0,0,1,234.254,1111.75Zm0.757-7.75-0.758.25a0.743,0.743,0,0,1-.253.04,0.8,0.8,0,0,1-.253-1.56l0.759-.25A0.8,0.8,0,0,1,235.011,1104Zm-0.211,4.8H234a0.8,0.8,0,0,1,0-1.6h0.8A0.8,0.8,0,1,1,234.8,1108.8Zm2.028,10.21,0.566,0.56a0.8,0.8,0,0,1,0,1.13,0.787,0.787,0,0,1-1.132,0l-0.565-.56a0.8,0.8,0,0,1,0-1.13A0.786,0.786,0,0,1,236.828,1119.01ZM238,1108.8h-0.8a0.8,0.8,0,0,1,0-1.6H238A0.8,0.8,0,1,1,238,1108.8Zm-0.711,3.96,0.758,0.25a0.808,0.808,0,0,1,.506,1.02,0.8,0.8,0,0,1-.759.54,0.738,0.738,0,0,1-.252-0.04l-0.759-.25A0.8,0.8,0,0,1,237.289,1112.76Zm-0.507-11.04,0.759-.25a0.8,0.8,0,0,1,1.012.5,0.808,0.808,0,0,1-.506,1.02l-0.758.25a0.743,0.743,0,0,1-.253.04A0.8,0.8,0,0,1,236.782,1101.72Zm2.309,19.55,0.566,0.56a0.809,0.809,0,0,1,0,1.14,0.811,0.811,0,0,1-1.132,0l-0.565-.57A0.8,0.8,0,0,1,239.091,1121.27Zm0.222-6.99a0.81,0.81,0,0,1,1.012-.51l0.758,0.26a0.8,0.8,0,0,1,.507,1.01,0.811,0.811,0,0,1-.76.55,0.758,0.758,0,0,1-.252-0.05l-0.758-.25A0.8,0.8,0,0,1,239.313,1114.28Z" transform="translate(-194 -1092)"/>
</svg>
