<svg xmlns="http://www.w3.org/2000/svg" width="48" height="33" viewBox="0 0 48 33">
  <defs>
    <style>
      .cls-1 {
        fill: #db5e37;
        fill-rule: evenodd;
      }
    </style>
  </defs>
  <path id="Forma_1" data-name="Forma 1" class="cls-1" d="M133.252,237h-8.075a0.724,0.724,0,1,1,0-1.448h0.9V204.724a0.735,0.735,0,0,1,.747-0.724h4.785a0.736,0.736,0,0,1,.748.724v30.828h0.9A0.724,0.724,0,1,1,133.252,237Zm-5.682-1.448h3.29V226.2h-3.29v9.354Zm0-10.319h3.29V216.7l-3.29,3.185v5.35Zm0-6.715,3.29-3.185V213.8l-3.29,3.185v1.533Zm3.29-13.07h-3.29v0.965h3.29v-0.965Zm0,1.93h-3.29v8.242l3.29-3.185v-5.057Zm-7.14,18.338H96.28a0.737,0.737,0,0,1-.748-0.724v-17.1a0.736,0.736,0,0,1,.748-0.724h27.44a0.735,0.735,0,0,1,.747.724v17.1A0.736,0.736,0,0,1,123.72,225.716Zm-0.748-17.1H97.028v15.651h25.944V208.617Zm-24.7.724h23.452a0.49,0.49,0,0,1,.5.482v13.238a0.491,0.491,0,0,1-.5.483H98.274a0.491,0.491,0,0,1-.5-0.483V209.823A0.491,0.491,0,0,1,98.274,209.341Zm0.5,13.238h22.455V210.306H98.772v12.273ZM94.822,237H86.748a0.724,0.724,0,1,1,0-1.448h0.9V204.724A0.736,0.736,0,0,1,88.393,204h4.785a0.736,0.736,0,0,1,.748.724v30.828h0.9A0.724,0.724,0,1,1,94.822,237ZM92.43,205.448H89.14v0.965h3.29v-0.965Zm0,1.93H89.14v8.242l3.29-3.185v-5.057Zm0,6.422-3.29,3.185v1.533l3.29-3.185V213.8Zm0,2.9-3.29,3.184v5.35h3.29V216.7Zm0,9.5H89.14v9.354h3.29V226.2Zm10.019,0.957h15.1a0.736,0.736,0,0,1,.748.724v8.4a0.736,0.736,0,0,1-.748.724h-15.1a0.736,0.736,0,0,1-.748-0.724v-8.4A0.736,0.736,0,0,1,102.449,227.155Zm0.747,8.4H116.8V228.6H103.2v6.949Zm10.283-1.576a1.9,1.9,0,1,1,1.961-1.9A1.932,1.932,0,0,1,113.479,233.976Zm0-2.832a0.934,0.934,0,1,0,.965.934A0.95,0.95,0,0,0,113.479,231.144Zm-6.029,3.732a2.8,2.8,0,1,1,2.891-2.8A2.849,2.849,0,0,1,107.45,234.876Zm0-4.632a1.834,1.834,0,1,0,1.894,1.834A1.867,1.867,0,0,0,107.45,230.244Zm0,2.557a0.768,0.768,0,0,1-.528-0.211,0.706,0.706,0,0,1,0-1.024,0.762,0.762,0,0,1,1.057,0,0.708,0.708,0,0,1,0,1.024A0.77,0.77,0,0,1,107.45,232.8Z" transform="translate(-86 -204)"/>
</svg>
