<svg xmlns="http://www.w3.org/2000/svg" width="48" height="41" viewBox="0 0 48 41">
  <defs>
    <style>
      .cls-1 {
        fill: #db5e37;
        fill-rule: evenodd;
      }
    </style>
  </defs>
  <path id="Forma_1" data-name="Forma 1" class="cls-1" d="M138.518,1037H126.956a0.487,0.487,0,0,1-.482-0.49V998.764A2.75,2.75,0,0,1,129.2,996h7.068A2.75,2.75,0,0,1,139,998.764v37.746A0.487,0.487,0,0,1,138.518,1037Zm-11.08-.98h10.6V998.764a1.778,1.778,0,0,0-1.765-1.788H129.2a1.778,1.778,0,0,0-1.765,1.788v37.256Zm-4.224.98h-16.46a0.487,0.487,0,0,1-.482-0.49v-4.36a0.487,0.487,0,0,1,.482-0.49h16.46a0.487,0.487,0,0,1,.482.49v4.36A0.487,0.487,0,0,1,123.214,1037Zm-15.978-.98h15.5v-3.38h-15.5v3.38Zm-4.192.98H91.482a0.486,0.486,0,0,1-.482-0.49V998.764A2.75,2.75,0,0,1,93.728,996H100.8a2.75,2.75,0,0,1,2.729,2.764v37.746A0.487,0.487,0,0,1,103.044,1037Zm-11.08-.98h10.6V998.764a1.778,1.778,0,0,0-1.765-1.788H93.728a1.779,1.779,0,0,0-1.765,1.788v37.256Zm28.394-.39a1.3,1.3,0,1,1,1.278-1.3A1.289,1.289,0,0,1,120.357,1035.63Zm0-1.62a0.322,0.322,0,0,0-.315.32,0.315,0.315,0,1,0,.63,0A0.323,0.323,0,0,0,120.357,1034.01Zm-5.556.81H109a0.49,0.49,0,0,1,0-.98h5.8A0.49,0.49,0,0,1,114.8,1034.82Zm19.853-.25H130.82a0.49,0.49,0,0,1,0-.98h3.834A0.49,0.49,0,0,1,134.654,1034.57Zm-35.474,0H95.346a0.49,0.49,0,0,1,0-.98H99.18A0.49,0.49,0,0,1,99.18,1034.57Zm33.557-17.92a4.025,4.025,0,1,1,3.975-4.03A4.009,4.009,0,0,1,132.737,1016.65Zm0-7.08a3.05,3.05,0,1,0,3.011,3.05A3.035,3.035,0,0,0,132.737,1009.57Zm-35.474,7.08a4.025,4.025,0,1,1,3.974-4.03A4.009,4.009,0,0,1,97.263,1016.65Zm0-7.08a3.05,3.05,0,1,0,3.011,3.05A3.035,3.035,0,0,0,97.263,1009.57Zm35.474,4.8a1.75,1.75,0,1,1,1.726-1.75A1.737,1.737,0,0,1,132.737,1014.37Zm0-2.52a0.775,0.775,0,1,0,.763.77A0.77,0.77,0,0,0,132.737,1011.85Zm-35.474,2.52a1.75,1.75,0,1,1,1.726-1.75A1.737,1.737,0,0,1,97.263,1014.37Zm0-2.52a0.775,0.775,0,1,0,.763.77A0.77,0.77,0,0,0,97.263,1011.85Zm35.474-5.11a4.029,4.029,0,1,1,3.975-4.03A4.009,4.009,0,0,1,132.737,1006.74Zm0-7.081a3.051,3.051,0,1,0,3.011,3.051A3.036,3.036,0,0,0,132.737,999.659Zm-35.474,7.081a4.029,4.029,0,1,1,3.974-4.03A4.009,4.009,0,0,1,97.263,1006.74Zm0-7.081a3.051,3.051,0,1,0,3.011,3.051A3.036,3.036,0,0,0,97.263,999.659Zm35.474,4.8a1.75,1.75,0,1,1,1.726-1.75A1.743,1.743,0,0,1,132.737,1004.46Zm0-2.52a0.77,0.77,0,1,0,.763.77A0.764,0.764,0,0,0,132.737,1001.94Zm-35.474,2.52a1.75,1.75,0,1,1,1.726-1.75A1.743,1.743,0,0,1,97.263,1004.46Zm0-2.52a0.77,0.77,0,1,0,.763.77A0.764,0.764,0,0,0,97.263,1001.94Z" transform="translate(-91 -996)"/>
</svg>
