<svg xmlns="http://www.w3.org/2000/svg" width="48" height="43" viewBox="0 0 48 43">
  <defs>
    <style>
      .cls-1 {
        fill: #db5e37;
        fill-rule: evenodd;
      }
    </style>
  </defs>
  <path id="Forma_1" data-name="Forma 1" class="cls-1" d="M138.991,1106.33c-0.079-1.36-1.707-2.42-4.963-3.24a1.759,1.759,0,0,0,.172-0.74v-5.57h-0.014c-0.286-4.64-19.392-4.78-21.586-4.78s-21.3.14-21.586,4.78H91v0.1h0v5.47c0,1.51,1.966,2.7,4.884,3.58a1.754,1.754,0,0,0-.072.4H95.8v0.11h0v5.46c-3.144.8-4.715,1.85-4.792,3.19H91v0.11h0v5.47c0,1.05.957,1.94,2.518,2.69a1.688,1.688,0,0,0-.106.49H93.4v0.11h0v5.47c0.006,2.64,6,4.29,12.654,5.06a0.714,0.714,0,0,0,.146.03c0.015,0,.028-0.01.043-0.01,1.283,0.14,2.587.25,3.878,0.33a0.225,0.225,0,0,0,.079.02c0.015,0,.027-0.01.042-0.01,1.638,0.1,3.25.15,4.758,0.15s3.12-.05,4.758-0.15c0.015,0,.028.01,0.042,0.01a0.225,0.225,0,0,0,.079-0.02c1.291-.08,2.595-0.19,3.878-0.33H123.8a0.714,0.714,0,0,0,.146-0.03c6.656-.76,12.647-2.41,12.654-5.06v-5.57h-0.013c-0.056-.97-0.892-1.79-2.543-2.47a1.777,1.777,0,0,0,.156-0.72v-5.2c2.872-.88,4.8-2.06,4.8-3.56v-5.57h-0.009Zm-6.477,14.59-0.273.24a7.173,7.173,0,0,1-2.041,1.1v-3.8a11.989,11.989,0,0,0,2.4-1.09v3.29A0.506,0.506,0,0,1,132.514,1120.92Zm-17.893,3.7c-0.117.01-.235,0.01-0.352,0.01-0.286.01-.579,0.01-0.868,0.01v-3.98c0.22,0,.44,0,0.66-0.01h0.127c0.806-.02,1.611-0.04,2.413-0.08v3.98c-0.171.01-.343,0.02-0.517,0.02C115.6,1124.59,115.116,1124.61,114.621,1124.62Zm-3.494.01c-0.366,0-.731-0.01-1.093-0.02-0.045,0-.09-0.01-0.135-0.01-0.436-.01-0.869-0.03-1.3-0.05v-3.98c0.8,0.04,1.607.07,2.413,0.08h0.126c0.22,0.01.44,0.01,0.66,0.01v3.98h-0.465C111.265,1124.64,111.2,1124.63,111.127,1124.63Zm-14.449-1.81a0.223,0.223,0,0,0-.078-0.02v-3.85c0.747,0.2,1.55.38,2.4,0.55v3.89c-0.734-.16-1.412-0.32-2.029-0.49C96.874,1122.87,96.773,1122.85,96.678,1122.82Zm16.863,6.59c0.22,0.01.44,0.01,0.66,0.01v3.98q-1.659-.015-3.2-0.09v-3.98c0.8,0.04,1.607.07,2.413,0.08h0.127Zm3.047,0c0.806-.02,1.611-0.04,2.413-0.08v3.98q-1.541.075-3.2,0.09v-3.98c0.22,0,.44,0,0.66-0.01h0.127Zm6.413-.36V1133c-0.769.08-1.569,0.16-2.4,0.21v-3.97C121.411,1129.19,122.213,1129.13,123,1129.05Zm1.6-.17c0.825-.1,1.626-0.21,2.4-0.34v3.91c-0.754.13-1.554,0.26-2.4,0.37v-3.94Zm4-.62c0.85-.17,1.653-0.35,2.4-0.55v3.84c-0.713.21-1.515,0.41-2.4,0.59v-3.88Zm-27.2,0v3.88c-0.885-.18-1.687-0.38-2.4-0.59v-3.84C99.747,1127.91,100.55,1128.09,101.4,1128.26Zm1.6,0.28c0.774,0.13,1.575.24,2.4,0.34v3.94c-0.846-.11-1.646-0.24-2.4-0.37v-3.91Zm4,0.51c0.787,0.08,1.589.14,2.4,0.19v3.97c-0.831-.05-1.631-0.12-2.4-0.2v-3.96Zm-1.985-4.76-0.243-.03c-0.058,0-.114-0.01-0.172-0.01v-3.96c0.787,0.08,1.589.14,2.4,0.19v3.97C106.328,1124.41,105.664,1124.35,105.015,1124.29ZM103,1120.12v3.94c-0.846-.11-1.646-0.24-2.4-0.37v-3.91C101.374,1119.91,102.175,1120.02,103,1120.12Zm15.733,4.3c-0.176.01-.354,0.02-0.533,0.04v-3.98c0.811-.05,1.613-0.11,2.4-0.19v3.96c-0.494.05-1,.1-1.519,0.14Zm3.467-.36v-3.94c0.825-.1,1.625-0.21,2.4-0.34v3.91C123.846,1123.82,123.046,1123.95,122.2,1124.06Zm4-4.56c0.85-.17,1.653-0.35,2.4-0.55v3.85c-0.713.2-1.515,0.4-2.4,0.58v-3.88Zm-10.94-3.64c-0.6-.01-1.19-0.04-1.767-0.07H113.4v-3.98c0.8,0.04,1.607.07,2.413,0.08h0.126c0.22,0.01.44,0.01,0.66,0.01v3.98c-0.389,0-.782-0.01-1.162-0.02H115.26ZM96.6,1104.48v-3.85c0.747,0.2,1.55.39,2.4,0.55v3.89l-0.3-.06c-0.426-.09-0.841-0.19-1.238-0.29C97.164,1104.64,96.877,1104.56,96.6,1104.48Zm14.54-2.14c0.22,0,.44.01,0.66,0.01v3.97c-1.077-.01-2.147-0.03-3.2-0.09v-3.97c0.8,0.04,1.607.06,2.413,0.08h0.127Zm3.047,0c0.806-.02,1.611-0.04,2.413-0.08v3.97c-0.136.01-.266,0.02-0.4,0.02a0.048,0.048,0,0,1-.035.01c-0.536.02-1.084,0.04-1.638,0.05a2.243,2.243,0,0,0-.259.01c-0.285,0-.576,0-0.865.01v-3.98c0.22,0,.44-0.01.66-0.01h0.127Zm18.23,0.4-0.023-.01-0.291.23a8.069,8.069,0,0,1-1.9.97v-3.78a11.973,11.973,0,0,0,2.4-1.1v3.3A0.634,0.634,0,0,1,132.417,1102.74Zm-10.217,3v-3.94c0.825-.09,1.625-0.21,2.4-0.33v3.9C123.842,1105.5,123.043,1105.63,122.2,1105.74Zm4-.68v-3.88c0.85-.16,1.653-0.35,2.4-0.55v3.84C127.883,1104.68,127.076,1104.88,126.2,1105.06Zm-5.6-3.08v3.95q-1.159.12-2.4,0.21v-3.97C119.011,1102.12,119.813,1102.05,120.6,1101.98Zm-16,3.95v-3.95c0.787,0.07,1.589.14,2.4,0.19v3.96C106.186,1106.08,105.382,1106.01,104.6,1105.93Zm-1.6-4.13v3.94l-0.48-.06c-0.1-.01-0.2-0.03-0.3-0.04-0.462-.07-0.914-0.14-1.357-0.22-0.089-.01-0.175-0.03-0.262-0.04v-3.91C101.374,1101.59,102.175,1101.71,103,1101.8Zm8.6,13.88c-0.108-.01-0.217-0.02-0.324-0.02-0.513-.04-1.012-0.09-1.5-0.14l-0.314-.03H109.4v-3.96c0.787,0.08,1.589.14,2.4,0.19v3.97A1.307,1.307,0,0,1,111.6,1115.68Zm-5.286-.59c-0.317-.05-0.614-0.11-0.916-0.16v-3.91c0.774,0.13,1.575.24,2.4,0.34v3.94c-0.49-.07-0.969-0.13-1.429-0.2A0.108,0.108,0,0,0,106.316,1115.09Zm-2.516-4.35v3.88c-0.884-.19-1.686-0.39-2.4-0.6v-3.83C102.147,1110.39,102.95,1110.57,103.8,1110.74Zm-4-1.04v3.79a5.043,5.043,0,0,1-2.333-1.42l-0.053-.09a0.558,0.558,0,0,1-.014-0.08v-3.29A11.987,11.987,0,0,0,99.8,1109.7Zm19.187,2.19c0.806-.01,1.611-0.04,2.413-0.08v3.98c-1.051.05-2.12,0.08-3.2,0.09v-3.98c0.22,0,.44,0,0.66-0.01h0.127Zm10.339,3.06c-0.352.06-.706,0.12-1.07,0.17l-0.637.09c-0.2.03-.413,0.06-0.618,0.08v-3.93c0.825-.1,1.625-0.21,2.4-0.34v3.91C129.375,1114.94,129.35,1114.94,129.326,1114.95Zm-5.417.68-0.909.06v-3.97c0.811-.05,1.613-0.11,2.4-0.19v3.95c-0.465.05-.929,0.1-1.406,0.14A0.245,0.245,0,0,0,123.909,1115.63Zm9.142-1.5c-0.4.11-.82,0.22-1.25,0.32-0.2.05-.4,0.09-0.611,0.14l-0.189.03v-3.88c0.849-.17,1.653-0.35,2.4-0.55v3.85Zm4.34-7.75c-0.073.55-1.3,1.26-3.5,1.94h0a53.647,53.647,0,0,1-12.872,1.91c-0.287.02-.574,0.03-0.867,0.04-0.239.01-.479,0.01-0.723,0.02-0.662.01-1.334,0.02-2.027,0.02s-1.365-.01-2.027-0.02c-0.243-.01-0.483-0.01-0.723-0.02-0.294-.01-0.58-0.02-0.867-0.04a53.63,53.63,0,0,1-12.872-1.91h0c-2.18-.67-3.409-1.38-3.5-1.92a0.163,0.163,0,0,1,.014-0.05c0.054,0.01.115,0.03,0.17,0.04,0.313,0.07.634,0.14,0.96,0.21,1.59,0.34,3.351.62,5.228,0.84H103.8c1.278,0.14,2.605.26,3.966,0.34h0.045q1.47,0.09,2.978.12c0.615,0.02,1.219.03,1.807,0.03,0.42,0,.85-0.01,1.285-0.02a61.4,61.4,0,0,0,14.949-1.84l0.508-.15,0.3-.09c0.289-.09.567-0.19,0.835-0.29,0.046-.02.09-0.03,0.137-0.05,0.226-.09.444-0.17,0.652-0.26a1.482,1.482,0,0,1,.18-0.08c0.221-.1.436-0.2,0.634-0.31,0.09-.05.167-0.09,0.251-0.14s0.192-.11.281-0.17c0.05-.03.11-0.06,0.158-0.09C136.356,1105.21,137.3,1106.06,137.391,1106.38ZM112.6,1093.59c13.191,0,19.863,2.07,19.988,3.26-0.1.53-1.325,1.25-3.5,1.91h0a54.059,54.059,0,0,1-12.872,1.92l-0.867.03c-0.239.01-.479,0.02-0.723,0.02-0.662.02-1.334,0.03-2.027,0.03s-1.365-.01-2.027-0.03c-0.243,0-.483-0.01-0.723-0.02l-0.867-.03a54.045,54.045,0,0,1-12.872-1.92h0c-2.175-.66-3.4-1.38-3.5-1.91C92.737,1095.66,99.409,1093.59,112.6,1093.59Zm-20,8.76v-3.3a11.975,11.975,0,0,0,2.4,1.1v3.81C93.444,1103.38,92.6,1102.8,92.6,1102.35Zm3.875,11.02a0.156,0.156,0,0,1,.042.04c1.1,1.1,3.363,1.96,6.186,2.61a1.4,1.4,0,0,1,.2.04c0.207,0.05.418,0.09,0.631,0.14a63.788,63.788,0,0,0,9.06,1.14H112.6c1.084,0.06,2.192.11,3.323,0.12,0.5,0.01.993,0.02,1.475,0.02,0.552,0,1.118-.01,1.694-0.02q1.571-.03,3.095-0.12h0.031a61.984,61.984,0,0,0,9.235-1.18,14.337,14.337,0,0,1-2.366.92h0a55.191,55.191,0,0,1-13.825,1.95c-0.18.01-.358,0.01-0.54,0.02s-0.4,0-.594.01c-0.5.01-1.01,0.01-1.53,0.01-0.693,0-1.365-.01-2.027-0.02-0.243-.01-0.483-0.02-0.723-0.02-0.294-.01-0.58-0.02-0.867-0.04a53.624,53.624,0,0,1-12.872-1.91h0c-2.2-.68-3.431-1.4-3.5-1.94C92.7,1114.84,93.506,1114.09,96.475,1113.37Zm-3.875,7.29v-3.29a11.991,11.991,0,0,0,2.4,1.09v3.8l-0.457-.18-0.01.01C93.278,1121.57,92.6,1121.06,92.6,1120.66Zm2.4,8.76v-3.3a11.444,11.444,0,0,0,2.4,1.1v3.81C95.844,1130.45,95,1129.87,95,1129.42Zm37.6,1.61v-3.81a11.989,11.989,0,0,0,2.4-1.09v3.29C135,1129.87,134.156,1130.45,132.6,1131.03Zm2.39-7.12c-0.088.54-1.316,1.26-3.5,1.93h0a53.638,53.638,0,0,1-12.872,1.91c-0.287.02-.574,0.03-0.867,0.04-0.239,0-.479.01-0.723,0.02-0.662.01-1.334,0.02-2.027,0.02s-1.366-.01-2.029-0.02c-0.241-.01-0.478-0.02-0.716-0.02-0.3-.01-0.583-0.03-0.872-0.04a53.636,53.636,0,0,1-12.872-1.91h0c-2.116-.65-3.338-1.34-3.492-1.88,0.239,0.09.486,0.17,0.739,0.25a0.219,0.219,0,0,1,.077.02c0.216,0.06.437,0.13,0.663,0.19,0.086,0.02.172,0.05,0.259,0.07,0.128,0.04.259,0.07,0.39,0.1a59.172,59.172,0,0,0,10.648,1.51H107.8c1.24,0.07,2.507.12,3.787,0.13,0.341,0.01.679,0.01,1.011,0.01,0.441,0,.892-0.01,1.349-0.01,1.167-.02,2.319-0.07,3.445-0.13h0.017c1.372-.08,2.7-0.2,3.976-0.35H121.4a0.087,0.087,0,0,0,.049-0.01c1.421-.16,2.768-0.36,4.019-0.59l0.762-.15,0.168-.03a21.612,21.612,0,0,0,5.81-1.89c0.077-.04.149-0.08,0.222-0.12,0.089-.05.174-0.11,0.256-0.16s0.166-.1.236-0.15C134.5,1123.21,134.938,1123.71,134.99,1123.91Zm0.01-10.4v-3.81a11.989,11.989,0,0,0,2.4-1.09v3.29C137.4,1112.35,136.556,1112.93,135,1113.51Z" transform="translate(-91 -1092)"/>
</svg>
