<svg xmlns="http://www.w3.org/2000/svg" width="30" height="48" viewBox="0 0 30 48">
  <defs>
    <style>
      .cls-1 {
        fill: #db5e37;
        fill-rule: evenodd;
      }
    </style>
  </defs>
  <path id="Forma_1" data-name="Forma 1" class="cls-1" d="M115,1240a15.1,15.1,0,0,1-15-15.16v-17.68a15,15,0,1,1,30,0v17.68A15.1,15.1,0,0,1,115,1240Zm13.333-32.84a13.334,13.334,0,1,0-26.666,0v17.68a13.334,13.334,0,1,0,26.666,0v-17.68Zm-5.536,15.98-8.63,9.81,0.03-15.45-6.975,6.3-1.11-1.26,7.685-6.94-7.629-6.96,1.118-1.25,6.91,6.3-0.029-14.46,8.643,8.73-6.883,7.86Zm-2.262.04-4.682-4.99-0.02,10.33Zm-0.013-15.14-4.689-4.74,0.02,10.07Z" transform="translate(-100 -1192)"/>
</svg>
