<svg xmlns="http://www.w3.org/2000/svg" width="40" height="40" viewBox="0 0 40 40">
  <defs>
    <style>
      .cls-1 {
        fill: #db5e37;
        fill-rule: evenodd;
      }
    </style>
  </defs>
  <path id="Forma_1" data-name="Forma 1" class="cls-1" d="M125.91,607a0.652,0.652,0,0,1-.466-0.2,0.683,0.683,0,0,1,0-.951l0.292-.3H95.67l0.291,0.3a0.684,0.684,0,0,1,0,.952,0.648,0.648,0,0,1-.931,0l-1.4-1.43a0.679,0.679,0,0,1-.193-0.484v-0.009a0.676,0.676,0,0,1,.288-0.556l1.336-1.366a0.648,0.648,0,0,1,.931,0,0.684,0.684,0,0,1,0,.952l-0.291.3h30.066l-0.292-.3a0.684,0.684,0,0,1,0-.952,0.648,0.648,0,0,1,.931,0l1.4,1.43a0.678,0.678,0,0,1,.193.484v0.009a0.675,0.675,0,0,1-.288.556l-1.337,1.366A0.649,0.649,0,0,1,125.91,607Zm-35.837-4.676a0.653,0.653,0,0,1-.545-0.295l-1.336-1.366a0.683,0.683,0,0,1,0-.951,0.648,0.648,0,0,1,.931,0l0.291,0.3V569.281l-0.291.3a0.648,0.648,0,0,1-.931,0,0.683,0.683,0,0,1,0-.951l1.4-1.43a0.642,0.642,0,0,1,.474-0.2,0.671,0.671,0,0,1,.553.295l1.336,1.366a0.682,0.682,0,0,1,0,.951,0.648,0.648,0,0,1-.931,0l-0.291-.3v30.729l0.291-.3a0.648,0.648,0,0,1,.931,0,0.682,0.682,0,0,1,0,.951l-1.4,1.43a0.646,0.646,0,0,1-.474.2H90.073Zm37.269-1.9H95.529a0.665,0.665,0,0,1-.658-0.672V567.673A0.665,0.665,0,0,1,95.529,567h19.01a0.666,0.666,0,0,1,.659.672v13.059h12.143a0.666,0.666,0,0,1,.659.673v18.341A0.666,0.666,0,0,1,127.342,600.419Zm-12.173-1.345h11.514v-17H115.169v17h0Zm-12.611,0h11.295v-9.013H102.558v9.013Zm-6.371,0h5.054v-9.013H96.187v9.013Zm5.713-10.358h11.953v-7.311a0.7,0.7,0,0,1,.028-0.2v-7.026H96.187v14.533H101.9Zm3.778-15.878h8.2v-4.492h-8.2v4.492Zm-9.491,0h8.175v-4.492H96.187v4.492Z" transform="translate(-88 -567)"/>
</svg>
