<svg xmlns="http://www.w3.org/2000/svg" width="76" height="36" viewBox="0 0 76 36">
  <defs>
    <style>
      .cls-1 {
        fill: #db5e37;
        fill-rule: evenodd;
      }
    </style>
  </defs>
  <path id="Forma_1" data-name="Forma 1" class="cls-1" d="M254.965,869h-73.93A1.032,1.032,0,0,0,180,870.029V903.97a1.032,1.032,0,0,0,1.035,1.03h73.93A1.032,1.032,0,0,0,256,903.97V870.029A1.032,1.032,0,0,0,254.965,869Zm-54.026,8.485a1.032,1.032,0,0,0-1.035,1.03v24.426H182.07V871.059H199.9v1.8a1.035,1.035,0,0,0,2.07,0v-1.8H253.93v31.882H201.974V878.515A1.032,1.032,0,0,0,200.939,877.485Zm14.218,21.692A12.177,12.177,0,1,0,202.914,887,12.223,12.223,0,0,0,215.157,899.177Zm0-22.3A10.118,10.118,0,1,1,204.985,887,10.156,10.156,0,0,1,215.157,876.882Zm0,14.863A4.745,4.745,0,1,0,210.386,887,4.763,4.763,0,0,0,215.157,891.745Zm0-7.431a2.686,2.686,0,1,1-2.7,2.686A2.7,2.7,0,0,1,215.157,884.314Zm-2.271,2.961a2.543,2.543,0,0,1,2.547-2.534,1.03,1.03,0,1,1,0,2.06,0.476,0.476,0,0,0-.477.474A1.035,1.035,0,0,1,212.886,887.275ZM207.623,887a1.035,1.035,0,0,1,2.07,0,5.445,5.445,0,1,0,.979-3.105,1.039,1.039,0,0,1-1.441.255,1.027,1.027,0,0,1-.257-1.434A7.488,7.488,0,1,1,207.623,887Zm33.291,12.177A12.177,12.177,0,1,0,228.672,887,12.223,12.223,0,0,0,240.914,899.177Zm0-22.3A10.118,10.118,0,1,1,230.743,887,10.157,10.157,0,0,1,240.914,876.882Zm0,14.863a4.745,4.745,0,1,0-4.77-4.745A4.763,4.763,0,0,0,240.914,891.745Zm0-7.431a2.686,2.686,0,1,1-2.7,2.686A2.7,2.7,0,0,1,240.914,884.314Zm-2.259,2.961a2.531,2.531,0,0,1,2.536-2.522,1.03,1.03,0,1,1,0,2.059,0.465,0.465,0,0,0-.466.463A1.035,1.035,0,0,1,238.655,887.275ZM233.381,887a1.035,1.035,0,0,1,2.07,0,5.445,5.445,0,1,0,.979-3.105,1.039,1.039,0,0,1-1.441.255,1.027,1.027,0,0,1-.257-1.434A7.488,7.488,0,1,1,233.381,887Zm-38.128-8.1H185.3a1.032,1.032,0,0,0-1.035,1.03v12.684a1.032,1.032,0,0,0,1.035,1.03h9.952a1.032,1.032,0,0,0,1.035-1.03V879.929A1.031,1.031,0,0,0,195.253,878.9Zm-8.918,12.685V880.958h7.882v10.626h-7.882Zm7.255-8.67a1.032,1.032,0,0,1-1.035,1.029h-4.688a1.03,1.03,0,1,1,0-2.059h4.688A1.033,1.033,0,0,1,193.59,882.914Zm-1.035,1.942h-4.688a1.032,1.032,0,0,0-1.035,1.029v3.866a1.032,1.032,0,0,0,1.035,1.029h4.688a1.032,1.032,0,0,0,1.035-1.029v-3.866A1.033,1.033,0,0,0,192.555,884.856Zm-3.653,3.865v-1.806h2.618v1.806H188.9Z" transform="translate(-180 -869)"/>
</svg>
