<svg xmlns="http://www.w3.org/2000/svg" width="48" height="43" viewBox="0 0 48 43">
  <defs>
    <style>
      .cls-1 {
        fill: #db613a;
        fill-rule: evenodd;
      }
    </style>
  </defs>
  <path id="Forma_1" data-name="Forma 1" class="cls-1" d="M233.239,1227H223.6a0.765,0.765,0,0,1,0-1.53h2.385v-16.56a2.092,2.092,0,0,1-1.776-2.07v-20.73a2.1,2.1,0,0,1,2.1-2.11h4.223a2.1,2.1,0,0,1,2.1,2.11v20.73a2.092,2.092,0,0,1-1.776,2.07v16.56h2.385A0.765,0.765,0,0,1,233.239,1227Zm-5.734-1.53h1.827v-16.53h-1.827v16.53Zm3.6-18.63v-20.73a0.579,0.579,0,0,0-.578-0.58h-4.223a0.579,0.579,0,0,0-.578.58v20.73a0.577,0.577,0,0,0,.578.57h4.223A0.577,0.577,0,0,0,231.108,1206.84Zm-2.69-.1a2.235,2.235,0,1,1,2.233-2.23A2.233,2.233,0,0,1,228.418,1206.74Zm0-3.46a1.225,1.225,0,1,0,1.218,1.23A1.224,1.224,0,0,0,228.418,1203.28Zm0,1.73a0.521,0.521,0,0,1-.359-0.14,0.528,0.528,0,0,1-.149-0.36,0.51,0.51,0,0,1,.508-0.51,0.488,0.488,0,0,1,.358.15,0.5,0.5,0,0,1,.149.36,0.533,0.533,0,0,1-.149.36A0.521,0.521,0,0,1,228.419,1205.01Zm0-3.61a2.24,2.24,0,1,1,2.233-2.24A2.235,2.235,0,0,1,228.418,1201.4Zm0-3.46a1.22,1.22,0,1,0,1.218,1.22A1.222,1.222,0,0,0,228.418,1197.94Zm0,1.73a0.51,0.51,0,0,1-.508-0.51,0.508,0.508,0,1,1,1.015,0,0.5,0.5,0,0,1-.149.36A0.488,0.488,0,0,1,228.419,1199.67Zm0-3.61a2.24,2.24,0,1,1,2.233-2.24A2.242,2.242,0,0,1,228.418,1196.06Zm0-3.46a1.22,1.22,0,1,0,1.218,1.22A1.222,1.222,0,0,0,228.418,1192.6Zm0,1.73a0.51,0.51,0,0,1-.508-0.51,0.51,0.51,0,0,1,.149-0.36,0.5,0.5,0,0,1,.717,0,0.514,0.514,0,0,1,.149.36A0.51,0.51,0,0,1,228.419,1194.33Zm0-3.61a2.24,2.24,0,1,1,2.233-2.24A2.242,2.242,0,0,1,228.418,1190.72Zm0-3.47a1.225,1.225,0,1,0,1.218,1.23A1.224,1.224,0,0,0,228.418,1187.25Zm0,1.74a0.51,0.51,0,0,1-.508-0.51,0.51,0.51,0,0,1,.508-0.51,0.488,0.488,0,0,1,.358.15,0.5,0.5,0,0,1,.149.36A0.51,0.51,0,0,1,228.419,1188.99ZM220.291,1227H199.708a2.116,2.116,0,0,1-2.11-2.12v-4.21a2.116,2.116,0,0,1,2.11-2.12h2.154v-12.81a1.989,1.989,0,0,1,1.987-1.99h12.3a1.99,1.99,0,0,1,1.988,1.99v12.81h2.153a2.117,2.117,0,0,1,2.111,2.12v4.21A2.117,2.117,0,0,1,220.291,1227Zm-3.675-21.26a0.466,0.466,0,0,0-.466-0.46h-12.3a0.466,0.466,0,0,0-.465.46v12.81h13.232v-12.81Zm4.264,14.93a0.587,0.587,0,0,0-.589-0.59H199.708a0.587,0.587,0,0,0-.588.59v4.21a0.587,0.587,0,0,0,.588.59h20.583a0.587,0.587,0,0,0,.589-0.59v-4.21Zm-2.891,4.34a2.235,2.235,0,1,1,2.233-2.24A2.236,2.236,0,0,1,217.989,1225.01Zm0-3.46a1.225,1.225,0,1,0,1.218,1.22A1.222,1.222,0,0,0,217.989,1221.55Zm0,1.73a0.525,0.525,0,0,1-.359-0.14,0.538,0.538,0,0,1-.149-0.37,0.508,0.508,0,0,1,1.015,0,0.537,0.537,0,0,1-.148.37A0.523,0.523,0,0,1,217.989,1223.28Zm-4.285,1.28H206.3a0.51,0.51,0,0,1-.507-0.51v-2.55a0.51,0.51,0,0,1,.507-0.51H213.7a0.51,0.51,0,0,1,.507.51v2.55A0.51,0.51,0,0,1,213.7,1224.56Zm-0.507-2.55H206.8v1.53H213.2v-1.53Zm-11.186,3a2.235,2.235,0,1,1,2.232-2.24A2.236,2.236,0,0,1,202.011,1225.01Zm0-3.46a1.225,1.225,0,1,0,1.217,1.22A1.222,1.222,0,0,0,202.011,1221.55Zm0,1.73a0.526,0.526,0,0,1-.36-0.14,0.537,0.537,0,0,1-.148-0.37,0.508,0.508,0,0,1,1.015,0,0.537,0.537,0,0,1-.148.37A0.523,0.523,0,0,1,202.011,1223.28Zm2.879-14.01-0.125-.13a1.75,1.75,0,0,1,2.471-2.48l0.125,0.13a5.684,5.684,0,0,1,5.279,0l0.124-.13a1.75,1.75,0,0,1,2.47,2.48l-0.125.13a5.754,5.754,0,0,1,0,5.29l0.125,0.13a1.748,1.748,0,0,1,0,2.47,1.725,1.725,0,0,1-2.469,0l-0.126-.12a5.761,5.761,0,0,1-5.278,0l-0.125.12a1.728,1.728,0,0,1-2.471,0,1.748,1.748,0,0,1,0-2.47l0.125-.13A5.762,5.762,0,0,1,204.89,1209.27Zm0.593-1.89a0.746,0.746,0,0,0-.032,1.01,5.741,5.741,0,0,1,1.032-1.04A0.739,0.739,0,0,0,205.483,1207.38Zm9.033,0a0.738,0.738,0,0,0-1-.03,5.736,5.736,0,0,1,1.031,1.04,0.756,0.756,0,0,0,.183-0.49A0.747,0.747,0,0,0,214.516,1207.38ZM214,1216.66a0.725,0.725,0,0,0,.517-0.22,0.733,0.733,0,0,0,.032-1,5.768,5.768,0,0,1-1.031,1.04A0.763,0.763,0,0,0,214,1216.66Zm-8.516-.22a0.729,0.729,0,0,0,1,.04,5.773,5.773,0,0,1-1.032-1.04,0.74,0.74,0,0,0-.182.49A0.706,0.706,0,0,0,205.483,1216.44Zm4.517,0.23a4.755,4.755,0,1,0-4.738-4.76A4.757,4.757,0,0,0,210,1216.67Zm0-8.83a4.075,4.075,0,1,1-4.065,4.07A4.069,4.069,0,0,1,210,1207.84Zm0,7.13a3.06,3.06,0,1,0-3.051-3.06A3.057,3.057,0,0,0,210,1214.97Zm0-4.94a1.885,1.885,0,1,1-1.876,1.88A1.884,1.884,0,0,1,210,1210.03Zm0,2.75a0.865,0.865,0,1,0-.862-0.87A0.866,0.866,0,0,0,210,1212.78ZM196.4,1227h-9.641a0.765,0.765,0,0,1,0-1.53h2.385v-16.56a2.092,2.092,0,0,1-1.776-2.07v-20.73a2.1,2.1,0,0,1,2.1-2.11h4.224a2.1,2.1,0,0,1,2.1,2.11v20.73a2.092,2.092,0,0,1-1.776,2.07v16.56H196.4A0.765,0.765,0,0,1,196.4,1227Zm-5.734-1.53H192.5v-16.53h-1.827v16.53Zm3.6-18.63v-20.73a0.579,0.579,0,0,0-.577-0.58h-4.224a0.579,0.579,0,0,0-.577.58v20.73a0.577,0.577,0,0,0,.577.57h4.224A0.577,0.577,0,0,0,194.27,1206.84Zm-2.689-.1a2.235,2.235,0,1,1,2.233-2.23A2.233,2.233,0,0,1,191.581,1206.74Zm0-3.46a1.225,1.225,0,1,0,1.218,1.23A1.224,1.224,0,0,0,191.581,1203.28Zm0,1.73a0.526,0.526,0,0,1-.36-0.14,0.532,0.532,0,0,1-.148-0.36,0.509,0.509,0,0,1,.508-0.51,0.491,0.491,0,0,1,.358.15,0.5,0.5,0,0,1,.149.36,0.533,0.533,0,0,1-.149.36A0.523,0.523,0,0,1,191.582,1205.01Zm0-3.61a2.24,2.24,0,1,1,2.233-2.24A2.235,2.235,0,0,1,191.581,1201.4Zm0-3.46a1.22,1.22,0,1,0,1.218,1.22A1.222,1.222,0,0,0,191.581,1197.94Zm0,1.73a0.509,0.509,0,0,1-.508-0.51,0.508,0.508,0,1,1,1.015,0,0.5,0.5,0,0,1-.149.36A0.49,0.49,0,0,1,191.582,1199.67Zm0-3.61a2.24,2.24,0,1,1,2.233-2.24A2.242,2.242,0,0,1,191.581,1196.06Zm0-3.46a1.22,1.22,0,1,0,1.218,1.22A1.222,1.222,0,0,0,191.581,1192.6Zm0,1.73a0.509,0.509,0,0,1-.508-0.51,0.514,0.514,0,0,1,.148-0.36,0.5,0.5,0,0,1,.718,0,0.514,0.514,0,0,1,.149.36A0.51,0.51,0,0,1,191.582,1194.33Zm0-3.61a2.24,2.24,0,1,1,2.233-2.24A2.242,2.242,0,0,1,191.581,1190.72Zm0-3.47a1.225,1.225,0,1,0,1.218,1.23A1.224,1.224,0,0,0,191.581,1187.25Zm0,1.74a0.509,0.509,0,0,1-.508-0.51,0.509,0.509,0,0,1,.508-0.51,0.491,0.491,0,0,1,.358.15,0.5,0.5,0,0,1,.149.36A0.51,0.51,0,0,1,191.582,1188.99Z" transform="translate(-186 -1184)"/>
</svg>
