<svg xmlns="http://www.w3.org/2000/svg" width="48" height="43" viewBox="0 0 48 43">
  <defs>
    <style>
      .cls-1 {
        fill: #db5e37;
        fill-rule: evenodd;
      }
    </style>
  </defs>
  <path id="Forma_1" data-name="Forma 1" class="cls-1" d="M138.239,917H128.6a0.764,0.764,0,0,1,0-1.527h2.385V898.914a2.106,2.106,0,0,1-1.776-2.079V876.106a2.106,2.106,0,0,1,2.1-2.106h4.223a2.106,2.106,0,0,1,2.1,2.106v20.729a2.106,2.106,0,0,1-1.776,2.079v16.559h2.385A0.764,0.764,0,0,1,138.239,917Zm-5.734-1.527h1.827V898.942h-1.827v16.531Zm3.6-18.638V876.106a0.579,0.579,0,0,0-.578-0.579h-4.223a0.579,0.579,0,0,0-.578.579v20.729a0.579,0.579,0,0,0,.578.58h4.223A0.58,0.58,0,0,0,136.108,896.835Zm-2.69-.09a2.24,2.24,0,1,1,2.233-2.24A2.238,2.238,0,0,1,133.418,896.745Zm0-3.461a1.222,1.222,0,1,0,1.218,1.221A1.221,1.221,0,0,0,133.418,893.284Zm0,1.73a0.509,0.509,0,1,1,.358-0.868,0.508,0.508,0,0,1,0,.719A0.507,0.507,0,0,1,133.419,895.014Zm0-3.612a2.24,2.24,0,1,1,2.233-2.24A2.238,2.238,0,0,1,133.418,891.4Zm0-3.461a1.222,1.222,0,1,0,1.218,1.221A1.221,1.221,0,0,0,133.418,887.941Zm0,1.731a0.51,0.51,0,0,1-.359-0.87,0.506,0.506,0,0,1,.717,0A0.51,0.51,0,0,1,133.419,889.672Zm0-3.613a2.24,2.24,0,1,1,2.233-2.24A2.238,2.238,0,0,1,133.418,886.059Zm0-3.461a1.222,1.222,0,1,0,1.218,1.221A1.221,1.221,0,0,0,133.418,882.6Zm0,1.73a0.508,0.508,0,1,1,.507-0.509,0.514,0.514,0,0,1-.149.36A0.507,0.507,0,0,1,133.419,884.328Zm0-3.612a2.24,2.24,0,1,1,2.233-2.24A2.238,2.238,0,0,1,133.418,880.716Zm0-3.461a1.222,1.222,0,1,0,1.218,1.221A1.22,1.22,0,0,0,133.418,877.255Zm0,1.73a0.509,0.509,0,0,1-.508-0.509,0.514,0.514,0,0,1,.149-0.36,0.506,0.506,0,0,1,.717,0,0.509,0.509,0,0,1,0,.72A0.507,0.507,0,0,1,133.419,878.985ZM125.291,917H104.708a2.116,2.116,0,0,1-2.11-2.118v-4.214a2.116,2.116,0,0,1,2.11-2.118h2.154V895.743a1.993,1.993,0,0,1,1.988-1.993h12.3a1.993,1.993,0,0,1,1.988,1.993V908.55h2.153a2.117,2.117,0,0,1,2.111,2.118v4.214A2.117,2.117,0,0,1,125.291,917Zm-3.675-21.257a0.466,0.466,0,0,0-.466-0.466h-12.3a0.466,0.466,0,0,0-.466.466V908.55h13.232V895.743Zm4.264,14.925a0.59,0.59,0,0,0-.589-0.591H104.708a0.59,0.59,0,0,0-.588.591v4.214a0.59,0.59,0,0,0,.588.591h20.583a0.59,0.59,0,0,0,.589-0.591v-4.214Zm-2.891,4.347a2.24,2.24,0,1,1,2.232-2.24A2.239,2.239,0,0,1,122.989,915.015Zm0-3.462a1.222,1.222,0,1,0,1.218,1.222A1.222,1.222,0,0,0,122.989,911.553Zm0,1.731a0.507,0.507,0,1,1,.359-0.149A0.511,0.511,0,0,1,122.989,913.284Zm-4.285,1.272H111.3a0.509,0.509,0,0,1-.508-0.509V911.5a0.509,0.509,0,0,1,.508-0.509H118.7a0.508,0.508,0,0,1,.507.509v2.545A0.508,0.508,0,0,1,118.7,914.556Zm-0.508-2.545H111.8v1.527H118.2v-1.527Zm-11.185,3a2.24,2.24,0,1,1,2.232-2.24A2.239,2.239,0,0,1,107.011,915.015Zm0-3.462a1.222,1.222,0,1,0,1.217,1.222A1.221,1.221,0,0,0,107.011,911.553Zm0,1.731a0.507,0.507,0,1,1,.359-0.149A0.512,0.512,0,0,1,107.011,913.284Zm2.879-14.018-0.125-.125a1.75,1.75,0,0,1,2.471-2.478l0.124,0.125a5.717,5.717,0,0,1,5.28,0l0.124-.125a1.749,1.749,0,0,1,2.47,2.477l-0.125.125a5.768,5.768,0,0,1,0,5.3l0.125,0.125a1.758,1.758,0,0,1,0,2.478,1.743,1.743,0,0,1-2.47,0l-0.125-.126a5.713,5.713,0,0,1-5.278,0l-0.125.126a1.75,1.75,0,1,1-2.471-2.479l0.125-.125A5.772,5.772,0,0,1,109.89,899.266Zm0.593-1.883a0.737,0.737,0,0,0-.032,1,5.811,5.811,0,0,1,1.032-1.035A0.731,0.731,0,0,0,110.483,897.383Zm9.033,0a0.73,0.73,0,0,0-1-.032,5.833,5.833,0,0,1,1.031,1.034A0.732,0.732,0,0,0,119.516,897.383ZM119,906.66a0.728,0.728,0,0,0,.517-0.215,0.737,0.737,0,0,0,.032-1,5.833,5.833,0,0,1-1.031,1.034A0.724,0.724,0,0,0,119,906.66Zm-8.516-.215a0.73,0.73,0,0,0,1,.031,5.844,5.844,0,0,1-1.032-1.035A0.737,0.737,0,0,0,110.483,906.445ZM115,906.667a4.754,4.754,0,1,0-4.738-4.754A4.751,4.751,0,0,0,115,906.667Zm0-8.832a4.079,4.079,0,1,1-4.065,4.078A4.077,4.077,0,0,1,115,897.835Zm0,7.139a3.061,3.061,0,1,0-3.051-3.061A3.059,3.059,0,0,0,115,904.974Zm0-4.943a1.883,1.883,0,1,1-1.876,1.882A1.881,1.881,0,0,1,115,900.031Zm0,2.747a0.865,0.865,0,1,0-.862-0.865A0.864,0.864,0,0,0,115,902.778ZM101.4,917H91.761a0.764,0.764,0,0,1,0-1.527h2.385V898.914a2.106,2.106,0,0,1-1.776-2.079V876.106a2.105,2.105,0,0,1,2.1-2.106h4.224a2.106,2.106,0,0,1,2.1,2.106v20.729a2.106,2.106,0,0,1-1.776,2.079v16.559H101.4A0.764,0.764,0,0,1,101.4,917Zm-5.734-1.527h1.827V898.942H95.668v16.531Zm3.6-18.638V876.106a0.579,0.579,0,0,0-.577-0.579H94.469a0.579,0.579,0,0,0-.577.579v20.729a0.579,0.579,0,0,0,.577.58h4.224A0.579,0.579,0,0,0,99.27,896.835Zm-2.689-.09a2.24,2.24,0,1,1,2.233-2.24A2.239,2.239,0,0,1,96.581,896.745Zm0-3.461a1.222,1.222,0,1,0,1.218,1.221A1.221,1.221,0,0,0,96.581,893.284Zm0,1.73a0.508,0.508,0,1,1,.508-0.509,0.515,0.515,0,0,1-.149.36A0.508,0.508,0,0,1,96.582,895.014Zm0-3.612a2.24,2.24,0,1,1,2.233-2.24A2.239,2.239,0,0,1,96.581,891.4Zm0-3.461a1.222,1.222,0,1,0,1.218,1.221A1.221,1.221,0,0,0,96.581,887.941Zm0,1.731a0.51,0.51,0,0,1-.359-0.87,0.506,0.506,0,0,1,.717,0A0.51,0.51,0,0,1,96.582,889.672Zm0-3.613a2.24,2.24,0,1,1,2.233-2.24A2.239,2.239,0,0,1,96.581,886.059Zm0-3.461a1.222,1.222,0,1,0,1.218,1.221A1.221,1.221,0,0,0,96.581,882.6Zm0,1.73a0.509,0.509,0,1,1,.358-0.149A0.509,0.509,0,0,1,96.582,884.328Zm0-3.612a2.24,2.24,0,1,1,2.233-2.24A2.239,2.239,0,0,1,96.581,880.716Zm0-3.461a1.222,1.222,0,1,0,1.218,1.221A1.22,1.22,0,0,0,96.581,877.255Zm0,1.73a0.509,0.509,0,1,1,.358-0.869,0.51,0.51,0,0,1,0,.721A0.512,0.512,0,0,1,96.582,878.985Z" transform="translate(-91 -874)"/>
</svg>
