<svg xmlns="http://www.w3.org/2000/svg" width="40" height="30" viewBox="0 0 40 30">
  <defs>
    <style>
      .cls-1 {
        fill: #db5e37;
        fill-rule: evenodd;
      }
    </style>
  </defs>
  <path id="Forma_1" data-name="Forma 1" class="cls-1" d="M125.375,533.625H123.5a0.625,0.625,0,0,1,0-1.25h1.875A0.625,0.625,0,0,1,125.375,533.625Zm0-10.625H97.25a0.625,0.625,0,0,1,0-1.25h28.125A0.625,0.625,0,0,1,125.375,523Zm-32.5-1.875v2.5a0.625,0.625,0,0,1-1.25,0v-2.5A0.625,0.625,0,0,1,92.875,521.125ZM92.25,526.75a3.129,3.129,0,0,1-3.125-3.125V523h-2.5a0.625,0.625,0,0,1,0-1.25H89.75a0.625,0.625,0,0,1,.625.625v1.25a1.875,1.875,0,1,0,3.75,0v-2.5a1.874,1.874,0,0,0-3.5-.936,0.625,0.625,0,0,1-1.081-.628,3.124,3.124,0,0,1,5.828,1.564v2.5A3.129,3.129,0,0,1,92.25,526.75Zm26.875,5v2.5a0.625,0.625,0,0,1-1.25,0v-2.5A0.625,0.625,0,0,1,119.125,531.75Zm-32.5.625H116a0.625,0.625,0,0,1,.625.625v1.25a1.875,1.875,0,0,0,3.75,0v-2.5a1.874,1.874,0,0,0-3.5-.936,0.625,0.625,0,0,1-1.08-.628,3.123,3.123,0,0,1,5.828,1.564v2.5a3.125,3.125,0,0,1-6.25,0v-0.625H86.625A0.625,0.625,0,0,1,86.625,532.375Zm20,10v2.5a0.625,0.625,0,0,1-1.25,0v-2.5A0.625,0.625,0,0,1,106.625,542.375Zm-20,.625H103.5a0.625,0.625,0,0,1,.625.625v1.25a1.875,1.875,0,0,0,3.75,0v-2.5a1.874,1.874,0,0,0-3.5-.936,0.625,0.625,0,0,1-1.08-.628,3.123,3.123,0,0,1,5.828,1.564v2.5a3.125,3.125,0,0,1-6.25,0V544.25H86.625A0.625,0.625,0,0,1,86.625,543ZM111,543h14.375a0.625,0.625,0,0,1,0,1.25H111A0.625,0.625,0,0,1,111,543Z" transform="translate(-86 -518)"/>
</svg>
