<svg xmlns="http://www.w3.org/2000/svg" width="48" height="43" viewBox="0 0 48 43">
  <defs>
    <style>
      .cls-1 {
        fill: #db5e37;
        fill-rule: evenodd;
      }
    </style>
  </defs>
  <path id="Forma_1" data-name="Forma 1" class="cls-1" d="M247.991,1562.33c-0.079-1.36-1.707-2.42-4.963-3.24a1.759,1.759,0,0,0,.172-0.74v-5.57h-0.014c-0.286-4.64-19.392-4.78-21.586-4.78s-21.3.14-21.586,4.78H200v0.1h0v5.47c0,1.51,1.966,2.7,4.884,3.58a1.754,1.754,0,0,0-.072.4H204.8v0.11h0v5.46c-3.144.8-4.714,1.85-4.792,3.19H200v0.11h0v5.47c0,1.05.957,1.94,2.518,2.69a1.685,1.685,0,0,0-.106.49H202.4v0.11h0v5.47c0.006,2.64,6,4.29,12.654,5.06a0.714,0.714,0,0,0,.146.03c0.015,0,.028-0.01.043-0.01,1.283,0.14,2.587.25,3.878,0.33a0.225,0.225,0,0,0,.079.02c0.015,0,.027-0.01.042-0.01,1.638,0.1,3.25.15,4.758,0.15s3.12-.05,4.758-0.15c0.015,0,.028.01,0.042,0.01a0.225,0.225,0,0,0,.079-0.02c1.291-.08,2.595-0.19,3.878-0.33H232.8a0.714,0.714,0,0,0,.146-0.03c6.656-.76,12.647-2.41,12.654-5.06v-5.57h-0.013c-0.056-.97-0.892-1.79-2.543-2.47a1.777,1.777,0,0,0,.156-0.72v-5.2c2.872-.88,4.8-2.06,4.8-3.56v-5.57h-0.009Zm-6.477,14.59-0.273.24a7.173,7.173,0,0,1-2.041,1.1v-3.8a11.989,11.989,0,0,0,2.4-1.09v3.29A0.506,0.506,0,0,1,241.514,1576.92Zm-17.893,3.7c-0.117.01-.235,0.01-0.352,0.01-0.286.01-.579,0.01-0.868,0.01v-3.98c0.22,0,.44,0,0.66-0.01h0.127c0.806-.02,1.611-0.04,2.413-0.08v3.98c-0.171.01-.343,0.02-0.517,0.02C224.6,1580.59,224.116,1580.61,223.621,1580.62Zm-3.494.01c-0.366,0-.731-0.01-1.093-0.02-0.045,0-.09-0.01-0.135-0.01-0.436-.01-0.869-0.03-1.3-0.05v-3.98c0.8,0.04,1.607.07,2.413,0.08h0.126c0.22,0.01.44,0.01,0.66,0.01v3.98h-0.465C220.265,1580.64,220.2,1580.63,220.127,1580.63Zm-14.449-1.81a0.231,0.231,0,0,0-.078-0.02v-3.85c0.747,0.2,1.55.38,2.4,0.55v3.89c-0.734-.16-1.412-0.32-2.029-0.49C205.874,1578.87,205.773,1578.85,205.678,1578.82Zm16.862,6.59c0.22,0.01.44,0.01,0.66,0.01v3.98q-1.659-.015-3.2-0.09v-3.98c0.8,0.04,1.607.07,2.413,0.08h0.127Zm3.047,0c0.806-.02,1.611-0.04,2.413-0.08v3.98q-1.54.075-3.2,0.09v-3.98c0.22,0,.44,0,0.66-0.01h0.127Zm6.413-.36V1589c-0.769.08-1.569,0.16-2.4,0.21v-3.97C230.411,1585.19,231.213,1585.13,232,1585.05Zm1.6-.17c0.825-.1,1.626-0.21,2.4-0.34v3.91c-0.754.13-1.554,0.26-2.4,0.37v-3.94Zm4-.62c0.85-.17,1.653-0.35,2.4-0.55v3.84c-0.713.21-1.515,0.41-2.4,0.59v-3.88Zm-27.2,0v3.88c-0.885-.18-1.687-0.38-2.4-0.59v-3.84C208.747,1583.91,209.55,1584.09,210.4,1584.26Zm1.6,0.28c0.774,0.13,1.575.24,2.4,0.34v3.94c-0.846-.11-1.646-0.24-2.4-0.37v-3.91Zm4,0.51c0.787,0.08,1.589.14,2.4,0.19v3.97c-0.831-.05-1.631-0.12-2.4-0.2v-3.96Zm-1.985-4.76-0.243-.03c-0.058,0-.114-0.01-0.172-0.01v-3.96c0.787,0.08,1.589.14,2.4,0.19v3.97C215.328,1580.41,214.664,1580.35,214.015,1580.29ZM212,1576.12v3.94c-0.846-.11-1.646-0.24-2.4-0.37v-3.91C210.374,1575.91,211.175,1576.02,212,1576.12Zm15.733,4.3c-0.176.01-.354,0.02-0.533,0.04v-3.98c0.811-.05,1.613-0.11,2.4-0.19v3.96c-0.494.05-1,.1-1.519,0.14Zm3.467-.36v-3.94c0.825-.1,1.626-0.21,2.4-0.34v3.91C232.846,1579.82,232.046,1579.95,231.2,1580.06Zm4-4.56c0.85-.17,1.653-0.35,2.4-0.55v3.85c-0.713.2-1.515,0.4-2.4,0.59v-3.89Zm-10.94-3.64c-0.6-.01-1.19-0.04-1.767-0.07H222.4v-3.98c0.8,0.04,1.607.07,2.413,0.08h0.126c0.22,0.01.44,0.01,0.66,0.01v3.98c-0.389,0-.782-0.01-1.162-0.02H224.26Zm-18.66-11.38v-3.85c0.747,0.2,1.55.39,2.4,0.55v3.89l-0.3-.06c-0.426-.09-0.841-0.19-1.238-0.29C206.164,1560.64,205.877,1560.56,205.6,1560.48Zm14.54-2.14c0.22,0,.44.01,0.66,0.01v3.97c-1.077-.01-2.147-0.03-3.2-0.09v-3.97c0.8,0.04,1.607.06,2.413,0.08h0.127Zm3.047,0c0.806-.02,1.611-0.04,2.413-0.08v3.97c-0.136.01-.266,0.02-0.4,0.02a0.046,0.046,0,0,1-.035.01c-0.536.02-1.084,0.04-1.638,0.05a2.243,2.243,0,0,0-.259.01c-0.285,0-.576,0-0.865.01v-3.98c0.22,0,.44-0.01.66-0.01h0.127Zm18.23,0.4-0.023-.01-0.291.23a8.069,8.069,0,0,1-1.9.97v-3.78a11.973,11.973,0,0,0,2.4-1.1v3.3A0.634,0.634,0,0,1,241.417,1558.74Zm-10.217,3v-3.94c0.825-.09,1.626-0.21,2.4-0.33v3.9C232.842,1561.51,232.043,1561.63,231.2,1561.74Zm4-.68v-3.88c0.85-.16,1.653-0.35,2.4-0.55v3.84C236.883,1560.68,236.076,1560.88,235.2,1561.06Zm-5.6-3.08v3.95q-1.16.12-2.4,0.21v-3.97C228.011,1558.12,228.813,1558.05,229.6,1557.98Zm-16,3.95v-3.95c0.787,0.07,1.589.14,2.4,0.19v3.96C215.186,1562.08,214.382,1562.01,213.6,1561.93Zm-1.6-4.13v3.94l-0.48-.06c-0.1-.01-0.2-0.03-0.3-0.04-0.462-.07-0.914-0.14-1.357-0.22-0.089-.01-0.175-0.03-0.262-0.04v-3.91C210.374,1557.59,211.175,1557.71,212,1557.8Zm8.6,13.88c-0.108-.01-0.217-0.01-0.324-0.02-0.513-.04-1.012-0.09-1.5-0.14l-0.314-.03H218.4v-3.96c0.787,0.08,1.589.14,2.4,0.19v3.97A1.307,1.307,0,0,1,220.6,1571.68Zm-5.286-.59c-0.317-.05-0.614-0.11-0.916-0.16v-3.91c0.774,0.13,1.575.24,2.4,0.34v3.94c-0.49-.07-0.969-0.13-1.429-0.2A0.108,0.108,0,0,0,215.316,1571.09Zm-2.516-4.35v3.88c-0.884-.19-1.686-0.39-2.4-0.6v-3.83C211.147,1566.39,211.95,1566.57,212.8,1566.74Zm-4-1.04v3.79a5.041,5.041,0,0,1-2.333-1.42l-0.053-.09a0.386,0.386,0,0,1-.014-0.08v-3.29A11.989,11.989,0,0,0,208.8,1565.7Zm19.187,2.19c0.806-.01,1.611-0.04,2.413-0.08v3.98c-1.051.05-2.12,0.08-3.2,0.09v-3.98c0.22,0,.44,0,0.66-0.01h0.127Zm10.339,3.06c-0.352.06-.706,0.12-1.07,0.17l-0.637.09c-0.2.03-.413,0.06-0.618,0.08v-3.93c0.825-.1,1.625-0.21,2.4-0.34v3.91C238.375,1570.94,238.35,1570.94,238.326,1570.95Zm-5.417.68-0.909.06v-3.97c0.811-.05,1.613-0.11,2.4-0.19v3.95c-0.465.05-.929,0.1-1.406,0.14A0.245,0.245,0,0,0,232.909,1571.63Zm9.142-1.5c-0.4.11-.82,0.22-1.25,0.32-0.2.05-.4,0.09-0.611,0.14a1.3,1.3,0,0,0-.189.04v-3.89c0.849-.17,1.652-0.35,2.4-0.55v3.85Zm4.34-7.74c-0.073.54-1.3,1.25-3.5,1.93h0a54.068,54.068,0,0,1-12.872,1.92l-0.867.03c-0.239.01-.479,0.01-0.723,0.02-0.662.01-1.334,0.02-2.027,0.02s-1.365-.01-2.027-0.02c-0.243-.01-0.483-0.01-0.723-0.02-0.294-.01-0.58-0.02-0.867-0.04a53.63,53.63,0,0,1-12.872-1.91h0c-2.18-.67-3.409-1.38-3.5-1.92a0.157,0.157,0,0,1,.014-0.05c0.054,0.01.115,0.03,0.17,0.04,0.313,0.07.634,0.14,0.96,0.21,1.59,0.34,3.351.62,5.228,0.84H212.8c1.278,0.14,2.6.26,3.966,0.34h0.045q1.47,0.09,2.978.12c0.615,0.02,1.219.03,1.807,0.03,0.42,0,.85-0.01,1.285-0.02a61.4,61.4,0,0,0,14.949-1.84l0.508-.15,0.3-.09c0.289-.09.567-0.19,0.835-0.29,0.046-.02.09-0.03,0.137-0.05,0.226-.09.444-0.17,0.652-0.26a1.482,1.482,0,0,1,.18-0.08c0.221-.1.436-0.2,0.634-0.31,0.09-.05.167-0.09,0.251-0.14s0.192-.11.281-0.17c0.05-.03.11-0.06,0.158-0.09C245.356,1561.21,246.3,1562.06,246.391,1562.39Zm-24.791-12.8c13.191,0,19.863,2.07,19.988,3.26-0.1.53-1.325,1.25-3.5,1.91h0a54.068,54.068,0,0,1-12.872,1.92l-0.867.03c-0.239.01-.479,0.02-0.723,0.02-0.662.02-1.334,0.03-2.027,0.03s-1.365-.01-2.027-0.03c-0.243,0-.483-0.01-0.723-0.02l-0.867-.03a54.051,54.051,0,0,1-12.872-1.92h0c-2.175-.66-3.4-1.38-3.5-1.91C201.737,1551.66,208.409,1549.59,221.6,1549.59Zm-20,8.76v-3.3a11.973,11.973,0,0,0,2.4,1.1v3.81C202.444,1559.38,201.6,1558.8,201.6,1558.35Zm3.875,11.02a0.157,0.157,0,0,1,.043.04c1.095,1.1,3.363,1.96,6.186,2.61a1.4,1.4,0,0,1,.2.04c0.207,0.05.418,0.09,0.631,0.14a63.788,63.788,0,0,0,9.06,1.14H221.6c1.084,0.06,2.192.11,3.323,0.12,0.5,0.02.993,0.02,1.475,0.02,0.552,0,1.118,0,1.694-.02q1.57-.03,3.095-0.12h0.031a61.984,61.984,0,0,0,9.235-1.18,14.337,14.337,0,0,1-2.366.92h0a55.191,55.191,0,0,1-13.825,1.95c-0.18.01-.358,0.01-0.54,0.02s-0.395,0-.594.01c-0.5.01-1.01,0.01-1.53,0.01-0.693,0-1.365-.01-2.027-0.02-0.243-.01-0.483-0.02-0.723-0.02-0.294-.01-0.58-0.02-0.867-0.04a53.63,53.63,0,0,1-12.872-1.91h0c-2.2-.68-3.431-1.4-3.5-1.94C201.7,1570.84,202.506,1570.09,205.475,1569.37Zm-3.875,7.29v-3.29a11.989,11.989,0,0,0,2.4,1.09v3.8l-0.457-.18-0.01.01C202.278,1577.57,201.6,1577.06,201.6,1576.66Zm2.4,8.76v-3.29a11.989,11.989,0,0,0,2.4,1.09v3.81C204.844,1586.45,204,1585.87,204,1585.42Zm37.6,1.61v-3.81a11.989,11.989,0,0,0,2.4-1.09v3.29C244,1585.87,243.156,1586.45,241.6,1587.03Zm2.39-7.12c-0.088.54-1.316,1.26-3.5,1.93h0a53.638,53.638,0,0,1-12.872,1.91c-0.287.02-.574,0.03-0.867,0.04-0.239,0-.479.01-0.723,0.02-0.662.01-1.334,0.02-2.027,0.02s-1.366-.01-2.029-0.02c-0.241-.01-0.478-0.02-0.716-0.02-0.295-.01-0.583-0.03-0.872-0.04a53.638,53.638,0,0,1-12.872-1.91h0c-2.116-.65-3.338-1.34-3.492-1.88,0.239,0.09.486,0.17,0.739,0.25a0.214,0.214,0,0,1,.077.02c0.216,0.06.437,0.13,0.663,0.19,0.086,0.02.172,0.05,0.26,0.07,0.128,0.04.259,0.07,0.39,0.1a59.169,59.169,0,0,0,10.648,1.51H216.8c1.24,0.07,2.507.12,3.787,0.13,0.341,0.01.679,0.01,1.011,0.01,0.441,0,.892,0,1.349-0.01,1.167-.02,2.319-0.07,3.445-0.13h0.017c1.372-.08,2.7-0.2,3.976-0.35H230.4a0.087,0.087,0,0,0,.049-0.01c1.421-.16,2.768-0.36,4.019-0.59l0.762-.15,0.168-.03a21.612,21.612,0,0,0,5.81-1.89c0.077-.04.149-0.08,0.222-0.12,0.089-.05.174-0.11,0.256-0.16s0.166-.1.236-0.15C243.5,1579.21,243.938,1579.71,243.99,1579.91Zm0.01-10.39v-3.82a11.989,11.989,0,0,0,2.4-1.09v3.29C246.4,1568.35,245.556,1568.93,244,1569.52Z" transform="translate(-200 -1548)"/>
</svg>
