<svg xmlns="http://www.w3.org/2000/svg" width="36" height="40" viewBox="0 0 36 40">
  <defs>
    <style>
      .cls-1 {
        fill: #db5e37;
        fill-rule: evenodd;
      }
    </style>
  </defs>
  <path id="Forma_1" data-name="Forma 1" class="cls-1" d="M117.868,667a9.666,9.666,0,0,1-4.4-1.006,9.65,9.65,0,0,1-4.43,1.006,10.077,10.077,0,0,1-3.71-.678H89V627h29.208v11.536c3.834,0.115,6.792,2.15,6.792,4.735v18.983C125,664.915,121.867,667,117.868,667Zm0-1.356c3.067,0,5.667-1.49,5.77-3.278-0.031.029-.069,0.054-0.1,0.082-0.1.087-.205,0.172-0.314,0.254-0.062.046-.123,0.092-0.187,0.136-0.119.083-.245,0.162-0.373,0.239-0.06.036-.117,0.073-0.179,0.108-0.193.108-.393,0.21-0.6,0.3l-0.024.009c-0.2.09-.414,0.171-0.632,0.247-0.074.026-.151,0.047-0.227,0.072-0.157.05-.315,0.1-0.478,0.14-0.09.023-.181,0.044-0.273,0.065-0.158.037-.318,0.069-0.481,0.1-0.095.016-.189,0.033-0.286,0.047-0.176.026-.355,0.047-0.536,0.064-0.086.008-.17,0.019-0.257,0.025-0.269.02-.541,0.032-0.819,0.032-0.34,0-.676-0.021-1.009-0.052l-0.214-.021c-0.323-.037-0.643-0.086-0.957-0.153-0.012,0-.024,0-0.037-0.006a4.578,4.578,0,0,1-.878,1.044A8.737,8.737,0,0,0,117.868,665.644Zm5.669-16.756c-0.1.087-.205,0.172-0.314,0.254-0.062.046-.123,0.092-0.187,0.136-0.119.083-.245,0.163-0.373,0.24-0.06.036-.117,0.073-0.179,0.108-0.193.108-.393,0.21-0.6,0.3l-0.024.01c-0.2.089-.414,0.171-0.632,0.247-0.074.025-.151,0.047-0.227,0.071-0.157.051-.315,0.1-0.478,0.14-0.09.024-.181,0.045-0.273,0.066-0.158.036-.318,0.068-0.481,0.1-0.095.016-.189,0.033-0.286,0.047-0.176.026-.355,0.046-0.536,0.064-0.086.008-.17,0.019-0.257,0.025-0.269.02-.541,0.032-0.819,0.032q-0.447,0-.888-0.038c-0.1-.008-0.191-0.023-0.288-0.034-0.2-.022-0.392-0.043-0.584-0.075l-0.047-.006c0.01,0.037.014,0.074,0.022,0.111,0.02,0.092.042,0.182,0.054,0.275a3.319,3.319,0,0,1,.033.445v0.5c0.128,0.025.255,0.053,0.385,0.071,0.1,0.014.2,0.031,0.3,0.042a9.487,9.487,0,0,0,1.015.061c0.193,0,.385-0.006.574-0.018,0.063,0,.124-0.011.187-0.017,0.125-.01.25-0.02,0.373-0.034,0.073-.009.144-0.022,0.215-0.033,0.11-.016.221-0.031,0.329-0.051,0.076-.013.15-0.032,0.225-0.048,0.1-.021.2-0.041,0.3-0.065,0.075-.019.147-0.041,0.221-0.063,0.093-.025.189-0.05,0.279-0.08,0.073-.023.141-0.049,0.212-0.074,0.087-.031.176-0.061,0.261-0.094s0.137-.059.2-0.088,0.161-.069.237-0.106,0.13-.066.194-0.1,0.147-.076.217-0.117,0.119-.073.177-0.11,0.135-.083.2-0.127,0.107-.08.16-0.12,0.121-.091.177-0.138,0.094-.085.14-0.129,0.106-.1.154-0.146,0.081-.092.121-0.138,0.089-.1.128-0.153,0.068-.1.1-0.145,0.07-.105.1-0.159,0.051-.1.076-0.152,0.053-.11.075-0.165,0.034-.105.05-0.157,0.034-.114.045-0.171,0.017-.108.024-0.162c0.005-.038.008-0.076,0.01-0.113C123.6,648.839,123.567,648.862,123.537,648.888Zm0.094-2.787c-0.029.026-.064,0.049-0.094,0.076-0.1.087-.205,0.171-0.314,0.253-0.062.046-.123,0.093-0.187,0.137-0.119.083-.245,0.162-0.373,0.239-0.06.036-.117,0.073-0.179,0.108-0.193.108-.393,0.21-0.6,0.3l-0.024.01c-0.2.09-.414,0.171-0.632,0.247-0.074.026-.151,0.047-0.227,0.072-0.157.05-.315,0.1-0.478,0.139-0.09.024-.181,0.045-0.273,0.066-0.158.037-.318,0.069-0.481,0.1-0.095.016-.189,0.033-0.286,0.047-0.176.026-.355,0.046-0.536,0.064-0.086.008-.17,0.019-0.257,0.025-0.269.02-.541,0.032-0.819,0.032s-0.55-.012-0.819-0.033c-0.087-.007-0.171-0.017-0.256-0.025-0.182-.018-0.361-0.038-0.537-0.064q-0.144-.023-0.285-0.048c-0.163-.029-0.324-0.061-0.481-0.1-0.093-.021-0.184-0.042-0.274-0.065-0.163-.043-0.321-0.091-0.477-0.14-0.076-.024-0.154-0.046-0.228-0.072-0.218-.075-0.43-0.157-0.634-0.247a0.2,0.2,0,0,0-.022-0.009c-0.21-.094-0.41-0.2-0.6-0.3-0.061-.034-0.118-0.072-0.178-0.108-0.129-.077-0.255-0.156-0.375-0.239-0.063-.044-0.125-0.09-0.186-0.136-0.109-.082-0.214-0.167-0.314-0.254-0.033-.028-0.07-0.053-0.1-0.082a2.207,2.207,0,0,0,.441,1.162,6.487,6.487,0,0,1,2.636,1.709c0.1,0.031.2,0.061,0.3,0.088,0.087,0.024.174,0.051,0.264,0.072,0.14,0.034.284,0.061,0.427,0.087,0.088,0.016.175,0.036,0.264,0.05,0.159,0.024.322,0.041,0.485,0.057,0.076,0.008.15,0.019,0.227,0.025q0.361,0.029.727,0.029c0.193,0,.385-0.006.574-0.017,0.063,0,.124-0.012.187-0.017,0.125-.01.25-0.02,0.373-0.035,0.073-.008.144-0.021,0.215-0.032,0.11-.016.221-0.031,0.329-0.051,0.076-.014.15-0.032,0.225-0.048,0.1-.021.2-0.041,0.3-0.065,0.075-.019.147-0.042,0.221-0.063,0.093-.025.189-0.051,0.279-0.08,0.073-.023.141-0.049,0.212-0.074,0.087-.031.176-0.061,0.261-0.095s0.137-.058.2-0.088,0.161-.068.237-0.105,0.13-.066.194-0.1,0.147-.076.217-0.117,0.119-.073.177-0.11,0.135-.084.2-0.128,0.107-.08.16-0.12,0.121-.09.177-0.137,0.094-.086.14-0.129,0.106-.1.154-0.147,0.081-.091.121-0.137,0.089-.1.128-0.153,0.068-.1.1-0.145,0.07-.106.1-0.159,0.051-.1.076-0.152,0.053-.11.075-0.165,0.034-.1.05-0.158,0.034-.113.045-0.17,0.017-.108.024-0.163C123.626,646.176,123.629,646.138,123.631,646.1Zm-0.094,5.5c-0.1.087-.205,0.171-0.314,0.253-0.062.047-.123,0.093-0.187,0.137-0.119.083-.245,0.162-0.373,0.24-0.06.036-.117,0.073-0.179,0.108-0.193.107-.393,0.21-0.6,0.3l-0.024.01c-0.2.089-.414,0.171-0.632,0.246-0.074.026-.151,0.048-0.227,0.072-0.157.051-.315,0.1-0.478,0.14-0.09.024-.181,0.045-0.273,0.066-0.158.036-.318,0.068-0.481,0.1-0.095.017-.189,0.034-0.286,0.048-0.176.026-.355,0.046-0.536,0.064-0.086.008-.17,0.019-0.257,0.025-0.269.019-.541,0.031-0.819,0.031-0.259,0-.516-0.012-0.772-0.031-0.076,0-.153-0.013-0.229-0.021q-0.279-.026-0.554-0.066c-0.047-.007-0.1-0.01-0.143-0.017v1.318c0.128,0.024.255,0.053,0.385,0.071,0.1,0.014.2,0.031,0.3,0.041a9.234,9.234,0,0,0,1.015.061c0.193,0,.385-0.006.574-0.017,0.063,0,.124-0.012.187-0.017,0.125-.01.25-0.02,0.373-0.035,0.073-.008.144-0.021,0.215-0.032,0.11-.016.221-0.031,0.329-0.051,0.076-.014.15-0.032,0.225-0.048,0.1-.021.2-0.041,0.3-0.065,0.075-.019.147-0.042,0.221-0.063,0.093-.025.189-0.05,0.279-0.08,0.073-.023.141-0.049,0.212-0.074,0.087-.031.176-0.061,0.261-0.094s0.137-.059.2-0.089,0.161-.068.237-0.105,0.13-.066.194-0.1,0.147-.076.217-0.117,0.119-.073.177-0.11,0.135-.084.2-0.128,0.107-.08.16-0.12,0.121-.09.177-0.137,0.094-.086.14-0.129,0.106-.1.154-0.146,0.081-.092.121-0.138,0.089-.1.128-0.153,0.068-.1.1-0.145,0.07-.1.1-0.159,0.051-.1.076-0.152,0.053-.11.075-0.165,0.034-.1.05-0.158,0.034-.113.045-0.17,0.017-.108.024-0.163c0.005-.037.008-0.075,0.01-0.112C123.6,651.55,123.567,651.573,123.537,651.6Zm0,2.712c-0.1.087-.205,0.171-0.314,0.253-0.062.046-.123,0.093-0.187,0.137-0.119.083-.245,0.162-0.373,0.24-0.06.036-.117,0.073-0.179,0.107-0.193.108-.393,0.21-0.6,0.3l-0.024.01c-0.2.089-.414,0.171-0.632,0.246-0.074.026-.151,0.048-0.227,0.072-0.157.05-.315,0.1-0.478,0.14-0.09.024-.181,0.045-0.273,0.066-0.158.036-.318,0.068-0.481,0.1-0.095.017-.189,0.033-0.286,0.048-0.176.025-.355,0.046-0.536,0.063-0.086.009-.17,0.019-0.257,0.026-0.269.019-.541,0.031-0.819,0.031-0.259,0-.516-0.012-0.772-0.031-0.076,0-.153-0.013-0.229-0.021q-0.279-.026-0.554-0.066c-0.047-.007-0.1-0.01-0.143-0.017v1.318c0.128,0.024.255,0.053,0.385,0.071,0.1,0.014.2,0.03,0.3,0.041a9.234,9.234,0,0,0,1.015.061c0.193,0,.385-0.006.574-0.017,0.063,0,.124-0.012.187-0.017,0.125-.01.25-0.02,0.373-0.035,0.073-.009.144-0.021,0.215-0.032,0.11-.017.221-0.032,0.329-0.051,0.076-.014.15-0.032,0.225-0.048,0.1-.021.2-0.041,0.3-0.065,0.075-.019.147-0.042,0.221-0.063,0.093-.026.189-0.051,0.279-0.08,0.073-.023.141-0.049,0.212-0.074,0.087-.031.176-0.061,0.261-0.095s0.137-.058.2-0.088,0.161-.068.237-0.1,0.13-.066.194-0.1,0.147-.076.217-0.117,0.119-.073.177-0.11,0.135-.084.2-0.128,0.107-.08.16-0.12,0.121-.09.177-0.137,0.094-.086.14-0.129,0.106-.1.154-0.147,0.081-.091.121-0.137,0.089-.1.128-0.153,0.068-.1.1-0.146,0.07-.105.1-0.158,0.051-.1.076-0.152,0.053-.11.075-0.165,0.034-.105.05-0.158,0.034-.113.045-0.17,0.017-.108.024-0.163c0.005-.037.008-0.075,0.01-0.112C123.6,654.262,123.567,654.285,123.537,654.312Zm0,2.712c-0.1.086-.205,0.171-0.314,0.253-0.062.046-.123,0.092-0.187,0.137-0.119.083-.245,0.162-0.373,0.239-0.06.036-.117,0.074-0.179,0.108-0.193.108-.393,0.21-0.6,0.3l-0.024.009c-0.2.09-.414,0.171-0.632,0.247-0.074.026-.151,0.048-0.227,0.072-0.157.05-.315,0.1-0.478,0.14-0.09.023-.181,0.044-0.273,0.066-0.158.036-.318,0.068-0.481,0.1-0.095.016-.189,0.033-0.286,0.048-0.176.025-.355,0.046-0.536,0.063-0.086.008-.17,0.019-0.257,0.025-0.269.02-.541,0.032-0.819,0.032-0.259,0-.516-0.012-0.772-0.031-0.076,0-.153-0.013-0.229-0.021q-0.279-.026-0.554-0.066c-0.047-.007-0.1-0.01-0.143-0.017v1.318c0.128,0.024.255,0.053,0.385,0.071,0.1,0.014.2,0.03,0.3,0.041a9.234,9.234,0,0,0,1.015.061c0.193,0,.385-0.006.574-0.017,0.063,0,.124-0.012.187-0.017,0.125-.011.25-0.02,0.373-0.035,0.073-.009.144-0.022,0.215-0.033,0.11-.016.221-0.031,0.329-0.05,0.076-.014.15-0.032,0.225-0.048,0.1-.022.2-0.041,0.3-0.066,0.075-.018.147-0.041,0.221-0.062,0.093-.026.189-0.051,0.279-0.08,0.073-.023.141-0.049,0.212-0.075,0.087-.031.176-0.061,0.261-0.094s0.137-.058.2-0.088,0.161-.068.237-0.1,0.13-.066.194-0.1,0.147-.076.217-0.117,0.119-.073.177-0.11,0.135-.084.2-0.128,0.107-.08.16-0.12,0.121-.09.177-0.138,0.094-.085.14-0.128,0.106-.1.154-0.147,0.081-.091.121-0.137,0.089-.1.128-0.153,0.068-.1.1-0.146,0.07-.1.1-0.158,0.051-.1.076-0.152,0.053-.11.075-0.166,0.034-.1.05-0.157,0.034-.113.045-0.17,0.017-.109.024-0.163c0.005-.037.008-0.075,0.01-0.112C123.6,656.974,123.567,657,123.537,657.024Zm0,2.712c-0.1.087-.205,0.172-0.314,0.254-0.062.046-.123,0.092-0.187,0.137-0.119.082-.245,0.161-0.373,0.238-0.06.036-.117,0.074-0.179,0.108-0.193.108-.393,0.21-0.6,0.3l-0.024.009c-0.2.09-.414,0.171-0.632,0.247-0.074.026-.151,0.048-0.227,0.072-0.157.05-.315,0.1-0.478,0.14-0.09.023-.181,0.044-0.273,0.065-0.158.037-.318,0.069-0.481,0.1-0.095.016-.189,0.033-0.286,0.047-0.176.026-.355,0.047-0.536,0.064-0.086.008-.17,0.019-0.257,0.025-0.269.02-.541,0.032-0.819,0.032-0.259,0-.516-0.012-0.772-0.031-0.076,0-.153-0.014-0.229-0.021q-0.279-.026-0.554-0.067c-0.047-.006-0.1-0.009-0.143-0.016v0.813a3.238,3.238,0,0,1-.042.513l0.095,0.016c0.214,0.039.43,0.069,0.648,0.092,0.07,0.008.14,0.014,0.21,0.021,0.26,0.021.521,0.036,0.787,0.036,0.193,0,.385-0.006.574-0.018,0.063,0,.124-0.012.187-0.017,0.125-.01.25-0.02,0.373-0.035,0.073-.009.144-0.021,0.215-0.032,0.11-.017.221-0.032,0.329-0.051,0.076-.014.15-0.032,0.225-0.048,0.1-.021.2-0.041,0.3-0.065,0.075-.019.147-0.042,0.221-0.063,0.093-.025.189-0.051,0.279-0.08,0.073-.023.141-0.049,0.212-0.074,0.087-.031.176-0.061,0.261-0.095s0.137-.058.2-0.088,0.161-.068.237-0.105,0.13-.066.194-0.1,0.147-.076.217-0.117,0.119-.073.177-0.11,0.135-.084.2-0.128,0.107-.08.16-0.12,0.121-.09.177-0.137,0.094-.086.14-0.129,0.106-.1.154-0.147,0.081-.091.121-0.137,0.089-.1.128-0.153,0.068-.1.1-0.146,0.07-.105.1-0.158,0.051-.1.076-0.152,0.053-.11.075-0.165,0.034-.1.05-0.158,0.034-.113.045-0.17,0.017-.108.024-0.161c0.005-.037.008-0.075,0.01-0.113C123.6,659.687,123.567,659.71,123.537,659.736ZM103.3,662.58c0.006,0.031.007,0.063,0.014,0.095a2.192,2.192,0,0,0,.115.361c0.013,0.032.032,0.062,0.047,0.093a2.588,2.588,0,0,0,.136.253c0.03,0.048.064,0.1,0.1,0.142,0.045,0.064.093,0.126,0.145,0.188s0.089,0.1.137,0.155,0.1,0.1.159,0.155,0.113,0.108.175,0.16c0.045,0.038.1,0.072,0.142,0.108a5.22,5.22,0,0,0,.447.305c0.056,0.034.111,0.069,0.17,0.1,0.088,0.049.181,0.1,0.274,0.142,0.065,0.032.132,0.064,0.2,0.094a8.539,8.539,0,0,0,3.481.711,8.222,8.222,0,0,0,3.992-.967l0.014-.008c0.035-.019.065-0.041,0.1-0.061a4.985,4.985,0,0,0,.466-0.315l0.04-.031a3.125,3.125,0,0,0,1-1.249v0a2.2,2.2,0,0,0,.116-0.372c0-.017,0-0.034.008-0.052a1.713,1.713,0,0,0,.022-0.212c-0.028.027-.062,0.049-0.091,0.075-0.1.087-.2,0.172-0.314,0.254-0.062.046-.123,0.092-0.187,0.136-0.119.083-.245,0.162-0.373,0.239-0.06.036-.117,0.073-0.179,0.108-0.193.108-.393,0.21-0.6,0.3l-0.024.009c-0.2.09-.414,0.171-0.632,0.247-0.074.026-.151,0.047-0.227,0.072-0.157.05-.315,0.1-0.478,0.14-0.09.023-.181,0.044-0.274,0.065-0.157.037-.318,0.069-0.48,0.1-0.1.016-.189,0.033-0.286,0.047q-0.264.039-.536,0.064c-0.087.008-.17,0.019-0.257,0.025-0.269.02-.541,0.032-0.819,0.032s-0.551-.012-0.819-0.033c-0.086-.006-0.17-0.017-0.256-0.025-0.181-.018-0.361-0.038-0.536-0.064-0.1-.014-0.191-0.031-0.286-0.047-0.163-.03-0.323-0.062-0.481-0.1-0.092-.021-0.183-0.042-0.273-0.065q-0.244-.065-0.478-0.14c-0.076-.024-0.153-0.046-0.228-0.072-0.217-.075-0.429-0.157-0.633-0.247l-0.023-.009c-0.209-.094-0.409-0.2-0.6-0.3-0.062-.034-0.119-0.072-0.179-0.108-0.129-.077-0.254-0.155-0.374-0.239-0.064-.044-0.125-0.09-0.186-0.136-0.11-.082-0.214-0.167-0.315-0.254-0.029-.026-0.063-0.049-0.091-0.075C103.282,662.441,103.288,662.511,103.3,662.58Zm-0.015-2.809c0.007,0.055.013,0.11,0.024,0.163a1.634,1.634,0,0,0,.045.17c0.016,0.053.031,0.106,0.05,0.158s0.049,0.11.075,0.165,0.048,0.1.076,0.152,0.067,0.106.1,0.159,0.064,0.1.1,0.145,0.084,0.1.128,0.154,0.078,0.092.121,0.137,0.1,0.1.153,0.146,0.091,0.087.141,0.129,0.116,0.092.176,0.137,0.1,0.082.16,0.12,0.132,0.086.2,0.128,0.116,0.075.177,0.11,0.144,0.078.217,0.117,0.127,0.068.194,0.1,0.158,0.071.237,0.105,0.135,0.061.206,0.089,0.173,0.063.26,0.094c0.071,0.025.14,0.051,0.212,0.074,0.091,0.029.186,0.055,0.28,0.081,0.074,0.02.145,0.043,0.22,0.062,0.1,0.024.2,0.044,0.3,0.065,0.076,0.016.149,0.034,0.225,0.049,0.108,0.019.219,0.034,0.329,0.05,0.072,0.011.142,0.024,0.215,0.033,0.122,0.015.248,0.024,0.373,0.035,0.063,0,.124.012,0.187,0.016,0.19,0.012.381,0.018,0.575,0.018s0.385-.006.574-0.018c0.063,0,.124-0.012.186-0.017,0.125-.01.251-0.02,0.374-0.035,0.073-.009.143-0.021,0.215-0.032,0.11-.017.22-0.032,0.328-0.051,0.077-.014.15-0.032,0.226-0.048,0.1-.021.2-0.041,0.3-0.065,0.075-.019.147-0.042,0.221-0.063,0.093-.025.188-0.051,0.279-0.08,0.072-.023.141-0.049,0.212-0.074,0.087-.031.176-0.061,0.26-0.095s0.138-.058.206-0.088,0.161-.068.237-0.105,0.129-.066.194-0.1,0.147-.076.217-0.117,0.118-.073.177-0.11,0.135-.084.2-0.128,0.107-.08.16-0.12,0.121-.09.176-0.137,0.095-.086.141-0.129,0.105-.1.154-0.147,0.081-.091.121-0.137,0.088-.1.128-0.153,0.068-.1.1-0.146,0.071-.105.1-0.158,0.051-.1.076-0.152,0.053-.11.074-0.165,0.035-.1.051-0.158,0.034-.113.045-0.17,0.017-.108.024-0.161c0.005-.037.008-0.075,0.01-0.113-0.029.027-.064,0.05-0.094,0.076-0.1.087-.2,0.172-0.314,0.254-0.062.046-.123,0.092-0.187,0.137-0.119.082-.245,0.161-0.373,0.238-0.06.036-.117,0.074-0.179,0.108-0.193.108-.393,0.21-0.6,0.3l-0.024.009c-0.2.09-.414,0.171-0.632,0.247-0.074.026-.151,0.048-0.227,0.072-0.157.05-.315,0.1-0.478,0.14-0.09.023-.181,0.044-0.274,0.065-0.157.037-.318,0.069-0.48,0.1-0.1.016-.189,0.033-0.286,0.047q-0.264.039-.536,0.064c-0.087.008-.17,0.019-0.257,0.025-0.269.02-.541,0.032-0.819,0.032s-0.551-.012-0.821-0.033c-0.086-.006-0.17-0.017-0.256-0.025-0.181-.018-0.361-0.037-0.537-0.064-0.1-.014-0.19-0.03-0.285-0.047-0.163-.03-0.323-0.062-0.481-0.1-0.092-.021-0.183-0.042-0.273-0.065-0.164-.043-0.322-0.09-0.478-0.14-0.076-.024-0.153-0.046-0.228-0.072q-0.327-.113-0.633-0.247l-0.023-.009c-0.21-.093-0.409-0.2-0.6-0.3-0.062-.034-0.119-0.071-0.179-0.107-0.129-.078-0.255-0.156-0.374-0.24-0.064-.044-0.125-0.09-0.186-0.136-0.11-.082-0.214-0.167-0.315-0.254-0.03-.026-0.064-0.05-0.093-0.076C103.276,659.7,103.279,659.734,103.284,659.771Zm0-2.711c0.007,0.054.013,0.109,0.024,0.162a1.722,1.722,0,0,0,.045.171c0.016,0.052.031,0.105,0.05,0.157s0.049,0.11.075,0.165,0.048,0.1.076,0.152,0.067,0.106.1,0.159,0.064,0.1.1,0.145,0.084,0.1.128,0.154,0.078,0.092.121,0.137,0.1,0.1.153,0.146,0.091,0.087.141,0.129,0.116,0.092.176,0.137,0.1,0.082.16,0.12,0.132,0.086.2,0.128,0.116,0.075.177,0.11,0.144,0.078.217,0.117,0.127,0.069.194,0.1,0.158,0.071.237,0.106,0.135,0.06.206,0.088,0.173,0.063.26,0.094c0.071,0.025.14,0.051,0.212,0.074,0.091,0.03.186,0.055,0.28,0.081,0.074,0.02.145,0.043,0.22,0.062,0.1,0.024.2,0.044,0.3,0.066,0.076,0.015.149,0.033,0.225,0.048,0.108,0.019.219,0.034,0.329,0.05,0.072,0.011.142,0.024,0.215,0.033,0.122,0.015.248,0.024,0.373,0.035,0.063,0,.124.013,0.187,0.017,0.19,0.011.381,0.017,0.575,0.017s0.385-.006.574-0.018c0.063,0,.124-0.012.186-0.017,0.125-.01.251-0.02,0.374-0.035,0.073-.008.143-0.021,0.215-0.032,0.11-.016.22-0.031,0.328-0.051,0.077-.014.15-0.032,0.226-0.048,0.1-.021.2-0.041,0.3-0.065,0.075-.019.147-0.042,0.221-0.063,0.093-.025.188-0.05,0.279-0.08,0.072-.023.141-0.049,0.212-0.074,0.087-.031.176-0.061,0.26-0.094s0.138-.059.206-0.088,0.161-.069.237-0.106,0.129-.066.194-0.1,0.147-.076.217-0.117,0.118-.073.177-0.11,0.135-.083.2-0.128,0.107-.08.16-0.12,0.121-.09.176-0.137,0.095-.086.141-0.129,0.105-.1.154-0.146,0.081-.092.121-0.138,0.088-.1.128-0.153,0.068-.1.1-0.145,0.071-.1.1-0.159,0.051-.1.076-0.152,0.053-.11.074-0.165,0.035-.1.051-0.157,0.034-.114.045-0.171,0.017-.108.024-0.161c0.005-.037.008-0.075,0.01-0.113-0.029.027-.064,0.05-0.094,0.076-0.1.087-.2,0.172-0.314,0.254-0.062.046-.123,0.092-0.187,0.137-0.119.083-.245,0.161-0.373,0.238-0.06.036-.117,0.074-0.179,0.108-0.193.108-.393,0.21-0.6,0.3l-0.024.009c-0.2.09-.414,0.171-0.632,0.247-0.074.026-.151,0.048-0.227,0.072-0.157.05-.315,0.1-0.478,0.14-0.09.023-.181,0.044-0.274,0.066-0.157.036-.318,0.068-0.48,0.1-0.1.016-.189,0.033-0.286,0.048-0.176.025-.355,0.046-0.536,0.063-0.087.008-.17,0.019-0.257,0.025-0.269.02-.541,0.032-0.819,0.032s-0.551-.012-0.821-0.033c-0.086-.006-0.17-0.017-0.256-0.025-0.181-.018-0.361-0.037-0.537-0.064-0.1-.014-0.19-0.03-0.285-0.047-0.163-.029-0.323-0.062-0.481-0.1-0.092-.021-0.183-0.042-0.273-0.065-0.164-.043-0.322-0.09-0.478-0.14-0.076-.024-0.153-0.046-0.228-0.071-0.218-.076-0.429-0.158-0.633-0.248l-0.023-.009c-0.21-.093-0.409-0.2-0.6-0.3-0.062-.035-0.119-0.072-0.179-0.108-0.129-.078-0.255-0.156-0.374-0.24-0.064-.044-0.125-0.09-0.186-0.136-0.11-.082-0.214-0.167-0.315-0.254-0.03-.026-0.064-0.05-0.093-0.076C103.276,656.985,103.279,657.022,103.284,657.06Zm0-2.712c0.007,0.054.013,0.109,0.024,0.162a1.722,1.722,0,0,0,.045.171c0.016,0.052.031,0.1,0.05,0.157s0.049,0.11.075,0.165,0.048,0.1.076,0.152,0.067,0.107.1,0.159,0.064,0.1.1,0.145,0.084,0.1.128,0.154,0.078,0.092.121,0.137,0.1,0.1.153,0.146,0.091,0.087.141,0.129,0.116,0.092.176,0.138,0.1,0.081.16,0.12,0.132,0.085.2,0.127,0.116,0.075.177,0.11,0.144,0.079.217,0.117,0.127,0.069.194,0.1,0.158,0.071.237,0.106,0.135,0.06.206,0.088,0.173,0.063.26,0.094c0.071,0.025.14,0.051,0.212,0.075,0.091,0.029.186,0.054,0.28,0.08,0.074,0.021.145,0.043,0.22,0.062,0.1,0.024.2,0.045,0.3,0.066,0.076,0.015.149,0.034,0.225,0.048,0.108,0.019.219,0.034,0.329,0.051,0.072,0.011.142,0.023,0.215,0.032,0.122,0.015.248,0.025,0.373,0.035,0.063,0,.124.013,0.187,0.017,0.19,0.011.381,0.017,0.575,0.017s0.385-.006.574-0.017c0.063,0,.124-0.011.186-0.017,0.125-.01.251-0.019,0.374-0.034,0.073-.009.143-0.022,0.215-0.033,0.11-.016.22-0.031,0.328-0.051,0.077-.013.15-0.031,0.226-0.048,0.1-.021.2-0.04,0.3-0.065,0.075-.019.147-0.041,0.221-0.062,0.093-.026.188-0.051,0.279-0.08,0.072-.023.141-0.05,0.212-0.075,0.087-.031.176-0.061,0.26-0.094s0.138-.058.206-0.088,0.161-.068.237-0.105,0.129-.067.194-0.1,0.147-.076.217-0.117,0.118-.073.177-0.111,0.135-.083.2-0.127,0.107-.08.16-0.12,0.121-.09.176-0.138,0.095-.085.141-0.129,0.105-.1.154-0.146,0.081-.091.121-0.137,0.088-.1.128-0.153,0.068-.1.1-0.146,0.071-.105.1-0.158,0.051-.1.076-0.152,0.053-.11.074-0.166,0.035-.1.051-0.157,0.034-.113.045-0.17,0.017-.109.024-0.163c0.005-.037.008-0.075,0.01-0.113-0.029.027-.064,0.05-0.094,0.077-0.1.086-.2,0.171-0.314,0.253-0.062.046-.123,0.092-0.187,0.137-0.119.083-.245,0.161-0.373,0.239-0.06.036-.117,0.073-0.179,0.107-0.193.108-.393,0.21-0.6,0.3l-0.024.01q-0.3.133-.632,0.246c-0.074.026-.151,0.048-0.227,0.072-0.157.05-.315,0.1-0.478,0.14-0.09.024-.181,0.045-0.274,0.066-0.157.036-.318,0.068-0.48,0.1-0.1.017-.189,0.033-0.286,0.048-0.176.025-.355,0.046-0.536,0.063-0.087.009-.17,0.019-0.257,0.026-0.269.019-.541,0.031-0.819,0.031s-0.551-.012-0.82-0.033c-0.086-.006-0.17-0.017-0.256-0.025-0.181-.017-0.36-0.037-0.536-0.064-0.1-.014-0.191-0.03-0.285-0.047-0.163-.029-0.324-0.062-0.481-0.1-0.093-.021-0.184-0.042-0.274-0.065-0.163-.043-0.321-0.09-0.478-0.139-0.076-.025-0.153-0.046-0.227-0.072-0.218-.075-0.43-0.158-0.634-0.248a0.2,0.2,0,0,1-.022-0.009c-0.21-.093-0.41-0.195-0.6-0.3-0.062-.035-0.119-0.072-0.178-0.108-0.129-.077-0.255-0.156-0.375-0.24-0.064-.043-0.125-0.09-0.186-0.136-0.109-.082-0.214-0.166-0.316-0.254-0.03-.026-0.064-0.049-0.093-0.076C103.276,654.273,103.279,654.31,103.284,654.348Zm2.485-7.172,0.036-.012c0.107-.036.215-0.071,0.326-0.1s0.2-.054.3-0.08,0.226-.057.342-0.082,0.21-.042.316-0.062,0.237-.042.358-0.059,0.219-.029.329-0.042,0.247-.026.372-0.037,0.226-.015.34-0.02c0.07,0,.138-0.011.209-0.013v-0.005a8.08,8.08,0,0,0-1.27-4.344,8.287,8.287,0,0,0-1.242-1.517c-0.06-.058-0.124-0.113-0.187-0.17-0.164-.148-0.334-0.288-0.508-0.423-0.088-.067-0.175-0.134-0.265-0.2-0.18-.126-0.366-0.242-0.554-0.353-0.077-.045-0.151-0.1-0.23-0.139a7.762,7.762,0,0,0-.793-0.376c-0.1-.041-0.2-0.075-0.306-0.112-0.192-.07-0.385-0.135-0.582-0.19q-0.168-.048-0.336-0.087c-0.208-.049-0.417-0.088-0.629-0.121-0.1-.015-0.2-0.034-0.3-0.045a7.424,7.424,0,0,0-1.9,0c-0.1.011-.2,0.03-0.3,0.045-0.212.033-.421,0.072-0.628,0.121-0.113.027-.225,0.055-0.336,0.087-0.2.055-.391,0.12-0.582,0.19-0.1.037-.206,0.071-0.306,0.112a8.17,8.17,0,0,0-.793.376c-0.079.042-.153,0.094-0.23,0.139-0.189.111-.374,0.227-0.554,0.353-0.09.064-.177,0.131-0.265,0.2-0.175.135-.345,0.275-0.509,0.423-0.062.057-.126,0.112-0.187,0.17-0.138.132-.264,0.278-0.393,0.421l2.121,2.323a1.138,1.138,0,0,0,.808.4,0.882,0.882,0,0,0,.226-0.029c0.046-.045.092-0.105,0.148-0.171a2.693,2.693,0,0,1,2.05-1.155,4.056,4.056,0,0,1,2.22.66,4.064,4.064,0,0,1,2.725-.633l0.28,0.082,0.133,0.259A6.937,6.937,0,0,1,105.769,647.176Zm1.57-7.15V635.8a4.42,4.42,0,0,1-4.063-4.055H97.817a4.419,4.419,0,0,1-4.063,4.055v4.225c0.01-.011.021-0.019,0.031-0.029,0.114-.116.237-0.222,0.357-0.331s0.228-.217.349-0.318c0.044-.036.092-0.067,0.137-0.1a9.433,9.433,0,0,1,4.883-2.017c0.022,0,.043-0.008.066-0.01,0.32-.032.643-0.049,0.97-0.049a9.7,9.7,0,0,1,.969.049c0.023,0,.044.008,0.066,0.01a9.432,9.432,0,0,1,4.883,2.017c0.045,0.036.093,0.067,0.137,0.1,0.12,0.1.233,0.211,0.349,0.318s0.243,0.215.357,0.331C107.318,640.007,107.329,640.015,107.339,640.026Zm-3.179,3.893a3.016,3.016,0,0,0-1.4.522l-0.341.963-0.727-.746a2.713,2.713,0,0,0-1.826-.709,1.4,1.4,0,0,0-1.014.675,1.628,1.628,0,0,1-.671.555,2.319,2.319,0,0,1-.718.125,2.513,2.513,0,0,1-1.834-.848l-1.96-2.146,0,0.006c-0.061.1-.12,0.192-0.177,0.291s-0.1.179-.153,0.271c-0.093.177-.181,0.357-0.261,0.542-0.028.063-.054,0.128-0.08,0.193-0.071.175-.136,0.352-0.2,0.533-0.016.048-.033,0.1-0.048,0.145-0.071.232-.132,0.469-0.183,0.709-0.007.031-.011,0.063-0.017,0.1-0.041.209-.073,0.42-0.1,0.634-0.007.062-.014,0.124-0.02,0.186-0.022.246-.038,0.494-0.038,0.746s0.016,0.5.038,0.745c0.005,0.062.013,0.124,0.02,0.186,0.024,0.213.056,0.425,0.1,0.634,0.006,0.031.01,0.064,0.017,0.1,0.05,0.24.112,0.475,0.183,0.707,0.016,0.05.033,0.1,0.049,0.149,0.058,0.179.124,0.354,0.194,0.527,0.027,0.066.053,0.134,0.082,0.2,0.077,0.179.162,0.352,0.253,0.524,0.055,0.1.113,0.2,0.173,0.306s0.109,0.182.165,0.271l0,0.006,1.937-2.126a2.376,2.376,0,0,1,2.6-.742,2.986,2.986,0,0,1,.9.69c0.177,0.163.458,0.421,0.6,0.528l0.273,0.031,0.156,0.364a0.869,0.869,0,0,0,.546.6,2.3,2.3,0,0,0,1.623-.531,0.109,0.109,0,0,1,.008-0.015c0.043-.082.083-0.166,0.133-0.246,0.039-.063.085-0.124,0.128-0.185s0.1-.153.161-0.226,0.1-.12.155-0.178,0.122-.142.189-0.21,0.12-.113.181-0.169,0.14-.13.216-0.192,0.136-.105.205-0.158,0.157-.119.241-0.176c0.045-.031.093-0.061,0.14-0.091A5.193,5.193,0,0,0,104.16,643.919Zm-2.415,12.147c-0.178.024-.354,0.033-0.531,0.046s-0.379.032-.567,0.034c-0.033,0-.067.006-0.1,0.006-0.21,0-.415-0.018-0.621-0.031-0.112-.007-0.226-0.007-0.337-0.017a9.561,9.561,0,0,1-.994-0.155c-0.129-.027-0.254-0.066-0.382-0.1-0.206-.052-0.412-0.105-0.613-0.171-0.142-.046-0.281-0.1-0.42-0.153-0.181-.069-0.359-0.14-0.535-0.219-0.141-.063-0.278-0.13-0.416-0.2-0.17-.086-0.335-0.179-0.5-0.276-0.13-.076-0.26-0.151-0.386-0.234-0.182-.119-0.356-0.249-0.529-0.38-0.1-.072-0.194-0.137-0.286-0.213a9.811,9.811,0,0,1-.749-0.683c-0.008-.009-0.019-0.016-0.028-0.025v4.224a4.419,4.419,0,0,1,4.063,4.055h4.088v-5.523C101.853,656.06,101.8,656.06,101.745,656.066Zm0.16-1.4v-3.119a2.575,2.575,0,0,1-1.6.116,2.147,2.147,0,0,1-1.311-1.144,7.806,7.806,0,0,1-.808-0.689c-0.151-.139-0.372-0.341-0.474-0.421-0.031-.008-0.062-0.015-0.094-0.02a1.146,1.146,0,0,0-1,.409l-2.1,2.3c0.129,0.143.256,0.289,0.394,0.422,0.061,0.058.124,0.113,0.187,0.169,0.164,0.149.334,0.289,0.509,0.423,0.088,0.068.174,0.135,0.265,0.2,0.179,0.127.365,0.242,0.553,0.354,0.078,0.045.151,0.1,0.23,0.139a7.737,7.737,0,0,0,.793.376c0.1,0.041.2,0.074,0.306,0.112,0.191,0.07.385,0.135,0.582,0.19q0.167,0.048.336,0.087c0.207,0.049.416,0.088,0.628,0.121,0.1,0.015.2,0.034,0.3,0.045a8.079,8.079,0,0,0,.95.06,7.91,7.91,0,0,0,.811-0.048c0.109-.011.219-0.027,0.328-0.043C101.759,654.7,101.832,654.679,101.905,654.666Zm8.831-8.683V628.356H90.358v36.61h12.795a4.178,4.178,0,0,1-1.012-1.5c-0.021-.055-0.043-0.108-0.062-0.163s-0.04-.135-0.058-0.2-0.03-.113-0.042-0.17H96.392l0.066-.738c0.007-.092.014-0.185,0.014-0.279a3.058,3.058,0,0,0-3.057-3.051c-0.094,0-.185.006-0.277,0.015l-0.742.067v-7.421l-0.028-.046c-0.09-.152-0.179-0.3-0.261-0.462-0.1-.2-0.205-0.4-0.295-0.61-0.033-.076-0.06-0.154-0.092-0.232-0.079-.2-0.153-0.394-0.219-0.6-0.027-.084-0.052-0.17-0.077-0.255-0.058-.2-0.111-0.4-0.156-0.6-0.02-.091-0.039-0.181-0.057-0.272-0.04-.21-0.071-0.421-0.1-0.635-0.01-.085-0.024-0.169-0.032-0.255-0.028-.3-0.046-0.6-0.046-0.9s0.018-.6.046-0.9c0.008-.086.022-0.17,0.032-0.255,0.026-.214.057-0.425,0.1-0.636,0.017-.09.037-0.181,0.057-0.271,0.045-.2.1-0.4,0.156-0.6,0.025-.086.05-0.171,0.077-0.256,0.065-.2.139-0.4,0.219-0.6,0.031-.077.058-0.156,0.092-0.232,0.09-.206.189-0.409,0.295-0.61,0.082-.157.171-0.309,0.261-0.461L92.4,641.8v-7.422l0.742,0.068c0.092,0.008.183,0.014,0.277,0.014a3.057,3.057,0,0,0,3.057-3.05c0-.1-0.007-0.188-0.014-0.28l-0.066-.737H104.7l-0.066.737c-0.008.092-.014,0.185-0.014,0.28a3.056,3.056,0,0,0,3.056,3.05c0.094,0,.186-0.006.277-0.014l0.742-.068V641.8a9.4,9.4,0,0,1,1.359,4.864c0,0.018,0,.034,0,0.051,0.231,0.022.457,0.049,0.68,0.084h0v-0.813Zm1.341,2.563a7.624,7.624,0,0,0-.851-0.266,9.031,9.031,0,0,0-1.057-.195l-0.03,0a9.351,9.351,0,0,0-1.1-.066,8.057,8.057,0,0,0-4.178,1.082c-0.135.084-.263,0.171-0.381,0.262l-0.084.065a3.207,3.207,0,0,0-.928,1.124,2.029,2.029,0,0,0-.2.857c0,1.837,2.644,3.389,5.774,3.389s5.773-1.552,5.773-3.389a1.87,1.87,0,0,0-.035-0.357c0-.024-0.014-0.049-0.02-0.073a1.978,1.978,0,0,0-.083-0.283c-0.007-.02-0.017-0.038-0.025-0.057a2.427,2.427,0,0,0-.148-0.3l-0.022-.035A2.727,2.727,0,0,0,114.26,650l-0.021-.025a4.147,4.147,0,0,0-.923-0.807c-0.037-.024-0.073-0.049-0.111-0.072a5.643,5.643,0,0,0-.533-0.295c-0.066-.033-0.138-0.062-0.208-0.092C112.339,648.648,112.21,648.6,112.077,648.546Zm0.7-20.19h-0.68v12.1a5.861,5.861,0,0,1,.68-0.539V628.356Zm2.037,0h-0.679v10.858q0.328-.132.679-0.24V628.356Zm2.038,0H116.17v10.3c0.222-.035.449-0.063,0.679-0.084V628.356Zm1.022,11.525-0.319.012q-0.489.016-.959,0.08l-0.036,0a8.786,8.786,0,0,0-.869.166,0.233,0.233,0,0,1-.036.008,7.609,7.609,0,0,0-.944.3c-0.018.007-.037,0.013-0.055,0.021a6.124,6.124,0,0,0-.852.417,4.856,4.856,0,0,0-.725.517c-0.024.021-.045,0.045-0.069,0.066-0.076.069-.151,0.139-0.217,0.211-0.044.047-.08,0.1-0.12,0.143s-0.085.1-.121,0.149-0.084.126-.123,0.191c-0.023.038-.05,0.076-0.072,0.115a2.321,2.321,0,0,0-.1.217c-0.015.035-.033,0.068-0.045,0.1a1.991,1.991,0,0,0-.063.235c-0.008.031-.019,0.063-0.025,0.094a1.989,1.989,0,0,0-.03.336c0,1.837,2.645,3.39,5.774,3.39s5.773-1.553,5.773-3.39S121,639.883,117.871,639.881Zm-10.192-6.1a2.373,2.373,0,1,1,2.378-2.373A2.378,2.378,0,0,1,107.679,633.78Zm0-3.39a1.017,1.017,0,1,0,1.019,1.017A1.019,1.019,0,0,0,107.679,630.39Zm-14.264,3.39a2.373,2.373,0,1,1,2.377-2.373A2.378,2.378,0,0,1,93.415,633.78Zm0-3.39a1.017,1.017,0,1,0,1.019,1.017A1.019,1.019,0,0,0,93.415,630.39Zm0,29.152a2.373,2.373,0,1,1-2.377,2.373A2.378,2.378,0,0,1,93.415,659.542Zm0,3.39a1.017,1.017,0,1,0-1.019-1.017A1.019,1.019,0,0,0,93.415,662.932Z" transform="translate(-89 -627)"/>
</svg>
