<svg xmlns="http://www.w3.org/2000/svg" width="48.031" height="42" viewBox="0 0 48.031 42">
  <defs>
    <style>
      .cls-1 {
        fill: #db5e37;
        fill-rule: evenodd;
      }
    </style>
  </defs>
  <path id="Forma_1" data-name="Forma 1" class="cls-1" d="M128.744,331.839a6.737,6.737,0,0,1-5.63-1.286,6.681,6.681,0,0,1-2.381-3.778l-0.526-2.333a5.222,5.222,0,0,1-8.149-1.7h-4.08a5.224,5.224,0,0,1-8.16,1.693l-0.553,2.35a6.673,6.673,0,0,1-2.379,3.77,6.736,6.736,0,0,1-5.63,1.286,6.677,6.677,0,0,1-5.1-7.957l3.787-16.721a6.624,6.624,0,0,1,2.948-4.178,6.731,6.731,0,0,1,9.193,1.942h4.974v-1.586h-4.554a2.2,2.2,0,0,1-2.207-2.192v-8.954A2.2,2.2,0,0,1,102.506,290H117.53a2.2,2.2,0,0,1,2.207,2.192v8.954a2.2,2.2,0,0,1-2.207,2.192h-4.554v1.586h4.976a6.733,6.733,0,0,1,9.194-1.942,6.627,6.627,0,0,1,2.948,4.18l3.748,16.719A6.677,6.677,0,0,1,128.744,331.839Zm-11.965-7.513a3.777,3.777,0,1,0-3.8-3.777A3.794,3.794,0,0,0,116.779,324.326Zm-13.521,0a3.777,3.777,0,1,0-3.8-3.777A3.794,3.794,0,0,0,103.258,324.326Zm14.272-22.387a0.8,0.8,0,0,0,.8-0.793v-8.953a0.8,0.8,0,0,0-.8-0.793h-0.46l-1.3,1.288a0.707,0.707,0,0,1-1,0,0.7,0.7,0,0,1,0-.99l0.3-.3H102.506a0.8,0.8,0,0,0-.8.792v8.954a0.8,0.8,0,0,0,.8.792h1.962l8.057-8a0.708,0.708,0,0,1,1,0,0.7,0.7,0,0,1,0,.99l-7.06,7.013H117.53Zm-9.061,1.4v1.586h3.1v-1.586h-3.1Zm24,20.846-3.748-16.719a5.233,5.233,0,0,0-2.33-3.3,5.315,5.315,0,0,0-7.435,1.812,0.706,0.706,0,0,1-.61.35H101.694a0.707,0.707,0,0,1-.61-0.35,5.308,5.308,0,0,0-9.765,1.491l-3.787,16.721a5.275,5.275,0,0,0,4.028,6.285,5.385,5.385,0,0,0,1.156.127,5.329,5.329,0,0,0,5.173-4.128l0.805-3.422a5.136,5.136,0,0,1-.024-4.958A5.921,5.921,0,1,1,99.8,306.986a0.7,0.7,0,0,1,.335.932,0.708,0.708,0,0,1-.939.333,4.519,4.519,0,1,0,2.6,4.089,4.459,4.459,0,0,0-.438-1.94c-0.064-.132-0.135-0.264-0.212-0.39a0.7,0.7,0,0,1,.24-0.961,0.708,0.708,0,0,1,.967.239,5.6,5.6,0,0,1,.277.511,5.886,5.886,0,0,1-.321,5.659,5.292,5.292,0,0,1,.94-0.086,5.176,5.176,0,0,1,5.151,5.968h3.219a5.288,5.288,0,0,1-.06-0.791,5.2,5.2,0,0,1,5.211-5.177,5.253,5.253,0,0,1,.944.087,5.856,5.856,0,0,1-.9-3.119,5.971,5.971,0,0,1,8.515-5.354,0.7,0.7,0,0,1,.335.932,0.706,0.706,0,0,1-.939.333,4.519,4.519,0,1,0,2.6,4.089,4.454,4.454,0,0,0-.438-1.939c-0.064-.133-0.135-0.264-0.212-0.391a0.7,0.7,0,0,1,.24-0.96,0.708,0.708,0,0,1,.968.238,5.726,5.726,0,0,1,.276.512,5.831,5.831,0,0,1,.575,2.54,5.949,5.949,0,0,1-5.962,5.923,6.022,6.022,0,0,1-1.424-.172,5.136,5.136,0,0,1-.026,4.962l0.771,3.418a5.308,5.308,0,0,0,6.329,4A5.274,5.274,0,0,0,132.466,324.185Zm-6.674-11.145h-0.751a0.7,0.7,0,1,1,0-1.4h0.751A0.7,0.7,0,1,1,125.792,313.04Zm-3,2.985a0.7,0.7,0,0,1-.7-0.7v-0.746a0.7,0.7,0,0,1,1.409,0v0.746A0.7,0.7,0,0,1,122.788,316.025Zm0-5.223a0.7,0.7,0,0,1-.7-0.7v-0.746a0.7,0.7,0,0,1,1.409,0V310.1A0.7,0.7,0,0,1,122.788,310.8Zm-2.254,2.238h-0.751a0.7,0.7,0,1,1,0-1.4h0.751A0.7,0.7,0,1,1,120.534,313.04Zm-6.009,0h-9.011a0.7,0.7,0,1,1,0-1.4h9.011A0.7,0.7,0,1,1,114.525,313.04Zm-14.269,0H99.5a0.7,0.7,0,1,1,0-1.4h0.752A0.7,0.7,0,1,1,100.256,313.04Zm-3.005,2.985a0.7,0.7,0,0,1-.7-0.7v-0.746a0.7,0.7,0,0,1,1.409,0v0.746A0.7,0.7,0,0,1,97.251,316.025Zm0-5.223a0.7,0.7,0,0,1-.7-0.7v-0.746a0.7,0.7,0,0,1,1.409,0V310.1A0.7,0.7,0,0,1,97.251,310.8ZM95,313.04H94.246a0.7,0.7,0,1,1,0-1.4H95A0.7,0.7,0,1,1,95,313.04Zm8.26,5.317a0.7,0.7,0,1,1,0,1.4,0.792,0.792,0,1,0,.8.792,0.7,0.7,0,0,1,1.409,0A2.207,2.207,0,1,1,103.257,318.357Zm13.522,0a0.7,0.7,0,1,1,0,1.4,0.792,0.792,0,1,0,.8.792,0.7,0.7,0,0,1,1.409,0A2.207,2.207,0,1,1,116.779,318.357Z" transform="translate(-86 -290)"/>
</svg>
