<svg xmlns="http://www.w3.org/2000/svg" width="80" height="65" viewBox="0 0 80 65">
  <defs>
    <style>
      .cls-1 {
        fill: #db5e37;
        fill-rule: evenodd;
      }
    </style>
  </defs>
  <path class="cls-1" d="M255.923,203.2c0,0.077-.077.077-0.077,0.153s-0.076.077-.076,0.153-0.077.076-.077,0.153c-0.077.076-.077,0.076,0,0.153-0.077,0-.077.076-0.154,0.076l-0.077.077c-0.077,0-.077.076-0.154,0.076s-0.076.077-.153,0.077a33.016,33.016,0,0,0-.308.153h-4.226a13.108,13.108,0,0,1-11.605-6.959l-0.23-.459a17.272,17.272,0,0,0-9.376-8.183l-3.381-1.3V224a1.282,1.282,0,0,1-.231.764c1.23,4.742-3,9.865-9.606,11.624a17.157,17.157,0,0,1-4.3.612,14.446,14.446,0,0,1-4.534-.765,7.894,7.894,0,0,1-5.379-5.276c-1.23-4.742,2.92-9.942,9.606-11.7a15.062,15.062,0,0,1,8.838.153,7.923,7.923,0,0,1,2.536,1.3V173.528a1.592,1.592,0,0,1,.615-1.224,1.5,1.5,0,0,1,1.383-.229l6.3,1.835a24.715,24.715,0,0,1,16.753,16.671l0.307,0.841a16.819,16.819,0,0,0,5.3,8.336l1.921,1.682c0,0.077.077,0.077,0.077,0.153l0.077,0.077c0,0.076.077,0.076,0.077,0.153s0.076,0.076.076,0.153a64.752,64.752,0,0,0,.154.305v0.765A0.153,0.153,0,0,0,255.923,203.2ZM222.8,225.682a4.949,4.949,0,0,0-3.458-3.135,10.227,10.227,0,0,0-3.458-.536,14.008,14.008,0,0,0-3.535.459c-4.842,1.224-8.223,4.894-7.378,7.953a4.95,4.95,0,0,0,3.458,3.136,12.033,12.033,0,0,0,6.994.076C220.265,232.335,223.646,228.664,222.8,225.682Zm22.517-33.342-0.307-.841a21.6,21.6,0,0,0-14.679-14.606l-4.3-1.224v8.412l4.457,1.759a19.841,19.841,0,0,1,11.066,9.635l0.231,0.459a9.53,9.53,0,0,0,8.684,5.124A19.027,19.027,0,0,1,245.318,192.34Zm-29.2,8.106H185.3a1.53,1.53,0,1,1,0-3.059h30.816A1.53,1.53,0,1,1,216.115,200.446ZM185.3,188.211h24.668a1.529,1.529,0,1,1,0,3.058H185.3A1.529,1.529,0,1,1,185.3,188.211Zm28.511-6.118H185.3a1.53,1.53,0,1,1,0-3.059H213.81A1.53,1.53,0,1,1,213.81,182.093Zm-33.968,27.53h-2.305a1.53,1.53,0,1,1,0-3.059h2.305A1.53,1.53,0,1,1,179.842,209.623Zm0-9.177h-2.305a1.53,1.53,0,1,1,0-3.059h2.305A1.53,1.53,0,1,1,179.842,200.446Zm0-9.177h-2.305a1.529,1.529,0,1,1,0-3.058h2.305A1.529,1.529,0,1,1,179.842,191.269Zm0-9.176h-2.305a1.53,1.53,0,1,1,0-3.059h2.305A1.53,1.53,0,1,1,179.842,182.093Zm5.457,24.471h20.826a1.53,1.53,0,1,1,0,3.059H185.3A1.53,1.53,0,1,1,185.3,206.564Z" transform="translate(-176 -172)"/>
</svg>
