<svg xmlns="http://www.w3.org/2000/svg" width="48" height="40" viewBox="0 0 48 40">
  <defs>
    <style>
      .cls-1 {
        fill: #db5e37;
        fill-rule: evenodd;
      }
    </style>
  </defs>
  <path class="cls-1" d="M375,140H350.592a1,1,0,0,1-1-1v-5.9a5.5,5.5,0,0,1,5.3-5.481c0.032,0,.065-0.005.1-0.005a4.237,4.237,0,0,0,4.206-3.739,7.59,7.59,0,0,1-1.188-1.067,9.88,9.88,0,0,1-1.992-3.523c-0.114.161-.218,0.324-0.3,0.455a1,1,0,0,1-1.762-.105,12.028,12.028,0,0,1-.974-3.375,11.76,11.76,0,0,1-.112-1.319,11.622,11.622,0,0,1,2.287-7.468,8.156,8.156,0,0,1,6.223-3.363,7.5,7.5,0,0,1,3.361.673c0.045,0,.319-0.012.429-0.008a7.389,7.389,0,0,1,5.533,2.7,10.479,10.479,0,0,1,.33,12.868,1,1,0,0,1-1.745-.321,8.871,8.871,0,0,1-2.9,3.845,4.236,4.236,0,0,0,4.207,3.743c0.033,0,.066,0,0.1.005A5.5,5.5,0,0,1,376,133.1V139A1,1,0,0,1,375,140Zm-4.664-23.868c0.116,0.243.221,0.491,0.316,0.742a8.649,8.649,0,0,0,.428-3.015,8.165,8.165,0,0,0-1.889-5.08,5.412,5.412,0,0,0-4.05-2.011l-0.547.025a1.028,1.028,0,0,1-.482-0.1,5.741,5.741,0,0,0-2.665-.587,6.19,6.19,0,0,0-4.7,2.584,9.625,9.625,0,0,0-1.875,6.189,9.512,9.512,0,0,0,.094,1.1,10.342,10.342,0,0,0,.231,1.18,8.828,8.828,0,0,1,2.963-1.946,7.926,7.926,0,0,1,2.51-.49c0.176,0,.355,0,0.531,0a2.985,2.985,0,0,0,2.753-1.449,7.48,7.48,0,0,0,.48-1.039,1,1,0,0,1,1.325-.573A8.912,8.912,0,0,1,370.336,116.132Zm-2.21.219a0.65,0.65,0,0,1,.012-0.09,6.95,6.95,0,0,0-2.278-2.309c-0.052.1-.105,0.2-0.16,0.3a4.969,4.969,0,0,1-4.567,2.468c-0.132,0-.266,0-0.4,0a5.769,5.769,0,0,0-3.077.985c0.686,3.154,2.78,5.386,5.134,5.387a4.579,4.579,0,0,0,3.491-1.848A8.878,8.878,0,0,0,368.126,116.351Zm-3.595,8.464a5.75,5.75,0,0,1-3.47,0,6.237,6.237,0,0,1-2.982,3.974,4.9,4.9,0,0,0,9.435,0A6.242,6.242,0,0,1,364.531,124.815ZM374,133.1a3.5,3.5,0,0,0-3.5-3.491c-0.034,0-.067,0-0.1,0a6.32,6.32,0,0,1-1.009-.113,6.9,6.9,0,0,1-13.191,0,6.333,6.333,0,0,1-1.01.113c-0.032,0-.065,0-0.1,0a3.5,3.5,0,0,0-3.5,3.491v4.907H374V133.1Zm-24.994-11.031a1,1,0,0,1,.11.006,5.515,5.515,0,0,1,4.285,2.316,1,1,0,0,1-1.633,1.151,3.51,3.51,0,0,0-2.86-1.479,0.8,0.8,0,0,1-.1-0.005,6.2,6.2,0,0,1-2.049-.414l-4.735,6.816a1,1,0,0,1-1.643,0l-4.734-6.816a6.206,6.206,0,0,1-2.05.414,0.8,0.8,0,0,1-.1.005,3.5,3.5,0,0,0-3.5,3.491v4.908h16.667a1,1,0,1,1,0,2H329a1,1,0,0,1-1-1v-5.9a5.5,5.5,0,0,1,5.3-5.48c0.032,0,.065-0.005.1-0.005a4.237,4.237,0,0,0,4.206-3.739,9.819,9.819,0,0,1-3.655-6.681,1,1,0,0,1-.177-0.28,9.286,9.286,0,0,1-.4-1.208c-1.05-4.108.894-8.256,4.333-9.247a5.467,5.467,0,0,1,1.065-.2,6.954,6.954,0,0,1,3.072-.717,7.759,7.759,0,0,1,7.462,8.008,8.451,8.451,0,0,1-.659,3.3,1,1,0,0,1-.187.288,10.818,10.818,0,0,1-1.951,5.022,8,8,0,0,1-1.712,1.719A4.237,4.237,0,0,0,349.006,122.067Zm-7.159-20.073a5,5,0,0,0-2.337.587,1.017,1.017,0,0,1-.421.114,3.546,3.546,0,0,0-.824.133c-2.276.656-3.582,3.422-3.064,6.314a6.838,6.838,0,0,0,1.379-2.661,1.174,1.174,0,0,1,2.224-.145,1.193,1.193,0,0,0,1.111.748h5.229a3.582,3.582,0,0,1,2.16.723A5.743,5.743,0,0,0,341.847,101.994Zm3.056,13.434a9.235,9.235,0,0,0,1.669-5.453,1.589,1.589,0,0,0-1.428-.9h-5.229a3.172,3.172,0,0,1-1.911-.632l-0.01-.007a8.915,8.915,0,0,1-2.074,2.835,8.7,8.7,0,0,0,1.793,4.42,4.575,4.575,0,0,0,3.49,1.848A4.673,4.673,0,0,0,344.9,115.428Zm-1.963,3.846a5.808,5.808,0,0,1-3.472,0,6.216,6.216,0,0,1-2.091,3.358l3.826,5.51,3.827-5.51A6.22,6.22,0,0,1,342.94,119.274Z" transform="translate(-328 -100)"/>
</svg>
