<svg xmlns="http://www.w3.org/2000/svg" width="38" height="48" viewBox="0 0 38 48">
  <defs>
    <style>
      .cls-1 {
        fill: #db5e37;
        fill-rule: evenodd;
      }
    </style>
  </defs>
  <path class="cls-1" d="M132.417,783H97.583A1.574,1.574,0,0,1,96,781.435v-44.87A1.575,1.575,0,0,1,97.583,735h34.834A1.574,1.574,0,0,1,134,736.565v44.87A1.574,1.574,0,0,1,132.417,783Zm-1.584-44.87H99.167v41.739h31.666V738.13Zm-26.916,3.131a1.565,1.565,0,1,1-1.584,1.565A1.574,1.574,0,0,1,103.917,741.261Zm0,32.347a1.566,1.566,0,1,1-1.584,1.566A1.575,1.575,0,0,1,103.917,773.608ZM115,757.956a9.392,9.392,0,1,1-9.5,9.392A9.457,9.457,0,0,1,115,757.956Zm0,15.652a6.261,6.261,0,1,0-6.333-6.26A6.3,6.3,0,0,0,115,773.608Zm0-9.391a3.131,3.131,0,1,1-3.167,3.131A3.153,3.153,0,0,1,115,764.217Zm11.083,9.391a1.566,1.566,0,1,1-1.583,1.566A1.575,1.575,0,0,1,126.083,773.608Zm0-29.217a1.565,1.565,0,1,1,1.584-1.565A1.574,1.574,0,0,1,126.083,744.391ZM115,753.783a6.261,6.261,0,1,1,6.333-6.261A6.3,6.3,0,0,1,115,753.783Zm0-9.392a3.131,3.131,0,1,0,3.167,3.131A3.153,3.153,0,0,0,115,744.391Z" transform="translate(-96 -735)"/>
</svg>
