<svg xmlns="http://www.w3.org/2000/svg" width="48" height="47" viewBox="0 0 48 47">
  <defs>
    <style>
      .cls-1 {
        fill: #db5e37;
        fill-rule: evenodd;
      }
    </style>
  </defs>
  <path class="cls-1" d="M231.778,781.66a0.963,0.963,0,0,1-.734.34H184.956a0.963,0.963,0,0,1-.734-0.34,0.946,0.946,0,0,1-.207-0.776l0.925-5.056a13.943,13.943,0,0,1,3.932-7.437,14.172,14.172,0,0,1,7.4-3.872h0a14.357,14.357,0,0,1,2.633-.244h2.784a0.962,0.962,0,0,1,.676.277L208,770.134l5.635-5.581a0.958,0.958,0,0,1,.676-0.278H217.1a14.357,14.357,0,0,1,2.633.244,14.172,14.172,0,0,1,7.4,3.872,13.943,13.943,0,0,1,3.932,7.437l0.925,5.056A0.946,0.946,0,0,1,231.778,781.66Zm-30.485-15.491h-2.388c-0.124,0-.248,0-0.371.006l6.731,6.669,1.383-1.37Zm15.8,0h-2.388l-6.031,5.975-2.059,2.039,1.383,1.37,9.467-9.378Q217.281,766.169,217.1,766.169Zm12.083,10a12.283,12.283,0,0,0-9.316-9.684l-11.186,11.08a0.729,0.729,0,0,1-.072.065,0.961,0.961,0,0,1-1.207,0,0.738,0.738,0,0,1-.073-0.065l-11.186-11.08a12.283,12.283,0,0,0-9.316,9.684l-0.721,3.94h43.8Zm-31.313-15.014a0.952,0.952,0,0,1,.956.947v0.379a0.957,0.957,0,0,1-1.913,0V762.1A0.952,0.952,0,0,1,197.865,761.152Zm22.562-7.664c-0.012.156-.342,3.827-3.1,5.291a4.932,4.932,0,0,1-1.829.544,8.932,8.932,0,0,1-3.161,2.876,9.015,9.015,0,0,1-8.664,0,8.858,8.858,0,0,1-4.59-6.73h-0.257v3.789a0.956,0.956,0,0,1-1.912,0v-3.917a2.151,2.151,0,0,1-1.432-1.848l-0.364-4.2a2.156,2.156,0,0,1,.567-1.646,2.2,2.2,0,0,1,1.606-.7H198.5l-0.051-.768-0.248-3.769a6.847,6.847,0,0,1,1.882-5.207,6.982,6.982,0,0,1,5.124-2.2h5.582a6.98,6.98,0,0,1,5.123,2.2,6.848,6.848,0,0,1,1.883,5.207l-0.166,2.513-0.133,2.024h1.12a2.195,2.195,0,0,1,1.606.7,2.156,2.156,0,0,1,.567,1.646l-0.364,4.2h0Zm-21.8-4.65h-1.341a0.263,0.263,0,0,0-.2.086,0.26,0.26,0,0,0-.07.2l0.364,4.2a0.265,0.265,0,0,0,.267.243h1.288Zm2.312,6.016a6.975,6.975,0,0,0,3.651,5.686,7.128,7.128,0,0,0,8.622-1.4,12.448,12.448,0,0,1-2.771-1.058,2.363,2.363,0,1,1,1.193-2.048,2.319,2.319,0,0,1-.054.5,8.724,8.724,0,0,0,2.8.9,6.954,6.954,0,0,0,.679-2.58l0.61-9.256a18.926,18.926,0,0,1-3.825-1.237,5.554,5.554,0,0,1-1.654-1.21c-1.448,1.4-4.385,3.35-9.771,3.839Zm8.782,1.183a0.478,0.478,0,1,0-.478.474A0.477,0.477,0,0,0,209.721,756.037Zm1.07-19.143h-5.582a5.082,5.082,0,0,0-3.728,1.6,4.983,4.983,0,0,0-1.369,3.789L200.3,745.1c6.97-.645,9.142-3.883,9.382-4.277l1.481-3.913C211.038,736.9,210.915,736.894,210.791,736.894Zm3.728,1.6a5.11,5.11,0,0,0-1.5-1.1l-1.574,4.161,0,0,0,0.006a2.115,2.115,0,0,0,1.284,1.111,15.456,15.456,0,0,0,3.074,1l0.091-1.392A4.983,4.983,0,0,0,214.519,738.5Zm2.077,18.511a3.7,3.7,0,0,0,1.307-1.537h-0.981A8.766,8.766,0,0,1,216.6,757.006Zm2.22-8.082a0.265,0.265,0,0,0-.2-0.086h-1.245l-0.311,4.736h1.192a0.266,0.266,0,0,0,.268-0.243l0.364-4.2A0.264,0.264,0,0,0,218.816,748.924Z" transform="translate(-184 -735)"/>
</svg>
