<svg xmlns="http://www.w3.org/2000/svg" width="48" height="48" viewBox="0 0 48 48">
  <defs>
    <style>
      .cls-1 {
        fill: #db5e37;
        fill-rule: evenodd;
      }
    </style>
  </defs>
  <path class="cls-1" d="M130,133.2a4,4,0,0,1,0-8,0.8,0.8,0,1,1,0,1.6,2.4,2.4,0,1,0,2.4,2.4V115.825l-11.2,2.8V120.5l9.4-2.473a0.8,0.8,0,1,1,.408,1.547l-9.8,2.581V132.4a4,4,0,1,1-4-4,0.8,0.8,0,0,1,0,1.6,2.4,2.4,0,1,0,2.4,2.4V118a0.8,0.8,0,0,1,.606-0.776l12.8-3.2a0.8,0.8,0,0,1,.994.776v14.4A4.005,4.005,0,0,1,130,133.2ZM110.8,162h-9.6a0.8,0.8,0,0,1-.8-0.8V158a0.8,0.8,0,0,1,.8-0.8h9.6a0.8,0.8,0,0,1,.8.8v3.2A0.8,0.8,0,0,1,110.8,162Zm-0.8-3.2h-8v1.6h8v-1.6Zm0.8-4.8h-9.6a0.8,0.8,0,0,1-.8-0.8V150a0.8,0.8,0,0,1,.8-0.8h9.6a0.8,0.8,0,0,1,.8.8v3.2A0.8,0.8,0,0,1,110.8,154Zm-0.8-3.2h-8v1.6h8v-1.6Zm0.8-4.8h-9.6a0.8,0.8,0,0,1-.8-0.8V142a0.8,0.8,0,0,1,.8-0.8h9.6a0.8,0.8,0,0,1,.8.8v3.2A0.8,0.8,0,0,1,110.8,146Zm-0.8-3.2h-8v1.6h8v-1.6Zm0.8-4.8h-9.6a0.8,0.8,0,0,1-.8-0.8V134a0.8,0.8,0,0,1,.8-0.8h9.6a0.8,0.8,0,0,1,.8.8v3.2A0.8,0.8,0,0,1,110.8,138Zm-0.8-3.2h-8v1.6h8v-1.6Zm0.8-4.8h-9.6a0.8,0.8,0,0,1-.8-0.8V126a0.8,0.8,0,0,1,.8-0.8h9.6a0.8,0.8,0,0,1,.8.8v3.2A0.8,0.8,0,0,1,110.8,130Zm-0.8-3.2h-8v1.6h8v-1.6ZM96.4,162H86.8a0.8,0.8,0,0,1-.8-0.8V158a0.8,0.8,0,0,1,.8-0.8h9.6a0.8,0.8,0,0,1,.8.8v3.2A0.8,0.8,0,0,1,96.4,162Zm-0.8-3.2h-8v1.6h8v-1.6Zm0.8-4.8H86.8a0.8,0.8,0,0,1-.8-0.8V150a0.8,0.8,0,0,1,.8-0.8h9.6a0.8,0.8,0,0,1,.8.8v3.2A0.8,0.8,0,0,1,96.4,154Zm-0.8-3.2h-8v1.6h8v-1.6Zm0.8-4.8H86.8a0.8,0.8,0,0,1-.8-0.8V142a0.8,0.8,0,0,1,.8-0.8h9.6a0.8,0.8,0,0,1,.8.8v3.2A0.8,0.8,0,0,1,96.4,146Zm-0.8-3.2h-8v1.6h8v-1.6Zm0.8-4.8H86.8a0.8,0.8,0,0,1-.8-0.8V134a0.8,0.8,0,0,1,.8-0.8h9.6a0.8,0.8,0,0,1,.8.8v3.2A0.8,0.8,0,0,1,96.4,138Zm-0.8-3.2h-8v1.6h8v-1.6Zm20,6.4h9.6a0.8,0.8,0,0,1,.8.8v3.2a0.8,0.8,0,0,1-.8.8h-9.6a0.8,0.8,0,0,1-.8-0.8V142A0.8,0.8,0,0,1,115.6,141.2Zm0.8,3.2h8v-1.6h-8v1.6Zm-0.8,4.8h9.6a0.8,0.8,0,0,1,.8.8v3.2a0.8,0.8,0,0,1-.8.8h-9.6a0.8,0.8,0,0,1-.8-0.8V150A0.8,0.8,0,0,1,115.6,149.2Zm0.8,3.2h8v-1.6h-8v1.6Zm-0.8,4.8h9.6a0.8,0.8,0,0,1,.8.8v3.2a0.8,0.8,0,0,1-.8.8h-9.6a0.8,0.8,0,0,1-.8-0.8V158A0.8,0.8,0,0,1,115.6,157.2Zm0.8,3.2h8v-1.6h-8v1.6Z" transform="translate(-86 -114)"/>
</svg>
