<svg xmlns="http://www.w3.org/2000/svg" width="64" height="45" viewBox="0 0 64 45">
  <defs>
    <style>
      .cls-1 {
        fill: #db5e37;
        fill-rule: evenodd;
      }
    </style>
  </defs>
  <path class="cls-1" d="M363.54,324H310.46a5.436,5.436,0,1,1,0-10.872h2.281V301.239a4.356,4.356,0,0,1,3.158-4.168l3.477-.989V294.5a3.221,3.221,0,0,1-1.106-2.43v-3.3H317.1a1.032,1.032,0,1,1,0-2.064h0.069v-0.069a6.555,6.555,0,0,1,5.529-6.454v-0.151a1.037,1.037,0,0,1,2.074,0v0.151a6.555,6.555,0,0,1,5.529,6.454v0.069h0.069a1.032,1.032,0,1,1,0,2.064H329.19v3.3a3.221,3.221,0,0,1-1.106,2.43v1.587l3.477,0.989a4.357,4.357,0,0,1,3.158,4.168v5.284H337a1.035,1.035,0,0,1,1.037,1.032v5.573h1.244V301.239a4.356,4.356,0,0,1,3.158-4.168l3.477-.989V294.5a3.221,3.221,0,0,1-1.106-2.43v-3.3h-1.175a1.032,1.032,0,1,1,0-2.064H343.7v-0.069a6.555,6.555,0,0,1,5.529-6.454v-0.151a1.037,1.037,0,0,1,2.074,0v0.151a6.555,6.555,0,0,1,5.529,6.454v0.069h0.069a1.032,1.032,0,1,1,0,2.064H355.73v3.3a3.221,3.221,0,0,1-1.106,2.43v1.587l3.477,0.989a4.356,4.356,0,0,1,3.158,4.168v7.486h1.175a1.034,1.034,0,0,1,1.037,1.032v3.371h0.069A5.436,5.436,0,1,1,363.54,324Zm-45.27-25.457-1.8.513a2.28,2.28,0,0,0-1.654,2.183v11.889h2.35v-9.977a2.131,2.131,0,0,1,1.106-1.865v-2.743Zm4.423-16.257a4.485,4.485,0,0,0-3.455,4.351v0.069h3.455v-4.42Zm-2.35,6.484v3.3a1.165,1.165,0,0,0,.524.973l1.775,1.178a1.173,1.173,0,0,0,.652.2h0.872a1.17,1.17,0,0,0,.652-0.2l1.775-1.178a1.165,1.165,0,0,0,.524-0.973v-3.3h-6.774Zm3.387,11.01a6.036,6.036,0,0,1-3.387-.856v2.094h6.774v-2.094A6.036,6.036,0,0,1,323.73,299.78Zm2.281-2.615v-1.259l-0.042.028a3.254,3.254,0,0,1-1.8.543h-0.873a3.254,3.254,0,0,1-1.8-.543l-0.043-.029v1.26A5,5,0,0,0,326.011,297.165Zm2.142-10.459h0.069v-0.069a4.485,4.485,0,0,0-3.455-4.351v4.42h3.386Zm0.069,16.445a0.068,0.068,0,0,0-.069-0.068h-8.846a0.068,0.068,0,0,0-.069.068v9.977h3.455v-5.573a1.034,1.034,0,0,1,1.037-1.032h4.492v-3.372Zm4.424-1.912a2.282,2.282,0,0,0-1.654-2.184l-1.8-.512v2.743a2.131,2.131,0,0,1,1.106,1.865v3.372h2.35v-5.284Zm3.317,7.348h-11.2v4.541h11.2v-4.541Zm8.847-10.044-1.8.513a2.28,2.28,0,0,0-1.654,2.183v11.889h2.35v-9.977a2.131,2.131,0,0,1,1.106-1.865v-2.743Zm4.423-16.257a4.485,4.485,0,0,0-3.456,4.351v0.069h3.456v-4.42Zm-2.35,6.484v3.3a1.165,1.165,0,0,0,.524.973l1.775,1.178a1.173,1.173,0,0,0,.652.2h0.872a1.17,1.17,0,0,0,.652-0.2l1.775-1.178a1.165,1.165,0,0,0,.524-0.973v-3.3h-6.774Zm3.387,11.01a6.036,6.036,0,0,1-3.387-.856v2.094h6.774v-2.094A6.036,6.036,0,0,1,350.27,299.78Zm2.281-2.615v-1.259l-0.042.028a3.254,3.254,0,0,1-1.8.543h-0.873a3.254,3.254,0,0,1-1.8-.543l-0.043-.029v1.26A5,5,0,0,0,352.551,297.165Zm2.142-10.459h0.069v-0.069a4.485,4.485,0,0,0-3.455-4.351v4.42h3.386Zm0.069,16.445a0.068,0.068,0,0,0-.069-0.068h-8.846a0.069,0.069,0,0,0-.07.068v9.977h2.35v-3.371a1.034,1.034,0,0,1,1.037-1.032h5.6v-5.574Zm4.424-1.912a2.283,2.283,0,0,0-1.655-2.184l-1.8-.512v2.743a2.131,2.131,0,0,1,1.106,1.865v5.574h2.35v-7.486Zm2.211,9.55H350.2v2.339h11.2v-2.339Zm2.143,4.4H310.46a3.372,3.372,0,1,0,0,6.744h53.08A3.372,3.372,0,1,0,363.54,315.192Zm0,5.367a2,2,0,1,1,2-2A2,2,0,0,1,363.54,320.559Zm-6.635,0a2,2,0,1,1,2-2A2,2,0,0,1,356.905,320.559Zm-6.635,0a2,2,0,1,1,2-2A2,2,0,0,1,350.27,320.559Zm-6.635,0a2,2,0,1,1,2-2A2,2,0,0,1,343.635,320.559Zm-6.635,0a2,2,0,1,1,2-2A2,2,0,0,1,337,320.559Zm-6.635,0a2,2,0,1,1,2-2A2,2,0,0,1,330.365,320.559Zm-6.635,0a2,2,0,1,1,2-2A2,2,0,0,1,323.73,320.559Zm-6.635,0a2,2,0,1,1,2-2A2,2,0,0,1,317.1,320.559Zm-6.635,0a2,2,0,1,1,2-2A2,2,0,0,1,310.46,320.559Z" transform="translate(-305 -279)"/>
</svg>
