<svg xmlns="http://www.w3.org/2000/svg" width="48" height="46" viewBox="0 0 48 46">
  <defs>
    <style>
      .cls-1 {
        fill: #db613a;
        fill-rule: evenodd;
      }
    </style>
  </defs>
  <path class="cls-1" d="M247.193,1473.26h-7.442v2.19h1.226a0.8,0.8,0,0,1,.806.8,0.8,0.8,0,0,1-.806.79h-1.226v3.27l0.872-.12a0.8,0.8,0,0,1,.913.67l1.054,7.25a0.792,0.792,0,0,1-.683.9l-2.156.31v17.04l4.328,4.28a0.794,0.794,0,0,1,0,1.13,0.821,0.821,0,0,1-1.14,0l-3.188-3.15v2.58a0.807,0.807,0,0,1-1.613,0v-2.58l-3.189,3.15a0.815,0.815,0,0,1-1.14,0,0.794,0.794,0,0,1,0-1.13l4.329-4.28v-16.81l-4.362.62a13.406,13.406,0,0,1-2.063,18.67l0.768,2.09a0.8,0.8,0,0,1-.482,1.02,0.671,0.671,0,0,1-.276.05,0.808,0.808,0,0,1-.758-0.52l-0.6-1.65a13.826,13.826,0,0,1-14.872,0l-0.6,1.65a0.808,0.808,0,0,1-.758.52,0.889,0.889,0,0,1-.276-0.05,0.794,0.794,0,0,1-.482-1.02l0.768-2.09a13.4,13.4,0,0,1-2.063-18.67l-4.362-.62v16.81l4.329,4.28a0.794,0.794,0,0,1,0,1.13,0.815,0.815,0,0,1-1.14,0l-3.189-3.15v2.58a0.807,0.807,0,0,1-1.613,0v-2.58l-3.188,3.15a0.821,0.821,0,0,1-1.14,0,0.794,0.794,0,0,1,0-1.13l4.328-4.28v-17.04l-2.156-.31a0.792,0.792,0,0,1-.683-0.9l1.054-7.25a0.772,0.772,0,0,1,.315-0.52,0.8,0.8,0,0,1,.6-0.15l0.872,0.12v-3.27h-1.226a0.8,0.8,0,1,1,0-1.59H206.1v-2.19h-5.291a0.8,0.8,0,0,1-.806-0.79,0.8,0.8,0,0,1,.806-0.8H213a0.8,0.8,0,0,1,.806.8,0.8,0.8,0,0,1-.806.79H207.71v7.28l7.234,1.03v-0.84a0.8,0.8,0,0,1,.807-0.79H230.1a0.8,0.8,0,0,1,.807.79v0.84l7.233-1.03v-7.28H230.7a0.8,0.8,0,0,1-.807-0.79,0.805,0.805,0,0,1,.807-0.8h7.442v-1.57a0.807,0.807,0,0,1,1.614,0v1.57h7.442a0.8,0.8,0,0,1,.807.8A0.8,0.8,0,0,1,247.193,1473.26Zm-41.1,8.66-0.3-.04-0.825,5.67,1.128,0.16v-5.79Zm4.722,16.53a12.106,12.106,0,1,0,12.105-11.96A12.05,12.05,0,0,0,210.819,1498.45Zm-3.109-16.3v5.79l5.651,0.8a13.824,13.824,0,0,1,4.219-2.77l0.344-2.37Zm21.58-.62H216.557v0.27l2.4,0.34a0.8,0.8,0,0,1,.531.31,0.79,0.79,0,0,1,.153.59l-0.341,2.34a13.955,13.955,0,0,1,7.257,0l-0.34-2.34a0.782,0.782,0,0,1,.153-0.59,0.8,0.8,0,0,1,.53-0.31l2.395-.34v-0.27Zm8.847,0.62-10.214,1.45,0.345,2.37a13.808,13.808,0,0,1,4.218,2.77l5.651-.8v-5.79Zm1.613-.23v5.79l1.129-.16-0.825-5.67Zm-16.826,5.84a10.686,10.686,0,1,1-10.815,10.69A10.768,10.768,0,0,1,222.924,1487.76Zm0,19.78a9.091,9.091,0,1,0-9.2-9.09A9.158,9.158,0,0,0,222.924,1507.54ZM213,1470.43H200.806a0.8,0.8,0,1,1,0-1.6H206.1v-2.03a0.807,0.807,0,0,1,1.613,0v2.03H213A0.8,0.8,0,1,1,213,1470.43Z" transform="translate(-200 -1466)"/>
</svg>
