<svg xmlns="http://www.w3.org/2000/svg" width="80" height="56" viewBox="0 0 80 56">
  <defs>
    <style>
      .cls-1 {
        fill: #db5e37;
        fill-rule: evenodd;
      }
    </style>
  </defs>
  <path class="cls-1" d="M249.175,326h-66.35a6.765,6.765,0,1,1,0-13.529h2.851v-14.8a5.424,5.424,0,0,1,3.947-5.187l4.347-1.231v-1.975a4,4,0,0,1-1.383-3.024v-4.1h-1.468a1.285,1.285,0,1,1,0-2.569h0.086V279.5a8.17,8.17,0,0,1,6.912-8.032v-0.188a1.3,1.3,0,0,1,2.591,0v0.188a8.17,8.17,0,0,1,6.912,8.032v0.086h0.086a1.285,1.285,0,1,1,0,2.569h-1.468v4.1a4,4,0,0,1-1.383,3.025v1.974l4.346,1.231a5.425,5.425,0,0,1,3.948,5.187v6.576H216a1.29,1.29,0,0,1,1.3,1.284v6.936h1.555v-14.8a5.424,5.424,0,0,1,3.947-5.187l4.347-1.231v-1.975a4,4,0,0,1-1.383-3.024v-4.1h-1.468a1.285,1.285,0,1,1,0-2.569h0.086V279.5a8.17,8.17,0,0,1,6.912-8.032v-0.188a1.3,1.3,0,0,1,2.591,0v0.188A8.17,8.17,0,0,1,240.8,279.5v0.086h0.086a1.285,1.285,0,1,1,0,2.569h-1.469v4.1a4,4,0,0,1-1.382,3.025v1.974l4.346,1.231a5.425,5.425,0,0,1,3.948,5.187v9.316h1.469a1.291,1.291,0,0,1,1.3,1.284v4.2h0.086A6.765,6.765,0,1,1,249.175,326Zm-56.588-31.68-2.252.638a2.841,2.841,0,0,0-2.067,2.717v14.8h2.937V300.055a2.651,2.651,0,0,1,1.382-2.321V294.32Zm5.53-20.23a5.585,5.585,0,0,0-4.32,5.414v0.086h4.32v-5.5Zm-2.938,8.069v4.1a1.452,1.452,0,0,0,.654,1.212l2.22,1.466a1.47,1.47,0,0,0,.814.244h1.091a1.473,1.473,0,0,0,.815-0.244l2.219-1.466a1.452,1.452,0,0,0,.654-1.212v-4.1h-8.467Zm4.234,13.7a7.579,7.579,0,0,1-4.234-1.064V297.4h8.467V294.8A7.58,7.58,0,0,1,199.413,295.859Zm2.851-3.253v-0.34c0-.012,0-0.024,0-0.037v-1.191l-0.053.035a4.08,4.08,0,0,1-2.253.676h-1.09a4.076,4.076,0,0,1-2.253-.675l-0.053-.036v1.568A6.284,6.284,0,0,0,202.264,292.606Zm2.678-13.016h0.086V279.5a5.585,5.585,0,0,0-4.32-5.414v5.5h4.234Zm0.086,20.465a0.087,0.087,0,0,0-.086-0.086H193.883a0.087,0.087,0,0,0-.086.086v12.416h4.32v-6.936a1.29,1.29,0,0,1,1.3-1.284h5.615v-4.2Zm5.529-2.38a2.841,2.841,0,0,0-2.068-2.717l-2.251-.638v3.414a2.651,2.651,0,0,1,1.382,2.321v4.2h2.937v-6.576Zm4.147,9.145h-14v5.651h14V306.82Zm11.058-12.5-2.252.638a2.841,2.841,0,0,0-2.067,2.717v14.8h2.937V300.055a2.651,2.651,0,0,1,1.382-2.321V294.32Zm5.53-20.23a5.585,5.585,0,0,0-4.32,5.414v0.086h4.32v-5.5Zm-2.938,8.069v4.1a1.45,1.45,0,0,0,.654,1.212l2.22,1.466a1.47,1.47,0,0,0,.814.244h1.091a1.473,1.473,0,0,0,.815-0.244l2.219-1.466a1.452,1.452,0,0,0,.654-1.212v-4.1h-8.467Zm4.233,13.7a7.578,7.578,0,0,1-4.233-1.064V297.4h8.467V294.8A7.581,7.581,0,0,1,232.587,295.859Zm2.852-3.253v-0.34c0-.012,0-0.024,0-0.037v-1.191l-0.053.035a4.08,4.08,0,0,1-2.253.676h-1.09a4.076,4.076,0,0,1-2.253-.675l-0.053-.036v1.568A6.284,6.284,0,0,0,235.439,292.606Zm2.678-13.016H238.2V279.5a5.585,5.585,0,0,0-4.32-5.414v5.5h4.234Zm0.086,20.465a0.087,0.087,0,0,0-.086-0.086H227.058a0.087,0.087,0,0,0-.086.086v12.416h2.937v-4.2a1.29,1.29,0,0,1,1.3-1.284h7v-6.936Zm5.529-2.38a2.841,2.841,0,0,0-2.068-2.717l-2.252-.638v3.414a2.65,2.65,0,0,1,1.383,2.321v6.936h2.937v-9.316ZM246.5,309.56h-14v2.911h14V309.56Zm2.678,5.48h-66.35a4.2,4.2,0,1,0,0,8.391h66.35A4.2,4.2,0,1,0,249.175,315.04Zm0,6.679a2.484,2.484,0,1,1,2.5-2.484A2.5,2.5,0,0,1,249.175,321.719Zm-8.294,0a2.484,2.484,0,1,1,2.506-2.484A2.5,2.5,0,0,1,240.881,321.719Zm-8.294,0a2.484,2.484,0,1,1,2.506-2.484A2.5,2.5,0,0,1,232.587,321.719Zm-8.293,0a2.484,2.484,0,1,1,2.5-2.484A2.5,2.5,0,0,1,224.294,321.719Zm-8.294,0a2.484,2.484,0,1,1,2.5-2.484A2.5,2.5,0,0,1,216,321.719Zm-8.294,0a2.484,2.484,0,1,1,2.506-2.484A2.5,2.5,0,0,1,207.706,321.719Zm-8.293,0a2.484,2.484,0,1,1,2.5-2.484A2.5,2.5,0,0,1,199.413,321.719Zm-8.294,0a2.484,2.484,0,1,1,2.5-2.484A2.5,2.5,0,0,1,191.119,321.719Zm-8.294,0a2.484,2.484,0,1,1,2.505-2.484A2.5,2.5,0,0,1,182.825,321.719Z" transform="translate(-176 -270)"/>
</svg>
