<svg xmlns="http://www.w3.org/2000/svg" width="48" height="48" viewBox="0 0 48 48">
  <defs>
    <style>
      .cls-1 {
        fill: #db5e37;
        fill-rule: evenodd;
      }
    </style>
  </defs>
  <path class="cls-1" d="M135,1309.6h-1.6a0.8,0.8,0,0,1,0-1.6H135A0.8,0.8,0,1,1,135,1309.6Zm0-4.8h-1.6a0.8,0.8,0,0,1,0-1.6H135A0.8,0.8,0,1,1,135,1304.8Zm0-4.8h-1.6a0.8,0.8,0,0,1,0-1.6H135A0.8,0.8,0,1,1,135,1300Zm0-9.6h-1.6a0.8,0.8,0,0,1,0-1.6H135A0.8,0.8,0,1,1,135,1290.4Zm0,4.8h-1.6a0.8,0.8,0,0,1,0-1.6H135A0.8,0.8,0,1,1,135,1295.2Zm1.6,19.2a0.8,0.8,0,0,1,0-1.6,0.8,0.8,0,0,0,.8-0.8v-25.6a0.8,0.8,0,0,0-.8-0.8h-4.8a0.8,0.8,0,0,0-.8.8V1312a0.8,0.8,0,0,0,.8.8h2.4a0.8,0.8,0,0,1,.8.8v16.8h3.2a0.8,0.8,0,1,1,0,1.6h-8a0.8,0.8,0,0,1,0-1.6h3.2v-16h-1.6a2.4,2.4,0,0,1-2.4-2.4v-25.6a2.4,2.4,0,0,1,2.4-2.4h4.8a2.4,2.4,0,0,1,2.4,2.4V1312A2.4,2.4,0,0,1,136.6,1314.4ZM123.8,1332H106.2a4,4,0,0,1-4-4v-24a4,4,0,0,1,4-4h17.6a4,4,0,0,1,4,4v24A4,4,0,0,1,123.8,1332Zm2.4-4v-24a2.4,2.4,0,0,0-2.4-2.4H106.2a2.4,2.4,0,0,0-2.4,2.4v24a2.4,2.4,0,0,0,2.4,2.4h17.6a2.4,2.4,0,0,0,2.4-2.4h0Zm-2.376-5.6a0.8,0.8,0,0,1-.008-1.6h0.008A0.8,0.8,0,1,1,123.824,1322.4Zm0-17.6a0.8,0.8,0,0,1-.008-1.6h0.008A0.8,0.8,0,1,1,123.824,1304.8Zm-12.024,8a3.2,3.2,0,1,1,3.2,3.2A3.2,3.2,0,0,1,111.8,1312.8Zm4.8,0a1.6,1.6,0,1,0-1.6,1.6A1.6,1.6,0,0,0,116.6,1312.8Zm6.261,5.51a0.8,0.8,0,1,1-1.31-.92,7.984,7.984,0,1,0-1.97,1.97,0.8,0.8,0,0,1,.917,1.31A9.6,9.6,0,1,1,122.861,1318.31Zm-16.637-13.51a0.8,0.8,0,0,1-.008-1.6h0.008A0.8,0.8,0,1,1,106.224,1304.8Zm-0.008,16h0.008A0.8,0.8,0,1,1,106.216,1320.8ZM123,1325.6a1.6,1.6,0,1,1-1.6,1.6A1.6,1.6,0,0,1,123,1325.6Zm-26.4-16H95a0.8,0.8,0,0,1,0-1.6h1.6A0.8,0.8,0,1,1,96.6,1309.6Zm0-4.8H95a0.8,0.8,0,0,1,0-1.6h1.6A0.8,0.8,0,1,1,96.6,1304.8Zm0-4.8H95a0.8,0.8,0,0,1,0-1.6h1.6A0.8,0.8,0,1,1,96.6,1300Zm0-9.6H95a0.8,0.8,0,0,1,0-1.6h1.6A0.8,0.8,0,1,1,96.6,1290.4Zm0,4.8H95a0.8,0.8,0,0,1,0-1.6h1.6A0.8,0.8,0,1,1,96.6,1295.2Zm1.6,19.2a0.8,0.8,0,0,1,0-1.6,0.8,0.8,0,0,0,.8-0.8v-25.6a0.8,0.8,0,0,0-.8-0.8H93.4a0.8,0.8,0,0,0-.8.8V1312a0.8,0.8,0,0,0,.8.8h2.4a0.8,0.8,0,0,1,.8.8v16.8h3.2a0.8,0.8,0,1,1,0,1.6h-8a0.8,0.8,0,0,1,0-1.6H95v-16H93.4A2.4,2.4,0,0,1,91,1312v-25.6a2.4,2.4,0,0,1,2.4-2.4h4.8a2.4,2.4,0,0,1,2.4,2.4V1312A2.4,2.4,0,0,1,98.2,1314.4Z" transform="translate(-91 -1284)"/>
</svg>
