<svg xmlns="http://www.w3.org/2000/svg" width="64" height="63" viewBox="0 0 64 63">
  <defs>
    <style>
      .cls-1 {
        fill: #db5e37;
        fill-rule: evenodd;
      }
    </style>
  </defs>
  <path class="cls-1" d="M375.66,185.14a1.11,1.11,0,0,1-1.553,0l-0.565-.557-0.849.836,0.565,0.557a1.07,1.07,0,0,1,0,1.53,1.11,1.11,0,0,1-1.553,0l-0.565-.557-0.849.837,0.565,0.557a1.07,1.07,0,0,1,0,1.53,1.112,1.112,0,0,1-1.553,0l-0.575-.567a2.9,2.9,0,0,1-1.823.639,2.942,2.942,0,0,1-1.026-.187l-12.519,12.9c2.762,4.991,2.3,10.682-1.283,14.213a10.2,10.2,0,0,1-3.885,2.389,8.051,8.051,0,0,0-5.388,6.658,12.3,12.3,0,0,1-3.566,7.494A12.93,12.93,0,0,1,330.027,237a18.138,18.138,0,0,1-12.549-5.385,17.885,17.885,0,0,1-5.413-11,12.387,12.387,0,0,1,11.2-13.957,8.113,8.113,0,0,0,6.757-5.31,10.013,10.013,0,0,1,2.427-3.825c3.584-3.531,9.359-3.986,14.424-1.265l13.092-12.336a2.809,2.809,0,0,1,.459-2.806l-0.575-.567a1.07,1.07,0,0,1,0-1.53,1.108,1.108,0,0,1,1.552,0l0.565,0.557,0.85-.837-0.566-.557a1.072,1.072,0,0,1,0-1.53,1.111,1.111,0,0,1,1.553,0l0.565,0.557,0.849-.836-0.565-.557a1.07,1.07,0,0,1,0-1.53,1.109,1.109,0,0,1,1.553,0l0.589,0.58a2.536,2.536,0,0,1,2.313-.318l3.518,1.263a2.471,2.471,0,0,1,1.491,1.469l1.281,3.466a2.436,2.436,0,0,1-.322,2.279l0.589,0.581A1.07,1.07,0,0,1,375.66,185.14ZM334,199.057a7.86,7.86,0,0,0-1.905,3.007,10.318,10.318,0,0,1-8.59,6.749,10.456,10.456,0,0,0-6.294,2.892,10.6,10.6,0,0,0-2.956,8.72,15.736,15.736,0,0,0,4.779,9.659,15.95,15.95,0,0,0,10.993,4.761,10.729,10.729,0,0,0,7.661-2.964,10.179,10.179,0,0,0,2.936-6.2,10.233,10.233,0,0,1,6.848-8.462,8.01,8.01,0,0,0,3.055-1.876c2.741-2.7,3.166-7.045,1.23-11.029l-5.72,5.893a6.339,6.339,0,0,1-1.9,4.24,6.591,6.591,0,0,1-9.225,0,6.366,6.366,0,0,1,0-9.089,6.519,6.519,0,0,1,4.3-1.875l5.982-5.637C341.146,195.937,336.738,196.356,334,199.057Zm9.848,10.842a4.2,4.2,0,0,0-1.267-3.014,4.372,4.372,0,0,0-6.119,0,4.224,4.224,0,0,0,0,6.029,4.372,4.372,0,0,0,6.119,0A4.2,4.2,0,0,0,343.845,209.9ZM361.33,185.63l-19.413,18.291a6.5,6.5,0,0,1,2.214,1.434,6.413,6.413,0,0,1,1.455,2.18l18.564-19.127Zm12-4.14-1.281-3.466a0.3,0.3,0,0,0-.179-0.176l-3.518-1.263a0.306,0.306,0,0,0-.1-0.018,0.3,0.3,0,0,0-.212.087l-5.872,5.785a0.669,0.669,0,0,0,0,.953l4.256,4.193a0.692,0.692,0,0,0,.968,0l5.871-5.785A0.3,0.3,0,0,0,373.33,181.49Zm-45.4,47.879a1.1,1.1,0,0,1-.776-0.317l-7.076-6.972a1.069,1.069,0,0,1,0-1.529,1.109,1.109,0,0,1,1.553,0l7.075,6.971a1.071,1.071,0,0,1,0,1.53A1.107,1.107,0,0,1,327.931,229.369Z" transform="translate(-312 -174)"/>
</svg>
