<svg xmlns="http://www.w3.org/2000/svg" width="48" height="48" viewBox="0 0 48 48">
  <defs>
    <style>
      .cls-1 {
        fill: #db5e37;
        fill-rule: evenodd;
      }
    </style>
  </defs>
  <path class="cls-1" d="M366.6,620.6h-4a1.628,1.628,0,0,1-1.2-.48A1.911,1.911,0,0,1,361,619h-0.08a1.377,1.377,0,0,0-1.36.56,5.836,5.836,0,0,0-.8.72,5.622,5.622,0,0,1-1.76.883V651.8a3.209,3.209,0,0,1-3.2,3.2h-1.6a3.209,3.209,0,0,1-3.2-3.2V620.6a3.739,3.739,0,0,0-1.36-3.28c-2.4-1.68-7.12,0-7.12,0a0.854,0.854,0,0,1-.88-0.24,0.728,0.728,0,0,1,0-.96l0.48-.72c2.48-3.6,6.64-6,10.48-6h4.8a5.652,5.652,0,0,1,3.36,1.12,7.213,7.213,0,0,1,.8.72,1.514,1.514,0,0,0,1.44.56,1.911,1.911,0,0,1,.4-1.12,1.764,1.764,0,0,1,1.2-.48h4a2.357,2.357,0,0,1,2.4,2.4v5.6A2.357,2.357,0,0,1,366.6,620.6Zm-16,25.6h1.6a0.756,0.756,0,0,1,.8.8,0.8,0.8,0,0,1-.8.8h-1.6v1.6h1.6a0.756,0.756,0,0,1,.8.8,0.8,0.8,0,0,1-.8.8h-1.6v0.8a1.6,1.6,0,0,0,1.6,1.6h1.6a1.6,1.6,0,0,0,1.6-1.6V631h-4.8v15.2Zm0-16.8h4.8v-8h-4.8v8Zm16.8-11.2v-5.6a0.756,0.756,0,0,0-.8-0.8h-4a1.521,1.521,0,0,1-.4,1.04,1.545,1.545,0,0,1-1.2.56,3.113,3.113,0,0,1-2.48-.96,5.818,5.818,0,0,0-.72-0.64,3.627,3.627,0,0,0-2.4-.8h-4.8a11.491,11.491,0,0,0-8.4,4.24c1.84-.32,4.48-0.48,6.32.72a5.072,5.072,0,0,1,2,3.84h4.8a4.113,4.113,0,0,0,2.4-.8c0.32-.24.48-0.4,0.72-0.56a2.874,2.874,0,0,1,2.48-.96,1.592,1.592,0,0,1,1.28.56,1.2,1.2,0,0,1,.4.96h4a0.756,0.756,0,0,0,.8-0.8h0ZM337.8,655h-16a0.756,0.756,0,0,1-.8-0.8V607.8a0.756,0.756,0,0,1,.8-0.8h16a0.756,0.756,0,0,1,.8.8v46.4A0.756,0.756,0,0,1,337.8,655ZM337,608.6h-2.4v8.8a0.8,0.8,0,1,1-1.6,0v-8.8h-2.4v3.2a0.756,0.756,0,0,1-.8.8,0.8,0.8,0,0,1-.8-0.8v-3.2h-2.4v8.8a0.8,0.8,0,1,1-1.6,0v-8.8h-2.4v44.8H325v-5.6a0.8,0.8,0,1,1,1.6,0v5.6H329v-4a0.8,0.8,0,1,1,1.6,0v4H333v-8.8a0.8,0.8,0,0,1,1.6,0v8.8H337V608.6Zm-3.2,33.6a0.756,0.756,0,0,1-.8-0.8V635a0.8,0.8,0,1,1,1.6,0v6.4A0.756,0.756,0,0,1,333.8,642.2Zm0-10.4a0.756,0.756,0,0,1-.8-0.8v-7.2a3.209,3.209,0,0,0-3.2-3.2,0.756,0.756,0,0,1-.8-0.8v-3.2a0.8,0.8,0,0,1,1.6,0v2.48a4.813,4.813,0,0,1,4,4.72V631A0.756,0.756,0,0,1,333.8,631.8Zm-2.4-8a1.6,1.6,0,1,1-1.6-1.6A1.6,1.6,0,0,1,331.4,623.8Zm-0.8,4v8a0.8,0.8,0,1,1-1.6,0v-7.28a4.813,4.813,0,0,1-4-4.72v-2.4a0.8,0.8,0,1,1,1.6,0v2.4a3.209,3.209,0,0,0,3.2,3.2A0.756,0.756,0,0,1,330.6,627.8Zm-4.8,1.6a0.756,0.756,0,0,1,.8.8v8a0.8,0.8,0,0,1-1.6,0v-8A0.756,0.756,0,0,1,325.8,629.4Zm0,12a0.756,0.756,0,0,1,.8.8v1.6a0.8,0.8,0,1,1-1.6,0v-1.6A0.756,0.756,0,0,1,325.8,641.4Zm4-2.4a0.756,0.756,0,0,1,.8.8v5.6a0.8,0.8,0,1,1-1.6,0v-5.6A0.756,0.756,0,0,1,329.8,639Z" transform="translate(-321 -607)"/>
</svg>
