<svg xmlns="http://www.w3.org/2000/svg" width="44" height="48" viewBox="0 0 44 48">
  <defs>
    <style>
      .cls-1 {
        fill: #db5e37;
        fill-rule: evenodd;
      }
    </style>
  </defs>
  <path class="cls-1" d="M368.469,1030.73a1.114,1.114,0,0,1-.559.15,1.167,1.167,0,0,1-.517-0.12l-7.048-3.73v3.19a1.082,1.082,0,0,1-1.091,1.07h-12.86l5.909,11.14a1.068,1.068,0,0,1-.463,1.45,1.13,1.13,0,0,1-.5.12,1.088,1.088,0,0,1-.967-0.58l-5.773-10.88-5.773,10.88a1.088,1.088,0,0,1-.967.58,1.13,1.13,0,0,1-.5-0.12,1.068,1.068,0,0,1-.463-1.45l5.909-11.14H329.94a1.081,1.081,0,0,1-1.09-1.07v-4.86h-2.76a1.081,1.081,0,0,1-1.09-1.07v-4.22a1.081,1.081,0,0,1,1.09-1.07h2.76v-4.86a1.081,1.081,0,0,1,1.09-1.07h1a7.171,7.171,0,0,1-2.142-5.1,7.317,7.317,0,0,1,7.369-7.25,7.424,7.424,0,0,1,5.675,2.63,9.792,9.792,0,0,1,19.272,2.25,9.556,9.556,0,0,1-3.627,7.47h1.772a1.082,1.082,0,0,1,1.091,1.07v3.19l7.048-3.73a1.113,1.113,0,0,1,1.076.03,1.061,1.061,0,0,1,.531.92v15.26A1.061,1.061,0,0,1,368.469,1030.73Zm-39.619-9.59h-1.67v2.07h1.67v-2.07Zm7.312-18.27a5.1,5.1,0,1,0,5.188,5.1A5.146,5.146,0,0,0,336.162,1002.87Zm5.226,10.2h3.8a9.822,9.822,0,0,1-2.179-2.44A7.24,7.24,0,0,1,341.388,1013.07Zm17.54-7.47a7.592,7.592,0,1,0-7.591,7.47A7.534,7.534,0,0,0,358.928,1005.6Zm-0.764,19.63v-10.02H331.03v13.94h27.134v-3.92Zm8.656-8.89-6.475,3.43v4.82l6.475,3.43v-11.68Zm-31.888,8.68v-5.68a1.021,1.021,0,0,1,1.035-1.01H347.82a1.022,1.022,0,0,1,1.035,1.01v5.68a1.021,1.021,0,0,1-1.035,1.01H335.967A1.022,1.022,0,0,1,334.932,1025.02ZM337,1024h9.781v-3.64H337V1024Zm16.534-4.66a1.075,1.075,0,1,1-1.09,1.07A1.081,1.081,0,0,1,353.537,1019.34Zm0,3.53a1.075,1.075,0,1,1-1.09,1.07A1.081,1.081,0,0,1,353.537,1022.87Zm-2.2-12.59a4.676,4.676,0,1,1,4.755-4.68A4.724,4.724,0,0,1,351.337,1010.28Zm0-7.21a2.535,2.535,0,1,0,2.575,2.53A2.56,2.56,0,0,0,351.337,1003.07Zm-15.175,8.15a3.255,3.255,0,1,1,3.311-3.25A3.287,3.287,0,0,1,336.162,1011.22Zm0-4.58a1.325,1.325,0,1,0,1.349,1.33A1.343,1.343,0,0,0,336.162,1006.64Z" transform="translate(-325 -996)"/>
</svg>
