<svg xmlns="http://www.w3.org/2000/svg" width="48" height="48" viewBox="0 0 48 48">
  <defs>
    <style>
      .cls-1 {
        fill: #db5e37;
        fill-rule: evenodd;
      }
    </style>
  </defs>
  <path class="cls-1" d="M136.677,1408.58H129.71V1438H91v-38.26l9.744-9.74H129.71v3.1h6.967a2.324,2.324,0,0,1,2.323,2.32v10.84A2.324,2.324,0,0,1,136.677,1408.58Zm-36.387-15.94-6.647,6.65h6.647v-6.65Zm27.871-1.09H101.839v9.29H92.548v35.61h35.613v-27.87H108.806a2.323,2.323,0,0,1-2.322-2.32v-10.84a2.323,2.323,0,0,1,2.322-2.32h19.355v-1.55Zm9.291,3.87a0.77,0.77,0,0,0-.775-0.77H108.806a0.769,0.769,0,0,0-.774.77v10.84a0.776,0.776,0,0,0,.774.77h27.871a0.776,0.776,0,0,0,.775-0.77v-10.84Zm-4.259,10.06h-2.322a2.71,2.71,0,0,1-2.71-2.71v-0.38h1.549v0.38a1.17,1.17,0,0,0,1.161,1.17h2.322a1.165,1.165,0,0,0,0-2.33h-1.935v-1.55h1.935a1.16,1.16,0,1,0,0-2.32h-2.322a1.162,1.162,0,0,0-1.161,1.16v0.39h-1.549v-0.39a2.716,2.716,0,0,1,2.71-2.71h2.322a282.707,282.707,0,0,0,2.71,6.58A2.709,2.709,0,0,1,133.193,1405.48Zm-9.29-3.87h-3.484v3.87h-1.548v-9.29H123.9A2.71,2.71,0,1,1,123.9,1401.61Zm0-3.87h-3.484v2.32H123.9A1.16,1.16,0,1,0,123.9,1397.74Zm-8.129.52-2.322,3.09-2.323-3.09v7.22h-1.548v-9.29h1.935l1.936,2.58,1.935-2.58h1.936v9.29h-1.549v-7.22Zm2.323,11.57v17.33c0,1.71-1.737,3.1-3.871,3.1s-3.871-1.39-3.871-3.1,1.736-3.1,3.871-3.1a4.509,4.509,0,0,1,2.322.64v-5.76l-12.387,4.13v8.74c0,1.7-1.736,3.09-3.871,3.09s-3.871-1.39-3.871-3.09,1.736-3.1,3.871-3.1a4.51,4.51,0,0,1,2.323.63v-14.35Zm-3.871,15.78c-1.259,0-2.323.71-2.323,1.55s1.064,1.55,2.323,1.55,2.322-.71,2.322-1.55S115.485,1425.61,114.226,1425.61Zm-10.065-4.17,12.387-4.13v-5.33l-12.387,4.13v5.33Zm-3.871,8.82c-1.259,0-2.322.71-2.322,1.55s1.064,1.54,2.322,1.54,2.323-.7,2.323-1.54S101.549,1430.26,100.29,1430.26Zm-3.1-27.87h1.548v1.55H97.194v-1.55Zm-3.1,3.09h1.548v1.55H94.1v-1.55Zm0-3.09h1.548v1.55H94.1v-1.55Z" transform="translate(-91 -1390)"/>
</svg>
