<svg xmlns="http://www.w3.org/2000/svg" width="40" height="40.219" viewBox="0 0 40 40.219">
  <defs>
    <style>
      .cls-1 {
        fill: #fa5e31;
        fill-rule: evenodd;
      }
    </style>
  </defs>
  <path id="Forma_1" data-name="Forma 1" class="cls-1" d="M139.5,301.572h24.989a1.257,1.257,0,0,0,0-2.514H139.5A1.257,1.257,0,0,0,139.5,301.572Zm0,5.029H152a1.258,1.258,0,0,0,0-2.515H139.5A1.258,1.258,0,0,0,139.5,306.6Zm0,5.028H147a1.257,1.257,0,0,0,0-2.514h-7.5A1.257,1.257,0,0,0,139.5,311.629Zm19.991,5.027a2.514,2.514,0,1,0-2.5-2.514A2.508,2.508,0,0,0,159.5,316.656Zm11.246-23.884H133.257a1.253,1.253,0,0,0-1.25,1.257v25.142a1.257,1.257,0,0,0,1.25,1.257h19.991v11.313a1.257,1.257,0,0,0,.691,1.125,1.244,1.244,0,0,0,1.308-.119l4.248-3.205,4.249,3.205a1.246,1.246,0,0,0,1.308.119,1.257,1.257,0,0,0,.691-1.125V320.428h5a1.257,1.257,0,0,0,1.249-1.257V294.029A1.257,1.257,0,0,0,170.741,292.772Zm-16.059,19.48-0.22-1.033,1-.324a1.254,1.254,0,0,0,.806-0.811l0.323-1.006,1.026,0.222a1.239,1.239,0,0,0,1.1-.3l0.78-.709L160.274,309a1.244,1.244,0,0,0,1.1.3l1.026-.222,0.323,1.006a1.254,1.254,0,0,0,.806.811l1,0.324-0.22,1.033a1.259,1.259,0,0,0,.3,1.107l0.7,0.784-0.7.783a1.259,1.259,0,0,0-.3,1.107l0.22,1.033-1,.324a1.253,1.253,0,0,0-.806.81l-0.323,1.006-1.026-.222a1.233,1.233,0,0,0-1.1.3l-0.779.709-0.779-.71a1.244,1.244,0,0,0-.838-0.324,1.231,1.231,0,0,0-.263.028l-1.026.222-0.322-1.006a1.253,1.253,0,0,0-.806-0.81l-1-.324,0.22-1.033a1.261,1.261,0,0,0-.295-1.108l-0.7-.783,0.7-.783A1.259,1.259,0,0,0,154.682,312.252Zm5.563,14.713a1.241,1.241,0,0,0-1.5,0l-3,2.262V321.91a1.22,1.22,0,0,0,.263-0.007l1.5-.326,1.142,1.04a1.244,1.244,0,0,0,1.677,0l1.142-1.04,1.5,0.326a1.22,1.22,0,0,0,.263.007v7.317Zm9.246-9.051h-2.275a1.229,1.229,0,0,0-.006-0.264l-0.323-1.515,1.032-1.149a1.264,1.264,0,0,0,0-1.687l-1.032-1.149,0.323-1.515a1.258,1.258,0,0,0-.839-1.46l-1.465-.475-0.473-1.476a1.25,1.25,0,0,0-1.452-.843l-1.5.326-1.142-1.04a1.245,1.245,0,0,0-1.677,0l-1.142,1.04-1.506-.326a1.252,1.252,0,0,0-1.451.843l-0.473,1.476-1.465.475a1.258,1.258,0,0,0-.839,1.46l0.323,1.515-1.032,1.149a1.264,1.264,0,0,0,0,1.687l1.032,1.149-0.323,1.515a1.229,1.229,0,0,0-.006.264H134.506V295.286h34.985v22.628Z" transform="translate(-132 -292.781)"/>
</svg>
