<svg xmlns="http://www.w3.org/2000/svg" width="76" height="53" viewBox="0 0 76 53">
  <defs>
    <style>
      .cls-1 {
        fill: #fa663c;
        fill-rule: evenodd;
      }
    </style>
  </defs>
  <path id="Forma_1" data-name="Forma 1" class="cls-1" d="M115.561,149.384h39.347a1.076,1.076,0,0,0,1.069-1.076v-32.08A3.218,3.218,0,0,0,152.77,113H117.7a3.218,3.218,0,0,0-3.207,3.228v32.08A1.076,1.076,0,0,0,115.561,149.384Zm7.929-21.617a1.331,1.331,0,0,1,1.327-1.336h10.5v-3.764a1.325,1.325,0,0,1,2.265-.944l9.046,9.108a1.343,1.343,0,0,1,0,1.889l-9.045,9.106a1.325,1.325,0,0,1-2.265-.944v-3.765h-10.5a1.331,1.331,0,0,1-1.327-1.336v-8.014Zm4.6,30.259H115.069A1.076,1.076,0,0,1,114,156.949v-3.271a1.076,1.076,0,0,1,1.069-1.076h15.974A8.9,8.9,0,0,0,128.092,158.026Zm60.839-5.424h-2.6V137.977a8.66,8.66,0,0,0-1.465-4.81l-6.512-9.707a8.543,8.543,0,0,0-7.089-3.788H161.174a2.145,2.145,0,0,0-2.139,2.152V152.6h-16.53a8.854,8.854,0,0,1,2.962,5.424H162.9a8.769,8.769,0,0,1,17.375,0h8.661A1.076,1.076,0,0,0,190,156.95v-3.272A1.076,1.076,0,0,0,188.931,152.6Zm-10.65-17.5H164.959a1.069,1.069,0,0,1-1.069-1.076v-7.436a1.076,1.076,0,0,1,1.069-1.077h8.115a1.081,1.081,0,0,1,.877.452l5.207,7.447A1.076,1.076,0,0,1,178.281,135.1Zm-41.507,17.5a6.7,6.7,0,1,0,6.651,6.7A6.681,6.681,0,0,0,136.774,152.6Zm0,10.051a3.347,3.347,0,1,1,3.326-3.347A3.34,3.34,0,0,1,136.774,162.653ZM171.588,152.6a6.7,6.7,0,1,0,6.65,6.7A6.675,6.675,0,0,0,171.588,152.6Zm0,10.051a3.347,3.347,0,1,1,3.325-3.347A3.34,3.34,0,0,1,171.588,162.653Z" transform="translate(-114 -113)"/>
</svg>
