<svg xmlns="http://www.w3.org/2000/svg" width="46" height="53" viewBox="0 0 46 53">
  <defs>
    <style>
      .cls-1 {
        fill: #fa5e31;
        fill-rule: evenodd;
      }
    </style>
  </defs>
  <path id="Forma_1" data-name="Forma 1" class="cls-1" d="M420.859,196.751c-0.5-9.453-9.024-13.364-9.024-13.364-2.036-.949-5.729-2.807-8.15-4.035,3.1-3.382,4.018-8.9,4.161-9.681a37.247,37.247,0,0,0,.321-7.945c-0.592-8.545-9.248-8.679-10.155-8.67h-0.151c-0.822-.01-9.574.076-10.169,8.67a37.207,37.207,0,0,0,.322,7.945c0.042,0.228.151,0.866,0.359,1.727a11.058,11.058,0,0,0,6.214,3.692,1.44,1.44,0,0,1,1.006-.408h3.766a1.438,1.438,0,1,1,0,2.876h-3.766a1.444,1.444,0,0,1-1.325-.867,14.56,14.56,0,0,1-4.916-2.143,15.3,15.3,0,0,0,2.823,4.805c-2.421,1.228-6.112,3.085-8.15,4.034,0,0-8.523,3.911-9.024,13.364,0,0-.148,1.572,2.841,2.167a97.913,97.913,0,0,0,40.178,0C421.009,198.323,420.859,196.751,420.859,196.751Zm-36.1-24.016h0.91V162.086c0-.027.009-0.052,0.009-0.079v-1.573a9.069,9.069,0,0,1,2.58-6.754c3.542-3.473,9.592-3.426,9.695-3.412,0.072,0,6.071-.091,9.629,3.38a9.085,9.085,0,0,1,2.6,6.786V162.1c0,0.016,0,.032,0,0.047v10.591h0.91a4.045,4.045,0,0,0,4.053-4.039v-3.883a4.04,4.04,0,0,0-2.8-3.84v-0.538a11.165,11.165,0,0,0-3.249-8.33c-4.2-4.1-10.914-3.992-11.149-4-0.282,0-7-.084-11.2,4.022a11.143,11.143,0,0,0-3.238,8.3v0.537a4.042,4.042,0,0,0-2.805,3.842V168.7A4.046,4.046,0,0,0,384.762,172.735Z" transform="translate(-375 -148)"/>
</svg>
