<svg xmlns="http://www.w3.org/2000/svg" width="31.531" height="34.438" viewBox="0 0 31.531 34.438">
  <defs>
    <style>
      .cls-1 {
        fill: #fa663c;
        fill-rule: evenodd;
      }
    </style>
  </defs>
  <path id="Forma_1" data-name="Forma 1" class="cls-1" d="M143.417,248.635q4.165,0,5.138-1.247t0.974-6.576q0-5.322-.974-6.567T143.417,233q-4.162,0-5.136,1.245t-0.975,6.567q0,5.32.975,6.571T143.417,248.635Zm-3.255-9.832a4.543,4.543,0,0,1,.526-2.729,3.635,3.635,0,0,1,2.508-.574q2.613,0,3.056.665t0.444,4.553q0,3.855-.465,4.633t-2.78.778q-2.225,0-2.757-.553c-0.352-.368-0.531-1.329-0.531-2.886l-0.022-1.871Zm26.851,14.232q-0.975-1.246-5.137-1.244t-5.137,1.244q-0.975,1.245-.973,6.568t0.973,6.571q0.976,1.251,5.137,1.251t5.137-1.246q0.975-1.243.975-6.576T167.013,253.035Zm-2.324,11.111q-0.465.78-2.782,0.778-2.223,0-2.756-.553t-0.53-2.887l-0.022-1.87,0.022-2.018a4.551,4.551,0,0,1,.524-2.728,3.635,3.635,0,0,1,2.51-.576q2.613,0,3.056.665t0.445,4.553Q165.152,263.367,164.689,264.146Zm-0.929-23-24.481,24.923-2.82-2.87,24.481-24.923-3.424-3.486h9.669v9.843Z" transform="translate(-136.469 -233)"/>
</svg>
