<svg xmlns="http://www.w3.org/2000/svg" width="41" height="36" viewBox="0 0 41 36">
  <defs>
    <style>
      .cls-1 {
        fill: #fa5e31;
        fill-rule: evenodd;
      }
    </style>
  </defs>
  <path id="Forma_1" data-name="Forma 1" class="cls-1" d="M269.139,303.782h-23.9a0.959,0.959,0,0,0-.99,1.315l3.781,10.832a1.633,1.633,0,0,0,1.471,1.058h15.668a1.63,1.63,0,0,0,1.469-1.058l3.3-11.087A0.772,0.772,0,0,0,269.139,303.782ZM247.4,325.969a3.5,3.5,0,1,1-3.574,3.5A3.536,3.536,0,0,1,247.4,325.969Zm15.127,0.044a3.5,3.5,0,1,1-3.574,3.5A3.536,3.536,0,0,1,262.529,326.013Zm4.293-5.468H245.914l-8.37-23.555h-6.517a1.98,1.98,0,1,0,0,3.96h3.638l8.37,23.555h23.787A1.98,1.98,0,1,0,266.822,320.545Z" transform="translate(-229 -297)"/>
</svg>
