<svg id="SvgjsSvg1000" xmlns="http://www.w3.org/2000/svg" version="1.1" xmlns:xlink="http://www.w3.org/1999/xlink" xmlns:svgjs="http://svgjs.com/svgjs" width="76" height="75" viewBox="0 0 76 75"><title>Forma 1</title><desc>Created with Avocode.</desc><defs id="SvgjsDefs1001"></defs><path id="SvgjsPath1007" d="M610.031 1763.25C610.031 1765.42 608.284 1767.18 606.1289999999999 1767.18C603.9739999999999 1767.18 602.2269999999999 1765.42 602.2269999999999 1763.25C602.2269999999999 1761.09 603.9739999999998 1759.33 606.1289999999999 1759.33C608.2839999999999 1759.33 610.031 1761.09 610.031 1763.25ZM629.773 1763.25C629.773 1765.42 628.0260000000001 1767.18 625.871 1767.18C623.716 1767.18 621.9689999999999 1765.42 621.9689999999999 1763.25C621.9689999999999 1761.09 623.7159999999999 1759.33 625.871 1759.33C628.026 1759.33 629.773 1761.09 629.773 1763.25ZM654 1761.07V1768.52C654 1772.26 650.982 1775.3 647.258 1775.3H642.366C637.519 1788.83 625.14 1797 616 1797C606.859 1797 594.481 1788.83 589.634 1775.3H584.742C581.0179999999999 1775.3 578 1772.26 578 1768.52V1761.07C578 1758.49 579.429 1756.25 581.534 1755.11C581.605 1744.52 584.674 1736.26 590.668 1730.54C596.614 1724.87 605.1370000000001 1722 616 1722C626.863 1722 635.386 1724.87 641.332 1730.54C647.326 1736.26 650.395 1744.52 650.466 1755.11C652.57 1756.25 654 1758.49 654 1761.07ZM639.731 1763.28C639.731 1761.53 639.6419999999999 1759.8999999999999 639.511 1758.31C636.519 1755.56 631.088 1753.47 624.233 1752.69C625.1329999999999 1753.71 625.91 1755.05 626.382 1756.81C622.183 1753.49 613.9409999999999 1754.28 607.707 1746.84C607.349 1746.4199999999998 607.04 1746.02 606.773 1745.6599999999999C606.77 1745.6599999999999 606.7660000000001 1745.6499999999999 606.763 1745.6499999999999H606.764C605.655 1744.1399999999999 605.277 1743.2399999999998 605.256 1744.2399999999998C605.073 1752.7899999999997 599.0419999999999 1759.4599999999998 592.346 1760.3999999999999C592.304 1761.34 592.269 1762.29 592.269 1763.28C592.269 1766.8899999999999 592.856 1770.19 593.855 1773.16C597.616 1777.72 603.828 1779.01 609.326 1779.3500000000001C610.347 1777.72 612.6370000000001 1776.5800000000002 615.304 1776.5800000000002C618.92 1776.5800000000002 621.851 1778.67 621.851 1781.2500000000002C621.851 1783.8300000000002 618.92 1785.9200000000003 615.304 1785.9200000000003C612.523 1785.9200000000003 610.1519999999999 1784.6800000000003 609.204 1782.9300000000003C605.361 1782.7100000000003 601.137 1782.0500000000002 597.372 1780.2600000000002C602.6669999999999 1788.1100000000001 610.8739999999999 1792.2600000000002 616 1792.2600000000002C624.054 1792.2600000000002 639.731 1782.0300000000002 639.731 1763.2800000000002ZM616 1726.07C596.509 1726.07 586.022 1735.82 585.593 1754.29H588.187C589.135 1748.07 591.14 1742.95 594.183 1739.01C599.033 1732.74 606.373 1729.56 616 1729.56C625.627 1729.56 632.967 1732.74 637.817 1739.01C640.86 1742.95 642.865 1748.07 643.813 1754.29H646.407C645.9780000000001 1735.82 635.491 1726.07 616 1726.07Z " fill="#fa5e31" fill-opacity="1" transform="matrix(1,0,0,1,-578,-1722)"></path></svg>