<svg xmlns="http://www.w3.org/2000/svg" width="42" height="38.969" viewBox="0 0 42 38.969">
  <defs>
    <style>
      .cls-1 {
        fill: #fa5e31;
        fill-rule: evenodd;
      }
    </style>
  </defs>
  <path class="cls-1" d="M269.8,185.613l-7.014-12.065a0.482,0.482,0,0,0-.84.017,14.622,14.622,0,0,1-9.688,7.336,0.474,0.474,0,0,0-.306.7l6.212,10.684a1.441,1.441,0,0,0,2.6-.232l1.927-5.33,5.612,1.007A1.43,1.43,0,0,0,269.8,185.613ZM245.737,180.9a14.626,14.626,0,0,1-9.688-7.336,0.481,0.481,0,0,0-.839-0.017L228.2,185.613a1.43,1.43,0,0,0,1.5,2.118l5.613-1.007,1.926,5.33a1.442,1.442,0,0,0,2.6.232l6.212-10.684A0.474,0.474,0,0,0,245.737,180.9Zm15.143-9.557h0a12.6,12.6,0,0,0-1.319-11.794,12.818,12.818,0,0,0-21.121,0,12.59,12.59,0,0,0-1.32,11.794C241.383,182.034,256.637,181.984,260.88,171.344Zm-4.859-4.987-2.468,2.389,0.582,3.373a1.436,1.436,0,0,1-2.085,1.5L249,172.031l-3.051,1.592a1.436,1.436,0,0,1-2.085-1.5l0.582-3.373-2.468-2.389a1.426,1.426,0,0,1,.8-2.434l3.41-.492,1.526-3.069a1.442,1.442,0,0,1,2.577,0l1.525,3.069,3.411,0.492A1.425,1.425,0,0,1,256.021,166.357Z" transform="translate(-228 -154.031)"/>
</svg>
