<svg xmlns="http://www.w3.org/2000/svg" width="65" height="39" viewBox="0 0 65 39">
  <defs>
    <style>
      .cls-1 {
        fill: #fb5e31;
        fill-rule: evenodd;
      }
    </style>
  </defs>
  <path class="cls-1" d="M560.935,136.525v30.819a1.516,1.516,0,0,1-.273.366h15.4V136.525h-15.13Zm9.676,22.136h-4.222a1.323,1.323,0,0,1,0-2.646h4.222A1.323,1.323,0,0,1,570.611,158.661Zm0-6.544h-4.222a1.255,1.255,0,1,1,0-2.506h4.222A1.255,1.255,0,1,1,570.611,152.117Zm0-6.125h-4.222a1.323,1.323,0,0,1,0-2.645h4.222A1.323,1.323,0,0,1,570.611,145.992Zm19.32,11.33a4.775,4.775,0,1,0,4.8,4.775A4.795,4.795,0,0,0,589.931,157.322Zm0,6.41a1.635,1.635,0,1,1,1.645-1.635A1.64,1.64,0,0,1,589.931,163.732Zm-42.9-6.41a4.775,4.775,0,1,0,4.8,4.775A4.795,4.795,0,0,0,547.034,157.322Zm0,6.41a1.635,1.635,0,1,1,1.645-1.635A1.64,1.64,0,0,1,547.034,163.732Zm0.033-27.207v-1.214a1.262,1.262,0,1,0-2.522,0v1.214H540.9v-1.214a1.331,1.331,0,0,0-2.662,0v1.214H536V173h18.449l3.825-6.018V136.525H547.067Zm-2.145,6.822h4.223a1.323,1.323,0,0,1,0,2.645h-4.223A1.323,1.323,0,0,1,544.922,143.347Zm0,6.125h4.223a1.255,1.255,0,1,1,0,2.506h-4.223A1.255,1.255,0,1,1,544.922,149.472Zm2.112,20.022a7.4,7.4,0,1,1,7.443-7.4A7.428,7.428,0,0,1,547.034,169.494Zm50.184-32.969v-1.214a1.262,1.262,0,1,0-2.522,0v1.214h-15.97v31.154L582.508,173H601V136.525h-3.782Zm-7.252,6.822h4.223a1.323,1.323,0,0,1,0,2.645h-4.223A1.323,1.323,0,0,1,589.966,143.347Zm0,6.125h4.223a1.255,1.255,0,1,1,0,2.506h-4.223A1.255,1.255,0,1,1,589.966,149.472Zm-0.034,20.022a7.4,7.4,0,1,1,7.443-7.4A7.429,7.429,0,0,1,589.932,169.494Z" transform="translate(-536 -134)"/>
</svg>
