<svg xmlns="http://www.w3.org/2000/svg" width="41" height="57" viewBox="0 0 41 57">
  <defs>
    <style>
      .cls-1 {
        fill: #fa5e31;
        fill-rule: evenodd;
      }
    </style>
  </defs>
  <path class="cls-1" d="M491.645,251.613c-0.556-1.329-2.263-3.567-7.453-3.613h-0.166a29.552,29.552,0,0,0-10.713,2.342c-0.687.28-1.35,0.571-1.99,0.886l-0.036-.035a5.568,5.568,0,0,0-7.667,0l-10.452,9.99A6.946,6.946,0,0,0,451,266.219v33.838A4.985,4.985,0,0,0,456.024,305H478.9a4.985,4.985,0,0,0,5.024-4.942V266.219a6.761,6.761,0,0,0-.592-2.786,25.692,25.692,0,0,0,5.629-4.092C492.582,255.716,492.2,252.942,491.645,251.613Zm-13.71,9.756a28.775,28.775,0,0,1-6.458,1.819c0,0.093.012,0.175,0.012,0.268a4.16,4.16,0,1,1-4.16-4.091,4.173,4.173,0,0,1,3.342,1.655,29.692,29.692,0,0,0,6.067-1.749c0.723-.291,1.4-0.594,2.038-0.909l-4.195-4.022c0.119-.046.237-0.093,0.356-0.151a25.592,25.592,0,0,1,9.1-2.028h0.118c2.5,0.023,3.437.688,3.579,1.037C488.173,254.271,485.389,258.351,477.935,261.369ZM461.06,288.74h1.716v1.716H461.06v2.054h1.716v2.99h2.418v-2.99h8.737v-2.054h-8.737v-1.742h2.418c2.6,0,4.212-.624,5.461-1.872a5.524,5.524,0,0,0,1.612-4.056,4.824,4.824,0,0,0-2.185-4.343,8.025,8.025,0,0,0-4.81-1.144h-4.914v9.361H461.06v2.08Zm11.1-5.876a3.525,3.525,0,0,1-1.04,2.678c-0.806.754-1.924,1.118-3.9,1.118h-2.028v-7.281h2.392a5.576,5.576,0,0,1,3.25.728A3,3,0,0,1,472.162,282.864Z" transform="translate(-451 -248)"/>
</svg>
