<svg xmlns="http://www.w3.org/2000/svg" width="52" height="72" viewBox="0 0 52 72">
  <defs>
    <style>
      .cls-1 {
        fill: #fb5e31;
        fill-rule: evenodd;
      }
    </style>
  </defs>
  <path class="cls-1" d="M578.18,288.13L575,286.565l-3.182,1.566a8.9,8.9,0,0,1-11.31-3V302a2.988,2.988,0,0,0,2.983,3,2.963,2.963,0,0,0,1.333-.317L575,299.567l10.176,5.117a2.967,2.967,0,0,0,2.9-.131A3,3,0,0,0,589.49,302V285.127A8.9,8.9,0,0,1,578.18,288.13Zm-29.171-30.355a3,3,0,0,0,.828,2.333l4.492,4.67h0l-0.9,6.436c-0.014.1-.023,0.2-0.027,0.3a3,3,0,0,0,2.465,3.076l6.363,1.122,3.027,5.74a2.972,2.972,0,0,0,3.945,1.289l5.8-2.855,5.8,2.855a2.972,2.972,0,0,0,3.945-1.289l3.028-5.74,6.363-1.122a3,3,0,0,0,2.465-3.076,2.77,2.77,0,0,0-.028-0.3l-0.9-6.436h0l4.492-4.67a3.013,3.013,0,0,0,0-4.172l-4.492-4.67h0l0.9-6.433a2.77,2.77,0,0,0,.028-0.3,3,3,0,0,0-2.465-3.076l-6.363-1.122-3.028-5.741c-0.043-.081-0.089-0.158-0.138-0.232-0.012-.02-0.025-0.039-0.038-0.058-0.041-.061-0.085-0.12-0.13-0.177-0.01-.012-0.019-0.026-0.029-0.038-0.056-.067-0.114-0.132-0.174-0.193-0.012-.013-0.026-0.026-0.039-0.039-0.05-.049-0.1-0.1-0.155-0.142L584,233.675c-0.066-.054-0.134-0.106-0.205-0.154l-0.01-.007c-0.067-.046-0.137-0.087-0.207-0.127l-0.054-.03c-0.067-.036-0.134-0.069-0.2-0.1l-0.027-.012c-0.078-.034-0.158-0.064-0.238-0.091L583,233.138c-0.067-.021-0.135-0.039-0.2-0.056-0.017,0-.034-0.009-0.052-0.012q-0.125-.029-0.252-0.045a0.248,0.248,0,0,1-.027,0q-0.113-.013-0.228-0.018l-0.062,0-0.066,0c-0.026,0-.053,0-0.08,0-0.062,0-.123,0-0.185.011-0.043,0-.086.008-0.129,0.014-0.062.009-.123,0.02-0.185,0.032-0.042.008-.084,0.016-0.125,0.027-0.065.016-.13,0.036-0.195,0.056-0.037.012-.074,0.022-0.111,0.036-0.09.033-.179,0.071-0.267,0.112-0.01,0-.021.008-0.03,0.013l-5.8,2.853-5.8-2.853-0.03-.013c-0.088-.041-0.177-0.079-0.266-0.112-0.038-.014-0.077-0.024-0.115-0.037-0.063-.02-0.126-0.039-0.19-0.055-0.043-.011-0.087-0.019-0.131-0.028-0.059-.011-0.119-0.022-0.178-0.03s-0.09-.012-0.135-0.016-0.118-.008-0.177-0.01c-0.028,0-.057,0-0.086,0l-0.07,0-0.051,0c-0.083,0-.165.01-0.247,0.02h-0.01c-0.087.011-.174,0.027-0.26,0.046l-0.039.009c-0.075.018-.149,0.038-0.222,0.061l-0.036.012c-0.084.028-.167,0.059-0.248,0.094l-0.009,0c-0.076.033-.15,0.07-0.223,0.11l-0.042.023a2.918,2.918,0,0,0-.432.3c-0.013.01-.025,0.021-0.037,0.032-0.058.049-.115,0.1-0.169,0.155a0.383,0.383,0,0,0-.029.028c-0.062.063-.121,0.13-0.178,0.2a0.34,0.34,0,0,0-.023.03c-0.048.059-.094,0.121-0.137,0.186l-0.036.052c-0.048.076-.1,0.153-0.138,0.234l-3.027,5.741-6.363,1.122a3,3,0,0,0-2.465,3.076c0,0.1.013,0.2,0.027,0.3l0.9,6.433-4.492,4.67A3,3,0,0,0,549.009,257.775ZM575,247a11,11,0,1,1-10.935,11A10.98,10.98,0,0,1,575,247Z" transform="translate(-549 -233)"/>
</svg>
