<svg xmlns="http://www.w3.org/2000/svg" width="32" height="55" viewBox="0 0 32 55">
  <defs>
    <style>
      .cls-1 {
        fill: #fb5e31;
        fill-rule: evenodd;
      }
    </style>
  </defs>
  <path id="Forma_1" data-name="Forma 1" class="cls-1" d="M336.279,124H311.721a3.726,3.726,0,0,0-3.72,3.715v47.573a3.726,3.726,0,0,0,3.72,3.712h24.558A3.728,3.728,0,0,0,340,175.288V127.715A3.726,3.726,0,0,0,336.279,124Zm-16.208,2.676h7.856a0.45,0.45,0,0,1,0,.9h-7.856A0.45,0.45,0,0,1,320.071,126.676ZM324,177.147a1.862,1.862,0,1,1,1.861-1.859A1.862,1.862,0,0,1,324,177.147Zm13.409-5.024H310.585V129.89h26.823v42.233Zm-23.2-20.477,12.256-2.159-7.656-2.322,5.256-1.844-1.389-.744v-9.821a0.854,0.854,0,0,1,1.707,0v8.8l3.891,2.091-3.979,1.4,9.494,2.88-12.364,2.185,6.363,1.977-5.1,2.047,1.7,0.853v10.389a0.854,0.854,0,0,1-1.707,0v-9.334l-4.137-2.087,4.163-1.664Z" transform="translate(-308 -124)"/>
</svg>
