<svg xmlns="http://www.w3.org/2000/svg" width="41.969" height="93" viewBox="0 0 41.969 93">
  <defs>
    <style>
      .cls-1 {
        fill: #fa5e31;
        fill-rule: evenodd;
      }
    </style>
  </defs>
  <path id="Forma_1_copy_2" data-name="Forma 1 copy 2" class="cls-1" d="M199.683,136.517a32.143,32.143,0,0,0-9.781-11.68,21.17,21.17,0,0,0-4.125-2.349V101.855a7.256,7.256,0,0,1,2.341-2.588,1.428,1.428,0,0,0,.709-1.222l0.123-13.4a1.426,1.426,0,0,0-.9-1.339L182.53,81.1a1.423,1.423,0,0,0-1.059,0l-5.524,2.212a1.427,1.427,0,0,0-.9,1.339l0.122,13.4a1.429,1.429,0,0,0,.71,1.222,7.2,7.2,0,0,1,2.341,2.588v20.631A28.278,28.278,0,0,0,166.346,133,31.881,31.881,0,0,0,161.33,155.3a22.485,22.485,0,0,0,6.579,13.22,20.862,20.862,0,0,0,28.182,0,22.486,22.486,0,0,0,6.58-13.22A31.683,31.683,0,0,0,199.683,136.517Zm-18.606-33.7h1.847v35.961h-1.847V102.815ZM177.913,85.6L182,83.963l4.088,1.637-0.107,11.686a10.3,10.3,0,0,0-2.407,2.671h-3.147a10.324,10.324,0,0,0-2.407-2.671Zm21.932,69.307a19.624,19.624,0,0,1-5.718,11.543,18.014,18.014,0,0,1-24.253,0,19.624,19.624,0,0,1-5.718-11.543,29.055,29.055,0,0,1,4.569-20.333,26.776,26.776,0,0,1,9.5-8.934v14.565a1.427,1.427,0,0,0,1.426,1.428h4.7a1.427,1.427,0,0,0,1.427-1.428V125.638a20.052,20.052,0,0,1,2.462,1.521A29.3,29.3,0,0,1,199.845,154.907Zm-13.126,5.686h-9.438a1.427,1.427,0,0,0-1.426,1.429v0.458a1.427,1.427,0,0,0,1.426,1.428h9.438a1.427,1.427,0,0,0,1.427-1.428v-0.458A1.428,1.428,0,0,0,186.719,160.593ZM182,143.88a7.145,7.145,0,1,0,7.136,7.144A7.148,7.148,0,0,0,182,143.88Zm1.74,11.06a4.288,4.288,0,0,1,0-7.832A4.287,4.287,0,0,1,183.74,154.94Z" transform="translate(-161.031 -81)"/>
</svg>
