<svg xmlns="http://www.w3.org/2000/svg" width="76" height="36" viewBox="0 0 76 36">
  <defs>
    <style>
      .cls-1 {
        fill: #fa5e31;
        fill-rule: evenodd;
      }
    </style>
  </defs>
  <path id="Forma_1" data-name="Forma 1" class="cls-1" d="M341.778,227a12.112,12.112,0,0,0-12.223,12v12A12.225,12.225,0,0,0,354,251V239A12.112,12.112,0,0,0,341.778,227Zm7.065,22.412a1.129,1.129,0,0,1,0,1.783l-7.3,5.744a1.177,1.177,0,0,1-1.231.139,1.141,1.141,0,0,1-.661-1.03v-8.2l-3.481,2.763a1.18,1.18,0,0,1-1.637-.17,1.129,1.129,0,0,1,.174-1.607L339.535,245l-4.826-3.83a1.129,1.129,0,0,1-.174-1.607,1.178,1.178,0,0,1,1.637-.17l3.481,2.763v-8.205a1.14,1.14,0,0,1,.661-1.03,1.18,1.18,0,0,1,1.231.138l7.3,5.744a1.129,1.129,0,0,1,0,1.783L343.236,245Zm-6.862-6.353,4.274-3.363-4.274-3.364v6.727Zm0,10.609,4.274-3.364-4.274-3.364v6.728ZM297.5,251.985a3.5,3.5,0,1,0,3.559,3.5A3.532,3.532,0,0,0,297.5,251.985Zm19.073-12.235a25.138,25.138,0,0,0-38.146,0,1.727,1.727,0,0,0,.219,2.464,1.8,1.8,0,0,0,2.507-.213,21.541,21.541,0,0,1,32.695,0,1.8,1.8,0,0,0,2.507.213A1.727,1.727,0,0,0,316.571,239.75ZM297.5,237.987a17.9,17.9,0,0,0-13.623,6.257,1.728,1.728,0,0,0,.219,2.465,1.8,1.8,0,0,0,2.507-.214,14.36,14.36,0,0,1,21.8,0,1.8,1.8,0,0,0,2.507.214,1.729,1.729,0,0,0,.218-2.465A17.9,17.9,0,0,0,297.5,237.987Zm0,7a10.73,10.73,0,0,0-8.174,3.755,1.729,1.729,0,0,0,.218,2.465,1.8,1.8,0,0,0,2.508-.214,7.176,7.176,0,0,1,10.9,0,1.8,1.8,0,0,0,2.507.214,1.729,1.729,0,0,0,.219-2.465A10.734,10.734,0,0,0,297.5,244.986Z" transform="translate(-278 -227)"/>
</svg>
