<svg xmlns="http://www.w3.org/2000/svg" width="59" height="57" viewBox="0 0 59 57">
  <defs>
    <style>
      .cls-1 {
        fill: #fa5e31;
        fill-rule: evenodd;
      }
    </style>
  </defs>
  <path id="Forma_1" data-name="Forma 1" class="cls-1" d="M236.214,254.5l-5.573,8.04-3.933-3.241a1,1,0,0,0-1.263,1.545l4.767,3.929a0.99,0.99,0,0,0,.631.228,0.889,0.889,0,0,0,.136-0.01,1,1,0,0,0,.682-0.419l6.189-8.929a1,1,0,0,0-.249-1.392A0.99,0.99,0,0,0,236.214,254.5Zm-5.158-7.5A13,13,0,1,0,244,260,12.988,12.988,0,0,0,231.056,247Zm0,24a11,11,0,1,1,10.956-11A10.991,10.991,0,0,1,231.056,271ZM185,247.213l25.046,25.2,6.117-6.126-25.072-25.174ZM214.291,260a15.987,15.987,0,0,1,15.936-16,15.755,15.755,0,0,1,6.691,1.5l4.264-4.27v-14.14L230.112,216H216.164L192.5,239.7l21.884,21.973A15.984,15.984,0,0,1,214.291,260Zm12.963-35a3.936,3.936,0,1,1-3.919,3.936A3.932,3.932,0,0,1,227.254,225Z" transform="translate(-185 -216)"/>
</svg>
