<svg xmlns="http://www.w3.org/2000/svg" width="58" height="59.25" viewBox="0 0 58 59.25">
  <defs>
    <style>
      .cls-1 {
        fill: #fa5e31;
        fill-rule: evenodd;
      }
    </style>
  </defs>
  <path id="Forma_1" data-name="Forma 1" class="cls-1" d="M85.5,264.187h4v8.938h-4v-8.938Zm0-5.177h4v3.115h-4V259.01Zm0-4.823h4V257.3h-4v-3.115Zm6,1.823h4v3.115h-4V256.01Zm0-4.823h4V254.3h-4v-3.115Zm6,0.823h4v3.115h-4V252.01Zm0-4.823h4V250.3h-4v-3.115Zm6,6.823h4v3.115h-4V254.01Zm0-4.823h4V252.3h-4v-3.115Zm6-6.177h4v3.115h-4V243.01Zm0-4.823h4V241.3h-4v-3.115Zm6-19.489h4v3.115h-4V218.7Zm0-4.823h4v3.115h-4v-3.115Zm6,8.823h4v3.115h-4V222.7Zm0-4.823h4v3.115h-4v-3.115Zm6,10.823h4v3.115h-4V228.7Zm0-4.823h4v3.115h-4v-3.115Zm6,18.823h4v3.114h-4V242.7Zm0-4.823h4v3.115h-4v-3.115Zm6,1.823h4v3.115h-4V239.7Zm0-4.823h4v3.115h-4v-3.115Zm-48,26.333h4v11.917h-4V261.208Zm6-3.833h4v15.75h-4v-15.75Zm12-9.25h4v25h-4v-25Zm6-23.938h4v48.938h-4V224.187Zm6,4h4v44.938h-4V228.187Zm6,6h4v38.938h-4V234.187Zm6,13.938h4v25h-4v-25Zm6-3.25h4v28.25h-4v-28.25Zm-36,14.333h4v13.917h-4V259.208Z" transform="translate(-85.5 -213.875)"/>
</svg>
