<svg xmlns="http://www.w3.org/2000/svg" width="77" height="76" viewBox="0 0 77 76">
  <defs>
    <style>
      .cls-1 {
        fill: #fb5e31;
        fill-rule: evenodd;
      }
    </style>
  </defs>
  <path id="Forma_1" data-name="Forma 1" class="cls-1" d="M410.575,203.432a1.3,1.3,0,0,0-1.4.275l-7.7,7.6a1.257,1.257,0,0,0-.376.9v13.933a1.268,1.268,0,0,0,.739,1.147,1.3,1.3,0,0,0,1.366-.174l7.7-6.334a1.259,1.259,0,0,0,.462-0.972V204.6A1.271,1.271,0,0,0,410.575,203.432Zm-7.37,40.731a1.3,1.3,0,0,0-1.366-.175,1.269,1.269,0,0,0-.739,1.148V257.8a1.253,1.253,0,0,0,.376.895l7.7,7.6a1.3,1.3,0,0,0,1.4.275,1.269,1.269,0,0,0,.792-1.17V251.469a1.261,1.261,0,0,0-.462-0.973Zm7.37-17.931a1.289,1.289,0,0,0-1.4.275l-7.7,7.6a1.254,1.254,0,0,0-.067,1.72l7.7,8.866a1.289,1.289,0,0,0,.974.443,1.3,1.3,0,0,0,.446-0.079,1.27,1.27,0,0,0,.838-1.188V227.4A1.27,1.27,0,0,0,410.575,226.232Zm31.06,22.7,0.532-.524v-1.484l-0.532-.525h-1.5l-0.531.525v1.484l0.531,0.524h1.5Zm-1.5,10.134-0.531.524v1.484l0.531,0.525h1.5l0.532-.525v-1.484l-0.532-.524h-1.5Zm1.5-22.8,0.532-.524V234.26l-0.532-.524h-1.5l-0.531.524v1.485l0.531,0.524h1.5Zm0-25.333,0.532-.524v-1.485l-0.532-.524h-1.5l-0.531.524v1.485l0.531,0.524h1.5Zm4.913,41.8-0.531.525v1.484l0.531,0.525h1.5l0.531-.525V253.26l-0.531-.525h-1.5ZM441.635,223.6l0.532-.524v-1.484l-0.532-.525h-1.5l-0.531.525v1.484l0.531,0.524h1.5Zm8.3-24.066H435l-2.191-2.162a1.294,1.294,0,0,0-1.814,0l-1.66,1.638-1.659-1.638a1.3,1.3,0,0,0-1.815,0l-1.659,1.638-1.659-1.638a1.3,1.3,0,0,0-1.815,0l-1.659,1.638-1.66-1.638a1.294,1.294,0,0,0-1.814,0l-2.191,2.162H383.068a5.04,5.04,0,0,0-5.068,5v60.928a5.04,5.04,0,0,0,5.068,5H413.4l2.191,2.163a1.294,1.294,0,0,0,1.814,0l1.66-1.638,1.659,1.638a1.3,1.3,0,0,0,1.815,0l1.659-1.638,1.659,1.638a1.3,1.3,0,0,0,1.815,0l1.659-1.638,1.66,1.638a1.294,1.294,0,0,0,1.814,0L435,270.468h14.934a5.04,5.04,0,0,0,5.068-5V204.538A5.04,5.04,0,0,0,449.932,199.536Zm-12.9,8.867a1.257,1.257,0,0,1,.376-0.9l1.284-1.266a1.283,1.283,0,0,1,.907-0.372h2.567a1.283,1.283,0,0,1,.907.372l1.283,1.266a1.253,1.253,0,0,1,.376.9v2.533a1.253,1.253,0,0,1-.376.9l-1.283,1.266a1.287,1.287,0,0,1-.907.371H439.6a1.287,1.287,0,0,1-.907-0.371l-1.284-1.266a1.257,1.257,0,0,1-.376-0.9V208.4Zm0,12.666a1.256,1.256,0,0,1,.376-0.895l1.284-1.267a1.287,1.287,0,0,1,.907-0.371h2.567a1.287,1.287,0,0,1,.907.371l1.283,1.267a1.252,1.252,0,0,1,.376.895V223.6a1.253,1.253,0,0,1-.376.9l-1.283,1.267a1.287,1.287,0,0,1-.907.371H439.6a1.287,1.287,0,0,1-.907-0.371l-1.284-1.267a1.257,1.257,0,0,1-.376-0.9v-2.533Zm0,12.667a1.257,1.257,0,0,1,.376-0.9l1.284-1.267a1.287,1.287,0,0,1,.907-0.371h2.567a1.287,1.287,0,0,1,.907.371l1.283,1.267a1.253,1.253,0,0,1,.376.9v2.533a1.25,1.25,0,0,1-.376.895l-1.283,1.267a1.287,1.287,0,0,1-.907.371H439.6a1.287,1.287,0,0,1-.907-0.371l-1.284-1.267a1.255,1.255,0,0,1-.376-0.895v-2.533Zm0,12.666a1.256,1.256,0,0,1,.376-0.895l1.284-1.267a1.287,1.287,0,0,1,.907-0.371h2.567a1.287,1.287,0,0,1,.907.371l1.283,1.267a1.252,1.252,0,0,1,.376.895v2.533a1.253,1.253,0,0,1-.376.9l-1.283,1.267a1.287,1.287,0,0,1-.907.371H439.6a1.287,1.287,0,0,1-.907-0.371l-1.284-1.267a1.257,1.257,0,0,1-.376-0.9V246.4Zm-56.466-41.864a2.488,2.488,0,0,1,2.5-2.469H397.25v3.8H386.983V208.4h-6.416v-3.865Zm0,6.4h6.416v2.533H397.25V216H386.983v2.533h-6.416v-7.6Zm0,10.133h6.416V223.6H397.25v2.534H386.983v2.533h-6.416v-7.6Zm0,10.133h6.416v2.534H397.25v2.533H386.983V238.8h-6.416v-7.6Zm0,10.134h6.416v2.533H397.25V246.4H386.983v2.533h-6.416v-7.6Zm0,10.133h6.416V254H397.25v2.533H386.983v2.534h-6.416v-7.6Zm16.683,16.466H383.068a2.487,2.487,0,0,1-2.5-2.469V261.6h6.416v2.533H397.25v3.8Zm2.567-3.8V202.069H412.65v65.866H399.817v-3.8Zm16.683,5.809-1.283-1.267v-67.35l1.283-1.267,1.283,1.267v67.35Zm5.133,0-1.283-1.267v-67.35l1.283-1.267,1.284,1.267v67.35Zm5.134,0-1.284-1.267v-67.35l1.284-1.267,1.283,1.267v67.35Zm5.133,0-1.283-1.267v-67.35l1.283-1.267,1.283,1.267v67.35Zm12.833-8.342a1.25,1.25,0,0,1-.376.9l-1.283,1.267a1.287,1.287,0,0,1-.907.371H439.6a1.287,1.287,0,0,1-.907-0.371l-1.284-1.267a1.255,1.255,0,0,1-.376-0.9v-2.533a1.257,1.257,0,0,1,.376-0.9l1.284-1.267a1.287,1.287,0,0,1,.907-0.371h2.567a1.287,1.287,0,0,1,.907.371l1.283,1.267a1.253,1.253,0,0,1,.376.9V261.6Zm6.417-6.333a1.256,1.256,0,0,1-.376.895l-1.283,1.267a1.287,1.287,0,0,1-.908.371h-2.566a1.287,1.287,0,0,1-.908-0.371l-1.283-1.267a1.256,1.256,0,0,1-.376-0.895v-2.534a1.256,1.256,0,0,1,.376-0.9l1.283-1.267a1.287,1.287,0,0,1,.908-0.371h2.566a1.287,1.287,0,0,1,.908.371l1.283,1.267a1.256,1.256,0,0,1,.376.9v2.534Zm0-12.667a1.257,1.257,0,0,1-.376.9l-1.283,1.266a1.288,1.288,0,0,1-.908.372h-2.566a1.288,1.288,0,0,1-.908-0.372l-1.283-1.266a1.257,1.257,0,0,1-.376-0.9v-2.533a1.257,1.257,0,0,1,.376-0.9l1.283-1.266a1.287,1.287,0,0,1,.908-0.371h2.566a1.287,1.287,0,0,1,.908.371l1.283,1.266a1.257,1.257,0,0,1,.376.9V242.6Zm0-12.666a1.256,1.256,0,0,1-.376.895l-1.283,1.267a1.287,1.287,0,0,1-.908.371h-2.566a1.287,1.287,0,0,1-.908-0.371l-1.283-1.267a1.256,1.256,0,0,1-.376-0.895V227.4a1.256,1.256,0,0,1,.376-0.895l1.283-1.267a1.287,1.287,0,0,1,.908-0.371h2.566a1.287,1.287,0,0,1,.908.371l1.283,1.267a1.256,1.256,0,0,1,.376.895v2.534Zm0-12.667a1.257,1.257,0,0,1-.376.9l-1.283,1.266a1.288,1.288,0,0,1-.908.372h-2.566a1.288,1.288,0,0,1-.908-0.372l-1.283-1.266a1.257,1.257,0,0,1-.376-0.9v-2.533a1.257,1.257,0,0,1,.376-0.9l1.283-1.266a1.287,1.287,0,0,1,.908-0.371h2.566a1.287,1.287,0,0,1,.908.371l1.283,1.266a1.257,1.257,0,0,1,.376.9v2.533Zm-4.6,10.133-0.531.525v1.484l0.531,0.525h1.5l0.531-.525v-1.484l-0.531-.525h-1.5Zm0-12.666-0.531.524v1.485l0.531,0.524h1.5l0.531-.524V215.26l-0.531-.524h-1.5Zm0,25.333-0.531.524v1.485l0.531,0.524h1.5l0.531-.524v-1.485l-0.531-.524h-1.5Z" transform="translate(-378 -197)"/>
</svg>
