<svg xmlns="http://www.w3.org/2000/svg" width="69" height="69" viewBox="0 0 69 69">
  <defs>
    <style>
      .cls-1 {
        fill: #fa7124;
        fill-rule: evenodd;
      }
    </style>
  </defs>
  <path class="cls-1" d="M672.5,95A34.5,34.5,0,1,1,638,129.5,34.5,34.5,0,0,1,672.5,95h0Zm-7.691,3.3a6.286,6.286,0,0,1,5.806,3.941l2.518-.394,0.447,2.854-2.5.392a6.266,6.266,0,0,1-12.132,1.9l-2.666.417-0.447-2.855,2.714-.424a6.325,6.325,0,0,1,6.26-5.83h0Zm-12.385,33.989,2.534-1.409,4.573,8.222L657,140.506l-1.824-3.279-2.31,1.284,1.824,3.28-2.533,1.408-4.573-8.222,2.533-1.409,1.582,2.846,2.311-1.285-1.583-2.846h0Zm35.107-19.526,1.338-.743,1.173-.653,2.413-1.342c2.866-1.594,5.332,1.567,3.773,3.662,1.185-.17,2.035.853,2.531,1.711a3.9,3.9,0,0,0,1.118,1.266l-2.557,1.421a10.053,10.053,0,0,1-1.2-1.532c-0.652-.99-1.285-0.849-1.545-0.7l-1.551.869,1.6,2.871-2.511,1.4-4.573-8.223h0Zm3.6,0.569,0.9,1.625,1.607-.893a0.933,0.933,0,0,0,.36-1.266h0a0.932,0.932,0,0,0-1.264-.36l-1.607.894h0Zm-9.51,13.482,2.135-1.187,0.256-.142-4.573-8.223-2.391,1.33,2.434,4.377-4.863-3.026-0.17.094-2.056,1.144-0.337.187,4.573,8.223,2.393-1.331-2.516-4.523,5.025,3.127,0.09-.05h0Zm-22.314,1.385a4.945,4.945,0,1,0,6.544,2.012,4.66,4.66,0,0,0-6.544-2.012h0Zm1.173,2.109c-1,.556-1.074,1.892-0.4,3.111s1.866,1.855,2.853,1.306,1.071-1.893.394-3.111-1.852-1.861-2.851-1.306h0Zm19.643-13.427,2.128-1.183,0.4-.224,4.247-2.363,1.194,2.146-4.248,2.362,0.545,0.98,3.822-2.126,1.1,1.974-3.821,2.125,0.546,0.98,4.247-2.362,1.192,2.144-4.247,2.362h0L684.7,125.1l-4.574-8.223h0Zm-11.288,6.279,2.533-1.409,4.573,8.222-2.533,1.409-1.824-3.279-2.312,1.286,1.824,3.279-2.532,1.408-4.573-8.222,2.532-1.408,1.583,2.846L670.421,126l-1.583-2.846h0Zm18.1,37.683a34.229,34.229,0,0,1-7.11,2.379,110.433,110.433,0,0,0-10.188-21.029c-4.752,6.221-8.177,12.675-9.664,19.469a34.435,34.435,0,0,1-6.611-3.445,137.064,137.064,0,0,1,8.051-19.033l15.158-8.408a15.811,15.811,0,0,1-.275,3.776,181.219,181.219,0,0,1,10.639,26.291h0Zm-29.535-41.029,3.6,6.443,13.966-7.746-0.271-1.389a21.132,21.132,0,0,0,5.094-1.508,14.683,14.683,0,0,0,8.24-9.333c0.328-1.582-.709-1.31-1.255-0.818s-2.019,2.456-8.514,4.693-11.734,1.092-18.337,2.729-11.625,5.185-13.263,11.57a17.915,17.915,0,0,0,.046,9.73l5.071-2.812a9.35,9.35,0,0,1,3.891-10.516,15.883,15.883,0,0,1,1.732-1.043h0Z" transform="translate(-638 -95)"/>
</svg>
