<svg xmlns="http://www.w3.org/2000/svg" width="27.969" height="50" viewBox="0 0 27.969 50">
  <defs>
    <style>
      .cls-1 {
        fill: #fb5e31;
        fill-rule: evenodd;
      }
    </style>
  </defs>
  <path class="cls-1" d="M382.4,151.951l8.731-8.664a3.29,3.29,0,0,0,0-4.445l-10.925-10.9a3.268,3.268,0,0,0-2.216-.938,3.033,3.033,0,0,0-3.014,3.171V144.47l-5.584-5.628c-2.9-2.925-7.335,1.519-4.41,4.445l8.731,8.664-8.731,8.777c-2.9,2.925,1.507,7.392,4.41,4.444l5.584-5.628v14.293a3.05,3.05,0,0,0,5.23,2.233l10.925-10.9a3.288,3.288,0,0,0,0-4.444Zm-1.285-14.292,3.368,3.394-3.368,3.4v-6.789Zm0,28.7v-6.789l3.368,3.394Z" transform="translate(-364.031 -127)"/>
</svg>
