<svg xmlns="http://www.w3.org/2000/svg" width="176" height="25.031" viewBox="0 0 176 25.031">
  <defs>
    <style>
      .cls-1 {
        fill: #fa5e31;
        fill-rule: evenodd;
      }
    </style>
  </defs>
  <path class="cls-1" d="M436,115.075h8.217l5.168-13.9s1.2-4.751,9.307-4.751c7.455,0,6.86,2.669,6.86,3.1s-0.494,2.776-6.315,2.776-8.435-.962-8.435-0.962l1.253,5.875s5.623,0.749,8.163.749c2.233,0,13.5-1.232,13.5-8.974,0-4.913-6.751-8.061-14.859-8.061-9.469,0-14.865,3.558-17.248,9.4L436,115.075h0Zm39.566-13.766-5.226,13.766h7.674l5.223-13.766h-7.671Zm35.047,6.54c0,5.53-9.421,7.958-14.859,7.958-2.668,0-12.95-1.442-12.95-7.369s10.238-7.849,14.367-7.849c4.621,0,13.442,1.73,13.442,7.26h0Zm-13.934-2.936c-1.851,0-5.713,1.014-5.713,3.364s3.426,3.151,5.441,3.151,6.043-.965,6.043-3.311-3.648-3.2-5.771-3.2h0Zm13.442,10.162h7.51l3.048-7.973c0.207-.661,1.253-2.3,4.517-2.3,3.789,0,3.327,2.261,3.1,2.83l-2.776,7.438h7.4l2.883-7.651s2.395-6.728-9.032-6.728c-11.7,0-13.387,5.872-13.387,5.872l-3.267,8.507h0Zm42.285-10.748c4.407,0,4.573,1.333,4.573,1.333s0.817,0.908-4.136.908-6.911-1.175-6.911-1.175a18.324,18.324,0,0,1,6.474-1.066h0Zm-0.761-3.631c-5.229,0-14.148,2.137-14.148,8.167,0,5.128,9.733,7,12.675,7,7.729,0,11.16-1.173,11.16-1.173l1.579-4.272a35.164,35.164,0,0,1-10.83,1.6c-9.689,0-8.98-4-8.98-4s2.668,2.137,9.144,2.137,12.136-1.336,12.136-3.9-5.519-5.553-12.736-5.553h0Zm40.434,14.379h7.458l2.719-7.438a2.778,2.778,0,0,1,2.5-2.083h5.823L612,101.309H601.5a7.457,7.457,0,0,0-6.1,4.834c-1.851,4.59-3.321,8.932-3.321,8.932h0Zm0.518-8.728c0,2.563-5.659,3.9-12.135,3.9s-9.145-2.138-9.145-2.138-0.708,4,8.981,4a35.191,35.191,0,0,0,10.83-1.6l-1.579,4.272s-3.431,1.172-11.16,1.172c-2.942,0-12.675-1.867-12.675-6.995,0-6.03,8.918-8.168,14.147-8.168,7.217,0,12.736,2.99,12.736,5.553h0Zm-18.448-.856s1.956,1.175,6.91,1.175,4.137-.908,4.137-0.908-0.167-1.333-4.574-1.333a18.308,18.308,0,0,0-6.473,1.066h0Z" transform="translate(-436 -90.938)"/>
</svg>
