<svg xmlns="http://www.w3.org/2000/svg" width="113" height="29.969" viewBox="0 0 113 29.969">
  <defs>
    <style>
      .cls-1 {
        fill: #fa7124;
        fill-rule: evenodd;
      }
    </style>
  </defs>
  <path class="cls-1" d="M953.514,83.445a1.651,1.651,0,0,0-1.192-.488,6.392,6.392,0,0,0-3.715,1.733,57.454,57.454,0,0,0-4.958,4.6c-1.921,1.963-3.952,4.229-6.039,6.736,0.011-.012-0.52.4-0.52,0.4l-1.171.82c-0.473.384-2.023,1.834-4.735,4.434a0.5,0.5,0,0,0-.062.04c-3.476,3.491-4.858,4.012-5.371,4.012l-0.16-.025h0c0-.009-0.024-0.162-0.024-0.162v-0.186a14.5,14.5,0,0,1,1.967-3l1.863-2.484,1.464-1.808,1.488-1.847a25.125,25.125,0,0,0,5.32-2.96,40.2,40.2,0,0,0,5.917-4.789c1.708-1.717,2.5-2.963,2.5-3.92a1.537,1.537,0,0,0-.485-1.105,1.651,1.651,0,0,0-1.192-.488A6.387,6.387,0,0,0,940.7,84.69a57.3,57.3,0,0,0-4.959,4.6c-1.921,1.963-3.952,4.229-6.039,6.736,0.011-.012-0.522.4-0.522,0.4l-1.169.82c-0.475.385-2.033,1.844-4.764,4.462l-0.007,0c-1.838,1.752-3.093,2.882-3.728,3.355a2.6,2.6,0,0,1-1.126.634l-0.121-.062a0.221,0.221,0,0,1-.029-0.138,2.01,2.01,0,0,1,.652-1.083l5.181-6.058a0.5,0.5,0,0,0-.379-0.819h-1.635a0.5,0.5,0,0,0-.378.174s-0.3.348-.584,0.682a1.408,1.408,0,0,0-1.419-.825c-1.468,0-3.189.693-5.264,2.12a8.873,8.873,0,0,0-2.266,2.145c-3.3,3.245-4.689,3.74-5.225,3.74-0.055-.033-0.031-0.364,1.013-1.351l1.132-1.073a7.677,7.677,0,0,0,1.712-2.1,4.232,4.232,0,0,0,.41-1.808,1.592,1.592,0,0,0-1.661-1.828c-0.861,0-2.027.6-3.671,1.895-0.308.244-.576,0.555-0.879,0.809l1.177-1.542,1.972-2.458a11.972,11.972,0,0,1,2.238-1.3,38.34,38.34,0,0,0,8.312-5.558c2.243-2.048,3.333-3.638,3.333-4.857a1.512,1.512,0,0,0-1.622-1.7,4.108,4.108,0,0,0-1.342.3A10.679,10.679,0,0,0,916.8,84.3a23.328,23.328,0,0,0-2.875,2.4l-2.953,3.137-5.09,5.835c0.039-.04-1.945,1.506-1.945,1.506-1.326,1.025-2.486,2-3.45,2.906l-1.751,1.617a0.091,0.091,0,0,0-.013.008l-0.019.018a5,5,0,0,0,.144-0.873l-0.13-1.714-0.12-1.267a1.176,1.176,0,0,1,.145-0.626l0.908-.954A0.584,0.584,0,0,0,899.8,95.9a0.448,0.448,0,0,0-.046-0.2l-0.11-.218a0.5,0.5,0,0,0-.785-0.136l-6.761,6.36s0,0,0,0l-0.01,0a24.162,24.162,0,0,1-3.678,3.105,4.337,4.337,0,0,1-1.913.849,0.088,0.088,0,0,1-.093-0.084l0.079-.224s1.2-1.451,1.2-1.451l2.182-2.38a7.8,7.8,0,0,0,1.556-2.036,0.491,0.491,0,0,0-.066-0.52l-1-1.22a0.5,0.5,0,0,0-.617-0.127,2.856,2.856,0,0,1-.985.281c0.091-.251.263-0.734,0.263-0.734l-0.313-.878a1.047,1.047,0,0,0-.81-0.4,1.247,1.247,0,0,0-.989.519,1.663,1.663,0,0,0,.033,2.146c-0.263.26-.587,0.578-0.587,0.578l-2.8,2.57,0,0c-1.843,1.755-3.1,2.884-3.729,3.355a2.584,2.584,0,0,1-1.125.634l-0.121-.062a0.22,0.22,0,0,1-.03-0.138,2.017,2.017,0,0,1,.653-1.083l5.18-6.058A0.5,0.5,0,0,0,884,97.539h-1.634a0.5,0.5,0,0,0-.379.174L881.4,98.4a1.41,1.41,0,0,0-1.419-.825c-1.468,0-3.19.693-5.265,2.12a8.9,8.9,0,0,0-2.238,2.109c-3.463,3.217-5.107,3.9-5.875,3.9a0.532,0.532,0,0,1-.392-0.162,0.486,0.486,0,0,1-.16-0.375c0-.878,1.317-3.706,7.591-12.2a138.651,138.651,0,0,1,12.413-15.083,0.5,0.5,0,0,0-.477-0.833c-2.676.7-5.7,2.646-8.984,5.8a94.678,94.678,0,0,0-9.926,11.4l-4.921,6.555a39.366,39.366,0,0,1-3.415,4.183,3.978,3.978,0,0,1-.911.694c0.007-.018.019-0.065,0.019-0.065a74.1,74.1,0,0,1,5.29-8.4c2.7-3.895,5.419-7.588,8.074-10.978s5.011-6.155,7.019-8.243a0.5,0.5,0,0,0-.506-0.818,23.7,23.7,0,0,0-8.523,5.409A88.39,88.39,0,0,0,858.02,95.259c-1.644,2.225-2.939,3.887-3.847,4.939a22.935,22.935,0,0,1-3.193,3.014,14.061,14.061,0,0,1-3.2,1.995,6.823,6.823,0,0,1-2.594.554,3.633,3.633,0,0,1-1.877-.471,1.179,1.179,0,0,1-.654-0.721,1.74,1.74,0,0,0,.3.105,1.562,1.562,0,0,0,1.129-.473,1.591,1.591,0,0,0,.481-1.155,1.687,1.687,0,0,0-.462-1.169,1.547,1.547,0,0,0-1.16-.522,1.791,1.791,0,0,0-1.4.685,2.382,2.382,0,0,0-.551,1.582,3,3,0,0,0,1.189,2.426,4.435,4.435,0,0,0,2.866.923,8.363,8.363,0,0,0,3.148-.648,14.909,14.909,0,0,0,3.429-2.087A24.533,24.533,0,0,0,855.032,101c1.031-1.187,2.418-2.983,4.239-5.491,1.782-2.454,3.358-4.5,4.683-6.093s2.859-3.251,4.559-4.935a36.107,36.107,0,0,1,4.4-3.817c0.4-.278.814-0.514,1.227-0.759-1.5,1.408-2.6,2.478-3.235,3.143-0.917.964-2.429,2.732-4.618,5.4-2.152,2.625-3.987,4.992-5.455,7.036a53.8,53.8,0,0,0-3.336,5.119,15.861,15.861,0,0,0-1.381,2.984s-0.257,1.648-.257,1.648a1.938,1.938,0,0,0,.336,1.121,1.27,1.27,0,0,0,1.083.577,3.265,3.265,0,0,0,2.091-1.363c0.748-.816,2.4-2.936,5.064-6.483l6.606-8.541a76.671,76.671,0,0,1,5.477-6.085,35.075,35.075,0,0,1,4.785-4.12c0.331-.222.631-0.377,0.947-0.565a98.5,98.5,0,0,0-11,12.226c-4.473,5.826-6.648,9.924-6.648,12.529a2.557,2.557,0,0,0,.558,1.7,1.86,1.86,0,0,0,1.45.7c1.209,0,2.849-.9,4.966-2.7,0,0.081-.019.16-0.019,0.241a3.088,3.088,0,0,0,.4,1.631,1.487,1.487,0,0,0,1.315.764c0.57,0,1.6-.287,4.034-2.343a3.418,3.418,0,0,0-.116.628,1.96,1.96,0,0,0,.337,1.138,1.283,1.283,0,0,0,1.1.577,3.361,3.361,0,0,0,1.751-.764,45.527,45.527,0,0,0,3.968-3.514l0.015-.01,3.7-3.38,0.229,0.035c0.113,0,.25-0.071.366-0.083l-1.28,1.507a16.466,16.466,0,0,0-2.023,2.507,3.619,3.619,0,0,0-.521,1.819,2.055,2.055,0,0,0,.412,1.313,1.515,1.515,0,0,0,1.228.57c0.956,0,2.254-.684,3.973-2.085,0,0.027-.013.05-0.013,0.078a1.816,1.816,0,0,0,.619,1.415,2.057,2.057,0,0,0,1.411.53c1.877,0,4.2-1.387,7.09-4.239h0c1.1-1.026,2.037-1.865,2.889-2.615-2.233,2.691-4.81,5.792-4.81,5.792a0.494,0.494,0,0,0-.067.529,0.5,0.5,0,0,0,.45.284h1.809a0.463,0.463,0,0,0,.346-0.138l2.548-2.636a30.577,30.577,0,0,1,3.23-3.034,15.437,15.437,0,0,1,2.491-1.73,3.081,3.081,0,0,1,1.09-.4L909.7,98.7a0.142,0.142,0,0,1,.054.128,0.879,0.879,0,0,1-.226.487,18.4,18.4,0,0,1-1.7,1.733,14.929,14.929,0,0,0-1.923,2.073,2.9,2.9,0,0,0-.509,1.649,2.409,2.409,0,0,0,.37,1.367,1.372,1.372,0,0,0,1.178.646,4.521,4.521,0,0,0,2.246-.908,16.918,16.918,0,0,0,2.059-1.6c0,0.068-.015.136-0.015,0.2a3.088,3.088,0,0,0,.394,1.631,1.491,1.491,0,0,0,1.318.764c0.568,0,1.6-.287,4.031-2.343a3.418,3.418,0,0,0-.116.628,1.96,1.96,0,0,0,.337,1.138,1.285,1.285,0,0,0,1.1.577,3.356,3.356,0,0,0,1.75-.764,45.527,45.527,0,0,0,3.968-3.514c0.007,0,.015-0.007.021-0.012l1.846-1.716c-1.264,1.807-1.91,3.219-1.91,4.268a1.92,1.92,0,0,0,.458,1.281,1.521,1.521,0,0,0,1.18.581c1.166,0,2.821-1.065,5.2-3.352l1.063-1.021a0.384,0.384,0,0,0,.068-0.041l1.846-1.716c-1.264,1.807-1.91,3.219-1.91,4.268a1.92,1.92,0,0,0,.458,1.281,1.521,1.521,0,0,0,1.18.581c1.166,0,2.821-1.065,5.2-3.352l1.122-1.078a0.5,0.5,0,0,0,.033-0.68l-0.125-.145a0.5,0.5,0,0,0-.359-0.175,0.5,0.5,0,0,0-.372.146c-3.476,3.491-4.858,4.012-5.371,4.012l-0.16-.025h0c0-.009-0.024-0.162-0.024-0.162v-0.186a14.5,14.5,0,0,1,1.967-3l1.864-2.484,1.463-1.808,1.488-1.847a25.1,25.1,0,0,0,5.32-2.96,40.2,40.2,0,0,0,5.917-4.789c1.708-1.717,2.5-2.963,2.5-3.92A1.537,1.537,0,0,0,953.514,83.445Zm-3.623,1.842a4.389,4.389,0,0,1,2.384-1.09,0.481,0.481,0,0,1,.36.125,0.3,0.3,0,0,1,.12.226c0,0.335-.275,1.181-2.112,3.081a33.868,33.868,0,0,1-5.7,4.587c-1.211.8-2.23,1.428-3.071,1.906,0.841-1.069,1.913-2.363,3.262-3.933A37.761,37.761,0,0,1,949.891,85.288Zm-7.908,0a4.389,4.389,0,0,1,2.384-1.09,0.483,0.483,0,0,1,.36.125,0.3,0.3,0,0,1,.12.226c0,0.335-.275,1.181-2.112,3.081a33.868,33.868,0,0,1-5.7,4.587c-1.211.8-2.23,1.428-3.071,1.906,0.841-1.069,1.913-2.363,3.262-3.933A37.761,37.761,0,0,1,941.983,85.288Zm-24.59,17.3a19.393,19.393,0,0,1-2.925,2.4,3.583,3.583,0,0,1-1.493.685,0.218,0.218,0,0,1-.191-0.062s-0.083-.181-0.083-0.181c0-.375.365-1.372,2.806-3.827,2.318-2.33,3.521-2.818,4.122-2.818,0.348,0,.348.082,0.348,0.243a2.292,2.292,0,0,1-.4,1.184A15.762,15.762,0,0,1,917.393,102.584Zm-24.808,2.706a1.4,1.4,0,0,0,.384-0.96l-0.312-.773-0.542-.237c0.243-.228.487-0.455,0.745-0.7a0.56,0.56,0,0,0,.048-0.03s2.978-2.771,4.358-4.058l-0.021.129a8.744,8.744,0,0,1-1.923,4.757c-1.105,1.432-2.109,2.19-2.9,2.19a0.529,0.529,0,0,1-.2-0.052A1.247,1.247,0,0,0,892.585,105.29Zm25.329-20.109a4.7,4.7,0,0,1,2.522-1.2c0.184,0,.3,0,0.3.372l-0.081.415a5.667,5.667,0,0,1-.907,1.54,16.678,16.678,0,0,1-2.423,2.542,33.732,33.732,0,0,1-3.694,2.72l-2.862,1.674-0.514.26c0.531-.643,1.28-1.533,2.363-2.8A44.268,44.268,0,0,1,917.914,85.181Zm-40.212,17.4a19.4,19.4,0,0,1-2.924,2.4,3.577,3.577,0,0,1-1.492.685,0.219,0.219,0,0,1-.192-0.063l-0.083-.18c0-.375.364-1.372,2.805-3.827,2.32-2.33,3.523-2.818,4.124-2.818,0.348,0,.348.082,0.348,0.243a2.31,2.31,0,0,1-.4,1.184A15.791,15.791,0,0,1,877.7,102.584Z" transform="translate(-841 -77.031)"/>
</svg>
