<svg xmlns="http://www.w3.org/2000/svg" width="83" height="17" viewBox="0 0 83 17">
  <defs>
    <style>
      .cls-1 {
        fill: #fa7124;
        fill-rule: evenodd;
      }
    </style>
  </defs>
  <path class="cls-1" d="M794.618,85.267h8.574l8.464,12.284h0.483l-0.112-12.284H817v16.466h-8.5L800.037,89.45H799.48l0.112,12.284h-4.974V85.267Zm-18.784,0h17.818v3.878H780.66V91.5h12.324v3.651H780.66v2.624h13.066v3.955H775.834V85.951L768.3,101.733h-7.537L752.82,85.267H758.2l5.863,12.32H765l5.791-12.32h5.048ZM734,96.3h4.751a1.842,1.842,0,0,0,.483,1.558,1.9,1.9,0,0,0,.892.267c0.371,0.039,1.558.039,3.563,0.075,2.042,0,3.3-.036,3.712-0.036a3.188,3.188,0,0,0,1-.191,1.206,1.206,0,0,0,.557-1.255,1.125,1.125,0,0,0-.41-0.99,3.975,3.975,0,0,0-1.558-.266c-0.594,0-1.893-.038-3.824-0.154-2-.075-3.34-0.151-3.935-0.151a11.063,11.063,0,0,1-2.709-.343,2.9,2.9,0,0,1-1.484-.95,5.434,5.434,0,0,1-.893-3.536,5.889,5.889,0,0,1,1.041-3.956,4.16,4.16,0,0,1,2.412-1.142A60.856,60.856,0,0,1,744.282,85a47.628,47.628,0,0,1,4.974.191,5.129,5.129,0,0,1,3.044,1.255,4.937,4.937,0,0,1,.817,3.232v0.76h-4.751c-0.039-.454-0.074-0.76-0.112-0.95a0.99,0.99,0,0,0-.371-0.419,2.806,2.806,0,0,0-1.114-.229c-0.52-.035-1.67-0.074-3.379-0.074a17.623,17.623,0,0,0-3.823.228,1.213,1.213,0,0,0,0,2.167c0.373,0.076,2.116.191,5.2,0.3,2.6,0.078,4.343.152,5.233,0.267a5.654,5.654,0,0,1,2.079.607,3.121,3.121,0,0,1,1.262,1.523,8.169,8.169,0,0,1,.371,2.7,7.4,7.4,0,0,1-.63,3.461,2.911,2.911,0,0,1-1.262,1.255,7.641,7.641,0,0,1-2.3.57c-1.075.077-3.044,0.152-5.939,0.152-2.413,0-4.232-.075-5.383-0.189a7.246,7.246,0,0,1-2.6-.722,2.793,2.793,0,0,1-1.262-1.37A8.117,8.117,0,0,1,734,97.056V96.3Z" transform="translate(-734 -85)"/>
</svg>
