<svg xmlns="http://www.w3.org/2000/svg" width="32.343" height="45.687" viewBox="0 0 32.343 45.687">
  <defs>
    <style>
      .cls-1 {
        fill: #fb5e31;
        fill-rule: evenodd;
      }
    </style>
  </defs>
  <path id="_2" data-name="2" class="cls-1" d="M408.471,308.388a2.358,2.358,0,0,0-1.021,3.142c0.2,1.1.434,2.345-.27,3.293a3.183,3.183,0,0,1-2,1.1v16.2a0.879,0.879,0,0,1-.318.675,0.914,0.914,0,0,1-.587.212,0.849,0.849,0,0,1-.142-0.011q-2.157-.335-4.325-0.522v2.641a0.887,0.887,0,0,1-.455.77,0.92,0.92,0,0,1-.907,0l-4.2-2.408-4.527,2.422a0.92,0.92,0,0,1-.9-0.017,0.881,0.881,0,0,1-.443-0.762v-2.642q-2.169.191-4.326,0.523a0.917,0.917,0,0,1-.73-0.2,0.88,0.88,0,0,1-.317-0.674v-16.2a3.188,3.188,0,0,1-2-1.1c-0.7-.948-0.473-2.194-0.27-3.293a2.356,2.356,0,0,0-1.021-3.141c-0.843-.786-1.8-1.675-1.8-2.891s0.955-2.106,1.8-2.891a2.356,2.356,0,0,0,1.021-3.141c-0.2-1.1-.434-2.345.269-3.293s2-1.125,3.131-1.275a4.648,4.648,0,0,0,1.777-.439,4.46,4.46,0,0,0,.955-1.5c0.5-1.021,1.061-2.178,2.222-2.549,1.12-.356,2.246.238,3.239,0.762a2.608,2.608,0,0,0,3.521,0c0.993-.524,2.119-1.118,3.238-0.762,1.162,0.371,1.725,1.528,2.223,2.548a4.471,4.471,0,0,0,.955,1.5,4.653,4.653,0,0,0,1.777.439c1.135,0.15,2.421.319,3.131,1.275s0.473,2.193.27,3.293a2.354,2.354,0,0,0,1.021,3.141c0.842,0.785,1.8,1.675,1.8,2.891S409.314,307.6,408.471,308.388Zm-8.664,22.3q1.783,0.151,3.562.4V316.2a2.827,2.827,0,0,0-1.1.341,4.491,4.491,0,0,0-.955,1.5,5.743,5.743,0,0,1-1.51,2.177V330.69Zm-9.614,2.928,3.639-1.947a0.918,0.918,0,0,1,.89.014l3.275,1.88v-12.9a6.864,6.864,0,0,1-2.142-.841,2.606,2.606,0,0,0-3.52,0,6.854,6.854,0,0,1-2.142.841v12.952Zm-5.372-2.531q1.779-.247,3.563-0.4V320.216a5.739,5.739,0,0,1-1.51-2.178,4.491,4.491,0,0,0-.955-1.5,2.832,2.832,0,0,0-1.1-.341v14.892Zm22.4-27.192a5.41,5.41,0,0,1-1.616-2.066,5.466,5.466,0,0,1,.061-2.679,3.3,3.3,0,0,0,.047-1.932,3.463,3.463,0,0,0-1.908-.56,5.722,5.722,0,0,1-2.6-.763,5.479,5.479,0,0,1-1.523-2.173,3.363,3.363,0,0,0-1.149-1.626,3.483,3.483,0,0,0-1.822.638,4.271,4.271,0,0,1-5.235,0,3.462,3.462,0,0,0-1.823-.637,3.353,3.353,0,0,0-1.148,1.625,5.488,5.488,0,0,1-1.523,2.172,5.714,5.714,0,0,1-2.6.764,3.473,3.473,0,0,0-1.908.559,3.3,3.3,0,0,0,.047,1.932,5.482,5.482,0,0,1,.061,2.68,5.417,5.417,0,0,1-1.616,2.066,1.658,1.658,0,0,0,0,3.206,5.417,5.417,0,0,1,1.616,2.066,5.482,5.482,0,0,1-.061,2.68,3.294,3.294,0,0,0-.047,1.931,2.889,2.889,0,0,0,1.569.516l0.338,0.045a5.7,5.7,0,0,1,2.6.763,5.479,5.479,0,0,1,1.522,2.171,3.549,3.549,0,0,0,1.119,1.614l0.026,0.011h0a3.459,3.459,0,0,0,1.823-.637,4.27,4.27,0,0,1,5.234,0,3.476,3.476,0,0,0,1.823.637l0,0,0.027-.011a3.552,3.552,0,0,0,1.118-1.613,5.472,5.472,0,0,1,1.522-2.171,5.705,5.705,0,0,1,2.6-.763l0.338-.045a2.892,2.892,0,0,0,1.57-.516,3.308,3.308,0,0,0-.048-1.932,3.939,3.939,0,0,1,1.555-4.745A1.658,1.658,0,0,0,407.224,303.9ZM394.1,315.536A10.04,10.04,0,1,1,404.331,305.5,10.15,10.15,0,0,1,394.1,315.536Zm0-18.3a8.265,8.265,0,1,0,8.425,8.264A8.356,8.356,0,0,0,394.1,297.234Zm-0.078,8.378c0.829-.6,2-1.191,2-2.4a1.388,1.388,0,0,0-1.427-1.513c-1.141,0-1.508,1.219-1.508,2.256h-1.848c-0.068-2.242,1.169-3.965,3.452-3.965a3.066,3.066,0,0,1,3.261,3.068c0,2.971-3.058,3.209-4.444,5.226H398V310h-6.985C391.014,307.714,392.373,306.775,394.018,305.612Z" transform="translate(-377.938 -290.313)"/>
</svg>
