<svg xmlns="http://www.w3.org/2000/svg" width="67.938" height="49" viewBox="0 0 67.938 49">
  <defs>
    <style>
      .cls-1 {
        fill: #fb5e31;
        fill-rule: evenodd;
      }
    </style>
  </defs>
  <path id="Forma_1" data-name="Forma 1" class="cls-1" d="M681.806,145.087l-2.142-2.168a18.333,18.333,0,0,0,0-25.7l2.145-2.168A21.424,21.424,0,0,1,681.806,145.087ZM678.1,118.806l-2.142,2.169a12.987,12.987,0,0,1,0,18.194l2.142,2.172A16.078,16.078,0,0,0,678.1,118.806Zm-3.827,3.868-2.144,2.168a7.458,7.458,0,0,1,0,10.459l2.146,2.169A10.556,10.556,0,0,0,674.27,122.674Zm-48.129,22.413,2.144-2.168a18.333,18.333,0,0,1,0-25.7l-2.147-2.168A21.43,21.43,0,0,0,626.141,145.087Zm3.711-3.749,2.142-2.169a12.989,12.989,0,0,1,0-18.2l-2.142-2.169A16.077,16.077,0,0,0,629.852,141.338Zm3.825-3.868,2.146-2.169a7.461,7.461,0,0,1,0-10.459l-2.145-2.168A10.554,10.554,0,0,0,633.677,137.47Zm34.374-27.161v42.383A3.3,3.3,0,0,1,664.78,156H643.175a3.3,3.3,0,0,1-3.274-3.308V110.309A3.3,3.3,0,0,1,643.175,107H664.78A3.3,3.3,0,0,1,668.051,110.309Zm-17.929-.522a0.4,0.4,0,0,0,.4.4h6.909a0.4,0.4,0,0,0,0-.8H650.52A0.4,0.4,0,0,0,650.122,109.787Zm5.49,42.905a1.637,1.637,0,1,0-1.637,1.652A1.646,1.646,0,0,0,655.612,152.692Zm10.161-40.444h-23.6v37.627h23.6V112.248Z" transform="translate(-620.031 -107)"/>
</svg>
