<svg xmlns="http://www.w3.org/2000/svg" width="37" height="37" viewBox="0 0 37 37">
  <defs>
    <style>
      .cls-1 {
        fill: #fa5e31;
        fill-rule: evenodd;
      }
    </style>
  </defs>
  <path id="Forma_1" data-name="Forma 1" class="cls-1" d="M106.594,211.494a1.9,1.9,0,1,1-1.9-1.853A1.877,1.877,0,0,1,106.594,211.494Zm7.711-1.853a1.854,1.854,0,1,0,1.9,1.853A1.877,1.877,0,0,0,114.305,209.641Zm8.115,7.545v-0.211a16.019,16.019,0,0,1-.76,1.771,10.775,10.775,0,0,0,.311,1.394,9.456,9.456,0,0,0,4.494,3.065,5.261,5.261,0,0,1-2.749.334,8.2,8.2,0,0,0,3.844,2.628c-4.063,3.573-10.757,3.652-15.437.877a8.867,8.867,0,0,1-5.247,0c-4.679,2.775-11.373,2.7-15.436-.877a8.2,8.2,0,0,0,3.893-2.693,5.317,5.317,0,0,1-2.205-.382,9.867,9.867,0,0,0,3.6-2.081,10.816,10.816,0,0,0,.607-2.265,16.06,16.06,0,0,1-.76-1.771v0.211h-2.3a3.243,3.243,0,0,1-3.282-3.2v-3.523a3.191,3.191,0,0,1,1.721-2.817c0.034-5,1.528-8.907,4.447-11.608,2.895-2.678,7.044-4.036,12.333-4.036s9.438,1.358,12.332,4.036c2.919,2.7,4.413,6.607,4.447,11.608A3.191,3.191,0,0,1,128,210.461v3.523a3.243,3.243,0,0,1-3.282,3.2h-2.3Zm-1.367-5.68c0-.824-0.043-1.6-0.107-2.348-1.481-1.322-4.19-2.319-7.606-2.67A4,4,0,0,1,114.6,208.5c-1.987-1.417-6.15-1.855-7.532-3.373h0c-2.2-1.422-2.778-3.458-2.8-2.615a7.758,7.758,0,0,1-6.285,7.637c-0.02.444-.037,0.893-0.037,1.361a14.176,14.176,0,0,0,.772,4.668c1.831,2.155,4.855,2.764,7.532,2.925a3.454,3.454,0,0,1,2.91-1.31c1.76,0,3.187.989,3.187,2.208s-1.427,2.207-3.187,2.207a3.376,3.376,0,0,1-2.97-1.41,16.01,16.01,0,0,1-5.76-1.262c2.577,3.707,6.573,5.667,9.069,5.667C113.421,225.2,121.053,220.366,121.053,211.506Zm1.988-4.247H124.3c-0.209-8.727-5.314-13.338-14.8-13.338s-14.594,4.611-14.8,13.338h1.263a15.17,15.17,0,0,1,2.919-7.221c2.361-2.964,5.935-4.467,10.621-4.467s8.26,1.5,10.621,4.467A15.168,15.168,0,0,1,123.041,207.259Z" transform="translate(-91 -192)"/>
</svg>
