<svg xmlns="http://www.w3.org/2000/svg" width="75" height="74" viewBox="0 0 75 74">
  <defs>
    <style>
      .cls-1 {
        fill: #fa5e31;
        fill-rule: evenodd;
      }
    </style>
  </defs>
  <path id="Forma_1" data-name="Forma 1" class="cls-1" d="M125.7,29.932l-1.782-1.77-1.782,1.77,1.782,1.77-1.782,1.77-1.781-1.77-0.111.11a2.454,2.454,0,0,1-3.447,0l-0.949-.943L103.188,43.444a14.746,14.746,0,0,1-.9,16.812l-0.136.169L119.792,77.95l8.2,8.149-1.782,1.771-8.291-8.238a6.327,6.327,0,0,1-7.927-.8L98.561,67.4c-0.857-.858-1.428-1.435-1.828-1.874-2.323-.714-5.311.229-7.507,2.411-2.8,2.779-3.515,6.715-1.635,8.961l0.658,0.786-3.732,4.63a14.874,14.874,0,0,1-10.791,5.656C73.418,87.992,73.11,88,72.8,88a14.9,14.9,0,0,1-10.3-4.138,3.755,3.755,0,0,1-4.289.721l-3.069,3.05a1.265,1.265,0,0,1-1.78,0,1.245,1.245,0,0,1,0-1.77l3.072-3.052a3.731,3.731,0,0,1,.723-4.259,14.677,14.677,0,0,1,1.569-21.879l4.588-3.771,0.805,0.686c2.258,1.922,6.238,1.224,9.064-1.584,2.286-2.273,3.221-5.416,2.342-7.732L62.81,31.954A6.227,6.227,0,0,1,62,24.066l-1.935-1.923,1.783-1.77,1.845,1.834L80.431,38.841l0.138-.114a14.9,14.9,0,0,1,17.342-.665L110.5,25.557l-0.948-.941a2.414,2.414,0,0,1,0-3.427l0.11-.109-1.782-1.772,1.782-1.77,1.781,1.771,1.782-1.771-1.782-1.77L113.223,14l2.148,2.135a6.3,6.3,0,0,1,6.732,1.377l1.841,1.83a6.192,6.192,0,0,1,1.387,6.689l2.147,2.133ZM111.776,77.068a3.884,3.884,0,0,0,4.3.733L100.57,62.394l-1.143,1.418-0.4.5C101.4,66.7,108.7,73.993,111.776,77.068ZM58.948,82.092a1.293,1.293,0,0,0,1.78,0l3.088-3.066-1.782-1.771-3.09,3.071A1.247,1.247,0,0,0,58.948,82.092ZM63.841,25.9a3.74,3.74,0,0,0,.74,4.274L76.7,41.908l0.91-.747,0.873-.717ZM82.153,40.676l-2.18,1.79L78.107,44c0.885,3.151-.306,6.963-3.136,9.776-3.433,3.412-8.315,4.332-11.612,2.344L60.31,58.627a12.208,12.208,0,0,0-1.373,18.167l3.1-3.08,5.345,5.312-3.1,3.079A12.388,12.388,0,0,0,82.54,80.767l2.51-3.115c-1.949-3.27-1.005-8.105,2.394-11.482a10.539,10.539,0,0,1,9.44-3.206l3.438-4.269a12.24,12.24,0,0,0,1.03-13.426l-9.51,9.448L86.5,49.407l9.6-9.535A12.374,12.374,0,0,0,82.153,40.676Zm17.8-1.1L90.06,49.407l1.782,1.77L114.063,29.1l-1.783-1.773Zm22.212-18.47-1.841-1.83a3.725,3.725,0,0,0-4.511-.575l-0.042.025c-0.117.071-.215,0.139-0.312,0.208a3.676,3.676,0,0,0-.423.343l-3.7,3.68,0.9,0.878,0.05-.05,5.346,5.313-0.007.008,0.9,0.878,3.647-3.623a3.6,3.6,0,0,0,.344-0.419c0.069-.1.137-0.193,0.206-0.309l0.037-.061A3.692,3.692,0,0,0,122.164,21.109ZM77.954,72.822a1.244,1.244,0,0,0,0,1.769,1.247,1.247,0,0,1,0,1.771,1.268,1.268,0,0,1-1.783,0,3.739,3.739,0,0,1,0-5.312l5.345-5.311a1.249,1.249,0,0,0,0-1.772,1.245,1.245,0,0,1,0-1.77,1.264,1.264,0,0,1,1.782,0,3.743,3.743,0,0,1,0,5.312ZM77.063,59.544a1.294,1.294,0,0,0-1.78,0l-5.347,5.311a3.8,3.8,0,0,1-5.345,0,1.245,1.245,0,0,1,0-1.77,1.264,1.264,0,0,1,1.782,0,1.264,1.264,0,0,0,1.781,0L73.5,57.774a3.888,3.888,0,0,1,5.345,0,1.245,1.245,0,0,1,0,1.77A1.264,1.264,0,0,1,77.063,59.544Z" transform="translate(-53 -14)"/>
</svg>
