<svg xmlns="http://www.w3.org/2000/svg" width="41.281" height="26.75" viewBox="0 0 41.281 26.75">
  <defs>
    <style>
      .cls-1 {
        fill: #fa5e31;
        fill-rule: evenodd;
      }
    </style>
  </defs>
  <path id="Forma_1" data-name="Forma 1" class="cls-1" d="M591.684,306.225l-4.468-4.551a9.725,9.725,0,0,0,2.068-6.012A9.585,9.585,0,0,0,579.8,286a9.406,9.406,0,0,0-7.343,3.553v-2.462A1.081,1.081,0,0,0,571.386,286h-9.852a1.081,1.081,0,0,0-1.072,1.091v3.588H551.8a1.081,1.081,0,0,0-1.071,1.092v19.888a1.081,1.081,0,0,0,1.071,1.091h29.859a1.081,1.081,0,0,0,1.071-1.091v-6.81a9.4,9.4,0,0,0,2.969-1.632l4.469,4.552a1.059,1.059,0,0,0,1.515,0A1.106,1.106,0,0,0,591.684,306.225ZM579.8,288.182a7.481,7.481,0,1,1-7.343,7.48A7.42,7.42,0,0,1,579.8,288.182Zm-18.266,4.68h9.188a9.773,9.773,0,0,0,3.785,10.814v6.891H558.956v-17.7h2.578Zm1.071-4.68h7.71v2.5h-7.71v-2.5Zm-9.732,4.68h3.94v17.7h-3.94v-17.7Zm27.717,17.7h-3.94v-5.793a9.3,9.3,0,0,0,3.15.55c0.266,0,.529-0.014.79-0.036v5.279Z" transform="translate(-550.719 -286)"/>
</svg>
