<svg xmlns="http://www.w3.org/2000/svg" width="47.625" height="58" viewBox="0 0 47.625 58">
  <defs>
    <style>
      .cls-1 {
        fill: #fa5e31;
        fill-rule: evenodd;
      }
    </style>
  </defs>
  <path id="Forma_1" data-name="Forma 1" class="cls-1" d="M240.9,39.826a11.088,11.088,0,0,0-.14,11.124l0.245,0.435-0.428.455c-0.052.053-.1,0.1-0.148,0.158-0.113.138-.231,0.283-0.347,0.432s-0.231.289-.35,0.434l-0.6.73-0.5-.808a13.783,13.783,0,0,1-.178-14.241l0.33-.566,0.579,0.311a8.964,8.964,0,0,0,1.2.551l0.765,0.284Zm-6.073,19.3c-0.157.157-.261,0.265-0.363,0.375l-0.531.574-0.5-.608a21.853,21.853,0,0,1-.886-26.76l0.545-.762,0.556,0.757q0.441,0.6.895,1.18l0.31,0.39-0.285.414a19.1,19.1,0,0,0,.865,22.882l0.328,0.406-0.541.726C235.077,58.875,234.953,59,234.831,59.124ZM222.328,45.5a28.139,28.139,0,0,0,6.813,18.276l0.437,0.513-0.5.438c-0.191.17-.39,0.338-0.583,0.5l-1.019.869-0.444-.509a30.777,30.777,0,0,1,.383-40.638l0.565-.639,0.494,0.7q0.423,0.591.845,1.22l0.291,0.432-0.345.393A28.079,28.079,0,0,0,222.328,45.5Zm-8.857,0a37.024,37.024,0,0,0,8.823,23.951l0.455,0.53-0.547.439c-0.321.261-.64,0.532-0.955,0.808l-0.629.539-0.442-.523a39.694,39.694,0,0,1,1.14-52.774l0.448-.482,0.5,0.43c0.25,0.215.487,0.437,0.728,0.661l0.842,0.771-0.463.5A36.868,36.868,0,0,0,213.471,45.5Zm-12.377,6.233V74.5h-7.418V16.5h7.418v21.5A6.9,6.9,0,0,1,201.094,51.734Z" transform="translate(-193.688 -16.5)"/>
</svg>
