<svg xmlns="http://www.w3.org/2000/svg" width="76" height="58" viewBox="0 0 76 58">
  <defs>
    <style>
      .cls-1 {
        fill: #fb5e31;
        fill-rule: evenodd;
      }
    </style>
  </defs>
  <path id="Forma_1" data-name="Forma 1" class="cls-1" d="M725.814,285H658.186A4.2,4.2,0,0,1,654,280.786V231.213A4.2,4.2,0,0,1,658.186,227h67.628A4.2,4.2,0,0,1,730,231.213v49.573A4.2,4.2,0,0,1,725.814,285Zm1.724-53.787a1.732,1.732,0,0,0-1.724-1.735H658.186a1.732,1.732,0,0,0-1.724,1.735v11.65h71.076v-11.65Zm-60.571,14.129v18.589a1.4,1.4,0,1,0,2.791,0V245.342h-2.791Zm11.819,0v18.589a1.4,1.4,0,1,0,2.791,0V245.342h-2.791Zm11.819,0v18.589a1.4,1.4,0,1,0,2.79,0V245.342h-2.79Zm11.818,0v18.589a1.4,1.4,0,1,0,2.791,0V245.342h-2.791Zm11.819,0v18.589a1.4,1.4,0,1,0,2.79,0V245.342h-2.79Zm13.3,0H719.5v18.589a3.889,3.889,0,0,1-2.627,3.68v1.608a1.231,1.231,0,1,1-2.462,0v-1.608a3.888,3.888,0,0,1-2.626-3.68V245.342h-4.1v18.589a3.888,3.888,0,0,1-2.626,3.68v1.608a1.232,1.232,0,1,1-2.463,0v-1.608a3.889,3.889,0,0,1-2.626-3.68V245.342h-4.1v18.589a3.888,3.888,0,0,1-2.626,3.68v1.608a1.231,1.231,0,1,1-2.462,0v-1.608a3.889,3.889,0,0,1-2.627-3.68V245.342h-4.1v18.589a3.889,3.889,0,0,1-2.627,3.68v1.608a1.231,1.231,0,1,1-2.462,0v-1.608a3.888,3.888,0,0,1-2.626-3.68V245.342h-4.1v18.589a3.888,3.888,0,0,1-2.626,3.68v1.608a1.231,1.231,0,1,1-2.462,0v-1.608a3.889,3.889,0,0,1-2.627-3.68V245.342h-8.043v35.444a1.731,1.731,0,0,0,1.724,1.735h8.946v-8.014a1.231,1.231,0,1,1,2.462,0v8.014h9.356v-8.014a1.231,1.231,0,1,1,2.462,0v8.014h9.357v-8.014a1.231,1.231,0,1,1,2.462,0v8.014h9.356v-8.014a1.232,1.232,0,1,1,2.463,0v8.014h9.356v-8.014a1.231,1.231,0,1,1,2.462,0v8.014h8.946a1.731,1.731,0,0,0,1.724-1.735V245.342Zm-17.154-13.054a1.239,1.239,0,0,1,0,2.478,1.4,1.4,0,1,0,1.209,2.107,1.227,1.227,0,0,1,1.683-.452,1.244,1.244,0,0,1,.448,1.694A3.866,3.866,0,1,1,710.384,232.288Zm9.193,0a1.239,1.239,0,0,1,0,2.478,1.4,1.4,0,1,0,1.209,2.107,1.226,1.226,0,0,1,1.682-.452,1.244,1.244,0,0,1,.448,1.694A3.866,3.866,0,1,1,719.577,232.288Z" transform="translate(-654 -227)"/>
</svg>
