<svg xmlns="http://www.w3.org/2000/svg" width="43" height="43" viewBox="0 0 43 43">
  <defs>
    <style>
      .cls-1 {
        fill: #fa5e31;
        fill-rule: evenodd;
      }
    </style>
  </defs>
  <path id="Forma_1" data-name="Forma 1" class="cls-1" d="M307.123,130.656a2.209,2.209,0,1,1-2.208-2.155A2.182,2.182,0,0,1,307.123,130.656Zm8.962-2.155a2.155,2.155,0,1,0,2.207,2.155A2.182,2.182,0,0,0,316.085,128.5Zm9.43,8.769v-0.245a18.562,18.562,0,0,1-.883,2.059,12.561,12.561,0,0,0,.361,1.619,11,11,0,0,0,5.224,3.563,6.13,6.13,0,0,1-3.2.388,9.539,9.539,0,0,0,4.467,3.054c-4.721,4.152-12.5,4.244-17.939,1.019a10.313,10.313,0,0,1-6.1,0c-5.438,3.225-13.218,3.133-17.94-1.019a9.524,9.524,0,0,0,4.525-3.13,6.167,6.167,0,0,1-2.563-.444,11.464,11.464,0,0,0,4.189-2.418,12.606,12.606,0,0,0,.706-2.632,18.757,18.757,0,0,1-.884-2.059v0.245h-2.67A3.769,3.769,0,0,1,289,133.549v-4.094a3.707,3.707,0,0,1,2-3.274c0.04-5.813,1.776-10.352,5.167-13.49,3.365-3.113,8.187-4.691,14.333-4.691s10.968,1.578,14.332,4.691c3.392,3.138,5.128,7.677,5.168,13.49a3.707,3.707,0,0,1,2,3.274v4.094a3.769,3.769,0,0,1-3.815,3.721h-2.67Zm-1.588-6.6c0-.957-0.05-1.857-0.125-2.729-1.721-1.536-4.869-2.695-8.839-3.1a4.647,4.647,0,0,1,1.46,2.334c-2.308-1.646-7.146-2.156-8.753-3.92h0c-2.558-1.652-3.23-4.018-3.251-3.039-0.1,4.7-3.516,8.358-7.3,8.875-0.024.516-.044,1.038-0.044,1.582a16.474,16.474,0,0,0,.9,5.425c2.128,2.5,5.643,3.212,8.754,3.4a4.012,4.012,0,0,1,3.382-1.522c2.046,0,3.7,1.148,3.7,2.565s-1.658,2.565-3.7,2.565a3.924,3.924,0,0,1-3.452-1.639A18.623,18.623,0,0,1,299.96,140c3,4.308,7.64,6.586,10.54,6.586C315.057,146.583,323.927,140.966,323.927,130.669Zm2.309-4.936H327.7c-0.243-10.142-6.177-15.5-17.2-15.5s-16.961,5.358-17.2,15.5h1.468a17.619,17.619,0,0,1,3.392-8.391c2.744-3.445,6.9-5.192,12.344-5.192s9.6,1.747,12.344,5.192A17.619,17.619,0,0,1,326.236,125.733Z" transform="translate(-289 -108)"/>
</svg>
