<svg xmlns="http://www.w3.org/2000/svg" width="70.031" height="61.969" viewBox="0 0 70.031 61.969">
  <defs>
    <style>
      .cls-1 {
        fill: #fa5e31;
        fill-rule: evenodd;
      }
    </style>
  </defs>
  <path id="Forma_1" data-name="Forma 1" class="cls-1" d="M153.526,268.174a0.779,0.779,0,0,1-.955-0.3c-0.01-.014-1.517-2.149-6.886-2.879l1.042,4.14s0,0.011,0,.017l0.551,2.188a2.382,2.382,0,0,1-.521,2.071,3.651,3.651,0,0,1-2.751,1.369,3.191,3.191,0,0,1-3.2-3.172,3.452,3.452,0,0,1,1.464-2.75,3.7,3.7,0,0,1,2.641-.58l-2.1-8.323a0.76,0.76,0,0,1,.2-0.726,0.779,0.779,0,0,1,.73-0.208c5.533,1.3,8.484,2.943,9.288,5.159a30.861,30.861,0,0,1,.945,3.109A0.766,0.766,0,0,1,153.526,268.174Zm-9.183,1.608a2.026,2.026,0,0,0-1.181.337,1.9,1.9,0,0,0-.8,1.491,1.646,1.646,0,0,0,1.653,1.636,2.1,2.1,0,0,0,1.529-.78,0.942,0.942,0,0,0,.237-0.753l-0.449-1.784A3.707,3.707,0,0,0,144.343,269.782Zm7.234-5.081c-0.541-1.49-2.874-2.79-6.942-3.872l0.647,2.57a16.668,16.668,0,0,1,6.5,1.9C151.721,265.106,151.651,264.9,151.577,264.7Zm-13.025,5.346a0.779,0.779,0,0,1-.955-0.3c0-.007-1.183-1.651-5.328-2.263l0.8,3.183c0,0.007,0,.014,0,0.021l0.45,1.787a2.081,2.081,0,0,1-.452,1.814,3.134,3.134,0,0,1-2.362,1.174,2.752,2.752,0,0,1-2.762-2.735,2.967,2.967,0,0,1,1.259-2.365,3.121,3.121,0,0,1,2.056-.519l-1.667-6.617a0.764,0.764,0,0,1,.2-0.727,0.782,0.782,0,0,1,.731-0.207c4.577,1.079,7.024,2.448,7.7,4.309a25.149,25.149,0,0,1,.777,2.56A0.765,0.765,0,0,1,138.552,270.047Zm-7.568,1.327a1.521,1.521,0,0,0-.886.25,1.431,1.431,0,0,0-.6,1.106,1.206,1.206,0,0,0,1.211,1.2,1.589,1.589,0,0,0,1.14-.584,0.639,0.639,0,0,0,.169-0.5l-0.348-1.38A2.786,2.786,0,0,0,130.984,271.374Zm5.786-4.25c-0.293-.807-1.482-1.953-5.353-3.017l0.448,1.777a14.3,14.3,0,0,1,4.952,1.371C136.8,267.212,136.786,267.168,136.77,267.124Zm5.793,39.24a24.143,24.143,0,0,1-4.706,7.778,24.39,24.39,0,0,1-7.063,5.768,8.808,8.808,0,0,1-3.913,1.09,4.068,4.068,0,0,1-2.71-.917c-0.078-.067-0.173-0.147-23.589-24.5a16.114,16.114,0,0,1-3.257-2.191c-0.8-.682-3.257-2.923-3.8-5.124l-7.35-7.243a1.54,1.54,0,0,1-.525-0.612l-1.5-3.174a1.524,1.524,0,0,1,.228-1.655l6.814-7.839a1.56,1.56,0,0,1,1.619-.47l3.393,1a1.555,1.555,0,0,1,.693.427l8.493,5.879c2.285,0.192,4.905,2.278,5.709,2.963a16.085,16.085,0,0,1,2.674,2.862c27.672,19.206,27.9,19.381,27.981,19.448C142.618,300.593,143.881,302.425,142.563,306.364Zm-30.808-23.6a1.533,1.533,0,0,1-.4-0.411,12.725,12.725,0,0,0-2.282-2.478c-1.945-1.658-3.592-2.273-4.045-2.232a1.566,1.566,0,0,1-1.027-.271l-9.032-6.252-2.083-.616-5.5,6.331,0.93,1.962,7.753,7.641a1.53,1.53,0,0,1,.454,1c0.028,0.448.886,1.971,2.832,3.63a12.828,12.828,0,0,0,2.814,1.864,1.565,1.565,0,0,1,.471.334c6.649,6.917,18.311,19.044,22.283,23.165a11.054,11.054,0,0,1,.732-2.44,27.147,27.147,0,0,1,10.1-11.622,10.731,10.731,0,0,1,2.572-1.153C133.725,298.01,119.715,288.284,111.755,282.759ZM137.337,305a24.063,24.063,0,0,0-5.137,4.455,21.878,21.878,0,0,0-3.682,5.695,7.938,7.938,0,0,0-.637,2.625c1.817-.525,4.726-2.3,7.625-5.634a21.363,21.363,0,0,0,4.112-6.74,8.39,8.39,0,0,0,.362-1.476A8.533,8.533,0,0,0,137.337,305Zm-18.052-5.331a0.777,0.777,0,0,1-.529.265,0.572,0.572,0,0,1-.058,0,0.775,0.775,0,0,1-.506-0.186l-1.6-1.363a0.762,0.762,0,0,1-.082-1.083l1.376-1.583a0.779,0.779,0,0,1,1.093-.082l1.6,1.363a0.763,0.763,0,0,1,.083,1.083Zm-10.035-8.553a0.779,0.779,0,0,1-1.093.082l-1.6-1.363a0.764,0.764,0,0,1-.082-1.083l1.376-1.584a0.782,0.782,0,0,1,1.094-.082l1.6,1.363a0.762,0.762,0,0,1,.082,1.083Zm-9.812-8.972a0.79,0.79,0,0,1-.108-0.008l-3.634-.507a0.775,0.775,0,0,1-.4-0.178l-3.645-3.107a0.763,0.763,0,0,1-.082-1.083l2.586-2.976a0.782,0.782,0,0,1,1.094-.082l3.646,3.108a0.77,0.77,0,0,1,.237.363l1.047,3.482a0.763,0.763,0,0,1-.155.721A0.782,0.782,0,0,1,99.438,282.141Zm40.331,3.956c0,0.006,0,.011,0,0.017l0.581,2.307a2.471,2.471,0,0,1-.541,2.147A3.806,3.806,0,0,1,136.947,292a3.323,3.323,0,0,1-3.335-3.3,3.6,3.6,0,0,1,1.526-2.864,3.881,3.881,0,0,1,2.815-.6l-2.225-8.831a0.762,0.762,0,0,1,.2-0.726,0.783,0.783,0,0,1,.731-0.208c5.815,1.371,8.916,3.09,9.759,5.41a32.309,32.309,0,0,1,.994,3.273,0.765,0.765,0,0,1-.455.883,0.779,0.779,0,0,1-.955-0.3c-0.011-.016-1.617-2.3-7.348-3.061Zm-2.473.629a2.185,2.185,0,0,0-1.269.362,2.046,2.046,0,0,0-.864,1.6,1.778,1.778,0,0,0,1.784,1.767,2.258,2.258,0,0,0,1.644-.839,1.029,1.029,0,0,0,.258-0.828l-0.479-1.9A3.956,3.956,0,0,0,137.3,286.726Zm7.92-4.591c-0.08-.238-0.165-0.485-0.257-0.737-0.577-1.591-3.069-2.977-7.413-4.125l0.707,2.8A17.386,17.386,0,0,1,145.216,282.135Z" transform="translate(-83.969 -259.031)"/>
</svg>
