<svg xmlns="http://www.w3.org/2000/svg" width="60" height="59.906" viewBox="0 0 60 59.906">
  <defs>
    <style>
      .cls-1 {
        fill: #fb5e31;
        fill-rule: evenodd;
      }
    </style>
  </defs>
  <path id="Forma_1" data-name="Forma 1" class="cls-1" d="M892.051,257H880.414l-1.707,1.7a1,1,0,0,1-1.414,0L876,257.418l-1.293,1.291a1,1,0,0,1-1.414,0L872,257.418l-1.293,1.291a1,1,0,0,1-1.414,0L868,257.418l-1.293,1.291a1,1,0,0,1-1.414,0l-1.707-1.7H839.949A3.949,3.949,0,0,1,836,253.062V205.035a3.949,3.949,0,0,1,3.949-3.942h23.637l1.707-1.7a1,1,0,0,1,1.414,0L868,200.679l1.293-1.291a1,1,0,0,1,1.414,0L872,200.679l1.293-1.291a1,1,0,0,1,1.414,0L876,200.679l1.293-1.291a1,1,0,0,1,1.414,0l1.707,1.7h11.637A3.949,3.949,0,0,1,896,205.035v48.027A3.949,3.949,0,0,1,892.051,257ZM851,203.09H839.949A1.949,1.949,0,0,0,838,205.035v3.047h5v-2h8v-3Zm0,8.985h-8v-2h-5v5.991h5v-2h8v-2Zm0,7.988h-8v-2h-5v5.991h5v-2h8v-2Zm0,7.987h-8v-2h-5v5.991h5v-2h8v-2Zm0,7.988h-8v-2h-5v5.99h5v-2h8v-2Zm0,7.987h-8v-2h-5v5.991h5v-2h8v-2Zm0,7.987h-8v-2h-5v3.047a1.949,1.949,0,0,0,1.949,1.945H851v-3Zm12-48.922H853v51.917h10V203.09Zm4-.585-1-1-1,1v53.088l1,1,1-1V202.505Zm4,0-1-1-1,1v53.088l1,1,1-1V202.505Zm4,0-1-1-1,1v53.088l1,1,1-1V202.505Zm4,0-1-1-1,1v53.088l1,1,1-1V202.505Zm15,2.53a1.949,1.949,0,0,0-1.949-1.945H881v51.917h11.051A1.949,1.949,0,0,0,894,253.062V205.035Zm-2.293,41.693a1,1,0,0,1-.707.292h-2a1,1,0,0,1-.707-0.292l-1-1a0.993,0.993,0,0,1-.293-0.706v-2a0.993,0.993,0,0,1,.293-0.706l1-1A1,1,0,0,1,889,241.03h2a1,1,0,0,1,.707.292l1,1a0.993,0.993,0,0,1,.293.706v2a0.993,0.993,0,0,1-.293.706ZM891,243.44l-0.414-.413h-1.172L889,243.44v1.17l0.414,0.413h1.172L891,244.61v-1.17Zm0.707-6.7a1,1,0,0,1-.707.293h-2a1,1,0,0,1-.707-0.293l-1-1a1,1,0,0,1-.293-0.706v-2a1,1,0,0,1,.293-0.706l1-1a1,1,0,0,1,.707-0.293h2a1,1,0,0,1,.707.293l1,1a1,1,0,0,1,.293.706v2a1,1,0,0,1-.293.706ZM891,233.456l-0.414-.414h-1.172l-0.414.414v1.17l0.414,0.413h1.172l0.414-.413v-1.17Zm0.707-6.7a1,1,0,0,1-.707.293h-2a1,1,0,0,1-.707-0.293l-1-1a1,1,0,0,1-.293-0.706v-2a1,1,0,0,1,.293-0.706l1-1a1,1,0,0,1,.707-0.293h2a1,1,0,0,1,.707.293l1,1a1,1,0,0,1,.293.706v2a1,1,0,0,1-.293.706ZM891,223.471l-0.414-.413h-1.172l-0.414.413v1.17l0.414,0.414h1.172l0.414-.414v-1.17Zm0.707-6.7a1,1,0,0,1-.707.293h-2a1,1,0,0,1-.707-0.293l-1-1a1,1,0,0,1-.293-0.706v-2a1,1,0,0,1,.293-0.706l1-1a1,1,0,0,1,.707-0.292h2a1,1,0,0,1,.707.292l1,1a1,1,0,0,1,.293.706v2a1,1,0,0,1-.293.706ZM891,213.487l-0.414-.413h-1.172l-0.414.413v1.17l0.414,0.414h1.172l0.414-.414v-1.17Zm-4.293-1.7a1,1,0,0,1-.707.292h-2a1,1,0,0,1-.707-0.292l-1-1a0.993,0.993,0,0,1-.293-0.706v-2a1,1,0,0,1,.293-0.706l1-1a1,1,0,0,1,.707-0.292h2a1,1,0,0,1,.707.292l1,1a1,1,0,0,1,.293.706v2a0.993,0.993,0,0,1-.293.706ZM886,208.5l-0.414-.413h-1.172L884,208.5v1.17l0.414,0.413h1.172l0.414-.413V208.5Zm-2.707,7.867a1,1,0,0,1,.707-0.293h2a1,1,0,0,1,.707.293l1,1a1,1,0,0,1,.293.706v2a1,1,0,0,1-.293.706l-1,1a1,1,0,0,1-.707.293h-2a1,1,0,0,1-.707-0.293l-1-1a1,1,0,0,1-.293-0.706v-2a1,1,0,0,1,.293-0.706ZM884,219.649l0.414,0.414h1.172l0.414-.414v-1.17l-0.414-.413h-1.172l-0.414.413v1.17Zm-0.707,6.7a1,1,0,0,1,.707-0.293h2a1,1,0,0,1,.707.293l1,1a1,1,0,0,1,.293.706v2a1,1,0,0,1-.293.706l-1,1a1,1,0,0,1-.707.293h-2a1,1,0,0,1-.707-0.293l-1-1a1,1,0,0,1-.293-0.706v-2a1,1,0,0,1,.293-0.706ZM884,229.634l0.414,0.413h1.172l0.414-.413v-1.171l-0.414-.413h-1.172l-0.414.413v1.171Zm-0.707,6.7a1,1,0,0,1,.707-0.292h2a1,1,0,0,1,.707.292l1,1a0.993,0.993,0,0,1,.293.7v2a1,1,0,0,1-.293.706l-1,1a1,1,0,0,1-.707.293h-2a1,1,0,0,1-.707-0.293l-1-1a1,1,0,0,1-.293-0.706v-2a0.993,0.993,0,0,1,.293-0.7ZM884,239.618l0.414,0.413h1.172l0.414-.413v-1.17l-0.414-.414h-1.172l-0.414.414v1.17Zm-0.707,6.7a1,1,0,0,1,.707-0.292h2a1,1,0,0,1,.707.292l1,1a0.993,0.993,0,0,1,.293.706v2a0.993,0.993,0,0,1-.293.706l-1,1a1,1,0,0,1-.707.292h-2a1,1,0,0,1-.707-0.292l-1-1a0.993,0.993,0,0,1-.293-0.706v-2a0.993,0.993,0,0,1,.293-0.706ZM884,249.6l0.414,0.413h1.172L886,249.6v-1.17l-0.414-.413h-1.172l-0.414.413v1.17ZM860.293,204.38a1,1,0,0,1,1.707.706v11.982a1,1,0,0,1-.36.766l-6,4.992a1,1,0,0,1-1.64-.766V211.077a1,1,0,0,1,.293-0.706ZM856,219.928l4-3.328v-9.1l-4,3.993v8.438Zm-1.424,16.2a1,1,0,0,1,1.064.138l6,4.992a1,1,0,0,1,.36.767v10.983a1,1,0,0,1-1.707.705l-6-5.99A1,1,0,0,1,854,247.02v-9.984A1,1,0,0,1,854.576,236.131ZM856,246.607l4,3.994V242.5l-4-3.327v7.439Zm5.347-9.633a1,1,0,0,1-1.106-.287l-6-6.988a1,1,0,0,1,.052-1.356l6-5.991a1,1,0,0,1,1.707.706v12.98A1,1,0,0,1,861.347,236.974ZM860,225.468l-3.638,3.632L860,233.339v-7.871Z" transform="translate(-836 -199.094)"/>
</svg>
