<svg xmlns="http://www.w3.org/2000/svg" width="77" height="69.906" viewBox="0 0 77 69.906">
  <defs>
    <style>
      .cls-1 {
        fill: #fa5e31;
        fill-rule: evenodd;
      }
    </style>
  </defs>
  <path id="q" class="cls-1" d="M254.373,132.733l-16.928,15.379a1.931,1.931,0,0,1-1.294.493H222.592v3.881h14.661l14.533-13.057a1.922,1.922,0,0,1,2.7.143,1.9,1.9,0,0,1-.144,2.688l-15.076,13.534a1.887,1.887,0,0,1-1.277.493h-15.4v3.88h15.827l13.367-11.9a1.928,1.928,0,0,1,2.715.159,1.889,1.889,0,0,1-.144,2.688l-13.91,12.389a1.889,1.889,0,0,1-1.278.493H179.92a1.909,1.909,0,1,1,0-3.817h16.018V156.3H179.92a1.908,1.908,0,1,1,0-3.816h16.018V148.6H179.92a1.922,1.922,0,0,1-1.789-1.225,1.888,1.888,0,0,1,.5-2.1L195.539,129.9a1.927,1.927,0,0,1,1.293-.493h56.247a1.922,1.922,0,0,1,1.789,1.225A1.886,1.886,0,0,1,254.373,132.733Zm-54.618,27.434h19V148.6h-19v11.562Zm-2.172-26.957-12.729,11.562h11.819L209.4,133.21H197.583Zm17.519,0-12.728,11.562h15.762l12.729-11.562H215.1Zm21.448,0.016-12.728,11.562H235.4l12.729-11.562H236.55Zm-16.771-21.871h-3.614v2.635h13.058V117.1H216.165v4.523h-3.614V117.1h-2.565V113.99h2.565V111.4h-2.565v-3.147h2.565V94.091H219.9c3.3,0,5.441.511,7.19,1.73a7.323,7.323,0,0,1,3.265,6.568,8.412,8.412,0,0,1-2.41,6.135C226.075,110.411,223.666,111.355,219.779,111.355Zm4.82-13.017a8.258,8.258,0,0,0-4.858-1.1h-3.576v11.011H219.2c2.954,0,4.625-.55,5.83-1.691a5.366,5.366,0,0,0,1.555-4.05A4.562,4.562,0,0,0,224.6,98.338Z" transform="translate(-178 -94.094)"/>
</svg>
