<svg xmlns="http://www.w3.org/2000/svg" width="45" height="56.531" viewBox="0 0 45 56.531">
  <defs>
    <style>
      .cls-1 {
        fill: #fa5e31;
        fill-rule: evenodd;
      }
    </style>
  </defs>
  <path id="q" class="cls-1" d="M985.338,115.883c-8.791.752-10.756-1.676-16.467-5.85a3.356,3.356,0,0,0-2.1-.788l7.44,6.174a4.352,4.352,0,0,1,1.576,3.361v37.4a4.353,4.353,0,0,1-4.338,4.358H946.338A4.353,4.353,0,0,1,942,156.18v-37.4a4.354,4.354,0,0,1,1.575-3.361L956.132,105a4.322,4.322,0,0,1,5.525,0l1.887,1.565a6.926,6.926,0,0,1,1.457-.674,6.47,6.47,0,0,1,6.007,1.192c5.707,4.17,6.719,5.789,14.022,5.164A1.826,1.826,0,0,1,985.338,115.883Zm-24.162-.268c-0.249.58-.439,1.083-0.557,1.439a1.818,1.818,0,1,1-3.449-1.148c0.068-.206.271-0.8,0.609-1.605A2.449,2.449,0,1,0,961.176,115.615Zm2.442-4.255c-0.181.229-.357,0.468-0.526,0.714a6.02,6.02,0,1,1-3.294-1.63,17.373,17.373,0,0,1,1.02-1.408l-1.475-1.224a0.7,0.7,0,0,0-.9,0l-12.557,10.422a0.706,0.706,0,0,0-.256.546v37.4a0.707,0.707,0,0,0,.7.707h25.114a0.706,0.706,0,0,0,.7-0.707v-37.4a0.706,0.706,0,0,0-.256-0.546Zm1.473,29.168c-1.465,1.508-3.357,2.263-6.409,2.263h-2.838v2.1H966.1v2.483H955.844v3.615h-2.838v-3.615h-2.014V144.9h2.014v-2.074h-2.014v-2.514h2.014V128.993h5.768c2.594,0,4.272.408,5.645,1.383a5.883,5.883,0,0,1,2.564,5.249A6.783,6.783,0,0,1,965.091,140.528Zm-2.625-8.141a6.4,6.4,0,0,0-3.814-.88h-2.808v8.8h2.38c2.32,0,3.632-.44,4.578-1.352a4.331,4.331,0,0,0,1.221-3.237A3.669,3.669,0,0,0,962.466,132.387Z" transform="translate(-942 -104)"/>
</svg>
