<svg xmlns="http://www.w3.org/2000/svg" width="65.593" height="43.906" viewBox="0 0 65.593 43.906">
  <defs>
    <style>
      .cls-1 {
        fill: #fa5e31;
        fill-rule: evenodd;
      }
    </style>
  </defs>
  <path id="q_copy_2" data-name="q copy 2" class="cls-1" d="M322.015,215.315L318.869,220l3.146,4.685a2.245,2.245,0,0,1,.126,2.288,2.156,2.156,0,0,1-1.913,1.175H308.815l0.009,1.01a3.638,3.638,0,0,1-2.588,3.523l-2.629.769a1.149,1.149,0,0,0-.776.791l-0.756,2.667a3.557,3.557,0,0,1-4.291,2.527l-2.66-.671-0.269-.032a1.131,1.131,0,0,0-.8.327l-1.966,1.925a3.609,3.609,0,0,1-4.952,0l-1.965-1.924a1.136,1.136,0,0,0-.8-0.328l-2.928.7a3.608,3.608,0,0,1-4.292-2.527l-0.755-2.665a1.15,1.15,0,0,0-.783-0.794l-2.622-.768a3.637,3.637,0,0,1-2.589-3.523l0.009-1.01H259a2.156,2.156,0,0,1-1.913-1.174,2.245,2.245,0,0,1,.127-2.289L260.36,220l-3.146-4.685a2.247,2.247,0,0,1-.126-2.289A2.157,2.157,0,0,1,259,211.852h11.413l-0.009-1.01a3.637,3.637,0,0,1,2.589-3.523l2.617-.767a1.146,1.146,0,0,0,.787-0.794l0.756-2.666a3.6,3.6,0,0,1,4.292-2.526l2.623,0.66,0.305,0.042a1.131,1.131,0,0,0,.8-0.327l1.966-1.925a3.611,3.611,0,0,1,4.952,0l1.965,1.924a1.138,1.138,0,0,0,.8.328l2.928-.7a3.6,3.6,0,0,1,4.292,2.526l0.754,2.664a1.149,1.149,0,0,0,.784.795l2.623,0.769a3.637,3.637,0,0,1,2.588,3.522l-0.009,1.01h11.412a2.155,2.155,0,0,1,1.914,1.174A2.245,2.245,0,0,1,322.015,215.315Zm-62.508-.974,3.8,5.659-3.8,5.659h12.446l-2.963-3.127a3.684,3.684,0,0,1,0-5.064l2.964-3.127H259.507Zm46.2-.549,0.657-2.694a1.154,1.154,0,0,0-.794-1.385l-2.622-.769a3.592,3.592,0,0,1-2.447-2.491l-0.756-2.666a1.151,1.151,0,0,0-1.1-.839l-2.929.7a3.507,3.507,0,0,1-3.334-.909l-1.957-1.916a1.164,1.164,0,0,0-1.607-.01l-1.966,1.926a3.507,3.507,0,0,1-3.334.909l-2.649-.668-0.28-.034a1.154,1.154,0,0,0-1.1.838l-0.756,2.667a3.592,3.592,0,0,1-2.447,2.491l-2.623.769a1.155,1.155,0,0,0-.793,1.385l0.657,2.694a3.674,3.674,0,0,1-.9,3.411l-1.892,2a1.165,1.165,0,0,0-.239,1.223l0.1,0.233,2.027,2.14a3.651,3.651,0,0,1,1,2.486,3.765,3.765,0,0,1-.107.925l-0.657,2.694a1.154,1.154,0,0,0,.793,1.385l2.623,0.769a3.594,3.594,0,0,1,2.447,2.491l0.755,2.664a1.151,1.151,0,0,0,1.1.841l2.93-.7a3.507,3.507,0,0,1,3.334.909l1.956,1.915a1.13,1.13,0,0,0,.809.337,1.144,1.144,0,0,0,.8-0.327l1.965-1.925a3.51,3.51,0,0,1,3.335-.909l2.657,0.669,0.271,0.033a1.155,1.155,0,0,0,1.1-.839l0.755-2.666a3.59,3.59,0,0,1,2.447-2.491l2.624-.769a1.158,1.158,0,0,0,.793-1.386l-0.656-2.69c-0.019-.078-0.035-0.156-0.049-0.236a3.742,3.742,0,0,1-.059-0.693,3.655,3.655,0,0,1,1-2.485l1.893-2h0a1.158,1.158,0,0,0,0-1.595l-1.893-2a3.658,3.658,0,0,1-1-2.486A3.757,3.757,0,0,1,305.706,213.792Zm1.57,0.549,2.963,3.128a3.677,3.677,0,0,1,0,5.063l-2.964,3.127h12.448l-3.8-5.659,3.8-5.659H307.276Zm-18.2,8.147h-2.511v1.831h9.072v2.158h-9.072v3.143h-2.511v-3.143h-1.782v-2.158h1.782v-1.8h-1.782V220.33h1.782v-9.836h5.1a8.257,8.257,0,0,1,5,1.2,5.088,5.088,0,0,1,2.268,4.563,5.84,5.84,0,0,1-1.674,4.262C293.452,221.833,291.778,222.488,289.078,222.488Zm3.348-9.043a5.732,5.732,0,0,0-3.375-.765h-2.484v7.65h2.106c2.052,0,3.213-.383,4.05-1.175a3.728,3.728,0,0,0,1.08-2.814A3.168,3.168,0,0,0,292.426,213.445Z" transform="translate(-256.813 -198.063)"/>
</svg>
