<svg xmlns="http://www.w3.org/2000/svg" width="76" height="76" viewBox="0 0 76 76">
  <defs>
    <style>
      .cls-1 {
        fill: #fb5e31;
        fill-rule: evenodd;
      }
    </style>
  </defs>
  <path class="cls-1" d="M541.828,96.74l-4.752,4.749a3.972,3.972,0,0,1-2.829,1.172c-0.078,0-.156,0-0.233-0.008-0.011.012-.02,0.024-0.031,0.034l-17.094,17.087c3.829,6.122,3.3,13.71-1.4,18.418a13.144,13.144,0,0,1-1.973,1.622,14.447,14.447,0,0,0-5.9,9.437,18.15,18.15,0,0,1-4.973,9.426A18.491,18.491,0,0,1,489.426,164a22.393,22.393,0,0,1-15.732-6.691c-8.359-8.355-8.973-21.335-1.37-28.936a18.18,18.18,0,0,1,9.431-4.971,14.455,14.455,0,0,0,9.441-5.893,13.2,13.2,0,0,1,1.623-1.972c4.677-4.674,12.274-5.218,18.383-1.43l17.1-17.095,0.035-.032c0-.077-0.008-0.154-0.008-0.231a3.973,3.973,0,0,1,1.173-2.828l4.751-4.749a4,4,0,0,1,5.659,0l1.913,1.912A4,4,0,0,1,541.828,96.74Zm-47.116,20.688A10.5,10.5,0,0,0,493.419,119a17.113,17.113,0,0,1-11.153,7.029,15.5,15.5,0,0,0-8.049,4.236c-6.56,6.557-5.945,17.84,1.37,25.152s18.6,7.926,25.163,1.369a15.5,15.5,0,0,0,4.238-8.045,17.1,17.1,0,0,1,7.032-11.148,10.5,10.5,0,0,0,1.571-1.293c3.687-3.685,4.167-9.609,1.346-14.575l-6.061,6.06A8.014,8.014,0,1,1,503.2,122.1l6.047-6.044C504.3,113.276,498.369,113.772,494.712,117.428Zm10.2,8.646a5.351,5.351,0,1,0,0,7.568A5.319,5.319,0,0,0,504.908,126.074Zm0.867-2.758a8.225,8.225,0,0,1,1.026.866,8.031,8.031,0,0,1,.866,1.026l23.74-23.73-1.893-1.891Zm34.16-30.341-1.913-1.913a1.326,1.326,0,0,0-1.874,0L531.4,95.812a1.323,1.323,0,0,0,0,1.872L533.31,99.6a1.324,1.324,0,0,0,1.873,0l4.752-4.749A1.326,1.326,0,0,0,539.935,92.975ZM495.28,149.723a2.654,2.654,0,0,1-.783,1.892l-0.946.946a2.681,2.681,0,0,1-3.785,0l-11.357-11.352a2.676,2.676,0,0,1,0-3.783l0.946-.946a2.682,2.682,0,0,1,3.786,0L484,137.339a1.338,1.338,0,0,1-1.893,1.891l-0.859-.859-0.946.947,11.356,11.351,0.947-.946-6.933-6.93a1.338,1.338,0,0,1,1.893-1.892l6.932,6.93A2.656,2.656,0,0,1,495.28,149.723Z" transform="translate(-467 -88)"/>
</svg>
