<svg xmlns="http://www.w3.org/2000/svg" width="47.031" height="47" viewBox="0 0 47.031 47">
  <defs>
    <style>
      .cls-1 {
        fill: #fa5e31;
        fill-rule: evenodd;
      }
    </style>
  </defs>
  <path id="Shape_1_copy" data-name="Shape 1 copy" class="cls-1" d="M232.81,316.659a0.931,0.931,0,0,1-.719.34H186.909a0.934,0.934,0,0,1-.72-0.34,0.957,0.957,0,0,1-.2-0.776l0.906-5.056a14.039,14.039,0,0,1,3.855-7.438A13.808,13.808,0,0,1,198,299.518h0a13.812,13.812,0,0,1,2.582-.244h2.729a0.932,0.932,0,0,1,.663.278l5.524,5.581,5.524-5.581a0.93,0.93,0,0,1,.662-0.277h2.73a13.811,13.811,0,0,1,2.582.243h0a13.81,13.81,0,0,1,7.254,3.872,14.036,14.036,0,0,1,3.855,7.438l0.906,5.055A0.957,0.957,0,0,1,232.81,316.659Zm-29.885-15.49h-2.341c-0.122,0-.243,0-0.365.006l4.641,4.689,1.959,1.98,1.355-1.37Zm15.491,0h-2.341l-5.912,5.974-2.019,2.039,1.356,1.37,4.64-4.689,4.64-4.689C218.659,301.171,218.538,301.169,218.416,301.169Zm11.846,10a12.179,12.179,0,0,0-9.134-9.684l-10.965,11.081a0.932,0.932,0,0,1-1.326,0l-10.966-11.081a12.178,12.178,0,0,0-9.133,9.684l-0.706,3.94h42.936Zm-11.32-31.245-0.649,10.056a8.872,8.872,0,0,1-4.547,7.223,8.69,8.69,0,0,1-8.492,0,8.872,8.872,0,0,1-4.547-7.223l-0.568-8.8-0.243-3.769a6.93,6.93,0,0,1,1.845-5.207,6.781,6.781,0,0,1,5.023-2.2h5.472a6.781,6.781,0,0,1,5.023,2.2,6.93,6.93,0,0,1,1.845,5.207l-0.162,2.513h0Zm-16.364,9.933a6.987,6.987,0,0,0,3.579,5.686,6.842,6.842,0,0,0,6.686,0,6.986,6.986,0,0,0,3.579-5.686l0.6-9.257a18.3,18.3,0,0,1-3.749-1.237,5.434,5.434,0,0,1-1.622-1.21c-1.419,1.4-4.3,3.35-9.578,3.839Zm9.658-17.959h-5.472a4.936,4.936,0,0,0-3.655,1.6,5.043,5.043,0,0,0-1.343,3.789l0.182,2.815a15.093,15.093,0,0,0,7.172-2.31,7.061,7.061,0,0,0,2.028-1.973l1.45-3.907C212.478,271.9,212.358,271.894,212.236,271.894Zm3.655,1.6a5.014,5.014,0,0,0-1.472-1.1l-1.544,4.16a0.014,0.014,0,0,1,0,0l0,0a2.1,2.1,0,0,0,1.26,1.111,14.882,14.882,0,0,0,3.012,1l0.09-1.392A5.042,5.042,0,0,0,215.891,273.494Z" transform="translate(-186 -270)"/>
</svg>
