<svg xmlns="http://www.w3.org/2000/svg" width="46.844" height="25.656" viewBox="0 0 46.844 25.656">
  <defs>
    <style>
      .cls-1 {
        fill: #fa5e31;
        fill-rule: evenodd;
      }
    </style>
  </defs>
  <path class="cls-1" d="M532.7,307.854h-2.569a3.862,3.862,0,0,1-7.533,0H508.813a3.862,3.862,0,0,1-7.533,0h-3.5a1.153,1.153,0,0,1-1.15-1.15V302.7h-4.476a1.151,1.151,0,0,1,0-2.3h5.635a1.154,1.154,0,0,1,1.15,1.151v4.017h2.272a1.058,1.058,0,0,1,.249.029,3.856,3.856,0,0,1,7.169-.02,0.769,0.769,0,0,1,.143-0.009H519.6V287.53H498.941v4.007a1.154,1.154,0,0,1-1.15,1.151h-5.635a1.151,1.151,0,0,1,0-2.3h4.476v-4.008a1.153,1.153,0,0,1,1.15-1.15h22.963a1.154,1.154,0,0,1,1.15,1.15v2.608h4.82a6.789,6.789,0,0,1,5.07,2.128,8.72,8.72,0,0,1,2.061,6.03V306.7A1.154,1.154,0,0,1,532.7,307.854Zm-27.65-2.406a1.563,1.563,0,1,0,1.562,1.563A1.563,1.563,0,0,0,505.046,305.448Zm21.315,3.125a1.563,1.563,0,1,0-1.562-1.562A1.575,1.575,0,0,0,526.361,308.573Zm5.185-11.418c0-3.672-1.8-5.867-4.821-5.867H521.9v14.275h0.882a3.853,3.853,0,0,1,7.15,0h1.61v-8.408ZM506.9,294.49a1.152,1.152,0,0,1,1.629-1.63l2.818,2.819,0.01,0.009c0.019,0.029.047,0.048,0.067,0.077s0.019,0.029.028,0.048a0.165,0.165,0,0,1,.039.048c0.009,0.019.019,0.038,0.029,0.057s0.019,0.029.028,0.048l0.029,0.058a0.107,0.107,0,0,0,.019.048c0.01,0.019.01,0.038,0.019,0.057a0.207,0.207,0,0,1,.019.048c0,0.019.01,0.038,0.01,0.058s0.01,0.038.01,0.057,0.009,0.048.009,0.067a0.085,0.085,0,0,1,.01.048,0.983,0.983,0,0,1,0,.23c0,0.02-.01.029-0.01,0.048s-0.009.048-.009,0.067-0.01.039-.01,0.058a0.115,0.115,0,0,1-.01.057,0.367,0.367,0,0,0-.019.048c-0.009.02-.009,0.039-0.019,0.058a0.1,0.1,0,0,1-.019.048l-0.029.057c-0.009.02-.019,0.029-0.028,0.048s-0.02.039-.029,0.058a0.183,0.183,0,0,0-.039.048c-0.009.019-.019,0.028-0.028,0.048s-0.048.048-.067,0.076l-0.01.01-2.961,2.962a1.17,1.17,0,0,1-.815.336,1.151,1.151,0,0,1-.815-1.966l0.987-1.054H488.15a1.151,1.151,0,0,1,0-2.3h19.6Z" transform="translate(-487 -285.219)"/>
</svg>
