<svg xmlns="http://www.w3.org/2000/svg" width="77" height="77" viewBox="0 0 77 77">
  <defs>
    <style>
      .cls-1 {
        fill: #fa5e31;
        fill-rule: evenodd;
      }
    </style>
  </defs>
  <path class="cls-1" d="M801.643,175.443a1.528,1.528,0,0,1-1.177.557H726.534a1.525,1.525,0,0,1-1.177-.557,1.56,1.56,0,0,1-.332-1.271l1.483-8.283a23,23,0,0,1,6.308-12.185,22.579,22.579,0,0,1,11.87-6.344h0a22.609,22.609,0,0,1,4.224-.4h4.467a1.524,1.524,0,0,1,1.084.455l9.039,9.144,9.039-9.144a1.523,1.523,0,0,1,1.084-.455h4.467a22.584,22.584,0,0,1,16.094,6.743,23,23,0,0,1,6.308,12.185l1.483,8.283A1.564,1.564,0,0,1,801.643,175.443Zm-48.9-25.378H748.91q-0.3,0-.6.009L759.113,161l2.218-2.244Zm25.349,0h-3.831l-9.674,9.787-3.3,3.342,2.218,2.244,15.186-15.364C778.487,150.068,778.289,150.065,778.09,150.065Zm19.384,16.377a19.946,19.946,0,0,0-14.946-15.866L764.585,168.73c-0.038.038-.077,0.073-0.117,0.106a1.518,1.518,0,0,1-1.936,0c-0.04-.033-0.079-0.068-0.117-0.106l-17.943-18.154a19.946,19.946,0,0,0-14.946,15.866l-1.155,6.454h70.258Zm-48.7-23.045v0.62a1.534,1.534,0,1,1-3.068,0V143.4A1.534,1.534,0,1,1,748.775,143.4Zm34.661-14.108c-0.021.255-.55,6.27-4.982,8.668a7.789,7.789,0,0,1-2.933.891,14.483,14.483,0,0,1-5.072,4.713,14.2,14.2,0,0,1-13.9,0,14.522,14.522,0,0,1-7.364-11.027h-0.412v6.207a1.534,1.534,0,1,1-3.068,0v-6.417a3.507,3.507,0,0,1-2.295-3.027l-0.585-6.888a3.572,3.572,0,0,1,.909-2.7,3.486,3.486,0,0,1,2.577-1.146h1.95l-0.081-1.258-0.4-6.175a11.362,11.362,0,0,1,3.02-8.532,11.09,11.09,0,0,1,8.218-3.6h8.955a11.094,11.094,0,0,1,8.219,3.6,11.361,11.361,0,0,1,3.019,8.532l-0.265,4.117-0.214,3.316h1.8a3.486,3.486,0,0,1,2.577,1.146,3.567,3.567,0,0,1,.908,2.7l-0.582,6.88h0Zm-34.973-7.618h-2.15a0.421,0.421,0,0,0-.317.141,0.432,0.432,0,0,0-.112.332l0.584,6.888a0.43,0.43,0,0,0,.429.4h2.067Zm3.71,9.855a11.446,11.446,0,0,0,5.857,9.315,11.18,11.18,0,0,0,10.94,0,11.435,11.435,0,0,0,2.89-2.287,19.81,19.81,0,0,1-4.444-1.734,3.774,3.774,0,0,1-1.922.524,3.878,3.878,0,1,1,3.749-3.066,13.779,13.779,0,0,0,4.5,1.473,11.609,11.609,0,0,0,1.089-4.225l0.978-15.166a29.909,29.909,0,0,1-6.136-2.026,8.9,8.9,0,0,1-2.654-1.983c-2.321,2.294-7.033,5.489-15.673,6.291Zm14.088,1.939a0.767,0.767,0,1,0-.767.776A0.772,0.772,0,0,0,766.261,133.465Zm1.717-31.362h-8.955a8.072,8.072,0,0,0-5.98,2.622,8.267,8.267,0,0,0-2.2,6.208l0.3,4.612c11.181-1.057,14.666-6.362,15.05-7.008l2.376-6.41C768.373,102.113,768.176,102.1,767.978,102.1Zm5.979,2.622a8.2,8.2,0,0,0-2.408-1.8l-2.527,6.815a0.019,0.019,0,0,1,0,.007l0,0.009c0.01,0.222.387,0.945,2.06,1.82a24.413,24.413,0,0,0,4.93,1.637l0.147-2.281A8.267,8.267,0,0,0,773.957,104.725Zm3.332,30.328a6.035,6.035,0,0,0,2.1-2.519h-1.574A14.78,14.78,0,0,1,777.289,135.053Zm3.561-13.241a0.42,0.42,0,0,0-.317-0.141h-2l-0.5,7.759h1.913a0.429,0.429,0,0,0,.429-0.4l0.584-6.888A0.427,0.427,0,0,0,780.85,121.812Z" transform="translate(-725 -99)"/>
</svg>
