<svg xmlns="http://www.w3.org/2000/svg" width="39.031" height="39.031" viewBox="0 0 39.031 39.031">
  <defs>
    <style>
      .cls-1 {
        fill: #fa5e31;
        fill-rule: evenodd;
      }
    </style>
  </defs>
  <path class="cls-1" d="M466.425,297.5l-4.978,4.98a0.777,0.777,0,0,1-1.1,0l-0.17-.17-7.225,7.225c1.97,3.2,1.733,7.092-.651,9.476a6.669,6.669,0,0,1-.923.768,0.777,0.777,0,0,1-.745.075,4,4,0,0,0-4.393,6.51,4.231,4.231,0,0,0,.395.346,0.776,0.776,0,0,1,.183,1.033,8.5,8.5,0,0,1-1.16,1.447,8.911,8.911,0,0,1-6.372,2.546h-0.06a11.485,11.485,0,0,1-6.938-2.5h0a12.6,12.6,0,0,1-2.173-2.173h0a11.5,11.5,0,0,1-2.5-6.94,8.917,8.917,0,0,1,2.546-6.433,8.456,8.456,0,0,1,1.446-1.16,0.777,0.777,0,0,1,1.033.182,4.1,4.1,0,0,0,.346.4,4,4,0,0,0,6.509-4.394,0.777,0.777,0,0,1,.075-0.745,6.61,6.61,0,0,1,.768-0.923c2.384-2.384,6.279-2.621,9.474-.651l7.225-7.226-0.17-.17a0.777,0.777,0,0,1,0-1.1l4.978-4.98a0.779,0.779,0,0,1,1.1,0l3.479,3.48A0.777,0.777,0,0,1,466.425,297.5ZM432.234,327.12c0.156,0.156.318,0.308,0.484,0.456l5.784-5.785-0.939-.94-5.785,5.785C431.926,326.8,432.078,326.964,432.234,327.12Zm9.205-18.97a4.756,4.756,0,0,0-.349.388,5.556,5.556,0,0,1-9.187,5.69,6.892,6.892,0,0,0-.642.566c-2.623,2.624-2.763,7.051-.437,10.6l6.189-6.189a0.777,0.777,0,0,1,1.1,0l0.469,0.47,2.33-2.33a0.778,0.778,0,1,1,1.1,1.1l-2.33,2.33,0.47,0.47a0.777,0.777,0,0,1,0,1.1l-6.188,6.189c3.545,2.326,7.971,2.187,10.594-.437a7.051,7.051,0,0,0,.567-0.642,5.556,5.556,0,0,1,5.688-9.188,4.948,4.948,0,0,0,.388-0.349,6.038,6.038,0,0,0,.615-7.239l-4.586,4.587a0.78,0.78,0,0,1-1.1,0l-2.039-2.04a0.777,0.777,0,0,1,0-1.1l4.586-4.587A6.036,6.036,0,0,0,441.439,308.15Zm4.3,4.521,0.939,0.94,12.4-12.4-0.94-.94Zm16.655-18.1-3.879,3.88,2.38,2.38,3.879-3.88Zm-17.865,20.248a0.777,0.777,0,0,1,0,1.1l-0.72.72a0.778,0.778,0,1,1-1.1-1.1l0.72-.72A0.779,0.779,0,0,1,444.531,314.821Z" transform="translate(-427.625 -292.719)"/>
</svg>
