<svg xmlns="http://www.w3.org/2000/svg" width="51.969" height="52" viewBox="0 0 51.969 52">
  <defs>
    <style>
      .cls-1 {
        fill: #fa5e31;
        fill-rule: evenodd;
      }
    </style>
  </defs>
  <path class="cls-1" d="M135.759,145.623a1.03,1.03,0,0,1-.795.377H85.036a1.03,1.03,0,0,1-.8-0.377,1.056,1.056,0,0,1-.224-0.858l1-5.594a15.538,15.538,0,0,1,4.26-8.229,15.256,15.256,0,0,1,8.016-4.283h0a15.26,15.26,0,0,1,2.853-.269h3.016a1.028,1.028,0,0,1,.733.307l6.1,6.175,6.1-6.175a1.032,1.032,0,0,1,.732-0.307h3.017a15.259,15.259,0,0,1,2.853.27h0a15.258,15.258,0,0,1,8.016,4.283,15.551,15.551,0,0,1,4.26,8.229l1,5.594A1.054,1.054,0,0,1,135.759,145.623Zm-33.025-17.138h-2.587q-0.2,0-.4.006l5.127,5.188,2.165,2.19,1.5-1.515Zm17.119,0h-2.587l-6.534,6.61-2.23,2.256,1.5,1.516,5.128-5.188,5.127-5.188Q120.054,128.485,119.853,128.485Zm13.09,11.06A13.47,13.47,0,0,0,122.85,128.83l-12.118,12.26a1.027,1.027,0,0,1-1.465,0L97.15,128.83a13.469,13.469,0,0,0-10.093,10.715l-0.78,4.359h47.447Zm-12.509-34.57h0L119.717,116.1a9.82,9.82,0,0,1-5.024,7.991,9.593,9.593,0,0,1-9.385,0,9.819,9.819,0,0,1-5.025-7.991l-0.627-9.737-0.269-4.17a7.674,7.674,0,0,1,2.039-5.762A7.489,7.489,0,0,1,106.976,94h6.048a7.49,7.49,0,0,1,5.55,2.434,7.671,7.671,0,0,1,2.039,5.762Zm-18.084,10.99a7.729,7.729,0,0,0,3.956,6.291,7.551,7.551,0,0,0,7.388,0,7.728,7.728,0,0,0,3.955-6.291l0.66-10.241a20.167,20.167,0,0,1-4.143-1.369,6.01,6.01,0,0,1-1.792-1.338c-1.568,1.548-4.75,3.706-10.585,4.247ZM113.024,96.1h-6.048a5.447,5.447,0,0,0-4.038,1.771,5.579,5.579,0,0,0-1.484,4.192l0.2,3.114a16.666,16.666,0,0,0,7.925-2.556,7.812,7.812,0,0,0,2.241-2.183l1.6-4.323C113.291,96.1,113.158,96.1,113.024,96.1Zm4.038,1.771a5.545,5.545,0,0,0-1.626-1.216l-1.706,4.6a0.008,0.008,0,0,0,0,0,0.014,0.014,0,0,0,0,.006c0.007,0.15.262,0.639,1.391,1.229a16.42,16.42,0,0,0,3.329,1.106l0.1-1.54A5.583,5.583,0,0,0,117.062,97.867Z" transform="translate(-84.031 -94)"/>
</svg>
