<svg xmlns="http://www.w3.org/2000/svg" width="51.969" height="52" viewBox="0 0 51.969 52">
  <defs>
    <style>
      .cls-1 {
        fill: #fa5e31;
        fill-rule: evenodd;
      }
    </style>
  </defs>
  <path class="cls-1" d="M419.759,145.623a1.03,1.03,0,0,1-.8.377H369.036a1.03,1.03,0,0,1-.8-0.377,1.053,1.053,0,0,1-.224-0.858l1-5.594a15.533,15.533,0,0,1,4.26-8.229,15.263,15.263,0,0,1,8.016-4.284h0a15.342,15.342,0,0,1,2.853-.269h3.016a1.034,1.034,0,0,1,.733.307l6.1,6.175,6.1-6.175a1.032,1.032,0,0,1,.732-0.307h3.017a15.259,15.259,0,0,1,2.853.27h0a15.258,15.258,0,0,1,8.016,4.283,15.547,15.547,0,0,1,4.26,8.229l1,5.594A1.053,1.053,0,0,1,419.759,145.623Zm-33.025-17.138h-2.587q-0.2,0-.4.006l5.127,5.188,2.165,2.19,1.5-1.515Zm17.119,0h-2.587l-6.534,6.61-2.23,2.256,1.5,1.516,5.128-5.188,5.127-5.188Q404.054,128.485,403.853,128.485Zm13.09,11.06A13.47,13.47,0,0,0,406.85,128.83l-12.118,12.26a1.027,1.027,0,0,1-1.465,0L381.15,128.83a13.468,13.468,0,0,0-10.093,10.715l-0.781,4.359h47.447Zm-12.509-34.57h0L403.717,116.1a9.82,9.82,0,0,1-5.024,7.991,9.593,9.593,0,0,1-9.385,0,9.819,9.819,0,0,1-5.025-7.991l-0.627-9.737-0.269-4.17a7.675,7.675,0,0,1,2.039-5.761A7.488,7.488,0,0,1,390.976,94h6.048a7.49,7.49,0,0,1,5.55,2.434,7.671,7.671,0,0,1,2.039,5.761Zm-18.084,10.99a7.729,7.729,0,0,0,3.956,6.291,7.551,7.551,0,0,0,7.388,0,7.726,7.726,0,0,0,3.955-6.291l0.66-10.241a20.167,20.167,0,0,1-4.143-1.369,6.01,6.01,0,0,1-1.792-1.338c-1.568,1.548-4.75,3.706-10.585,4.247ZM397.024,96.1h-6.048a5.447,5.447,0,0,0-4.038,1.771,5.579,5.579,0,0,0-1.484,4.192l0.2,3.114a16.655,16.655,0,0,0,7.925-2.556,7.812,7.812,0,0,0,2.241-2.183l1.6-4.323C397.291,96.1,397.158,96.1,397.024,96.1Zm4.038,1.771a5.534,5.534,0,0,0-1.627-1.216l-1.7,4.6a0.008,0.008,0,0,0,0,0,0.014,0.014,0,0,0,0,.006c0.007,0.15.262,0.639,1.391,1.229a16.42,16.42,0,0,0,3.329,1.106l0.1-1.54A5.583,5.583,0,0,0,401.062,97.867Z" transform="translate(-368.031 -94)"/>
</svg>
