<svg xmlns="http://www.w3.org/2000/svg" width="176" height="25.063" viewBox="0 0 176 25.063">
  <defs>
    <style>
      .cls-1 {
        fill: #fa5e31;
        fill-rule: evenodd;
      }
    </style>
  </defs>
  <path class="cls-1" d="M514.582,47.3H508.76a2.777,2.777,0,0,0-2.5,2.084l-2.72,7.437h-7.457s1.469-4.341,3.32-8.932a7.46,7.46,0,0,1,6.1-4.834H516ZM484.46,51.994c-6.476,0-9.143-2.138-9.143-2.138s-0.708,4.005,8.98,4.005a35.172,35.172,0,0,0,10.83-1.6l-1.578,4.272s-3.431,1.172-11.161,1.172c-2.942,0-12.675-1.867-12.675-7,0-6.03,8.919-8.168,14.147-8.168,7.217,0,12.737,2.991,12.737,5.554S490.937,51.994,484.46,51.994Zm4.735-4.487s-0.167-1.334-4.573-1.334a18.294,18.294,0,0,0-6.474,1.067s1.957,1.175,6.91,1.175S489.2,47.507,489.2,47.507ZM456.245,51.9c-6.477,0-9.145-2.138-9.145-2.138s-0.708,4.005,8.98,4.005a35.166,35.166,0,0,0,10.83-1.6l-1.578,4.272s-3.432,1.172-11.161,1.172c-2.942,0-12.675-1.867-12.675-7,0-6.031,8.92-8.168,14.148-8.168,7.217,0,12.736,2.991,12.736,5.553S462.722,51.9,456.245,51.9Zm4.733-4.487s-0.165-1.334-4.573-1.334a18.331,18.331,0,0,0-6.474,1.065s1.957,1.175,6.911,1.175S460.978,47.409,460.978,47.409Zm-24.055,9.414h-7.4l2.777-7.437c0.224-.57.686-2.831-3.1-2.831-3.265,0-4.31,1.633-4.518,2.3l-3.048,7.972h-7.51l3.268-8.507s1.686-5.871,13.387-5.871c11.426,0,9.031,6.727,9.031,6.727Zm-37.17.733c-2.667,0-12.95-1.443-12.95-7.369s10.238-7.849,14.367-7.849c4.621,0,13.442,1.73,13.442,7.26S405.191,57.556,399.753,57.556Zm0.925-10.894c-1.85,0-5.712,1.015-5.712,3.364s3.426,3.151,5.44,3.151,6.043-.965,6.043-3.31S402.8,46.661,400.678,46.661ZM374.339,56.823l5.226-13.766h7.671l-5.223,13.766h-7.674Zm-10.122-7.116c-2.539,0-8.163-.748-8.163-0.748L354.8,43.082s2.614,0.962,8.435.962,6.315-2.347,6.315-2.775,0.6-3.1-6.86-3.1c-8.107,0-9.307,4.752-9.307,4.752l-5.168,13.9H340l5.607-14.752c2.383-5.842,7.779-9.4,17.248-9.4,8.108,0,14.86,3.149,14.86,8.062C377.715,48.474,366.451,49.707,364.217,49.707Z" transform="translate(-340 -32.656)"/>
</svg>
