<svg xmlns="http://www.w3.org/2000/svg" width="76" height="76" viewBox="0 0 76 76">
  <defs>
    <style>
      .cls-1 {
        fill: #fb5e31;
        fill-rule: evenodd;
      }
    </style>
  </defs>
  <path class="cls-1" d="M910.828,99.74l-4.751,4.75a3.979,3.979,0,0,1-2.83,1.171c-0.078,0-.156,0-0.233-0.007-0.011.011-.02,0.023-0.031,0.034l-17.094,17.087c3.829,6.121,3.3,13.709-1.4,18.417a13.212,13.212,0,0,1-1.973,1.623,14.447,14.447,0,0,0-5.9,9.436,18.153,18.153,0,0,1-4.973,9.427A18.494,18.494,0,0,1,858.427,167a22.388,22.388,0,0,1-15.733-6.69c-8.359-8.356-8.973-21.336-1.37-28.936a18.165,18.165,0,0,1,9.431-4.971,14.46,14.46,0,0,0,9.441-5.893,13.212,13.212,0,0,1,1.623-1.973c4.677-4.674,12.274-5.218,18.383-1.43l17.1-17.095,0.035-.031c0-.077-0.008-0.154-0.008-0.231a3.973,3.973,0,0,1,1.173-2.828l4.751-4.749a4,4,0,0,1,5.659,0l1.913,1.912A4,4,0,0,1,910.828,99.74Zm-47.116,20.688A10.5,10.5,0,0,0,862.419,122a17.107,17.107,0,0,1-11.153,7.029,15.5,15.5,0,0,0-8.049,4.237c-6.56,6.556-5.945,17.84,1.37,25.151s18.6,7.927,25.163,1.37a15.5,15.5,0,0,0,4.238-8.046,17.1,17.1,0,0,1,7.032-11.148,10.487,10.487,0,0,0,1.572-1.292c3.687-3.685,4.166-9.61,1.345-14.575l-6.061,6.059a8.019,8.019,0,1,1-5.674-5.68l6.047-6.045C873.3,116.276,867.369,116.772,863.712,120.428Zm10.2,8.646a5.351,5.351,0,1,0,0,7.568A5.323,5.323,0,0,0,873.908,129.074Zm0.867-2.758a8.225,8.225,0,0,1,1.026.866,8.04,8.04,0,0,1,.866,1.027l23.74-23.73-1.893-1.892Zm34.16-30.34-1.913-1.913a1.326,1.326,0,0,0-1.874,0L900.4,98.812a1.324,1.324,0,0,0,0,1.873l1.913,1.913a1.327,1.327,0,0,0,1.874,0l4.751-4.749A1.324,1.324,0,0,0,908.935,95.976ZM864.28,152.724a2.661,2.661,0,0,1-.782,1.892l-0.947.945a2.681,2.681,0,0,1-3.785,0L847.409,144.21a2.677,2.677,0,0,1,0-3.784l0.946-.946a2.682,2.682,0,0,1,3.786,0L853,140.339a1.338,1.338,0,0,1-1.892,1.892l-0.86-.859-0.946.946,11.356,11.352,0.947-.946-6.933-6.93a1.338,1.338,0,0,1,1.893-1.892l6.933,6.93A2.658,2.658,0,0,1,864.28,152.724Z" transform="translate(-836 -91)"/>
</svg>
