<svg xmlns="http://www.w3.org/2000/svg" width="45" height="69" viewBox="0 0 45 69">
  <defs>
    <style>
      .cls-1 {
        fill: #fa5e31;
        fill-rule: evenodd;
      }
    </style>
  </defs>
  <path class="cls-1" d="M284.108,73.352V81.76h8.321a1.62,1.62,0,0,1,0,3.24H272.571a1.62,1.62,0,0,1,0-3.24h8.32V73.352A22.622,22.622,0,0,1,260,50.752V40.631a1.609,1.609,0,1,1,3.217,0V50.752a19.283,19.283,0,1,0,38.566,0V40.631a1.609,1.609,0,1,1,3.217,0V50.752A22.622,22.622,0,0,1,284.108,73.352Zm-0.536-8.09h-2.144a13.4,13.4,0,0,1-13.336-13.43V29.43A13.4,13.4,0,0,1,281.428,16h2.144a13.4,13.4,0,0,1,13.336,13.43v22.4A13.4,13.4,0,0,1,283.572,65.261Zm10.119-20.638H287.86a1.62,1.62,0,0,1,0-3.24h5.831V36.874H287.86a1.62,1.62,0,0,1,0-3.24h5.831v-4.2a10.209,10.209,0,0,0-5.735-9.183v4.58a1.609,1.609,0,1,1-3.217,0V19.31c-0.383-.045-4.095-0.045-4.478,0v5.517a1.609,1.609,0,1,1-3.217,0v-4.58a10.21,10.21,0,0,0-5.735,9.183v4.2h5.831a1.62,1.62,0,0,1,0,3.24h-5.831v4.509h5.831a1.62,1.62,0,0,1,0,3.24h-5.831v4.509h5.831a1.62,1.62,0,0,1,0,3.24h-5.816a10.162,10.162,0,0,0,10.1,9.65h2.144a10.162,10.162,0,0,0,10.1-9.65H287.86a1.62,1.62,0,0,1,0-3.24h5.831V44.623Z" transform="translate(-260 -16)"/>
</svg>
