<svg xmlns="http://www.w3.org/2000/svg" width="42" height="56" viewBox="0 0 42 56">
  <defs>
    <style>
      .cls-1 {
        fill: #fa5e31;
        fill-rule: evenodd;
      }
    </style>
  </defs>
  <path class="cls-1" d="M233.485,230.412l7.381,15.617a1.381,1.381,0,0,1-1.811,1.853l-9.246-4.117-9.247,4.117a1.384,1.384,0,0,1-1.124,0l-9.246-4.117-9.247,4.117a1.382,1.382,0,0,1-1.811-1.853l7.381-15.617a1.379,1.379,0,0,1,.687-0.672L210.9,228.1l-6.363-10.666c-0.015-.026-0.03-0.052-0.043-0.078a17.39,17.39,0,0,1,3.16-20.186,17.41,17.41,0,0,1,27.86,20.186c-0.014.026-.028,0.052-0.043,0.078L229.1,228.1l3.672,1.635A1.387,1.387,0,0,1,233.485,230.412Zm-0.414-14.359a14.66,14.66,0,0,0-13.279-21.289,14.729,14.729,0,0,0-14.445,14.567,14.5,14.5,0,0,0,1.582,6.722l11.885,19.923a1.38,1.38,0,0,0,2.372,0Zm-5.393,14.434-4.119,6.905a4.144,4.144,0,0,1-7.118,0l-4.12-6.906-3.527,1.571-5.57,11.785,6.405-2.852a1.376,1.376,0,0,1,1.124,0L220,245.107l9.246-4.117a1.376,1.376,0,0,1,1.124,0l6.405,2.852-5.569-11.785ZM213.7,209.42A6.305,6.305,0,1,1,220,215.726,6.313,6.313,0,0,1,213.7,209.42Zm9.848,0A3.543,3.543,0,1,0,220,212.963,3.547,3.547,0,0,0,223.543,209.42Z" transform="translate(-199 -192)"/>
</svg>
