<svg xmlns="http://www.w3.org/2000/svg" width="56.75" height="59.719" viewBox="0 0 56.75 59.719">
  <defs>
    <style>
      .cls-1 {
        fill: #5a5a5a;
        fill-rule: evenodd;
      }
    </style>
  </defs>
  <path class="cls-1" d="M753.477,325a10.829,10.829,0,0,1-7.753-3.244,11.067,11.067,0,0,1-2.611-4.269l-3.421,3.486a1.761,1.761,0,0,1-.24,2.142,1.706,1.706,0,0,1-1.225.512h0a1.71,1.71,0,0,1-1.226-.512l-3.345-3.4a1.77,1.77,0,0,1,0-2.452,1.689,1.689,0,0,1,1.5-.485l10.391-10.585c0.056-.064.113-0.127,0.173-0.188s0.1-.095.147-0.139l0.212-.215,0,0.007a2.547,2.547,0,0,1,.209-0.235l2.2-2.242-0.8-.821a2.386,2.386,0,0,1-.338.041,1.841,1.841,0,0,1-1.275-.572,1.584,1.584,0,0,1-.206-2.2l2.087-2.122a1.25,1.25,0,0,1,.738-0.365,1.28,1.28,0,0,1,.354-0.753l2.08-2.118a1.259,1.259,0,0,0,1.2-1.227l2.081-2.121a1.283,1.283,0,0,1,.922-0.376h0a1.836,1.836,0,0,1,1.277.574,1.774,1.774,0,0,1,.517,1.64l0.793,0.808,2.889-2.949v-0.162l0.4-.237,8.593-8.751c0.79-3.434,2.484-12.075,1.689-14.649a1.118,1.118,0,0,1,.373-1.365c0.67-.456,1.439-0.134,3.3,1.37,2.234,1.806,15.829,14.387,14.7,17.169a1.288,1.288,0,0,1-1.4.753l-0.174-.016-0.155-.079c-2.544-1.305-10.6.44-13.791,1.3l-1.78,1.813a10.916,10.916,0,0,1,4.025,2.6,11.3,11.3,0,0,1,0,15.755h0l-0.7.715-2.4,2.439,2.194,2.234a2.137,2.137,0,0,1-.143,2.962,2.3,2.3,0,0,1-1.615.7h0a1.866,1.866,0,0,1-1.34-.55l-2.178-2.217-0.264.269,2.2,2.238a2.114,2.114,0,0,1-.142,2.965,2.3,2.3,0,0,1-1.614.7,1.867,1.867,0,0,1-1.346-.554l-2.179-2.219-0.059.06,2.2,2.244a2.132,2.132,0,0,1-.152,2.966,2.281,2.281,0,0,1-1.606.7h0a1.861,1.861,0,0,1-1.342-.557l-2.186-2.224-2.12,2.2a3.077,3.077,0,0,1-.3.261,2.615,2.615,0,0,1-.256.308l-0.083.077-0.967,1.337-0.142-.376A10.848,10.848,0,0,1,753.477,325Zm-9.308-11.154,0.3,1.717a9.326,9.326,0,0,0,2.533,4.932,9.088,9.088,0,0,0,12.805.137l0.209-.2c0.028-.036.056-0.077,0.086-0.119l0.169-.183,0.13-.1,0.132-.167,3.387-3.424,3.465,3.525a0.451,0.451,0,0,0,.389-0.146,0.428,0.428,0,0,0,.15-0.443l-3.444-3.509,2.584-2.618,3.458,3.521a0.452,0.452,0,0,0,.394-0.148,0.423,0.423,0,0,0,.145-0.446l-3.437-3.5,0.624-.629c0.517-.521,1.025-1.038,1.516-1.544l0.641-.659,3.465,3.526a0.471,0.471,0,0,0,.393-0.152,0.426,0.426,0,0,0,.143-0.442l-3.431-3.494,3.638-3.7,0.691-.7a9.5,9.5,0,0,0,.01-13.244,9.04,9.04,0,0,0-4.627-2.528l-1.617-.333,4.338-4.417,0.232-.064c1.072-.3,9.8-2.633,14.156-1.635-1.949-3.24-10.936-12.3-14.341-14.9,0.325,4.466-1.7,13.273-1.957,14.378l-0.057.245-8.83,8.992v0.266l-0.415.15-4.27,4.358-3.055-3.112-0.454.462,3.055,3.106-2.815,2.873-3.056-3.109-0.453.461,3.056,3.117-2.744,2.781-3.049-3.106-0.452.459,3.053,3.113-3.45,3.511a1.114,1.114,0,0,0-.149.189l-0.1.143-0.143.1a1.322,1.322,0,0,0-.18.148c-0.06.062-.121,0.134-0.182,0.205l-0.862.966-0.041-.053-10.455,10.65,1.828,1.824Zm6.508-14.5,0.79,0.805,0.22-.222-0.8-.813a1.276,1.276,0,0,1-.176.036A1.386,1.386,0,0,1,750.677,299.346Zm3.178-3.265,0.8,0.817,0.3-.305-0.8-.816a1.393,1.393,0,0,1-.261.04A1.366,1.366,0,0,1,753.855,296.081Zm19.355-29.812-0.853.284,0.857-.265A0.106,0.106,0,0,0,773.21,266.269Zm-19.732,54.14h0a6.335,6.335,0,0,1-4.548-1.915,6.616,6.616,0,0,1-.1-9.121l0.011-.011,0.089-.093,3.975-4.046L762,314.484l-3.861,3.921a0.914,0.914,0,0,0-.1.082A6.334,6.334,0,0,1,753.478,320.409Zm-3.508-9.615a4.808,4.808,0,0,0,.241,6.439,4.544,4.544,0,0,0,3.266,1.377h0a4.546,4.546,0,0,0,3.267-1.377,2.561,2.561,0,0,1,.29-0.248l2.446-2.5-6.577-6.7-2.575,2.625-0.175.378Zm12.838,3.353-0.887-.886-8.456-8.609,2.58-2.629,9.115,9.283-0.883.855c-0.08.057-.21,0.179-0.21,0.179l-0.756.8Zm-6.825-9.5,6.564,6.682,0.059-.062-6.561-6.683Zm9.713,6.064-9.094-9.261,2.787-2.835,9.091,9.252Zm-6.574-9.26,6.571,6.692,0.268-.275-6.572-6.689Zm9.915,5.844-9.088-9.252,4.076-4.148v-0.162l0.356-.2a6.319,6.319,0,0,1,4.447-1.825h0.006a6.341,6.341,0,0,1,4.553,1.919h0a6.617,6.617,0,0,1,.54,8.552l-0.067.079Zm-6.569-9.252,6.565,6.683,0.552-.565,2.934-3.1a4.807,4.807,0,0,0-.414-6.173h0a4.555,4.555,0,0,0-3.271-1.381h0a4.524,4.524,0,0,0-3.109,1.233Z" transform="translate(-733.188 -265.281)"/>
</svg>
