<svg xmlns="http://www.w3.org/2000/svg" width="54" height="70" viewBox="0 0 54 70">
  <defs>
    <style>
      .cls-1 {
        fill: #fa5e31;
        fill-rule: evenodd;
      }
    </style>
  </defs>
  <path class="cls-1" d="M1039.23,152.877a25.806,25.806,0,0,1-15,8.029v4.723h6.96a6.005,6.005,0,0,1,6.1,5.963v2.593a1.811,1.811,0,0,1-1.74,1.815h-33.1a1.811,1.811,0,0,1-1.74-1.815v-2.593a6.005,6.005,0,0,1,6.1-5.963h6.96v-4.723a25.773,25.773,0,0,1-15-8A25.353,25.353,0,0,1,992,135.665a5.153,5.153,0,0,1,5.194-5.122h0.03A5.1,5.1,0,0,1,1000.85,132a5.219,5.219,0,0,1,1.6,3.715,15.384,15.384,0,0,0,15.37,15.221h2.36a15.357,15.357,0,0,0,15.37-15.189,5.342,5.342,0,0,1,1.6-3.769,5.081,5.081,0,0,1,3.63-1.437h0.03a5.152,5.152,0,0,1,5.19,5.122A25.253,25.253,0,0,1,1039.23,152.877Zm1.55-18.993a1.67,1.67,0,0,0-1.18.512,1.907,1.907,0,0,0-.57,1.337,18.854,18.854,0,0,1-18.85,18.662h-2.36a18.855,18.855,0,0,1-18.852-18.662,1.973,1.973,0,0,0-.567-1.359,1.653,1.653,0,0,0-1.186-.5,1.739,1.739,0,0,0-1.731,1.729,22.133,22.133,0,0,0,20.2,22.061,1.733,1.733,0,0,1,1.58,1.721v7.888a1.81,1.81,0,0,1-1.74,1.814h-8.71a2.541,2.541,0,0,0-2.62,2.507v0.95h29.62v-0.95a2.541,2.541,0,0,0-2.62-2.507h-8.71a1.81,1.81,0,0,1-1.74-1.814v-7.888a1.733,1.733,0,0,1,1.58-1.721,22.132,22.132,0,0,0,20.2-22.056A1.738,1.738,0,0,0,1040.78,133.884Zm-8.72,1.8a11.838,11.838,0,0,1-11.88,11.793h-2.36a11.838,11.838,0,0,1-11.88-11.793V117.793A11.838,11.838,0,0,1,1017.82,106h2.36a11.838,11.838,0,0,1,11.88,11.793h0v17.895Zm-3.48-15.861h-8.36a1.729,1.729,0,1,1,0-3.457h8.17a8.317,8.317,0,0,0-8.28-6.913h-2.36a8.206,8.206,0,0,0-8.33,8.2v17.895a8.434,8.434,0,0,0,8.33,8.471h2.36a8.545,8.545,0,0,0,8.27-6.914h-8.16a1.729,1.729,0,1,1,0-3.457h8.36v-5.185h-8.36a1.729,1.729,0,1,1,0-3.457h8.36v-5.185Z" transform="translate(-992 -106)"/>
</svg>
