<svg xmlns="http://www.w3.org/2000/svg" width="40" height="40" viewBox="0 0 40 40">
  <defs>
    <style>
      .cls-1 {
        fill: #fa5e31;
        fill-rule: evenodd;
      }
    </style>
  </defs>
  <path id="_1" data-name="1" class="cls-1" d="M90.069,49.2L89.9,49.26l2.3,0.482a29.163,29.163,0,0,0,5.971.592,31.147,31.147,0,0,0,3.158-.161,28.045,28.045,0,0,0,4.823-.845l0.182-.037-0.023-.008c4.546-1.27,7.358-3.52,7.358-5.615,0-2.949-5.736-6-15.334-6S83,40.717,83,43.667C83,45.717,85.693,47.915,90.069,49.2Zm5.9-2.934a2.34,2.34,0,0,1-1.831-1.795l-0.072-.453-0.449-.1a0.74,0.74,0,0,1-.222-0.08l0.094-.308a0.844,0.844,0,0,1,.442-0.245l0.3-.086,0.127-.284a2.672,2.672,0,0,1,.542-0.793c0.1-.1.183-0.177,0.249-0.237a1.351,1.351,0,0,0,.431-0.583,6.711,6.711,0,0,0,2.3.263c0.1,0,.192-0.006.291-0.006,2.841,0,3.534.779,3.808,1.365l0.129,0.276,0.292,0.084a0.9,0.9,0,0,1,.44.235l0.1,0.32a0.749,0.749,0,0,1-.222.08l-0.449.095-0.072.454a2.342,2.342,0,0,1-1.831,1.795l-0.518.169,0.143,1.239a1.235,1.235,0,0,0,.832.983l0.49,0.183c-0.16.017-.326,0.024-0.488,0.038-0.8.061-1.618,0.1-2.49,0.1a32.412,32.412,0,0,1-3.274-.163l0.441-.16a1.235,1.235,0,0,0,.849-0.989l0.142-1.233ZM98.333,39c9.322,0,14,2.992,14,4.667,0,1.373-2.877,3.733-8.252,4.781l-2.78-1.041-0.008-.069a3.488,3.488,0,0,0,2.127-2.247,1.5,1.5,0,0,0,.709-0.6,1.17,1.17,0,0,0,.11-0.949l-0.126-.411a1.743,1.743,0,0,0-1.066-1.028c-0.984-1.671-3.236-1.873-4.878-1.873-0.117,0-.232,0-0.345.007a5.2,5.2,0,0,1-1.9-.225,1.742,1.742,0,0,1-.413-0.192,0.848,0.848,0,0,0-.866-0.062l-0.4.228V40.4a2.677,2.677,0,0,0,.038.45c0,0.01,0,.02,0,0.029l-0.031.028c-0.079.073-.178,0.163-0.3,0.283a4,4,0,0,0-.681.921,1.737,1.737,0,0,0-1.051,1.021L92.1,43.54a1.173,1.173,0,0,0,.111.949,1.507,1.507,0,0,0,.709.6,3.488,3.488,0,0,0,2.127,2.247l-0.008.069-2.741.989c-5.191-1.074-7.961-3.379-7.961-4.728C84.333,41.992,89.012,39,98.333,39ZM113,54.765V54.6c2.1-1.479,3.333-3.3,3.333-5.3V43.667c0-4.941-7.738-8.667-18-8.667s-18,3.726-18,8.667V45.18C78.159,46.637,77,48.411,77,50.333v5.632c0,2.2,1.49,4.189,4,5.74v4.261C81,71.032,88.907,75,99,75s18-3.969,18-9.035V60.333C117,58.21,115.609,56.294,113,54.765Zm2.667,5.569c0,4.262-7.788,8-16.667,8-0.383,0-.764-0.01-1.143-0.023L97.519,68.3q-0.5-.022-0.983-0.06c-0.212-.017-0.422-0.037-0.632-0.057l-0.277-.028c-5.485-.59-10.15-2.568-12.191-5.067-0.027-.033-0.055-0.066-0.081-0.1s-0.058-.079-0.088-0.119a23.373,23.373,0,0,0,3.054,1.05C89.28,65.862,93.885,66.977,99,66.977c9.036,0,15.333-3.5,15.333-6.643a3.576,3.576,0,0,0-1.632-2.688c0.018-.047.03-0.1,0.046-0.144,0.022-.069.046-0.138,0.065-0.208s0.041-.161.06-0.242,0.033-.14.046-0.211,0.025-.165.036-0.247,0.019-.142.026-0.213c0-.021.006-0.041,0.007-0.062C114.367,57.251,115.667,58.593,115.667,60.333Zm-13.913,9.224,0.059-.005c0.383-.031.76-0.071,1.134-0.114l0.288-.035c0.37-.047.738-0.1,1.1-0.154v3.995c-0.862.139-1.752,0.247-2.666,0.319v-4ZM105.667,69l0.11-.026c0.359-.076.714-0.156,1.06-0.243l0.135-.036c0.234-.06.466-0.123,0.694-0.187V72.5q-0.961.277-2,.493V69h0ZM109,68.089l0.107-.037L109.256,68c0.275-.1.545-0.2,0.809-0.31l0.225-.091,0.044-.018v3.975Q109.7,71.83,109,72.077V68.089h0Zm2.667-1.132c0.114-.059.225-0.12,0.336-0.18,0.065-.035.13-0.069,0.193-0.1,0.257-.144.507-0.292,0.747-0.444L113,66.193v3.883a12.712,12.712,0,0,1-1.333.829V66.957h0ZM85,66.193c0.415,0.266.865,0.516,1.333,0.757v3.955A12.934,12.934,0,0,1,85,70.077V66.193Zm-4-10,0.057,0.035q0.36,0.228.747,0.444c0.063,0.035.129,0.07,0.193,0.1,0.111,0.061.222,0.121,0.337,0.18v3.376H81.375Q81.182,60.206,81,60.077V56.193Zm2.935,1.493q0.4,0.161.809,0.31c0.05,0.018.1,0.037,0.149,0.055L85,58.089v3.987q-0.7-.246-1.333-0.524V57.577l0.044,0.018C83.785,57.627,83.86,57.657,83.935,57.687Zm3.227,1.047c0.347,0.087.7,0.167,1.06,0.243L88.333,59V63l-0.113-.024q-0.537-.113-1.056-0.244c-0.282-.071-0.558-0.147-0.83-0.225V58.511c0.228,0.065.46,0.127,0.694,0.187Zm3.891,0.7c0.374,0.043.751,0.083,1.133,0.114l0.059,0.005,0.087,0.006v3.989c-0.459-.035-0.915-0.075-1.365-0.127-0.217-.026-0.431-0.057-0.646-0.086s-0.437-.069-0.655-0.1V59.249c0.361,0.058.728,0.109,1.1,0.155ZM95,59.667c0.447,0,.891-0.015,1.333-0.033v4H96.291c-0.428.016-.857,0.027-1.291,0.027s-0.889-.024-1.333-0.041V59.64l0.089,0C94.167,59.657,94.581,59.667,95,59.667ZM81.667,47.193c0.011,0.013.023,0.026,0.034,0.038q0.222,0.278.477,0.545c0.038,0.04.078,0.079,0.117,0.118q0.226,0.229.474,0.451c0.04,0.035.077,0.071,0.117,0.105s0.076,0.066.115,0.1v3.714A4.372,4.372,0,0,1,81.667,49.3V47.193Zm2.667,2.334,0.057,0.035q0.36,0.228.747,0.444l0.193,0.1c0.111,0.061.222,0.121,0.337,0.18v3.948a12.954,12.954,0,0,1-1.334-.829V49.527h0ZM87,50.911l0.044,0.018c0.074,0.031.149,0.061,0.225,0.091q0.4,0.161.809,0.31c0.05,0.018.1,0.037,0.149,0.055l0.107,0.037v3.987q-0.7-.246-1.333-0.524V50.911h0Zm2.667,0.933c0.228,0.065.46,0.127,0.694,0.187L90.5,52.067c0.347,0.087.7,0.167,1.06,0.243l0.111,0.025V56.33c-0.691-.144-1.359-0.308-2-0.493V51.844h0ZM93,52.581c0.361,0.058.728,0.109,1.1,0.155l0.289,0.035c0.374,0.043.751,0.083,1.133,0.114l0.059,0.005L95.667,52.9v4c-0.914-.071-1.8-0.179-2.667-0.319V52.581ZM98.333,53c0.419,0,.833-0.01,1.244-0.024l0.089,0v3.984C99.223,56.975,98.781,57,98.333,57S97.441,56.989,97,56.972v-4l0.089,0C97.5,52.99,97.915,53,98.333,53Zm2.814-.114c0.382-.031.759-0.071,1.133-0.114l0.289-.035c0.37-.047.737-0.1,1.1-0.155v3.986c-0.251.04-.5,0.087-0.751,0.121-0.133.018-.265,0.037-0.4,0.054-0.5.061-1.007,0.1-1.516,0.144V52.9l0.087-.006Zm5.024-.818c0.046-.011.09-0.024,0.135-0.036,0.234-.06.466-0.123,0.694-0.187v3.992c-0.085.025-.171,0.049-0.257,0.072h0c-0.149.041-.3,0.083-0.452,0.122q-0.55.142-1.121,0.263L105,56.33V52.336l0.111-.025C105.47,52.235,105.825,52.155,106.171,52.067Zm2.418-.737c0.276-.1.545-0.2,0.81-0.31l0.224-.091,0.044-.018v3.975q-0.637.277-1.333,0.524V51.423l0.107-.037Zm2.94-1.325c0.258-.144.508-0.292,0.747-0.444l0.057-.035v3.883a12.886,12.886,0,0,1-1.334.829V50.29c0.115-.058.226-0.12,0.337-0.18C111.4,50.075,111.466,50.041,111.529,50.005ZM93.351,64.962l0.075,0,0.085,0,0.168,0.006C94.116,64.989,94.555,65,95,65q0.468,0,.929-0.011c0.1,0,.2-0.007.3-0.011l0.125,0,0.183-.007c0.1,0,.207-0.007.31-0.012,0.12-.006.239-0.015,0.358-0.022,0.18-.011.362-0.02,0.541-0.033,0.131-.01.261-0.022,0.391-0.033,0.165-.014.331-0.028,0.495-0.043,0.131-.013.259-0.029,0.388-0.043,0.161-.018.323-0.035,0.482-0.055,0.131-.016.259-0.035,0.388-0.053,0.155-.021.309-0.041,0.462-0.065,0.13-.019.257-0.041,0.385-0.063,0.15-.025.3-0.048,0.448-0.075,0.128-.023.254-0.048,0.38-0.072,0.144-.027.29-0.054,0.432-0.084,0.126-.026.251-0.055,0.376-0.082,0.14-.031.279-0.061,0.416-0.093s0.245-.06.366-0.091,0.272-.068.406-0.1c0.118-.031.234-0.065,0.352-0.1s0.266-.074.4-0.113,0.23-.071.344-0.107,0.254-.079.379-0.121,0.225-.077.336-0.115,0.244-.085.363-0.129,0.218-.082.325-0.123,0.235-.091.349-0.137,0.208-.086.311-0.13,0.227-.1.338-0.147,0.2-.091.3-0.137,0.217-.1.323-0.155,0.191-.1.285-0.145,0.2-.107.3-0.161,0.182-.1.272-0.151,0.195-.112.29-0.169,0.172-.1.256-0.157,0.185-.117.275-0.177,0.161-.109.241-0.163,0.174-.122.258-0.184,0.151-.112.224-0.168,0.163-.127.242-0.191,0.14-.115.209-0.174,0.151-.131.224-0.2,0.129-.119.192-0.179,0.138-.135.2-0.2,0.119-.123.176-0.185,0.125-.139.186-0.209,0.108-.127.159-0.191,0.112-.143.165-0.215,0.1-.13.142-0.195,0.072-.105.107-0.159A2.2,2.2,0,0,1,113,60.333c0,1.8-4.941,5.31-14,5.31a28.867,28.867,0,0,1-6.786-.747C92.589,64.925,92.969,64.945,93.351,64.962ZM105,62.077V58.062l0.127-.046c0.245-.087.5-0.17,0.732-0.264,0.162-.065.314-0.137,0.474-0.205v4.006Q105.7,61.83,105,62.077Zm-2.811-3.208c0.279-.064.562-0.123,0.835-0.195,0.219-.057.427-0.125,0.642-0.187V62.5q-0.961.277-2,.493V58.99C101.843,58.953,102.015,58.909,102.189,58.869Zm5.478,2.036V57.063c0.459-.137.9-0.285,1.333-0.442v3.456A12.92,12.92,0,0,1,107.667,60.905Zm-9.343-1.4c0.22-.022.435-0.055,0.653-0.081,0.321-.038.645-0.072,0.962-0.12,0.133-.02.262-0.047,0.394-0.069v4.009l-0.168.027c-0.2.031-.4,0.061-0.6,0.088-0.157.021-.313,0.044-0.471,0.063q-0.517.062-1.045,0.108l-0.351.03-0.029,0V59.553C97.885,59.535,98.107,59.525,98.324,59.5Zm13.343-3.539a3.649,3.649,0,0,1-.329,1.487l-0.061.125a5.433,5.433,0,0,1-.8,1.191c-0.04.045-.076,0.091-0.118,0.136l-0.022.021V56.084c0.467-.208.913-0.426,1.334-0.657v0.538Zm-24,11.611q0.643,0.271,1.333.511v3.989q-0.7-.246-1.333-0.524V67.576Zm2.667,0.93c0.645,0.185,1.309.354,2,.5V73q-1.037-.216-2-0.493v-4Zm3.333,0.741c0.1,0.017.212,0.029,0.317,0.045,0.159,0.024.32,0.047,0.481,0.068,0.251,0.034.5,0.066,0.759,0.095s0.509,0.054.767,0.078c0.115,0.01.228,0.021,0.343,0.031v4c-0.914-.071-1.8-0.179-2.667-0.319v-4ZM115,47.193V49.3a4.374,4.374,0,0,1-1.333,2.964V48.549l0.114-.1c0.04-.034.078-0.071,0.117-0.105q0.249-.222.474-0.451c0.039-.039.079-0.079,0.117-0.118,0.17-.179.328-0.361,0.476-0.545C114.977,47.218,114.989,47.205,115,47.193ZM98.333,36.334c9.346,0,16.667,3.221,16.667,7.333,0,4.262-7.788,8-16.667,8s-16.667-3.738-16.667-8C81.667,39.555,88.987,36.334,98.333,36.334Zm-18,10.489V49.3c0,0.154.008,0.307,0.023,0.459,0,0.051.015,0.1,0.021,0.151,0.013,0.1.025,0.2,0.044,0.3,0.012,0.059.028,0.118,0.041,0.177,0.021,0.089.041,0.179,0.066,0.268,0.018,0.063.041,0.125,0.061,0.188,0.027,0.083.055,0.167,0.087,0.249,0.025,0.065.053,0.128,0.081,0.192,0.034,0.079.069,0.159,0.107,0.238s0.065,0.127.1,0.191,0.083,0.154.127,0.23,0.077,0.127.117,0.189,0.1,0.149.147,0.223,0.089,0.125.135,0.187,0.109,0.144.166,0.215,0.1,0.123.153,0.184,0.122,0.14.186,0.209,0.111,0.119.168,0.179,0.136,0.137.206,0.2,0.12,0.116.183,0.173,0.149,0.133.225,0.2,0.13,0.113.2,0.168,0.163,0.13.245,0.194,0.138,0.108.21,0.161,0.177,0.127.267,0.19c0.073,0.051.145,0.1,0.22,0.153,0.095,0.063.193,0.125,0.292,0.187,0.075,0.048.149,0.1,0.226,0.143,0.106,0.065.217,0.127,0.327,0.19,0.074,0.042.145,0.085,0.221,0.127,0.137,0.075.278,0.148,0.419,0.221,0.053,0.028.1,0.055,0.157,0.082q0.293,0.147.6,0.287c0.071,0.032.145,0.063,0.217,0.095,0.137,0.06.274,0.121,0.415,0.18,0.087,0.036.178,0.071,0.267,0.106,0.129,0.051.258,0.1,0.391,0.153,0.1,0.037.2,0.071,0.3,0.107,0.129,0.046.257,0.093,0.387,0.137,0.1,0.035.209,0.069,0.314,0.1,0.131,0.043.261,0.085,0.393,0.125,0.109,0.033.219,0.065,0.329,0.1,0.133,0.039.266,0.077,0.4,0.115,0.113,0.031.227,0.061,0.342,0.091,0.136,0.035.272,0.071,0.41,0.1,0.117,0.029.235,0.056,0.353,0.083,0.14,0.032.281,0.064,0.423,0.094,0.12,0.026.241,0.051,0.361,0.075,0.144,0.029.288,0.057,0.434,0.085l0.368,0.067c0.149,0.026.3,0.051,0.45,0.075l0.372,0.058c0.153,0.023.309,0.044,0.464,0.065l0.375,0.049c0.16,0.019.321,0.037,0.483,0.055l0.372,0.039c0.167,0.016.335,0.03,0.5,0.044,0.124,0.01.247,0.021,0.371,0.03,0.175,0.012.353,0.023,0.53,0.033l0.355,0.021,0.075,0q-0.8.037-1.607,0.038c-8.879,0-16.667-3.738-16.667-8A4.7,4.7,0,0,1,80.333,46.823Zm-2,9.143V53.859c0.011,0.014.023,0.026,0.034,0.039q0.222,0.277.477,0.545c0.038,0.04.078,0.078,0.117,0.118q0.226,0.229.474,0.451c0.039,0.035.077,0.071,0.117,0.106s0.076,0.067.115,0.1v3.714A4.372,4.372,0,0,1,78.333,55.965Zm4,10V63.859a9.428,9.428,0,0,0,1.333,1.351v3.719A4.369,4.369,0,0,1,82.333,65.965Zm15.333,7.673v-4l0.1,0c0.409,0.015.821,0.025,1.237,0.025s0.833-.01,1.244-0.025l0.089,0v4c-0.44.017-.884,0.028-1.333,0.028S98.107,73.655,97.667,73.639Zm18-9.779v2.107a4.37,4.37,0,0,1-1.334,2.964V65.216c0.039-.032.076-0.064,0.114-0.1l0.118-.105q0.249-.222.474-0.451c0.038-.039.079-0.079,0.116-0.118q0.255-.268.477-0.545C115.643,63.885,115.656,63.872,115.667,63.859Z" transform="translate(-77 -35)"/>
</svg>
