<svg xmlns="http://www.w3.org/2000/svg" width="45" height="45" viewBox="0 0 45 45">
  <defs>
    <style>
      .cls-1 {
        fill: #fa5e31;
        fill-rule: evenodd;
      }
    </style>
  </defs>
  <path id="_2" data-name="2" class="cls-1" d="M189.788,45.751L176.24,32.21a0.719,0.719,0,0,0-1.016,0L146.3,61.117a4.552,4.552,0,0,0,0,6.432l8.129,8.124a4.564,4.564,0,0,0,6.436,0l28.923-28.906A0.717,0.717,0,0,0,189.788,45.751ZM159.849,74.657a3.126,3.126,0,0,1-4.4,0l-8.13-8.124a3.114,3.114,0,0,1,0-4.4l28.416-28.4,12.532,12.525ZM150.5,62a0.718,0.718,0,0,0-1.016,1.015l9.484,9.478a0.718,0.718,0,0,0,1.016-1.016Zm3.726,0.338a0.718,0.718,0,1,0,1.016-1.015l-1.355-1.354a0.718,0.718,0,0,0-1.016,1.015Zm3.048,1.016a0.718,0.718,0,0,0-1.016,1.015l1.355,1.354a0.718,0.718,0,1,0,1.016-1.016Zm3.387,3.385a0.718,0.718,0,0,0-1.016,1.015L161,69.108a0.718,0.718,0,1,0,1.016-1.015Zm-3.725-7.109a0.718,0.718,0,1,0,1.016-1.015L156.6,57.26a0.718,0.718,0,1,0-1.016,1.016Zm2.032,1.016a0.717,0.717,0,0,0,0,1.016l1.355,1.354A0.718,0.718,0,1,0,161.337,62l-1.355-1.354A0.719,0.719,0,0,0,158.966,60.645Zm4.4,3.385a0.718,0.718,0,1,0-1.016,1.015l1.355,1.354a0.718,0.718,0,1,0,1.016-1.016Zm3.847-12.065a2.156,2.156,0,1,0,1.524-.631A2.157,2.157,0,0,0,167.216,51.965ZM169.248,54a0.718,0.718,0,1,1,0-1.015A0.714,0.714,0,0,1,169.248,54Zm-9.6,2.926a0.718,0.718,0,1,0,1.016-1.015L159.3,54.552a0.718,0.718,0,1,0-1.016,1.015Zm3.387,3.385a0.718,0.718,0,1,0,1.016-1.015l-1.355-1.354a0.718,0.718,0,1,0-1.016,1.016Zm3.049,1.016a0.718,0.718,0,0,0-1.016,1.015l1.354,1.354a0.719,0.719,0,0,0,1.017-1.016Zm5.08-15.91a0.718,0.718,0,1,0,1.016-1.016l-1.355-1.354a0.718,0.718,0,1,0-1.015,1.015Zm3.049,1.015a0.718,0.718,0,1,0-1.016,1.016l1.354,1.354a0.719,0.719,0,0,0,1.017-1.015Zm2.371,3.385a0.717,0.717,0,0,0,0,1.015l1.355,1.354a0.718,0.718,0,1,0,1.016-1.015L177.6,49.813A0.718,0.718,0,0,0,176.579,49.813Zm-2.71-7.109a0.718,0.718,0,1,0,1.016-1.015l-1.355-1.354a0.718,0.718,0,1,0-1.016,1.015ZM175.9,43.72a0.719,0.719,0,0,0,0,1.015l1.355,1.354a0.718,0.718,0,1,0,1.016-1.016l-1.355-1.354A0.718,0.718,0,0,0,175.9,43.72Zm4.742,5.755a0.718,0.718,0,1,0,1.016-1.016L180.3,47.1a0.718,0.718,0,1,0-1.016,1.016Zm-5.419-10.832L176.579,40a0.718,0.718,0,0,0,1.016-1.015l-1.355-1.354A0.718,0.718,0,0,0,175.224,38.642Zm8.129,8.124a0.718,0.718,0,0,0,1.016-1.015L183.014,44.4A0.718,0.718,0,1,0,182,45.412Zm-11.225,5.525a0.718,0.718,0,0,0,1.355-.478,5.032,5.032,0,0,0-8.3-1.879,5.028,5.028,0,0,0,7.113,7.109,4.974,4.974,0,0,0,1.187-1.879,0.718,0.718,0,0,0-1.355-.478,3.594,3.594,0,0,1-5.928,1.341,3.591,3.591,0,0,1,5.08-5.078A3.549,3.549,0,0,1,172.128,52.291Z" transform="translate(-145 -32)"/>
</svg>
