<svg xmlns="http://www.w3.org/2000/svg" width="39" height="40" viewBox="0 0 39 40">
  <defs>
    <style>
      .cls-1 {
        fill: #fa5e31;
        fill-rule: evenodd;
      }
    </style>
  </defs>
  <path id="_3" data-name="3" class="cls-1" d="M233.553,35a15.23,15.23,0,0,0-2.063.145A15.2,15.2,0,0,0,229.447,35a16.472,16.472,0,0,0-12.767,6.389,0.66,0.66,0,0,0-.081.1,20.334,20.334,0,0,0-2.6,4.225,0.907,0.907,0,0,0-.046.1,21.587,21.587,0,0,0-1.2,3.377,0.692,0.692,0,0,0-.054.214A22.673,22.673,0,0,0,212,55a22.336,22.336,0,0,0,1.658,8.5,0.717,0.717,0,0,0,.031.08,20.6,20.6,0,0,0,2.377,4.238,0.622,0.622,0,0,0,.073.1,18.723,18.723,0,0,0,3.243,3.408,0.634,0.634,0,0,0,.118.1A15.861,15.861,0,0,0,229.447,75a15.25,15.25,0,0,0,2.043-.145,15.262,15.262,0,0,0,2.063.145C243.173,75,251,66.028,251,55S243.173,35,233.553,35Zm-7.226,1.8q-0.339.178-.671,0.372c-0.124.072-.248,0.142-0.37,0.218-0.189.117-.375,0.241-0.56,0.366h-1.317a14.332,14.332,0,0,1,3.133-1.075C226.469,36.721,226.4,36.765,226.327,36.8Zm-6.9,29.921h-2.453a19.117,19.117,0,0,1-1.6-2.759h2.592c0.108,0.244.218,0.486,0.334,0.725,0.049,0.1.1,0.2,0.153,0.306q0.212,0.416.437,0.818c0.056,0.1.11,0.2,0.168,0.3C219.177,66.321,219.3,66.523,219.43,66.724Zm-4.373-20h2.619q-0.18.452-.341,0.915c-0.03.086-.06,0.17-0.088,0.256-0.1.3-.191,0.6-0.278,0.9H214.3A19.9,19.9,0,0,1,215.057,46.724ZM213.368,55c0-.465.025-0.923,0.054-1.379h2.728c0,0.011,0,.022,0,0.033-0.025.446-.043,0.893-0.043,1.346,0,0.231.008,0.46,0.015,0.69H213.4C213.388,55.459,213.368,55.232,213.368,55Zm2.83,2.069c0.026,0.29.06,0.579,0.1,0.866,0,0.021,0,.042.007,0.064,0.05,0.383.112,0.764,0.181,1.14h-2.7c-0.133-.677-0.238-1.366-0.306-2.069h2.72Zm0.425-6.9c-0.018.081-.033,0.164-0.05,0.245s-0.037.181-.055,0.272c-0.084.432-.157,0.869-0.216,1.312,0,0.021,0,.042-0.007.063-0.008.059-.013,0.117-0.02,0.176h-2.716c0.091-.7.205-1.395,0.362-2.069h2.7Zm0.163,10.345c0.021,0.084.041,0.17,0.063,0.253,0.008,0.03.015,0.062,0.023,0.092,0.113,0.42.24,0.833,0.375,1.241,0.029,0.086.059,0.17,0.088,0.256s0.051,0.152.078,0.226h-2.636a20.111,20.111,0,0,1-.673-2.069h2.682Zm2.27-16.632c-0.058.1-.113,0.2-0.169,0.3q-0.227.4-.436,0.818c-0.052.1-.1,0.2-0.154,0.306a0.377,0.377,0,0,0-.017.034h-2.565a18.767,18.767,0,0,1,1.776-2.759h2.4c-0.084.121-.168,0.241-0.25,0.363C219.437,43.255,219.242,43.567,219.056,43.886Zm2-4.748h1.889c-0.169.15-.339,0.3-0.5,0.457-0.138.131-.271,0.267-0.405,0.4s-0.27.277-.4,0.418-0.253.271-.376,0.411c-0.11.124-.214,0.253-0.321,0.381h-2.259A16.577,16.577,0,0,1,221.054,39.138ZM218.037,68.1h2.349c0.077,0.1.154,0.2,0.233,0.3q0.31,0.393.638,0.766c0.122,0.14.249,0.275,0.376,0.411s0.266,0.282.4,0.419c0.055,0.055.107,0.114,0.162,0.169h-2.058A17.065,17.065,0,0,1,218.037,68.1Zm8.5,5.212a14.539,14.539,0,0,1-4.427-1.764h1.655c0.087,0.068.178,0.132,0.266,0.2,0.142,0.106.283,0.213,0.428,0.315q0.4,0.283.821,0.543c0.122,0.075.247,0.146,0.371,0.218,0.221,0.129.444,0.253,0.671,0.372C226.4,73.235,226.469,73.279,226.542,73.316Zm7.011,0.3a14.01,14.01,0,0,1-1.611-.094l-0.265-.037-0.109-.016q-0.356-.05-0.7-0.119l-0.058-.012c-0.227-.045-0.451-0.095-0.674-0.151l-0.1-.027c-0.208-.054-0.414-0.111-0.618-0.173-0.062-.019-0.125-0.041-0.187-0.061-0.174-.056-0.348-0.113-0.52-0.176-0.139-.051-0.277-0.108-0.415-0.163-0.093-.037-0.188-0.072-0.281-0.112a17.13,17.13,0,0,1-8.586-8.6c-0.017-.036-0.033-0.074-0.049-0.11q-0.15-.321-0.288-0.65c-0.037-.088-0.071-0.177-0.107-0.265-0.069-.171-0.138-0.343-0.2-0.517-0.041-.112-0.081-0.225-0.12-0.339-0.054-.153-0.108-0.307-0.158-0.462-0.041-.127-0.08-0.255-0.119-0.383-0.044-.145-0.087-0.292-0.128-0.439s-0.075-.271-0.11-0.407-0.072-.29-0.107-0.435-0.064-.279-0.094-0.419-0.06-.294-0.088-0.443-0.054-.283-0.078-0.425-0.049-.305-0.071-0.459-0.042-.278-0.06-0.419c-0.021-.166-0.038-0.333-0.055-0.5-0.013-.13-0.028-0.26-0.039-0.391-0.017-.192-0.028-0.385-0.039-0.579-0.006-.109-0.015-0.217-0.02-0.325-0.012-.3-0.019-0.609-0.019-0.917s0.007-.613.019-0.917c0-.109.014-0.217,0.02-0.326,0.011-.193.022-0.387,0.039-0.579,0.011-.131.026-0.261,0.039-0.391,0.017-.167.035-0.334,0.055-0.5,0.018-.14.039-0.279,0.06-0.418s0.045-.307.071-0.459,0.05-.284.078-0.426,0.057-.3.088-0.443,0.062-.28.094-0.42,0.07-.291.107-0.435,0.071-.273.109-0.408,0.084-.293.129-0.439c0.039-.128.078-0.256,0.119-0.383,0.05-.155.1-0.309,0.158-0.463,0.039-.113.079-0.226,0.12-0.338,0.065-.174.133-0.346,0.2-0.516,0.036-.088.07-0.178,0.107-0.265q0.138-.329.288-0.65c0.017-.036.032-0.074,0.049-0.11a17.131,17.131,0,0,1,8.586-8.6c0.093-.04.188-0.075,0.281-0.112,0.138-.055.276-0.112,0.415-0.163,0.172-.063.346-0.119,0.52-0.176,0.062-.02.124-0.042,0.187-0.061,0.2-.063.41-0.12,0.618-0.173,0.033-.008.066-0.018,0.1-0.026,0.222-.056.446-0.106,0.673-0.151l0.058-.012c0.233-.045.467-0.085,0.7-0.119l0.11-.016,0.264-.037a14.177,14.177,0,0,1,1.612-.093c8.866,0,16.079,8.353,16.079,18.621S242.419,73.621,233.553,73.621ZM221.351,55c0-.434.017-0.87,0.051-1.3a0.685,0.685,0,1,0-1.365-.109c-0.036.461-.054,0.934-0.054,1.4v0.014a0.68,0.68,0,0,0,.684.682A0.693,0.693,0,0,0,221.351,55Zm23.925-3.937a0.684,0.684,0,0,0,.663.521,0.728,0.728,0,0,0,.168-0.02,0.691,0.691,0,0,0,.5-0.837c-0.115-.461-0.249-0.92-0.4-1.365a0.682,0.682,0,0,0-.869-0.429,0.692,0.692,0,0,0-.426.876C245.046,50.217,245.17,50.64,245.276,51.064Zm-2.814,13.6c-0.273.339-.563,0.664-0.86,0.967a0.694,0.694,0,0,0,0,.975,0.681,0.681,0,0,0,.968,0c0.329-.334.649-0.694,0.95-1.068a0.693,0.693,0,0,0-.1-0.97A0.681,0.681,0,0,0,242.462,64.668Zm-20.64-5.759a0.682,0.682,0,0,0-.829-0.5,0.692,0.692,0,0,0-.5.836c0.114,0.46.248,0.92,0.4,1.367a0.685,0.685,0,1,0,1.3-.445C222.05,59.755,221.927,59.332,221.822,58.91ZM240.3,41.517a12.879,12.879,0,0,0-1.24-.719,0.682,0.682,0,0,0-.919.305,0.692,0.692,0,0,0,.3.926,11.354,11.354,0,0,1,1.109.644,0.675,0.675,0,0,0,.373.112,0.682,0.682,0,0,0,.574-0.313A0.694,0.694,0,0,0,240.3,41.517Zm-1.782,26.417a11.373,11.373,0,0,1-1.167.522,0.69,0.69,0,0,0,.241,1.335,0.681,0.681,0,0,0,.242-0.045,12.6,12.6,0,0,0,1.309-.586,0.692,0.692,0,0,0,.3-0.928A0.683,0.683,0,0,0,238.516,67.933Zm5.8-22.4c-0.266-.4-0.552-0.782-0.85-1.147A0.681,0.681,0,0,0,242.5,44.3a0.7,0.7,0,0,0-.093.971c0.271,0.332.531,0.683,0.774,1.043a0.681,0.681,0,0,0,.95.184A0.692,0.692,0,0,0,244.315,45.536Zm2.123,8.752a0.707,0.707,0,0,0-.684.712c0,0.423-.016.85-0.048,1.268a0.687,0.687,0,0,0,.629.741l0.053,0a0.686,0.686,0,0,0,.682-0.636c0.035-.454.053-0.916,0.053-1.374V54.954A0.668,0.668,0,0,0,246.438,54.288ZM245.8,59.677a0.684,0.684,0,0,0-.867.434c-0.138.413-.295,0.824-0.466,1.22a0.691,0.691,0,0,0,.354.907,0.674,0.674,0,0,0,.273.057,0.686,0.686,0,0,0,.628-0.414c0.186-.433.358-0.881,0.508-1.331A0.69,0.69,0,0,0,245.8,59.677ZM234.955,39.548a12.068,12.068,0,0,0-1.4-.082h-0.029a0.675,0.675,0,0,0-.67.69,0.7,0.7,0,0,0,.7.69,10.74,10.74,0,0,1,1.244.072,0.624,0.624,0,0,0,.08,0A0.69,0.69,0,0,0,234.955,39.548ZM223.907,63.668a0.679,0.679,0,0,0-.949-0.186,0.692,0.692,0,0,0-.185.957c0.265,0.4.551,0.783,0.848,1.148a0.68,0.68,0,0,0,.963.1,0.7,0.7,0,0,0,.095-0.971C224.409,64.381,224.149,64.029,223.907,63.668ZM222.3,47.735a0.682,0.682,0,0,0-.9.356c-0.188.434-.36,0.881-0.511,1.33a0.693,0.693,0,0,0,.428.875,0.682,0.682,0,0,0,.868-0.432c0.138-.412.3-0.822,0.469-1.221A0.691,0.691,0,0,0,222.3,47.735Zm11.258,21.42a10.688,10.688,0,0,1-1.272-.076,0.69,0.69,0,0,0-.162,1.37,12.076,12.076,0,0,0,1.434.086h0.059a0.663,0.663,0,0,0,.655-0.69A0.714,0.714,0,0,0,233.553,69.154Zm-9-25.783c-0.329.334-.649,0.692-0.951,1.066a0.692,0.692,0,0,0,.1.97,0.681,0.681,0,0,0,.963-0.1c0.274-.339.564-0.664,0.862-0.966a0.7,0.7,0,0,0,0-.976A0.683,0.683,0,0,0,224.552,43.372Zm4.751-3.129a12.7,12.7,0,0,0-1.311.583,0.692,0.692,0,0,0-.3.928,0.682,0.682,0,0,0,.61.376,0.673,0.673,0,0,0,.31-0.075,11.393,11.393,0,0,1,1.169-.519,0.691,0.691,0,0,0,.4-0.888A0.681,0.681,0,0,0,229.3,40.243Zm-0.664,27.716a11.587,11.587,0,0,1-1.107-.647,0.683,0.683,0,0,0-.948.2,0.693,0.693,0,0,0,.2.955,13.087,13.087,0,0,0,1.237.723,0.683,0.683,0,0,0,.921-0.3A0.692,0.692,0,0,0,228.639,67.959Z" transform="translate(-212 -35)"/>
</svg>
