<svg xmlns="http://www.w3.org/2000/svg" width="40" height="39" viewBox="0 0 40 39">
  <defs>
    <style>
      .cls-1 {
        fill: #fb724b;
        fill-rule: evenodd;
      }
    </style>
  </defs>
  <path id="_4" data-name="4" class="cls-1" d="M307.251,48.148a0.86,0.86,0,0,0-1.23,0L294.749,59.6a0.893,0.893,0,0,0,0,1.25,0.86,0.86,0,0,0,1.23,0L307.251,49.4A0.893,0.893,0,0,0,307.251,48.148ZM296.894,53.68a3.353,3.353,0,1,0-3.3-3.353A3.33,3.33,0,0,0,296.894,53.68Zm0-4.938a1.586,1.586,0,1,1-1.561,1.585A1.575,1.575,0,0,1,296.894,48.742Zm8.212,6.578a3.353,3.353,0,1,0,3.3,3.352A3.331,3.331,0,0,0,305.106,55.32Zm0,4.938a1.586,1.586,0,1,1,1.56-1.586A1.575,1.575,0,0,1,305.106,60.258Zm14.2-9.486a7.459,7.459,0,0,1-1.176-1.93,7.924,7.924,0,0,1-.185-2.366,6.368,6.368,0,0,0-.769-3.924,6.194,6.194,0,0,0-3.459-1.966,7.477,7.477,0,0,1-2.134-.9,7.551,7.551,0,0,1-1.473-1.765,6.355,6.355,0,0,0-2.934-2.759A3.459,3.459,0,0,0,306.094,35a8.727,8.727,0,0,0-2.775.637,5.078,5.078,0,0,1-4.638,0A8.727,8.727,0,0,0,295.906,35a3.47,3.47,0,0,0-1.088.167,6.357,6.357,0,0,0-2.933,2.759,7.551,7.551,0,0,1-1.473,1.765,7.492,7.492,0,0,1-2.134.9,6.19,6.19,0,0,0-3.459,1.966,6.368,6.368,0,0,0-.769,3.923,7.889,7.889,0,0,1-.186,2.366,7.485,7.485,0,0,1-1.175,1.93A6.5,6.5,0,0,0,281,54.5a6.5,6.5,0,0,0,1.689,3.728,7.513,7.513,0,0,1,1.176,1.93,7.923,7.923,0,0,1,.185,2.366,6.368,6.368,0,0,0,.769,3.924,6.19,6.19,0,0,0,3.459,1.966,4.873,4.873,0,0,1,3.607,2.661,6.359,6.359,0,0,0,2.933,2.759,3.47,3.47,0,0,0,1.088.167,8.732,8.732,0,0,0,2.775-.636,5.075,5.075,0,0,1,4.638,0,8.732,8.732,0,0,0,2.775.636,3.47,3.47,0,0,0,1.088-.167,6.359,6.359,0,0,0,2.933-2.759,4.873,4.873,0,0,1,3.607-2.661,6.19,6.19,0,0,0,3.459-1.966,6.368,6.368,0,0,0,.769-3.924,7.923,7.923,0,0,1,.185-2.366,7.515,7.515,0,0,1,1.176-1.93A6.5,6.5,0,0,0,321,54.5,6.5,6.5,0,0,0,319.311,50.772Zm-1.388,6.391a8.806,8.806,0,0,0-1.442,2.449,9.291,9.291,0,0,0-.27,2.936,5.123,5.123,0,0,1-.437,2.859,4.96,4.96,0,0,1-2.564,1.317,6.472,6.472,0,0,0-4.52,3.336,5.031,5.031,0,0,1-2.046,2.092,1.732,1.732,0,0,1-.55.081,7.456,7.456,0,0,1-2.215-.542,6.656,6.656,0,0,0-5.758,0,7.456,7.456,0,0,1-2.215.542,1.73,1.73,0,0,1-.55-0.081,5.024,5.024,0,0,1-2.046-2.091,6.476,6.476,0,0,0-4.52-3.337,4.967,4.967,0,0,1-2.565-1.317,5.124,5.124,0,0,1-.436-2.859,9.291,9.291,0,0,0-.27-2.936,8.81,8.81,0,0,0-1.442-2.449,5.122,5.122,0,0,1-1.338-2.663,5.122,5.122,0,0,1,1.338-2.663,8.807,8.807,0,0,0,1.442-2.449,9.291,9.291,0,0,0,.27-2.936,5.124,5.124,0,0,1,.437-2.859,4.962,4.962,0,0,1,2.564-1.317,8.809,8.809,0,0,0,2.646-1.156,8.894,8.894,0,0,0,1.874-2.181,5.03,5.03,0,0,1,2.045-2.092,1.746,1.746,0,0,1,.551-0.081,7.459,7.459,0,0,1,2.215.542,6.656,6.656,0,0,0,5.758,0,7.456,7.456,0,0,1,2.215-.542,1.73,1.73,0,0,1,.55.081,5.031,5.031,0,0,1,2.046,2.092,8.89,8.89,0,0,0,1.874,2.181,8.79,8.79,0,0,0,2.646,1.156,4.961,4.961,0,0,1,2.564,1.316,5.125,5.125,0,0,1,.437,2.86,9.291,9.291,0,0,0,.27,2.936,8.809,8.809,0,0,0,1.442,2.449,5.122,5.122,0,0,1,1.338,2.663A5.123,5.123,0,0,1,317.923,57.163Zm-3.42-7.121a6.037,6.037,0,0,1-.134-1.776,5.178,5.178,0,0,0-.635-3.168,5.032,5.032,0,0,0-2.788-1.6,5.7,5.7,0,0,1-1.6-.667,5.765,5.765,0,0,1-1.1-1.326,5.083,5.083,0,0,0-2.378-2.219,2.878,2.878,0,0,0-.905-0.14,6.925,6.925,0,0,0-2.22.505,3.771,3.771,0,0,1-3.48,0,6.937,6.937,0,0,0-2.22-.505,2.884,2.884,0,0,0-.905.14,5.09,5.09,0,0,0-2.379,2.218,5.764,5.764,0,0,1-1.1,1.326,5.721,5.721,0,0,1-1.6.667,5.028,5.028,0,0,0-2.788,1.6,5.178,5.178,0,0,0-.635,3.168,6.034,6.034,0,0,1-.135,1.776,5.705,5.705,0,0,1-.884,1.442A5.2,5.2,0,0,0,285.26,54.5a5.2,5.2,0,0,0,1.352,3.016,5.7,5.7,0,0,1,.884,1.442,6.033,6.033,0,0,1,.135,1.776,5.177,5.177,0,0,0,.635,3.168,5.027,5.027,0,0,0,2.788,1.6,5.7,5.7,0,0,1,1.6.668,5.764,5.764,0,0,1,1.1,1.326,5.09,5.09,0,0,0,2.379,2.219,2.881,2.881,0,0,0,.905.14,6.932,6.932,0,0,0,2.22-.505,3.773,3.773,0,0,1,3.48,0,6.92,6.92,0,0,0,2.22.505,2.891,2.891,0,0,0,.905-0.14,5.083,5.083,0,0,0,2.378-2.219,5.765,5.765,0,0,1,1.1-1.326,5.7,5.7,0,0,1,1.6-.668,5.021,5.021,0,0,0,2.787-1.6,5.171,5.171,0,0,0,.636-3.168,6.037,6.037,0,0,1,.134-1.776,5.679,5.679,0,0,1,.885-1.442,5.205,5.205,0,0,0,1.351-3.016,5.206,5.206,0,0,0-1.351-3.016A5.682,5.682,0,0,1,314.5,50.042Zm-0.5,6.41a6.971,6.971,0,0,0-1.15,1.961,7.342,7.342,0,0,0-.219,2.346,3.891,3.891,0,0,1-.3,2.1,3.764,3.764,0,0,1-1.893.951,5.211,5.211,0,0,0-3.615,2.669,3.816,3.816,0,0,1-1.492,1.552,1.155,1.155,0,0,1-.367.053,5.685,5.685,0,0,1-1.66-.411,5.349,5.349,0,0,0-4.6,0,5.685,5.685,0,0,1-1.66.411,1.162,1.162,0,0,1-.368-0.053,3.82,3.82,0,0,1-1.491-1.552,5.208,5.208,0,0,0-3.615-2.669,3.762,3.762,0,0,1-1.893-.951,3.891,3.891,0,0,1-.3-2.1,7.343,7.343,0,0,0-.219-2.346A6.977,6.977,0,0,0,288,56.452a3.881,3.881,0,0,1-1-1.951,3.879,3.879,0,0,1,1-1.952,6.951,6.951,0,0,0,1.151-1.961,7.344,7.344,0,0,0,.219-2.346,3.89,3.89,0,0,1,.3-2.1,3.767,3.767,0,0,1,1.893-.951,6.976,6.976,0,0,0,2.114-.927,7.037,7.037,0,0,0,1.5-1.741,3.815,3.815,0,0,1,1.492-1.551,1.155,1.155,0,0,1,.367-0.053,5.682,5.682,0,0,1,1.66.411,5.35,5.35,0,0,0,4.6,0,5.682,5.682,0,0,1,1.66-.411,1.155,1.155,0,0,1,.367.053,3.815,3.815,0,0,1,1.492,1.551,7.037,7.037,0,0,0,1.5,1.741,6.984,6.984,0,0,0,2.114.927,3.771,3.771,0,0,1,1.894.951,3.9,3.9,0,0,1,.3,2.1,7.344,7.344,0,0,0,.219,2.346A7,7,0,0,0,314,52.549a3.874,3.874,0,0,1,1,1.952A3.876,3.876,0,0,1,314,56.452Z" transform="translate(-281 -35)"/>
</svg>
