<svg xmlns="http://www.w3.org/2000/svg" width="69.031" height="68.969" viewBox="0 0 69.031 68.969">
  <defs>
    <style>
      .cls-1 {
        fill: #fa5e31;
        fill-rule: evenodd;
      }
    </style>
  </defs>
  <path id="_5" data-name="5" class="cls-1" d="M412.526,27.975l1.26-1.156a0.427,0.427,0,0,1,.6.026,0.421,0.421,0,0,1-.026.6l-1.233,1.132-51.14,46.894,1.477,1.471s0,0,0-.007L413.23,28.673l1.218-1.181a0.426,0.426,0,0,1,.6.008,0.419,0.419,0,0,1-.007.6l-1.209,1.173L364.062,77.536l1.619,1.612L414.064,29.5l1.175-1.206a0.425,0.425,0,0,1,.6-0.008,0.42,0.42,0,0,1,.01.6L414.665,30.1,366.286,79.74l-0.007,0,1.2,1.195L395.6,50.859a79.519,79.519,0,0,1,6.9-7.383l12.339-13.2,1.144-1.225a0.424,0.424,0,0,1,.622.576l-1.166,1.247-0.455.488c0.169-.145.336-0.293,0.5-0.437L415.7,31.13a1.485,1.485,0,0,0,2.1,0l0.3-.3a1.471,1.471,0,0,0,0-2.087l-0.046-.046,3.49,3.476a0.846,0.846,0,0,0,1.2-1.193l-3.426-3.411a40.634,40.634,0,0,0,3-2.977l-0.566-2.949L418.6,20.9c-1.072.97-2.055,1.967-3,2.972l-3.65-3.636a0.85,0.85,0,0,0-1.2,0,0.841,0.841,0,0,0,0,1.193l3.693,3.679-0.25-.25a1.486,1.486,0,0,0-2.1,0l-0.3.3a1.471,1.471,0,0,0,0,2.087l0.409,0.407c-0.88,1.022-1.76,2.038-2.65,3.042Zm-55.3,57.745,0-.008a0.61,0.61,0,0,1-.062-0.054C357.14,85.636,357.18,85.677,357.227,85.72Zm0.044,0.035c0.036,0.036.067,0.076,0.1,0.11s0-.008-0.022-0.038c6.494,6.154,19.649,2.7,27.2-4.823,3.973-3.956,5.7-9.225,6.809-14.583,0.794-3.839.639-8.331,2.132-12.075L368.087,81.522a0.383,0.383,0,0,1-.092.041,1.45,1.45,0,0,1-.219,1.76l-0.3.3a1.486,1.486,0,0,1-2.1,0l-6.288-6.263a1.472,1.472,0,0,1,0-2.088l0.3-.3a1.473,1.473,0,0,1,1.974-.081l27.708-25.409c-3.83,1.66-8.51,1.444-12.5,2.262-5.379,1.1-10.656,2.811-14.628,6.769-7.56,7.53-10.939,20.743-4.72,27.2C357.239,85.727,357.256,85.74,357.271,85.755Zm29.355-21.189a2.429,2.429,0,0,1,.419-0.742,2.235,2.235,0,0,1,1.216-.764,1.582,1.582,0,0,1,.961.018,3.42,3.42,0,0,1,.317.137s-0.1.081-.283,0.194a1.993,1.993,0,0,0-.538.5,2.427,2.427,0,0,0-.242.343c-0.085.109-.112,0.267-0.185,0.379a2.686,2.686,0,0,0-.141.807,2.13,2.13,0,0,0,.053.448,2.645,2.645,0,0,0,.09.359c0.071,0.112.1,0.267,0.185,0.377a2.172,2.172,0,0,0,.242.343,2.531,2.531,0,0,0,.542.5c0.176,0.125.278,0.2,0.278,0.2a2.06,2.06,0,0,1-.322.137,1.65,1.65,0,0,1-.955.018,2.231,2.231,0,0,1-1.217-.763,2.292,2.292,0,0,1-.428-0.786,3.253,3.253,0,0,1-.157-0.832A3.143,3.143,0,0,1,386.626,64.566ZM375.678,54.317A2.049,2.049,0,0,1,375.815,54l0.2,0.277a2.569,2.569,0,0,0,.5.539,2.222,2.222,0,0,0,.344.241c0.11,0.085.268,0.113,0.379,0.184a2.6,2.6,0,0,0,.359.09,2.191,2.191,0,0,0,.536.058c-0.038-.029.23,0.008,0.322-0.046a2.594,2.594,0,0,0,.4-0.1,4.216,4.216,0,0,0,.38-0.184,2.36,2.36,0,0,0,.344-0.241,2.016,2.016,0,0,0,.5-0.535c0.115-.18.2-0.282,0.2-0.282s0.059,0.116.137,0.315a1.55,1.55,0,0,1,.017.957,2.211,2.211,0,0,1-.766,1.212,2.475,2.475,0,0,1-.745.417,2.9,2.9,0,0,1-.964.163,3.621,3.621,0,0,1-.751-0.152,2.344,2.344,0,0,1-.789-0.427,2.218,2.218,0,0,1-.766-1.212A1.669,1.669,0,0,1,375.678,54.317Z" transform="translate(-353.969 -20)"/>
</svg>
