<svg xmlns="http://www.w3.org/2000/svg" width="39" height="55" viewBox="0 0 39 55">
  <defs>
    <style>
      .cls-1 {
        fill: #fb5e31;
        fill-rule: evenodd;
      }
    </style>
  </defs>
  <path id="_2" data-name="2" class="cls-1" d="M168.832,413.768a2.833,2.833,0,0,0-1.231,3.781c0.245,1.323.522,2.822-.326,3.963a3.841,3.841,0,0,1-2.411,1.32v19.5a1.059,1.059,0,0,1-.383.812,1.1,1.1,0,0,1-.879.242q-2.6-.4-5.216-0.629v3.179a1.063,1.063,0,0,1-.548.926,1.111,1.111,0,0,1-1.094,0l-5.059-2.9-5.458,2.914a1.108,1.108,0,0,1-1.079-.019,1.063,1.063,0,0,1-.535-0.918v-3.179q-2.613.228-5.215,0.629a1.1,1.1,0,0,1-.879-0.243,1.057,1.057,0,0,1-.383-0.812v-19.5a3.853,3.853,0,0,1-2.412-1.32c-0.848-1.141-.57-2.64-0.326-3.963a2.831,2.831,0,0,0-1.231-3.781c-1.016-.945-2.167-2.015-2.167-3.479s1.151-2.535,2.167-3.479a2.832,2.832,0,0,0,1.231-3.781c-0.245-1.323-.522-2.822.326-3.963s2.406-1.355,3.774-1.535A5.619,5.619,0,0,0,141.64,397a5.368,5.368,0,0,0,1.153-1.808c0.6-1.229,1.279-2.622,2.679-3.067,1.349-.429,2.707.286,3.905,0.917a5.7,5.7,0,0,0,2.122.823,5.7,5.7,0,0,0,2.122-.823c1.2-.631,2.555-1.346,3.905-0.917,1.4,0.445,2.08,1.838,2.68,3.067A5.367,5.367,0,0,0,161.358,397a5.624,5.624,0,0,0,2.142.528c1.369,0.18,2.92.384,3.775,1.535s0.57,2.64.325,3.963a2.834,2.834,0,0,0,1.231,3.781c1.016,0.945,2.168,2.015,2.169,3.479S169.848,412.823,168.832,413.768Zm-10.447,26.841q2.153,0.183,4.3.478V423.163a3.417,3.417,0,0,0-1.323.411,5.372,5.372,0,0,0-1.151,1.807A6.924,6.924,0,0,1,158.385,428v12.607Zm-11.59,3.524,4.386-2.343a1.114,1.114,0,0,1,1.074.016l3.949,2.263V428.544a8.253,8.253,0,0,1-2.583-1.012,5.72,5.72,0,0,0-2.122-.823,5.707,5.707,0,0,0-2.122.824,8.316,8.316,0,0,1-2.582,1.012v15.588Zm-6.478-3.046q2.144-.3,4.3-0.478V428a6.919,6.919,0,0,1-1.821-2.621,5.378,5.378,0,0,0-1.152-1.808,3.412,3.412,0,0,0-1.323-.411v17.924Zm27.012-32.727a4.734,4.734,0,0,1-1.876-5.711c0.167-.9.356-1.924,0.057-2.326s-1.365-.551-2.3-0.674a6.882,6.882,0,0,1-3.136-.918,6.59,6.59,0,0,1-1.837-2.615c-0.41-.841-0.875-1.794-1.385-1.956a4.191,4.191,0,0,0-2.2.766,5.155,5.155,0,0,1-6.312,0,4.188,4.188,0,0,0-2.2-.766c-0.508.162-.974,1.115-1.384,1.956a6.6,6.6,0,0,1-1.836,2.614,6.89,6.89,0,0,1-3.137.919c-0.935.123-1.994,0.262-2.3,0.674s-0.11,1.424.057,2.325a6.592,6.592,0,0,1,.074,3.225,6.52,6.52,0,0,1-1.95,2.486c-0.7.649-1.488,1.384-1.488,1.93s0.791,1.281,1.488,1.93a6.511,6.511,0,0,1,1.95,2.486,6.592,6.592,0,0,1-.074,3.225c-0.167.9-.356,1.923-0.057,2.325a3.48,3.48,0,0,0,1.892.62l0.407,0.055a6.89,6.89,0,0,1,3.138.918,6.582,6.582,0,0,1,1.835,2.613,4.288,4.288,0,0,0,1.348,1.943l0.032,0.013h0.005a4.176,4.176,0,0,0,2.2-.766,5.157,5.157,0,0,1,6.312,0,4.191,4.191,0,0,0,2.2.766l0.006,0,0.032-.013a4.278,4.278,0,0,0,1.348-1.942,6.587,6.587,0,0,1,1.836-2.612,6.889,6.889,0,0,1,3.137-.918l0.408-.055a3.483,3.483,0,0,0,1.892-.62c0.3-.4.109-1.424-0.058-2.325a4.736,4.736,0,0,1,1.876-5.711c0.7-.649,1.488-1.383,1.488-1.93S168.027,409.008,167.329,408.36ZM151.5,422.371a12.085,12.085,0,1,1,12.341-12.082A12.227,12.227,0,0,1,151.5,422.371Zm0-22.028a9.948,9.948,0,1,0,10.159,9.946A10.066,10.066,0,0,0,151.5,400.343ZM151,410.61c0.856-.591,2.064-1.169,2.064-2.352a1.4,1.4,0,0,0-1.474-1.485c-1.18,0-1.559,1.2-1.559,2.214h-1.91c-0.071-2.2,1.207-3.892,3.567-3.892a3.1,3.1,0,0,1,3.37,3.012c0,2.916-3.159,3.15-4.592,5.131h4.649v1.678H147.9C147.9,412.674,149.3,411.752,151,410.61Z" transform="translate(-132 -392)"/>
</svg>
