<svg xmlns="http://www.w3.org/2000/svg" width="64" height="64" viewBox="0 0 64 64">
  <defs>
    <style>
      .cls-1 {
        fill: #fb5e31;
        fill-rule: evenodd;
      }
    </style>
  </defs>
  <path id="Forma_1" data-name="Forma 1" class="cls-1" d="M265.146,205.854a0.5,0.5,0,0,0,.707-0.707l-12-12a0.5,0.5,0,0,0-.707.707Zm-8,0a0.5,0.5,0,0,0,.707-0.707l-4-4a0.5,0.5,0,0,0-.707.707Zm4,0a0.5,0.5,0,0,0,.707-0.707l-8-8a0.5,0.5,0,0,0-.707.707ZM292,180h10a1,1,0,0,0,1-1v-2a1,1,0,0,0-1-1H292a1,1,0,0,0-1,1v2a1,1,0,0,0,1,1h0Zm7-15a1,1,0,1,1,1-1,1,1,0,0,1-1,1h0Zm0-3a2,2,0,1,0,2,2,2,2,0,0,0-2-2h0Zm-10,0a2,2,0,1,0,2,2,2,2,0,0,0-2-2h0Zm-6,0a2,2,0,1,0,2,2,2,2,0,0,0-2-2h0Zm-6,0a2,2,0,1,0,2,2,2,2,0,0,0-2-2h0Zm-6,0a2,2,0,1,0,2,2,2,2,0,0,0-2-2h0Zm-9,0h2v4h-2v-4Zm-1,5h4v-6h-4v6Zm-5-5h2v4h-2v-4Zm-1,5h4v-6h-4v6Zm50,3H251V159a1,1,0,0,1,1-1h52a1,1,0,0,1,1,1v11h0Zm-1-13H252a2,2,0,0,0-2,2v12h56V159a2,2,0,0,0-2-2h0Zm-53,17h54v33a1,1,0,0,1-1,1H252a1,1,0,0,1-1-1V174Zm-1,33a2.006,2.006,0,0,0,2,2h52a2.007,2.007,0,0,0,2-2V173H250v34Zm58,1a3,3,0,0,1-3,3H251a3,3,0,0,1-3-3V158a3,3,0,0,1,3-3h54a3,3,0,0,1,3,3v50h0Zm-30-57a23.65,23.65,0,0,1,8.989,2H269.011A23.654,23.654,0,0,1,278,151h0Zm27,2H291.591c-4.125-2.239-8.73-4-13.591-4s-9.466,1.762-13.592,4H251a5.015,5.015,0,0,0-5,5v50a5.015,5.015,0,0,0,5,5h54a5.015,5.015,0,0,0,5-5V158a5.015,5.015,0,0,0-5-5h0Z" transform="translate(-246 -149)"/>
</svg>
