<svg xmlns="http://www.w3.org/2000/svg" width="79" height="70.031" viewBox="0 0 79 70.031">
  <defs>
    <style>
      .cls-1 {
        fill: #fb5e31;
        fill-rule: evenodd;
      }
    </style>
  </defs>
  <path id="Forma_1" data-name="Forma 1" class="cls-1" d="M704.79,193.251a13.236,13.236,0,1,1-6.418-3.965,1.072,1.072,0,0,1-.557,2.07,11.181,11.181,0,1,0,5.385,3.327A1.07,1.07,0,1,1,704.79,193.251ZM740,174.6c0,1.5-2,2.112-3.5,2.438a31.1,31.1,0,0,1-5.583.586v32.844l6.675,6.695a1.07,1.07,0,1,1-1.511,1.516l-2.95-2.958-2.8,1.406a1.059,1.059,0,0,1-.956,0l-2.805-1.406-0.278.279,1.16,1.163a1.071,1.071,0,1,1-1.512,1.516l-1.16-1.164-1.16,1.164a1.07,1.07,0,0,1-1.511-1.516l1.16-1.163-0.278-.279-2.8,1.406a1.059,1.059,0,0,1-.956,0l-2.805-1.406-2.95,2.958a1.743,1.743,0,0,0-2.84.314,1.071,1.071,0,0,1-1.069-1.072v-7.556a16.761,16.761,0,0,1-29.311,0v7.556a1.069,1.069,0,1,1-2.137,0V206.73H670.13v3.741l3.194,3.2,0,0,3.478,3.488a1.07,1.07,0,1,1-1.511,1.516l-2.949-2.958-2.806,1.406a1.057,1.057,0,0,1-.955,0l-2.806-1.406-2.95,2.958a1.07,1.07,0,0,1-1.511-1.516l3.479-3.489h0l3.2-3.206V206.73h-2.077a1.069,1.069,0,0,1-1.069-1.071V186.067A1.069,1.069,0,0,1,665.916,185h2.077V163.129l-5.381,3.153a1.071,1.071,0,0,1-1.078-1.851l11.2-6.562c-3.979-1.608-6.9-3.766-6.4-6.048,0.238-1.085,1.344-2.443,5.261-2.756a33.635,33.635,0,0,1,9.5.862c6.589,1.455,13.342,4.56,12.6,7.938-0.445,2.029-3.3,2.829-6.943,2.829a37.507,37.507,0,0,1-7.816-.935c-1.2-.265-2.4-0.585-3.568-0.951l-5.236,3.068V185h13.287a1.069,1.069,0,0,1,1.068,1.071v2.885q0.3-.238.612-0.463v-3.654h-9.672a1.071,1.071,0,0,1-1.069-1.072V168.154a1.071,1.071,0,0,1,1.069-1.072h17.5A1.071,1.071,0,0,1,694,168.154v15.609a1.071,1.071,0,0,1-1.069,1.072h-5.692v2.337a16.732,16.732,0,0,1,15.334,0v-2.337h-5.935a1.071,1.071,0,0,1-1.069-1.072V168.154a1.071,1.071,0,0,1,1.069-1.072h17.5a1.071,1.071,0,0,1,1.069,1.072v15.609a1.071,1.071,0,0,1-1.069,1.072h-9.429v3.654a16.931,16.931,0,0,1,3.1,2.905v-5.345a1.069,1.069,0,0,1,1.069-1.071h9.751V165.745a63.414,63.414,0,0,1-7.727-.508,16.658,16.658,0,0,1-2.81-.592c-0.418-.139-1.693-0.563-1.693-1.687s1.275-1.548,1.693-1.687a16.658,16.658,0,0,1,2.81-.592,63.414,63.414,0,0,1,7.727-.508V157.9a1.069,1.069,0,1,1,2.138,0v2.275a63.636,63.636,0,0,1,7.727.507,16.822,16.822,0,0,1,2.809.592c0.419,0.139,1.693.563,1.693,1.687s-1.274,1.548-1.693,1.688a16.736,16.736,0,0,1-2.809.591,63.414,63.414,0,0,1-7.727.508v3.9a8.391,8.391,0,0,1,2.425-.84,31.086,31.086,0,0,1,5.583-.586v-0.061a1.069,1.069,0,1,1,2.137,0v0.061a31.1,31.1,0,0,1,5.583.586c1.5,0.326,3.5.933,3.5,2.439a1.881,1.881,0,0,1-1.091,1.6A2.3,2.3,0,0,1,740,174.6Zm-42.3-5.377v1.389h15.363v-1.389H697.7Zm4.866,13.465v-6.714a1.07,1.07,0,0,1,1.058-1.072l1.99-.018h0.01a1.072,1.072,0,0,1,.01,2.143l-0.931.009v5.652h8.36v-9.932h-1.356v6.917a1.069,1.069,0,1,1-2.138,0v-6.917H701.2v6.9a1.069,1.069,0,1,1-2.137,0v-6.9H697.7v9.932h4.866Zm-26.074-13.465v1.389h15.363v-1.389H676.494Zm8.6,13.465v-5.652l-0.93-.009a1.072,1.072,0,0,1,.009-2.143h0.01l1.99,0.018a1.071,1.071,0,0,1,1.059,1.072v6.714h4.623v-9.932H690.5v6.916a1.069,1.069,0,1,1-2.137,0v-6.916h-8.375v6.9a1.069,1.069,0,1,1-2.138,0v-6.9h-1.356v9.932h8.6Zm-9.978-26.22,4.356-2.553a1.071,1.071,0,0,1,1.079,1.851l-2.633,1.542q0.725,0.188,1.474.355a31.533,31.533,0,0,0,8.869.819c2.58-.207,3.3-0.866,3.343-1.081s-0.326-1.115-2.581-2.39a31.579,31.579,0,0,0-8.392-2.994,34.76,34.76,0,0,0-7.3-.878c-0.55,0-1.076.02-1.573,0.059-2.58.206-3.3,0.866-3.343,1.081s0.326,1.115,2.581,2.389A25.074,25.074,0,0,0,675.118,156.471Zm-4.367,57.655-1.69-1.695-1.69,1.695,1.69,0.848Zm51.625-42.887a10.924,10.924,0,0,0,1.589.413,1.036,1.036,0,0,1,.157.03,36.435,36.435,0,0,0,11.43,0,1.139,1.139,0,0,1,.176-0.033,10.977,10.977,0,0,0,1.582-.412A31.6,31.6,0,0,0,722.376,171.239Zm-1.609,1.6v0.015l0.011-.008A0.041,0.041,0,0,1,720.767,172.838Zm-1.069-9.23a56.823,56.823,0,0,0,9.469-.65,69.3,69.3,0,0,0-18.938,0A56.823,56.823,0,0,0,719.7,163.608Zm-9.752,23.513v1.466a1.084,1.084,0,0,1,.207-0.02H712.2a0.965,0.965,0,0,1,.35,0h6.082v-1.446h-8.683Zm11.87,6.68V190.71h-1.049v4.574h4.543V190.69a1.074,1.074,0,0,1-.206.02h-1.15V193.8A1.069,1.069,0,1,1,721.816,193.8Zm3.494-6.68h-4.543v1.446H725.1a1.084,1.084,0,0,1,.207.02v-1.466h0Zm-15.364,7.559c0.1,0.2.195,0.4,0.286,0.6h8.4V190.71H713.44v3.075a1.069,1.069,0,1,1-2.137,0V190.71h-1.15a1.084,1.084,0,0,1-.207-0.02v3.99h0Zm-28.955-4.016v2.064a16.8,16.8,0,0,1,1.357-1.748v-0.316h-1.357Zm-10.861-3.525v1.381h12.218v-1.381H670.13Zm-3.146,0v1.381h1.008v-1.381h-1.008Zm1.009,17.448V190.664h-1.009v13.923h1.009Zm10.115,0v-2.433a16.814,16.814,0,0,1,.746-4.968v-6.522H670.13v13.923h7.978Zm31.448-2.433a14.656,14.656,0,1,0-14.655,14.7A14.693,14.693,0,0,0,709.556,202.154Zm9.073,8.317V197.428H711.02a16.837,16.837,0,0,1,.673,4.726v15.44a1.082,1.082,0,0,1,.261-0.428Zm2.759,3.655-1.69-1.695-1.69,1.695,1.69,0.848Zm3.383,0.361,0.807-.81h0l3.2-3.2V177.627a31.086,31.086,0,0,1-5.583-.586,8.419,8.419,0,0,1-2.425-.839v8.776h5.612a1.069,1.069,0,0,1,1.068,1.071v10.307a1.07,1.07,0,0,1-1.068,1.072h-5.612v13.043Zm6.763-.361-1.691-1.695-1.69,1.695,1.69,0.848Zm6.027-39.622a5.053,5.053,0,0,0-1.739-.694,38.42,38.42,0,0,1-11.957,0,5.035,5.035,0,0,0-1.739.694A30.486,30.486,0,0,0,737.561,174.5ZM694.9,199.33a6.329,6.329,0,1,1-6.31,6.329A6.327,6.327,0,0,1,694.9,199.33Zm0,2.144a4.185,4.185,0,1,0,4.173,4.185A4.183,4.183,0,0,0,694.9,201.474Z" transform="translate(-661 -148.969)"/>
</svg>
