<svg xmlns="http://www.w3.org/2000/svg" width="46" height="35" viewBox="0 0 46 35">
  <defs>
    <style>
      .cls-1 {
        fill: #fb5e31;
        fill-rule: evenodd;
      }
    </style>
  </defs>
  <path id="Forma_1" data-name="Forma 1" class="cls-1" d="M527.367,226.105a4.8,4.8,0,1,1-9.6,0H506.912a4.8,4.8,0,1,1-9.6,0h-8.177v-1.954h8.577a4.765,4.765,0,0,1,8.8,0h7.619v-21.74h8.885L531,212.233v13.872h-3.633Zm-25.257-2.941A2.942,2.942,0,1,0,505,226.105,2.917,2.917,0,0,0,502.11,223.164Zm20.456,5.882a2.942,2.942,0,1,0-2.885-2.941A2.917,2.917,0,0,0,522.566,229.046Zm6.517-16.109-6.968-8.572h-6.067v19.786h2.116a4.765,4.765,0,0,1,8.8,0h2.116V212.937Zm-11.563-6.478h4.214l5.235,6.645H517.52v-6.645Zm1.917,4.691h3.535l-2.157-2.737h-1.378v2.737Zm-28.9,2.159A9,9,0,0,1,493.8,196a8.722,8.722,0,0,1,6.8,3.28h11.658v21.165h-21.72v-7.136Zm3.263-15.355a7.021,7.021,0,1,0,6.887,7.02A6.962,6.962,0,0,0,493.8,197.954Zm-1.347,20.537h17.888V201.233h-8.539a9.082,9.082,0,0,1,.8,3.741,8.9,8.9,0,0,1-8.8,8.974,8.682,8.682,0,0,1-1.347-.105v4.648Zm0.389-12.956v-6.1h1.916v4.974l2.506,1.487-0.965,1.689Z" transform="translate(-485 -196)"/>
</svg>
