<svg xmlns="http://www.w3.org/2000/svg" width="45" height="34" viewBox="0 0 45 34">
  <defs>
    <style>
      .cls-1 {
        fill: #fb5e31;
        fill-rule: evenodd;
      }
    </style>
  </defs>
  <path id="Forma_1" data-name="Forma 1" class="cls-1" d="M409.446,277.245a4.7,4.7,0,1,1-9.394,0H389.436a4.7,4.7,0,1,1-9.395,0h-8v-1.9h8.391a4.673,4.673,0,0,1,8.611,0H396.5V254.228h8.692L413,263.77v13.475h-3.554Zm-24.708-2.857a2.857,2.857,0,1,0,2.823,2.857A2.844,2.844,0,0,0,384.738,274.388Zm20.011,5.714a2.857,2.857,0,1,0-2.822-2.857A2.843,2.843,0,0,0,404.749,280.1Zm6.376-15.648-6.817-8.328h-5.935v19.221h2.07a4.673,4.673,0,0,1,8.612,0h2.07V264.454Zm-11.312-6.294h4.123l5.12,6.455h-9.243V258.16Zm1.875,4.557h3.458l-2.109-2.659h-1.349v2.659Zm-28.268,2.1A8.734,8.734,0,0,1,376.613,248a8.557,8.557,0,0,1,6.651,3.186h11.4v20.56H373.42v-6.932Zm3.193-14.916a6.82,6.82,0,1,0,6.737,6.82A6.787,6.787,0,0,0,376.613,249.9Zm-1.318,19.95h17.5V253.084H384.44a8.733,8.733,0,0,1-7.827,12.351,8.555,8.555,0,0,1-1.318-.1v4.515Zm0.38-12.585v-5.922h1.875v4.831L380,257.618l-0.944,1.64Z" transform="translate(-368 -248)"/>
</svg>
