<svg xmlns="http://www.w3.org/2000/svg" width="114" height="126" viewBox="0 0 114 126">
  <defs>
    <style>
      .cls-1 {
        fill: #fb693f;
        fill-rule: evenodd;
      }
    </style>
  </defs>
  <path id="my_vector_mask_shape" class="cls-1" d="M226.057,231a1.77,1.77,0,0,1,1.273.254c1.392,0.7,1.661,4.148,1.273,6.488-0.676,4.081-4.751,13.4-.891,15.774,1.4,0.864,3.466,1.076,5.6,1.145a25.291,25.291,0,0,0,5.6-.255c12.4-2.639-2.74-16.031,3.819-23.406h1.145q0.382,0.508.764,1.018-0.063.89-.127,1.781a5.1,5.1,0,0,0-2.037.89c-2.16,7.548,5.578,10.286,4.2,18.064a6.473,6.473,0,0,1-4.328,5.342c-1.221.4-2.847-.555-3.437,0.382-0.566.9,0.45,1.445,0.763,1.908h-9.42c0.042-.127.085-0.254,0.127-0.382l0.764-.636-0.382-1.144c-1.935-.432-3.753-0.066-5.347-1.273-4.868-3.685-.406-11.66,1.273-15.137,1.25-2.588,2.248-7.18-1.273-8.014v-1.781Zm5.219,6.233h0.382c0.17,0.17.34,0.339,0.509,0.509-0.916,3.562.976,10.948-.381,13.611l-0.764-.254C230.992,247.832,230.183,239.646,231.276,237.237Zm3.438,0H235.1l0.382,0.255c0.038,2.282.406,13.167-.509,13.865l-0.382-.127C234.057,249.284,234,238.791,234.714,237.237Zm3.437,0h0.382l0.382,0.255c0.029,3.27.838,11.457-.255,13.865L237.9,251.1q-0.063-6.678-.127-13.357Zm-45.829,38.417-1.783-.127q0.065-1.082.128-2.163c4.71-.128,13.134-0.99,12.093,4.453q-0.636,1.272-1.273,2.544c1.907,0.828,2.564,4.072,1.146,5.979s-8.51,2.7-12.094,1.653q0.065-1.082.128-2.162l1.655-.127v-10.05Zm19.6,0a4.183,4.183,0,0,0-1.909.255c-0.084,4.118-.247,7.739,1.655,9.8,4.51,0.535,4.837-1.358,4.837-5.725q-0.063-2.161-.127-4.325h-1.655a4.253,4.253,0,0,1,.255-2.29c3.018,0.7,6.1-1.627,5.983,2.29l-1.782.127c0.14,6.544.647,11.884-5.347,12.467a7.868,7.868,0,0,1-4.329-.891c-3.184-2.192-1.058-7.293-2.164-11.7h-1.655q0.065-1.144.128-2.29C208.852,274.074,212.04,271.724,211.926,275.654Zm19.732,3.689v2.417l-4.073.127q0.063,1.973.127,3.944a2.342,2.342,0,0,1,1.655.254v2.036l-6.238-.128v-2.162h1.782V275.654h-1.782q0.063-1.144.127-2.29c2.728-.03,9.213-0.651,11.2.255l0.891,3.053-2.419.763q-0.381-.764-0.764-1.526h-4.582q0.063,1.716.127,3.434h3.946Zm9.93,0,4.074,0.127V279.6q-0.065,1.08-.128,2.162h-3.946q0.063,2.036.127,4.071l1.655,0.127q-0.063,1.081-.127,2.163c-1.619.046-5.355,0.472-6.238-.382v-1.654l0.127-.254,1.783-.127q-0.064-5.025-.128-10.05a2.923,2.923,0,0,1-1.782-.254v-1.781l0.127-.255c2.728-.03,9.213-0.651,11.2.255,0.238,1.115,1.04,2.39.764,3.18l-2.292.636q-0.381-.826-0.764-1.654l-4.455.128v3.434Zm9.42-5.979h11.076c0.436,0.9,1.2,2.441,1.018,3.435l-2.291.636q-0.319-.826-0.637-1.654l-4.71.128q0.063,1.716.127,3.434l3.947,0.127q-0.065,1.081-.128,2.163l-3.946.127q0.063,1.971.127,3.944c1.649,0.034,4.274.3,5.474-.255v-1.526l2.164,0.127q-0.063,2.035-.127,4.071l-12.094-.128v-2.162h1.783V275.654a3.241,3.241,0,0,1-1.91-.254Q250.944,274.382,251.008,273.364Zm17.823,12.467,1.909-.127q-0.063-4.962-.127-9.923a8.065,8.065,0,0,0-3.055.255q-0.319.7-.637,1.4a5.062,5.062,0,0,1-2.291-1.018q0.509-1.462,1.018-2.926l12.6-.127c0.308,1.1,1.236,2.581.891,3.435l-2.291.636a3.2,3.2,0,0,0-.764-1.654l-2.8.128q0.065,4.961.128,9.922a2.923,2.923,0,0,1,1.782.254q-0.065,1.019-.127,2.036l-6.238-.128v-2.162ZM195,275.781c-0.045.963-.23,2.92,0.255,3.435,1.448,0.641,3.9-.111,4.71-0.636q0.127-.763.254-1.527a2.183,2.183,0,0,0-1.018-1.017Zm0.127,5.852V285.7c3.242,0.17,6.278.117,5.347-3.181C199.187,281.646,197.433,281.6,195.122,281.633ZM183.41,294.481c1.832,0.038,4.724.735,4.583,0.509l0.128-.255,2.291,0.128q-0.063,2.416-.127,4.833h-2.419c-1.51-5.76-8.537-2.4-7.129,3.944,0.521,2.35,2.994,4.916,5.729,2.926,0.914-.666,1.077-1.92,1.782-2.8l2.419,0.509V304.4c-1.447,4.338-7.139,7.682-10.948,3.18-2.547-3.009-2.246-9.6.763-11.83Zm83,0c10.649-.3,10.785,13.557,2.291,15.138-5.6,1.042-9.485-4.711-7.765-10.177C261.887,296.427,263.688,295.776,266.412,294.481Zm-73.581.254c3.641-.108,10.67-0.844,12.6,1.018,2.36,2.274.828,6.446-2.037,7l3.183,4.326c0.495,0.232.935,0.017,1.273,0.254v1.908H207.6l-2.673.127q-2.419-3.052-4.838-6.106h-2.8q0.065,1.908.128,3.817L199.2,307.2q-0.065,1.082-.127,2.162l-6.238-.127v-2.162h1.782c0.042-.128.085-0.255,0.127-0.382q-0.063-4.833-.127-9.668l-1.782-.127v-2.163Zm31.062,12.34q-0.065,1.145-.128,2.289l-4.455-.127a5.755,5.755,0,0,1,.509-2.671,5.428,5.428,0,0,0-1.018-1.527c-1.193.272-3.884-.221-4.456,0.382-0.833,1.353.337,2.1-.127,3.943h-4.456v-2.289l1.273-.128q2.1-6.105,4.2-12.212h2.8C218.431,296.647,222.4,307.013,223.893,307.075Zm1.909-12.34h5.347l3.31,10.559c1.2-.593,2.948-8.806,3.819-10.559H243.5q-0.063,1.146-.127,2.29h-1.655q0.065,5.025.128,10.05H243.5v2.289H237.26v-2.289l1.909-.128c0.049-1.413.517-6.044-.382-6.614q-1.592,4.515-3.182,9.031l-2.164-.127c-0.212-1.252-2.646-8.575-3.31-8.9q0.063,3.37.127,6.742h1.782q-0.063,1.145-.127,2.289l-6.111-.127q0.065-1.082.128-2.162l1.655-.128c0.031-2.252.562-8.563-.255-10.049H225.8v-2.163Zm24.57,12.34,1.782,0.127q-0.063,1.082-.127,2.162l-6.238-.127q0.063-1.082.127-2.162l1.782-.128v-9.922l-1.909-.127q0.063-1.082.127-2.163c4.958-.105,11.6-0.9,12.985,2.672a5.081,5.081,0,0,1-.255,3.562c-1.509,3.447-4.346,1.684-8.274,2.8v3.308Zm26.224-12.34h4.329l6.237,9.541,0.51-.127q-0.065-3.562-.128-7.124l-1.909-.127q0.063-1.082.127-2.163H292v2.29l-1.91.127q0.065,4.961.128,9.923h1.273q-0.065,1.145-.128,2.289h-6.11v-2.289h0.636v-0.382c-0.848-1.3-3.762-6.416-4.964-6.869q0.063,3.624.127,7.251l1.909,0.127q-0.063,1.082-.127,2.162l-6.238-.127v-2.162l1.783-.128v-9.922L276.6,296.9v-2.163Zm-9.547,2.036c-1.145.5-2.152,0.7-2.8,1.653-2.173,3.193-.757,9.973,4.455,8.778C273.5,306.1,273.453,296.59,267.049,296.771Zm-69.635.254v3.816c2.563,0.1,5.618.4,6.365-1.4a2.173,2.173,0,0,0-.509-2.035A23.378,23.378,0,0,0,197.414,297.025Zm52.958,4.2c2.406,0.093,5.1.351,5.856-1.272V298.17c-0.878-1.166-3.994-1.451-5.856-1.018v4.071Zm-35.136,1.654h3.055V302.5q-0.573-1.971-1.145-3.943h-0.637Q215.873,300.713,215.236,302.877Zm-2.419,13.229a5.225,5.225,0,0,1,3.438.764q0.126,0.827.254,1.653c-0.724,1.423-1.558,1.014-3.055,1.654v2.417h-0.509l-0.255-.127Q212.753,319.287,212.817,316.106Zm11.84,0,0.636,0.128c1.121,0.9,2.313,4.764,2.546,6.36h-0.764l-0.763-1.908h-2.547L223,322.594h-0.891Q223.383,319.351,224.657,316.106Zm9.929,0a11.216,11.216,0,0,1,3.31.382l0.637,1.018a1.789,1.789,0,0,1-1.528,2.544l0.255,0.509q0.636,1.017,1.273,2.035h-1.019a5.849,5.849,0,0,0-2.164-2.671q-0.063,1.335-.127,2.671H235.1l-0.636-.127Q234.522,319.287,234.586,316.106Zm11.967,6.488a0.907,0.907,0,0,1-.891-0.382q0.126-3.052.254-6.106l0.637,0.128v6.36Zm8.147-6.488,1.655,0.128a2.481,2.481,0,0,1,.764,1.4h-0.637l-0.763-.763a1.056,1.056,0,0,0-1.273.89q0.254,0.446.509,0.891a2.339,2.339,0,0,1,2.164,1.272,2.091,2.091,0,0,1-.255,1.908,1.614,1.614,0,0,1-1.145.89c-1.407,0-2.082-.581-2.165-1.908h0.764a1.849,1.849,0,0,0,.637,1.018l1.145-.127a1.493,1.493,0,0,0-.254-2.036,2,2,0,0,1-2.164-2.162A4.809,4.809,0,0,1,254.7,316.106Zm-19.095.764a4.347,4.347,0,0,0-.128,2.671l1.91-.254a2.243,2.243,0,0,0,.509-1.4,1.68,1.68,0,0,0-.764-0.763ZM213.581,317v2.162l1.4-.127a1.5,1.5,0,0,0,.763-0.89q-0.254-.508-0.509-1.018Zm11.33,0.509q-0.381,1.145-.764,2.289l0.128,0.128,1.655-.128v-0.127A3.737,3.737,0,0,0,224.911,317.506Zm11.2,15.773,0.764,0.128v0.127c-0.347.708-.6,0.577-0.382,1.272l1.145,0.763c2.2-1.725,5.826-1.566,7.129,1.018,0.776,1.538.591,4.715-.763,5.343a2.195,2.195,0,0,1-2.419-.128,2,2,0,0,1-.891-2.416h0.127l0.509,0.254a2.007,2.007,0,0,0,1.019,1.781l1.145-.127a0.914,0.914,0,0,0,.637-0.636c2.216-3.958-3.621-7.517-5.856-4.453a5.741,5.741,0,0,1-1.528,8.014l0.128,0.255c2.45,0.845,3.99,3.253,3.819,6.742l-0.255,2.417c5.4,1.138,6.07-2.963,3.692-6.615l-1.146-.254-0.254.254c-0.2,1.285.735,3.662-.382,3.562-0.468-1.381-1.186-3.69.382-4.452h1.4c2.045,1.416,3.153,6.907.255,8.268-1.532.719-3.621-.253-4.711,0.127-1.867,4.767-7.48,1.506-9.675-.254-7.226,2.52-7.838-7.415-3.946-8.778l1.528-.127a1.875,1.875,0,0,1,.891.891c1.044,1.891-.545,4.244-1.783,4.834l-0.381-.382c0.622-.9,2.263-2.156,1.527-3.943a1.056,1.056,0,0,0-1.527-.509c-4.6,1.979.27,11.229,3.437,7-1.15-2.973.888-3.994,2.291-5.215,0.065-5.013.471-10.012,2.546-12.976-0.042-.127-0.085-0.254-0.127-0.381-3.789-.61-8.028.854-7.129,5.088l0.255,0.382h1.273a10.834,10.834,0,0,0,.636-2.544l0.637,0.254c0.177,2.677-1.485,3.981-3.438,2.544-1.15-5.918,3.645-6.811,8.784-6.36Zm-0.764,10.559c-0.056-3.49,1.248-5.316,1.782-7.76l-1.145-.89-0.764.254c-0.935,2.1-2.905,5.189-2.037,8.65Zm2.164-6.742c-0.671,1.549-1.843,4.385-1.4,6.487h0.127c1.657-.731,3.588-4.376,1.782-6.233C237.773,337.087,237.976,337.219,237.514,337.1Zm-4.837,11.957c-0.082,2.286-1.325,3.227-1.91,4.834,2.04,2.854,6.195,2.663,8.4.255v-0.509c-2.787-1.32-3.191-5.362-3.819-8.9a3.232,3.232,0,0,0-2.291.382q-0.065,1.59-.128,3.18c2.876,0.407,2.94,3.9.891,5.216h-0.254l-0.127-.128V352.87a2.443,2.443,0,0,0,.891-3.053A2.534,2.534,0,0,0,232.677,349.053Zm3.437-4.07c0.209,3.191,1.214,6.407,3.182,7.887h0.382C240.325,349.209,239.294,345.513,236.114,344.983Zm-4.71,4.2c-0.892.865-1.195,1.7-1.146,3.561l0.509-.127a9.518,9.518,0,0,0,1.146-3.434H231.4Z" transform="translate(-178 -231)"/>
</svg>
