<svg xmlns="http://www.w3.org/2000/svg" width="58" height="58" viewBox="0 0 58 58">
  <defs>
    <style>
      .cls-1 {
        fill: #fa5e31;
        fill-rule: evenodd;
      }
    </style>
  </defs>
  <path class="cls-1" d="M93.713,402.213a0.97,0.97,0,0,1-1.373,0l-2.486-2.485a14.385,14.385,0,0,0-1.13,1.114l2.494,2.494a0.971,0.971,0,0,1-1.373,1.373l-2.362-2.363c-0.1.132-.181,0.246-0.244,0.334a1.819,1.819,0,0,1-1.136.724l-0.882.177h0a0.438,0.438,0,0,0-.235.118L65.548,424.145a16.27,16.27,0,0,1,.752,9.936,19.6,19.6,0,0,1-5.019,9.586,14.846,14.846,0,0,1-17.894,2.349l-0.921.921a0.971,0.971,0,0,1-1.373-1.373l0.651-.651c-0.239-.185-0.473-0.38-0.7-0.582l-1.07,1.07a0.971,0.971,0,1,1-1.373-1.373l1.07-1.07q-0.3-.345-0.582-0.7l-0.651.651a0.971,0.971,0,0,1-1.373-1.373l0.921-.921a14.842,14.842,0,0,1,2.349-17.895,19.611,19.611,0,0,1,9.587-5.02,16.268,16.268,0,0,1,9.938.755L80.3,399.009a0.433,0.433,0,0,0,.118-0.235l0.178-.882a1.824,1.824,0,0,1,.724-1.134c0.088-.062.2-0.145,0.334-0.244l-2.362-2.362a0.971,0.971,0,0,1,1.373-1.373l2.493,2.493a14.779,14.779,0,0,0,1.114-1.13l-2.485-2.486a0.971,0.971,0,0,1,1.373-1.373l2.246,2.246c0.02-.04.041-0.08,0.06-0.12a1.456,1.456,0,0,1,.944-0.777,1.8,1.8,0,0,1,1.477.3c0.76,0.529,1.5,1.036,1.872,1.291a4.431,4.431,0,0,1,1.019,1.019c0.319,0.467.8,1.171,1.29,1.872a1.8,1.8,0,0,1,.3,1.476,1.454,1.454,0,0,1-.777.944l-0.12.06,2.246,2.246A0.971,0.971,0,0,1,93.713,402.213ZM41.7,424.089a12.872,12.872,0,1,0,18.2,18.2c4.224-4.225,5.961-11.489,4.165-16.6l-2.309,2.429a0.977,0.977,0,0,1-.691.3H61.06a0.972,0.972,0,0,1-.687-0.285l-4.515-4.515a0.972,0.972,0,0,1,.018-1.391l2.43-2.311C53.2,418.127,45.93,419.863,41.7,424.089Zm39.5-23.26L57.936,422.958l3.107,3.107L83.166,402.8Zm7.97-5.491a2.609,2.609,0,0,0-.513-0.512c-0.34-.233-0.982-0.673-1.669-1.149a16.421,16.421,0,0,1-4.5,4.63l-0.171.85c0,0.012-.006.023-0.008,0.035l2.494,2.494,0.036-.009,0.85-.17a16.422,16.422,0,0,1,4.63-4.5C89.88,396.374,89.459,395.76,89.171,395.338Zm-33.4,37.145a3.007,3.007,0,1,1,0-4.252A2.995,2.995,0,0,1,55.767,432.483ZM54.394,429.6a1.065,1.065,0,1,0,0,1.506A1.063,1.063,0,0,0,54.394,429.6ZM52.6,439.3a0.972,0.972,0,0,1-1.373,0L44.7,432.771a0.971,0.971,0,0,1,1.373-1.373l6.526,6.526A0.972,0.972,0,0,1,52.6,439.3Z" transform="translate(-36 -390)"/>
</svg>
