<svg xmlns="http://www.w3.org/2000/svg" width="49" height="68" viewBox="0 0 49 68">
  <defs>
    <style>
      .cls-1 {
        fill: #fb5e31;
        fill-rule: evenodd;
      }
    </style>
  </defs>
  <path id="Shape_1_copy" data-name="Shape 1 copy" class="cls-1" d="M392.091,187.1h6.682v2.194h-6.682V187.1Zm0-4.387h6.682V184.9h-6.682v-2.194Zm0-4.387h6.682v2.194h-6.682v-2.194Zm0-4.387h6.682v2.194h-6.682v-2.194Zm0-4.387h6.682v2.194h-6.682v-2.194Zm0-9.871a5.569,5.569,0,0,0-11.137,0h-2.227a7.8,7.8,0,0,1,15.591,0v7.678h-2.227v-7.678Zm-25.614,23.032a14.26,14.26,0,1,1,14.477-14.258A14.385,14.385,0,0,1,366.477,182.709Zm0-26.322a12.066,12.066,0,1,0,12.25,12.064A12.172,12.172,0,0,0,366.477,156.387Zm2.227,18.645a3.32,3.32,0,0,0,3.341-3.29h2.228a5.569,5.569,0,0,1-11.137,0v-2.194a5.569,5.569,0,0,1,11.137,0h-2.228a3.341,3.341,0,0,0-6.681,0v2.194A3.32,3.32,0,0,0,368.7,175.032Zm-6.681-8.774a3.291,3.291,0,1,1,3.341-3.291A3.321,3.321,0,0,1,362.023,166.258Zm0-4.387a1.1,1.1,0,1,0,1.113,1.1A1.107,1.107,0,0,0,362.023,161.871Zm27.841,3.29v31.282a10.024,10.024,0,1,1-6.682,0V165.161h6.682Zm-11.137,40.58a7.8,7.8,0,1,0,9.744-7.425l-0.835-.212V167.355h-2.227V198.1l-0.835.212A7.691,7.691,0,0,0,378.727,205.741Zm0-12V178.322h2.227v16.665l-0.555.318a12.04,12.04,0,0,0-6.123,10.72,12.291,12.291,0,0,0,20.74,8.409,11.875,11.875,0,0,0,3.757-8.693,12.076,12.076,0,0,0-6.126-10.437l-0.556-.317v-3.5h2.227v2.257a14.256,14.256,0,0,1,6.682,12,14.038,14.038,0,0,1-4.439,10.273A14.477,14.477,0,0,1,386.528,220c-0.19,0-.381,0-0.571-0.011a14.554,14.554,0,0,1-13.907-13.915A14.206,14.206,0,0,1,378.727,193.739Z" transform="translate(-352 -152)"/>
</svg>
