<svg xmlns="http://www.w3.org/2000/svg" width="160.438" height="36.312" viewBox="0 0 160.438 36.312">
  <defs>
    <style>
      .cls-1 {
        fill: #fb5e31;
        fill-rule: evenodd;
      }
    </style>
  </defs>
  <path class="cls-1" d="M695.321,298.628l-1.14-7.041h-6.1l-1.173,7.041H682l5.531-30.258h8.194l4.992,30.258h-5.4Zm-4.144-25.616-2.255,13.531h4.443Zm-17.012,12.33h-5.8v13.286h-5.3V268.37h5.3v11.6h5.8v-11.6h5.417v30.258h-5.417V285.342Zm-20.15,6.245h-6.1l-1.174,7.041h-4.9l5.531-30.258h8.194l4.993,30.258h-5.4Zm-3-18.575-2.256,13.531H653.2ZM633.854,275.5l-3.591,20.149h-4.43l-4.049-19.829v22.809h-4.745V268.37h8.273l2.945,14.393,2.538-14.393h8.621v30.258h-5.562V275.5Zm-25.866,16.088h-6.1l-1.173,7.041H595.81l5.531-30.258h8.195l4.992,30.258h-5.4Zm-3-18.575-2.256,13.531h4.444Zm-13.531,25.616h-5.886v-11.7l-5.882-18.554h5.287l3.622,11.789,4-11.789h4.953l-6.1,17.952v12.306Zm-33.018,3.026a18.158,18.158,0,1,1,12.836-5.318A18.374,18.374,0,0,1,558.435,301.654Zm12.29-30.446a17.382,17.382,0,1,0,5.091,12.291A17.59,17.59,0,0,0,570.725,271.208Zm-12.29,27.711a15.42,15.42,0,1,1,10.9-4.516A15.606,15.606,0,0,1,558.435,298.919Zm12.543-8a0.259,0.259,0,0,0,.12-0.109,0.264,0.264,0,0,0,.035-0.16,0.275,0.275,0,0,0-.063-0.15l-2.525-2.945a0.426,0.426,0,0,0-.241-0.143,0.442,0.442,0,0,0-.277.032,1.345,1.345,0,0,1-1.518-.253,1.355,1.355,0,0,1-.379-0.712,3.414,3.414,0,0,0-1.649-2.328l-1.13-.653,6.425-3.71-0.795-1.378-7.221,4.17-0.867-.5v-1l7.22-4.17-0.794-1.376-6.426,3.71v-1.305a3.419,3.419,0,0,0-1.193-2.592,1.344,1.344,0,0,1,.112-2.127,0.439,0.439,0,0,0,.165-0.5l-1.289-3.66a0.28,0.28,0,0,0-.1-0.129,0.277,0.277,0,0,0-.154-0.05,0.273,0.273,0,0,0-.156.05,0.28,0.28,0,0,0-.1.129l-1.288,3.66a0.436,0.436,0,0,0,.164.5,1.342,1.342,0,0,1,.539,1.443,1.346,1.346,0,0,1-.427.684,3.4,3.4,0,0,0-1.192,2.592v1.3l-6.426-3.709-0.795,1.376,7.221,4.17v1l-0.868.5-7.221-4.17-0.795,1.378,6.426,3.71-1.13.653a3.406,3.406,0,0,0-1.649,2.328,1.364,1.364,0,0,1-.38.712,1.345,1.345,0,0,1-1.518.253,0.443,0.443,0,0,0-.278-0.032,0.426,0.426,0,0,0-.24.143L545.8,290.5a0.266,0.266,0,0,0-.062.15,0.265,0.265,0,0,0,.154.269,0.29,0.29,0,0,0,.162.021l3.813-.714a0.446,0.446,0,0,0,.244-0.137,0.436,0.436,0,0,0,.11-0.257,1.344,1.344,0,0,1,1.786-1.161,3.419,3.419,0,0,0,2.841-.263l1.13-.652v7.419h1.59v-8.337l0.869-.5,0.867,0.5v8.337h1.591v-7.419l1.129,0.652a3.418,3.418,0,0,0,2.841.263,1.343,1.343,0,0,1,1.786,1.161,0.436,0.436,0,0,0,.11.257,0.445,0.445,0,0,0,.245.137l3.812,0.714A0.282,0.282,0,0,0,570.978,290.92Zm-7.306-3.689a0.88,0.88,0,0,1-.66-0.087l-2.119-1.224v-1l0.867-.5,2.121,1.224a0.867,0.867,0,0,1,.317,1.185A0.873,0.873,0,0,1,563.672,287.231Zm-6.237-3.155v-1.153l1-.577,1,0.577v1.153l-1,.576Zm0.131-3.916v-2.449a0.868,0.868,0,1,1,1.736,0v2.449l-0.867.5Zm-4.37,7.071a0.868,0.868,0,0,1-.208-1.59l2.12-1.224,0.868,0.5v1l-2.12,1.224A0.879,0.879,0,0,1,553.2,287.231Z" transform="translate(-540.281 -265.344)"/>
</svg>
