<svg xmlns="http://www.w3.org/2000/svg" width="40" height="29" viewBox="0 0 40 29">
  <defs>
    <style>
      .cls-1 {
        fill: #fb5e31;
        fill-rule: evenodd;
      }
    </style>
  </defs>
  <path class="cls-1" d="M527.159,258.74a0.839,0.839,0,0,1-.842-0.833v-4.716a1.532,1.532,0,0,0-1.536-1.526h-27.7a0.833,0.833,0,1,1,0-1.666h27.7A3.209,3.209,0,0,1,528,253.191v4.716A0.838,0.838,0,0,1,527.159,258.74Zm-5.024.334V275.81a3.208,3.208,0,0,1-3.218,3.19h-27.7a3.208,3.208,0,0,1-3.22-3.19V259.074a3.209,3.209,0,0,1,3.22-3.191h27.7A3.208,3.208,0,0,1,522.135,259.074Zm-32.453,16.744a1.533,1.533,0,0,0,1.537,1.526h27.7a1.534,1.534,0,0,0,1.536-1.526V262.911H489.682v12.907Zm0-16.744v2.172h30.771v-2.172a1.533,1.533,0,0,0-1.536-1.525h-27.7A1.532,1.532,0,0,0,489.682,259.074Zm17.209,9.578h-2.082a0.833,0.833,0,1,1,0-1.666h2.082A0.833,0.833,0,1,1,506.891,268.652Zm-6.973,0h-5.67a0.833,0.833,0,1,1,0-1.666h5.67A0.833,0.833,0,1,1,499.918,268.652Zm-5.619,3.329h3.266a0.833,0.833,0,1,1,0,1.665H494.3A0.833,0.833,0,1,1,494.3,271.981Z" transform="translate(-488 -250)"/>
</svg>
