<svg xmlns="http://www.w3.org/2000/svg" width="56.031" height="48" viewBox="0 0 56.031 48">
  <defs>
    <style>
      .cls-1 {
        fill: #fa5e31;
        fill-rule: evenodd;
      }
    </style>
  </defs>
  <path class="cls-1" d="M144.053,345.29H114.4l1.965-7.109,0.554-2.031h22.721V313.417h-34.9v17.277h-4.322V313.428A4.384,4.384,0,0,1,104.748,309h34.879a4.383,4.383,0,0,1,4.333,4.428v22.438a2.534,2.534,0,0,0,.555,1.583l2.231,2.81a1.228,1.228,0,0,1,.254.732v1.287A2.978,2.978,0,0,1,144.053,345.29Zm-17.162-4.712h-9.407v0.331a1.511,1.511,0,0,0,1.49,1.523h6.415a1.511,1.511,0,0,0,1.49-1.523h0.012v-0.331Zm-14.608-6.472,0.878-3.153a1.17,1.17,0,0,1,1.121-.862h3.9a0.9,0.9,0,0,1,.89.91V331.1a0.9,0.9,0,0,1-.89.909h-3.351l-1.722,6.153-2.358,8.538a3.162,3.162,0,0,1-.543,6.2,3.153,3.153,0,0,1,.162,1.275,3.014,3.014,0,0,1-6.022-.248,3.28,3.28,0,0,1,.174-1.015h-3.525a3.009,3.009,0,0,1,.15,1.37A3.02,3.02,0,1,1,98.2,350.84H110a1.081,1.081,0,0,0,.023-2.161H95.953a2.609,2.609,0,0,1-2.531-2.019l-2.346-9.648a2.719,2.719,0,0,1,.508-2.327,2.663,2.663,0,0,1,2.069-.98h17.255A2.541,2.541,0,0,1,112.283,334.106ZM98.149,352.931a1.016,1.016,0,1,0,.994,1.015A1.012,1.012,0,0,0,98.149,352.931Zm9.222,0a1.016,1.016,0,1,0,.994,1.015A1.012,1.012,0,0,0,107.371,352.931Zm-4.183-6.307h1.421l0.451-2.1h-1.872v2.1Zm0-4.157h2.323l0.474-2.22h-2.8v2.22Zm-4.484,0h2.45v-2.22H98.241ZM95.26,335.8H93.6a0.577,0.577,0,0,0-.462.225,0.614,0.614,0,0,0-.1.507l0.4,1.665h2.323Zm0.925,4.452H93.942l0.532,2.22h2.173Zm-1.213,4.287,0.4,1.642a0.586,0.586,0,0,0,.566.448v0.012H97.49l-0.428-2.1H94.971Zm6.194-8.751H97.328l0.5,2.4h3.34v-2.4Zm0,8.739H99.143l0.428,2.1h1.595v-2.1Zm2.023-8.739v2.4h3.247l0.509-2.4h-3.756Zm3.49,10.841h1.56a0.584,0.584,0,0,0,.566-0.437l0.451-1.665h-2.126Zm0.9-4.157h2.254l0.612-2.22h-2.392ZM109,335.783l-0.509,2.4h2.52l0.451-1.63a0.571,0.571,0,0,0-.1-0.531,0.56,0.56,0,0,0-.462-0.237H109Z" transform="translate(-90.969 -309)"/>
</svg>
