<svg xmlns="http://www.w3.org/2000/svg" width="53" height="75" viewBox="0 0 53 75">
  <defs>
    <style>
      .cls-1 {
        fill: #fb5e31;
        fill-rule: evenodd;
      }
    </style>
  </defs>
  <path class="cls-1" d="M618.505,218H568.494A1.494,1.494,0,0,1,567,216.506V144.494A1.494,1.494,0,0,1,568.494,143h50.012A1.494,1.494,0,0,1,620,144.494v72.012A1.494,1.494,0,0,1,618.505,218Zm-1.494-72.012H569.988v69.024h47.023V145.988ZM580.052,205h19.275a1.494,1.494,0,1,1,0,2.988H580.052A1.494,1.494,0,0,1,580.052,205Zm4.163-13.778-0.791.79a1.494,1.494,0,0,1-2.113-2.112l0.929-.929a13.747,13.747,0,1,1,22.52,0l0.928,0.929a1.494,1.494,0,1,1-2.113,2.112l-0.79-.79A13.72,13.72,0,0,1,584.215,191.224Zm4.493-.5,0.913-2.375a8.373,8.373,0,0,1-1.5-1.026l-1.787,1.786A10.8,10.8,0,0,0,588.708,190.724Zm4.792-4.4a5.3,5.3,0,1,0-5.3-5.3A5.311,5.311,0,0,0,593.5,186.327Zm9.1,0.491a10.759,10.759,0,1,0-18.209,0l1.826-1.826a8.293,8.293,0,1,1,14.558,0Zm-4.312,3.906a10.8,10.8,0,0,0,2.378-1.615l-1.787-1.787a8.327,8.327,0,0,1-1.5,1.027Zm-3.769-1.475a7.961,7.961,0,0,1-2.046,0l-0.933,2.424a10.659,10.659,0,0,0,3.912,0Zm-3.563-9.795h5.08a1.494,1.494,0,1,1,0,2.988h-5.08A1.494,1.494,0,1,1,590.96,179.454ZM604.408,205h2.54a1.494,1.494,0,1,1,0,2.988h-2.54A1.494,1.494,0,0,1,604.408,205Zm2.54-46.614h-26.9a1.494,1.494,0,0,1,0-2.988h26.9A1.494,1.494,0,1,1,606.948,158.388Zm-8.965-5.677h-8.966a1.494,1.494,0,0,1,0-2.988h8.966A1.494,1.494,0,1,1,597.983,152.711Z" transform="translate(-567 -143)"/>
</svg>
