<svg xmlns="http://www.w3.org/2000/svg" width="75" height="49" viewBox="0 0 75 49">
  <defs>
    <style>
      .cls-1 {
        fill: #fb5e31;
        fill-rule: evenodd;
      }
    </style>
  </defs>
  <path class="cls-1" d="M369.763,350.659a8.969,8.969,0,1,1-8.911,8.976,8.978,8.978,0,0,1,8.911-8.976h0Zm21.509,38.6h7.734v-2.333l-5.784.062v-0.42l5.784-2.924V381.67l-5.784-2.924v-0.4l5.784,0.062v-2.333h-7.734v4.27l5.019,2.318-5.019,2.311v4.285h0Zm0-14.523h7.734v-8.648H397.15v6.314h-1.231v-5.956h-1.7v5.956H393.1v-6.267h-1.825v8.6h0Zm0-9.808h7.733v-2.473h-7.733v2.473h0Zm0-3.834h7.734v-2.419l-5.77.061v-0.255l5.77-4.092v-4.115h-7.734v2.41l5.763-.053v0.241l-5.763,4.068V361.1h0Zm0-12.173h7.734v-7.732h-1.971v5.251h-5.763v2.481h0Zm-48.952,1.634a9.074,9.074,0,1,1-9.025,9.077,9.087,9.087,0,0,1,9.025-9.077h0ZM324.006,390V359.582c0-9.078,7.038-18.731,18.314-18.577,7.82,0.111,11.285,3.743,13.7,5.96a18.612,18.612,0,0,1,13.588-5.96c11.022,0.094,18.384,8.658,18.37,18.63L387.923,390h-9.236V375.776c-5.832,2.9-11.865,3.33-17.889.21V390h-9.552V375.986a19.091,19.091,0,0,1-17.951,0V390h-9.289Z" transform="translate(-324 -341)"/>
</svg>
