<svg xmlns="http://www.w3.org/2000/svg" width="77" height="80" viewBox="0 0 77 80">
  <defs>
    <style>
      .cls-1 {
        fill: #fb5e31;
        fill-rule: evenodd;
      }
    </style>
  </defs>
  <path class="cls-1" d="M217.565,153.186l-43.286,37.38a1.352,1.352,0,0,1-.82.287,1.3,1.3,0,0,1-.888-0.354l-31.2-30.844a1.27,1.27,0,0,1,.067-1.853l43.287-37.5a1.237,1.237,0,0,1,.82-0.3h31.2A1.269,1.269,0,0,1,218,121.263v30.963A1.294,1.294,0,0,1,217.565,153.186Zm-2.059-30.676H186.03l-41.914,36.3,29.41,29.059,41.98-36.235V122.51Zm-49.814,40.75a1.244,1.244,0,0,1-1.774-.085A1.261,1.261,0,0,1,164,161.39l4.855-4.4-1.155-1.3a1.263,1.263,0,0,1,.083-1.786,1.245,1.245,0,0,1,1.775.084l1.154,1.3,1.607-1.465-1.155-1.3a1.264,1.264,0,0,1,.084-1.786,1.243,1.243,0,0,1,1.774.084l1.155,1.3,10.328-9.4a1.244,1.244,0,0,1,1.775.084l3.665,4.077,0.034,0.033a8.851,8.851,0,0,1-1,12.264,8.579,8.579,0,0,1-12.152-.354l-2.812-3.133-1.607,1.465,5.34,5.947a1.262,1.262,0,0,1-.084,1.785,1.243,1.243,0,0,1-1.774-.084l-5.34-5.946Zm12.989-6.132a6.079,6.079,0,0,0,8.6.168,6.3,6.3,0,0,0,.787-8.726l-2.8-3.116-9.407,8.54Zm25.125-30.137a7.328,7.328,0,1,1-7.281,7.328A7.31,7.31,0,0,1,203.806,126.991Zm0,12.129a4.8,4.8,0,1,0-4.77-4.8A4.795,4.795,0,0,0,203.806,139.12Zm-60.661,27.357,30.381,30.541,42.4-36.6a1.261,1.261,0,0,1,1.774.134,1.281,1.281,0,0,1-.134,1.786l-43.286,37.38a1.346,1.346,0,0,1-.82.287,1.24,1.24,0,0,1-.888-0.371l-31.2-31.366a1.278,1.278,0,0,1,0-1.786A1.257,1.257,0,0,1,143.145,166.477Z" transform="translate(-141 -120)"/>
</svg>
