<svg xmlns="http://www.w3.org/2000/svg" width="41.969" height="39" viewBox="0 0 41.969 39">
  <defs>
    <style>
      .cls-1 {
        fill: #fb5e31;
        fill-rule: evenodd;
      }
    </style>
  </defs>
  <path class="cls-1" d="M528.876,173.143a0.908,0.908,0,0,1-.792.466,0.947,0.947,0,0,1-.174-0.016l-6.219-1.119-2.137,5.92a0.925,0.925,0,0,1-1.667.148l-7.955-13.707-0.363.045a12.87,12.87,0,0,1-3.138,0l-0.363-.045-7.956,13.707a0.9,0.9,0,0,1-.794.458,0.906,0.906,0,0,1-.873-0.606l-2.136-5.92-6.22,1.119a0.95,0.95,0,0,1-.175.016,0.907,0.907,0,0,1-.79-0.466,0.883,0.883,0,0,1,0-.908l9.035-15.569-0.079-.236a12.3,12.3,0,0,1,1.722-11.217,12.577,12.577,0,0,1,20.391,0,12.3,12.3,0,0,1,1.723,11.217l-0.08.237,9.036,15.568A0.888,0.888,0,0,1,528.876,173.143Zm-39.161-1.7,5.034-.906a0.923,0.923,0,0,1,1.033.592l1.727,4.787,6.677-11.5-0.613-.229a12.606,12.606,0,0,1-5.992-4.712l-0.493-.732Zm27.161-24.926a10.75,10.75,0,0,0-17.753,0A10.7,10.7,0,1,0,516.876,146.515Zm2.04,12.229-0.5.721a12.485,12.485,0,0,1-6,4.716l-0.611.23,6.677,11.5,1.727-4.787a0.924,0.924,0,0,1,.867-0.607,0.912,0.912,0,0,1,.165.015l5.034,0.906Zm-6.837-4.321,0.646,3.755a0.883,0.883,0,0,1-.2.735,0.948,0.948,0,0,1-.715.337,0.912,0.912,0,0,1-.428-0.108L508,157.37l-3.387,1.772a0.919,0.919,0,0,1-.429.108,0.949,0.949,0,0,1-.714-0.337,0.885,0.885,0,0,1-.2-0.735l0.647-3.755-2.742-2.659a0.892,0.892,0,0,1-.232-0.934,0.9,0.9,0,0,1,.743-0.626l3.788-.548,1.694-3.414a0.927,0.927,0,0,1,1.655,0l1.694,3.415,3.788,0.548a0.915,0.915,0,0,1,.512,1.561Zm-0.993-2.836-0.4-.057a3.922,3.922,0,0,1-1.328-.292,3.2,3.2,0,0,1-.635-1.06l-0.226-.462-0.5-1-0.5,1c-0.084.168-.159,0.322-0.227,0.461a3.175,3.175,0,0,1-.636,1.06,3.975,3.975,0,0,1-1.337.3l-0.392.055-1.111.161,0.805,0.782,0.283,0.272a4.011,4.011,0,0,1,.909,1.021,3.139,3.139,0,0,1-.111,1.222c-0.028.154-.059,0.324-0.091,0.512l-0.19,1.1,0.992-.519,0.35-.184a3.865,3.865,0,0,1,1.264-.544,3.314,3.314,0,0,1,1.128.485c0.139,0.074.292,0.155,0.461,0.243l0.991,0.519-0.19-1.1-0.069-.4a3.878,3.878,0,0,1-.131-1.345,3.189,3.189,0,0,1,.817-0.929l0.372-.357,0.806-.782Z" transform="translate(-487.031 -140)"/>
</svg>
