<svg xmlns="http://www.w3.org/2000/svg" width="50" height="34" viewBox="0 0 50 34">
  <defs>
    <style>
      .cls-1 {
        fill: #fa5e31;
        fill-rule: evenodd;
      }
    </style>
  </defs>
  <path class="cls-1" d="M259.918,429.114a1.011,1.011,0,0,1-1.018,1.006h-2.066a1.016,1.016,0,1,1,0-2.031h1.058l0.072-13.9-6.638-5.484h-8.207v19.407h2.047a1.016,1.016,0,1,1,0,2.031H232.735a1.016,1.016,0,1,1,0-2.031h8.348V404.031h-23.9v6.418a1.019,1.019,0,0,1-2.037,0v-7.434A1.02,1.02,0,0,1,216.16,402h25.931a1.02,1.02,0,0,1,1.018,1.015v3.656h8.573a1,1,0,0,1,.651.234l7.29,6.022a1.071,1.071,0,0,1,.377.792Zm-32.406-16.847a1.016,1.016,0,1,1,0,2.031h-12.35a1.016,1.016,0,1,1,0-2.031h12.35Zm-1.049,5.707a1.026,1.026,0,0,1-1.028,1l-12.35-.071a1.016,1.016,0,0,1,.01-2.031h0.01l12.35,0.071A1.007,1.007,0,0,1,226.463,417.974Zm-2.077,4.6a1.013,1.013,0,0,1-1.018,1.016h-12.35a1.016,1.016,0,1,1,0-2.031h12.35A1.02,1.02,0,0,1,224.386,422.574Zm-8.226,1.818a1.02,1.02,0,0,1,1.018,1.016v2.7h2.046a1.016,1.016,0,1,1,0,2.031H216.16a1.02,1.02,0,0,1-1.019-1.015v-3.717A1.021,1.021,0,0,1,216.16,424.392Zm9.855,2.468a4.57,4.57,0,0,1,0,9.14,4.642,4.642,0,0,1-3.258-1.341,4.505,4.505,0,0,1,0-6.459A4.624,4.624,0,0,1,226.015,426.86Zm0,7.109a2.539,2.539,0,0,0,0-5.078A2.539,2.539,0,1,0,226.015,433.969Zm28.426-12.238h-8.288a1.02,1.02,0,0,1-1.018-1.015v-8.327a1.02,1.02,0,0,1,1.018-1.016h5.223a1,1,0,0,1,.683.264l3.064,2.752a1.015,1.015,0,0,1,.336.752v5.575A1.019,1.019,0,0,1,254.441,421.731Zm-1.018-6.143-2.444-2.194h-3.807V419.7h6.251v-4.112Zm-2.545,11.272a4.57,4.57,0,0,1,0,9.14,4.64,4.64,0,0,1-3.258-1.341,4.5,4.5,0,0,1,0-6.459A4.622,4.622,0,0,1,250.878,426.86Zm0,7.109a2.539,2.539,0,0,0,0-5.078A2.539,2.539,0,1,0,250.878,433.969Z" transform="translate(-210 -402)"/>
</svg>
