<svg xmlns="http://www.w3.org/2000/svg" width="55.969" height="49" viewBox="0 0 55.969 49">
  <defs>
    <style>
      .cls-1 {
        fill-rule: evenodd;
      }
    </style>
  </defs>
  <path id="Forma_1" data-name="Forma 1" class="cls-1" d="M72.773,264.044a9.913,9.913,0,0,1-7.687,7.814,9.372,9.372,0,0,1-6.313-1.016l-10.9,14.719a2.375,2.375,0,0,1-2.9.758,6.588,6.588,0,0,0-6.832.5,0.839,0.839,0,0,1-.24.125l-7.234,6.82a0.816,0.816,0,0,1-.568.228,0.834,0.834,0,0,1-.63-0.292,0.914,0.914,0,0,1,.061-1.251L36.365,286,33.48,282.88l-6.9,6.509a0.824,0.824,0,0,1-.57.228,0.836,0.836,0,0,1-.629-0.291,0.915,0.915,0,0,1,.061-1.252l6.86-6.47-2.883-3.117-6.92,6.524a0.823,0.823,0,0,1-1.2-.064,0.914,0.914,0,0,1,.061-1.251l6.877-6.485-2.884-3.119-6.935,6.539a0.826,0.826,0,0,1-1.2-.064,0.913,0.913,0,0,1,.061-1.251l7.129-6.722v-4.408a2.53,2.53,0,0,1,1.558-2.377c10.414-4.2,34.9-13.981,37.341-13.981a9.527,9.527,0,0,1,7.521,3.8A10.343,10.343,0,0,1,72.773,264.044Zm-3.261-7.3a7.966,7.966,0,0,0-6.2-3.141c-1.461.012-16.221,5.583-36.729,13.862a0.771,0.771,0,0,0-.473.726v4.17h0l8.019,8.671c0.009,0.009.02,0.012,0.029,0.022s0.007,0.016.013,0.023l3.6,3.89a8.253,8.253,0,0,1,7.881-.266,0.717,0.717,0,0,0,.884-0.217l11.361-15.335a0.821,0.821,0,0,1,1.128-.2,7.636,7.636,0,0,0,5.77,1.175,8.16,8.16,0,0,0,6.328-6.438A8.414,8.414,0,0,0,69.513,256.742Zm-12.65-5.458-1.359.524a2.971,2.971,0,0,1-2.379-.094,3.171,3.171,0,0,1-1.62-1.823,3.3,3.3,0,0,1,1.838-4.173l1.359-.524a3.08,3.08,0,0,1,4,1.919,3.352,3.352,0,0,1-.09,2.483A3.149,3.149,0,0,1,56.862,251.284Zm0.246-3.561a1.439,1.439,0,0,0-.733-0.828,1.372,1.372,0,0,0-.592-0.136,1.414,1.414,0,0,0-.493.092l-1.359.524a1.5,1.5,0,0,0-.837,1.9,1.452,1.452,0,0,0,.736.829,1.347,1.347,0,0,0,1.084.042l1.359-.524a1.433,1.433,0,0,0,.794-0.769A1.523,1.523,0,0,0,57.109,247.723Zm-8.743,6.84-1.356.526a2.978,2.978,0,0,1-2.384-.095,3.178,3.178,0,0,1-1.619-1.823,3.351,3.351,0,0,1,.092-2.483A3.147,3.147,0,0,1,44.847,249l1.359-.524a2.971,2.971,0,0,1,2.38.094,3.177,3.177,0,0,1,1.619,1.823,3.352,3.352,0,0,1-.091,2.483A3.142,3.142,0,0,1,48.366,254.563ZM48.617,251a1.45,1.45,0,0,0-.738-0.828,1.355,1.355,0,0,0-1.082-.044l-1.361.526a1.441,1.441,0,0,0-.8.769,1.525,1.525,0,0,0-.041,1.131,1.454,1.454,0,0,0,.738.83,1.351,1.351,0,0,0,1.084.043l1.359-.526a1.44,1.44,0,0,0,.8-0.77A1.524,1.524,0,0,0,48.617,251Zm-8.744,6.841-1.359.525a2.975,2.975,0,0,1-1.082.2,3.016,3.016,0,0,1-1.3-.3,3.176,3.176,0,0,1-1.618-1.823,3.35,3.35,0,0,1,.09-2.483,3.141,3.141,0,0,1,1.748-1.688l1.359-.526a2.979,2.979,0,0,1,2.382.095,3.177,3.177,0,0,1,1.619,1.823A3.291,3.291,0,0,1,39.872,257.845Zm0.246-3.558a1.419,1.419,0,0,0-1.328-.966,1.365,1.365,0,0,0-.49.092l-1.359.526a1.434,1.434,0,0,0-.8.77,1.518,1.518,0,0,0-.041,1.129,1.4,1.4,0,0,0,1.82.874l1.359-.525a1.439,1.439,0,0,0,.794-0.769A1.525,1.525,0,0,0,40.118,254.287Zm-8.741,6.839-1.359.524a2.976,2.976,0,0,1-1.084.205,3.015,3.015,0,0,1-1.3-.3,3.177,3.177,0,0,1-1.619-1.823,3.3,3.3,0,0,1,1.839-4.173l1.361-.524a3.077,3.077,0,0,1,4,1.917A3.3,3.3,0,0,1,31.377,261.126Zm0.247-3.557a1.425,1.425,0,0,0-1.332-.967,1.366,1.366,0,0,0-.49.092l-1.359.526a1.5,1.5,0,0,0-.837,1.9,1.4,1.4,0,0,0,1.82.873l1.359-.524A1.5,1.5,0,0,0,31.625,257.569Z" transform="translate(-17 -245)"/>
</svg>
