<svg xmlns="http://www.w3.org/2000/svg" width="52" height="56" viewBox="0 0 52 56">
  <defs>
    <style>
      .cls-1 {
        fill: #fa7124;
        fill-rule: evenodd;
      }
    </style>
  </defs>
  <path id="Forma_1" data-name="Forma 1" class="cls-1" d="M65.145,202H58.815a0.579,0.579,0,0,1-.579-0.578V199.11H35.7v2.312a0.579,0.579,0,0,1-.579.578H28.791a0.579,0.579,0,0,1-.579-0.578V199.11H25.059A4.062,4.062,0,0,1,21,195.054v-45A4.061,4.061,0,0,1,25.059,146H68.941A4.061,4.061,0,0,1,73,150.055v45a4.061,4.061,0,0,1-4.059,4.055H65.724v2.313A0.578,0.578,0,0,1,65.145,202Zm-5.752-1.156h5.174V199.11H59.393v1.734Zm-30.023,0h5.174V199.11H29.37v1.734Zm35.775-2.89h3.8a2.9,2.9,0,0,0,2.9-2.9v-45a2.9,2.9,0,0,0-2.9-2.9H25.059a2.9,2.9,0,0,0-2.9,2.9v45a2.9,2.9,0,0,0,2.9,2.9H65.145Zm-8-2.71H27.807a2.9,2.9,0,0,1-2.9-2.9V164.831a2.9,2.9,0,0,1,2.9-2.9H66.193a2.9,2.9,0,0,1,2.9,2.9v27.513a2.9,2.9,0,0,1-2.9,2.9H57.141Zm8.48-1.156h0.572a1.746,1.746,0,0,0,1.745-1.743V188.5l-1.9-1.9-3.948,3.945,3.468,3.465A0.59,0.59,0,0,1,65.621,194.088Zm-7.083,0H64l-2.73-2.728Zm-2.45,0H56.9l3.548-3.545L56.5,186.6l-3.948,3.945,3.468,3.465A0.612,0.612,0,0,1,56.088,194.088Zm-7.083,0h5.46l-2.73-2.728Zm-2.45,0h0.826a0.591,0.591,0,0,1,.067-0.08l3.468-3.465L46.968,186.6l-3.948,3.945,3.468,3.465A0.586,0.586,0,0,1,46.555,194.088Zm-7.083,0h5.46L42.2,191.36Zm-2.437,0h0.814a0.59,0.59,0,0,1,.067-0.08l3.468-3.465L37.435,186.6l-3.948,3.945Zm-7.1,0H35.4l-2.73-2.728Zm-3.876-5.652v3.908a1.747,1.747,0,0,0,1.745,1.744h0.508a0.529,0.529,0,0,1,.067-0.08l3.468-3.465L27.9,186.6Zm12.191-2.655,3.948,3.944,3.948-3.944L42.2,181.836Zm9.533,0,3.948,3.944,3.948-3.944-3.948-3.945Zm-19.066,0,3.948,3.944,3.948-3.944-3.948-3.945Zm28.6,0,3.948,3.944,3.948-3.944-3.948-3.945Zm9.533,0,1.085,1.084V184.7Zm-40.79-1.021V186.8l1.021-1.021Zm7.424-3.742,3.948,3.945,3.948-3.945-3.948-3.945Zm28.6,0,3.948,3.945,1.9-1.9v-4.092a0.57,0.57,0,0,1-.054-0.048l-1.85-1.848Zm-36.024,2.107,1.84,1.838,3.948-3.945L27.9,177.073l-1.84,1.838v4.214h0Zm26.491-2.107,3.948,3.945,3.948-3.945L56.5,177.073Zm-9.533,0,3.948,3.945,3.948-3.945-3.948-3.945Zm14.3-4.762,3.948,3.945,3.948-3.945-3.948-3.945Zm-28.6,0,3.948,3.945,3.948-3.945-3.948-3.945Zm19.066,0,3.948,3.945,3.948-3.945-3.948-3.945Zm-9.533,0L42.2,180.2l3.948-3.945L42.2,172.311Zm28.6,0,1.085,1.084v-2.168Zm-40.79-1.021v2.042l1.021-1.021Zm36.024-3.741,3.948,3.944,1.9-1.9V169.45l-1.9-1.9ZM26.062,173.6l1.84,1.837,3.948-3.944L27.9,167.549l-1.84,1.838V173.6Zm26.491-2.107,3.948,3.944,3.949-3.944L56.5,167.549Zm-19.066,0,3.948,3.944,3.948-3.944-3.948-3.945Zm9.533,0,3.948,3.944,3.948-3.944-3.948-3.945Zm4.767-4.763,3.948,3.945,3.948-3.945-3.628-3.625-0.018-.018h-0.6Zm9.533,0,3.948,3.945,3.948-3.945-3.646-3.642h-0.6Zm-28.6,0,3.948,3.945,3.948-3.945-3.646-3.643h-0.6Zm9.533,0,3.948,3.945,3.948-3.945L42.5,163.088H41.9l-0.018.019Zm28.6,0,1.085,1.085v-2.169Zm-40.79-1.02v2.041l1.021-1.021Zm0.12-1.515,1.72,1.718,2.828-2.826H27.807A1.748,1.748,0,0,0,26.182,164.2Zm27.491-1.108,2.828,2.826,2.828-2.826H53.673Zm9.533,0,2.828,2.826L67.8,164.15a1.749,1.749,0,0,0-1.606-1.062H63.206Zm-19.066,0,2.828,2.826,2.828-2.826H44.14Zm-9.533,0,2.828,2.826,2.828-2.826H34.607Zm32.487-3.338H62.289a0.578,0.578,0,0,1-.578-0.578v-8.948a0.578,0.578,0,0,1,.578-0.578h4.806a0.579,0.579,0,0,1,.579.578v8.948A0.578,0.578,0,0,1,67.095,159.75Zm-4.227-1.156h3.648V150.8H62.867v7.792Zm-5.65,1.156a2.174,2.174,0,1,1,2.175-2.173A2.176,2.176,0,0,1,57.218,159.75Zm0-3.19a1.018,1.018,0,1,0,1.018,1.017A1.019,1.019,0,0,0,57.218,156.56Zm-6.614,1a2.867,2.867,0,1,1,2.869-2.866A2.871,2.871,0,0,1,50.6,157.565Zm0-4.577a1.711,1.711,0,1,0,1.712,1.711A1.714,1.714,0,0,0,50.6,152.988Zm-7.367,4.577a2.867,2.867,0,1,1,2.869-2.866A2.871,2.871,0,0,1,43.236,157.565Zm0-4.577a1.711,1.711,0,1,0,1.712,1.711A1.714,1.714,0,0,0,43.236,152.988Zm-7.367,4.577a2.867,2.867,0,1,1,2.869-2.866A2.871,2.871,0,0,1,35.869,157.565Zm0-4.577a1.711,1.711,0,1,0,1.712,1.711A1.713,1.713,0,0,0,35.869,152.988ZM28.5,156.872a2.174,2.174,0,1,1,2.175-2.174A2.177,2.177,0,0,1,28.5,156.872Zm0-3.191a1.018,1.018,0,1,0,1.018,1.018A1.02,1.02,0,0,0,28.5,153.681Zm28.715,0.312a2.174,2.174,0,1,1,2.175-2.174A2.177,2.177,0,0,1,57.218,153.993Zm0-3.191a1.018,1.018,0,1,0,1.018,1.018A1.02,1.02,0,0,0,57.218,150.8Z" transform="translate(-21 -146)"/>
</svg>
