<svg xmlns="http://www.w3.org/2000/svg" width="56" height="46" viewBox="0 0 56 46">
  <defs>
    <style>
      .cls-1 {
        fill: #fa7124;
        fill-rule: evenodd;
      }
    </style>
  </defs>
  <path id="Forma_1" data-name="Forma 1" class="cls-1" d="M67.733,40.406l-1.327,18.38A5.639,5.639,0,0,1,60.8,64H29.2a5.639,5.639,0,0,1-5.6-5.214l-1.327-18.38a5.372,5.372,0,0,1,.105-10.744h8.649l7.7-8.23A1.743,1.743,0,0,1,39.151,18h11.7a1.743,1.743,0,0,1,.426,3.433l7.7,8.23h8.649A5.372,5.372,0,0,1,67.733,40.406ZM27.071,58.535A2.139,2.139,0,0,0,29.2,60.513H60.8a2.139,2.139,0,0,0,2.125-1.978l1.308-18.126H25.762ZM46.55,21.487h-3.1L35.8,29.663H54.2ZM67.627,33.15H62.235a1.742,1.742,0,0,1-2.614,2.3l-2.155-2.3H32.533l-2.155,2.3a1.742,1.742,0,0,1-2.614-2.3H22.372a1.886,1.886,0,0,0,0,3.772H67.628A1.886,1.886,0,0,0,67.627,33.15ZM53.845,50.974H58.2V56.44H53.845V50.974Zm0-7.41H58.2V49.03H53.845V43.564ZM46.5,50.974h4.351V56.44H46.5V50.974Zm0-7.41h4.351V49.03H46.5V43.564Zm-7.347,7.41H43.5V56.44H39.151V50.974Zm0-7.41H43.5V49.03H39.151V43.564ZM31.8,50.974h4.351V56.44H31.8V50.974Zm0-7.41h4.351V49.03H31.8V43.564Z" transform="translate(-17 -18)"/>
</svg>
