<svg xmlns="http://www.w3.org/2000/svg" width="52" height="56" viewBox="0 0 52 56">
  <defs>
    <style>
      .cls-1 {
        fill: #fa7124;
        fill-rule: evenodd;
      }
    </style>
  </defs>
  <path id="Forma_1" data-name="Forma 1" class="cls-1" d="M213.171,297H162.828a0.829,0.829,0,0,1-.828-0.829v-9.618a9,9,0,0,1,5.685-8.4l11.912-4.766a0.83,0.83,0,0,1,1.087.488l3.506,9.7,1.154-3.318-1.02-2.493a0.829,0.829,0,0,1,.767-1.142h5.818a0.829,0.829,0,0,1,.767,1.142l-1.02,2.494,1.154,3.317,3.506-9.7a0.828,0.828,0,0,1,1.087-.487l11.911,4.765a9,9,0,0,1,5.686,8.4v9.618A0.829,0.829,0,0,1,213.171,297Zm-49.514-1.658h48.686v-8.789a7.354,7.354,0,0,0-4.644-6.861l-11.116-4.447-4.009,11.086a0.836,0.836,0,0,1-.785.547,0.827,0.827,0,0,1-.777-0.557l-2.023-5.819a0.827,0.827,0,0,1,.015-0.586l0.671-1.641h-3.35l0.671,1.64a0.836,0.836,0,0,1,.016.587l-2.024,5.819a0.829,0.829,0,0,1-1.562.01l-4.009-11.086L168.3,279.692a7.354,7.354,0,0,0-4.644,6.861v8.789Zm43.154-1.968h-9.274a0.829,0.829,0,0,1-.829-0.828v-5.711a0.829,0.829,0,0,1,.829-0.829h9.274a0.829,0.829,0,0,1,.828.829v5.711A0.828,0.828,0,0,1,206.811,293.374Zm-8.445-1.657h7.616v-4.053h-7.616v4.053ZM188,273.192a10.037,10.037,0,0,1-3.718-.708,7.106,7.106,0,0,1-2.247-1.358,24.151,24.151,0,0,1-3.854-5.9c-1.035-.05-3.158-0.6-4.077-4.117a5.149,5.149,0,0,1,.309-4.169,3.058,3.058,0,0,1,1.191-1.076,17.742,17.742,0,0,1,.073-1.831c-0.582-.89-1.856-3.543.331-7.427l0,0,0-.006h0l0.012-.021h0a0.041,0.041,0,0,0,0-.009l0.007-.011s0,0,0,0c1.432-2.5,3.284-3.032,4.589-3.033h0a4.827,4.827,0,0,1,.853.077c0.594-1.044,2.261-2.6,6.913-2.6h0.234a13.687,13.687,0,0,1,7.043,2.11,10.631,10.631,0,0,1,5.1,5.916,8.514,8.514,0,0,1,.282,2.326h0v0h0v0h0v0h0v0.008a17.571,17.571,0,0,1-.662,4.4c0,0.031,0,.061,0,0.089a3.062,3.062,0,0,1,1.191,1.077,5.141,5.141,0,0,1,.309,4.169c-0.919,3.515-3.042,4.067-4.077,4.118a24.118,24.118,0,0,1-3.854,5.9,7.106,7.106,0,0,1-2.247,1.358A10.013,10.013,0,0,1,188,273.192Zm-9.321-9.643a0.842,0.842,0,0,1,.764.477c0.019,0.042,2,4.282,3.723,5.888a5.451,5.451,0,0,0,1.727,1.029,8.447,8.447,0,0,0,6.213,0,5.48,5.48,0,0,0,1.727-1.028c1.721-1.607,3.7-5.846,3.724-5.889a0.83,0.83,0,0,1,.916-0.463h0a1.407,1.407,0,0,0,.175.01c0.706,0,1.988-.374,2.644-2.883a3.746,3.746,0,0,0-.08-2.822,1.384,1.384,0,0,0-.822-0.623,0.815,0.815,0,0,1-.674-0.884s0.021-.257.023-0.682a2.227,2.227,0,0,0-.482-1.265c-0.425-.339-3.006-0.837-5.5-1.319-1.05-.2-2.239-0.431-3.492-0.688h0a9.812,9.812,0,0,1-2.1-.6,12.7,12.7,0,0,1-4.435-2.744,8.346,8.346,0,0,1-1.59,2.8,10.588,10.588,0,0,1-3.825,2.564,13.6,13.6,0,0,0-.025,1.939,0.829,0.829,0,0,1-.689.887,1.391,1.391,0,0,0-.806.62,3.74,3.74,0,0,0-.081,2.822c0.657,2.509,1.939,2.884,2.644,2.884a1.256,1.256,0,0,0,.187-0.012A0.766,0.766,0,0,1,178.679,263.549Zm3.669-17a0.829,0.829,0,0,1,.691.372,10.2,10.2,0,0,0,4.712,3.335l0.046,0.018a8.081,8.081,0,0,0,1.773.5l0.031,0.006c1.239,0.254,2.423.483,3.468,0.684,3.768,0.727,5.456,1.071,6.2,1.633a12.819,12.819,0,0,0,.135-1.735h0v0h0v0h0v0h0v0h0v0h0v0a7.059,7.059,0,0,0-.191-1.761c-0.009-.036-0.018-0.072-0.028-0.107-0.02-.072-0.045-0.147-0.072-0.225a9.2,9.2,0,0,0-4.178-4.66,0.941,0.941,0,0,1-.1-0.053,12.034,12.034,0,0,0-6.221-1.881h-0.007l-0.209,0h0q-0.2,0-.387,0h0c-4.653.1-5.18,1.96-5.2,2.06a0.638,0.638,0,0,1-.012.063,0.826,0.826,0,0,1-.763.639,0.811,0.811,0,0,1-.263-0.028,0.916,0.916,0,0,1-.118-0.042,2.923,2.923,0,0,0-1.014-.174h0a3.673,3.673,0,0,0-3.162,2.217,0,0,0,0,0,0,0h0l0,0a0.041,0.041,0,0,0-.005.009,0.005,0.005,0,0,0,0,0,0,0,0,0,0,0,0h0c-1.524,2.7-.985,4.567-0.574,5.387a8.936,8.936,0,0,0,3.038-2.073,8.371,8.371,0,0,0,1.617-3.51,0.826,0.826,0,0,1,.652-0.654A0.809,0.809,0,0,1,182.348,246.552Z" transform="translate(-162 -241)"/>
</svg>
