<svg xmlns="http://www.w3.org/2000/svg" width="45" height="42" viewBox="0 0 45 42">
  <defs>
    <style>
      .cls-1 {
        fill-rule: evenodd;
      }
    </style>
  </defs>
  <path id="Forma_1" data-name="Forma 1" class="cls-1" d="M62,96.342l-7.76,18.564H32.989L24.466,85.918H17V84.1h8.908L29.49,96.342h6.75a9.01,9.01,0,0,1-.578-3.2,9.147,9.147,0,0,1,18.294,0,9.045,9.045,0,0,1-.579,3.2H62ZM44.817,85.918a7.222,7.222,0,1,0,7.227,7.222A7.221,7.221,0,0,0,44.817,85.918Zm-0.009,16.361a9.145,9.145,0,0,1-7.577-4.019H30.041L34.33,113H53L59.125,98.26H52.385A9.146,9.146,0,0,1,44.808,102.279Zm1.01-4.781h-1.91V94.149H40.455V92.231h3.453V88.79h1.91v3.441H49.17v1.918H45.818V97.5Zm-9.193,20.849a3.827,3.827,0,1,1-3.83,3.826A3.837,3.837,0,0,1,36.626,118.347Zm0,5.744a1.918,1.918,0,1,0-1.919-1.918A1.923,1.923,0,0,0,36.626,124.091Zm13.408-5.744a3.827,3.827,0,1,1-3.83,3.826A3.843,3.843,0,0,1,50.034,118.347Zm-0.009,5.744a1.923,1.923,0,0,0,1.919-1.918,1.814,1.814,0,0,0-1.919-1.917A1.918,1.918,0,1,0,50.024,124.091Z" transform="translate(-17 -84)"/>
</svg>
