<svg xmlns="http://www.w3.org/2000/svg" width="56" height="37" viewBox="0 0 56 37">
  <defs>
    <style>
      .cls-1 {
        fill: #fa7124;
        fill-rule: evenodd;
      }
    </style>
  </defs>
  <path id="Forma_1" data-name="Forma 1" class="cls-1" d="M138.893,279.329l-0.045,7.51a1.17,1.17,0,0,1-.555.977,1.023,1.023,0,0,1-1.121.031l-8.043-4.254a21.159,21.159,0,0,1-2.712.174,19.053,19.053,0,0,1-11.613-3.721,13.292,13.292,0,0,1-3.739-4.361,20.37,20.37,0,0,1-7.482,1.4h0a21.289,21.289,0,0,1-2.7-.172l-8.033,4.5a1.207,1.207,0,0,1-1.133-.011,1.1,1.1,0,0,1-.567-0.984l-0.045-7.771a11.542,11.542,0,0,1-4.107-8.6,11.766,11.766,0,0,1,4.969-9.32A19.053,19.053,0,0,1,103.582,251a19.626,19.626,0,0,1,9.851,2.54,14.138,14.138,0,0,1,5.492,5.541,20.326,20.326,0,0,1,7.492-1.4,19.061,19.061,0,0,1,11.614,3.721,11.769,11.769,0,0,1,4.969,9.32A11.542,11.542,0,0,1,138.893,279.329Zm-35.311-26.035c-7.883,0-14.3,4.821-14.3,10.747a9.422,9.422,0,0,0,3.691,7.192,1.146,1.146,0,0,1,.412.829q0,0.034,0,.069l0.037,6.329,6.5-3.638a1.14,1.14,0,0,1,.882-0.239,18.921,18.921,0,0,0,2.778.2h0a18.085,18.085,0,0,0,6.638-1.234,10.578,10.578,0,0,1-.386-2.828,11.767,11.767,0,0,1,4.969-9.32,16.537,16.537,0,0,1,2.053-1.346C114.7,256.031,109.423,253.294,103.582,253.294Zm22.835,6.685c-0.616,0-1.219.039-1.815,0.1-0.161.016-.321,0.036-0.48,0.055q-0.741.09-1.454,0.235c-0.1.02-.2,0.035-0.3,0.057a17.358,17.358,0,0,0-1.688.464c-0.07.023-.137,0.05-0.207,0.074q-0.756.261-1.464,0.583c-0.091.042-.184,0.081-0.275,0.124a11.645,11.645,0,0,0-6.091,6.193c-0.03.08-.057,0.162-0.084,0.244a8.135,8.135,0,0,0-.265,1.009c-0.021.1-.047,0.206-0.064,0.311a8.162,8.162,0,0,0-.113,1.3,8.27,8.27,0,0,0,.578,3.024c0.008,0.022.018,0.043,0.025,0.064,1.769,4.426,7.238,7.659,13.694,7.659a18.934,18.934,0,0,0,2.779-.205,1.139,1.139,0,0,1,.861.223l6.516,3.446,0.037-6.127c0-.021,0-0.042,0-0.063a1.15,1.15,0,0,1,.412-0.829,9.42,9.42,0,0,0,3.691-7.192c0-.036-0.007-0.07-0.007-0.106C140.629,264.743,134.153,259.979,126.417,259.979Zm6.714,14.391H119.7a1.147,1.147,0,0,1,0-2.294h13.428A1.147,1.147,0,0,1,133.131,274.37Zm0-5.193H119.7a1.147,1.147,0,0,1,0-2.293h13.428A1.147,1.147,0,0,1,133.131,269.177Z" transform="translate(-87 -251)"/>
</svg>
