<svg xmlns="http://www.w3.org/2000/svg" width="38.219" height="64" viewBox="0 0 38.219 64">
  <defs>
    <style>
      .cls-1 {
        fill: #ffd600;
        fill-rule: evenodd;
      }
    </style>
  </defs>
  <path class="cls-1" d="M61.207,345.145a8.843,8.843,0,0,1-5.8,1.944c-0.371,0-.608-0.021-0.645-0.023H50.634v2.8H61.357v1.4H50.634v4.191h-1.4v-4.191h-3.1v-1.4h3.1v-2.8h-3.1v-1.4h3.1V333.1h5.588c0.1-.014,3.913-0.331,6.381,1.924A7.4,7.4,0,0,1,61.207,345.145Zm-0.943-9.09c-2.017-1.841-5.342-1.565-5.375-1.56l-4.254,0v11.175h4.191c0.1,0.008,3.435.275,5.444-1.563A6.025,6.025,0,0,0,60.263,336.055Zm-19.884,2.384L40.7,356.755c4.412,1.167,7.443,4.706,7.443,8.793a8.166,8.166,0,0,1-.78,3.483,6.6,6.6,0,0,0,.739,6.777,10.018,10.018,0,0,1,2.162,6.172c0,6.076-5.666,11.02-12.63,11.02S25,388.056,25,381.98a10.016,10.016,0,0,1,2.162-6.172,6.6,6.6,0,0,0,.739-6.778,8.16,8.16,0,0,1-.779-3.482c0-4.087,3.03-7.626,7.441-8.793l0.316-18.317a1.994,1.994,0,0,1-1.079-1.782v-5.427a1.748,1.748,0,0,1,.971-1.574,6.557,6.557,0,0,1,5.715,0,1.747,1.747,0,0,1,.971,1.574v5.427A2,2,0,0,1,40.379,338.439ZM28.717,365.548a6.479,6.479,0,0,0,.62,2.766,8.294,8.294,0,0,1-.931,8.523,8.357,8.357,0,0,0-1.812,5.143c0,5.169,4.95,9.374,11.036,9.374s11.035-4.2,11.035-9.374a8.355,8.355,0,0,0-1.813-5.143,8.3,8.3,0,0,1-.93-8.522,6.485,6.485,0,0,0,.622-2.767c0-3.195-2.348-5.993-5.819-7.076l0.108,6.269a5.137,5.137,0,0,1,1.715,3.849,4.92,4.92,0,1,1-9.836,0,5.14,5.14,0,0,1,1.714-3.849l0.108-6.269C31.064,359.555,28.717,362.354,28.717,365.548Zm5.589,3.042a3.325,3.325,0,1,0,3.324-3.433A3.383,3.383,0,0,0,34.306,368.59Zm4.916-4.8-0.433-25.143H36.47l-0.433,25.143A4.749,4.749,0,0,1,39.222,363.786Zm0.642-32.557a0.09,0.09,0,0,0-.05-0.081,5.012,5.012,0,0,0-4.369,0,0.091,0.091,0,0,0-.05.081v5.427a0.336,0.336,0,0,0,.331.341h3.809a0.336,0.336,0,0,0,.33-0.341v-5.427Zm-6.035,51.856h7.6a0.811,0.811,0,0,1,.8.823v1.46a0.8,0.8,0,1,1-1.594,0v-0.636H34.626v0.636a0.8,0.8,0,1,1-1.594,0v-1.46A0.811,0.811,0,0,1,33.829,383.085Z" transform="translate(-25 -329)"/>
</svg>
