<svg xmlns="http://www.w3.org/2000/svg" width="55" height="44" viewBox="0 0 55 44">
  <defs>
    <style>
      .cls-1 {
        fill: #fa7124;
        fill-rule: evenodd;
      }
    </style>
  </defs>
  <path class="cls-1" d="M279.167,289.417h-3.745a5.5,5.5,0,0,1-10.844,0h-12.99a5.5,5.5,0,0,1-10.843,0H237a1.839,1.839,0,0,1-1.833-1.834V270.125a10.083,10.083,0,1,1,11-10.042c0,0.31-.015.615-0.042,0.917h14.708a1.839,1.839,0,0,1,1.834,1.833v2.75h8.616a2.657,2.657,0,0,1,2.659,2.109l2.291,9.166,3.575,1.467A1.791,1.791,0,0,1,281,280.067v7.516A1.839,1.839,0,0,1,279.167,289.417ZM270,292.166a3.667,3.667,0,1,0-3.667-3.666A3.677,3.677,0,0,0,270,292.166Zm-23.833,0A3.667,3.667,0,1,0,242.5,288.5,3.677,3.677,0,0,0,246.167,292.166Zm-10.084-40.333a8.25,8.25,0,0,0,0,16.5c0.133,0,.266,0,0.4-0.01,0.052,0,.1-0.006.154-0.01,0.078,0,.156-0.01.233-0.017s0.131-.014.2-0.022l0.18-.022,0.223-.034,0.139-.025c0.083-.015.167-0.031,0.25-0.049l0.088-.021a8.219,8.219,0,0,0,1.59-.537l0.029-.012c0.091-.042.181-0.087,0.271-0.132l0.064-.032c0.082-.043.163-0.086,0.243-0.131l0.088-.051c0.073-.042.146-0.085,0.217-0.129l0.115-.073c0.062-.04.125-0.08,0.186-0.122s0.124-.087.185-0.131c0.036-.026.073-0.051,0.109-0.078,0.1-.076.2-0.154,0.3-0.234l0.022-.019c0.091-.076.182-0.154,0.27-0.233l0.036-.034,0.089-.085a0.809,0.809,0,0,1,.418-0.422l0.007-.008,0.036-.039c0.075-.083.148-0.168,0.219-0.254,0.012-.014.024-0.027,0.035-0.041q0.1-.128.2-0.261l0.037-.048c0.061-.082.119-0.165,0.177-0.249l0.051-.073c0.031-.047.06-0.095,0.091-0.143a8.032,8.032,0,0,0,1.119-2.819,1.04,1.04,0,0,1,.051-0.172,8.446,8.446,0,0,0,.132-1.478A8.215,8.215,0,0,0,236.083,251.833Zm24.75,14.667v-3.667H245.8a9.645,9.645,0,0,1-1.238,2.75h10.771a0.917,0.917,0,1,1,0,1.834H243.021a10.059,10.059,0,0,1-3.731,2.234,10.673,10.673,0,0,1-2.29.516v5.5h15.583a8.215,8.215,0,0,0,8.25-8.25V266.5Zm18.334,13.475-4.034-1.558h-7.608a3.052,3.052,0,0,1-3.025-3.025v-4.309a0.917,0.917,0,0,1,1.833,0v4.309a1.213,1.213,0,0,0,1.192,1.191h6.763L272.2,268.15a0.986,0.986,0,0,0-.917-0.733h-8.616A10.055,10.055,0,0,1,252.583,277.5H237v10.083h3.745a5.528,5.528,0,0,1,3.163-4.093l0.109-.05,0.069-.028c0.06-.025.12-0.049,0.18-0.071l0.049-.018c0.068-.024.135-0.047,0.2-0.069l0.044-.014c0.07-.021.14-0.041,0.211-0.06l0.047-.012c0.07-.018.14-0.034,0.211-0.049l0.053-.011c0.069-.014.137-0.026,0.207-0.037l0.061-.01c0.067-.01.134-0.019,0.2-0.026l0.068-.008c0.068-.007.136-0.011,0.2-0.016l0.068,0c0.09,0,.18-0.007.272-0.007s0.181,0,.271.007l0.068,0c0.068,0,.136.009,0.2,0.016l0.068,0.008c0.068,0.007.135,0.016,0.2,0.026l0.062,0.01c0.069,0.011.138,0.023,0.206,0.037l0.053,0.011c0.071,0.015.141,0.031,0.211,0.049l0.047,0.012c0.071,0.019.141,0.039,0.211,0.06l0.044,0.014q0.1,0.033.2,0.069l0.049,0.018c0.06,0.022.12,0.046,0.18,0.071l0.069,0.028,0.11,0.05a5.531,5.531,0,0,1,3.162,4.093h12.99a5.531,5.531,0,0,1,3.163-4.093l0.109-.05,0.069-.028c0.06-.025.12-0.049,0.18-0.071l0.049-.018c0.068-.024.135-0.047,0.2-0.069l0.044-.014c0.07-.021.14-0.041,0.211-0.06l0.047-.012c0.07-.018.14-0.034,0.211-0.049l0.053-.011c0.069-.014.137-0.026,0.207-0.037l0.061-.01c0.067-.01.134-0.018,0.2-0.026l0.069-.008c0.067-.007.135-0.011,0.2-0.016l0.067,0c0.09,0,.18-0.007.272-0.007s0.181,0,.271.007l0.068,0c0.068,0,.136.009,0.2,0.016l0.068,0.008c0.068,0.008.135,0.016,0.2,0.026l0.062,0.01c0.069,0.011.138,0.023,0.206,0.037l0.053,0.011c0.071,0.015.141,0.031,0.211,0.049l0.047,0.012c0.071,0.019.141,0.039,0.211,0.06l0.045,0.014c0.068,0.022.136,0.045,0.2,0.069l0.049,0.018c0.061,0.022.12,0.046,0.18,0.071l0.069,0.028,0.11,0.05a5.533,5.533,0,0,1,3.163,4.093h3.745v-7.608Zm-11.917,2.108h-1.833a0.917,0.917,0,1,1,0-1.833h1.833A0.917,0.917,0,1,1,267.25,282.083Zm-13.75-9.166H240.667a0.917,0.917,0,1,1,0-1.834H253.5A0.917,0.917,0,1,1,253.5,272.917ZM238.833,261h-2.75a0.866,0.866,0,0,1-.916-0.917v-5.5a0.917,0.917,0,0,1,1.833,0v4.584h1.833A0.917,0.917,0,1,1,238.833,261Zm7.334,25.666a1.834,1.834,0,1,1-1.834,1.834A1.839,1.839,0,0,1,246.167,286.666Zm23.833,0a1.834,1.834,0,1,1-1.833,1.834A1.839,1.839,0,0,1,270,286.666Z" transform="translate(-226 -250)"/>
</svg>
