<svg xmlns="http://www.w3.org/2000/svg" width="52" height="56" viewBox="0 0 52 56">
  <defs>
    <style>
      .cls-1 {
        fill: #fa5e31;
        fill-rule: evenodd;
      }
    </style>
  </defs>
  <path id="_2" data-name="2" class="cls-1" d="M108.009,133.973L109.274,132l12.939,8.205,13.27,34.5a6.687,6.687,0,0,1,4.017,1.734l19.629-7.682,0.862,2.179-19.022,7.444a6.59,6.59,0,0,1,.7,2.963,6.694,6.694,0,1,1-8.608-6.38l-12.77-33.195-12.284-7.791h0Zm22.627,47.366a4.341,4.341,0,1,0,4.341-4.318,4.335,4.335,0,0,0-4.341,4.318h0Zm26.057-14.96-18.141,6.985a1.187,1.187,0,0,1-1.522-.668l-6.45-16.581a1.156,1.156,0,0,1,.673-1.514l18.141-6.986a1.179,1.179,0,0,1,1.522.669l6.45,16.58a1.177,1.177,0,0,1-.673,1.515h0Zm-7.547-16.157L133.2,156.361l5.6,14.4,15.947-6.139-5.6-14.4h0Zm-0.568-4.342-18.141,6.986a1.183,1.183,0,0,1-1.522-.669l-3.062-7.872a1.175,1.175,0,0,1,.673-1.515l18.141-6.985a1.178,1.178,0,0,1,1.521.668l3.063,7.873a1.158,1.158,0,0,1-.673,1.514h0Zm-4.16-7.449-15.946,6.139,2.213,5.689,15.947-6.139-2.214-5.689h0Z" transform="translate(-108 -132)"/>
</svg>
