<svg xmlns="http://www.w3.org/2000/svg" width="47" height="47" viewBox="0 0 47 47">
  <defs>
    <style>
      .cls-1 {
        fill: #fa5e31;
        fill-rule: evenodd;
      }
    </style>
  </defs>
  <path id="_2" data-name="2" class="cls-1" d="M131.117,52.883A23.5,23.5,0,1,0,138,69.5a23.346,23.346,0,0,0-6.883-16.617h0ZM114.5,91.128A21.628,21.628,0,1,1,136.128,69.5,21.652,21.652,0,0,1,114.5,91.128h0Zm18.922-17.76a0.935,0.935,0,0,0-1.138.676,18.222,18.222,0,0,1-2.583,5.74,0.936,0.936,0,1,0,1.55,1.051,20.072,20.072,0,0,0,2.847-6.329,0.936,0.936,0,0,0-.676-1.138h0Zm0.365-4.8a0.936,0.936,0,0,0-.936.936c0,0.267-.006.537-0.018,0.8a0.937,0.937,0,0,0,.9.976h0.041a0.936,0.936,0,0,0,.935-0.9c0.013-.292.019-0.589,0.019-0.883a0.936,0.936,0,0,0-.936-0.936h0ZM114.5,61.87a3.281,3.281,0,0,0-3.277,3.277V81.437a3.277,3.277,0,0,0,6.554,0V65.146A3.281,3.281,0,0,0,114.5,61.87h0Zm1.4,19.568a1.4,1.4,0,1,1-2.808,0V65.146a1.4,1.4,0,1,1,2.808,0V81.437h0Zm0.912-26.193a3.277,3.277,0,1,0,.961,2.318,3.3,3.3,0,0,0-.961-2.318h0Zm-1.322,3.311a1.406,1.406,0,1,1,.41-0.993,1.42,1.42,0,0,1-.41.993h0Z" transform="translate(-91 -46)"/>
</svg>
