<svg xmlns="http://www.w3.org/2000/svg" width="59" height="55.063" viewBox="0 0 59 55.063">
  <defs>
    <style>
      .cls-1 {
        fill: #fa5e31;
        fill-rule: evenodd;
      }
    </style>
  </defs>
  <path id="_3" data-name="3" class="cls-1" d="M213.126,60.452a4.365,4.365,0,0,0,.108-0.959v-7.5c0-6.5-14.229-10.007-27.617-10.007S158,45.489,158,51.988a4.331,4.331,0,0,0,.08.824,1.237,1.237,0,0,0-.08.427v6.254c0,2.079,1.458,3.852,3.877,5.3a4.27,4.27,0,0,0-.111.952,4.333,4.333,0,0,0,.08.824,1.237,1.237,0,0,0-.08.427v6.254a4.391,4.391,0,0,0,.325,1.652c-2.317,1.71-2.836,3.422-2.836,4.6a4.415,4.415,0,0,0,.08.824,1.236,1.236,0,0,0-.08.427v6.254c0,6.5,14.229,10.007,27.617,10.007s27.617-3.507,27.617-10.007V79.507a4.356,4.356,0,0,0-.327-1.639c1.791-1.312,2.838-2.853,2.838-4.615V65.747c0-1.377-.693-3.378-3.874-5.3h0ZM167.374,46.984a60.256,60.256,0,0,1,18.243-2.5,60.256,60.256,0,0,1,18.243,2.5c4.3,1.427,6.863,3.3,6.863,5s-2.565,3.577-6.863,5a60.253,60.253,0,0,1-18.243,2.5,60.253,60.253,0,0,1-18.243-2.5c-4.3-1.427-6.863-3.3-6.863-5s2.565-3.577,6.863-5h0Zm43.349,9.371v3.139c0,1.446-1.846,3.008-5.021,4.32V58.995a18.468,18.468,0,0,0,5.021-2.64h0Zm-7.532,3.454v4.9a44.3,44.3,0,0,1-5.021,1.214V60.945a49.99,49.99,0,0,0,5.021-1.136h0Zm-7.531,1.526v5c-1.611.225-3.291,0.4-5.022,0.507V61.832c1.7-.11,3.385-0.277,5.022-0.5h0Zm-7.532.62v5Q186.885,67,185.617,67t-2.511-.04v-5q1.257,0.041,2.511.041t2.511-.041h0Zm-7.532-.122v5.006c-1.731-.112-3.411-0.282-5.022-0.507v-5c1.637,0.221,3.321.387,5.022,0.5h0Zm-7.532-.887v4.979a44.214,44.214,0,0,1-5.021-1.214v-4.9a49.962,49.962,0,0,0,5.021,1.136h0Zm-12.553-1.452V56.355a18.468,18.468,0,0,0,5.021,2.64v4.819c-3.175-1.312-5.021-2.874-5.021-4.32h0Zm3.766,10.62a18.471,18.471,0,0,0,5.021,2.64v4.819c-3.175-1.312-5.021-2.874-5.021-4.32V70.114h0Zm2.51,21.218c-3.175-1.312-5.021-2.874-5.021-4.32V83.873a18.483,18.483,0,0,0,5.021,2.64v4.819h0Zm7.532,2.11a44.317,44.317,0,0,1-5.021-1.214v-4.9a50.072,50.072,0,0,0,5.021,1.136v4.979h0Zm7.532,0.914c-1.731-.112-3.411-0.282-5.021-0.507v-5c1.636,0.221,3.32.387,5.021,0.5v5.006h0Zm7.532,0.121q-1.244.039-2.511,0.04t-2.51-.04v-5q1.256,0.041,2.51.041t2.511-.041v5h0Zm7.532-.628c-1.611.225-3.291,0.4-5.021,0.507V89.351c1.7-.11,3.385-0.277,5.021-0.5v5h0Zm7.532-1.621a44.3,44.3,0,0,1-5.021,1.214V88.463a50.045,50.045,0,0,0,5.021-1.136v4.9h0Zm7.532-5.216c0,1.445-1.847,3.008-5.021,4.32V86.513a18.486,18.486,0,0,0,5.021-2.64v3.139h0Zm-6.863-2.5a60.268,60.268,0,0,1-18.244,2.5,60.256,60.256,0,0,1-18.243-2.5c-4.3-1.427-6.863-3.3-6.863-5a3.642,3.642,0,0,1,1.756-2.55c4.2,4.117,15.294,6.3,25.861,6.3,8.451,0,17.235-1.4,22.566-4.063a1.821,1.821,0,0,1,.03.311c0,1.706-2.566,3.577-6.863,5h0Zm-33.307-6.043v-4.9A50.045,50.045,0,0,0,176.83,74.7v4.979a44.192,44.192,0,0,1-5.021-1.214h0Zm7.531,1.621v-5c1.637,0.221,3.321.387,5.022,0.5V80.6c-1.731-.112-3.411-0.282-5.022-0.507h0Zm7.532,0.627v-5q1.257,0.041,2.511.041t2.511-.041v5q-1.245.039-2.511,0.04t-2.511-.04h0ZM194.4,80.6V75.591c1.7-.11,3.385-0.277,5.021-0.5v5c-1.61.225-3.29,0.4-5.021,0.507h0Zm7.532-.914V74.7a50.045,50.045,0,0,0,5.021-1.136v4.9a44.3,44.3,0,0,1-5.021,1.214h0Zm12.553-6.43c0,1.445-1.846,3.008-5.021,4.32V72.754a18.471,18.471,0,0,0,5.021-2.64v3.139h0Zm-6.863-2.5a60.253,60.253,0,0,1-18.243,2.5,60.253,60.253,0,0,1-18.243-2.5c-4.076-1.354-6.59-3.106-6.839-4.739,5.391,2.29,13.5,3.487,21.316,3.487,11.005,0,22.576-2.37,26.347-6.824,1.635,1.012,2.525,2.087,2.525,3.071,0,1.706-2.565,3.577-6.863,5h0Z" transform="translate(-158 -41.969)"/>
</svg>
