<svg xmlns="http://www.w3.org/2000/svg" width="42.938" height="51" viewBox="0 0 42.938 51">
  <defs>
    <style>
      .cls-1 {
        fill: #fa5e31;
        fill-rule: evenodd;
      }
    </style>
  </defs>
  <path id="_3" data-name="3" class="cls-1" d="M212.12,172.266a26.177,26.177,0,0,1-4.175-2.644v-2.308A13.106,13.106,0,0,0,214.1,158.3a4.488,4.488,0,0,0,3.515-4.171c0-1.656-1.233-2.81-3.222-3.11v-1.652c0.017-.5.144-6.792-3.861-10.915a13.556,13.556,0,0,0-18.074.007c-4,4.119-3.863,10.4-3.845,10.908v1.653c-1.989.3-3.222,1.454-3.222,3.109A4.49,4.49,0,0,0,188.9,158.3a13.106,13.106,0,0,0,6.152,9.017v2.308a26.152,26.152,0,0,1-4.178,2.645c-10.63,3.42-10.856,9.729-10.86,10v2.673A1.069,1.069,0,0,0,181.091,186h40.818a1.069,1.069,0,0,0,1.074-1.063v-2.662c0-.269-0.159-6.62-10.863-10.009h0Zm2.27-19.092a1.125,1.125,0,0,1,1.074.951,2.353,2.353,0,0,1-1.093,1.786c0.011-.245.019-2.737,0.019-2.737h0Zm-26.854.951a1.125,1.125,0,0,1,1.074-.951s0.008,2.492.019,2.737a2.353,2.353,0,0,1-1.093-1.786h0Zm6.469-14.2a11.419,11.419,0,0,1,14.966-.015c2.559,2.627,3.123,6.494,3.242,8.338a22.926,22.926,0,0,1-10.629-3.491,1.084,1.084,0,0,0-1.114-.077,1.062,1.062,0,0,0-.581.944,1.729,1.729,0,0,1-1.144.964,15.533,15.533,0,0,1-3.6,1.043,43.737,43.737,0,0,1-4.356.57c0.12-1.854.683-5.66,3.22-8.276h0Zm-3.116,17.227a15.755,15.755,0,0,1-.131-1.966v-4.85a46.106,46.106,0,0,0,4.767-.614c3.082-.58,5.05-1.416,5.947-2.533a24.933,24.933,0,0,0,10.77,3.189v4.808a15.755,15.755,0,0,1-.131,1.966,11.062,11.062,0,0,1-5.8,8.626,11.1,11.1,0,0,1-9.619,0,11.06,11.06,0,0,1-5.8-8.626h0ZM205.8,168.3v1.349a7.767,7.767,0,0,1-2.119,1.5,4.9,4.9,0,0,1-4.363,0,7.749,7.749,0,0,1-2.112-1.494V168.3a13.5,13.5,0,0,0,8.593,0h0Zm-23.632,15.577V182.3a5.972,5.972,0,0,1,1.221-2.866c1.983-2.741,5.575-4.327,8.239-5.176a33.519,33.519,0,0,0,4.467-2.729,10.117,10.117,0,0,0,1.45,1.071l-1.358,4.03a1.058,1.058,0,0,0,0,.672l2.214,6.57H182.165Zm18.5,0-2.327-6.906,1.173-3.481a6.911,6.911,0,0,0,3.982,0l1.173,3.481-2.327,6.906h-1.674Zm20.172,0H204.6l2.214-6.57a1.058,1.058,0,0,0,0-.672l-1.359-4.031a10.153,10.153,0,0,0,1.451-1.07,33.6,33.6,0,0,0,4.472,2.731c4.854,1.521,7.169,3.645,8.257,5.158a5.862,5.862,0,0,1,1.2,2.874v1.58h0Zm-12.353-4.781H216v2.125h-7.519v-2.125h0Z" transform="translate(-180.031 -135)"/>
</svg>
