<svg xmlns="http://www.w3.org/2000/svg" width="49.844" height="56.312" viewBox="0 0 49.844 56.312">
  <defs>
    <style>
      .cls-1 {
        fill: #fa5e31;
        fill-rule: evenodd;
      }
    </style>
  </defs>
  <path id="_3" data-name="3" class="cls-1" d="M306.452,238.643c-1.776,1.776-10.557,2.072-12.722,4.237-4.532,4.532.229,13.913-4.236,18.378-4.227,4.227-9.446,7.028-13.984,4.085l-9.367,9.367a1,1,0,0,1-1.415-1.414l9.215-9.215c-0.51-.51-0.977-0.976-1.414-1.414l-7.8,7.8a1,1,0,0,1-1.414-1.414l7.8-7.8-1.414-1.414-6.386,6.386a1,1,0,1,1-1.414-1.414l6.386-6.387-0.707-.707a7.974,7.974,0,0,1-.708-0.706l-4.971,4.971a1,1,0,0,1-1.414-1.414l5.215-5.215c-0.942-1.746-1.405-4.252,1.168-6.826l25.441-25.44s6.948-7.186,14.138,0S308.229,236.867,306.452,238.643Zm-1.418-14.138c-4.975-4.976-11.31,0-11.31,0L268.99,249.235c-3.5,3.5,0,7.069,0,7.069l5.657,5.657c4.046,4.045,8.819,2.5,12.724-1.41,4.651-4.651-.235-13.908,4.236-18.378,4.81-4.81,11.439-2.954,14.136-5.651C307.067,235.2,310.265,229.735,305.034,224.505Zm-20.507-.707a3,3,0,1,1,4.243,0A3,3,0,0,1,284.527,223.8Zm2.829-2.828a1,1,0,1,0,0,1.414A1,1,0,0,0,287.356,220.97Zm-9.193,9.192a3,3,0,1,1,4.243,0A3,3,0,0,1,278.163,230.162Zm2.829-2.828a1,1,0,1,0,0,1.414A1,1,0,0,0,280.992,227.334Zm-9.192,9.192a3,3,0,1,1,4.242,0A3,3,0,0,1,271.8,236.526Zm2.828-2.828a1,1,0,1,0,0,1.414A1,1,0,0,0,274.628,233.7Zm-9.192,9.192a3,3,0,1,1,4.242,0A3,3,0,0,1,265.436,242.89Zm2.828-2.828a1,1,0,1,0,0,1.414A1,1,0,0,0,268.264,240.062Z" transform="translate(-260.219 -218.688)"/>
</svg>
