<svg xmlns="http://www.w3.org/2000/svg" width="42" height="62" viewBox="0 0 42 62">
  <defs>
    <style>
      .cls-1 {
        fill: #fa5e31;
        fill-rule: evenodd;
      }
    </style>
  </defs>
  <path id="_4" data-name="4" class="cls-1" d="M274.156,143.28a10.874,10.874,0,0,0-10.841,10.678,10.752,10.752,0,0,0-4.936-1.2h-0.986v-8.274a17.632,17.632,0,0,0-6.3-13.508H269.64a17.629,17.629,0,0,0-6.3,13.508,0.986,0.986,0,1,0,1.972,0,15.63,15.63,0,0,1,7.758-13.508h3.679a0.99,0.99,0,0,0,0-1.979H243.983a0.99,0.99,0,0,0,0,1.979h3.679a15.629,15.629,0,0,1,7.759,13.508v8.274H244.969v-0.33a0.986,0.986,0,1,0-1.972,0v6.6a0.986,0.986,0,1,0,1.972,0V158.7h10.452v17.462a14.791,14.791,0,1,0,29.581,0v-22a10.876,10.876,0,0,0-10.846-10.883h0Zm-29.187,13.439V154.74h13.41a8.9,8.9,0,0,1,8.875,8.9v5.013a4.93,4.93,0,1,0,9.86,0v-6.992a4.943,4.943,0,0,0-4.93-4.946,4.889,4.889,0,0,0-2.958.992v-2.3a6.9,6.9,0,0,1,9.86,6.255v6.992a6.9,6.9,0,1,1-13.805,0v-5.013a6.921,6.921,0,0,0-6.9-6.925h-13.41Zm27.215,5.936h2.958v1.517h-2.958a0.989,0.989,0,0,0,0,1.978h2.958v1.517h-2.958a0.99,0.99,0,0,0,0,1.979h2.788a2.956,2.956,0,0,1-5.746-.989v-6.992a2.956,2.956,0,0,1,5.746-.989h-2.788a0.99,0.99,0,0,0,0,1.979h0Zm-2.871-9.414a4.928,4.928,0,0,1,9.773.922v1.914a8.837,8.837,0,0,0-9.773-2.836h0Zm9.773,21v1.915a4.928,4.928,0,0,1-9.773.92,8.833,8.833,0,0,0,9.773-2.835h0Zm-8.874,14.776a12.854,12.854,0,0,1-12.819-12.861V158.7h0.986a4.944,4.944,0,0,1,4.93,4.947v12.515a10.877,10.877,0,0,0,10.847,10.883,10.747,10.747,0,0,0,3.934-.744,12.722,12.722,0,0,1-7.878,2.723h0Zm12.819-12.861a8.875,8.875,0,1,1-17.75,0v-1.915a8.993,8.993,0,0,0,1.973,1.812v0.1a6.9,6.9,0,1,0,13.8,0v-22a6.9,6.9,0,1,0-13.8,0V157.4a10.947,10.947,0,0,0-1.952-2.125l-0.02-1.12a8.875,8.875,0,1,1,17.749.009v22h0Z" transform="translate(-243 -129)"/>
</svg>
