<svg xmlns="http://www.w3.org/2000/svg" width="57" height="63" viewBox="0 0 57 63">
  <defs>
    <style>
      .cls-1 {
        fill: #fa5e31;
        fill-rule: evenodd;
      }
    </style>
  </defs>
  <path id="_4" data-name="4" class="cls-1" d="M359.575,225.678a3.738,3.738,0,1,0-3.763-3.737,3.755,3.755,0,0,0,3.763,3.737h0Zm0-5.339a1.6,1.6,0,1,1-1.613,1.6,1.609,1.609,0,0,1,1.613-1.6h0Zm-22.581,5.339a3.738,3.738,0,1,0-3.764-3.737,3.755,3.755,0,0,0,3.764,3.737h0Zm0-5.339a1.6,1.6,0,1,1-1.613,1.6,1.61,1.61,0,0,1,1.613-1.6h0Zm0,45.915a3.738,3.738,0,1,0,3.763,3.738,3.755,3.755,0,0,0-3.763-3.738h0Zm0,5.339a1.6,1.6,0,1,1,1.613-1.6,1.609,1.609,0,0,1-1.613,1.6h0Zm39.249-38.423V215H330v61.932h25.85A16,16,0,0,0,361.726,278a15.341,15.341,0,0,0,7.014-1.585A15.365,15.365,0,0,0,375.705,278c6.331,0,11.291-3.283,11.291-7.475v-29.9c0-4.072-4.683-7.276-10.753-7.458h0Zm8.6,7.457c0,2.894-4.186,5.339-9.14,5.339s-9.14-2.445-9.14-5.339a3.025,3.025,0,0,1,.047-0.529c0.009-.05.027-0.1,0.039-0.148a3.211,3.211,0,0,1,.1-0.37c0.019-.055.048-0.108,0.071-0.163a3.232,3.232,0,0,1,.155-0.341c0.033-.062.076-0.121,0.114-0.182,0.061-.1.121-0.2,0.193-0.3,0.058-.079.127-0.156,0.193-0.234s0.12-.152.189-0.225c0.105-.114.224-0.223,0.344-0.332,0.038-.035.071-0.071,0.11-0.1a7.717,7.717,0,0,1,1.147-.816,10.1,10.1,0,0,1,1.349-.657c0.027-.011.058-0.021,0.087-0.033a12.083,12.083,0,0,1,1.494-.477,0.507,0.507,0,0,0,.056-0.013,13.628,13.628,0,0,1,1.377-.261c0.019,0,.037-0.007.057-0.009,0.5-.066,1-0.109,1.518-0.126l0.5-.018c4.952,0,9.135,2.445,9.135,5.339h0Zm-0.07,26.244c-0.018.09-.045,0.179-0.072,0.268s-0.048.167-.079,0.248-0.077.174-.119,0.261-0.075.16-.12,0.239-0.1.167-.16,0.25-0.1.155-.159,0.229-0.133.162-.2,0.241-0.123.146-.192,0.216-0.16.155-.243,0.231-0.144.137-.223,0.2-0.185.145-.279,0.217-0.165.127-.253,0.189-0.208.134-.314,0.2-0.183.118-.28,0.174-0.228.123-.344,0.184-0.2.108-.306,0.158c-0.122.058-.25,0.111-0.377,0.166-0.107.047-.213,0.095-0.324,0.138-0.134.053-.275,0.1-0.413,0.149-0.112.039-.221,0.081-0.336,0.117-0.143.046-.293,0.086-0.441,0.126-0.117.033-.231,0.069-0.35,0.1-0.154.039-.313,0.07-0.47,0.1-0.12.026-.236,0.054-0.357,0.076-0.171.031-.346,0.054-0.521,0.08-0.112.017-.224,0.037-0.339,0.051-0.195.024-.394,0.039-0.592,0.055-0.1.008-.2,0.02-0.3,0.026-0.3.019-.6,0.029-0.909,0.029-0.421,0-.835-0.023-1.245-0.058-0.112-.009-0.223-0.02-0.334-0.032-0.345-.036-0.687-0.084-1.024-0.145l-0.151-.024a5.174,5.174,0,0,0,.066-0.809v-1.281c0.075,0.012.151,0.016,0.226,0.027,0.291,0.042.583,0.078,0.877,0.1,0.121,0.012.242,0.025,0.363,0.033,0.406,0.03.812,0.05,1.222,0.05,0.44,0,.871-0.02,1.3-0.051,0.137-.009.27-0.026,0.406-0.039,0.287-.028.571-0.06,0.85-0.1,0.152-.023.3-0.05,0.451-0.075,0.258-.046.512-0.1,0.762-0.154,0.146-.033.29-0.066,0.433-0.1,0.258-.066.507-0.141,0.756-0.22,0.12-.038.243-0.072,0.36-0.113,0.344-.119.68-0.247,1-0.388l0.039-.015c0.332-.148.648-0.309,0.954-0.479,0.1-.054.188-0.113,0.282-0.17,0.2-.121.4-0.245,0.592-0.375,0.1-.071.2-0.143,0.3-0.216,0.173-.129.337-0.263,0.5-0.4,0.048-.042.1-0.078,0.15-0.12,0,0.059-.009.119-0.016,0.177-0.011.084-.021,0.169-0.038,0.254h0Zm-13.979,0c-0.018.09-.045,0.179-0.072,0.268s-0.048.167-.079,0.248-0.077.174-.119,0.261-0.075.16-.12,0.239-0.105.167-.16,0.25-0.1.155-.16,0.229-0.132.162-.2,0.241-0.123.146-.192,0.216-0.16.155-.243,0.231-0.144.137-.223,0.2-0.185.145-.279,0.217-0.165.127-.253,0.189-0.208.134-.314,0.2-0.183.118-.28,0.174-0.228.123-.344,0.184-0.2.108-.306,0.158c-0.122.058-.25,0.111-0.377,0.166-0.107.047-.213,0.095-0.324,0.138-0.134.053-.275,0.1-0.413,0.149-0.112.039-.221,0.081-0.336,0.117-0.143.046-.293,0.086-0.441,0.126-0.117.033-.231,0.069-0.35,0.1-0.154.039-.313,0.07-0.47,0.1-0.12.026-.236,0.054-0.357,0.076-0.171.031-.347,0.054-0.521,0.08-0.113.017-.224,0.037-0.339,0.051-0.195.024-.394,0.039-0.592,0.055-0.1.008-.2,0.02-0.3,0.026q-0.449.029-.908,0.029t-0.91-.028c-0.1-.006-0.2-0.018-0.3-0.026-0.2-.016-0.4-0.031-0.591-0.055-0.115-.014-0.226-0.034-0.34-0.051-0.174-.026-0.349-0.049-0.52-0.08-0.121-.023-0.237-0.051-0.356-0.076-0.158-.033-0.317-0.065-0.472-0.1-0.12-.029-0.233-0.065-0.349-0.1-0.148-.041-0.3-0.081-0.443-0.127-0.115-.036-0.223-0.078-0.335-0.117-0.139-.049-0.279-0.095-0.413-0.149-0.112-.043-0.216-0.092-0.325-0.138-0.126-.055-0.255-0.108-0.376-0.166s-0.2-.106-0.307-0.158-0.233-.119-0.344-0.184-0.187-.115-0.279-0.174-0.214-.131-0.314-0.2-0.169-.125-0.253-0.189-0.192-.142-0.28-0.217-0.149-.135-0.222-0.2-0.167-.152-0.243-0.231-0.129-.144-0.192-0.215-0.139-.159-0.2-0.242-0.106-.151-0.158-0.228-0.113-.167-0.161-0.251-0.082-.159-0.121-0.239-0.084-.173-0.118-0.261-0.055-.164-0.08-0.248-0.053-.177-0.072-0.268-0.026-.17-0.037-0.256c-0.008-.059-0.012-0.117-0.016-0.177,0.046,0.042.1,0.079,0.148,0.12,0.159,0.137.325,0.271,0.5,0.4,0.1,0.073.194,0.145,0.295,0.215,0.189,0.131.388,0.255,0.592,0.376,0.095,0.057.185,0.116,0.283,0.17,0.305,0.17.622,0.331,0.954,0.479a0.365,0.365,0,0,1,.035.014q0.484,0.213,1,.389c0.117,0.041.239,0.075,0.36,0.114,0.247,0.077.5,0.152,0.756,0.219,0.143,0.037.287,0.07,0.433,0.1,0.25,0.057.5,0.108,0.761,0.154,0.15,0.026.3,0.052,0.452,0.074,0.278,0.042.562,0.073,0.849,0.1,0.136,0.013.269,0.03,0.406,0.039,0.428,0.033.859,0.053,1.3,0.053s0.871-.02,1.3-0.051c0.137-.009.27-0.026,0.406-0.039,0.287-.028.571-0.06,0.85-0.1,0.152-.023.3-0.05,0.451-0.075,0.258-.046.512-0.1,0.762-0.154,0.146-.033.29-0.066,0.433-0.1,0.258-.066.507-0.141,0.756-0.22,0.12-.038.243-0.072,0.36-0.113,0.344-.119.68-0.247,1-0.388l0.039-.015c0.332-.148.648-0.309,0.954-0.479,0.1-.054.188-0.113,0.282-0.17,0.2-.121.4-0.245,0.592-0.375,0.1-.071.2-0.143,0.3-0.216,0.173-.129.337-0.263,0.5-0.4,0.048-.042.1-0.078,0.15-0.12,0,0.059-.009.119-0.016,0.177-0.011.084-.021,0.169-0.038,0.254h0Zm-33.265-31.355v-6.655a6.977,6.977,0,0,0,6.432-6.387h8.642a6.977,6.977,0,0,0,6.432,6.387v6.655c-0.017-.016-0.034-0.03-0.05-0.046-0.181-.182-0.374-0.35-0.564-0.522s-0.363-.341-0.553-0.5c-0.07-.058-0.145-0.107-0.216-0.162a14.959,14.959,0,0,0-7.731-3.177c-0.035,0-.069-0.012-0.1-0.016-0.5-.05-1.017-0.077-1.535-0.077s-1.029.027-1.535,0.077c-0.036,0-.069.012-0.1,0.016a14.951,14.951,0,0,0-7.731,3.177c-0.071.055-.146,0.1-0.216,0.162-0.191.158-.37,0.332-0.553,0.5s-0.384.34-.564,0.522c-0.016.016-.034,0.03-0.05,0.046h0Zm25.938,12.689,0.048,0a14.308,14.308,0,0,1,1.674.307,12.18,12.18,0,0,1,1.347.418c0.21,0.078.414,0.162,0.613,0.249,0.109,0.048.224,0.094,0.329,0.145a9.271,9.271,0,0,1,.843.466c0.06,0.036.117,0.075,0.175,0.112a6.591,6.591,0,0,1,1.463,1.272c0.01,0.013.022,0.027,0.033,0.039a4.612,4.612,0,0,1,.344.486l0.036,0.056a3.931,3.931,0,0,1,.233.469c0.013,0.03.029,0.059,0.041,0.09a3.187,3.187,0,0,1,.131.446c0.009,0.038.024,0.076,0.031,0.115a2.892,2.892,0,0,1,.056.561c0,2.894-4.186,5.339-9.14,5.339s-9.14-2.445-9.14-5.339a3.179,3.179,0,0,1,.32-1.348,5.048,5.048,0,0,1,1.47-1.771c0.043-.034.087-0.068,0.133-0.1,0.188-.143.39-0.281,0.6-0.413a12.814,12.814,0,0,1,6.614-1.705,15.034,15.034,0,0,1,1.743.1h0Zm3.759-2.6c0.1,0.073.194,0.145,0.3,0.215,0.189,0.131.388,0.255,0.592,0.377,0.095,0.056.185,0.115,0.283,0.169,0.306,0.17.622,0.331,0.954,0.479,0.012,0,.024.008,0.036,0.014,0.322,0.142.658,0.271,1,.389,0.117,0.041.24,0.075,0.36,0.114,0.247,0.078.5,0.152,0.756,0.219,0.143,0.037.287,0.07,0.433,0.1q0.375,0.085.762,0.154c0.149,0.026.3,0.052,0.451,0.074,0.279,0.042.563,0.073,0.85,0.1,0.135,0.013.269,0.03,0.405,0.039,0.426,0.033.857,0.053,1.3,0.053s0.871-.02,1.3-0.051c0.137-.009.27-0.026,0.406-0.039,0.287-.028.571-0.06,0.85-0.1,0.152-.023.3-0.049,0.451-0.075,0.258-.046.512-0.1,0.762-0.154,0.146-.033.29-0.066,0.433-0.1,0.258-.066.507-0.14,0.756-0.219,0.12-.039.243-0.073,0.36-0.114,0.344-.119.68-0.247,1-0.388l0.039-.015c0.332-.148.648-0.309,0.954-0.479,0.1-.054.188-0.113,0.282-0.169,0.2-.122.4-0.246,0.592-0.376,0.1-.071.2-0.143,0.3-0.216,0.173-.129.337-0.263,0.5-0.4,0.048-.042.1-0.078,0.15-0.12,0,0.059-.009.119-0.016,0.177-0.011.086-.02,0.172-0.038,0.256s-0.045.179-.072,0.269-0.048.166-.079,0.247-0.077.174-.119,0.261-0.075.16-.12,0.239-0.105.168-.16,0.25-0.1.155-.16,0.229-0.132.162-.2,0.241-0.123.146-.192,0.216-0.16.155-.243,0.231-0.144.137-.223,0.2-0.185.145-.279,0.217-0.165.127-.253,0.189-0.208.134-.314,0.2-0.183.117-.28,0.174-0.228.122-.344,0.183-0.2.108-.306,0.158c-0.122.058-.25,0.111-0.377,0.166-0.107.047-.213,0.095-0.324,0.139-0.134.052-.275,0.1-0.413,0.148-0.112.039-.221,0.081-0.336,0.117-0.143.046-.293,0.086-0.441,0.126-0.117.033-.231,0.069-0.35,0.1-0.154.038-.313,0.069-0.47,0.1-0.12.026-.236,0.055-0.357,0.076-0.171.031-.346,0.054-0.521,0.08-0.113.017-.224,0.037-0.339,0.051-0.195.024-.394,0.039-0.592,0.055-0.1.008-.2,0.02-0.3,0.026-0.3.018-.6,0.027-0.908,0.027-0.386,0-.77-0.016-1.151-0.045-0.121-.009-0.24-0.027-0.36-0.039-0.258-.026-0.515-0.052-0.768-0.091-0.141-.021-0.277-0.052-0.417-0.078-0.227-.041-0.455-0.083-0.676-0.137-0.142-.034-0.28-0.075-0.419-0.113-0.16-.044-0.318-0.089-0.473-0.139a10.278,10.278,0,0,0-4.172-2.691,3.469,3.469,0,0,1-.7-1.831c0.049,0.045.109,0.085,0.16,0.129,0.159,0.137.325,0.271,0.5,0.4h0Zm16.659,4.487c0.1-.071.2-0.143,0.3-0.216,0.173-.129.337-0.263,0.5-0.4,0.047-.042.1-0.078,0.149-0.12,0,0.059-.009.119-0.016,0.177-0.011.086-.019,0.172-0.038,0.257s-0.045.178-.072,0.268-0.048.166-.079,0.247-0.077.174-.119,0.261-0.075.16-.12,0.239-0.1.168-.16,0.25-0.1.155-.159,0.23-0.133.161-.2,0.24-0.123.146-.192,0.217-0.16.154-.243,0.23-0.144.137-.223,0.2-0.185.145-.279,0.217-0.165.127-.253,0.189-0.208.134-.314,0.2-0.183.117-.28,0.174-0.228.122-.344,0.183-0.2.108-.306,0.158c-0.122.058-.25,0.111-0.377,0.166-0.107.047-.213,0.095-0.324,0.139-0.134.052-.275,0.1-0.413,0.148-0.112.04-.221,0.081-0.336,0.117-0.143.046-.293,0.086-0.441,0.126-0.117.034-.231,0.069-0.35,0.1-0.154.038-.313,0.069-0.47,0.1-0.12.026-.236,0.055-0.357,0.076-0.171.031-.346,0.055-0.521,0.08-0.112.017-.224,0.038-0.339,0.051-0.195.024-.394,0.039-0.592,0.055-0.1.008-.2,0.02-0.3,0.027-0.3.018-.6,0.027-0.909,0.027a14.765,14.765,0,0,1-1.607-.1c-0.158-.017-0.315-0.043-0.472-0.065-0.2-.029-0.406-0.074-0.609-0.112v-0.794a5.155,5.155,0,0,0-.052-0.7c-0.019-.146-0.054-0.288-0.086-0.432-0.013-.059-0.019-0.118-0.034-0.175,0.024,0,.049,0,0.074.009,0.3,0.05.615,0.083,0.925,0.118,0.152,0.017.3,0.041,0.456,0.054,0.465,0.038.934,0.059,1.4,0.059,0.44,0,.871-0.019,1.3-0.05,0.137-.01.27-0.027,0.406-0.04,0.287-.028.571-0.06,0.85-0.1,0.152-.023.3-0.049,0.451-0.075,0.258-.046.512-0.1,0.762-0.154,0.146-.033.29-0.066,0.433-0.1,0.258-.067.507-0.141,0.756-0.22,0.12-.039.243-0.073,0.36-0.114,0.344-.119.68-0.247,1-0.388,0.013-.006.026-0.01,0.039-0.015,0.332-.148.648-0.309,0.954-0.479,0.1-.054.188-0.113,0.282-0.169,0.2-.122.4-0.247,0.592-0.377h0Zm0,4.271c0.1-.07.2-0.143,0.3-0.216,0.173-.129.337-0.262,0.5-0.4,0.047-.042.1-0.078,0.149-0.12,0,0.059-.009.119-0.016,0.178-0.011.085-.019,0.171-0.038,0.256s-0.045.178-.072,0.268-0.048.166-.079,0.248-0.077.174-.119,0.26-0.075.16-.12,0.239-0.1.168-.16,0.25-0.1.155-.159,0.23-0.133.161-.2,0.24-0.123.146-.192,0.217-0.16.155-.243,0.23-0.144.137-.223,0.2-0.185.146-.279,0.217-0.165.127-.253,0.189-0.208.135-.314,0.2-0.183.117-.28,0.174-0.228.123-.344,0.184-0.2.107-.306,0.158c-0.122.057-.25,0.111-0.377,0.165-0.107.047-.213,0.095-0.324,0.139-0.134.052-.275,0.1-0.413,0.148-0.112.04-.221,0.081-0.336,0.118-0.143.046-.293,0.085-0.441,0.126-0.117.033-.231,0.068-0.35,0.1-0.154.038-.313,0.069-0.47,0.1-0.12.026-.236,0.055-0.357,0.076-0.171.031-.346,0.055-0.521,0.08-0.112.017-.224,0.038-0.339,0.052-0.195.023-.394,0.038-0.592,0.054-0.1.009-.2,0.02-0.3,0.027-0.3.018-.6,0.027-0.909,0.027a14.765,14.765,0,0,1-1.607-.1c-0.158-.017-0.315-0.042-0.472-0.065-0.2-.029-0.406-0.073-0.609-0.112V256.43c0.075,0.012.151,0.016,0.226,0.027q0.436,0.065.877,0.105c0.121,0.011.242,0.024,0.363,0.033,0.406,0.03.812,0.049,1.222,0.049,0.44,0,.871-0.019,1.3-0.05,0.137-.01.269-0.027,0.406-0.04,0.287-.028.571-0.06,0.85-0.1,0.152-.023.3-0.049,0.451-0.075,0.258-.046.512-0.1,0.761-0.154,0.147-.033.291-0.066,0.434-0.1,0.258-.066.507-0.141,0.756-0.22,0.12-.039.243-0.073,0.36-0.113,0.344-.12.68-0.248,1-0.389l0.039-.015c0.332-.147.648-0.309,0.954-0.478,0.1-.055.188-0.114,0.282-0.17,0.2-.122.4-0.247,0.592-0.377h0Zm0,4.271c0.1-.07.2-0.143,0.3-0.216,0.173-.129.337-0.262,0.5-0.4,0.047-.042.1-0.078,0.149-0.119,0,0.058-.009.118-0.016,0.177-0.011.085-.019,0.172-0.038,0.256s-0.045.178-.072,0.268-0.048.167-.079,0.248-0.077.174-.119,0.26-0.075.16-.12,0.239-0.1.168-.16,0.25-0.1.155-.159,0.23-0.133.161-.2,0.24-0.123.147-.192,0.217-0.16.155-.243,0.231-0.144.136-.223,0.2-0.185.145-.279,0.216-0.165.127-.253,0.189-0.208.135-.314,0.2-0.183.117-.28,0.174-0.228.123-.344,0.184-0.2.108-.306,0.158c-0.122.057-.25,0.111-0.377,0.165-0.107.047-.213,0.1-0.324,0.139-0.134.052-.275,0.1-0.413,0.148-0.112.04-.221,0.082-0.336,0.118-0.143.046-.293,0.085-0.441,0.126-0.117.033-.231,0.068-0.35,0.1-0.154.039-.313,0.07-0.47,0.1-0.12.025-.236,0.054-0.357,0.075-0.171.031-.346,0.055-0.521,0.081-0.112.017-.224,0.037-0.339,0.051-0.195.023-.394,0.038-0.592,0.054-0.1.009-.2,0.021-0.3,0.027-0.3.018-.6,0.028-0.909,0.028a15.021,15.021,0,0,1-1.607-.1c-0.158-.017-0.315-0.043-0.472-0.066-0.2-.028-0.406-0.073-0.609-0.112V260.7c0.075,0.011.151,0.016,0.226,0.026q0.436,0.065.877,0.105c0.121,0.012.242,0.024,0.363,0.033,0.406,0.03.812,0.049,1.222,0.049,0.44,0,.871-0.019,1.3-0.05,0.137-.01.269-0.027,0.406-0.04,0.287-.027.571-0.059,0.85-0.1,0.152-.022.3-0.049,0.451-0.075,0.258-.046.512-0.1,0.761-0.153,0.147-.034.291-0.067,0.434-0.1,0.258-.066.507-0.141,0.756-0.22,0.12-.038.243-0.073,0.36-0.113,0.344-.12.68-0.248,1-0.389l0.039-.015c0.332-.147.648-0.308,0.954-0.478,0.1-.055.188-0.113,0.282-0.17,0.2-.122.4-0.247,0.592-0.377h0Zm0,4.271c0.1-.07.2-0.143,0.3-0.215,0.173-.13.337-0.263,0.5-0.4,0.047-.041.1-0.078,0.149-0.119,0,0.058-.009.118-0.016,0.177-0.011.085-.019,0.172-0.038,0.256s-0.045.179-.072,0.268-0.048.167-.079,0.248-0.077.174-.119,0.26-0.075.161-.12,0.24-0.1.167-.16,0.25-0.1.154-.159,0.229-0.133.161-.2,0.24-0.123.147-.192,0.217-0.16.155-.243,0.231-0.144.136-.223,0.2-0.185.145-.279,0.216-0.165.127-.253,0.189-0.208.135-.314,0.2-0.183.118-.28,0.174-0.228.123-.344,0.184-0.2.108-.306,0.158c-0.122.058-.25,0.111-0.377,0.165-0.107.047-.213,0.1-0.324,0.139-0.134.052-.275,0.1-0.413,0.149-0.112.039-.221,0.081-0.336,0.117-0.143.046-.293,0.085-0.441,0.126-0.117.033-.231,0.068-0.35,0.1-0.154.039-.313,0.07-0.47,0.1-0.12.026-.236,0.054-0.357,0.076-0.171.031-.346,0.054-0.521,0.08-0.112.017-.224,0.037-0.339,0.051-0.195.023-.394,0.038-0.592,0.054-0.1.009-.2,0.021-0.3,0.027-0.3.018-.6,0.028-0.909,0.028a15.021,15.021,0,0,1-1.607-.1c-0.158-.017-0.315-0.043-0.472-0.065-0.2-.029-0.406-0.074-0.609-0.112v-2.076c0.075,0.011.151,0.016,0.226,0.026q0.436,0.064.877,0.1c0.121,0.012.242,0.025,0.363,0.033,0.406,0.03.812,0.049,1.222,0.049,0.44,0,.871-0.019,1.3-0.05,0.137-.01.269-0.027,0.406-0.039,0.287-.028.571-0.06,0.85-0.1,0.152-.022.3-0.049,0.451-0.075q0.387-.068.761-0.153c0.147-.033.291-0.066,0.434-0.1,0.258-.066.507-0.141,0.756-0.22,0.12-.038.243-0.072,0.36-0.113,0.344-.12.68-0.248,1-0.389l0.039-.015c0.332-.147.648-0.308,0.954-0.478,0.1-.055.188-0.113,0.282-0.17,0.2-.122.4-0.247,0.592-0.377h0Zm-13.091-.3c-0.018.09-.045,0.178-0.072,0.268s-0.048.167-.079,0.248-0.077.174-.119,0.26-0.075.161-.12,0.24-0.105.167-.16,0.25-0.1.154-.16,0.229-0.132.161-.2,0.24-0.123.147-.192,0.217-0.16.155-.243,0.231-0.144.136-.223,0.2-0.185.145-.279,0.216-0.165.127-.253,0.189-0.208.135-.314,0.2-0.183.118-.28,0.174-0.228.123-.344,0.184-0.2.108-.306,0.158c-0.122.058-.25,0.111-0.377,0.165-0.107.047-.213,0.1-0.324,0.139-0.134.053-.275,0.1-0.413,0.149-0.112.039-.221,0.081-0.336,0.117-0.143.046-.293,0.085-0.441,0.126-0.117.033-.231,0.068-0.35,0.1-0.154.039-.313,0.07-0.47,0.1-0.12.026-.236,0.054-0.357,0.076-0.171.031-.347,0.054-0.521,0.08-0.113.017-.224,0.037-0.339,0.051-0.195.023-.394,0.038-0.592,0.054-0.1.009-.2,0.021-0.3,0.027q-0.449.029-.908,0.029c-0.307,0-.61-0.01-0.91-0.028-0.1-.006-0.2-0.018-0.3-0.027-0.2-.015-0.4-0.03-0.591-0.054-0.115-.014-0.226-0.034-0.34-0.051-0.174-.026-0.349-0.049-0.52-0.08-0.121-.023-0.237-0.051-0.356-0.076-0.158-.033-0.317-0.065-0.472-0.1-0.12-.03-0.233-0.065-0.349-0.1-0.148-.041-0.3-0.081-0.443-0.127-0.115-.036-0.223-0.078-0.335-0.117-0.139-.049-0.279-0.095-0.413-0.149-0.112-.043-0.216-0.093-0.325-0.139-0.126-.054-0.255-0.107-0.376-0.165s-0.2-.106-0.307-0.158-0.233-.12-0.344-0.184-0.187-.115-0.279-0.174-0.214-.131-0.314-0.2-0.169-.125-0.253-0.189-0.192-.142-0.28-0.217-0.149-.135-0.222-0.2-0.167-.152-0.243-0.231-0.129-.144-0.192-0.215-0.139-.16-0.2-0.242-0.106-.151-0.158-0.228-0.113-.167-0.161-0.251-0.082-.159-0.121-0.239-0.084-.173-0.118-0.261-0.055-.164-0.08-0.248-0.053-.177-0.072-0.268-0.026-.171-0.037-0.256c-0.008-.059-0.012-0.117-0.016-0.177,0.046,0.041.1,0.079,0.148,0.119q0.238,0.207.5,0.4c0.1,0.072.194,0.145,0.295,0.214,0.189,0.132.388,0.256,0.592,0.377,0.095,0.057.185,0.116,0.283,0.17,0.305,0.17.622,0.331,0.954,0.478,0.012,0.006.024,0.009,0.035,0.014q0.484,0.213,1,.39c0.117,0.041.239,0.075,0.36,0.113,0.247,0.078.5,0.153,0.756,0.22,0.143,0.037.287,0.07,0.433,0.1,0.25,0.056.5,0.108,0.761,0.154,0.15,0.026.3,0.052,0.452,0.074,0.278,0.042.562,0.073,0.849,0.1,0.136,0.012.269,0.03,0.406,0.039,0.428,0.033.859,0.052,1.3,0.052s0.871-.019,1.3-0.05c0.137-.009.27-0.026,0.406-0.039,0.287-.028.571-0.06,0.85-0.1,0.152-.022.3-0.049,0.451-0.074,0.258-.046.512-0.1,0.762-0.154,0.146-.033.29-0.066,0.433-0.1,0.258-.066.507-0.141,0.756-0.22,0.12-.038.243-0.072,0.36-0.113,0.344-.119.68-0.248,1-0.389l0.039-.015c0.332-.147.648-0.308,0.954-0.478,0.1-.054.188-0.113,0.282-0.17,0.2-.121.4-0.245,0.592-0.376,0.1-.07.2-0.143,0.3-0.215,0.173-.129.337-0.263,0.5-0.4,0.048-.041.1-0.078,0.15-0.119,0,0.059-.009.118-0.016,0.177-0.011.083-.021,0.169-0.038,0.254h0Zm-21.228-3.9a12.614,12.614,0,0,1-1.284.076,13.158,13.158,0,0,1-1.5-.095c-0.159-.019-0.316-0.049-0.473-0.072-0.336-.051-0.667-0.113-1-0.19-0.178-.042-0.356-0.087-0.532-0.137-0.312-.087-0.618-0.19-0.922-0.3-0.161-.059-0.325-0.111-0.485-0.176a12.476,12.476,0,0,1-1.254-.592c-0.125-.068-0.242-0.148-0.365-0.22-0.3-.175-0.592-0.357-0.876-0.556-0.143-.1-0.281-0.206-0.42-0.312-0.276-.211-0.545-0.432-0.805-0.666-0.1-.089-0.2-0.175-0.3-0.267-0.218-.209-0.419-0.439-0.623-0.664l3.322-3.626a1.825,1.825,0,0,1,1.59-.644c0.049,0.008.1,0.019,0.148,0.032,0.162,0.126.512,0.444,0.75,0.663a12.338,12.338,0,0,0,1.279,1.084,3.4,3.4,0,0,0,2.074,1.8,4.1,4.1,0,0,0,2.537-.182v4.913c-0.116.019-.231,0.044-0.347,0.06-0.172.026-.347,0.051-0.519,0.069h0Zm-14.127-13.913c0.009-.1.02-0.195,0.031-0.292,0.039-.338.089-0.671,0.154-1,0.009-.05.016-0.1,0.027-0.149,0.079-.378.177-0.751,0.289-1.116,0.024-.077.052-0.153,0.076-0.23,0.094-.284.2-0.562,0.31-0.838,0.042-.1.083-0.2,0.127-0.305,0.128-.291.267-0.575,0.414-0.853,0.077-.144.16-0.285,0.243-0.427s0.184-.307.281-0.457l0.007-.011,3.1,3.381a3.983,3.983,0,0,0,2.9,1.334,3.658,3.658,0,0,0,1.136-.2,2.563,2.563,0,0,0,1.062-.875,2.222,2.222,0,0,1,1.605-1.062,4.308,4.308,0,0,1,2.892,1.116l1.15,1.175,0.54-1.516a4.786,4.786,0,0,1,2.213-.822,8.138,8.138,0,0,1-.157,6.4c-0.074.048-.149,0.095-0.222,0.144-0.132.09-.254,0.184-0.38,0.278-0.11.082-.222,0.162-0.326,0.248s-0.229.2-.341,0.3c-0.1.089-.2,0.174-0.287,0.266-0.106.107-.2,0.219-0.3,0.33-0.083.093-.17,0.185-0.246,0.281-0.093.115-.172,0.236-0.255,0.355-0.068.1-.141,0.193-0.2,0.292-0.079.127-.143,0.258-0.211,0.387,0,0.009-.009.016-0.013,0.025a3.643,3.643,0,0,1-2.569.836,1.369,1.369,0,0,1-.864-0.949l-0.247-.575-0.432-.048c-0.227-.168-0.671-0.575-0.952-0.832a4.72,4.72,0,0,0-1.424-1.086,3.715,3.715,0,0,0-.561-0.141,3.923,3.923,0,0,0-3.549,1.31l-3.067,3.347-0.007-.009q-0.135-.21-0.262-0.426c-0.094-.16-0.187-0.321-0.274-0.483-0.143-.27-0.277-0.543-0.4-0.824-0.046-.1-0.087-0.21-0.13-0.314-0.111-.273-0.214-0.549-0.306-0.83-0.026-.078-0.054-0.156-0.079-0.235-0.112-.365-0.21-0.736-0.289-1.114-0.011-.05-0.017-0.1-0.027-0.151-0.065-.328-0.115-0.662-0.154-1-0.011-.1-0.022-0.194-0.031-0.292-0.036-.387-0.06-0.778-0.06-1.174s0.024-.787.06-1.174h0Zm17.808,13.624c0.1,0.073.194,0.146,0.295,0.215,0.189,0.131.388,0.255,0.592,0.377,0.095,0.057.185,0.115,0.283,0.17,0.306,0.17.622,0.331,0.954,0.478,0.012,0.006.024,0.009,0.036,0.014,0.322,0.142.658,0.271,1,.39,0.117,0.041.24,0.075,0.36,0.113,0.247,0.078.5,0.153,0.756,0.22,0.143,0.036.287,0.069,0.433,0.1,0.25,0.056.5,0.107,0.762,0.153,0.149,0.027.3,0.053,0.451,0.075,0.279,0.042.563,0.073,0.85,0.1,0.135,0.013.268,0.03,0.4,0.04,0.426,0.033.857,0.052,1.3,0.052s0.871-.019,1.3-0.05c0.137-.01.27-0.027,0.406-0.039,0.287-.028.571-0.06,0.85-0.1,0.152-.022.3-0.049,0.451-0.075,0.258-.046.512-0.1,0.762-0.153,0.146-.033.29-0.067,0.433-0.1,0.258-.066.507-0.141,0.756-0.22,0.12-.038.243-0.072,0.36-0.113,0.344-.12.68-0.248,1-0.389l0.039-.015c0.332-.147.648-0.308,0.954-0.478,0.1-.055.188-0.113,0.282-0.17,0.2-.122.4-0.246,0.592-0.376,0.1-.07.2-0.143,0.3-0.216,0.173-.129.337-0.262,0.5-0.4,0.048-.041.1-0.078,0.15-0.119,0,0.058-.009.118-0.016,0.177-0.011.085-.02,0.172-0.038,0.256s-0.045.178-.072,0.268-0.048.167-.08,0.248-0.076.174-.118,0.26-0.075.16-.12,0.24-0.105.167-.16,0.249-0.1.155-.16,0.23-0.132.161-.2,0.24-0.123.147-.192,0.217-0.161.155-.243,0.231-0.144.136-.223,0.2-0.185.145-.28,0.216-0.164.127-.252,0.189-0.208.135-.314,0.2-0.183.118-.28,0.174-0.228.123-.344,0.184-0.2.108-.306,0.158c-0.122.057-.25,0.111-0.377,0.165-0.107.047-.213,0.095-0.325,0.139-0.133.052-.274,0.1-0.412,0.148-0.112.04-.221,0.082-0.336,0.118-0.143.046-.293,0.085-0.441,0.126-0.117.033-.231,0.068-0.35,0.1-0.154.039-.313,0.07-0.47,0.1-0.12.025-.236,0.054-0.357,0.076-0.171.031-.347,0.054-0.521,0.08-0.113.017-.224,0.037-0.339,0.051-0.195.023-.394,0.038-0.592,0.054-0.1.009-.2,0.021-0.3,0.027-0.3.017-.6,0.027-0.908,0.027s-0.61-.01-0.91-0.028c-0.1-.006-0.2-0.018-0.3-0.027-0.2-.016-0.4-0.031-0.591-0.054-0.115-.014-0.226-0.034-0.34-0.051-0.174-.026-0.349-0.05-0.52-0.081-0.121-.022-0.237-0.051-0.356-0.075-0.158-.033-0.318-0.066-0.472-0.1-0.12-.03-0.233-0.065-0.349-0.1-0.148-.042-0.3-0.081-0.443-0.127-0.115-.036-0.223-0.078-0.335-0.118-0.139-.049-0.279-0.095-0.413-0.148-0.112-.044-0.216-0.093-0.325-0.139-0.126-.054-0.255-0.108-0.376-0.165s-0.2-.106-0.307-0.158-0.233-.12-0.344-0.184-0.187-.115-0.28-0.174-0.213-.131-0.314-0.2-0.168-.125-0.252-0.189-0.192-.142-0.28-0.216-0.149-.135-0.222-0.2-0.167-.152-0.243-0.231-0.129-.144-0.192-0.216-0.14-.159-0.2-0.241-0.106-.152-0.158-0.229-0.113-.166-0.161-0.25-0.082-.16-0.121-0.24-0.084-.173-0.118-0.26-0.055-.165-0.08-0.248-0.053-.177-0.072-0.268-0.027-.171-0.037-0.256c-0.008-.059-0.012-0.118-0.016-0.178,0.046,0.042.1,0.079,0.148,0.12,0.161,0.138.327,0.271,0.5,0.4h0Zm7.07-12.388c-0.2.016-.394,0.036-0.589,0.057-0.174.021-.348,0.041-0.52,0.066-0.192.027-.38,0.059-0.567,0.094-0.168.031-.336,0.06-0.5,0.1-0.184.039-.364,0.083-0.542,0.129-0.16.041-.32,0.081-0.476,0.126-0.176.05-.347,0.106-0.517,0.162-0.018.007-.037,0.012-0.057,0.018a10.87,10.87,0,0,0-.86-6.637l-0.211-.408-0.443-.129a6.458,6.458,0,0,0-4.313,1,6.446,6.446,0,0,0-3.515-1.04,4.266,4.266,0,0,0-3.245,1.82c-0.088.1-.163,0.2-0.235,0.269a1.494,1.494,0,0,1-.358.046,1.8,1.8,0,0,1-1.278-.638l-3.357-3.658c0.2-.225.4-0.455,0.622-0.663,0.1-.092.2-0.178,0.3-0.267,0.259-.234.529-0.455,0.805-0.666,0.139-.106.277-0.212,0.42-0.312,0.284-.2.577-0.381,0.876-0.556,0.123-.072.24-0.153,0.365-0.22a12.93,12.93,0,0,1,1.254-.592c0.158-.065.323-0.117,0.485-0.176,0.3-.11.61-0.213,0.922-0.3,0.176-.049.354-0.094,0.532-0.137,0.328-.077.659-0.139,1-0.19,0.158-.024.314-0.053,0.473-0.071a11.829,11.829,0,0,1,3.008,0c0.159,0.018.316,0.048,0.473,0.071,0.335,0.051.667,0.113,1,.19,0.178,0.042.355,0.087,0.532,0.137,0.312,0.087.618,0.19,0.921,0.3,0.162,0.059.326,0.111,0.485,0.176a12.493,12.493,0,0,1,1.255.592c0.125,0.068.242,0.148,0.365,0.22,0.3,0.175.592,0.357,0.876,0.556,0.143,0.1.281,0.206,0.42,0.312,0.276,0.211.545,0.432,0.805,0.666,0.1,0.089.2,0.175,0.3,0.267a13.03,13.03,0,0,1,1.965,2.39,12.662,12.662,0,0,1,2.011,6.841v0.007c-0.112,0-.219.015-0.331,0.021-0.181.008-.359,0.019-0.538,0.033h0Zm-22.788,10.39c0.014,0.015.031,0.026,0.046,0.04a14.917,14.917,0,0,0,1.185,1.075c0.146,0.12.3,0.224,0.452,0.337,0.274,0.206.55,0.41,0.838,0.6,0.2,0.13.4,0.249,0.612,0.369,0.258,0.152.519,0.3,0.788,0.434,0.217,0.11.435,0.215,0.658,0.315,0.277,0.125.56,0.237,0.846,0.345,0.221,0.083.44,0.168,0.665,0.241,0.317,0.1.643,0.187,0.97,0.269,0.2,0.051.4,0.112,0.6,0.155a15.1,15.1,0,0,0,1.573.243c0.177,0.017.356,0.016,0.534,0.027,0.326,0.021.65,0.05,0.982,0.05,0.052,0,.106-0.008.159-0.009,0.3,0,.6-0.033.9-0.055,0.28-.02.559-0.034,0.841-0.071,0.085-.011.17-0.01,0.255-0.022v8.7h-6.472a6.979,6.979,0,0,0-6.432-6.387v-6.654h0Zm36.561-39.281v16.1q-0.548.049-1.075,0.132v-16.23h1.075Zm-3.226,0v16.722q-0.556.173-1.075,0.379v-17.1h1.075Zm-3.226,0v18.215a9.2,9.2,0,0,0-1.075.849V217.136h1.075ZM332.155,274.8V217.136h32.259V246.18h0c-0.353-.056-0.711-0.1-1.076-0.133,0-.028,0-0.053,0-0.081a14.755,14.755,0,0,0-2.151-7.66V226.617l-1.174.106c-0.145.013-.29,0.023-0.439,0.023a4.828,4.828,0,0,1-4.839-4.805c0-.149.011-0.3,0.023-0.44l0.1-1.162H341.706l0.1,1.162c0.012,0.145.023,0.291,0.023,0.44a4.829,4.829,0,0,1-4.839,4.805c-0.149,0-.294-0.01-0.439-0.023l-1.174-.106v11.689c-0.014.023-.029,0.048-0.044,0.071-0.143.239-.283,0.48-0.413,0.727-0.167.316-.325,0.636-0.467,0.961-0.053.12-.1,0.244-0.145,0.366-0.126.309-.243,0.621-0.346,0.938-0.043.134-.082,0.268-0.122,0.4-0.093.314-.175,0.63-0.246,0.95-0.032.142-.064,0.284-0.091,0.427-0.063.331-.112,0.664-0.153,1-0.016.134-.038,0.266-0.051,0.4-0.045.468-.073,0.939-0.073,1.415s0.028,0.947.072,1.415c0.013,0.136.034,0.267,0.051,0.4,0.041,0.337.09,0.67,0.153,1,0.028,0.143.06,0.285,0.091,0.427q0.107,0.48.246,0.95c0.04,0.135.078,0.27,0.121,0.4,0.1,0.317.222,0.629,0.347,0.939,0.049,0.121.092,0.245,0.145,0.365,0.142,0.325.3,0.645,0.467,0.961,0.129,0.248.269,0.488,0.412,0.727,0.017,0.025.032,0.048,0.046,0.071v11.69l1.174-.107c0.145-.013.29-0.023,0.439-0.023a4.829,4.829,0,0,1,4.839,4.806c0,0.148-.011.294-0.023,0.44l-0.1,1.161h8.845c0.02,0.09.043,0.179,0.067,0.267,0.028,0.108.057,0.215,0.092,0.321,0.029,0.086.064,0.17,0.1,0.256a6.568,6.568,0,0,0,1.6,2.36H332.155Zm24.06-.052c-0.108-.048-0.213-0.1-0.316-0.148-0.148-.073-0.294-0.146-0.434-0.224-0.093-.053-0.18-0.107-0.269-0.162a7.465,7.465,0,0,1-.707-0.479c-0.074-.057-0.155-0.111-0.225-0.17-0.1-.082-0.187-0.168-0.278-0.253s-0.172-.161-0.251-0.243-0.147-.163-0.217-0.245c-0.082-.1-0.158-0.2-0.229-0.3-0.053-.073-0.106-0.148-0.154-0.223a4.192,4.192,0,0,1-.216-0.4c-0.024-.049-0.053-0.1-0.073-0.147a3.3,3.3,0,0,1-.183-0.569c-0.011-.049-0.013-0.1-0.021-0.149a3,3,0,0,1-.035-0.327c0.045,0.041.1,0.077,0.145,0.117,0.16,0.138.325,0.272,0.5,0.4,0.1,0.072.194,0.145,0.3,0.215,0.189,0.131.388,0.255,0.592,0.377,0.1,0.056.185,0.115,0.283,0.169,0.306,0.17.622,0.331,0.954,0.479,0.012,0,.024.008,0.036,0.014,0.322,0.142.658,0.271,1,.389,0.117,0.041.24,0.075,0.36,0.114,0.247,0.077.5,0.152,0.756,0.219,0.143,0.037.287,0.07,0.433,0.1q0.375,0.086.762,0.154c0.149,0.026.3,0.052,0.451,0.074,0.279,0.042.563,0.073,0.85,0.1,0.135,0.013.269,0.03,0.405,0.039,0.425,0.033.856,0.053,1.3,0.053s0.871-.02,1.3-0.051c0.137-.009.27-0.026,0.406-0.039,0.287-.028.571-0.06,0.85-0.1,0.152-.023.3-0.05,0.451-0.075,0.258-.046.512-0.1,0.762-0.154,0.146-.033.29-0.066,0.433-0.1,0.258-.066.507-0.14,0.756-0.22,0.12-.038.243-0.072,0.36-0.113,0.344-.119.68-0.248,1-0.388,0.013-.006.026-0.01,0.039-0.015,0.332-.148.648-0.309,0.954-0.479,0.1-.054.188-0.113,0.282-0.17,0.2-.121.4-0.245,0.592-0.375,0.1-.071.2-0.143,0.3-0.216,0.173-.129.337-0.263,0.5-0.4,0.047-.041.1-0.076,0.146-0.118a2.944,2.944,0,0,1-.036.333c0,0.028-.006.056-0.012,0.082a3.56,3.56,0,0,1-.184.587l0,0.005a4.94,4.94,0,0,1-1.587,1.968l-0.064.048a8.092,8.092,0,0,1-.737.5c-0.053.032-.1,0.066-0.156,0.1l-0.023.013a13.065,13.065,0,0,1-6.319,1.522,13.583,13.583,0,0,1-5.511-1.119h0Zm19.49,1.119a13.862,13.862,0,0,1-4.9-.857,7.277,7.277,0,0,0,1.39-1.643c0.019,0,.039.005,0.058,0.009,0.5,0.105,1,.183,1.515.24,0.113,0.013.226,0.023,0.339,0.033,0.527,0.05,1.058.083,1.6,0.083,0.44,0,.871-0.02,1.3-0.051,0.137-.009.27-0.026,0.406-0.039,0.287-.028.571-0.06,0.85-0.1,0.152-.023.3-0.049,0.451-0.075,0.258-.046.512-0.1,0.762-0.154,0.146-.033.29-0.066,0.433-0.1,0.258-.067.508-0.141,0.756-0.22,0.12-.039.243-0.073,0.36-0.114,0.344-.119.68-0.247,1-0.388,0.013-.006.026-0.01,0.039-0.015,0.332-.148.648-0.309,0.954-0.479,0.1-.054.188-0.113,0.283-0.169,0.2-.122.4-0.246,0.591-0.376,0.1-.071.2-0.143,0.3-0.216,0.173-.129.337-0.263,0.5-0.4,0.051-.045.11-0.085,0.16-0.13-0.164,2.816-4.28,5.163-9.135,5.163h0Z" transform="translate(-330 -215)"/>
</svg>
