<svg xmlns="http://www.w3.org/2000/svg" width="43" height="49" viewBox="0 0 43 49">
  <defs>
    <style>
      .cls-1 {
        fill: #fa5e31;
        fill-rule: evenodd;
      }
    </style>
  </defs>
  <path id="Forma_1_копия" data-name="Forma 1 копия" class="cls-1" d="M891.868,1382.07c-0.466-8.74-8.435-12.35-8.435-12.35-1.9-.88-5.356-2.6-7.619-3.73,2.9-3.13,3.756-8.23,3.889-8.95a34.05,34.05,0,0,0,.3-7.35c-0.553-7.9-8.645-8.02-9.493-8.02H870.37c-0.768-.01-8.949.07-9.506,8.02a34.122,34.122,0,0,0,.3,7.35c0.039,0.21.142,0.8,0.336,1.59a10.422,10.422,0,0,0,5.809,3.42,1.326,1.326,0,0,1,.94-0.38h3.52a1.33,1.33,0,1,1,0,2.66h-3.52a1.35,1.35,0,0,1-1.238-.8,13.691,13.691,0,0,1-4.6-1.99,14.219,14.219,0,0,0,2.639,4.45c-2.263,1.13-5.713,2.85-7.619,3.73,0,0-7.967,3.61-8.435,12.35,0,0-.138,1.45,2.656,2.01a92.791,92.791,0,0,0,37.557,0C892.008,1383.52,891.868,1382.07,891.868,1382.07Zm-33.742-22.2h0.85v-9.85c0-.02.008-0.05,0.008-0.07v-1.45a8.329,8.329,0,0,1,2.412-6.25c3.311-3.21,8.967-3.17,9.062-3.15,0.068-.01,5.676-0.09,9,3.12a8.368,8.368,0,0,1,2.429,6.28v1.53c0,0.02,0,.03,0,0.05v9.79h0.851a3.762,3.762,0,0,0,3.789-3.74v-3.59a3.742,3.742,0,0,0-2.619-3.55v-0.49a10.243,10.243,0,0,0-3.037-7.7c-3.928-3.79-10.2-3.7-10.422-3.7-0.263,0-6.544-.08-10.47,3.72a10.232,10.232,0,0,0-3.026,7.68v0.49a3.742,3.742,0,0,0-2.622,3.55v3.59A3.762,3.762,0,0,0,858.126,1359.87Z" transform="translate(-849 -1337)"/>
</svg>
