<svg xmlns="http://www.w3.org/2000/svg" width="47.157" height="86.344" viewBox="0 0 47.157 86.344">
  <defs>
    <style>
      .cls-1 {
        fill: #fa7124;
        fill-rule: evenodd;
      }
    </style>
  </defs>
  <path id="my_vector_mask_shape" class="cls-1" d="M449.291,618.007v0.814c-1.271.2-3.5,0.539-4.556-.082-0.065-1.431-.589-3.472,0-4.881a12.112,12.112,0,0,0,1.221-2.359c0.063-.362-0.092-7.137-0.163-7.322h-0.081a7.564,7.564,0,0,1-.977,2.034,34.217,34.217,0,0,1-4.149,7.159c-0.883,1.172-2.545,3.1-2.2,4.962a1.85,1.85,0,0,1,.732.57l2.847,0.732q0.2,0.406.407,0.814c-0.88,1.448-5.957,1.9-7.81.813-1.03-.6-1.391-1.939-2.278-2.685a0.849,0.849,0,0,0-.488.489h-0.081c-0.836-.759-2.341-1.578-2.441-3.01a23.346,23.346,0,0,1,3.742-5.044l0.651-1.709,0.976-.813q1.913-3.823,3.824-7.648c1.4-2.51,3.761-5.166,4.719-7.972,0.373-1.094.012-3.2-.163-4.231q0.081-1.5.163-3.01-0.53-1.83-1.058-3.661l-1.708.081V581.8c0.842-2.316.329-5.389,1.057-8.216,0.437-1.7,1.948-3.9,1.3-6.509l-3.01-5.206c-1.287-3.06-2.382-6.832-1.383-10.739q-0.04-1.424-.082-2.848a0.648,0.648,0,0,1,.651-0.244,2.974,2.974,0,0,0-1.057-1.464c-0.619.339-1.622,0.968-2.36,0.651a5.053,5.053,0,0,1,.651-2.278l-1.79-1.546c-1.219-3.04,2.419-7.263,4.149-7.891,0.542,0.181,3.3,1.575,3.417,1.546,0.761-.191,1.331-1.939,2.6-1.383l0.244,0.162c0,1.253-.621,1.464-0.895,2.36,0.788,0.174.6,0.625,1.057,1.057l2.116,0.895a1.234,1.234,0,0,1-.163,1.058,1.164,1.164,0,0,1,.732.732l1.058-.976a22.807,22.807,0,0,1,4.149-1.221v-0.488c1.242-.316,2.229-1.017,3.823-0.651,0.166,0.243.461,0.98,0.57,1.058a1.227,1.227,0,0,0,1.139.244,2.551,2.551,0,0,0-.244.651c1.016,0.776,1.654,1.846,2.6,2.6,0.729,0.582,1.452.255,2.2,0.651l0.081,0.244-0.325.895c0.561,0.008,1.265-.392,1.627.163l0.081,0.65,0.488,0.082a5.667,5.667,0,0,0,1.058,1.871l0.488-.163v0.082c-0.115.261-.252,0.314,0,0.569l1.22,1.464,0.57-.081q-0.406-1.26-.814-2.522l-0.732-.081c0.039-.292-0.122-0.111.163-0.326a13.957,13.957,0,0,1,6.264-.406v0.081c-0.054.081-.108,0.163-0.163,0.244a0.6,0.6,0,0,0-.651.325c-0.522.657-.278,2.263,0.082,3.011,0.975,2.027,5.845,6.261,3.335,9.03a3.467,3.467,0,0,1-3.254,1.139l-0.081.488c-0.6-.182-1.907-1.231-1.709-1.709-0.463.073-.338,0.207-0.65-0.081a1.053,1.053,0,0,0,.325-0.407q-0.611-.649-1.22-1.3c-1.181.712-1.8,1.921-3.255,2.44a2.667,2.667,0,0,1-.813,2.848c-0.656.441-8.939,2.439-9.844,2.2a68.509,68.509,0,0,0,.326,10.576q0.2,1.789.406,3.58c-0.282-.119-0.313-0.236-0.569,0-0.289.337-.249,6.77-0.488,8.135q-0.2,3.091-.407,6.183c-0.759,4.136-.768,8.889-1.79,12.854-0.469,1.821-.02,3.816-0.407,5.858-0.117.62-.683,1.081-0.488,1.22,0.967,2.749,2.784,3.325,6.59,3.254l0.651,1.058c-0.756,1.261-4.261,2-6.59,1.546C451.341,618.6,450.7,618.047,449.291,618.007Zm5.939-78.1c-1.688.781-3.5,1.046-4.963,1.871v0.407l-0.732-.081c0,0.249.079,0.113-.081,0.325a1.911,1.911,0,0,0-1.546,0c0.073,0.965.51,1.269,0.57,2.359a6.406,6.406,0,0,1-2.278,1.871c0.015,1.464-.454,1.7-0.57,2.848,0.691,0.257.418,0.466,0.814,0.976,1.094,1.408,4.5,4.07,7,3.58a20.71,20.71,0,0,1,1.871-1.383c1.066-2.033,2.781-5.193,4.394-6.671a4.129,4.129,0,0,0-.977-2.278l-0.488.081c-0.213-1.281-1.566-2.076-1.952-3.091l0.081-.163,0.244,0.163A1.531,1.531,0,0,0,455.23,539.907Zm7.078,9.193c-0.511.4-1.1,0.4-1.3,1.139a2.647,2.647,0,0,1,1.139,2.2c-2.127,1.222-4.326,4.036-5.613,6.1h0.162c1.747,0.752,5.249-1.225,6.834-1.627h0.814c0.322-.166,2.127-2.6,2.034-3.01l-1.872-2.278,0.326-.407c-0.109-.135-0.217-0.271-0.326-0.407a0.658,0.658,0,0,1-.813.244c-0.023-.55.179-0.6-0.081-0.894H463.2C463.377,549.653,462.883,549.3,462.308,549.1Zm6.02,0.814c-0.21.651,0.739,1.557,1.3,1.952h0.081A3.615,3.615,0,0,0,468.328,549.914Zm-4.556.65c0.027,0.136.055,0.272,0.082,0.407h0.325l0.081-.407h-0.488Zm5.939,1.383a4.5,4.5,0,0,0,1.546,1.79A4.053,4.053,0,0,0,469.711,551.947Zm2.848,3.9-0.407.489v0.406l0.732,0.732h0.488a1.234,1.234,0,0,0,.407-0.406c-0.027-.163-0.054-0.326-0.082-0.488C473.011,556.606,473.175,556.094,472.559,555.852Z" transform="translate(-429.281 -535.5)"/>
</svg>
