<svg xmlns="http://www.w3.org/2000/svg" width="67.13" height="61.282" viewBox="0 0 67.13 61.282">
  <defs>
    <style>
      .cls-1 {
        fill: #fa7124;
        fill-rule: evenodd;
      }
    </style>
  </defs>
  <path class="cls-1" d="M1158.95,322.943h-34.68a0.683,0.683,0,0,1-.54-0.265,0.721,0.721,0,0,1-.11-0.588l4.73-16.827a7.519,7.519,0,0,1,5.18-5.169l12.19-3.407,2.78-4.189a0.68,0.68,0,0,1,.5-0.3,0.791,0.791,0,0,1,.1,0l-0.02-.57a17.031,17.031,0,0,1-1.57-3.931l-0.6-.27c-1.95-.888-2.96-3.889-2.81-6.277a2.842,2.842,0,0,1,1.51-2.667c-0.4-1.986-1.24-7.889,1.75-12,3.51-4.824,9.31-4.774,9.8-4.762,0.49-.013,6.29-0.062,9.8,4.762,2.98,4.107,2.15,10.01,1.75,12a2.842,2.842,0,0,1,1.51,2.667c0.15,2.388-.87,5.389-2.82,6.277l-0.55.252a15.513,15.513,0,0,1-1.53,4.521,0.661,0.661,0,0,1,.49.3l2.79,4.19,12.19,3.406a7.505,7.505,0,0,1,5.17,5.169l4.74,16.827a0.69,0.69,0,0,1-.12.588,0.65,0.65,0,0,1-.53.265h-31.1Zm21.83-1.341h8.38l-4.49-15.975h0a6.148,6.148,0,0,0-4.25-4.241l-11.81-3.3-7,18.976h0l-1.69,4.543h19.52V310.363a0.67,0.67,0,1,1,1.34,0V321.6Zm-24.96,0h2.67l1.8-4.852-1.58-11.519a0.763,0.763,0,0,1,.03-0.3l1.18-3.617-0.96-1.758h-3.61l-0.96,1.758,1.19,3.617a0.763,0.763,0,0,1,.03.3l-1.57,11.52Zm-20.94,0h19.51l-1.67-4.543h0l-7.01-18.976-11.82,3.3a6.153,6.153,0,0,0-4.24,4.241l-4.5,15.975h8.39V310.363a0.67,0.67,0,1,1,1.34,0V321.6Zm25.18-16.4,1.22,8.871,4.44-12.047-2.19,3.182a0.7,0.7,0,0,1-.56.292,0.685,0.685,0,0,1-.56-0.306l-1.56-2.408Zm-11.46-3.17,4.45,12.038,1.21-8.868-0.79-2.415-1.57,2.407a0.654,0.654,0,0,1-.55.306,0.716,0.716,0,0,1-.56-0.292Zm-1.65-4.77,4.37,6.359,1.72-2.65,0.03-.059,1.05-1.914-4.8-4.9a0.354,0.354,0,0,1-.07-0.081l-0.09-.086Zm14.32,3.707,1.72,2.652,4.38-6.359-2.22-3.334-4.95,5.064,1.05,1.92c0.01,0.02.01,0.038,0.02,0.057h0Zm-6.07-2.791h3.91l1.86-1.907a8.233,8.233,0,0,1-3.81.965,7.513,7.513,0,0,1-4.24-1.391Zm-4.86-7.062c0.02,0.048,2.75,4.778,6.82,4.778,3.99,0,6.64-3.781,6.82-4.044a14.005,14.005,0,0,0,1.6-4.723,0.671,0.671,0,0,1,.39-0.519l0.88-.4c1.21-.551,2.16-2.875,2.03-4.972-0.1-1.545-.87-1.579-0.94-1.579a0.67,0.67,0,0,1-.68-0.488l-2-7.111a33.872,33.872,0,0,1-16.21,0l-1.99,7.111a0.686,0.686,0,0,1-.3.392h-0.01v0a0.027,0.027,0,0,1-.02.008v0.006a0.68,0.68,0,0,1-.36.078c-0.13,0-.84.093-0.93,1.579-0.13,2.1.82,4.421,2.03,4.972l0.89,0.406a0.689,0.689,0,0,1,.38.464,15.553,15.553,0,0,0,1.59,4.038Zm6.72-28.049c-0.65,0-5.65.137-8.61,4.21-1.87,2.572-2.04,6.066-1.85,8.534l1.35-4.8a0.682,0.682,0,0,1,.36-0.421,0.642,0.642,0,0,1,.54-0.018,31.244,31.244,0,0,0,16.61,0,0.67,0.67,0,0,1,.9.439l1.35,4.79c0.19-2.469.03-5.961-1.84-8.526-3.17-4.359-8.63-4.214-8.69-4.21a0.408,0.408,0,0,1-.05,0h-0.07Zm18.47,57.151h-8.97a0.669,0.669,0,0,1-.67-0.67v-4.993a0.671,0.671,0,0,1,.67-0.671h1.64a2.913,2.913,0,0,1,5.68,0h1.65a0.671,0.671,0,0,1,.67.671v4.993a0.669,0.669,0,0,1-.67.67h0Zm-8.3-1.341h7.63v-3.65h-7.63v3.65Zm2.36-4.993h2.91a1.608,1.608,0,0,0-2.91,0h0Z" transform="translate(-1123.59 -261.656)"/>
</svg>
