<svg xmlns="http://www.w3.org/2000/svg" width="46.969" height="44.125" viewBox="0 0 46.969 44.125">
  <defs>
    <style>
      .cls-1 {
        fill: #fa7124;
        fill-rule: evenodd;
      }
    </style>
  </defs>
  <path class="cls-1" d="M182.752,363.985a16.459,16.459,0,0,1-3.943-.479,1.172,1.172,0,1,1,.555-2.277,14.372,14.372,0,0,0,3.388.4c6.843,0,12.4-4.814,12.4-10.728s-5.56-10.729-12.4-10.729-12.4,4.814-12.4,10.729a9.761,9.761,0,0,0,2.709,6.68,1.185,1.185,0,0,1,.239,1.206,6.967,6.967,0,0,1-1.053,1.914,6.2,6.2,0,0,0,2.536-.823,1.172,1.172,0,0,1,1.206,2.01,9.21,9.21,0,0,1-5.953,1.1,1.541,1.541,0,0,1-.622-2.823,4.12,4.12,0,0,0,1.417-1.579,12.135,12.135,0,0,1-2.814-7.685c0-7.207,6.614-13.074,14.749-13.074S197.51,343.7,197.5,350.911,190.887,363.985,182.752,363.985Zm5.024-7.561h-10.03a1.177,1.177,0,0,1,0-2.354h10.03A1.177,1.177,0,0,1,187.776,356.424Zm0-8.69h-10.03a1.178,1.178,0,0,1,0-2.355h10.03A1.178,1.178,0,0,1,187.776,347.734Zm2.2,3.177a1.176,1.176,0,0,1-1.177,1.177H176.722a1.177,1.177,0,0,1,0-2.354H188.8A1.176,1.176,0,0,1,189.977,350.911ZM169.9,369.89c0.211,0.134.46,0.258,0.728,0.392,0.153,0.077.316,0.153,0.469,0.239l2.259-2.259a3.733,3.733,0,0,1,2.66-1.2,3.619,3.619,0,0,1,2.642,1.206l4.086,4.087a3.642,3.642,0,0,1,.02,5.369c-0.316.335-.642,0.66-0.967,0.967a16.362,16.362,0,0,0-1.292,1.33l-0.039.038a5.748,5.748,0,0,1-4.412,1.905c-0.153,0-.316-0.01-0.478-0.019A18.349,18.349,0,0,1,168.96,380a35.2,35.2,0,0,1-11.714-9.168,32.326,32.326,0,0,1-5.714-9.543,13.25,13.25,0,0,1-.966-5.6,5.559,5.559,0,0,1,1.656-3.56l2.546-2.546a3.81,3.81,0,0,1,2.66-1.158,3.686,3.686,0,0,1,2.622,1.158c0.46,0.431.938,0.909,1.388,1.378,0.23,0.23.459,0.469,0.689,0.7l2.029,2.029a3.56,3.56,0,0,1,0,5.378c-0.21.22-.421,0.431-0.631,0.641-0.527.536-1.072,1.082-1.647,1.618a15.282,15.282,0,0,0,1.943,3.024A25.209,25.209,0,0,0,169.9,369.89Zm-10.326-8.04c-0.01-.028-0.019-0.048-0.029-0.076a1.664,1.664,0,0,1,.421-1.857l0.048-.048c0.641-.574,1.234-1.177,1.857-1.808,0.21-.221.421-0.431,0.641-0.651a1.253,1.253,0,0,0,0-2.068l-2.029-2.028c-0.239-.24-0.479-0.479-0.708-0.718-0.459-.469-0.89-0.91-1.34-1.331a1.472,1.472,0,0,0-1-.5,1.55,1.55,0,0,0-1.023.487l-2.537,2.527a3.255,3.255,0,0,0-.986,2.106,10.431,10.431,0,0,0,.824,4.584,29.937,29.937,0,0,0,5.321,8.853,32.959,32.959,0,0,0,10.93,8.556,16.1,16.1,0,0,0,5.742,1.723c0.115,0.009.22,0.009,0.335,0.009a3.419,3.419,0,0,0,2.67-1.119c0.46-.546.967-1.025,1.445-1.493,0.316-.307.613-0.594,0.9-0.891a1.312,1.312,0,0,0,.029-2.086l-4.106-4.106a1.417,1.417,0,0,0-.967-0.507,1.526,1.526,0,0,0-1.005.507l-2.546,2.546a1.674,1.674,0,0,1-2.057.364c-0.039-.02-0.068-0.039-0.105-0.058-0.211-.134-0.46-0.258-0.718-0.392a9.874,9.874,0,0,1-.929-0.507,27.543,27.543,0,0,1-6.642-6.049A16.433,16.433,0,0,1,159.572,361.85Z" transform="translate(-150.531 -337.844)"/>
</svg>
