<svg xmlns="http://www.w3.org/2000/svg" width="62.75" height="62.75" viewBox="0 0 62.75 62.75">
  <defs>
    <style>
      .cls-1 {
        fill: #fa7124;
        fill-rule: evenodd;
      }
    </style>
  </defs>
  <path class="cls-1" d="M284.481,469.248a1.805,1.805,0,0,1-1.276-.53L252.126,437.64a1.81,1.81,0,0,1,.984-3.065l25.817-4.283,0.038-.008L288.5,428.7l11.38-11.38a2.3,2.3,0,0,1-.02-3.018l0.657-.757-0.915-.915a0.625,0.625,0,0,1,.885-0.883l0.851,0.851,1.332-1.539-0.973-.973a0.624,0.624,0,0,1,.883-0.882l0.911,0.91,1.332-1.539-0.989-.989a0.625,0.625,0,0,1,.883-0.885l0.927,0.927,0.038-.042a3.152,3.152,0,0,1,4.611-.165l3.13,3.131a3.152,3.152,0,0,1-.164,4.61l-6.717,5.822a2.293,2.293,0,0,1-3.015-.02L292.14,432.352l-3.358,20.236c0,0.009,0,.02,0,0.031l-2.509,15.115a1.8,1.8,0,0,1-1.232,1.426,1.779,1.779,0,0,1-.556.088h0ZM278.654,431.6l-25.34,4.205a0.562,0.562,0,0,0-.3.95l31.077,31.076a0.561,0.561,0,0,0,.95-0.3l2.481-14.953-4.638-10.965-2.421,2.422a3.643,3.643,0,0,1-3.648,3.647l-2,2,3.065,3.063a0.624,0.624,0,0,1-.883.883l-3.5-3.5a0.025,0.025,0,0,1-.007-0.008l-0.007-.006-1.367-1.367a0.029,0.029,0,0,0-.008-0.008l-0.009-.009-4.88-4.88a0.624,0.624,0,0,1,.883-0.883l3.074,3.073,1.987-1.987a3.645,3.645,0,0,1,3.666-3.666l2.992-2.991a0.567,0.567,0,0,1,.07-0.084l0.75-.749Zm5.18,9.056,4.065,9.615,2.724-16.4Zm-10.4,7.638,0.5,0.5,1.417-1.416a3.675,3.675,0,0,1-.64-0.36Zm-1.373-1.374,0.49,0.489,1.277-1.278a3.486,3.486,0,0,1-.353-0.625Zm3.555-.808a2.412,2.412,0,0,0,.726.273l2.825-2.827a2.348,2.348,0,0,0-.273-0.725Zm-1.153-1.594a2.388,2.388,0,0,0,.268.711l3.28-3.279a2.325,2.325,0,0,0-.71-0.269Zm5.335-2.589a3.669,3.669,0,0,1,.359.639l2.057-2.057-0.5-.5Zm-1.509-1.237a3.724,3.724,0,0,1,.625.354l1.918-1.917-0.489-.489Zm4.309-1.563,0.5,0.5,19.984-19.985,0.049-.044,2.163-2.162a0.624,0.624,0,1,1,.882.884l-1.761,1.76a1.041,1.041,0,0,0,1.31-.039l6.718-5.821a1.9,1.9,0,0,0,.1-2.783l-3.132-3.132a1.9,1.9,0,0,0-2.785.1l-5.82,6.717a1.039,1.039,0,0,0-.031,1.32l6.4-6.4a0.625,0.625,0,1,1,.884.883l-26.831,26.831,0.489,0.49,24.512-24.512a0.624,0.624,0,0,1,.883.883Zm-2.679-7.738L281.6,435.6l5.378-5.378Z" transform="translate(-251.594 -406.5)"/>
</svg>
