<svg xmlns="http://www.w3.org/2000/svg" width="66.094" height="55.469" viewBox="0 0 66.094 55.469">
  <defs>
    <style>
      .cls-1 {
        fill: #fa7124;
        fill-rule: evenodd;
      }
    </style>
  </defs>
  <path class="cls-1" d="M700.624,354.415A11.4,11.4,0,0,1,684.1,362.1l-12.866,16.661a2.891,2.891,0,0,1-3.432.851,8.058,8.058,0,0,0-8.059.577,0.935,0.935,0,0,1-.279.139l-8.542,7.713a0.989,0.989,0,0,1-.673.264,1.007,1.007,0,0,1-.676-1.748l8.082-7.31-3.4-3.523-8.151,7.369a0.974,0.974,0,0,1-.676.254,1,1,0,0,1-.666-1.74l8.1-7.325-3.406-3.528-8.165,7.382a1,1,0,1,1-1.349-1.489l8.119-7.338-3.407-3.53-8.184,7.4a0.978,0.978,0,0,1-.676.264,1.041,1.041,0,0,1-.741-0.332,1.015,1.015,0,0,1,.077-1.418l8.409-7.6V359.1a2.856,2.856,0,0,1,1.84-2.688c12.291-4.753,41.193-15.823,44.078-15.823A11.495,11.495,0,0,1,700.624,354.415Zm-3.843-8.263a9.55,9.55,0,0,0-7.323-3.559c-1.721.019-19.144,6.315-43.355,15.685a0.888,0.888,0,0,0-.558.82v4.72l9.446,9.8c0.018,0.017.041,0.024,0.058,0.042s0.015,0.031.026,0.045l4.227,4.385a10.123,10.123,0,0,1,9.309-.3,0.853,0.853,0,0,0,1.036-.245l13.416-17.357a0.989,0.989,0,0,1,1.33-.222,9.345,9.345,0,0,0,6.8,1.328,9.446,9.446,0,0,0,7.47-7.283A9.243,9.243,0,0,0,696.781,346.152Zm-14.931-6.18-1.6.6a3.681,3.681,0,0,1-4.723-2.169,3.681,3.681,0,0,1,2.171-4.721l1.6-.6A3.676,3.676,0,1,1,681.85,339.972Zm0.284-4.028a1.661,1.661,0,0,0-.861-0.939,1.758,1.758,0,0,0-.694-0.158,1.715,1.715,0,0,0-.586.108l-1.6.6a1.667,1.667,0,0,0-.988,2.15,1.64,1.64,0,0,0,.871.938,1.621,1.621,0,0,0,1.28.041l1.6-.588a1.727,1.727,0,0,0,.939-0.872A1.659,1.659,0,0,0,682.134,335.944Zm-10.317,7.745-1.6.585a3.573,3.573,0,0,1-1.268.236,3.674,3.674,0,0,1-1.283-7.119l1.605-.6A3.675,3.675,0,0,1,671.817,343.689Zm0.293-4.03a1.627,1.627,0,0,0-.867-0.938,1.716,1.716,0,0,0-.7-0.156,1.616,1.616,0,0,0-.576.108l-1.614.595a1.691,1.691,0,0,0-.939.872,1.647,1.647,0,0,0-.047,1.278,1.706,1.706,0,0,0,.878.939,1.65,1.65,0,0,0,1.272.05l1.605-.595a1.741,1.741,0,0,0,.949-0.872A1.655,1.655,0,0,0,672.11,339.659ZM661.8,347.394l-1.6.595a3.624,3.624,0,0,1-1.282.236,3.7,3.7,0,0,1-3.442-2.406,3.629,3.629,0,0,1,.109-2.806,3.685,3.685,0,0,1,2.062-1.918l1.605-.585a3.677,3.677,0,0,1,4.72,2.171A3.669,3.669,0,0,1,661.8,347.394Zm0.292-4.018a1.679,1.679,0,0,0-1.575-1.1,1.5,1.5,0,0,0-.575.107l-1.605.586a1.685,1.685,0,0,0-.938.871,1.673,1.673,0,0,0,2.1,2.267l1.6-.595A1.656,1.656,0,0,0,662.088,343.376Zm-10.326,7.732-1.6.6a3.593,3.593,0,0,1-1.272.222,3.633,3.633,0,0,1-1.534-.33,3.673,3.673,0,0,1,.252-6.785l1.615-.6A3.673,3.673,0,0,1,651.762,351.108Zm0.3-4.027a1.663,1.663,0,0,0-1.564-1.087,1.787,1.787,0,0,0-.588.1l-1.6.6a1.673,1.673,0,0,0,1.161,3.139l1.6-.6A1.669,1.669,0,0,0,652.058,347.081Z" transform="translate(-634.781 -332.844)"/>
</svg>
