<svg xmlns="http://www.w3.org/2000/svg" width="62.72" height="47.562" viewBox="0 0 62.72 47.562">
  <defs>
    <style>
      .cls-1 {
        fill: #fa7124;
        fill-rule: evenodd;
      }
    </style>
  </defs>
  <path class="cls-1" d="M1186.73,603.151h-55.82a3.458,3.458,0,0,1-3.45-3.455V559.049a3.458,3.458,0,0,1,3.45-3.454h55.82a3.46,3.46,0,0,1,3.46,3.454V599.7A3.46,3.46,0,0,1,1186.73,603.151Zm1.43-44.1a1.427,1.427,0,0,0-1.43-1.422h-55.82a1.425,1.425,0,0,0-1.42,1.422V599.7a1.425,1.425,0,0,0,1.42,1.423h55.82a1.428,1.428,0,0,0,1.43-1.423V559.049Zm-5.49,18.088h-2.17a3.184,3.184,0,0,1,0-6.368h0.07v-7.655a1.015,1.015,0,1,1,2.03,0v7.655h0.07A3.184,3.184,0,0,1,1182.67,577.137Zm0-4.336h-2.17a1.152,1.152,0,0,0,0,2.3h2.17A1.152,1.152,0,0,0,1182.67,572.8Zm-7.59,16.259h-2.17a3.184,3.184,0,0,1,0-6.368h0.07V563.114a1.02,1.02,0,0,1,2.04,0v19.578h0.06A3.184,3.184,0,1,1,1175.08,589.06Zm0-4.336h-2.17a1.152,1.152,0,0,0,0,2.3h2.17A1.152,1.152,0,0,0,1175.08,584.724Zm-7.58-14.09h-2.17a3.184,3.184,0,1,1,0-6.368h0.07v-1.152a1.015,1.015,0,1,1,2.03,0v1.152h0.07A3.184,3.184,0,0,1,1167.5,570.634Zm0-4.336h-2.17a1.152,1.152,0,0,0,0,2.3h2.17A1.152,1.152,0,0,0,1167.5,566.3Zm-7.59,24.93h-2.17a3.184,3.184,0,0,1,0-6.368h0.07V563.114a1.015,1.015,0,1,1,2.03,0V584.86h0.07A3.184,3.184,0,0,1,1159.91,591.228Zm0-4.336h-2.17a1.152,1.152,0,0,0,0,2.3h2.17A1.152,1.152,0,0,0,1159.91,586.892Zm-7.59-13.006h-2.17a3.185,3.185,0,0,1,0-6.369h0.07v-4.4a1.015,1.015,0,1,1,2.03,0v4.4h0.07A3.185,3.185,0,1,1,1152.32,573.886Zm0-4.336h-2.17a1.152,1.152,0,0,0,0,2.3h2.17A1.152,1.152,0,0,0,1152.32,569.55Zm-7.59,16.259h-2.16a3.184,3.184,0,1,1,0-6.368h0.06V563.114a1.02,1.02,0,0,1,2.04,0v16.327h0.06A3.184,3.184,0,1,1,1144.73,585.809Zm0-4.336h-2.16a1.152,1.152,0,1,0,0,2.3h2.16A1.152,1.152,0,1,0,1144.73,581.473Zm-7.58-9.755h-2.17a3.184,3.184,0,0,1,0-6.368h0.07v-2.236a1.015,1.015,0,1,1,2.03,0v2.236h0.07A3.184,3.184,0,0,1,1137.15,571.718Zm0-4.336h-2.17a1.152,1.152,0,0,0,0,2.3h2.17A1.152,1.152,0,0,0,1137.15,567.382Zm-1.09,6.639a1.02,1.02,0,0,1,1.02,1.016v20.594a1.015,1.015,0,1,1-2.03,0V575.037A1.012,1.012,0,0,1,1136.06,574.021Zm7.59,14.091a1.02,1.02,0,0,1,1.02,1.016v6.5a1.02,1.02,0,0,1-2.04,0v-6.5A1.02,1.02,0,0,1,1143.65,588.112Zm7.59-11.923a1.012,1.012,0,0,1,1.01,1.016v18.426a1.015,1.015,0,1,1-2.03,0V577.205A1.02,1.02,0,0,1,1151.24,576.189Zm7.58,17.342a1.014,1.014,0,0,1,1.02,1.016v1.084a1.015,1.015,0,1,1-2.03,0v-1.084A1.012,1.012,0,0,1,1158.82,593.531Zm7.59-19.51a1.02,1.02,0,0,1,1.02,1.016v20.594a1.015,1.015,0,1,1-2.03,0V575.037A1.012,1.012,0,0,1,1166.41,574.021Zm7.59,17.342a1.02,1.02,0,0,1,1.02,1.016v3.252a1.02,1.02,0,0,1-2.04,0v-3.252A1.02,1.02,0,0,1,1174,591.363Zm7.59-11.922a1.012,1.012,0,0,1,1.01,1.016v15.174a1.015,1.015,0,1,1-2.03,0V580.457A1.014,1.014,0,0,1,1181.59,579.441Z" transform="translate(-1127.47 -555.594)"/>
</svg>
