<svg xmlns="http://www.w3.org/2000/svg" width="59.125" height="59.125" viewBox="0 0 59.125 59.125">
  <defs>
    <style>
      .cls-1 {
        fill: #fa7124;
        fill-rule: evenodd;
      }
    </style>
  </defs>
  <path class="cls-1" d="M196.384,190.311H147.116a4.932,4.932,0,0,1-4.927-4.927V136.116a4.932,4.932,0,0,1,4.927-4.927h49.268a4.932,4.932,0,0,1,4.927,4.927v49.268A4.932,4.932,0,0,1,196.384,190.311Zm2.956-54.195a2.959,2.959,0,0,0-2.956-2.956H147.116a2.96,2.96,0,0,0-2.956,2.956v49.268a2.959,2.959,0,0,0,2.956,2.956h49.268a2.959,2.959,0,0,0,2.956-2.956V136.116Zm-32.517,28.575a0.985,0.985,0,0,1-.985-0.985V149.911a0.985,0.985,0,0,1,1.481-.851l11.825,6.9a0.986,0.986,0,0,1,0,1.7l-11.824,6.9A0.981,0.981,0,0,1,166.823,164.691Zm0.985-2.7,8.883-5.182-8.883-5.181V161.99ZM197.369,177.5a0.985,0.985,0,0,1-.985.985H147.116a0.986,0.986,0,0,1-.986-0.985V138.086a2.961,2.961,0,0,1,2.956-2.956h45.327a2.96,2.96,0,0,1,2.956,2.956V173.56a0.985,0.985,0,0,1-1.97,0V138.086a0.987,0.987,0,0,0-.986-0.985H149.086a0.986,0.986,0,0,0-.985.985v38.43h48.283A0.985,0.985,0,0,1,197.369,177.5Zm-46.311,4.927h7.078a2.939,2.939,0,0,1,5.55,0h30.727a0.986,0.986,0,1,1,0,1.971H163.686a2.939,2.939,0,0,1-5.549,0h-7.079A0.986,0.986,0,1,1,151.058,182.428Zm9.853,1.971a0.986,0.986,0,1,0-.986-0.986A0.986,0.986,0,0,0,160.911,184.4Z" transform="translate(-142.188 -131.188)"/>
</svg>
