<svg xmlns="http://www.w3.org/2000/svg" width="57.25" height="61.657" viewBox="0 0 57.25 61.657">
  <defs>
    <style>
      .cls-1 {
        fill: #fa7124;
        fill-rule: evenodd;
      }
    </style>
  </defs>
  <path class="cls-1" d="M816.4,300.559H760.964a0.912,0.912,0,0,1-.912-0.913V289.058a9.913,9.913,0,0,1,6.261-9.247l13.116-5.247a0.911,0.911,0,0,1,1.2.538l3.861,10.673,1.27-3.652-1.123-2.744a0.914,0.914,0,0,1,.845-1.258h6.407a0.914,0.914,0,0,1,.845,1.258l-1.123,2.744,1.27,3.653,3.861-10.674a0.909,0.909,0,0,1,1.2-.536l13.115,5.245a9.913,9.913,0,0,1,6.261,9.247v10.59a0.912,0.912,0,0,1-.913.911h0Zm-54.521-1.825h53.609v-9.676a8.1,8.1,0,0,0-5.113-7.553l-12.241-4.9-4.413,12.205A0.913,0.913,0,0,1,792,288.8L789.77,282.4a0.905,0.905,0,0,1,.018-0.644l0.738-1.806h-3.689l0.738,1.806a0.905,0.905,0,0,1,.018.644l-2.228,6.408a0.912,0.912,0,0,1-1.719.01l-4.415-12.205-12.241,4.9a8.1,8.1,0,0,0-5.113,7.553v9.676Zm47.517-2.166h-10.21a0.913,0.913,0,0,1-.914-0.912V289.37a0.913,0.913,0,0,1,.914-0.913h10.21a0.913,0.913,0,0,1,.914.913v6.286a0.913,0.913,0,0,1-.914.912h0Zm-9.3-1.825h8.388v-4.461H800.1v4.461ZM788.682,274.35a11.063,11.063,0,0,1-4.1-.779,7.833,7.833,0,0,1-2.474-1.5c-1.751-1.635-3.571-5.132-4.242-6.494-1.141-.056-3.478-0.664-4.491-4.533a5.656,5.656,0,0,1,.342-4.589,3.336,3.336,0,0,1,1.311-1.185,19.085,19.085,0,0,1,.08-2.015c-0.641-.98-2.045-3.9.364-8.177a0,0,0,0,0,0,0l0-.006,0.013-.022a0.024,0.024,0,0,1,.006-0.01,0.067,0.067,0,0,1,.006-0.012v0c1.578-2.758,3.618-3.339,5.054-3.34h0a5.255,5.255,0,0,1,.939.085c0.654-1.15,2.49-2.86,7.613-2.86h0.257a15.068,15.068,0,0,1,7.756,2.323,11.7,11.7,0,0,1,5.618,6.511,9.408,9.408,0,0,1,.312,2.562v0.021a19.3,19.3,0,0,1-.731,4.845v0.1a3.381,3.381,0,0,1,1.312,1.185,5.662,5.662,0,0,1,.34,4.591c-1.012,3.868-3.349,4.477-4.49,4.532-0.671,1.362-2.491,4.86-4.244,6.5a7.815,7.815,0,0,1-2.474,1.494,11.013,11.013,0,0,1-4.092.781h0Zm-10.264-10.616a0.93,0.93,0,0,1,.841.524c0.021,0.048,2.205,4.715,4.1,6.484a6.072,6.072,0,0,0,1.9,1.133,9.325,9.325,0,0,0,6.841,0,6.065,6.065,0,0,0,1.9-1.133c1.895-1.769,4.078-6.436,4.1-6.483a0.915,0.915,0,0,1,1.008-.509,1.568,1.568,0,0,0,.193.011c0.778,0,2.189-.413,2.911-3.174a4.125,4.125,0,0,0-.088-3.108,1.515,1.515,0,0,0-.9-0.684,0.9,0.9,0,0,1-.743-0.975s0.023-.282.026-0.749a2.451,2.451,0,0,0-.532-1.393c-0.466-.373-3.309-0.921-6.057-1.451-1.156-.225-2.465-0.477-3.845-0.759h-0.006a10.922,10.922,0,0,1-2.314-.659,13.987,13.987,0,0,1-4.883-3.023,9.247,9.247,0,0,1-1.75,3.079,11.669,11.669,0,0,1-4.213,2.821,14.888,14.888,0,0,0-.027,2.134,0.915,0.915,0,0,1-.76.978,1.527,1.527,0,0,0-.887.682,4.127,4.127,0,0,0-.089,3.107c0.724,2.762,2.134,3.174,2.912,3.174a1.472,1.472,0,0,0,.2-0.012,0.779,0.779,0,0,1,.157-0.015h0Zm4.04-18.711a0.908,0.908,0,0,1,.761.41,11.239,11.239,0,0,0,5.189,3.671l0.051,0.019a8.916,8.916,0,0,0,1.951.551l0.034,0.007c1.365,0.279,2.669.53,3.82,0.753,4.149,0.8,6.007,1.178,6.823,1.8a14.206,14.206,0,0,0,.149-1.91V250.3a7.731,7.731,0,0,0-.211-1.938c-0.009-.04-0.019-0.079-0.031-0.118-0.023-.08-0.049-0.161-0.079-0.248a10.131,10.131,0,0,0-4.6-5.13,0.861,0.861,0,0,1-.108-0.058,13.259,13.259,0,0,0-6.85-2.072h-0.238c-0.146,0-.288,0-0.426,0h-0.006c-5.125.108-5.7,2.156-5.731,2.268,0,0.022-.008.046-0.013,0.07a0.946,0.946,0,0,1-.174.359,0.964,0.964,0,0,1-.22.2,0.927,0.927,0,0,1-.447.144,0.864,0.864,0,0,1-.289-0.031,1.126,1.126,0,0,1-.131-0.046,3.178,3.178,0,0,0-1.115-.192h0c-1.391,0-2.563.821-3.482,2.44v0h0a0.021,0.021,0,0,0,0,.007l-0.006.008s0,0,0,0,0,0,0,0c-1.678,2.976-1.084,5.028-.631,5.931a9.826,9.826,0,0,0,3.345-2.284,9.2,9.2,0,0,0,1.78-3.864,0.908,0.908,0,0,1,.719-0.718,0.763,0.763,0,0,1,.178-0.018h0Z" transform="translate(-760.063 -238.906)"/>
</svg>
