<svg xmlns="http://www.w3.org/2000/svg" width="40.125" height="40.063" viewBox="0 0 40.125 40.063">
  <defs>
    <style>
      .cls-1 {
        fill: #fa7124;
        fill-rule: evenodd;
      }
    </style>
  </defs>
  <path class="cls-1" d="M269.074,158.014A1.273,1.273,0,0,0,270.548,157a17.856,17.856,0,0,1,35.073,0,1.276,1.276,0,0,0,1.469,1.017,1.259,1.259,0,0,0,1.053-1.231,1.309,1.309,0,0,0-.018-0.215,20.4,20.4,0,0,0-40.079,0,1.248,1.248,0,0,0,1.028,1.446h0Zm38.022,4.045a1.268,1.268,0,0,0-1.469,1.016,17.86,17.86,0,0,1-35.079.007,1.269,1.269,0,0,0-2.5.428,20.4,20.4,0,0,0,40.079,0,0.916,0.916,0,0,0,.024-0.22,1.267,1.267,0,0,0-1.053-1.231h0Zm-13.343,9.488a1.189,1.189,0,0,0,.588.153,1.262,1.262,0,0,0,.7-0.215l6-4.058a1.285,1.285,0,0,0,0-2.118l-6-4.064a1.245,1.245,0,0,0-1.285-.062,1.276,1.276,0,0,0-.661,1.121v3.048h-2.5a4.882,4.882,0,0,1-2.2-.544,1.241,1.241,0,0,0-1.67.581,1.27,1.27,0,0,0,.569,1.7,7.283,7.283,0,0,0,3.305.808h2.5v2.54a1.262,1.262,0,0,0,.661,1.114h0Zm1.843-6.868,2.5,1.689-2.5,1.69v-3.379Zm-18.767-9.488h1.249a4.842,4.842,0,0,1,2.2.546,1.208,1.208,0,0,0,.552.128,1.253,1.253,0,0,0,1.127-.7,1.281,1.281,0,0,0-.571-1.7,7.308,7.308,0,0,0-3.3-.8h-1.256a1.267,1.267,0,0,0,.007,2.533h0Zm24.214-2.068-6.011-4.065a1.234,1.234,0,0,0-1.279-.061,1.265,1.265,0,0,0-.661,1.121v2.54h-2.5a7.568,7.568,0,0,0-7.5,7.613,5.048,5.048,0,0,1-5.006,5.081h-1.249a1.271,1.271,0,0,0,0,2.541h1.249a7.566,7.566,0,0,0,7.5-7.622,5.048,5.048,0,0,1,5.007-5.074h2.5v3.048a1.268,1.268,0,0,0,.661,1.12,1.239,1.239,0,0,0,.588.148,1.262,1.262,0,0,0,.7-0.215l6-4.064a1.279,1.279,0,0,0,0-2.111h0Zm-5.447,2.748v-3.385l2.5,1.69Z" transform="translate(-268.031 -140)"/>
</svg>
