<svg xmlns="http://www.w3.org/2000/svg" width="65.38" height="65.375" viewBox="0 0 65.38 65.375">
  <defs>
    <style>
      .cls-1 {
        fill: #fa7124;
        fill-rule: evenodd;
      }
    </style>
  </defs>
  <path class="cls-1" d="M1151.65,48.87h-61.3V27.417a3.073,3.073,0,0,1,3.07-3.065h55.16a3.073,3.073,0,0,1,3.07,3.065V48.87Zm0,33.713a3.073,3.073,0,0,1-3.07,3.065h-4.08v-14.3h1.02a1.024,1.024,0,0,0,1.02-1.021V49.892h5.11V82.583h0Zm-8.17,3.065h-8.18v-14.3h1.02a1.027,1.027,0,0,0,1.03-1.022V49.892h4.08V70.324a1.024,1.024,0,0,0,1.02,1.022h1.02v14.3h0.01Zm-9.2,0h-8.17v-14.3h1.02a1.024,1.024,0,0,0,1.02-1.022V49.892h4.09V70.324a1.024,1.024,0,0,0,1.02,1.022h1.02v14.3Zm-9.19,0h-8.18V49.892h6.13V70.324a1.024,1.024,0,0,0,1.02,1.022h1.03v14.3Zm-9.2,0h-8.17v-14.3h1.02a1.024,1.024,0,0,0,1.02-1.022V49.892h6.13V85.648Zm-9.19,0h-8.18v-14.3h1.03a1.024,1.024,0,0,0,1.02-1.022V49.892h4.08V70.324a1.027,1.027,0,0,0,1.03,1.022h1.02v14.3Zm-9.2,0h-4.08a3.073,3.073,0,0,1-3.07-3.065V49.892h5.11V70.324a1.024,1.024,0,0,0,1.02,1.022h1.02v14.3h0Zm51.08-63.338h-55.16a5.111,5.111,0,0,0-5.11,5.108V82.583a5.111,5.111,0,0,0,5.11,5.108h55.16a5.111,5.111,0,0,0,5.11-5.108V27.417a5.111,5.111,0,0,0-5.11-5.108h0Zm-44.95,8.173h2.05a1.021,1.021,0,0,0,0-2.043h-2.05a1.021,1.021,0,0,0,0,2.043h0Zm-4.08,0a1.021,1.021,0,1,0-1.03-1.022,1.023,1.023,0,0,0,1.03,1.022h0Zm-4.09,0a1.021,1.021,0,1,0-1.02-1.022,1.023,1.023,0,0,0,1.02,1.022h0Zm45.97-1.532a0.51,0.51,0,1,0-1.02,0v6.64h-1.02v2.043h1.02v6.641a0.51,0.51,0,1,0,1.02,0V37.633h1.02V35.59h-1.02V28.95Zm6.13,0a0.51,0.51,0,1,0-1.02,0v6.64h-1.02v2.043h1.02v6.641a0.51,0.51,0,1,0,1.02,0V37.633h1.02V35.59h-1.02V28.95Zm-17.88,12.77h2.51a2.554,2.554,0,1,1,0-1.022h-2.51a0.511,0.511,0,0,0,0,1.022h0Zm0-4.087a3.576,3.576,0,1,0,3.58,3.576,3.574,3.574,0,0,0-3.58-3.576h0Zm-9.19,4.087h2.5a2.554,2.554,0,1,1,0-1.022h-2.5a0.511,0.511,0,0,0,0,1.022h0Zm0-4.087a3.576,3.576,0,1,0,3.57,3.576,3.576,3.576,0,0,0-3.57-3.576h0Zm9.7-3.117v-2.5a0.505,0.505,0,0,0-.51-0.511,0.511,0.511,0,0,0-.51.511v2.5a2.562,2.562,0,1,1,1.02,0h0Zm-0.51-6.077a3.576,3.576,0,1,0,3.58,3.575,3.574,3.574,0,0,0-3.58-3.575h0Zm-19.92,14.3a1.024,1.024,0,0,1-1.02,1.022h-12.26a1.024,1.024,0,0,1-1.02-1.022V34.568a1.024,1.024,0,0,1,1.02-1.021h12.26a1.024,1.024,0,0,1,1.02,1.021v8.173Zm-1.02-10.216h-12.26a2.039,2.039,0,0,0-2.04,2.043v8.173a2.039,2.039,0,0,0,2.04,2.044h12.26a2.039,2.039,0,0,0,2.04-2.044V34.568a2.039,2.039,0,0,0-2.04-2.043h0Zm11.75,2.044a2.554,2.554,0,0,1-.51-5.057v2.5a0.51,0.51,0,1,0,1.02,0v-2.5a2.554,2.554,0,0,1-.51,5.057h0Zm0-6.13a3.576,3.576,0,1,0,3.57,3.575,3.576,3.576,0,0,0-3.57-3.575h0Z" transform="translate(-1088.31 -22.313)"/>
</svg>
