<svg xmlns="http://www.w3.org/2000/svg" width="83.875" height="36.813" viewBox="0 0 83.875 36.813">
  <defs>
    <style>
      .cls-1 {
        fill: #fa7124;
        fill-rule: evenodd;
      }
    </style>
  </defs>
  <path class="cls-1" d="M561.535,93.4H514.464a18.4,18.4,0,1,1,0-36.8h47.071A18.4,18.4,0,1,1,561.535,93.4Zm-4.179-2.74h4.179a15.693,15.693,0,0,0,2.074-.141V76.179h-3.861v7.605a1.37,1.37,0,0,1-1.37,1.37h-1.022V90.66Zm-2.391-8.246h2.043V76.179h-2.043v6.235Zm-6.6,8.246h6.252V85.154h-1.021a1.37,1.37,0,0,1-1.37-1.37V76.179h-1.469v7.605a1.371,1.371,0,0,1-1.371,1.37h-1.021V90.66Zm-2.392-8.246h2.043V76.179h-2.043v6.235Zm-6.6,8.246h6.253v-5.5H544.6a1.372,1.372,0,0,1-1.371-1.371V76.179h-3.86V90.66Zm-8.993,0h6.252V76.179h-6.252V90.66Zm-8.993,0h6.252V76.179h-3.861v7.605a1.37,1.37,0,0,1-1.37,1.37h-1.021V90.66Zm-2.392-8.246h2.042V76.179h-2.042v6.235Zm-6.6,8.1a15.677,15.677,0,0,0,2.073.141h4.179v-5.5h-1.022a1.371,1.371,0,0,1-1.37-1.371V76.179h-3.86V90.518Zm49.144-31.177H514.464A15.658,15.658,0,0,0,509.65,89.9V74.809a1.371,1.371,0,0,1,1.37-1.37h53.959a1.37,1.37,0,0,1,1.371,1.37V89.9A15.658,15.658,0,0,0,561.535,59.341Zm12.279,17.03A1.371,1.371,0,1,1,575.184,75,1.371,1.371,0,0,1,573.814,76.371Zm-2.924,3.106a1.371,1.371,0,1,1,1.371-1.37A1.37,1.37,0,0,1,570.89,79.477Zm0-6.212a1.371,1.371,0,1,1,1.371-1.37A1.37,1.37,0,0,1,570.89,73.264Zm-5.911-3.016h-12.15a1.37,1.37,0,1,1,0-2.741h12.15A1.37,1.37,0,1,1,564.979,70.248Zm0-4.593h-12.15a1.371,1.371,0,1,1,0-2.741h12.15A1.371,1.371,0,1,1,564.979,65.655Zm-24.587,5.166a4.24,4.24,0,1,1,4.24-4.241A4.245,4.245,0,0,1,540.392,70.822Zm0-5.741a1.5,1.5,0,1,0,1.5,1.5A1.5,1.5,0,0,0,540.392,65.081Zm-11.864,5.741a4.24,4.24,0,1,1,4.241-4.241A4.246,4.246,0,0,1,528.528,70.822Zm0-5.741a1.5,1.5,0,1,0,1.5,1.5A1.5,1.5,0,0,0,528.528,65.081Zm-11.863,5.741a4.24,4.24,0,1,1,4.24-4.241A4.246,4.246,0,0,1,516.665,70.822Zm0-5.741a1.5,1.5,0,1,0,1.5,1.5A1.5,1.5,0,0,0,516.665,65.081Zm-11.556,14.4a1.371,1.371,0,1,1,1.371-1.37A1.371,1.371,0,0,1,505.109,79.477Zm0-6.212a1.371,1.371,0,1,1,1.371-1.37A1.371,1.371,0,0,1,505.109,73.264Zm-2.923,3.107A1.371,1.371,0,1,1,503.557,75,1.371,1.371,0,0,1,502.186,76.371Z" transform="translate(-496.063 -56.594)"/>
</svg>
