<svg xmlns="http://www.w3.org/2000/svg" width="59.594" height="56.687" viewBox="0 0 59.594 56.687">
  <defs>
    <style>
      .cls-1 {
        fill: #fa7124;
        fill-rule: evenodd;
      }
    </style>
  </defs>
  <path class="cls-1" d="M792.022,161.943l-1.16-3.542a25.876,25.876,0,0,1,19.386,15.485l-3.544-.008A22.671,22.671,0,0,0,792.022,161.943Zm24.29,15.181-18.357,13.4,6.973,21.632L786.51,198.84l-18.419,13.318,6.973-21.632-18.356-13.4,22.729-.052,7.073-21.6,7.073,21.6Zm-50.13-3.246-3.544.008a25.874,25.874,0,0,1,19.528-15.509l-1.156,3.531A22.665,22.665,0,0,0,766.182,173.878Zm2.982,24.441-1.139,3.535A25.7,25.7,0,0,1,760.651,184l3.378,2.466A22.5,22.5,0,0,0,769.164,198.319Zm17.279,8.065a22.546,22.546,0,0,0,4.4-.432l3.392,2.453a25.824,25.824,0,0,1-15.491.03l3.4-2.462A22.605,22.605,0,0,0,786.443,206.384Zm22.4-19.817,3.389-2.474a25.706,25.706,0,0,1-7.273,17.659l-1.143-3.547A22.475,22.475,0,0,0,808.845,186.567Z" transform="translate(-756.719 -155.469)"/>
</svg>
