<svg xmlns="http://www.w3.org/2000/svg" width="48.625" height="48.625" viewBox="0 0 48.625 48.625">
  <defs>
    <style>
      .cls-1 {
        fill: #fa7124;
        fill-rule: evenodd;
      }
    </style>
  </defs>
  <path class="cls-1" d="M432.772,139.189H390.228a3.038,3.038,0,0,0-3.039,3.039v42.544a3.039,3.039,0,0,0,3.039,3.039h42.544a3.039,3.039,0,0,0,3.039-3.039V142.228a3.038,3.038,0,0,0-3.039-3.039h0Zm-31.908,42.544h-7.6V152.864h4.559v13.674a3.04,3.04,0,0,0,3.039,3.04v12.155Zm15.194,0h-9.117V169.578a3.039,3.039,0,0,0,3.039-3.04V152.864h3.04v13.674a3.039,3.039,0,0,0,3.038,3.04v12.155Zm-2.279-33.427a2.28,2.28,0,1,1,2.279-2.279,2.28,2.28,0,0,1-2.279,2.279h0Zm5.318-2.279a2.279,2.279,0,1,1,2.279,2.279,2.28,2.28,0,0,1-2.279-2.279h0Zm10.636,35.706h-7.6V169.578a3.04,3.04,0,0,0,3.039-3.04V152.864h4.558v28.869Zm-0.76-33.427a2.28,2.28,0,1,1,2.28-2.279,2.28,2.28,0,0,1-2.28,2.279h0Z" transform="translate(-387.188 -139.188)"/>
</svg>
