<svg xmlns="http://www.w3.org/2000/svg" width="53.625" height="48.281" viewBox="0 0 53.625 48.281">
  <defs>
    <style>
      .cls-1 {
        fill: #fa7124;
        fill-rule: evenodd;
      }
    </style>
  </defs>
  <path class="cls-1" d="M810.494,94.256L786.923,98l-23.469-8.972V87.687l23.63,8.647v0.01L809.292,93.1l6.377-27.216,1.435,0.993Zm-23.327.687-23.319-8.371,17.475-2.587,4.132-21.7,28.87,2.828-6.4,27.041Zm-8.774-5.82-2.763.369,5.727,2.185,3.455-.407Zm8.248-24.929-3.707,19.156,23.1,6.535,5.391-22.779Zm10.324,11.419a1.837,1.837,0,0,1-1.369-.092l1.911,6,0.217,0.657L792,85.252l-0.391-1.194,0.025-.019L789.4,77.056l0.023-.008a1.864,1.864,0,1,1,2.4,1.467,1.836,1.836,0,0,1-1.367-.084l1.409,4.409,4.649-2.479-1.986-6.212,0.025-.008A1.863,1.863,0,1,1,796.965,75.612Zm-4.982,7.551,0.184,0.592,4.639-2.487-0.184-.582Zm19.78-24.846h-0.025a1.863,1.863,0,1,1-1.845-2.137,1.877,1.877,0,0,1,1.277.5V52.05L806,53V59.52H805.97a1.863,1.863,0,1,1-1.844-2.137,1.845,1.845,0,0,1,1.277.508v-6.3l-0.009-.695,6.394-1.183,0.008,1.26-0.033.008v7.336Zm-0.593-7.229L806,52.05v0.6l5.175-.954V51.089ZM795.237,60.17a2.2,2.2,0,1,1-1.661-3.73l-5.309-5.19L788.511,51l0.25-.249,0.35-.368,0.583,0.569,2.88,0.359-0.108.86-2-.25,0.424,0.416,2.888,0.359-0.108.87-2.345-.3,4.114,4.024-0.017.017A2.206,2.206,0,0,1,795.237,60.17Zm-11.384,8.814-0.525.686-1.871-1.445,1.5,5.551-0.025.006a2.2,2.2,0,1,1-2.754-1.861,2.173,2.173,0,0,1,1.6.175l-1.937-7.159,0.342-.092,0.333-.093,0.5-.135,0.207,0.787,2.3,1.778L783,67.866l-1.6-1.243,0.16,0.583Zm-16.45,10.4a1.863,1.863,0,0,1,1.26-3.5,1.858,1.858,0,0,1,1.293,2.285,1.893,1.893,0,0,1-.827,1.1l4.466,1.235,0.467-5.242-6.286-1.746,0.009-.023a1.848,1.848,0,1,1,1.729-.109l6.068,1.677,0.666,0.184-0.566,6.467-1.22-.315,0.008-.044L767.4,79.408V79.385Zm7.119,1.375,0.459-5.239-0.585-.159L773.928,80.6Zm7.754-23.344h-1.545l-0.008-3.6-0.644.841,0.018,5.184-1.545.008-0.009-4.2-6.175,8.161-0.034-.032a3.932,3.932,0,1,1,1.1-3.454l7.978-10.542,0.5,0.375,0.5,0.377,0.726,0.549-0.867,1.152Z" transform="translate(-763.469 -49.719)"/>
</svg>
