<svg xmlns="http://www.w3.org/2000/svg" width="62.875" height="67.75" viewBox="0 0 62.875 67.75">
  <defs>
    <style>
      .cls-1 {
        fill: #fa7124;
        fill-rule: evenodd;
      }
    </style>
  </defs>
  <path class="cls-1" d="M553.017,333.872a36.323,36.323,0,0,0-15.833-12.781c-6.848-2.8-14.4-2.594-21.422-.538a26.638,26.638,0,0,0-15.236,10.895A25.322,25.322,0,0,0,497,347.621a33,33,0,0,0,14.363,23.654,6.481,6.481,0,0,0,1.775,4.807,12.036,12.036,0,0,0,4.7,2.965,13.773,13.773,0,0,1-6.5,4.737,1.53,1.53,0,0,0-1.045,1.844,1.5,1.5,0,0,0,1.843,1.047,16.719,16.719,0,0,0,8.626-6.744c0.3,0.072.6,0.14,0.889,0.2a38.258,38.258,0,0,0,11.926.538c7.676-.8,15.166-4.12,20.249-10.06,9.06-10.585,6.754-26.029-.815-36.738h0Zm-38.269,39.4a31.933,31.933,0,0,0,3.684,1.607c0.354,0.128.713,0.246,1.07,0.359-0.092.368-.2,0.732-0.323,1.089a13.351,13.351,0,0,1-2.8-1.4,6.057,6.057,0,0,1-1.63-1.651h0Zm0.013-3.416a3.212,3.212,0,0,1,1-1.331,2,2,0,0,1,2.259.078,3.9,3.9,0,0,1,1.766,2.832c0.032,0.243.051,0.492,0.061,0.741a28.808,28.808,0,0,1-5.088-2.32h0Zm36.69-1.06c-4.986,5.726-12.366,8.585-19.816,9.039a34.3,34.3,0,0,1-9.587-.684c0.128-.377.243-0.765,0.343-1.161a36.132,36.132,0,0,0,3.93.591c1.924,0.186,1.907-2.813,0-3a28.065,28.065,0,0,1-3.5-.564,8.252,8.252,0,0,0-1.644-5.576,5.817,5.817,0,0,0-4.668-2.215,5.167,5.167,0,0,0-4.253,3,30.28,30.28,0,0,1-11.382-16.207,24.524,24.524,0,0,1,.538-15.774c2.035-5.215,6.477-9.245,11.752-11.59a30.588,30.588,0,0,1,20.569-1.606,32.108,32.108,0,0,1,15.845,11.186c7.658,9.691,10.517,24.625,1.87,34.556h0Z" transform="translate(-496.844 -319)"/>
</svg>
