<svg xmlns="http://www.w3.org/2000/svg" width="46.063" height="47.344" viewBox="0 0 46.063 47.344">
  <defs>
    <style>
      .cls-1 {
        fill: #fa7124;
        fill-rule: evenodd;
      }
    </style>
  </defs>
  <path class="cls-1" d="M684.58,462.159a5.889,5.889,0,0,0,1.377-3.932,6.047,6.047,0,0,0-1.288-3.408,5.294,5.294,0,0,0-1.258-6.092c-1.575-1.436-4.25-2.08-7.955-1.9a31.208,31.208,0,0,0-4.873.624h-0.01c-0.5.09-1.021,0.2-1.556,0.317-0.039-.634.07-2.209,1.239-5.755,1.386-4.22,1.308-7.449-.258-9.609a6.3,6.3,0,0,0-5.042-2.447,2.491,2.491,0,0,0-1.912.872c-1.1,1.278-.97,3.635-0.832,4.725-1.307,3.507-4.972,12.106-8.073,14.492a1.055,1.055,0,0,0-.158.139,10.622,10.622,0,0,0-1.942,2.913,4.09,4.09,0,0,0-1.962-.5h-6.042a4.124,4.124,0,0,0-4.121,4.121v16.1a4.123,4.123,0,0,0,4.121,4.12h6.042a4.111,4.111,0,0,0,2.378-.753l2.328,0.278a99.788,99.788,0,0,0,13.2.723c1.179,0.089,2.289.139,3.319,0.139a22.252,22.252,0,0,0,4.606-.416c3.031-.644,5.1-1.932,6.152-3.824a6.063,6.063,0,0,0,.673-3.794,6.318,6.318,0,0,0,2.249-5.141,6.718,6.718,0,0,0-.406-1.992h0Zm-40.545,12.106a1.447,1.447,0,0,1-1.446-1.446V456.711a1.447,1.447,0,0,1,1.446-1.446h6.042a1.448,1.448,0,0,1,1.447,1.446v16.1a1.448,1.448,0,0,1-1.447,1.447h-6.042v0.01ZM682.044,461a1.33,1.33,0,0,0-.178,1.615,4.109,4.109,0,0,1,.455,1.654,3.961,3.961,0,0,1-1.862,3.427,1.35,1.35,0,0,0-.456,1.526,3.5,3.5,0,0,1-.267,2.556c-0.664,1.188-2.14,2.04-4.379,2.515a26.056,26.056,0,0,1-7.221.218H668a97.715,97.715,0,0,1-12.877-.7h-0.01l-1-.119a4.151,4.151,0,0,0,.089-0.871V456.711a4.192,4.192,0,0,0-.188-1.228,8.283,8.283,0,0,1,1.842-3.4c4.448-3.526,8.8-15.423,8.985-15.938a1.254,1.254,0,0,0,.06-0.664,6.179,6.179,0,0,1,.129-2.873,3.557,3.557,0,0,1,2.793,1.337c1.01,1.4.971,3.894-.119,7.2-1.664,5.042-1.8,7.7-.485,8.866a2.159,2.159,0,0,0,2.159.386c0.605-.138,1.179-0.257,1.724-0.346,0.039-.011.089-0.02,0.128-0.03,3.042-.664,8.49-1.07,10.382.654a2.848,2.848,0,0,1,.337,3.615,1.324,1.324,0,0,0,.238,1.724,3.751,3.751,0,0,1,1.1,2.308A3.679,3.679,0,0,1,682.044,461h0Z" transform="translate(-639.906 -429.969)"/>
</svg>
