<svg xmlns="http://www.w3.org/2000/svg" width="56.9" height="60.843" viewBox="0 0 56.9 60.843">
  <defs>
    <style>
      .cls-1 {
        fill: #fa7124;
        fill-rule: evenodd;
      }
    </style>
  </defs>
  <path class="cls-1" d="M1184.25,418.985a27.981,27.981,0,0,1-10.43,10.346,28.456,28.456,0,0,1-42.7-24.531v-3.977a28.455,28.455,0,1,1,56.91,0V404.8A28.354,28.354,0,0,1,1184.25,418.985Zm-37.98,8.671a26.554,26.554,0,0,0,26.59,0,26.033,26.033,0,0,0,10.71-11.575,28.475,28.475,0,0,1-47.98.026A26.463,26.463,0,0,0,1146.27,427.656Zm13.36-53.411a26.539,26.539,0,1,0,26.48,26.59A26.616,26.616,0,0,0,1159.63,374.245Zm-0.05,48.384a21.807,21.807,0,1,1,21.8-21.806A21.831,21.831,0,0,1,1159.58,422.629Zm0-41.695a19.889,19.889,0,1,0,19.88,19.889A19.914,19.914,0,0,0,1159.58,380.934Zm0.49,21.9h-3.21v1.65h6.09a0.96,0.96,0,1,1,0,1.919h-6.09v4.988a0.96,0.96,0,0,1-1.92,0V406.4h-1.33a0.96,0.96,0,0,1,0-1.919h1.33v-1.65h-1.33a0.959,0.959,0,0,1,0-1.918h1.33V390.271a0.969,0.969,0,0,1,.96-0.959h4.2a6.68,6.68,0,0,1,6.39,6.8A6.569,6.569,0,0,1,1160.07,402.83Zm-0.01-11.6h-3.2v9.682h3.21a4.661,4.661,0,0,0,4.51-4.8A4.781,4.781,0,0,0,1160.06,391.23Z" transform="translate(-1131.13 -372.313)"/>
</svg>
