<svg xmlns="http://www.w3.org/2000/svg" width="65.5" height="63.531" viewBox="0 0 65.5 63.531">
  <defs>
    <style>
      .cls-1 {
        fill: #fa7124;
        fill-rule: evenodd;
      }
    </style>
  </defs>
  <path class="cls-1" d="M208.225,238.317l-5.5,9.046a1.171,1.171,0,0,1-1.831.22,1.778,1.778,0,0,0-2.511,0l-0.878.879-23.877,24.459c-0.156.2-1.124,1.547-.371,2.3,0.567,0.567,1.708.465,3.393-.3q0.128-.057.315-0.15a2.394,2.394,0,0,1,2.316.051,3.029,3.029,0,0,1,1.389,2.514,4.237,4.237,0,0,1-1.433,3.332,19.382,19.382,0,0,1-5.524,3.121,5.223,5.223,0,0,0-3.165,3.674,17.773,17.773,0,0,1-2.82,6.715,9.664,9.664,0,0,1-15.123,1.886l-6.509-6.51a9.651,9.651,0,0,1-.482-13.133c-1-3.531-5.256-20.088-.171-29.628a12.1,12.1,0,0,1,7.358-6.142,13.5,13.5,0,0,1,5.838-.59,10.133,10.133,0,0,1,7.965,1.262c4.11,2.787,5.426,8.693,5.806,13.157a13.773,13.773,0,0,1-1.82,8.094c-0.034.058-1.453,2.4-1.485,2.446a1.169,1.169,0,0,0,.421,1.316,1.455,1.455,0,0,0,1.093.363l22.724-22.012a1.514,1.514,0,0,0,.388-0.629l0.4-1.273a1.169,1.169,0,0,1,.518-0.655l10.9-6.5A1.955,1.955,0,0,1,208.225,238.317Zm-62.607,44.42a7.475,7.475,0,0,0,2.232,5.246l6.419,6.419a7.311,7.311,0,0,0,11.478-1.475,1.162,1.162,0,0,1,.1-0.145,15.705,15.705,0,0,0,2.42-5.847,7.567,7.567,0,0,1,4.583-5.327,17.386,17.386,0,0,0,4.733-2.6,1.929,1.929,0,0,0,.749-1.561,0.788,0.788,0,0,0-.242-0.609s-0.028.008-.08,0.033c-0.157.079-.3,0.145-0.394,0.188-2.656,1.21-4.683,1.152-6.013-.178a3.308,3.308,0,0,1-.747-1.114l-0.332.341a1.157,1.157,0,0,1-.828.348h-0.007a1.166,1.166,0,0,1-.828-0.344l-3.072-3.071a1.178,1.178,0,0,1-.252-1.289,1.217,1.217,0,0,1,.284-0.4l2.851-2.762a3.47,3.47,0,0,1-.8-0.595,3.64,3.64,0,0,1-1.168-2.735,3.21,3.21,0,0,1,.31-1.293,10.258,10.258,0,0,1,1.271-2.108l0.068-.109a0.812,0.812,0,0,0,.046-0.794,0.662,0.662,0,0,0-.035-0.064,0.643,0.643,0,0,0-.329-0.3,0.627,0.627,0,0,0-.121-0.03,0.991,0.991,0,0,0-.565.089l-0.089.043c-2.112,1.044-3.753,3.28-5,6.82a10.853,10.853,0,0,1-6.753,6.666l-3.49,1.2s-1.739.516-2.266,0.768l-0.013.007A7.313,7.313,0,0,0,145.618,282.737Zm1.9-34.844c-4.227,7.929-1.182,21.949.066,26.789a15.749,15.749,0,0,1,1.62-.865,65.071,65.071,0,0,1-1.953-16.847,24.567,24.567,0,0,1,2.241-10.039,13.379,13.379,0,0,1,2.432-3.426A9.8,9.8,0,0,0,147.518,247.893Zm13.97-4.153a6.5,6.5,0,0,0-2.822-1.287c-0.317.075-.639,0.16-0.969,0.259-5.062,1.535-7.788,6.362-8.1,14.35a62.461,62.461,0,0,0,1.848,16.028l3.3-1.132a8.526,8.526,0,0,0,5.3-5.23c1.423-4.023,3.371-6.655,5.94-8.019C166.045,256.189,165.927,247.265,161.488,243.74Zm8.167,15.117a11.4,11.4,0,0,0,.423-4.182c-0.61-7.165-2.939-10.162-4.786-11.414a6.374,6.374,0,0,0-1.727-.819c4.448,4.216,4.814,12.572,4.778,15.8A3.048,3.048,0,0,1,169.655,258.857ZM194.636,246.7l-26.347,25.522,1.391,1.391L195.3,247.367Zm1.6-2.789-0.257.818,0.98,0.98a4.129,4.129,0,0,1,4.4-.615l4.042-6.655ZM156.31,281.859l3.73,3.731a1.172,1.172,0,0,1-1.658,1.658l-3.73-3.731A1.172,1.172,0,0,1,156.31,281.859Zm2.456-3.237a1.174,1.174,0,0,1,1.658,0l2.853,2.853a1.172,1.172,0,0,1-1.658,1.658l-2.853-2.853A1.172,1.172,0,0,1,158.766,278.622Zm4.443-4.443a1.172,1.172,0,0,1,1.658,0l2.853,2.853a1.172,1.172,0,0,1-1.658,1.658l-2.853-2.853A1.172,1.172,0,0,1,163.209,274.179Z" transform="translate(-143 -235.344)"/>
</svg>
