<svg xmlns="http://www.w3.org/2000/svg" width="62.344" height="55.813" viewBox="0 0 62.344 55.813">
  <defs>
    <style>
      .cls-1 {
        fill: #fa7124;
        fill-rule: evenodd;
      }
    </style>
  </defs>
  <path class="cls-1" d="M560.534,240.086l-10.441,6.574a1.41,1.41,0,1,1-1.5-2.387l8.448-5.318-20.057-11.4-11.964,7.534L545.8,246.9a1.593,1.593,0,0,1,.155.1l0.029,0.022a1.4,1.4,0,0,1,.109.095l0.023,0.022a1.4,1.4,0,0,1,.114.128l0.011,0.018c0.024,0.031.046,0.062,0.068,0.095l0.014,0.025c0.009,0.015.017,0.031,0.026,0.047,0.02,0.036.038,0.072,0.054,0.109,0.006,0.014.013,0.028,0.019,0.043a1.492,1.492,0,0,1,.053.155,0,0,0,0,0,0,0,1.71,1.71,0,0,1,.035.17l0,0.035c0,0.047.009,0.093,0.01,0.14,0,0.009,0,.017,0,0.025v16.925a1.411,1.411,0,0,1-.659,1.193l-7.337,4.619a1.4,1.4,0,0,1-.751.218,1.41,1.41,0,0,1-1.41-1.411v-16.1l-21.392-12.159-11.963,7.534,20.056,11.4,9.726-6.125a1.41,1.41,0,0,1,1.5,2.387l-10.44,6.575a1.411,1.411,0,0,1-.751.217,1.4,1.4,0,0,1-.7-0.185l-22.839-12.982a1.409,1.409,0,0,1-.055-2.419l14.672-9.239,0.01-.006,7.326-4.614,0.009-.006,14.662-9.232a1.409,1.409,0,0,1,1.449-.032l22.839,12.982A1.411,1.411,0,0,1,560.534,240.086Zm-42.853-.38,20.791,11.819a1.408,1.408,0,0,1,.713,1.226V267.12l4.515-2.843V250.686l-1.588,1a1.41,1.41,0,1,1-1.5-2.387l1.756-1.106-20.057-11.4Zm-16.72,13.717,22.105,12.564,9.726-6.124a1.41,1.41,0,0,1,1.5,2.387l-10.441,6.575a1.413,1.413,0,0,1-1.448.032l-22.839-12.982A1.41,1.41,0,0,1,500.961,253.423Zm0,5.641,22.105,12.565,9.726-6.125a1.41,1.41,0,0,1,1.5,2.387l-10.441,6.575a1.407,1.407,0,0,1-1.448.032l-22.839-12.982A1.41,1.41,0,0,1,500.961,259.064Zm0,5.642,22.105,12.564,9.726-6.124a1.41,1.41,0,0,1,1.5,2.387l-10.441,6.575a1.407,1.407,0,0,1-1.448.032l-22.839-12.982A1.41,1.41,0,0,1,500.961,264.706Zm58.07-21.365a1.41,1.41,0,0,1,1.5,2.387l-10.44,6.574a1.411,1.411,0,0,1-1.5-2.387Zm0,5.641a1.41,1.41,0,1,1,1.5,2.387l-10.44,6.574a1.411,1.411,0,1,1-1.5-2.387Zm0,5.642a1.41,1.41,0,1,1,1.5,2.386l-10.44,6.574a1.41,1.41,0,1,1-1.5-2.386Z" transform="translate(-498.844 -224.5)"/>
</svg>
