<svg xmlns="http://www.w3.org/2000/svg" width="46" height="54" viewBox="0 0 46 54">
  <defs>
    <style>
      .cls-1 {
        fill: #fa7124;
        fill-rule: evenodd;
      }
    </style>
  </defs>
  <path class="cls-1" d="M537.69,950.8a0.718,0.718,0,0,0,.275-0.81V949.9a12.723,12.723,0,0,0-4.96-7.656,0.841,0.841,0,0,0-.919-0.09c-3.215,1.081-5.787,1.081-7.808-.09-3.215-1.892-3.766-6.4-3.766-6.4a0.769,0.769,0,0,0-.643-0.72,13.244,13.244,0,0,0-9.83,0,0.787,0.787,0,0,0-.551.72s-0.551,4.414-3.766,6.4c-2.021,1.261-4.685,1.261-7.9.09a0.711,0.711,0,0,0-.827.09,12.724,12.724,0,0,0-4.961,7.656v0.09a1.24,1.24,0,0,0,.276.811,16.373,16.373,0,0,1,0,22.159,0.72,0.72,0,0,0-.276.811v0.09A12.722,12.722,0,0,0,497,981.514a0.949,0.949,0,0,0,.827.18c0.551-.18,12.125-4.053,16.351,5.765A0.8,0.8,0,0,0,515,988a0.784,0.784,0,0,0,.827-0.631c4.317-9.728,15.892-5.945,16.351-5.765a0.709,0.709,0,0,0,.827-0.09,12.72,12.72,0,0,0,4.96-7.656v-0.09a1.246,1.246,0,0,0-.275-0.811C531.994,967.372,531.994,956.383,537.69,950.8Zm-5.42,28.915c-2.389-.631-12.4-2.883-17.27,5.314-2.94-4.864-7.717-6.035-11.575-6.035a21.183,21.183,0,0,0-5.695.811,11.139,11.139,0,0,1-3.767-5.945,17.3,17.3,0,0,0,4.5-11.98,17.689,17.689,0,0,0-4.5-12.07,11.142,11.142,0,0,1,3.767-5.946c3.582,1.171,6.614,1.081,9-.36,3.215-1.982,4.226-5.765,4.5-7.206a11.963,11.963,0,0,1,7.532,0c0.276,1.441,1.286,5.224,4.5,7.206,2.389,1.441,5.42,1.531,9,.36a10.633,10.633,0,0,1,3.766,5.945c-5.971,6.306-5.971,17.655,0,23.961A10.63,10.63,0,0,1,532.27,979.713Zm-16.076-1.171c-0.367.36-.827,0.63-1.194,0.991a11.7,11.7,0,0,0-1.194-.991,0.985,0.985,0,0,0-1.286.18,0.955,0.955,0,0,0,.183,1.261,7.729,7.729,0,0,1,1.654,1.351,0.9,0.9,0,0,0,1.286,0l1.653-1.351a0.954,0.954,0,0,0,.184-1.261A1,1,0,0,0,516.194,978.542Zm-6.706-2.162a13.978,13.978,0,0,0-3.95-.811,1,1,0,0,0-1.01.811,0.913,0.913,0,0,0,.826.991,14.792,14.792,0,0,1,3.583.721h0.276a0.93,0.93,0,0,0,.826-0.541A0.9,0.9,0,0,0,509.488,976.38Zm-8.727-.811c-0.643.09-1.286,0.181-1.837,0.27a4.953,4.953,0,0,1-.827-1.261c0.368-.45.735-0.99,1.1-1.531a0.988,0.988,0,0,0-.368-1.261,1.029,1.029,0,0,0-1.286.36,12.345,12.345,0,0,1-1.194,1.8,1.046,1.046,0,0,0-.092.9,7.926,7.926,0,0,0,1.654,2.612,0.72,0.72,0,0,0,.643.27h0.183a18.748,18.748,0,0,1,2.2-.36,0.9,0.9,0,0,0,.827-0.991A0.864,0.864,0,0,0,500.761,975.569Zm0.368-20.177a0.817,0.817,0,0,0-1.1-.63,0.8,0.8,0,0,0-.643,1.081,23.9,23.9,0,0,1,.735,3.693,0.971,0.971,0,0,0,.919.81,0.09,0.09,0,0,1,.092.09,0.9,0.9,0,0,0,.826-0.99A31.679,31.679,0,0,0,501.129,955.392Zm-0.092,8.017a0.922,0.922,0,0,0-1.011.811,16.265,16.265,0,0,1-.735,3.783,0.977,0.977,0,0,0,.643,1.081h0.276a0.739,0.739,0,0,0,.827-0.631,28.943,28.943,0,0,0,.827-4.053A0.986,0.986,0,0,0,501.037,963.409Zm-1.929-12.7a8.9,8.9,0,0,0-1.011-1.531,5.1,5.1,0,0,1,.735-1.171c0.643,0.09,1.286.18,1.837,0.27a1.071,1.071,0,0,0,1.011-.811,1.057,1.057,0,0,0-.919-0.991,20.823,20.823,0,0,1-2.112-.36,0.842,0.842,0,0,0-.919.27,8.995,8.995,0,0,0-1.562,2.523,0.813,0.813,0,0,0,.092.9,12.345,12.345,0,0,1,1.194,1.8,1.1,1.1,0,0,0,.827.45,0.7,0.7,0,0,0,.459-0.09A0.9,0.9,0,0,0,499.108,950.708Zm9.829-6.575a9.669,9.669,0,0,1-3.4,1.891,0.932,0.932,0,0,0-.551,1.171,1.107,1.107,0,0,0,.919.631h0.183a12.142,12.142,0,0,0,4.042-2.342,0.863,0.863,0,0,0,.092-1.261A0.9,0.9,0,0,0,508.937,944.133Zm8.359-5.765a0.882,0.882,0,0,0-.735-0.631,9.634,9.634,0,0,0-3.215,0,0.885,0.885,0,0,0-.735.631,12.577,12.577,0,0,1-.735,1.981,0.887,0.887,0,0,0,.46,1.171,0.56,0.56,0,0,0,.367.09,0.554,0.554,0,0,0,.643-0.54,13.7,13.7,0,0,0,.735-1.712,4.552,4.552,0,0,1,1.562,0c0.275,0.631.459,1.171,0.735,1.712a0.919,0.919,0,0,0,1.194.45,0.887,0.887,0,0,0,.459-1.171A12.778,12.778,0,0,1,517.3,938.368Zm6.8,9.458a0.879,0.879,0,0,0,.827-0.631,0.9,0.9,0,0,0-.551-1.171,8.434,8.434,0,0,1-3.4-1.891,1,1,0,0,0-1.286.09,0.95,0.95,0,0,0,.092,1.261,10.77,10.77,0,0,0,4.042,2.342h0.275Zm5.236,0.45a12.936,12.936,0,0,0,1.838-.27,5.1,5.1,0,0,1,.735,1.171,8.9,8.9,0,0,0-1.011,1.531,0.985,0.985,0,0,0,.368,1.261,0.84,0.84,0,0,0,.459.09,0.941,0.941,0,0,0,.735-0.45,12.345,12.345,0,0,1,1.194-1.8,1.045,1.045,0,0,0,.092-0.9,8.995,8.995,0,0,0-1.562-2.523,0.892,0.892,0,0,0-.918-0.27,17.278,17.278,0,0,1-2.113.36,0.9,0.9,0,0,0-.827.991A0.863,0.863,0,0,0,529.33,948.276Zm-0.459,12.07h0.092a0.891,0.891,0,0,0,.918-0.81,16.325,16.325,0,0,1,.735-3.784,0.923,0.923,0,0,0-.643-1.08,1,1,0,0,0-1.1.63,28.943,28.943,0,0,0-.827,4.053A1.061,1.061,0,0,0,528.871,960.346Zm0.919,8.738h0.183a0.8,0.8,0,0,0,.643-1.081,27.59,27.59,0,0,1-.735-3.783,0.863,0.863,0,0,0-1.01-.811,0.9,0.9,0,0,0-.827.991,31.842,31.842,0,0,0,.827,4.053A1.105,1.105,0,0,0,529.79,969.084Zm1.1,3.963a8.965,8.965,0,0,0,1.01,1.532c-0.275.45-.551,0.9-0.826,1.261-0.643-.09-1.194-0.18-1.838-0.271a1,1,0,0,0-1.01.811,1.06,1.06,0,0,0,.827.991,18.732,18.732,0,0,1,2.2.36h0.184a1.056,1.056,0,0,0,.735-0.27,7.916,7.916,0,0,0,1.654-2.612,0.819,0.819,0,0,0-.092-0.9,12.255,12.255,0,0,1-1.194-1.8,0.939,0.939,0,0,0-1.286-.361A0.9,0.9,0,0,0,530.892,973.047Zm-6.43,2.432a27.994,27.994,0,0,0-3.95.811,0.932,0.932,0,0,0-.552,1.171,1.107,1.107,0,0,0,.919.63,0.323,0.323,0,0,0,.184-0.09,14.831,14.831,0,0,1,3.582-.72,0.9,0.9,0,0,0,.827-0.991A0.922,0.922,0,0,0,524.462,975.479Z" transform="translate(-492 -934)"/>
</svg>
