<svg xmlns="http://www.w3.org/2000/svg" width="42.875" height="51.625" viewBox="0 0 42.875 51.625">
  <defs>
    <style>
      .cls-1 {
        fill: #fa7124;
        fill-rule: evenodd;
      }
    </style>
  </defs>
  <path class="cls-1" d="M804.805,462.008a0.824,0.824,0,0,1,1.076.446l6.834,16.5a0.824,0.824,0,0,1-.99,1.107l-6.648-1.927-3.339,6.064a0.825,0.825,0,0,1-.722.426H800.97a0.825,0.825,0,0,1-.715-0.507l-7.449-17.984c-0.482.042-.97,0.066-1.464,0.066a16.554,16.554,0,0,1-12.121-5.273L772.147,478l5.636-1.633a0.824,0.824,0,0,1,.951.394l2.83,5.14,5.729-13.833a0.824,0.824,0,0,1,1.523.631l-6.386,15.416a0.825,0.825,0,0,1-.716.507h-0.045a0.822,0.822,0,0,1-.721-0.426l-3.339-6.064-6.649,1.927a0.825,0.825,0,0,1-.991-1.107l8.059-19.455a16.593,16.593,0,1,1,16.463,6.4l6.63,16,2.83-5.14a0.824,0.824,0,0,1,.951-0.394L810.537,478l-6.178-14.916A0.824,0.824,0,0,1,804.805,462.008Zm1.488-12.41a14.951,14.951,0,1,0-14.951,14.951A14.968,14.968,0,0,0,806.293,449.6Zm-24.469-3.093a0.825,0.825,0,0,1,.647-0.557l5.544-.93,2.6-4.985a0.824,0.824,0,0,1,1.461,0l2.6,4.985,5.542,0.93a0.823,0.823,0,0,1,.452,1.389l-3.938,4.011,0.828,5.559a0.823,0.823,0,0,1-1.182.859l-5.031-2.5-5.031,2.5a0.824,0.824,0,0,1-1.182-.859l0.828-5.559-3.937-4.011A0.824,0.824,0,0,1,781.824,446.505Zm5.6,3.981a0.819,0.819,0,0,1,.227.7l-0.655,4.4,3.983-1.984a0.828,0.828,0,0,1,.735,0l3.983,1.984-0.656-4.4a0.828,0.828,0,0,1,.227-0.7l3.118-3.175-4.389-.736a0.826,0.826,0,0,1-.594-0.432l-2.057-3.947-2.057,3.947a0.824,0.824,0,0,1-.594.432l-4.388.736Zm-9.381-.888a13.3,13.3,0,0,1,26.491-1.756,0.824,0.824,0,1,1-1.634.217,11.656,11.656,0,1,0,0,3.078,0.824,0.824,0,0,1,1.634.217A13.3,13.3,0,0,1,778.039,449.6Z" transform="translate(-769.906 -433)"/>
</svg>
