<svg xmlns="http://www.w3.org/2000/svg" width="61.75" height="56.5" viewBox="0 0 61.75 56.5">
  <defs>
    <style>
      .cls-1 {
        fill: #fa7124;
        fill-rule: evenodd;
      }
    </style>
  </defs>
  <path class="cls-1" d="M692.274,80.418l-9.922,2.448v19.165l7.961,7.961a1.256,1.256,0,0,1-1.776,1.776c-0.623-.623-5.477-5.476-6.185-6.185v1.541a1.256,1.256,0,1,1-2.511,0v-2.965a14.332,14.332,0,0,0,0-7.629V83.486l-7.455,1.839h0a1.259,1.259,0,0,1-1.225.982v0.767a14.177,14.177,0,0,0-18.833,10.34v-6.64h-2.922V92.73a1.256,1.256,0,0,1,0,2.511h-5.929V110.9a1.256,1.256,0,0,1-2.511,0V95.241h-4.961a1.256,1.256,0,1,1,0-2.511V86.307a1.256,1.256,0,1,1,0-2.511h4.961V72.2l-9.922-2.448a0.337,0.337,0,0,1,.063-0.664l4.028-.221a20.463,20.463,0,0,1,5.831.524V69.076a1.256,1.256,0,1,1,2.511,0v0.931a20.731,20.731,0,0,1,6.058,2.414L653,74.49a0.337,0.337,0,0,1-.254.617l-9.268-2.287V83.8h5.929a1.256,1.256,0,0,1,0,2.511v1.955h8.354V86.307a1.256,1.256,0,1,1,0-2.511h13.4a1.251,1.251,0,0,1,.86.343l1.761-1.052a20.689,20.689,0,0,1,6.059-2.414V79.49a1.256,1.256,0,0,1,2.511,0v0.567a20.588,20.588,0,0,1,5.831-.524l4.029,0.22A0.338,0.338,0,0,1,692.274,80.418Zm-7.919-8.672-6.571,3.874a2.01,2.01,0,0,1-.984.279l-5.812.109L670.9,81.284H660.25l0.075-4.715-7.776-4.665a2.01,2.01,0,0,1-.868-2.374l2.831-8.293a2.011,2.011,0,0,1,2.509-1.266l9.856-4.249a0.628,0.628,0,0,1,.555,1.126l-9.007,5.025a2,2,0,0,1-.106.664l-2.306,6.754,4.387,2.576L670.56,72c0.079-.011,5.636-0.116,5.636-0.116l4.674-2.756-5.113-9.756a0.628,0.628,0,0,1,1.081-.638l6.152,9.3A2.01,2.01,0,0,1,684.355,71.746Zm-18.539-1.372a4.169,4.169,0,1,1,4.169-4.169A4.168,4.168,0,0,1,665.816,70.374Zm-13.405,33.277a14.07,14.07,0,0,0,.906,2.625l-5.481,5.481a1.255,1.255,0,0,1-1.776-1.775Zm21.262-16.086c1.279-.306,3.469-0.827,3.656-0.873v4.9a14.3,14.3,0,0,0-3.656-3.279V87.565Zm-7.482,1.126a11.719,11.719,0,1,1-11.655,11.656A11.656,11.656,0,0,1,666.191,88.691Zm0,20.926a9.144,9.144,0,1,0-9.144-9.145A9.155,9.155,0,0,0,666.191,109.617Z" transform="translate(-630.781 -55.656)"/>
</svg>
