<svg xmlns="http://www.w3.org/2000/svg" width="63.219" height="57.312" viewBox="0 0 63.219 57.312">
  <defs>
    <style>
      .cls-1 {
        fill: #fa7124;
        fill-rule: evenodd;
      }
    </style>
  </defs>
  <path class="cls-1" d="M282.692,385.514a0.6,0.6,0,0,1-.29-1.137,3.264,3.264,0,0,0,1.374-2.464c0.136-1,.34-3.72.428-6.608a7.674,7.674,0,0,1-6.924-6.191,5.847,5.847,0,0,1-4.565-.4,9.73,9.73,0,0,1-9.277-16.944,9.109,9.109,0,0,1,10.4-12.368,9.647,9.647,0,0,1,10.785-6.717,5.8,5.8,0,0,1,11.265-.151c0.125-.006.251-0.009,0.375-0.009a8.227,8.227,0,0,1,5.757,2.318,9.5,9.5,0,0,1,12.43,10.973,5.645,5.645,0,0,1,2.564,4.733v0.008a7.483,7.483,0,0,1-1.085,14.681,5.174,5.174,0,1,1-10.215,1.167c0-.066,0-0.133,0-0.2a10.25,10.25,0,0,1-4.991,1.28h-0.13a6.8,6.8,0,0,1-2.2-.224c-0.811,2.957-.231,12.55.056,14.648a3.259,3.259,0,0,0,1.374,2.464,0.61,0.61,0,0,1,.239.82,0.6,0.6,0,0,1-.811.246,4.418,4.418,0,0,1-2-3.366c-0.309-2.258-.907-12.273.021-15.291,0.631-2.051,2.729-2.679,4.416-3.184a5.314,5.314,0,0,0,2.334-1.056c0.936-1.121,2.72-2.955,4.162-2.636,0.895,0.2,2.818.716,2.9,0.738a0.6,0.6,0,1,1-.316,1.167c-0.019,0-1.978-.532-2.846-0.725-0.449-.1-1.572.555-2.97,2.231a5.943,5.943,0,0,1-2.916,1.44,7.129,7.129,0,0,0-3.025,1.415,6.7,6.7,0,0,0,1.588.1h0.13a9.044,9.044,0,0,0,5.471-1.821,0.6,0.6,0,0,1,.936.678,3.964,3.964,0,1,0,7.42-.229,0.606,0.606,0,0,1,.56-0.835h0.027a6.271,6.271,0,0,0,1.132-12.437,0.606,0.606,0,0,1-.491-0.653c0.014-.154.022-0.294,0.022-0.431a4.443,4.443,0,0,0-2.334-3.91,0.6,0.6,0,0,1-.3-0.688,8.294,8.294,0,0,0-11.084-9.843,0.606,0.606,0,0,1-.663-0.146,7.072,7.072,0,0,0-5.957-2.181,0.607,0.607,0,0,1-.663-0.508,4.588,4.588,0,0,0-9.091.192,0.6,0.6,0,0,1-.251.425,0.608,0.608,0,0,1-.486.1,8.447,8.447,0,0,0-10.123,6.289,0.605,0.605,0,0,1-.761.442,7.9,7.9,0,0,0-9.349,11,0.606,0.606,0,0,1-.218.774,8.52,8.52,0,0,0,7.99,14.991,0.606,0.606,0,0,1,.555.037,4.618,4.618,0,0,0,2.39.672,4.562,4.562,0,0,0,2.03-.475,0.606,0.606,0,0,1,.867.474,6.524,6.524,0,0,0,5.876,5.9,28.915,28.915,0,0,0-.437-6.952c-0.44-1.434-2.05-1.915-3.607-2.381a5.943,5.943,0,0,1-2.915-1.44c-1.4-1.674-2.518-2.329-2.97-2.231-0.869.193-2.827,0.72-2.847,0.726a0.6,0.6,0,1,1-.316-1.168c0.083-.022,2-0.54,2.9-0.738,1.441-.321,3.226,1.515,4.162,2.637a5.337,5.337,0,0,0,2.333,1.055c1.687,0.505,3.786,1.133,4.416,3.184,0.929,3.018.33,13.033,0.022,15.291a4.424,4.424,0,0,1-2,3.366,0.59,0.59,0,0,1-.282.071h0Zm8.018-4.586a0.6,0.6,0,0,1-.367-0.125,0.608,0.608,0,0,1-.113-0.85s0.65-1,.313-3.947a16.457,16.457,0,0,0-.66-2.982,13.778,13.778,0,0,1-.642-5.837,18.294,18.294,0,0,1,.683-3.882c0.007-.026.015-0.05,0.024-0.075a3.32,3.32,0,0,1,.814-1.524l0.766,0.936a0.146,0.146,0,0,0,.03-0.027,2.445,2.445,0,0,0-.368.729,12.452,12.452,0,0,1,1.957,4.758c0.684,3.335-1.27,7.537-1.354,7.714a0.506,0.506,0,0,1-.045.079c0.389,3.45-.459,4.668-0.558,4.8a0.6,0.6,0,0,1-.48.236h0Zm0.05-15.98a23.119,23.119,0,0,0-.314,2.346,12.561,12.561,0,0,0,.6,5.388c0.094,0.324.19,0.65,0.282,0.994a11.177,11.177,0,0,0,.637-5.331,12.494,12.494,0,0,0-1.2-3.4h0Zm6.616-3a0.53,0.53,0,0,1-.09-0.006c-0.086-.013-2.118-0.348-2.467-3.2-0.328-2.68,1.956-6.557,3.511-7.477a4.927,4.927,0,0,1,3.008-.377,4.893,4.893,0,0,0,1.68-.028,2.287,2.287,0,0,0,1.367-1.025,0.61,0.61,0,0,1,.808-0.275,0.6,0.6,0,0,1,.282.8,3.483,3.483,0,0,1-2.1,1.657,5.741,5.741,0,0,1-2.138.079,3.954,3.954,0,0,0-2.289.209c-1.106.656-3.2,4.053-2.927,6.291,0.21,1.714,1.181,2.078,1.409,2.141a16.949,16.949,0,0,0,4.6-.819,18.051,18.051,0,0,0,5.135-3.647,11.5,11.5,0,0,1,2.593-1.949,0.605,0.605,0,0,1,.568,1.069,10.375,10.375,0,0,0-2.286,1.716,19.105,19.105,0,0,1-5.562,3.934,18.044,18.044,0,0,1-5.084.907h-0.019Zm-12.531,0h-0.019a18.058,18.058,0,0,1-5.082-.907,19.137,19.137,0,0,1-5.564-3.935,10.49,10.49,0,0,0-2.285-1.717,0.6,0.6,0,1,1,.568-1.067,11.546,11.546,0,0,1,2.593,1.949,18.022,18.022,0,0,0,5.134,3.645,16.725,16.725,0,0,0,4.605.82c0.211-.056,1.195-0.412,1.406-2.14,0.275-2.238-1.821-5.635-2.928-6.291a3.947,3.947,0,0,0-2.287-.209,5.753,5.753,0,0,1-2.137-.08,3.484,3.484,0,0,1-2.1-1.656,0.6,0.6,0,1,1,1.092-.518,2.3,2.3,0,0,0,1.365,1.019,4.888,4.888,0,0,0,1.679.028,4.943,4.943,0,0,1,3.009.375c1.555,0.922,3.838,4.8,3.511,7.479-0.349,2.851-2.381,3.186-2.467,3.2a0.537,0.537,0,0,1-.09.006h0Zm26.1-2.251a0.6,0.6,0,0,1-.22-0.041l-0.072-.015c-0.5-.1-1.663-0.342-1.846-1.3s1.128-1.948,1.929-2.445a0.6,0.6,0,0,1,.638,1.027,4.393,4.393,0,0,0-1.366,1.209,1.726,1.726,0,0,0,.889.327,0.829,0.829,0,0,1,.477.208,0.6,0.6,0,0,1-.429,1.032h0Zm-39.668,0a0.6,0.6,0,0,1-.428-1.032,0.823,0.823,0,0,1,.477-0.208,1.717,1.717,0,0,0,.889-0.328,4.4,4.4,0,0,0-1.366-1.207,0.6,0.6,0,1,1,.638-1.028c0.8,0.5,2.115,1.476,1.929,2.445s-1.348,1.2-1.846,1.3l-0.074.015a0.591,0.591,0,0,1-.219.041h0Zm19.869-2.683h-0.069c-1.531,0-2.905-2.329-4.009-4.2a10.719,10.719,0,0,0-.909-1.411,5.832,5.832,0,0,1-1.917-4.063,9.559,9.559,0,0,0-.9-3.261,0.6,0.6,0,0,1,1.087-.53,10.693,10.693,0,0,1,1.028,3.773,4.612,4.612,0,0,0,1.5,3.167,7.9,7.9,0,0,1,1.158,1.709c0.695,1.18,2.143,3.624,2.976,3.61,0.009,0,.012,0,0.026,0a0.187,0.187,0,0,0,.027,0h0.013c0.835,0,2.27-2.436,2.963-3.61a7.9,7.9,0,0,1,1.158-1.709,4.608,4.608,0,0,0,1.5-3.167,10.693,10.693,0,0,1,1.028-3.773,0.6,0.6,0,0,1,1.087.53,9.593,9.593,0,0,0-.9,3.261,5.836,5.836,0,0,1-1.917,4.063,10.432,10.432,0,0,0-.908,1.411c-1.106,1.874-2.48,4.2-4.011,4.2h0ZM280.5,349.97a3.115,3.115,0,0,1-1.849-.635,0.606,0.606,0,0,1,.749-0.952,1.653,1.653,0,0,0,2.066.011c0.336-.276.766-1.08-0.122-3.37-0.046-.116-0.072-0.2-0.08-0.226a0.6,0.6,0,1,1,1.173-.294,0.644,0.644,0,0,1,.034.082c0.887,2.288.809,3.883-.237,4.743a2.682,2.682,0,0,1-1.734.641h0Zm21.224,0a2.684,2.684,0,0,1-1.734-.641c-1.045-.858-1.124-2.455-0.236-4.743,0.019-.05.034-0.087,0.041-0.109a0.594,0.594,0,0,1,.73-0.427,0.618,0.618,0,0,1,.436.749c-0.008.031-.034,0.109-0.079,0.225-0.889,2.29-.459,3.094-0.124,3.37a1.659,1.659,0,0,0,2.067-.009,0.605,0.605,0,0,1,.749.951,3.127,3.127,0,0,1-1.85.634h0Z" transform="translate(-259.375 -328.188)"/>
</svg>
