<svg xmlns="http://www.w3.org/2000/svg" width="48" height="36.938" viewBox="0 0 48 36.938">
  <defs>
    <style>
      .cls-1 {
        fill: #fa7124;
        fill-rule: evenodd;
      }
    </style>
  </defs>
  <path class="cls-1" d="M424.705,274.568l5.375-22.948L438.99,261Zm3.309-21.148-4.364,18.633-3.558-11.106-0.274-.848-0.269-.846-3.644-11.375,0.046-.2,12.66,2.966,0.051,0.011L428.346,252Zm-9.481,7.9,0.27,0.848,3.476,10.855-0.011.039-7.274-7.276-0.566-.568-0.566-.562-1.529-1.53-0.667-.666L411,261.8l-8.867-8.864-0.453-1.426,12.43-3.98,0.132,0.418,0.477,1.48,0.477,1.485,3.062,9.571Zm4.715,13.992-0.473.469-4.254,4.254-0.433.438-0.32.32-0.633.629-0.125.129-0.067.062-2.855,2.86L391.01,261.4l9.23-9.23,23.078,23.077Zm-8.129-1.277a2.379,2.379,0,1,0,2.379,2.379A2.381,2.381,0,0,0,415.119,274.037Z" transform="translate(-391 -247.531)"/>
</svg>
