<svg xmlns="http://www.w3.org/2000/svg" width="55.156" height="60.781" viewBox="0 0 55.156 60.781">
  <defs>
    <style>
      .cls-1 {
        fill: #fa7124;
        fill-rule: evenodd;
      }
    </style>
  </defs>
  <path class="cls-1" d="M442.413,49.108l-6.452-.645c-0.035,0-.066,0-0.1,0h-2.587a0.939,0.939,0,0,1-.685-0.284,0.925,0.925,0,0,1-.283-0.685V45.373a9.684,9.684,0,1,0-19.369,0V55.622a3.357,3.357,0,0,0,0,6.429v2.223a3.357,3.357,0,0,0,0,6.429v2.223a3.357,3.357,0,0,0,0,6.429v4.533a2.26,2.26,0,0,1-4.52,0V70.237a15.471,15.471,0,0,0-15.453-15.454h-2.905V54.46a0.968,0.968,0,1,0-1.937,0V72.819a0.969,0.969,0,1,0,1.937,0V72.5h2.905a2.909,2.909,0,0,1,2.906,2.905v7.7a13.376,13.376,0,1,0,26.751,0V77.108h0.323a0.968,0.968,0,0,0,0-1.937h-0.323V72.782h0.323a0.968,0.968,0,0,0,0-1.937h-0.323V68.456h0.323a0.969,0.969,0,0,0,0-1.937h-0.323V59.805h0.323a0.968,0.968,0,0,0,0-1.937h-0.323V56.254a0.968,0.968,0,1,0-1.937,0v1.614h-3.565a3.37,3.37,0,0,0-2.246-2.246V45.373a7.748,7.748,0,0,1,15.5,0v2.115a2.9,2.9,0,0,0,2.905,2.906h1.614v1.937h-1.614a4.841,4.841,0,0,1-4.842-4.842V44.817a3.874,3.874,0,0,0-7.748,0v2.721h-2.9a0.969,0.969,0,0,0-.969.968V52.38a0.969,0.969,0,0,0,.969.968h5.165a0.968,0.968,0,0,0,0-1.937h-0.323V49.475h0.323a0.968,0.968,0,0,0,0-1.937h-0.323V44.817a1.937,1.937,0,0,1,3.874,0v2.672a6.778,6.778,0,0,0,6.779,6.78h2.583c0.032,0,.064,0,0.1-0.005l6.456-.646a0.968,0.968,0,0,0,.872-0.964V50.072a0.969,0.969,0,0,0-.872-0.964h0Zm-29.924,18.38a1.418,1.418,0,0,1,2.459-.965,0.967,0.967,0,0,0,0,1.931,1.418,1.418,0,0,1-2.459-.966h0Zm4.634,0.969h3.565v6.715h-3.565a3.37,3.37,0,0,0-2.246-2.246V70.7a3.371,3.371,0,0,0,2.246-2.246h0Zm-4.634,7.683a1.418,1.418,0,0,1,2.459-.965,0.967,0.967,0,0,0,0,1.931,1.418,1.418,0,0,1-2.459-.965h0Zm-7.425.969a3.339,3.339,0,0,0-1.421.316V74.855a3.352,3.352,0,0,0,2.841,0v2.569a3.338,3.338,0,0,0-1.42-.316h0Zm1.42,3.357a1.421,1.421,0,1,1-1.42-1.421,1.422,1.422,0,0,1,1.42,1.421h0Zm-1.42-7.231a1.421,1.421,0,1,1,1.42-1.421,1.423,1.423,0,0,1-1.42,1.421h0Zm15.624,9.685h-2.9a0.968,0.968,0,1,0,0,1.937h2.771A11.44,11.44,0,0,1,397.81,83.1V75.4a4.847,4.847,0,0,0-4.842-4.842h-2.905V56.72h2.905A13.535,13.535,0,0,1,406.4,68.735a3.355,3.355,0,0,0-4.693,3.079v3.357h-0.991a0.968,0.968,0,1,0,0,1.937h0.991v3.357a3.355,3.355,0,0,0,4.777,3.041v0.381a4.2,4.2,0,1,0,8.393,0V79.354a3.37,3.37,0,0,0,2.246-2.246h3.565v5.811Zm-3.565-23.114h3.565v6.714h-3.565a3.371,3.371,0,0,0-2.246-2.246V62.051a3.37,3.37,0,0,0,2.246-2.246h0Zm-2.175-1.934a0.967,0.967,0,0,0,0,1.931,1.421,1.421,0,1,1,0-1.931h0Zm5.74-6.46h-1.937V49.475h1.937v1.937Zm20.66,0.366-4.519.452V50.5l4.519,0.452v0.83Z" transform="translate(-388.125 -35.688)"/>
</svg>
