<svg xmlns="http://www.w3.org/2000/svg" width="60.375" height="45.75" viewBox="0 0 60.375 45.75">
  <defs>
    <style>
      .cls-1 {
        fill: #fa7124;
        fill-rule: evenodd;
      }
    </style>
  </defs>
  <path class="cls-1" d="M197.853,92.691H144.135a3.328,3.328,0,0,1-3.324-3.325V50.251a3.328,3.328,0,0,1,3.324-3.325h53.718a3.328,3.328,0,0,1,3.324,3.325V89.365A3.328,3.328,0,0,1,197.853,92.691Zm1.369-42.44a1.371,1.371,0,0,0-1.369-1.369H144.135a1.371,1.371,0,0,0-1.369,1.369v9.192h56.456V50.251ZM151.111,61.4V76.067a1.108,1.108,0,1,0,2.216,0V61.4h-2.216Zm9.388,0V76.067a1.108,1.108,0,1,0,2.216,0V61.4H160.5Zm9.387,0V76.067a1.108,1.108,0,1,0,2.216,0V61.4h-2.216Zm9.387,0V76.067a1.109,1.109,0,0,0,2.217,0V61.4h-2.217Zm9.388,0V76.067a1.108,1.108,0,1,0,2.216,0V61.4h-2.216Zm10.561,0h-6.389V76.067a3.069,3.069,0,0,1-2.086,2.9v1.269a0.978,0.978,0,0,1-1.956,0V78.97a3.068,3.068,0,0,1-2.085-2.9V61.4h-3.26V76.067a3.069,3.069,0,0,1-2.086,2.9v1.269a0.978,0.978,0,0,1-1.956,0V78.97a3.068,3.068,0,0,1-2.086-2.9V61.4h-3.26V76.067a3.069,3.069,0,0,1-2.086,2.9v1.269a0.978,0.978,0,0,1-1.956,0V78.97a3.069,3.069,0,0,1-2.086-2.9V61.4h-3.26V76.067a3.068,3.068,0,0,1-2.085,2.9v1.269a0.978,0.978,0,0,1-1.956,0V78.97a3.068,3.068,0,0,1-2.086-2.9V61.4h-3.26V76.067a3.068,3.068,0,0,1-2.086,2.9v1.269a0.978,0.978,0,0,1-1.956,0V78.97a3.069,3.069,0,0,1-2.086-2.9V61.4h-6.389V89.365a1.371,1.371,0,0,0,1.369,1.369h7.106V84.411a0.978,0.978,0,0,1,1.956,0v6.324h7.432V84.411a0.978,0.978,0,0,1,1.956,0v6.324h7.431V84.411a0.978,0.978,0,0,1,1.956,0v6.324H179.4V84.411a0.978,0.978,0,0,1,1.956,0v6.324h7.431V84.411a0.978,0.978,0,0,1,1.956,0v6.324h7.106a1.371,1.371,0,0,0,1.369-1.369V61.4ZM185.6,51.1a0.978,0.978,0,1,1,0,1.956,1.108,1.108,0,1,0,.96,1.662,0.978,0.978,0,0,1,1.693.98A3.064,3.064,0,1,1,185.6,51.1Zm7.3,0a0.978,0.978,0,1,1,0,1.956,1.108,1.108,0,1,0,.96,1.662,0.978,0.978,0,0,1,1.693.98A3.064,3.064,0,1,1,192.9,51.1Z" transform="translate(-140.813 -46.938)"/>
</svg>
