<svg xmlns="http://www.w3.org/2000/svg" width="69.031" height="44.375" viewBox="0 0 69.031 44.375">
  <defs>
    <style>
      .cls-1 {
        fill: #fa7124;
        fill-rule: evenodd;
      }
    </style>
  </defs>
  <path id="Shape_24_copy" data-name="Shape 24 copy" class="cls-1" d="M691.188,175.357a2.278,2.278,0,1,1-2.278-2.278A2.278,2.278,0,0,1,691.188,175.357Zm-6.027-.411a8.221,8.221,0,1,1-8.221-8.22A8.219,8.219,0,0,1,685.161,174.946Zm-14.918.11a6.81,6.81,0,1,0,6.81-6.81A6.81,6.81,0,0,0,670.243,175.056Zm7.39-5.033c0,0.5,0,.5.5,0.58a4.351,4.351,0,0,1,1.1.325,0.323,0.323,0,0,1,.212.425c-0.085.311-.17,0.608-0.269,0.92-0.1.282-.185,0.325-0.453,0.2a3.376,3.376,0,0,0-1.741-.339,1.377,1.377,0,0,0-.467.1,0.665,0.665,0,0,0-.169,1.174,3.032,3.032,0,0,0,.75.425c0.467,0.2.934,0.382,1.372,0.622a2.468,2.468,0,0,1,.793,3.764,2.54,2.54,0,0,1-1.373.877,0.4,0.4,0,0,0-.339.439c0.014,0.24,0,.481,0,0.721a0.3,0.3,0,0,1-.326.34c-0.212-.014-0.481-0.014-0.735-0.028a0.311,0.311,0,0,1-.34-0.354v-0.537c0-.4-0.014-0.411-0.4-0.467a4.974,4.974,0,0,1-1.4-.4,0.414,0.414,0,0,1-.283-0.622c0.071-.269.141-0.538,0.226-0.807,0.1-.311.184-0.353,0.467-0.2a4.513,4.513,0,0,0,1.542.467,1.933,1.933,0,0,0,1.019-.127,0.79,0.79,0,0,0,.184-1.387,2.179,2.179,0,0,0-.58-0.34,13.1,13.1,0,0,1-1.584-.707,2.259,2.259,0,0,1-1.274-2.136,2.372,2.372,0,0,1,1.726-2.194c0.424-.155.424-0.141,0.424-0.594v-0.452c0.015-.34.071-0.4,0.4-0.4h0.311C677.633,169.315,677.633,169.315,677.633,170.023Zm17.461,18.323H671.281v-3.212h19.992a3.762,3.762,0,0,1-.07-0.694,3.808,3.808,0,0,1,3.806-3.806,3.447,3.447,0,0,1,.664.057V169.16a5.1,5.1,0,0,1-.664.056,3.807,3.807,0,0,1-3.806-3.806,3.878,3.878,0,0,1,.07-0.693H663.385a4,4,0,0,1,.113.934,3.807,3.807,0,0,1-3.806,3.806,3.955,3.955,0,0,1-.934-0.114v8.448c-0.509-.029-1.018-0.043-1.542-0.043-0.565,0-1.117.014-1.669,0.043V165.282a3.755,3.755,0,0,1,3.749-3.749h35.811a3.735,3.735,0,0,1,3.736,3.749V184.6A3.756,3.756,0,0,1,695.094,188.346Zm-49.409-7.64a26.99,26.99,0,0,1-4.373.353,22.571,22.571,0,0,1-7.682-1.2c-0.482-.183-0.906-0.382-1.288-0.537V180.9c0,0.17.411,0.835,2.179,1.5a20.23,20.23,0,0,0,6.791,1.033c0.779,0,1.529-.028,2.264-0.1a5.3,5.3,0,0,0-.424,2.094v0.609c-0.608.042-1.217,0.056-1.84,0.056a22.572,22.572,0,0,1-7.682-1.2,11.394,11.394,0,0,1-1.288-.567v1.585c0,0.17.411,0.835,2.179,1.5a20.23,20.23,0,0,0,6.791,1.033c0.623,0,1.245-.029,1.84-0.071v2.6c-0.608.042-1.217,0.056-1.84,0.056a22.546,22.546,0,0,1-7.682-1.2,11.057,11.057,0,0,1-1.288-.565v1.6c0,0.17.411,0.835,2.179,1.5a20.23,20.23,0,0,0,6.791,1.033c0.623,0,1.245-.028,1.84-0.071v2.533c-0.608.043-1.217,0.057-1.84,0.057a22.571,22.571,0,0,1-7.682-1.2c-3.155-1.189-3.821-2.773-3.821-3.891V166.061c0-1.132.666-2.716,3.821-3.891a22.546,22.546,0,0,1,7.682-1.2A22.205,22.205,0,0,1,649,162.184c3.155,1.189,3.819,2.773,3.819,3.891v12.041a21.313,21.313,0,0,0-4.188,1.033A11.336,11.336,0,0,0,645.685,180.706Zm4.584-14.673c-0.028-.212-0.453-0.849-2.165-1.486a22.842,22.842,0,0,0-13.583,0c-1.768.651-2.179,1.344-2.179,1.514s0.411,0.835,2.179,1.5a22.842,22.842,0,0,0,13.583,0c1.712-.637,2.137-1.274,2.165-1.486v-0.042Zm0.015,3.325a12.711,12.711,0,0,1-1.288.566,25.135,25.135,0,0,1-15.366,0,11.4,11.4,0,0,1-1.274-.559v1.577c0,0.17.41,0.835,2.179,1.5a22.842,22.842,0,0,0,13.583,0c1.712-.636,2.137-1.273,2.166-1.485v-1.6Zm0,6.565v-1.6a12.711,12.711,0,0,1-1.288.566,25.135,25.135,0,0,1-15.366,0,11.4,11.4,0,0,1-1.274-.559v1.578c0,0.17.41,0.834,2.179,1.5a22.842,22.842,0,0,0,13.583,0C649.83,176.772,650.255,176.135,650.284,175.923Zm14.7,1.712a2.278,2.278,0,1,1,2.278-2.278A2.278,2.278,0,0,1,664.984,177.635Zm-15.465,3.877a25.135,25.135,0,0,1,15.366,0c3.169,1.188,3.834,2.773,3.821,3.891v14.856c0,1.132-.666,2.717-3.821,3.891a25.135,25.135,0,0,1-15.366,0c-3.155-1.188-3.82-2.773-3.82-3.891V185.4C645.7,184.271,646.364,182.686,649.519,181.512Zm-1.274,18.719c0,0.17.411,0.835,2.179,1.5a22.845,22.845,0,0,0,13.584,0c1.768-.665,2.165-1.33,2.179-1.5v-1.585a12.516,12.516,0,0,1-1.288.566,25.135,25.135,0,0,1-15.366,0,11.3,11.3,0,0,1-1.288-.566v1.585Zm0-4.966c0,0.169.411,0.835,2.179,1.5a22.845,22.845,0,0,0,13.584,0c1.712-.636,2.137-1.273,2.165-1.485v-0.014l0.014-1.585a12.516,12.516,0,0,1-1.288.566,25.135,25.135,0,0,1-15.366,0,11.3,11.3,0,0,1-1.288-.566v1.585Zm0-4.967c0,0.17.411,0.835,2.179,1.5a22.845,22.845,0,0,0,13.584,0c1.712-.637,2.137-1.273,2.165-1.485V190.3l0.014-1.585a12.1,12.1,0,0,1-1.288.566,25.135,25.135,0,0,1-15.366,0,10.958,10.958,0,0,1-1.288-.566V190.3Zm2.165-3.381a22.845,22.845,0,0,0,13.584,0c1.712-.637,2.136-1.274,2.164-1.486v-0.043c-0.013-.212-0.452-0.848-2.164-1.485a22.845,22.845,0,0,0-13.584,0c-1.783.651-2.178,1.344-2.178,1.514S648.642,186.252,650.41,186.917Z" transform="translate(-629.813 -160.969)"/>
</svg>
