<svg xmlns="http://www.w3.org/2000/svg" width="52.187" height="52.219" viewBox="0 0 52.187 52.219">
  <defs>
    <style>
      .cls-1 {
        fill: #fa7124;
        fill-rule: evenodd;
      }
    </style>
  </defs>
  <path class="cls-1" d="M693.4,253.922l-8.123,9.905a1.543,1.543,0,0,1-1.115.561l-0.076,0a1.543,1.543,0,0,1-.907-0.3l-29.259,28.4-3.354,4.553a1.543,1.543,0,0,1-1.125.623c-0.038,0-.077,0-0.116,0a1.544,1.544,0,0,1-1.089-.451L642,290.991a1.539,1.539,0,0,1,.176-2.329l4.553-3.355,28.4-29.259a1.539,1.539,0,0,1,.266-2.1l9.9-8.122a1.541,1.541,0,0,1,2.067.1l5.927,5.927A1.541,1.541,0,0,1,693.4,253.922ZM648.85,287.545a1.522,1.522,0,0,1-.192.167l-3.214,2.367,3.7,3.7,2.366-3.214a1.7,1.7,0,0,1,.168-0.192l29.3-28.444-3.687-3.688Zm37.325-38.45-7.509,6.159,5.3,5.3,6.16-7.51Zm-3.4,9.582-2.229-2.23a0.948,0.948,0,0,1,1.34-1.341l2.229,2.23A0.948,0.948,0,0,1,682.776,258.677Zm-12.553,11.342A1.019,1.019,0,1,1,671.242,269,1.019,1.019,0,0,1,670.223,270.019Zm-3.946,3.947a1.019,1.019,0,1,1,1.018-1.019A1.02,1.02,0,0,1,666.277,273.966Zm-3.948,3.947a1.019,1.019,0,1,1,1.019-1.018A1.018,1.018,0,0,1,662.329,277.913Zm-3.948,3.948a1.019,1.019,0,1,1,1.02-1.02A1.019,1.019,0,0,1,658.381,281.861ZM653,287.244a1.019,1.019,0,1,1,1.019-1.02A1.02,1.02,0,0,1,653,287.244Z" transform="translate(-641.563 -245.469)"/>
</svg>
