<svg xmlns="http://www.w3.org/2000/svg" width="55.906" height="64.094" viewBox="0 0 55.906 64.094">
  <defs>
    <style>
      .cls-1 {
        fill: #fa7124;
        fill-rule: evenodd;
      }
    </style>
  </defs>
  <path class="cls-1" d="M326.692,256.792a2.157,2.157,0,0,1-1.883,1.105c-4.905,0-8.9,5.643-8.9,12.58s3.99,12.58,8.9,12.58a2.158,2.158,0,0,1,1.931,3.122l-3.685,7.37a2.156,2.156,0,0,1-2.192,1.177c-0.153-.019-15.4-1.751-20.069,7.069a2.161,2.161,0,0,1-1.908,1.15h-0.021a2.158,2.158,0,0,1-1.906-1.187c-4.341-8.6-19.579-6.447-19.732-6.425a2.156,2.156,0,0,1-2.276-1.23l-3.685-7.984a2.158,2.158,0,0,1,1.96-3.062c4.9,0,8.895-5.644,8.895-12.58s-3.991-12.58-8.895-12.58a2.158,2.158,0,0,1-1.84-3.287l5.842-9.527a2.16,2.16,0,0,1,3.366-.4,5.211,5.211,0,0,0,8.9-3.684,2.158,2.158,0,0,1,2.158-2.158h14.738A2.159,2.159,0,0,1,308.545,241a5.211,5.211,0,0,0,8.895,3.684,2.16,2.16,0,0,1,3.366.4l5.843,9.527A2.155,2.155,0,0,1,326.692,256.792Zm-8.336-7.447a9.534,9.534,0,0,1-13.883-6.187H293.562a9.535,9.535,0,0,1-13.884,6.187l-2.957,4.821a12.873,12.873,0,0,1,6.047,4.594,20.538,20.538,0,0,1,0,23.433,12.765,12.765,0,0,1-6.388,4.706l1.841,3.988c0.837-.069,1.948-0.13,3.239-0.13,5.069,0,12.877.954,17.444,6.209,5.934-6.825,16.887-6.891,20.943-6.654l1.72-3.441a12.789,12.789,0,0,1-6.3-4.679,20.541,20.541,0,0,1,0-23.432,12.873,12.873,0,0,1,6.047-4.594ZM299.018,290.41a1.51,1.51,0,0,1-1.511-1.511v-0.972a1.511,1.511,0,0,1,3.021,0V288.9A1.511,1.511,0,0,1,299.018,290.41Zm0-7.234a1.511,1.511,0,0,1-1.511-1.511v-1.819a1.511,1.511,0,0,1,3.021,0v1.819A1.511,1.511,0,0,1,299.018,283.176Zm0-8.081a1.511,1.511,0,0,1-1.511-1.512v-1.818a1.511,1.511,0,1,1,3.021,0v1.818A1.512,1.512,0,0,1,299.018,275.1Zm0-8.081a1.511,1.511,0,0,1-1.511-1.512v-1.818a1.511,1.511,0,1,1,3.021,0V265.5A1.512,1.512,0,0,1,299.018,267.014Zm0-8.081a1.511,1.511,0,0,1-1.511-1.512V255.6a1.511,1.511,0,1,1,3.021,0v1.818A1.512,1.512,0,0,1,299.018,258.933Zm0-8.081a1.511,1.511,0,0,1-1.511-1.512v-0.972a1.511,1.511,0,0,1,3.021,0v0.972A1.512,1.512,0,0,1,299.018,250.852Z" transform="translate(-271.063 -238.844)"/>
</svg>
