<svg xmlns="http://www.w3.org/2000/svg" width="44.969" height="47.969" viewBox="0 0 44.969 47.969">
  <defs>
    <style>
      .cls-1 {
        fill: #fa7124;
        fill-rule: evenodd;
      }
    </style>
  </defs>
  <path class="cls-1" d="M194.95,430.154a1.422,1.422,0,1,1-2.01-2.011l3.7-3.7a1.422,1.422,0,1,1,2.011,2.01Zm-10.823,27.474v9.991a4.379,4.379,0,0,1-4.374,4.374h-6.348a4.379,4.379,0,0,1-4.374-4.374v-9.991A16.774,16.774,0,1,1,184.127,457.628Zm-12.252,9.991a1.531,1.531,0,0,0,1.53,1.53h6.348a1.532,1.532,0,0,0,1.531-1.53V467.56h-9.409v0.059Zm0-2.9h9.409v-5.964a16.78,16.78,0,0,1-9.409,0v5.964Zm3.4-8.2q0.645,0.06,1.305.061t1.3-.061a21.384,21.384,0,0,1,1.329-8.932h-5.268A21.384,21.384,0,0,1,175.274,456.52Zm1.305-27.8a13.931,13.931,0,0,0-4.132,27.235c0.066-2.191-.116-6.244-2.058-8.964a1.422,1.422,0,0,1,1.157-2.248h10.066a1.422,1.422,0,0,1,1.157,2.248c-1.942,2.72-2.124,6.773-2.059,8.964A13.931,13.931,0,0,0,176.579,428.721Zm-17.367,1.849a1.421,1.421,0,0,1-1-.416l-3.7-3.7a1.421,1.421,0,0,1,2.01-2.01l3.7,3.7A1.422,1.422,0,0,1,159.212,430.57Zm-1,24.579a1.422,1.422,0,0,1,2.011,2.01l-3.7,3.7a1.422,1.422,0,0,1-2.01-2.011Zm36.743,0,3.7,3.7a1.422,1.422,0,0,1-2.011,2.011l-3.7-3.7A1.421,1.421,0,0,1,194.95,455.149Z" transform="translate(-154.125 -424.031)"/>
</svg>
