<svg xmlns="http://www.w3.org/2000/svg" width="39.469" height="68.156" viewBox="0 0 39.469 68.156">
  <defs>
    <style>
      .cls-1 {
        fill: #fa7124;
        fill-rule: evenodd;
      }
    </style>
  </defs>
  <path class="cls-1" d="M539.178,420.038a6.024,6.024,0,0,1-11.754-2.012c-1.068-1.407-2.52-3.215-3.226-3.485-2.623-.8-4.711,6.015-5.67,8.9-0.431,1.31-.868,2.641-1.305,3.972q-0.306.93-.61,1.858l-2.981-1.369a5.631,5.631,0,0,0-2.068-.513l0.758-1.807c0.543-1.291,1.086-2.583,1.62-3.855,2.516-6.044,2.791-8.047,4.676-9.64a4.979,4.979,0,0,1,6.929.32c0.867,0.934.93,1.252,2.5,3.111A6.024,6.024,0,0,1,539.178,420.038Zm-17.575,14.6,9.4-5.813-9.205,2.833-0.674-.31,1.365-4.2a4.069,4.069,0,0,1,5.121-2.615l6.905,2.23a4.07,4.07,0,0,1,2.62,5.129L527.12,460.774l7,13.059a3.488,3.488,0,0,1-6.149,3.294L520.2,462.633a3.482,3.482,0,0,1-.163-2.944l3.058-7.629-2.388-.771-6.262,6.547L511.8,475.983a3.488,3.488,0,1,1-6.9-1.007l2.809-19.25a3.492,3.492,0,0,1,.932-1.906L516.5,445.6l1.088-3.349,0.031,0.014,2.027,0.93a5.549,5.549,0,0,0,5.909-.762l8.149-8.411-10.152,6.468,0,0a2.914,2.914,0,0,1-2.74.167l-10.765-4.939a2.906,2.906,0,1,1,2.427-5.282Zm-12.039-12.6a2.291,2.291,0,0,0-.233,1.742,7.922,7.922,0,0,1-.006,3.943,5.688,5.688,0,0,0-3.562,6.866c-0.077-.052-0.154-0.1-0.23-0.158-0.108-.083-0.212-0.171-0.317-0.257a6.464,6.464,0,0,1-.587-0.558,6.752,6.752,0,0,1-1.543-2.687,6.964,6.964,0,0,1-.227-3,12.424,12.424,0,0,0,.485-2.907,2.3,2.3,0,0,0-1.109-1.7l-1.719-1.008a1.018,1.018,0,0,1-.511-0.772,1,1,0,0,1,.738-1.061l9.142-2.385a1.024,1.024,0,0,1,.914.189,1,1,0,0,1,.222,1.268Z" transform="translate(-500 -410.813)"/>
</svg>
