<svg xmlns="http://www.w3.org/2000/svg" width="72.375" height="38.875" viewBox="0 0 72.375 38.875">
  <defs>
    <style>
      .cls-1 {
        fill: #fa7124;
        fill-rule: evenodd;
      }
    </style>
  </defs>
  <path class="cls-1" d="M382.809,333.564v38.872h72.382V333.564H382.809ZM452.957,370.2H385.043V335.8h9.008l5.383,8.614-7.809,5.117-0.988.648,1.016,0.5,15.058,7.462-13.41-8.024,8.156-4.461,0.887-.489-0.508-.968-4.372-8.4h19.207l-1.053,6.016-0.055.32,0.128,0.184,4.726,6.512-3.463-6.9,2.14-6.133h17.644l2.383,1.254-7.68,7.672-0.558.559,0.679,0.285,9.457,4.008-8.316-4.555,9.078-7.41,1.156-.942-1.32-.871h11.34v34.4Z" transform="translate(-382.813 -333.563)"/>
</svg>
