<svg xmlns="http://www.w3.org/2000/svg" width="40.82" height="44" viewBox="0 0 40.82 44">
  <defs>
    <style>
      .cls-1 {
        fill: #fa7124;
        fill-rule: evenodd;
      }
    </style>
  </defs>
  <path class="cls-1" d="M1158.13,102.68a0.815,0.815,0,0,0-.63-0.2l-24.8,3.211a0.8,0.8,0,0,0-.7.793v28.489a8.3,8.3,0,0,0-6.4-2.9c-4.41,0-8,3.23-8,7.2s3.59,7.2,8,7.2,8-3.231,8-7.2c0-.187-0.02-0.37-0.03-0.55a0.772,0.772,0,0,0,.03-0.152v-23.2l23.2-3v14.606a8.305,8.305,0,0,0-6.4-2.9c-4.41,0-8,3.231-8,7.2s3.59,7.2,8,7.2c4.37,0,7.93-3.172,7.99-7.094,0-.012.01-0.019,0.01-0.031V103.281a0.809,0.809,0,0,0-.27-0.6h0Zm-32.53,42.2c-3.53,0-6.4-2.511-6.4-5.6s2.87-5.6,6.4-5.6,6.4,2.512,6.4,5.6-2.87,5.6-6.4,5.6h0Zm24.8-8c-3.53,0-6.4-2.511-6.4-5.6s2.87-5.6,6.4-5.6,6.4,2.512,6.4,5.6-2.87,5.6-6.4,5.6h0Zm-16.8-23.117v-6.57l23.2-3v6.566Z" transform="translate(-1117.59 -102.469)"/>
</svg>
