<svg xmlns="http://www.w3.org/2000/svg" width="68.875" height="77.25" viewBox="0 0 68.875 77.25">
  <defs>
    <style>
      .cls-1 {
        fill: #fa7124;
        fill-rule: evenodd;
      }
    </style>
  </defs>
  <path class="cls-1" d="M821.462,366.847L805.38,350.766a1.043,1.043,0,0,0-1.782.738,7.113,7.113,0,0,1-2.423,5.369,28.2,28.2,0,0,0-9.672,21.26v14.872a3.054,3.054,0,0,1-5.743,1.446,3.736,3.736,0,0,0-.5-5.872l-0.077-2.425a3.732,3.732,0,0,0-.2-6.473l-0.065-2.117a3.735,3.735,0,0,0-.211-6.758l-0.058-1.857a3.734,3.734,0,0,0-.217-6.986l-0.051-1.652a3.738,3.738,0,0,0-.224-7.173l-0.388-12.523a9.183,9.183,0,0,0-3.153-6.466,9.629,9.629,0,0,0-6.225-2.624h-4.012a1.024,1.024,0,0,0-.217.023h-1.815a1.043,1.043,0,0,0-.949-0.612h-8.057a1.047,1.047,0,0,0-.748.315l-5.346,5.479a1.045,1.045,0,0,0,.747,1.774h13.4a1.045,1.045,0,0,0,1.023-.836h1.455a1.039,1.039,0,0,0,.5.129h3.849a4.416,4.416,0,0,1,2.5,1.283,1.723,1.723,0,0,1,.57,1.2l-1.49,52.523c0,0.151-.006.3-0.006,0.449a14.947,14.947,0,0,0,29.893-.01v-3.019c0-7.2.642-11.422,2.145-14.131,1.4-2.526,3.531-3.734,6.753-5.562l0.254-.144a9.767,9.767,0,0,1,4.631-1.717h1.3a1.044,1.044,0,0,0,.692-1.826h0Zm-39.736-6.667c0.082,0.035.164,0.067,0.249,0.1l0.046,0.017c0.088,0.03.177,0.057,0.268,0.081h0l0.046,1.491-0.015,0c-0.089.022-.177,0.048-0.263,0.076l-0.05.017c-0.087.03-.172,0.062-0.256,0.1l-0.028.012c-0.076.035-.152,0.071-0.227,0.109v-2.113c0.06,0.032.121,0.061,0.183,0.089l0.046,0.022h0Zm-0.076,8.7c0.089,0.041.178,0.079,0.27,0.114l0.012,0c0.092,0.033.187,0.063,0.283,0.091l0.04,0.011c0.093,0.025.187,0.046,0.283,0.063a0.183,0.183,0,0,0,.025.006l0.042,1.375-0.081.015-0.069.013-0.12.028-0.053.012c-0.055.015-.111,0.031-0.166,0.048l-0.05.016-0.115.04-0.066.025c-0.032.012-.064,0.024-0.1,0.038s-0.046.019-.069,0.03l-0.09.04c-0.022.011-.046,0.022-0.068,0.034l-0.065.032v-2.11c0.041,0.021.082,0.042,0.123,0.061l0.03,0.014h0Zm-0.013,8.732,0.085,0.039,0.076,0.032,0.088,0.035c0.025,0.009.051,0.02,0.077,0.028l0.091,0.032,0.078,0.025,0.1,0.026,0.077,0.022,0.1,0.023,0.076,0.017c0.037,0.008.074,0.014,0.113,0.02l0.065,0.012,0.178,0.023,0.041,1.3-0.019,0-0.083.01-0.1.012-0.083.014-0.1.017-0.083.018c-0.031.007-.063,0.013-0.094,0.021l-0.08.022-0.094.026-0.078.025-0.091.031-0.077.028-0.089.035-0.076.031-0.087.04-0.073.034-0.077.041v-2.113l0.065,0.032c0.024,0.013.049,0.025,0.074,0.037h0Zm2.034,3.771a1.649,1.649,0,0,1,.094,3.142,1.623,1.623,0,0,1-.544.092,1.648,1.648,0,1,1,.45-3.234h0ZM781.5,388.4v-2.111l0.071,0.036c0.026,0.013.051,0.026,0.077,0.037l0.086,0.04,0.079,0.032,0.089,0.035c0.026,0.011.053,0.02,0.08,0.03l0.091,0.031,0.082,0.025c0.03,0.01.062,0.019,0.093,0.027l0.083,0.021,0.1,0.022,0.083,0.017,0.1,0.018,0.085,0.014,0.1,0.012,0.087,0.009,0.1,0.008,0.087,0,0.042,0,0.04,1.268c-0.022,0-.042,0-0.062,0l-0.091,0-0.1.007c-0.029,0-.059,0-0.088.009l-0.1.012-0.087.013-0.1.017-0.086.017-0.095.022-0.084.021-0.093.026-0.082.025-0.092.031-0.08.029-0.089.035-0.079.032c-0.029.013-.059,0.026-0.087,0.04s-0.052.024-.078,0.036-0.055.028-.082,0.043h0Zm1.723,1.665a1.647,1.647,0,0,1,.777,3.1,1.613,1.613,0,0,1-.777.2,1.648,1.648,0,1,1,0-3.3h0Zm0.385-14.23-0.015,0a1.5,1.5,0,0,1-.37.044,1.65,1.65,0,0,1-1.648-1.648,1.718,1.718,0,0,1,.01-0.177c0-.018,0-0.035.008-0.053,0.006-.041.012-0.081,0.021-0.12,0-.02.009-0.04,0.014-0.059,0.01-.036.019-0.072,0.031-0.108,0.007-.019.014-0.039,0.022-0.059s0.026-.067.041-0.1,0.018-.039.027-0.058,0.032-.061.05-0.091,0.022-.039.035-0.058,0.037-.055.056-0.082l0.042-.058c0.019-.023.04-0.046,0.06-0.069s0.035-.039.053-0.058l0.057-.055,0.068-.061c0.013-.011.027-0.021,0.041-0.031a1.643,1.643,0,0,1,.511-0.272l0.013,0c0.043-.013.085-0.023,0.128-0.032l0.039-.009c0.038-.008.077-0.013,0.115-0.018,0.021,0,.042-0.006.063-0.007s0.065,0,.1,0h0.1l0.053,0c0.054,0,.108.011,0.162,0.02l0.014,0a1.645,1.645,0,0,1,.1,3.221h0Zm-0.175-8.7a1.432,1.432,0,0,1-.21.015,1.648,1.648,0,1,1,0-3.3c0.049,0,.075,0,0.084,0l0.033,0a1.646,1.646,0,0,1,.093,3.275h0Zm1.438-10.373a1.638,1.638,0,0,1-1.6,1.646,0.137,0.137,0,0,0-.029,0h-0.024a1.647,1.647,0,0,1-.053-3.294l0.031,0h0.022a1.65,1.65,0,0,1,1.648,1.648h0ZM766.35,336.415h-1.011v-3.39h1.011v3.39Zm-3.1,0h-1.088v-3.39h1.088v3.39Zm-3.474-3.39h0.3v3.39h-3.607Zm8.661,0.612h0.893v1.942h-0.893v-1.942Zm45.37,34.937-0.254.144c-3.276,1.858-5.863,3.326-7.55,6.365s-2.406,7.57-2.406,15.144v3.019a12.858,12.858,0,0,1-25.716.01c0-.128,0-0.258,0-0.389l1.489-52.523a3.765,3.765,0,0,0-1.142-2.7,6.329,6.329,0,0,0-3.97-1.933h-2.845v-2.094h2.968c3.2,0,7.168,3.151,7.29,7.065l0.389,12.52-0.018.007c-0.083.027-.164,0.056-0.245,0.089l-0.039.017c-0.08.033-.159,0.068-0.236,0.107l-0.008,0-0.023.012v-0.71a1.044,1.044,0,1,0-2.088,0v44.344a1.044,1.044,0,1,0,2.088,0v-2.043a3.719,3.719,0,0,0,1.724.423c0.1,0,.2-0.006.3-0.014l0.077-.007c0.09-.01.179-0.021,0.267-0.037l0.025,0a5.144,5.144,0,0,0,9.7-2.382V378.133a26.109,26.109,0,0,1,8.955-19.686,9.164,9.164,0,0,0,2.865-4.7l12.926,12.927a13.78,13.78,0,0,0-4.53,1.9h0Zm-7.754-10.647a1.044,1.044,0,0,1-.1,1.473,26.293,26.293,0,0,0-8.355,14.113,1.044,1.044,0,0,1-1.019.821,1.025,1.025,0,0,1-.224-0.025,1.045,1.045,0,0,1-.8-1.243,28.385,28.385,0,0,1,9.023-15.24,1.044,1.044,0,0,1,1.473.1h0Zm-11.145,21.16c0-.745.03-1.5,0.089-2.244a1.044,1.044,0,0,1,2.082.166c-0.055.688-.083,1.388-0.083,2.078a1.044,1.044,0,1,1-2.088,0h0Zm3.685,1.114a3.918,3.918,0,1,0,3.917,3.917,3.921,3.921,0,0,0-3.917-3.917h0Zm0,5.746a1.829,1.829,0,1,1,1.829-1.829,1.832,1.832,0,0,1-1.829,1.829h0Zm0,2.662a3.917,3.917,0,1,0,3.917,3.917,3.921,3.921,0,0,0-3.917-3.917h0Zm0,5.745a1.829,1.829,0,1,1,1.829-1.829,1.831,1.831,0,0,1-1.829,1.829h0Z" transform="translate(-752.938 -330.938)"/>
</svg>
