<svg xmlns="http://www.w3.org/2000/svg" width="62" height="61.968" viewBox="0 0 62 61.968">
  <defs>
    <style>
      .cls-1 {
        fill: #fa7124;
        fill-rule: evenodd;
      }
    </style>
  </defs>
  <path class="cls-1" d="M451.289,425.746l-18.522-18.521a0.988,0.988,0,0,0-1.678.56l-2.439,17.163-9.839,9.839-2.092-2.092,0.826-.826a0.989,0.989,0,0,0-1.4-1.4l-1.523,1.524-1.527,1.527a0.989,0.989,0,1,0,1.4,1.4l0.827-.826,2.091,2.092-5.047,5.047-2.092-2.092,0.826-.825a0.99,0.99,0,0,0-1.4-1.4l-3.05,3.051a0.989,0.989,0,1,0,1.4,1.4l0.827-.825,2.091,2.091-5.047,5.047-2.092-2.092,0.826-.825a0.989,0.989,0,0,0-1.4-1.4l-3.051,3.05a0.989,0.989,0,1,0,1.4,1.4l0.826-.826,2.092,2.092-13,13-0.235-.235a0.989,0.989,0,1,0-1.4,1.4l5.384,5.385a0.99,0.99,0,0,0,1.4-1.4L396.433,467l6.449-6.45a11.482,11.482,0,0,0,18.784,3.862l12.476-12.476a11.477,11.477,0,0,0-4.906-19.139,11.575,11.575,0,0,0-5.382-.251l6.429-6.428a0.988,0.988,0,0,0,.279-0.56l2.207-15.531,15.721,15.722-15.531,2.206a0.993,0.993,0,0,0-.56.28l-1.56,1.56a0.99,0.99,0,0,0,1.4,1.4l1.326-1.326,17.164-2.439a0.989,0.989,0,0,0,.56-1.679h0Zm-37.743,40.047a9.506,9.506,0,0,1-9.112-6.8l2.607-2.606a6.506,6.506,0,0,0,11.108,4.5l12.477-12.477a6.509,6.509,0,1,0-9.206-9.2l-12.475,12.474-9.25,9.25-2.116-2.118L419.3,437.093a9.5,9.5,0,0,1,13.44,13.44L420.266,463.01a9.442,9.442,0,0,1-6.72,2.783h0Zm-20.63-2.313,3.263-3.264,2.118,2.117-3.264,3.265Zm17.426-10.394,12.477-12.477a4.531,4.531,0,1,1,6.407,6.408L416.75,459.494a4.531,4.531,0,0,1-6.408-6.408h0Z" transform="translate(-389.594 -406.938)"/>
</svg>
