<svg xmlns="http://www.w3.org/2000/svg" width="43.156" height="55.125" viewBox="0 0 43.156 55.125">
  <defs>
    <style>
      .cls-1 {
        fill: #fa7124;
        fill-rule: evenodd;
      }
    </style>
  </defs>
  <path class="cls-1" d="M555.408,160.37l-4.435,4.584,0.893,6.317a1.242,1.242,0,0,1-1.019,1.4l-5.246.92v19.23a1.246,1.246,0,0,1-1.8,1.115l-9.6-4.8-9.6,4.8a1.258,1.258,0,0,1-.558.132,1.249,1.249,0,0,1-1.246-1.247v-19.23l-5.246-.92a1.243,1.243,0,0,1-1.02-1.4l0.894-6.317-4.435-4.584a1.242,1.242,0,0,1,0-1.734l4.435-4.584-0.894-6.315a1.243,1.243,0,0,1,1.02-1.4l6.283-1.1,2.989-5.636a1.248,1.248,0,0,1,1.649-.537l5.73,2.8,5.73-2.8a1.248,1.248,0,0,1,1.648.536l2.991,5.637,6.282,1.1a1.242,1.242,0,0,1,1.019,1.4l-0.893,6.315,4.435,4.584A1.242,1.242,0,0,1,555.408,160.37Zm-30.124,30.437,8.355-4.176a1.252,1.252,0,0,1,1.115,0l8.354,4.176V178.5l-0.929-.232-0.605,1.137a1.245,1.245,0,0,1-1.648.536l-5.73-2.8-5.73,2.8a1.222,1.222,0,0,1-.546.127,1.244,1.244,0,0,1-1.1-.662l-0.605-1.139-0.929.231v12.3Zm23.473-35.46a1.238,1.238,0,0,1-.338-1.041l0.81-5.725-5.694-1a1.258,1.258,0,0,1-.887-0.644l-2.711-5.108-5.193,2.538a1.241,1.241,0,0,1-1.094,0l-5.195-2.538-2.71,5.108a1.256,1.256,0,0,1-.887.644l-5.694,1,0.809,5.724a1.24,1.24,0,0,1-.339,1.042l-4.02,4.155,4.021,4.155a1.258,1.258,0,0,1,.338,1.042l-0.809,5.726,5.694,1a1.255,1.255,0,0,1,.887.643l2.71,5.107,5.194-2.539a1.224,1.224,0,0,1,.547-0.128,1.256,1.256,0,0,1,.549.128l5.192,2.539,2.711-5.107a1.255,1.255,0,0,1,.886-0.643l5.694-1-0.809-5.726a1.251,1.251,0,0,1,.338-1.041l4.02-4.156ZM534.2,170.909A11.405,11.405,0,1,1,545.6,159.5,11.418,11.418,0,0,1,534.2,170.909Zm0-20.316a8.912,8.912,0,1,0,8.911,8.91A8.921,8.921,0,0,0,534.2,150.593Zm-0.711,12.975a1.246,1.246,0,0,1-1.761,0l-3.186-3.183a1.246,1.246,0,1,1,1.761-1.763l2.305,2.3,5.488-5.487a1.247,1.247,0,0,1,1.763,1.763Z" transform="translate(-512.625 -138.938)"/>
</svg>
