<svg xmlns="http://www.w3.org/2000/svg" width="66.969" height="42.781" viewBox="0 0 66.969 42.781">
  <defs>
    <style>
      .cls-1 {
        fill: #fa7124;
        fill-rule: evenodd;
      }
    </style>
  </defs>
  <path class="cls-1" d="M310.18,52.429a1.375,1.375,0,0,1,1.373,1.374v8.405h5.892a1.374,1.374,0,0,1,1.372,1.374V78.564a1.373,1.373,0,0,1-1.372,1.372h-5.892v8.406a1.374,1.374,0,0,1-1.373,1.372H258.713a1.372,1.372,0,0,1-1.373-1.372V53.8a1.373,1.373,0,0,1,1.373-1.373H310.18m0-2.744H258.713A4.118,4.118,0,0,0,254.6,53.8v34.54a4.119,4.119,0,0,0,4.118,4.117H310.18a4.121,4.121,0,0,0,4.118-4.117V82.681h3.147a4.12,4.12,0,0,0,4.117-4.117V63.58a4.12,4.12,0,0,0-4.117-4.117H314.3V53.8a4.118,4.118,0,0,0-4.118-4.118h0Zm-8.971,23.737h-5.84v-4.7h5.666a1.487,1.487,0,0,0,0-2.973h-5.666V62.265h-4.744v0.018c-0.115,0-.227-0.018-0.343-0.018a8.806,8.806,0,0,0-8.655,7.205H268.209a1.6,1.6,0,0,0,0,3.2h13.418a8.806,8.806,0,0,0,8.655,7.205c0.116,0,.228-0.015.343-0.018v0.02h4.745V76.4h5.839a1.487,1.487,0,1,0,0-2.974h0Z" transform="translate(-254.594 -49.688)"/>
</svg>
