<svg xmlns="http://www.w3.org/2000/svg" width="48" height="43.188" viewBox="0 0 48 43.188">
  <defs>
    <style>
      .cls-1 {
        fill: #fa7124;
        fill-rule: evenodd;
      }
    </style>
  </defs>
  <path class="cls-1" d="M1173.99,476.8c-0.08-1.367-1.7-2.437-4.96-3.253a1.776,1.776,0,0,0,.17-0.747v-5.6h-0.01c-0.29-4.664-19.4-4.8-21.59-4.8s-21.3.137-21.59,4.8H1126v5.6c0,1.52,1.96,2.711,4.88,3.6a1.832,1.832,0,0,0-.07.4h-0.01v5.59c-3.14.813-4.71,1.867-4.79,3.212H1126v5.6c0,1.059.96,1.953,2.52,2.7a1.712,1.712,0,0,0-.11.5h-0.01V500c0.01,2.66,6,4.312,12.66,5.082a0.5,0.5,0,0,0,.14.031,0.152,0.152,0,0,0,.04-0.012c1.29,0.145,2.59.258,3.88,0.34a0.566,0.566,0,0,0,.08.016c0.01,0,.03-0.008.04-0.008,1.64,0.1,3.25.149,4.76,0.149s3.12-.051,4.76-0.149c0.01,0,.03.008,0.04,0.008,0.03,0,.05-0.016.08-0.016,1.29-.082,2.59-0.195,3.88-0.34,0.01,0,.03.008,0.04,0.008a0.985,0.985,0,0,0,.15-0.027c6.65-.773,12.64-2.426,12.65-5.086v-5.6h-0.01c-0.06-.98-0.89-1.8-2.55-2.484a1.793,1.793,0,0,0,.16-0.719v-5.23c2.87-.883,4.8-2.063,4.8-3.57v-5.6h-0.01Zm-6.48,14.661-0.27.238a7.151,7.151,0,0,1-2.04,1.1v-3.813a12.024,12.024,0,0,0,2.4-1.1V491.2a0.491,0.491,0,0,1-.09.262h0Zm-17.89,3.715c-0.12,0-.23,0-0.35.008-0.29.007-.58,0.007-0.87,0.011v-4l0.66-.011,0.13,0c0.8-.012,1.61-0.039,2.41-0.075V495.1c-0.17.011-.34,0.019-0.51,0.027-0.49.019-.97,0.035-1.47,0.047h0Zm-3.49.012c-0.37-.008-0.73-0.016-1.09-0.028l-0.14,0c-0.44-.015-0.87-0.031-1.3-0.054v-3.993c0.8,0.039,1.61.063,2.41,0.079h0.13l0.66,0.011v4c-0.15,0-.31,0-0.46,0-0.07,0-.15,0-0.21,0h0Zm-14.45-1.825-0.08-.023v-3.863c0.75,0.2,1.55.386,2.4,0.554v3.9c-0.73-.157-1.41-0.321-2.03-0.489-0.09-.027-0.2-0.054-0.29-0.082h0Zm16.86,6.625L1149.2,500v4c-1.11-.008-2.17-0.039-3.2-0.09v-4c0.8,0.039,1.61.063,2.41,0.078h0.13Zm3.05,0c0.8-.015,1.61-0.043,2.41-0.078V503.9c-1.03.051-2.09,0.086-3.2,0.094v-4c0.22,0,.44,0,0.66-0.008h0.13Zm6.41-.363V503.6q-1.155.123-2.4,0.211v-3.993c0.81-.05,1.61-0.117,2.4-0.191h0Zm1.6-.172q1.245-.151,2.4-0.34v3.93q-1.125.2-2.4,0.367v-3.957Zm4-.625q1.275-.252,2.4-0.551v3.864c-0.71.207-1.52,0.406-2.4,0.593v-3.906Zm-27.2,0v3.906c-0.88-.187-1.69-0.386-2.4-0.593v-3.864c0.75,0.2,1.55.387,2.4,0.551h0Zm1.6,0.285q1.155,0.194,2.4.34v3.957c-0.84-.113-1.65-0.234-2.4-0.367v-3.93Zm4,0.512c0.79,0.074,1.59.141,2.4,0.195v3.989q-1.245-.089-2.4-0.211v-3.973Zm-1.98-4.785-0.25-.024c-0.06-.007-0.11-0.011-0.17-0.019v-3.973c0.79,0.078,1.59.141,2.4,0.2v3.988c-0.67-.051-1.34-0.106-1.98-0.168h0ZM1138,490.65v3.957q-1.26-.17-2.4-0.367v-3.929q1.17,0.192,2.4.339h0Zm15.73,4.317c-0.17.011-.35,0.027-0.53,0.039v-3.988c0.81-.055,1.61-0.118,2.4-0.2V494.8c-0.49.051-1,.1-1.52,0.144-0.12.008-.23,0.02-0.35,0.028h0Zm3.47-.36V490.65q1.23-.145,2.4-0.339v3.929c-0.75.133-1.55,0.258-2.4,0.367h0Zm4-4.582c0.85-.164,1.65-0.351,2.4-0.55v3.863q-1.065.31-2.4,0.594v-3.907Zm-10.94-3.652q-0.9-.024-1.77-0.066a0.678,0.678,0,0,0-.09,0v-4c0.8,0.039,1.61.063,2.41,0.078,0.04,0,.09,0,0.13,0,0.22,0,.44,0,0.66.009v4c-0.39,0-.78-0.008-1.16-0.016-0.06,0-.12,0-0.18,0h0ZM1131.6,474.94v-3.864q1.125,0.3,2.4.552v3.905c-0.1-.024-0.2-0.043-0.3-0.063-0.42-.092-0.84-0.191-1.24-0.3-0.3-.074-0.58-0.156-0.86-0.233h0Zm14.54-2.153q0.33,0.007.66,0.008v4c-1.08-.013-2.15-0.039-3.2-0.091V472.71c0.8,0.034,1.61.062,2.41,0.077h0.13Zm3.05,0c0.8-.016,1.61-0.039,2.41-0.073V476.7l-0.4.023a0.174,0.174,0,0,0-.04,0c-0.54.025-1.08,0.039-1.64,0.051-0.08,0-.17,0-0.25.008-0.29,0-.58.009-0.87,0.009v-4q0.33,0,.66-0.008Zm18.23,0.4-0.03,0-0.29.227a7.853,7.853,0,0,1-1.9.984v-3.807a11.915,11.915,0,0,0,2.4-1.1V472.8a0.616,0.616,0,0,1-.18.391h0ZM1157.2,476.2v-3.952q1.23-.149,2.4-0.337v3.923c-0.76.131-1.56,0.256-2.4,0.366h0Zm4-.676v-3.9q1.275-.252,2.4-0.552v3.855c-0.72.207-1.53,0.406-2.4,0.594h0Zm-5.6-3.1v3.969c-0.77.078-1.57,0.153-2.4,0.212v-3.985q1.215-.081,2.4-0.2h0Zm-16,3.969v-3.969q1.185,0.114,2.4.2v3.98c-0.81-.057-1.62-0.125-2.4-0.207h0Zm-1.6-4.143V476.2c-0.16-.02-0.32-0.034-0.48-0.059-0.1-.012-0.2-0.027-0.3-0.043-0.46-.066-0.91-0.137-1.36-0.211-0.09-.014-0.17-0.031-0.26-0.047v-3.929q1.17,0.188,2.4.337h0Zm8.6,13.944c-0.11-.011-0.21-0.019-0.32-0.027-0.51-.039-1.01-0.082-1.5-0.133-0.11-.008-0.21-0.019-0.32-0.031a0.309,0.309,0,0,1-.06-0.008v-3.972c0.79,0.077,1.59.14,2.4,0.194v3.989l-0.2-.012h0Zm-5.28-.6c-0.32-.051-0.62-0.106-0.92-0.16v-3.923c0.78,0.125,1.58.24,2.4,0.336v3.958c-0.49-.063-0.97-0.133-1.43-0.2a0.287,0.287,0,0,0-.05-0.007h0Zm-2.52-4.367v3.9c-0.89-.191-1.69-0.395-2.4-0.6v-3.852c0.75,0.2,1.55.388,2.4,0.556h0Zm-4-1.044v3.8a4.934,4.934,0,0,1-2.33-1.421l-0.06-.091c0-.027-0.01-0.051-0.01-0.077v-3.312a12.025,12.025,0,0,0,2.4,1.1h0Zm19.19,2.2c0.8-.015,1.61-0.039,2.41-0.078V486.3c-1.05.051-2.12,0.078-3.2,0.09V482.4c0.22,0,.44,0,0.66-0.009Zm10.33,3.071c-0.35.059-.7,0.121-1.06,0.176-0.21.031-.43,0.062-0.64,0.094s-0.41.05-.62,0.078v-3.954c0.82-.1,1.62-0.211,2.4-0.336v3.926c-0.03,0-.05.012-0.08,0.016h0Zm-5.41.684c-0.3.023-.61,0.039-0.91,0.062v-3.985c0.81-.054,1.61-0.117,2.4-0.194v3.968c-0.47.051-.93,0.1-1.41,0.141a0.542,0.542,0,0,0-.08.008h0Zm9.14-1.5c-0.4.109-.82,0.214-1.25,0.316-0.2.047-.4,0.09-0.61,0.137-0.06.011-.13,0.027-0.19,0.039v-3.9c0.85-.168,1.65-0.351,2.4-0.556v3.868c-0.11.031-.23,0.062-0.35,0.1h0Zm4.34-7.785c-0.07.543-1.3,1.265-3.5,1.944a53.935,53.935,0,0,1-12.87,1.922l-0.87.035c-0.24.008-.48,0.012-0.72,0.02-0.66.017-1.34,0.023-2.03,0.023s-1.36-.006-2.03-0.023c-0.24-.008-0.48-0.016-0.72-0.022-0.29-.009-0.58-0.021-0.87-0.033a53.754,53.754,0,0,1-12.87-1.925c-2.18-.671-3.41-1.391-3.5-1.93a0.053,0.053,0,0,1,.02-0.047c0.05,0.013.11,0.023,0.16,0.039,0.32,0.074.64,0.146,0.97,0.215,1.59,0.34,3.35.621,5.22,0.836,0.01,0,.01,0,0.02,0h0.01c1.27,0.144,2.6.258,3.96,0.341,0.01,0,.02.006,0.03,0.006s0.01,0,.02,0c0.98,0.055,1.97.1,2.97,0.123,0.62,0.014,1.22.022,1.81,0.022,0.42,0,.85,0,1.29-0.012a61.226,61.226,0,0,0,14.94-1.851q0.27-.076.51-0.153c0.1-.03.21-0.058,0.3-0.089q0.435-.141.84-0.29c0.05-.015.09-0.035,0.14-0.049,0.22-.087.44-0.177,0.65-0.266,0.06-.028.12-0.056,0.18-0.079,0.22-.1.44-0.2,0.64-0.309,0.08-.047.16-0.1,0.25-0.144s0.19-.113.28-0.168c0.05-.03.11-0.063,0.15-0.093,3.59,0.773,4.53,1.625,4.62,1.957h0ZM1147.6,464c13.19,0,19.86,2.073,19.99,3.264-0.1.543-1.33,1.258-3.5,1.93a53.527,53.527,0,0,1-12.87,1.922l-0.87.035c-0.24.008-.48,0.016-0.72,0.019-0.67.017-1.34,0.028-2.03,0.028s-1.37-.011-2.03-0.028c-0.24,0-.48-0.011-0.72-0.019l-0.87-.035a53.527,53.527,0,0,1-12.87-1.922c-2.17-.672-3.4-1.387-3.5-1.93,0.13-1.191,6.8-3.264,19.99-3.264h0Zm-20,8.8v-3.312a11.915,11.915,0,0,0,2.4,1.1v3.832c-1.56-.582-2.4-1.168-2.4-1.619h0Zm3.88,11.071a0.16,0.16,0,0,0,.04.035c1.09,1.106,3.36,1.977,6.18,2.625,0.07,0.012.14,0.028,0.2,0.043,0.21,0.047.42,0.094,0.64,0.137a61.87,61.87,0,0,0,9.05,1.148h0.01c1.09,0.063,2.19.106,3.33,0.125,0.5,0.012.99,0.02,1.47,0.02,0.55,0,1.12-.008,1.69-0.024,1.05-.019,2.08-0.062,3.1-0.121h0.01c0.01,0,.01,0,0.02,0a62.353,62.353,0,0,0,9.24-1.179,15.1,15.1,0,0,1-2.37.922,55.149,55.149,0,0,1-13.82,1.961c-0.18,0-.36.011-0.55,0.015l-0.59.012c-0.5.008-1.01,0.016-1.53,0.016-0.69,0-1.37-.008-2.03-0.024l-0.72-.023c-0.29-.008-0.58-0.02-0.87-0.032a53.754,53.754,0,0,1-12.87-1.925c-2.2-.68-3.43-1.4-3.5-1.946,0.09-.3.9-1.054,3.87-1.781h0Zm-3.88,7.328v-3.312a12.024,12.024,0,0,0,2.4,1.1V492.8l-0.46-.176v0.008c-1.26-.52-1.94-1.031-1.94-1.434h0Zm2.4,8.8v-3.312a12.024,12.024,0,0,0,2.4,1.1v3.828c-1.56-.582-2.4-1.168-2.4-1.617h0Zm37.6,1.617v-3.828a12.024,12.024,0,0,0,2.4-1.1v3.308c0,0.453-.84,1.039-2.4,1.621h0Zm2.39-7.152c-0.09.539-1.32,1.258-3.5,1.933a53.745,53.745,0,0,1-12.87,1.926c-0.29.012-.58,0.024-0.87,0.031l-0.72.024c-0.67.012-1.34,0.023-2.03,0.023s-1.37-.011-2.03-0.027c-0.24,0-.48-0.012-0.72-0.02l-0.87-.035a53.577,53.577,0,0,1-12.87-1.922c-2.11-.652-3.34-1.347-3.49-1.882,0.24,0.082.48,0.164,0.74,0.242l0.08,0.023c0.21,0.067.43,0.129,0.66,0.192,0.09,0.023.17,0.05,0.26,0.07,0.13,0.035.26,0.07,0.39,0.1a58.333,58.333,0,0,0,10.65,1.515h0c1.24,0.07,2.51.117,3.79,0.133,0.34,0.008.68,0.008,1.01,0.008q0.66,0,1.35-.012c1.17-.019,2.32-0.062,3.44-0.129h0.02c1.37-.086,2.7-0.2,3.98-0.347h0.01c0.02,0,.03-0.008.05-0.008,1.42-.164,2.77-0.367,4.02-0.6,0.26-.047.51-0.094,0.76-0.144l0.17-.036a21.627,21.627,0,0,0,5.81-1.89c0.08-.043.15-0.086,0.22-0.129,0.09-.051.18-0.106,0.26-0.16s0.16-.1.23-0.149c1.58,0.563,2.02,1.067,2.07,1.27h0Zm0.01-10.45v-3.828a12.025,12.025,0,0,0,2.4-1.1V482.4c0,0.448-.85,1.034-2.4,1.616h0Z" transform="translate(-1126 -462.406)"/>
</svg>
